<svg width="241" height="39" viewBox="0 0 241 39" fill="none" xmlns="http://www.w3.org/2000/svg">
<g clip-path="url(#clip0_2303_10649)">
<path d="M119.104 26.0586C118.704 23.3336 117.582 20.8491 113.494 20.4484C117.582 20.0477 118.704 17.5632 119.104 14.8383C119.505 17.5632 120.627 20.0477 124.714 20.4484C120.547 20.8491 119.425 23.3336 119.104 26.0586Z" fill="url(#paint0_linear_2303_10649)"/>
<path d="M112.293 17.2426C111.972 15.0787 111.091 13.1552 107.885 12.8346C111.091 12.514 111.972 10.5906 112.293 8.42664C112.613 10.5906 113.495 12.514 116.701 12.8346C113.415 13.1552 112.533 15.0787 112.293 17.2426Z" fill="url(#paint1_linear_2303_10649)"/>
<path d="M121.829 12.4339C121.749 11.6325 121.429 10.9112 120.227 10.831C121.429 10.7509 121.749 10.0296 121.829 9.22815C121.91 10.0296 122.23 10.7509 123.432 10.831C122.23 10.9112 121.91 11.6325 121.829 12.4339Z" fill="url(#paint2_linear_2303_10649)"/>
</g>
<g clip-path="url(#clip1_2303_10649)">
<path d="M182.821 27.6465C181.71 27.6656 180.607 27.4485 179.586 27.0094C178.673 26.6116 177.895 25.955 177.35 25.1207C176.802 24.285 176.528 23.2416 176.528 21.9907C176.498 21.0713 176.698 20.1588 177.108 19.3354C177.481 18.6358 178.025 18.0415 178.688 17.607C179.389 17.1559 180.159 16.822 180.967 16.6185C181.849 16.3912 182.747 16.2345 183.654 16.1499C184.75 16.0348 185.64 15.9259 186.325 15.8232C187.01 15.7204 187.497 15.5656 187.784 15.3587C187.934 15.2597 188.055 15.1235 188.135 14.9634C188.215 14.8033 188.253 14.625 188.243 14.4462V14.3722C188.243 13.5885 187.998 12.9836 187.507 12.5575C187.017 12.1314 186.323 11.917 185.427 11.9142C184.479 11.9142 183.726 12.1197 183.167 12.5308C182.631 12.9118 182.24 13.4621 182.057 14.0927L177.19 13.7146C177.415 12.6093 177.916 11.5791 178.647 10.7202C179.41 9.84596 180.376 9.17266 181.461 8.75955C182.737 8.28074 184.093 8.04851 185.456 8.07518C186.478 8.07142 187.496 8.1957 188.487 8.44511C189.408 8.67566 190.28 9.06815 191.062 9.60423C191.809 10.1154 192.422 10.7993 192.848 11.5977C193.305 12.4976 193.529 13.4972 193.502 14.5058V27.2786H188.514V24.6583H188.366C188.06 25.2507 187.645 25.7805 187.143 26.2202C186.6 26.6862 185.972 27.0422 185.294 27.2684C184.496 27.5318 183.661 27.6597 182.821 27.6465ZM184.338 24.015C185.05 24.0305 185.756 23.8718 186.393 23.5526C186.962 23.2664 187.443 22.8336 187.789 22.299C188.129 21.7645 188.305 21.1423 188.296 20.5089V18.4969C188.086 18.6233 187.859 18.7208 187.622 18.7867C187.338 18.873 187.02 18.9511 186.666 19.021C186.313 19.0909 185.959 19.1525 185.604 19.206L184.64 19.3478C184.085 19.4215 183.541 19.5665 183.023 19.7793C182.602 19.9483 182.233 20.2229 181.95 20.5768C181.687 20.9329 181.551 21.3673 181.566 21.8098C181.547 22.1279 181.609 22.4456 181.746 22.7331C181.883 23.0206 182.091 23.2686 182.351 23.454C182.937 23.8461 183.633 24.0425 184.338 24.015Z" fill="#FAF9F6"/>
<path d="M202.849 16.3225V27.2786H197.588V8.32177H202.602V11.6594H202.835C203.236 10.58 203.977 9.65987 204.945 9.03697C205.933 8.38891 207.131 8.06556 208.538 8.06693C209.743 8.03842 210.934 8.33669 211.984 8.9301C212.969 9.51297 213.762 10.3699 214.268 11.3963C214.816 12.4622 215.09 13.7323 215.09 15.2066V27.2786H209.822V16.1499C209.831 14.9894 209.535 14.0817 208.934 13.4268C208.334 12.7719 207.507 12.4451 206.452 12.4465C205.799 12.4328 205.155 12.5901 204.582 12.9027C204.039 13.2102 203.6 13.6724 203.322 14.2304C203.002 14.8809 202.84 15.5977 202.849 16.3225Z" fill="#FAF9F6"/>
<path d="M228.815 23.1396L228.247 23.2444C228.003 23.2894 227.756 23.3121 227.508 23.3122C227.189 23.3187 226.872 23.2643 226.575 23.1519C226.31 23.0416 226.092 22.8425 225.958 22.5888C225.792 22.2368 225.716 21.8492 225.736 21.4605V12.276H229.306V8.32186H225.728V3.77789H220.469V8.32186H217.875V12.276H220.469V22.1511C220.46 23.3951 220.72 24.4227 221.248 25.2338C221.778 26.053 222.553 26.6839 223.463 27.0362C224.523 27.4399 225.658 27.6123 226.79 27.5418C227.376 27.5282 227.959 27.4594 228.531 27.3362C229.008 27.2253 229.38 27.1307 229.643 27.0465L228.815 23.1396Z" fill="#FAF9F6"/>
<path d="M159.915 19.249L159.405 19.9539L158.596 20.2725L159.301 20.7822L159.619 21.5919L160.129 20.887L160.939 20.5684L160.234 20.0588L159.915 19.249Z" fill="#FAF9F6"/>
<path d="M158.998 25.6571C158.534 25.1392 158.536 24.3418 158.939 23.6698C158.469 23.6817 158.02 23.861 157.671 24.1754C157.43 24.3879 157.244 24.6555 157.13 24.9554C157.015 25.2553 156.974 25.5785 157.011 25.8975C157.049 26.2164 157.163 26.5216 157.343 26.7869C157.524 27.0523 157.767 27.2699 158.05 27.4213C158.333 27.5726 158.649 27.6531 158.97 27.656C159.291 27.6588 159.608 27.5839 159.894 27.4377C160.18 27.2914 160.426 27.0781 160.611 26.816C160.797 26.5539 160.916 26.2508 160.959 25.9325C160.254 26.2511 159.471 26.173 158.998 25.6571Z" fill="#FAF9F6"/>
<path d="M240.065 22.897C239.715 22.0759 239.061 21.4219 238.24 21.072C237.818 20.897 237.366 20.8069 236.91 20.8069C236.454 20.8069 236.002 20.897 235.58 21.072C234.759 21.4219 234.105 22.0759 233.755 22.897C233.58 23.3185 233.49 23.7703 233.49 24.2267C233.49 24.683 233.58 25.1349 233.755 25.5564C234.105 26.3775 234.759 27.0315 235.58 27.3814C236.002 27.5564 236.454 27.6465 236.91 27.6465C237.366 27.6465 237.818 27.5564 238.24 27.3814C239.061 27.0315 239.715 26.3775 240.065 25.5564C240.415 24.7046 240.415 23.7488 240.065 22.897ZM239.232 25.5687C238.995 25.9704 238.66 26.3056 238.258 26.5429C237.845 26.7799 237.378 26.9047 236.902 26.9047C236.426 26.9047 235.958 26.7799 235.545 26.5429C235.144 26.3056 234.809 25.9704 234.571 25.5687C234.334 25.1567 234.21 24.6897 234.21 24.2143C234.21 23.739 234.334 23.272 234.571 22.86C234.809 22.4589 235.144 22.1244 235.545 21.8879C235.957 21.6496 236.425 21.5241 236.901 21.5241C237.377 21.5241 237.844 21.6496 238.256 21.8879C238.659 22.1238 238.995 22.4583 239.232 22.86C239.469 23.272 239.594 23.739 239.594 24.2143C239.594 24.6897 239.469 25.1567 239.232 25.5687Z" fill="#FAF9F6"/>
<path d="M238.074 24.3007C238.17 24.1438 238.218 23.9624 238.212 23.7787C238.218 23.5958 238.172 23.415 238.08 23.2567C237.991 23.1114 237.862 22.995 237.708 22.9217C237.538 22.8405 237.352 22.7997 237.164 22.8025H235.754V25.7147H236.551V24.7405H236.987L237.419 25.7147H238.29L237.752 24.6069C237.884 24.5343 237.995 24.4288 238.074 24.3007ZM236.551 23.3903H236.989C237.092 23.3851 237.193 23.4188 237.273 23.4848C237.312 23.5222 237.343 23.5681 237.362 23.619C237.381 23.6699 237.389 23.7245 237.384 23.7787C237.388 23.8322 237.38 23.8859 237.361 23.936C237.341 23.9861 237.311 24.0314 237.273 24.0685C237.193 24.1369 237.09 24.1723 236.985 24.1671H236.551V23.3903Z" fill="#FAF9F6"/>
<path d="M170.867 2.00006L166.683 19.6067H166.456L161.855 2.00006H156.855L152.237 19.5697H152.031L147.841 2.00006H142L149.236 27.2786H154.456L154.621 26.6805L158.48 13.4247C158.555 13.1861 158.704 12.9776 158.905 12.8297C159.107 12.6818 159.35 12.6022 159.6 12.6027H161.828C161.937 12.6027 162.042 12.646 162.119 12.723C162.196 12.8001 162.239 12.9047 162.239 13.0137C162.249 13.1946 162.219 13.3754 162.153 13.5439L161.781 14.144C161.493 14.609 161.305 15.1294 161.231 15.6714C161.156 16.2134 161.197 16.7651 161.349 17.2905L164.262 27.2786H169.473L176.708 2.00006H170.867Z" fill="#FAF9F6"/>
</g>
<g clip-path="url(#clip2_2303_10649)">
<path d="M8.21404 9.75587C5.07686 9.75587 2.21678 11.5496 0.831275 14.3897C-0.544333 17.2298 -0.197957 20.608 1.73185 23.0993C2.69181 22.2323 3.92887 21.744 5.2253 21.744H8.21404C6.17536 21.744 4.51276 20.0798 4.51276 18.017C4.51276 15.9542 6.16547 14.29 8.21404 14.29C10.2626 14.29 11.9153 15.9542 11.9153 18.017V14.1904C11.9153 13.1241 12.2914 12.0877 12.9841 11.2805C11.5986 10.284 9.92612 9.74591 8.21404 9.75587Z" fill="#FAF9F6"/>
<path d="M18.5852 9.74591H16.3288C15.161 9.74591 14.0328 10.2143 13.2015 11.0513C13.1224 11.1311 13.0531 11.2108 12.9838 11.2905C15.1413 12.8451 16.4278 15.3463 16.4278 18.017V14.29H18.5852V9.74591ZM16.0814 20.3788C15.0423 23.8865 11.8358 26.2881 8.20383 26.2881C11.8457 26.2881 15.0423 23.8865 16.0814 20.3788ZM1.73155 23.0993C0.118423 24.5542 -0.425882 26.8561 0.346042 28.899C1.11797 30.9319 3.05767 32.2772 5.225 32.2772H11.2025C11.5983 32.2772 11.915 32.5961 11.915 32.9947C11.915 33.3933 11.5983 33.7122 11.2025 33.7122H5.95733V38.2563H11.2025C14.0922 38.2563 16.4278 35.9045 16.4278 32.9947C16.4278 30.0849 14.0922 27.7331 11.2025 27.7331H5.225C4.82914 27.7331 4.51245 27.4142 4.51245 27.0156C4.51245 26.617 4.82914 26.2981 5.225 26.2981H8.21373C5.68023 26.2881 3.28529 25.1122 1.73155 23.0993Z" fill="#FAF9F6"/>
<path d="M12.9847 11.2905C12.2919 12.0977 11.906 13.1241 11.9159 14.2004V18.027C11.9159 20.0798 10.2632 21.754 8.2146 21.754H5.22587C3.93933 21.754 2.69238 22.2323 1.73242 23.1092C3.28617 25.1122 5.68111 26.2881 8.2146 26.2881C11.7872 26.2881 14.9442 23.9662 16.0328 20.5382C17.1214 17.1102 15.8943 13.3832 12.9847 11.2905Z" fill="#FAF9F6"/>
<path d="M25.7101 9.73596H21.1973V26.2881V15.8944C21.1973 13.1142 23.0479 10.6827 25.7101 9.94523V9.73596Z" fill="#FAF9F6"/>
<path d="M27.3142 9.73596C26.7699 9.73596 26.2355 9.80572 25.7109 9.94523V15.8845C25.7109 15.2367 26.0969 14.6488 26.7006 14.3997C27.3043 14.1505 27.9871 14.2901 28.4424 14.7484L31.629 11.5297C30.4909 10.3837 28.9372 9.73596 27.3142 9.73596Z" fill="#FAF9F6"/>
<path d="M25.7101 9.9552C23.0479 10.6827 21.1973 13.1241 21.1973 15.9044V26.2981H25.7101V9.9552Z" fill="#FAF9F6"/>
<path d="M38.3684 9.76587H33.8457V26.2782H38.3684V9.76587Z" fill="#FAF9F6"/>
<path d="M38.4074 0.0697632H33.8848V4.87298H38.4074V0.0697632Z" fill="#FAF9F6"/>
<path d="M57.4503 0H52.9375V10.6428C55.7085 12.0479 57.4503 14.9079 57.4503 18.027V0ZM57.4503 18.0171C57.4503 21.1362 55.6986 23.9962 52.9375 25.4013V26.2882H57.4503V18.0171Z" fill="#FAF9F6"/>
<path d="M49.2359 9.75591C45.8414 9.75591 42.7933 11.8586 41.5661 15.0474C40.339 18.2363 41.2 21.8536 43.7137 24.1556C46.2274 26.4476 49.8891 26.9459 52.9273 25.4112V18.027C52.9273 20.0798 51.2746 21.754 49.226 21.754C47.1774 21.754 45.5247 20.0898 45.5247 18.027C45.5247 15.9642 47.1774 14.3 49.226 14.3C51.2647 14.3 52.9273 15.9642 52.9273 18.027V10.6428C51.7892 10.0549 50.5224 9.74594 49.2359 9.75591Z" fill="#FAF9F6"/>
<path d="M52.9375 10.6428V18.027V25.4112C55.7085 24.0061 57.4503 21.1461 57.4503 18.027C57.4503 14.898 55.6986 12.0479 52.9375 10.6428Z" fill="#FAF9F6"/>
<path d="M76.4796 0H71.9668V10.6428C74.7378 12.0479 76.4796 14.9079 76.4796 18.027V0ZM76.4796 18.0171C76.4796 21.1362 74.7279 23.9962 71.9668 25.4013V26.2882H76.4796V18.0171Z" fill="#FAF9F6"/>
<path d="M68.2652 9.75591C64.8707 9.75591 61.8226 11.8586 60.5954 15.0474C59.3683 18.2363 60.2293 21.8536 62.743 24.1556C65.2567 26.4476 68.9184 26.9459 71.9566 25.4112V18.027C71.9566 20.0798 70.3039 21.754 68.2553 21.754C66.2067 21.754 64.554 20.0898 64.554 18.027C64.554 15.9642 66.2067 14.3 68.2553 14.3C70.294 14.3 71.9566 15.9642 71.9566 18.027V10.6428C70.8185 10.0549 69.5517 9.74594 68.2652 9.75591Z" fill="#FAF9F6"/>
<path d="M71.9668 10.6428V18.027V25.4112C74.7378 24.0061 76.4796 21.1461 76.4796 18.027C76.4796 14.898 74.7378 12.0479 71.9668 10.6428Z" fill="#FAF9F6"/>
<path d="M87.3048 9.74591C83.9796 9.74591 80.9909 11.7589 79.7142 14.8481C78.4475 17.9373 79.1501 21.4949 81.4956 23.8566C83.841 26.2184 87.3741 26.9259 90.442 25.6503C93.5099 24.3748 95.509 21.3554 95.509 18.0071C95.509 13.443 91.8374 9.74591 87.3048 9.74591ZM87.3048 21.734C85.8104 21.734 84.4546 20.8272 83.8905 19.4321C83.3165 18.0369 83.6332 16.4425 84.6921 15.3762C85.7511 14.31 87.3444 13.9911 88.72 14.5691C90.1055 15.147 91.0061 16.5023 91.0061 18.0071C90.9962 20.0698 89.3435 21.734 87.3048 21.734Z" fill="#FAF9F6"/>
</g>
<defs>
<linearGradient id="paint0_linear_2303_10649" x1="119.104" y1="14.8383" x2="119.104" y2="26.0586" gradientUnits="userSpaceOnUse">
<stop stop-color="#3CC3DD"/>
<stop offset="1" stop-color="#505CFE"/>
</linearGradient>
<linearGradient id="paint1_linear_2303_10649" x1="112.293" y1="8.42664" x2="112.293" y2="17.2426" gradientUnits="userSpaceOnUse">
<stop stop-color="#3CC3DD"/>
<stop offset="1" stop-color="#505CFE"/>
</linearGradient>
<linearGradient id="paint2_linear_2303_10649" x1="121.829" y1="9.22815" x2="121.829" y2="12.4339" gradientUnits="userSpaceOnUse">
<stop stop-color="#3CC3DD"/>
<stop offset="1" stop-color="#505CFE"/>
</linearGradient>
<clipPath id="clip0_2303_10649">
<rect width="19.2348" height="19.2348" fill="white" transform="translate(106.602 7.62524)"/>
</clipPath>
<clipPath id="clip1_2303_10649">
<rect width="98.3273" height="25.6464" fill="white" transform="translate(142 2)"/>
</clipPath>
<clipPath id="clip2_2303_10649">
<rect width="95.5107" height="38.2464" fill="white"/>
</clipPath>
</defs>
</svg>
