<svg viewBox="0 0 506.3 104.86" xmlns="http://www.w3.org/2000/svg"><g fill="#fff"><path d="m293.94 26.76v12.29h-6.01v12.7c0 8.76-9.02 17.74-17.21 19.66-4.99 1.18-9.56-.01-14.05.7-2.09.33-2.1 3.46 0 3.79 9.63.9 21.33-3.02 28.25 5.62 5.75 7.19 2.97 18.49-5.46 22.11-.81.35-3.49 1.23-4.23 1.23h-16.25v-12.56h15.16c1.21 0 1.96-3.12.15-3.7-6.01-.58-12.5.36-18.46-.11-8.1-.64-13.95-7.95-13.23-15.98.32-3.56 2.29-6.66 4.6-9.24-15.17-21.18 9.51-46.83 31.27-32.43 1.43-1.45 3.06-2.78 5.02-3.46.36-.12 1.92-.61 2.13-.61h8.33zm-28.77 12.39c-13.88.14-13.05 21.76 1.32 20.37 12.39-1.19 11.53-20.5-1.32-20.37z"/><path d="m401.28 0v71.68l-.41.41h-12.15v-2.46c-12.63 6.65-28.93-.78-32.27-14.57-3.8-15.74 8.7-29.8 24.72-28.26 2.64.25 5.05 1.4 7.54 2.15v-28.95h12.56zm-24.92 39.39c-4.02.62-7.56 4.64-8.05 8.61-1.04 8.39 7.82 14.49 15.21 10.29 9.73-5.53 4.78-20.75-7.16-18.9z"/><path d="m453.73 0v72.09h-12.56v-2.46c-12.52 6.58-28.53-.61-32.1-14.2-5.03-19.14 14.37-34.75 32.1-26.49v-28.94zm-24.65 39.39c-12.15 1.65-10.56 21.76 3.45 20.11 12.49-1.47 11.2-22.1-3.45-20.11z"/><path d="m480.71 26.84c18.16-1.85 31.34 16.39 23.05 32.87-7.66 15.23-29.33 16.55-38.95 2.52s-.83-33.69 15.9-35.39zm2.47 12.28c-13.46.49-12.68 21.46 1.27 20.41 12.85-.97 11.94-20.89-1.27-20.41z"/><path d="m301.04 26.76c3.8.37 8.49-.48 12.17-.02.52.07.38.56.51.55.45-.04 1.21-.48 1.93-.52 4.38-.28 7.84.28 11.58 2.61.33.2 2.37 1.66 2.44 1.79.17.29 0 .7-.22.94l-8.2 8.19c-2.05-1.19-4.33-1.82-6.3-.02-.33.31-1.35 1.86-1.35 2.2v29.63h-12.56z"/><path d="m336 26.76h12.56v45.33h-12.56z"/><path d="m336 .27h12.56v13.11h-12.56z"/><path d="m121.81 73.24c-2.91 0-5.51-.51-7.79-1.53s-4.08-2.54-5.4-4.55-1.98-4.53-1.98-7.54c0-2.54.47-4.67 1.4-6.39.93-1.73 2.2-3.11 3.81-4.16s3.43-1.84 5.49-2.38 4.21-.91 6.47-1.13c2.66-.28 4.8-.54 6.42-.79 1.63-.25 2.81-.62 3.54-1.12s1.1-1.23 1.1-2.2v-.18c0-1.88-.59-3.34-1.77-4.37s-2.85-1.55-5.01-1.55c-2.28 0-4.09.5-5.44 1.5s-2.24 2.26-2.68 3.76l-11.72-.95c.6-2.78 1.76-5.18 3.51-7.21 1.74-2.03 4-3.6 6.77-4.7s5.97-1.65 9.62-1.65c2.54 0 4.97.3 7.3.89 2.33.6 4.4 1.52 6.22 2.77 1.81 1.25 3.25 2.85 4.3 4.8s1.58 4.29 1.58 7v30.81h-12.01v-6.33h-.36c-.73 1.43-1.72 2.68-2.94 3.76-1.23 1.08-2.71 1.92-4.43 2.53-1.72.6-3.72.91-5.98.91zm3.63-8.75c1.86 0 3.51-.37 4.94-1.12 1.43-.74 2.55-1.75 3.36-3.02s1.22-2.71 1.22-4.31v-4.85c-.4.26-.94.49-1.62.7s-1.45.4-2.3.57-1.71.32-2.56.45-1.63.24-2.32.34c-1.49.22-2.79.57-3.9 1.04-1.11.48-1.97 1.12-2.59 1.92-.61.8-.92 1.8-.92 2.99 0 1.72.63 3.04 1.89 3.94s2.86 1.35 4.8 1.35z"/><path d="m170.05 45.97v26.41h-12.67v-45.68h12.07v8.06h.54c1.01-2.66 2.71-4.76 5.09-6.32s5.26-2.33 8.65-2.33c3.17 0 5.94.69 8.3 2.08s4.19 3.37 5.5 5.93c1.31 2.57 1.96 5.63 1.96 9.17v29.08h-12.67v-26.82c.02-2.8-.69-4.98-2.14-6.56s-3.44-2.36-5.98-2.36c-1.71 0-3.21.37-4.51 1.1s-2.31 1.8-3.03 3.2-1.1 3.08-1.12 5.04z"/><path d="m232.59 62.38c-.32.06-.77.14-1.37.25-.59.11-1.19.16-1.78.16-.85 0-1.6-.13-2.25-.39-.64-.26-1.15-.71-1.5-1.35-.36-.64-.54-1.55-.54-2.72v-22.13h8.59v-9.52h-8.59v-10.94h-12.67v10.94h-6.25v9.52h6.25v23.79c-.02 2.99.6 5.47 1.87 7.43s3.05 3.41 5.34 4.34 4.96 1.34 8.01 1.22c1.65-.06 3.04-.22 4.19-.49s2.04-.5 2.68-.7l-1.99-9.43z"/><path d="m66.65 53.01-1.23 1.7-1.95.77 1.7 1.23.76 1.95 1.23-1.7 1.95-.77-1.7-1.23z"/><path d="m64.43 68.45c-1.12-1.25-1.11-3.16-.14-4.79-1.09.03-2.18.43-3.05 1.22-1.97 1.77-2.14 4.8-.37 6.77s4.8 2.14 6.77.37c.88-.79 1.39-1.82 1.54-2.9-1.72.79-3.63.58-4.74-.66z"/><path d="m93.03 11.47-10.08 42.41h-.54l-11.09-42.41h-12.04l-11.12 42.32h-.51l-10.08-42.32h-14.07l17.43 60.91h12.57l.4-1.44 9.3-31.93c.36-1.19 1.46-2 2.7-2h5.36c.55 0 .99.45.98 1 0 .49-.06 1.03-.21 1.28l-.9 1.44c-1.4 2.26-1.78 5.01-1.03 7.56l7.01 24.08h12.55l17.43-60.91h-14.07z"/><path d="m0 26.76h12.56v45.33h-12.56z"/><path d="m0 .27h12.56v13.11h-12.56z"/></g></svg>