<svg fill="none" height="37" viewBox="0 0 61 37" width="61" xmlns="http://www.w3.org/2000/svg"><path d="m25.0605 0c9.6016 0 17.6452 6.16434 19.6592 14.3818v-13.907191h15.503v5.245121h-10.3448v9.84077h6.8867v5.1583h-6.8867v10.3007h10.3731v5.1582h-15.5166v-13.7216c-2.0001 8.2174-10.0726 14.3818-19.6602 14.3818h-2.5713v-12.2559h-10.4013l-8.01566 11.5674h-4.08594v-32.8867l5.12988-2.744145v25.041045l13.83012-19.99905c-1.4997.21568-2.8292.47389-3.958.81836l-2.4581.73339-1.4707-4.95703 2.4571-.73242c3.0148-.891415 7.2012-1.42284854 11.5302-1.42285zm2.5743 31.4375c7.0433-1.0785 12.4147-6.4799 12.415-13.0166 0-6.5369-5.3716-11.96811-12.415-13.0459zm-11.959-12.0693h6.8144v-9.8555z" fill="#001b3c"/></svg>