<svg fill="none" height="29" viewBox="0 0 87 29" width="87" xmlns="http://www.w3.org/2000/svg" xmlns:xlink="http://www.w3.org/1999/xlink"><clipPath id="a"><path d="m0 0h87v29h-87z"/></clipPath><g clip-path="url(#a)"><path d="m10.4684 11.0469h-3.70278v7.4438h3.70278z" stroke="#001b3c" stroke-miterlimit="10" stroke-width="1.51568"/><path d="m20.3356 11.0469h-3.7028v7.4438h3.7028z" stroke="#001b3c" stroke-miterlimit="10" stroke-width="1.51568"/><path d="m13.5785 8.81445-2.0433 2.23265v7.4439h4.0312v-7.4439z" stroke="#001b3c" stroke-miterlimit="10" stroke-width="1.51568"/><path d="m4.25837 23.5617-2.21358 1.391c-.18518.1156-.2987.3257-.2987.5513v1.9661c0 .4068.31856.6966.66479.698h2.61231c.14686 0 .26605-.1248.26605-.2785v-1.4085l1.25366-.7882c-.83932-.6105-1.60627-1.3268-2.28453-2.1319z" stroke="#001b3c" stroke-miterlimit="10" stroke-width="1.51568"/><path d="m25.0233 24.9526-2.1923-1.3796c-.6796.8044-1.448 1.5199-2.288 2.1297l1.2359.7797v1.4086c0 .1537.1192.2785.266.2785h2.6124c.3469-.0015.6647-.2919.6647-.698v-1.9662c0-.2263-.1135-.4356-.2987-.5512z" stroke="#001b3c" stroke-miterlimit="10" stroke-width="1.51568"/><path d="m13.5502.999512c-6.91673 0-12.54434 6.056468-12.54434 13.500388 0 7.4438 5.62761 13.5003 12.54434 13.5003 6.9167 0 12.5443-6.0565 12.5443-13.5003 0-7.44392-5.6269-13.500388-12.5443-13.500388z" stroke="#001b3c" stroke-miterlimit="10" stroke-width="1.51568"/><path d="m13.5519 24.818c-5.30198 0-9.60073-4.6197-9.60073-10.318 0-5.69839 4.29804-10.31812 9.60073-10.31812 5.3026 0 9.6007 4.61973 9.6007 10.31812 0 5.6983-4.2988 10.318-9.6007 10.318z" stroke="#001b3c" stroke-miterlimit="10" stroke-width="1.51568"/><g fill="#001b3c"><path d="m64.582 7.41089.0084.00454v-.00454z"/><path d="m43.2031 7.41089.0084.00454v-.00454z"/><path d="m41.5391 7.47565v.71907h1.0933v-.88686c-.3938.03384-.7741.0987-1.0933.16779z"/><path d="m62.7773 7.47565v.71907h1.0934v-.88686c-.3931.03384-.7741.0987-1.0934.16779z"/><path d="m32.0258 13.888c-1.9943 0-2.6215-1.0053-2.6215-2.5647v-3.84845h1.0933v3.71735c0 1.1971.4151 1.8506 1.5282 1.8506 1.1132 0 1.4977-.6733 1.4977-1.8506v-3.71735h1.1033v3.83795c0 1.5791-.8301 2.5745-2.6017 2.5745"/><path d="m39.2302 13.7675v-3.1379c0-.94535-.3441-1.36763-1.2451-1.36763-.5775 0-1.1139.16074-1.2955.23124v4.27429h-1.0529v-4.84815c.2632-.09023 1.3161-.42228 2.3789-.42228 1.4474 0 2.2675.54354 2.2675 1.68983v3.5806z"/><path d="m46.549 13.7675h-1.3863l-1.8326-5.14982h1.1132l1.4381 4.41602 1.4267-4.41602h1.0628z"/><path d="m51.1154 9.20134c-.84 0-1.2856.54284-1.3054 1.54886h2.6215c-.0206-.89534-.4555-1.54886-1.3161-1.54886zm-1.3054 2.19246c.0205 1.1668.4959 1.7702 1.6907 1.7702.7087 0 1.5587-.3116 1.7006-.4526v.7847c-.1213.0902-.8911.3919-2.0249.3919-1.8524 0-2.4186-.9552-2.4186-2.8262 0-1.66941.8805-2.56473 2.3583-2.56473 1.4779 0 2.3385.92564 2.3385 2.56473v.332z"/><path d="m56.8249 9.24155c-.547 0-1.1337.18118-1.2955.22137v4.30528h-1.0528v-4.85798c.1823-.09095 1.2749-.41242 2.2164-.41242.0709 0 .5775.01058.6577.05006v.74445c-.1008-.01974-.4044-.05005-.5265-.05005"/><path d="m59.6792 13.888c-1.0933 0-1.7914-.2714-1.9837-.3927v-.7846c.3441.2312 1.1337.4526 1.7311.4526.9309 0 1.2955-.332 1.2955-.7445 0-.3419-.3441-.5534-.779-.724-1.0628-.4124-2.2576-.6634-2.2576-1.72012 0-.95525.9011-1.47834 2.0547-1.47834 1.0323 0 1.7716.3116 1.873.3821v.76419c-.2731-.15086-.9315-.41241-1.6403-.41241-.911 0-1.2246.3116-1.2246.66339 0 .32149.3541.51319.7897.68379.8599.3427 2.2774.6641 2.2774 1.68s-.6988 1.6292-2.1362 1.6292"/><path d="m74.4496 11.2028h-.85c-1.1536 0-1.8319.2517-1.8319 1.0257 0 .6134.5059.9651 1.2757.9651.6882 0 1.2756-.1205 1.4069-.1811v-1.8104h-.0007zm-1.4878 2.6852c-1.4573 0-2.247-.5738-2.247-1.6292 0-1.2372 1.2452-1.6898 2.5308-1.6898h1.204v-.3525c0-.64363-.4151-1.00529-1.5077-1.00529-.7591 0-1.6602.35179-1.812.42229v-.75433c.1724-.06063 1.1032-.3821 2.0646-.3821 1.5793 0 2.2874.51322 2.2874 1.77023v3.2788c-.2328.1008-1.0934.3419-2.5201.3419z"/><path d="m42.6115 8.61768h-1.0529v5.14982h1.0529z"/><path d="m68.7304 12.9025c-.1419.0606-.6478.2418-1.3062.2418-.9819 0-1.4275-.6035-1.4275-2.0825 0-1.20693.4754-1.81039 1.4374-1.81039.5158 0 1.0834.17131 1.2956.27141v3.37968zm0-4.08325c-.1419-.07049-.8202-.32147-1.5793-.32147-1.336 0-2.237.87488-2.237 2.56472 0 1.9013.6477 2.8263 2.5002 2.8263 1.0727 0 1.9738-.2616 2.3682-.4329v-6.38852c-.3675.02397-.7336.07967-1.0528.1417v1.61017z"/><path d="m63.8497 8.61768h-1.0528v5.14982h1.0528z"/><path d="m80.3202 12.9025c-.1419.0606-.6478.2418-1.3054.2418-.982 0-1.4275-.6035-1.4275-2.0825 0-1.20693.4753-1.81039 1.4374-1.81039.5158 0 1.0834.17131 1.2955.27141zm0-4.08325c-.1419-.07049-.8202-.32147-1.5793-.32147-1.336 0-2.237.87488-2.237 2.56472 0 1.9013.6478 2.8263 2.5002 2.8263 1.0728 0 1.9738-.2616 2.3683-.4329v-6.38852c-.3675.02397-.7336.07967-1.0529.1417v1.61017z"/><path d="m53.1731 15.0216-.552.8918h.779l.8365-1.0589c-.3824.0359-.7549.0994-1.0642.1671"/><path d="m66.0382 18.7586h-1.165v2.2503h1.1841c.9096 0 1.4211-.2919 1.4211-1.111 0-.7628-.4831-1.1393-1.4402-1.1393zm-.0092-2.6824h-1.1558v1.9676h1.1841c.7102 0 1.2885-.3109 1.2885-.9976 0-.6866-.4832-.97-1.3168-.97zm.1986 5.6673h-2.3682v-6.4012h2.2455c1.4118 0 2.2639.5365 2.2639 1.6003 0 .7719-.5299 1.3084-1.2976 1.4403.9188.1318 1.4594.6774 1.4594 1.6193 0 1.1956-.8053 1.7413-2.3023 1.7413"/><path d="m71.6969 17.1777c-.84 0-1.2856.5428-1.3054 1.5488h2.6215c-.0206-.8953-.4555-1.5488-1.3161-1.5488zm-1.3054 2.1924c.0198 1.1668.4959 1.7702 1.69 1.7702.7087 0 1.5587-.3116 1.7006-.4525v.7846c-.1213.0902-.8911.392-2.0249.392-1.8517 0-2.4193-.9553-2.4193-2.8263 0-1.6694.8812-2.5647 2.3583-2.5647s2.3377.9256 2.3377 2.5647v.332h-3.6438z"/><path d="m82.0327 17.2277c-1.0423 0-1.4474.5428-1.4474 1.8104 0 1.5291.4051 2.0825 1.4474 2.0825 1.0422 0 1.4572-.5936 1.4572-2.0825 0-1.257-.4249-1.8104-1.4572-1.8104zm0 4.6367c-1.9738 0-2.5307-.9052-2.5307-2.8263 0-1.8203.901-2.5647 2.5307-2.5647 1.6296 0 2.5506.7141 2.5506 2.5647 0 2.1523-.8904 2.8263-2.5506 2.8263z"/><path d="m85.9887 18.3838h.1256c.1319 0 .2575-.0416.2575-.1551 0-.0952-.066-.1664-.2398-.1664-.0717 0-.1135.0056-.1433.012zm0 .5597h-.1859v-.994c.1022-.0176.21-.0296.3476-.0296.1675 0 .2519.0296.3115.0775.0603.0416.1022.1192.1022.2143 0 .1185-.0901.1967-.1916.232v.012c.0837.0359.132.1135.1618.2446.0298.1487.0539.208.078.2439h-.1916c-.0305-.0359-.0539-.1255-.0844-.2559-.0234-.1128-.0894-.1607-.227-.1607h-.1199v.4166h-.0007zm.1674-1.3035c-.4314 0-.7605.3511-.7605.7797s.3292.7854.7726.7854c.4257.0056.7485-.3455.7485-.7797 0-.4343-.3228-.7861-.7549-.7861h-.0057zm.0121-.1664c.5385 0 .9578.4167.9578.9468 0 .5302-.4193.9581-.9642.9581s-.9763-.4167-.9763-.9581.4314-.9468.9763-.9468z"/><path d="m77.3867 21.7429h1.0529v-6.5486c-.3682.024-.7336.0797-1.0529.1417v6.4062z"/><path d="m75.0586 21.7429h1.0529v-6.5486c-.3675.024-.7336.0797-1.0529.1417v6.4062z"/><path d="m39.031 21.7428v-3.1386c0-.9453-.3441-1.3676-1.2451-1.3676-.5768 0-1.1132.1607-1.2955.2312v4.2743h-1.0529v-4.8481c.2632-.0903 1.3161-.4223 2.3789-.4223 1.4473 0 2.2675.5435 2.2675 1.6898v3.5806h-1.0529z"/><path d="m49.6414 17.2171c-.5471 0-1.1338.1812-1.2956.2214v4.3046h-1.0528v-4.858c.1823-.091 1.2749-.4124 2.2164-.4124.0709 0 .5775.0105.6577.05v.7445c-.1008-.0198-.4051-.0501-.5265-.0501"/><path d="m52.9716 17.1777c-.84 0-1.2856.5428-1.3055 1.5488h2.6216c-.0206-.8953-.4555-1.5488-1.3161-1.5488zm-1.3055 2.1924c.0206 1.1668.496 1.7702 1.69 1.7702.7088 0 1.5588-.3116 1.7007-.4525v.7846c-.1214.0902-.8911.392-2.0242.392-1.8524 0-2.4193-.9553-2.4193-2.8263 0-1.6694.8812-2.5647 2.3583-2.5647s2.3384.9256 2.3384 2.5647v.332z"/><path d="m58.0022 21.8643c-1.0933 0-1.7915-.2714-1.9837-.3926v-.7847c.3441.2313 1.1337.4526 1.7311.4526.9315 0 1.2955-.332 1.2955-.7444 0-.342-.3441-.5535-.7797-.7241-1.0628-.4131-2.2576-.664-2.2576-1.7201 0-.956.9011-1.4783 2.0547-1.4783 1.0323 0 1.7715.3116 1.8723.3821v.7642c-.2732-.1509-.9316-.4125-1.6396-.4125-.911 0-1.2253.3116-1.2253.6634 0 .3215.3547.5132.7897.6839.8606.3426 2.2774.664 2.2774 1.6799s-.6988 1.6292-2.1355 1.6292"/><path d="m30.6702 19.0477 1.0415-3.379 1.0302 3.379zm2.8939 2.6958h1.1742l-2.298-6.839h-1.387l-2.3385 6.839h1.1239l.5477-1.7751h2.6357l.5413 1.7751z"/><path d="m44.9784 20.9477c-.1419.0606-.6477.2418-1.3054.2418-.982 0-1.4275-.6035-1.4275-2.0825 0-1.207.4753-1.8104 1.4374-1.8104.5158 0 1.0834.1713 1.2955.2714zm0-4.0833c-.1419-.0705-.8201-.3214-1.5793-.3214-1.3359 0-2.237.8748-2.237 2.5647 0 1.9013.6478 2.8262 2.5002 2.8262 1.0728 0 1.9738-.2615 2.3683-.4321v-6.3893c-.3675.024-.7336.0797-1.0529.1418v1.6101z"/></g></g></svg>