<svg fill="none" height="34" viewBox="0 0 94 34" width="94" xmlns="http://www.w3.org/2000/svg" xmlns:xlink="http://www.w3.org/1999/xlink"><clipPath id="a"><path d="m0 0h94v34h-94z"/></clipPath><mask id="b" height="34" maskUnits="userSpaceOnUse" width="94" x="0" y="0"><path d="m.796875.321533h93.000025v32.999967h-93.000025z" fill="#fff"/></mask><g clip-path="url(#a)"><g fill="#001b3c" mask="url(#b)"><path d="m16.9656 19.0498c-1.4097.3501-2.9817.7556-5.506.7556-4.94579 0-10.662725-2.5353-10.662725-9.6615 0-6.55722 4.519705-9.822367 10.637325-9.822367 1.8867 0 3.7226.43295 5.5033.970777l-.3985 4.07565c-1.5958-.89225-3.1396-1.32251-4.8404-1.32251-3.51057 0-5.79586 2.59017-5.79586 6.09785 0 3.6965 2.57837 5.9387 6.19396 5.9387 1.6228 0 3.2705-.4329 4.6283-.9707z"/><path d="m16.9656 19.0498c-1.4097.3501-2.9817.7556-5.506.7556-4.94579 0-10.662725-2.5353-10.662725-9.6615 0-6.55722 4.519705-9.822367 10.637325-9.822367 1.8867 0 3.7226.43295 5.5033.970777l-.3985 4.07565c-1.5958-.89225-3.1396-1.32251-4.8404-1.32251-3.51057 0-5.79586 2.59017-5.79586 6.09785 0 3.6965 2.57837 5.9387 6.19396 5.9387 1.6228 0 3.2705-.4329 4.6283-.9707z"/><path d="m37.7337 12.3302c0 5.1545-3.2954 7.4758-8.1363 7.4758s-8.1384-2.3213-8.1384-7.4758v-11.685425h4.9474v10.849625c0 2.4826.6646 4.5876 3.1915 4.5876 2.527 0 3.19-2.1045 3.19-4.5876v-10.849625h4.9464z"/><path d="m37.7337 12.3302c0 5.1545-3.2954 7.4758-8.1363 7.4758s-8.1384-2.3213-8.1384-7.4758v-11.685425h4.9474v10.849625c0 2.4826.6646 4.5876 3.1915 4.5876 2.527 0 3.19-2.1045 3.19-4.5876v-10.849625h4.9464z"/><path d="m54.7826.643555.079 12.793845h-.053l-6.2771-12.793845h-6.301v18.837445h4.5462l-.1601-12.87079h.0552l6.4891 12.87079h6.1425v-18.837445z"/><path d="m54.7826.643555.079 12.793845h-.053l-6.2771-12.793845h-6.301v18.837445h4.5462l-.1601-12.87079h.0552l6.4891 12.87079h6.1425v-18.837445z"/><path d="m93.7971 9.72745v-1.46127h-7.4797v-4.05844h7.4739v-3.564185h-12.4202v18.838545h4.9463v-7.5834h5.3402c1.1823 0 2.1395-.9724 2.1395-2.17125z"/><path d="m93.7971 9.72745v-1.46127h-7.4797v-4.05844h7.4739v-3.564185h-12.4202v18.838545h4.9463v-7.5834h5.3402c1.1823 0 2.1395-.9724 2.1395-2.17125z"/><path d="m68.7448 11.9112h5.9925c1.1824 0 2.1396-.9724 2.1396-2.17123v-1.47365h-8.1321v-4.05844h8.1321v-3.563105h-13.08v18.837425h13.08v-3.5626h-8.1321z"/><path d="m68.7448 11.9112h5.9925c1.1824 0 2.1396-.9724 2.1396-2.17123v-1.47365h-8.1321v-4.05844h8.1321v-3.563105h-13.08v18.837425h13.08v-3.5626h-8.1321z"/><path d="m7.45885 30.0111c0 1.4113-.69427 2.189-1.95511 2.189-1.26083 0-1.98426-.8164-1.98426-2.2401v-4.3182h-1.16596v4.3699c0 2.0416 1.19935 3.3103 3.13061 3.3103 1.93127 0 3.14016-1.2607 3.14016-3.3722v-4.308h-1.1649z"/><path d="m17.1834 31.0572-4.1953-5.4154h-1.0213v7.5662h1.1458v-5.5499l4.3067 5.5499h.9094v-7.5662h-1.1453z"/><path d="m23.0214 25.6414h-1.1659v7.5667h1.1659z"/><path d="m29.5352 31.5407-2.4009-5.8989h-1.2905l3.2054 7.6178h.9508l3.2048-7.6178h-1.2598z"/><path d="m37.1249 29.9493h3.8689v-1.1106h-3.8689v-2.0857h4.3247v-1.1112h-5.4906v7.5662h5.5415v-1.1106h-4.3756z"/><path d="m50.5372 27.9862v-.021c0-.6061-.2131-1.1563-.6005-1.5495-.4918-.4991-1.2534-.7739-2.1443-.7739h-3.2319v7.5667h1.166v-2.7962h1.7511l2.0563 2.7962h1.44l-2.2275-3.007c1.1272-.3049 1.7908-1.117 1.7908-2.2153zm-1.1755.0097v.021c0 .7868-.644 1.295-1.6409 1.295h-1.9948v-2.5487h2.0049c1.0361 0 1.6308.4491 1.6308 1.2327z"/><path d="m56.462 28.8527c-1.6494-.3582-1.7808-.7465-1.7808-1.2171v-.0199c0-.5744.5454-.9761 1.3266-.9761.7075 0 1.3207.235 1.9307.7389l.1468.1216.6874-.9234-.1383-.113c-.7961-.6486-1.5752-.9251-2.6065-.9251-1.4559 0-2.5121.9036-2.5121 2.1487v.0209c0 1.4113 1.0091 1.9233 2.5253 2.2578 1.573.3373 1.6986.7202 1.6986 1.1859v.021c0 .6207-.5612 1.0375-1.397 1.0375-.8893 0-1.5587-.2808-2.3091-.9692l-.1405-.1285-.7329.8804.133.1199c.9031.8175 1.8623 1.1983 3.0188 1.1983 1.5332 0 2.6043-.9132 2.6043-2.2207v-.0204c0-1.173-.734-1.8367-2.4543-2.2175z"/><path d="m63.2324 25.6414h-1.166v7.5667h1.166z"/><path d="m69.4044 25.6418h-2.6446v7.5667h2.6446c2.289 0 3.9505-1.5909 3.9505-3.7831v-.0209c0-2.1799-1.6615-3.7627-3.9505-3.7627zm2.7543 3.7831v.021c0 1.5548-1.1326 2.6412-2.7543 2.6412h-1.4787v-5.3239h1.4787c1.6217 0 2.7543 1.094 2.7543 2.6617z"/><path d="m78.719 25.5903-3.3967 7.6178h1.2227l.8405-1.9013h3.6214l.831 1.9013h1.2624l-3.3966-7.6178zm1.812 4.6156h-2.668l1.3382-3.029z"/><path d="m88.4923 25.6418h-2.6446v7.5667h2.6446c2.289 0 3.9505-1.5909 3.9505-3.7831v-.0209c0-2.1799-1.6615-3.7627-3.9505-3.7627zm2.7548 3.7831v.021c0 1.5548-1.1325 2.6412-2.7543 2.6412h-1.4786v-5.3239h1.4786c1.6218 0 2.7543 1.094 2.7543 2.6617z"/></g></g></svg>