<svg fill="none" height="26" viewBox="0 0 128 26" width="128" xmlns="http://www.w3.org/2000/svg" xmlns:xlink="http://www.w3.org/1999/xlink"><clipPath id="a"><path d="m0 0h128v26h-128z"/></clipPath><g clip-path="url(#a)" fill="#001b3c"><path d="m123.944 0h4.009v3.86232h-4.009zm-94.3255.0942029v12.8115971h28.7694v-12.8115971h36.7398v12.9057971h28.8163v-7.15942h4.056v11.02172h-36.9283v-3.721h-28.6278v3.721h-36.8814v-16.7680971zm61.4532 8.9963771v-5.03986h-28.6278v4.99276z"/><path d="m29.6654 20.489h-1.0376v3.1087c0 .4239-.0472.5652-.1415.7065-.1415.2355-.4245.3297-.7546.3297s-.5659-.0942-.7074-.2826c-.0944-.1413-.1415-.3297-.1415-.7536v-3.1087h-1.2734v3.1087c0 .7065.1415 1.1304.4244 1.4602.3773.3297.8961.471 1.6036.471.6603 0 1.179-.1413 1.5092-.471.3301-.3298.4716-.6595.4716-1.5073z"/><path d="m34.4767 20.489h-.8961v2.5906.3297l-1.745-2.9203h-1.2262v4.9928h.9432v-2.9674-.1884-.1884l1.9809 3.3442h1.0376v-4.9928z"/><path d="m36.6927 20.489h-1.179v4.9928h1.179z"/><path d="m41.4562 20.489h-.9904l-1.0848 3.5797-.9904-3.5797h-1.2734l1.5564 4.9928h1.2734z"/><path d="m45.5124 21.431v-.942h-3.6315v4.9928h3.6315v-.9892h-2.4053v-1.0833h1.8865v-.942h-1.8865v-1.0363z"/><path d="m47.3995 21.3842h.7074c.4717 0 .566 0 .7075.1413.1415.0942.2358.2826.2358.471s-.1415.4239-.283.5181-.2358.0942-.6131.0942h-.7075zm0 2.1196h.8489l.7546 1.9782h1.3206l-.9433-2.1667c.2358-.0942.3302-.1884.4717-.2826.2358-.2355.4244-.6123.4244-1.0362s-.1886-.8949-.5188-1.1775c-.2829-.2355-.6602-.3297-1.3205-.3297h-2.1695v4.9927h1.179z"/><path d="m54.7097 21.6197c-.1415-.4239-.283-.6123-.5659-.8008-.3302-.2355-.7546-.3768-1.3206-.3768-.5659 0-.9904.1413-1.3205.424-.3302.2826-.5188.7065-.5188 1.1775 0 .5181.2358.8949.6131 1.1304.283.1413.6131.2826 1.179.3768.6603.1413.8961.2355.8961.5653 0 .3297-.3301.5181-.8017.5181-.566 0-.8961-.1884-1.0376-.7066l-1.0848.2356c.1415.471.283.7065.6132.942.3773.2826.8489.4239 1.462.4239.5188 0 1.0376-.0942 1.3206-.3297.4716-.2826.7546-.8007.7546-1.3189 0-.471-.2358-.8949-.6131-1.1775-.283-.1884-.566-.2826-1.3678-.4239-.5188-.0942-.7074-.2355-.7074-.5181s.2358-.471.6603-.471c.4716 0 .7074.1413.8961.5652z"/><path d="m56.7845 20.489h-1.179v4.9928h1.179z"/><path d="m58.9542 21.431h.5188c.4244 0 .6602.0942.8961.3769.2358.2826.3301.7065.3301 1.1775 0 .4239-.1415.8478-.3773 1.1775-.1887.2826-.4716.4239-.8961.4239h-.4716zm-1.1319-.942v4.9928h1.745c.7546 0 1.3677-.2355 1.7922-.7066.4244-.471.6131-1.0833.6131-1.7898s-.2358-1.3188-.6603-1.7899c-.4716-.5181-.9904-.7065-1.9337-.7065z"/><path d="m63.8577 23.5506.5188-1.7427.566 1.7427zm1.3206-3.0616h-1.3677l-1.6036 4.9928h1.0376l.3302-1.0363h1.6507l.3301 1.0363h1.2734z"/><path d="m68.4796 21.431h.4716c.4245 0 .6603.0942.8961.3769.2358.2826.3773.7065.3773 1.1775 0 .4239-.1415.8478-.3773 1.1775-.1887.2826-.4716.4239-.8961.4239h-.4716zm-1.1319-.942v4.9928h1.745c.7546 0 1.3677-.2355 1.745-.7066.4245-.471.6131-1.0833.6131-1.7898s-.2358-1.3188-.6603-1.7899c-.4716-.5181-.9904-.7065-1.9336-.7065z"/><path d="m75.2715 23.5506.5188-1.7427.566 1.7427zm1.3677-3.0616h-1.3677l-1.6035 4.9928h1.0376l.2829-.9892h1.6507l.283 1.0363h1.2734z"/><path d="m79.8936 21.4313h.5188c.4245 0 .6603.0942.8961.3768s.3773.7065.3773 1.1775c0 .4239-.1415.8479-.3773 1.1776-.2358.2826-.4716.4239-.8961.4239h-.4716v-3.1558zm-1.1319-.942v4.9927h1.745c.7546 0 1.3206-.2355 1.7451-.7065.4244-.471.6131-1.0833.6131-1.7899 0-.7065-.2358-1.3188-.6131-1.7898-.4717-.5181-.9905-.7065-1.9337-.7065z"/><path d="m85.6011 21.3842c.3302 0 .566.1413.7075.4239s.1886.7065.1886 1.2246c0 1.0834-.283 1.6015-.8961 1.6015s-.9432-.5181-.9432-1.6015c0-1.0833.3301-1.6485.9432-1.6485zm.0472-.9421c-.7075 0-1.2734.2355-1.6507.7066-.3773.471-.566 1.1304-.566 1.8369s.1887 1.366.566 1.837.8961.7065 1.5564.7065c.6602 0 1.2734-.2826 1.6035-.7065.3301-.471.566-1.1776.566-1.837 0-.7065-.1887-1.3659-.566-1.8369-.3301-.4711-.8961-.7066-1.5092-.7066z"/><path d="m89.7045 24.4926v-4.0036h-1.1791v4.9928h3.2071v-.9892z"/><path d="m95.9301 21.4781v-.9891h-3.5844v4.9928h1.2262v-1.9312h1.8394v-.942h-1.8394v-1.1305z"/><path d="m98.4293 21.3842c.3301 0 .5188.1413.7074.4239.1415.2826.2358.7065.2358 1.2246 0 1.0834-.3301 1.6015-.9432 1.6015-.6132 0-.9433-.5181-.9433-1.6015 0-1.0833.3773-1.6485.9433-1.6485zm.0471-.9421c-.7074 0-1.2734.2355-1.6507.7066-.3773.471-.5659 1.1304-.5659 1.8369s.1886 1.366.5659 1.837.8961.7065 1.5564.7065 1.2734-.2826 1.6035-.7065c.3304-.471.5664-1.1776.5664-1.837 0-.7065-.189-1.3659-.5664-1.8369-.3301-.4711-.8489-.7066-1.5092-.7066z"/><path d="m104.419 20.489h-1.179v4.9928h1.179z"/><path d="m106.636 23.3624h.991c.518 0 .801.1884.801.5652 0 .1885-.094.424-.283.5182-.141.0942-.283.0942-.566.0942h-.896v-1.1776zm0-1.9782h.802c.424 0 .519 0 .66.1413.094.0942.142.2355.142.3768 0 .1884-.095.3297-.236.4239-.095.0942-.236.0942-.519.0942h-.896v-1.0362zm-1.179-.895v4.9928h2.358c.613 0 1.038-.0942 1.368-.3768.283-.2355.472-.6123.472-.9891 0-.3298-.142-.6595-.425-.9421-.189-.1413-.33-.2355-.66-.2826.613-.1884.943-.5652.943-1.1304 0-.3768-.141-.7065-.472-.9892-.283-.2355-.613-.3297-1.226-.3297 0 .0471-2.358.0471-2.358.0471z"/><path d="m113.19 18.8877-1.603.7536.188.4239 1.651-.5652zm-1.651 4.663.519-1.7427.519 1.7427zm1.321-3.0616h-1.368l-1.603 4.9928h1.037l.33-1.0362h1.651l.33 1.0362h1.274z"/><path d="m118.048 19.0291c-.141.1884-.377.2826-.519.2826-.094 0-.236-.0471-.377-.0942-.236-.1413-.377-.1413-.566-.1413-.283 0-.566.1413-.849.4239l.33.4239c.142-.1413.33-.2355.472-.2355.094 0 .188.0471.33.0942.33.1413.424.1884.613.1884.33 0 .613-.1413.896-.471zm.849 1.4601h-.943v2.5906.3297l-1.698-2.9203h-1.274v4.9928h.944v-2.9674-.1884-.1885l1.981 3.3443h1.037c-.047 0-.047-4.9928-.047-4.9928z"/><path d="m123.52 21.431v-.942h-3.584v4.9928h3.584v-.9892h-2.405v-1.0833h1.886v-.942h-1.886v-1.0363z"/><path d="m127.858 21.3839v-.8949h-3.82v.942h2.406l-2.594 3.2029v.8479h4.103v-.9421h-2.641z"/><path d="m18.8651 22.75-.2358.0942h-.0471l-.1415-.0942v-.0471h.0471l.3773.0471v-.2826c-.0943-.0942-.1414-.0471-.3773 0l-.2829-.0942c-.0944-.0942-.0944-.2826.0471-.3768l.1887-.0942.0471-.0471.0472.0471.1415.1413v.0471c-.0472 0-.1887-.1413-.3773 0l-.0472.1884c.0472.0471.1415.0471.3302 0 .1415-.0471.2829-.0471.3773.0942.0471.0942.0471.2826-.0944.3768zm-.8017.5652c-.2358.1413-.4717.0942-.6131-.1413-.1887-.1884-.1887-.471.0943-.7065.2358-.1413.4716-.0942.6603.1413.0943.1413.1886.471-.1415.7065zm-.6131.3768h-.0472l-.9433-.2826h-.0471l.2358.4239c.1415.1884.2358.0471.283.0942l-.0472.0471-.1415.0942-.0943.0471h-.0472l.0472-.1884-.283-.471c-.1415-.2355-.1886-.0471-.2358-.1413v-.0471l.0472-.0471.1414-.0471h.0472l.7546.2355h.0472.0471l-.2358-.3768-.1886-.0471v-.0471l.1415-.0942.1415-.0942h.0471c0 .0471-.0943.0471 0 .1884l.3302.7065zm-1.5093.2826-.1414-.0471.0471-.1413.1415.0471zm-.6131.7537-.1415.0471-.1886.0471h-.0472c0-.0471.1415-.0471.0944-.1884l-.283-.5653-.0472-.0471-.0943.0471c-.1887.0471-.0943.1884-.1415.2355l-.0472-.0471-.0471-.1884v-.0471c.1415-.0471.2358-.0471.4244-.1413.1887-.0471.283-.0942.3773-.1413h.0472l.0472.0942v.0942c-.0472 0-.0472-.1413-.1887-.0942l-.0943.0942-.0472.0942.2358.5652c.0472.1414.1887.0472.2359.0943zm-.7546.2826-.1886.0471-.1415.0471.0471-.1884-.2358-.6124-.1415-.0471.0472-.0471.1415-.0471.1886-.0471h.0472l-.0943.1413.1886.6124c.0472.1884.1887.0471.1887.0942zm-.8489.2355c-.1887.0471-.2358.0471-.283.0942h-.0943-.0472c0-.0471.0944-.0471.0944-.1413l-.1887-.6124c-.0472-.1884-.1887-.0471-.1887-.0942v-.0471h.0944l.3301-.0942c.3302-.0942.3773.0942.3773.1413l-.0943.1885c.1886 0 .2358.0471.283.1884.0471.1884-.0472.3297-.283.3768zm-.566.1413-.1886.0471-.1415.0471h-.0472l.0472-.1413-.0472-.0942-.0943-.0942-.2358.0471-.0943.0942v.0942l.1886.0942h-.0471-.1415l-.1415.0942h-.0472l.0943-.0942.1887-.895v-.0471l.0472.0471.5187.7066.1887.0942zm-1.2262.2355-.1886-.1413-.1415-.2355-.1415-.0471-.0472.0942.0472.2355c0 .1413.1415.0471.1415.0942l-.0944.0471h-.0943-.1886-.0472c0-.0471.0943 0 .0943-.1884l-.0471-.5652c0-.1413-.1415-.0942-.1415-.1413h.1415l.2829-.0471c.283-.0471.3302.1413.3302.1884l-.0472.1413-.0471.0942s.1414.1884.2358.3768h.0471.0472zm-1.0847.0942c-.1887 0-.283 0-.3302 0h-.1886c0-.0471.0943 0 .0943-.1413l-.0472-.6594-.1415-.1413.0472-.0471h.3773.3301l.0472.0471v.1413.0471c-.0472 0 .0472-.1413-.2358-.1413-.1415 0-.1887 0-.1887.0942v.1884l.0472.0471h.0943l.1415-.1413h.0472v.2355.0471c-.0472 0 0-.1413-.1415-.1413h-.1415l-.0472.1884v.1884l.0944.1413c.3301 0 .3301-.1884.3773-.1884v.0471zm-1.03763 0c-.18865 0-.28297 0-.33013 0h-.09433l-.04716-.0471c0-.0471.14149 0 .14149-.1413v-.5652c0-.1884-.14149-.0942-.14149-.1884v-.0471h.09432.33014c.33019 0 .33019.1884.33019.2355l-.14154.2355c.14154.0471.23584.1413.23584.2355 0 .1884-.1415.2826-.37733.2826zm-.66027-.8478-.04717.6594c0 .1884.14149.0942.14149.1413h-.04716-.18865-.14149c0-.0471.09432 0 .09432-.1413l.04717-.6594c0-.1413-.14149-.0942-.14149-.1413h.04716.14149.14149.04716c0 .0942-.09432.0471-.09432.1413zm-.66028.7536c-.23582-.0471-.28298-.0471-.37731-.0471h-.18865c0-.0471.09433 0 .14149-.1413l.09432-.6123-.14148-.1884h.04716.18865.14149.04716l-.14149.1413-.09432.6123.09432.1413c.33014.0471.33014-.1413.37731-.1413v.0471zm-.8961-.6594-.14149.0942-.09432-.1413.14149-.0942zm-.66028-.5182v.1885h-.04716c-.04717 0 0-.2356-.18865-.3298l-.18866.1413c0 .0942.04717.1413.18866.2356.09432.0942.18865.1884.14149.3297-.04717.1884-.18866.2355-.37731.2355l-.18865-.1413-.04716-.0471v-.1884l.04716-.0471v.0471c0 .1413.04716.2826.18865.3297l.23582-.0942c.04716-.1413-.04717-.1884-.23582-.3297-.09432-.0942-.14149-.1413-.09432-.2827.04716-.1413.18865-.2355.33014-.1884l.18865.0942h.09432v.0471zm-.89609.6124h-.04717l-.14148-.0471-.14149-.0471h-.04717l.14149-.0942v-.0942c0-.1413 0-.1413-.04716-.1413l-.23582-.0943-.14148.0471-.09433.0943.09433.1413h-.09433-.09433l-.09432-.0471.09432-.0942.66029-.6595.04716-.0471v.0471l.09432.9421zm-1.03759-1.2247-.28297.6123c-.04717.1414.14148.1414.09432.1885h-.04716l-.18865-.0943-.14149-.0471-.04716-.0471c0-.0471.14149.0471.18865-.0942l.23581-.5652v-.0942l-.14149-.0471c-.14149-.0471-.14149.1413-.23581.0942v-.0471l.09432-.1413.04717-.0471c.09432.0471.18865.0942.3773.1884s.23581.0942.3773.1413v.0471l-.04716.1413-.04716.0471c-.04717 0 .04716-.1413-.09433-.1884l-.04716-.0471zm-.70744-.2826-.28298.5652c-.04716.1413.09433.1884.09433.1884h-.04716l-.23582-.0942-.09432-.0471.14148-.1413.28298-.5652-.09432-.1884h.04716l.14149.0942.14149.0471.04716.0471c0 .0471-.09433-.0471-.14149.0942zm-.75461.4239.04717.0471h-.14149l-.09433-.2355v-.2355l-.09432-.0942h-.09433l-.09432.1884c-.04717.1413.09432.1413.09432.1884h-.04716l-.09433-.0471-.18865-.0942-.04716-.0471c0-.0471.09432.0471.18865-.0942l.28298-.5181c.04716-.1413-.09433-.1413-.04717-.1884h.04717l.14149.0942.23581.1413c.23581.0942.14149.2826.14149.3297l-.14149.0942-.09433.0471zm-1.03758-.471c-.18865-.0942-.23581-.1413-.28298-.1884l-.14148-.0942c.04716-.0471.09432.0471.18865-.0471l.33014-.5181-.09433-.2826h.04716c.04717.0471.14149.0942.28298.1884l.28298.1413v.0471l-.04716.1413-.04717.0471c-.09432-.0471.09433-.1413-.14149-.2826-.14148-.0942-.14148-.0942-.18865 0l-.09432.1413v.0942l.04716.0471.18865-.0471v.0471l-.09432.2355-.04717.0471-.04716-.1884-.04716-.0471-.09433.0471-.09432.1413v.1413c.28297.1884.3773 0 .42446.0471v.0471zm-.99042-.6123v-.0942l.18865-.8478v-.1413h.04717l.09432.0942.14149.0942.04716.0471h-.14149l-.09432.1884-.09433.471v.0471l.37731-.2355.14148-.0942v-.2355h.04717l.09432.0942.09433.0471.04716.0471-.18865.0471zm-.09432-1.8841-.18866-.2355c-.14148-.1413-.18865-.2355-.18865-.3297l-.094323.0942s-.282977.1884-.754606.7536c-.1414881.1885-.188651.3298-.188651.4711 0 .3297.282977.5652.282977.5652s1.084743.942 2.829773 1.8369c1.74502.895 4.24466 1.837 7.07445 1.837 5.6124 0 9.1967-3.25 9.6684-3.7681.2358-.2355.2829-.471.2829-.6123 0-.1884-.0471-.2826-.0471-.2826l-.9433-.895-.0943-.0471v.0471c0 .3297-.3773.6123-.3773.6123s-2.1223 2.0725-5.6124 2.9203h-.0472c-.1414.0471-.2829.0942-.4716.0942h-.0471c-.1887.0471-.3302.0471-.5188.0942h-.0944c-.1414 0-.2829.0471-.4244.0471l-.1887.0942c-.1415 0-.2358 0-.3773.0471h-.1886c-.1887 0-.3302 0-.5188 0h-.0472c-.18864 0-.37729 0-.56594 0h-.18865c-.14149 0-.28298 0-.42447-.0471h-.14148c-.18866 0-.37731-.0471-.56596-.0942h-.09433c-.14148-.0471-.28297-.0942-.47162-.1413h-.09433c-3.77303-.8007-6.17833-3.0145-6.17833-3.0616zm11.08331 3.7682-.0944.2826v.0471h.0472l.1886-.0471h.0472v-.0471zm.9904 0h.0943l.0943-.1885c0-.1413-.1415-.1884-.2358-.1413l-.0943.1413.0472.1414zm-3.77305.471-.09433.0942v.1413c0 .1413.04717.1413.14149.1413.14149 0 .18865-.0942.18865-.1884.04717-.0471 0-.1884-.23581-.1884zm-6.13117-1.8841-.04717-.2826h-.14148l-.09433.2355.04716.0942c.18865.0942.23582 0 .23582-.0471zm7.87622 1.4131-.0943.0942.0471.2826.0943.0471c.1887-.0942.1887-.1413.1887-.2355-.0472-.1413-.0943-.1884-.2358-.1884zm2.0751.0471-.0471.0942.0471.1413c.0472.0942.0944.1413.1887.0942.1415 0 .1886-.0942.1415-.1884-.0472-.0942-.0943-.1884-.3302-.1413zm-3.82015.3768h.09432l.14149-.1413c0-.1413-.09432-.2355-.18865-.2355l-.14149.1413v.1413zm7.82905-2.6377c-.1887.1413-.1415.3297-.0472.471s.3302.3297.5188.1884c.1887-.1413.1415-.3297.0472-.471-.1415-.2355-.3773-.2826-.5188-.1884zm-14.66767-1.8841c-.61311-.1413-.89609-.3297-1.1319-.3768l-.33014-.0471c-.18866 0-.33014.0471-.33014.1413s.04716.1884.18865.3297l.18865.2355c.04716.0471.3773.3297.99042.7537l.80177-1.0834-.18865.0942zm2.87694 3.5797-.18865.1884-.04717.0471.04717.0471.18865.0471h.04716v-.0471zm11.08323-3.3913c.2359 0 .6603-.2355.6603-.2355.5188-.2826.8961-.471 1.1791-.471h.1415l.3301.2355c.3302-.3297.4245-.8478.5188-1.1775-.3301.3297-1.0376.5652-1.0376.5652l-.0471.0471v-.0471-.1884c0-.6123-.1887-1.0362-.3302-1.2246v.0471l-.0471.2826c-.0944.2826-.7075.8949-.9433 1.1304-.1886.2355-.6603.5652-.6603.8478l.0472.0942zm-15.941006-.4239.141486-.1884c.09433-.0471.23582-.0942.37731-.0942.14148 0 .23581 0 .33014.0471.28297.0471.56595.2826 1.1319.4239h.18866c.18865 0 .18865-.0942.18865-.1413v-.1413l-.14149-.0942c-.09433-.1413-.33014-.3297-.70744-.6594-.66028-.6123-.84894-1.1775-.84894-1.413-.14148.2355-.18865.5652-.18865.8478 0 .4239.04717.8007.04717.8007v.0471h-.04717-.09432c-.424468-.1413-.896097-.5652-1.037586-.7065 0 .7065.66028 1.2717.66028 1.2717zm17.780406-.2355c-.2358 0-.6131.1413-1.1319.4239 0 0-.3773.2355-.7075.2826h-.1414l.7074 1.0834c.7546-.5181 1.1791-.9421 1.1791-.9421s.3773-.3297.3773-.6123v-.0942c-.0944-.0942-.1415-.1413-.283-.1413z"/><path d="m4.2439 10.1269h-.04717l.04717.0471h.09432.04716l.09433.1884c.04716.0942.18865.3297.28298.4239l.18865.1884h.04716l.04716-.0471-.04716-.0942-.18865-.1413-.28298-.3768-.14149-.1884.14149-.14134-.09432-.0471s-.04717.09424-.18865.18844zm.3773-6.87685.04716-.32971.09433-.1413-.09433-.0471-.09432.1413-.04717.32971zm-.70744 1.55435h-.09433l-.18865.0471h-.04716v-.1413c-.04717-.0942-.14149-.0942-.33014-.18841-.14149-.0942-.09433-.0942-.14149-.1884l.09432-.14131v-.0471l-.14149-.28261v-.1884l.04717.0471h.04716l.14149-.09421v-.0471l-.04716-.2355-.23582-.23551-.04716.0471.09432.0942.09433.14131.04716.1884-.04716.0471-.14149-.0942-.04716-.0471v.0942l.04716.28261.09433.23551-.09433.23551v.0471c0 .0942 0 .1413.18865.23551.18865.0942.23582.0942.23582.1413l.04716.0942.09433.0471.18865-.0471h.09432c.14149.0471.28298.23551.28298.32971h.04716c0-.0942-.09432-.32971-.28297-.37681zm-1.79219 6.5471v.0942h.04716l.09433.2355c0 .1413 0 .1413-.04717.2355l-.18865.3297v.0942c0 .1413.04716.3297.04716.4239l-.04716.3298v.0942l.14149.0942.04716-.0471-.09432-.0942v-.0471l.04716-.3298c0-.0942-.04716-.2826-.04716-.4239v-.0471l.18865-.2826.04716-.2826c0-.1413-.09432-.2355-.09432-.2826zm2.49963-4.05072s-.18865.1884-.47163.28261c-.18865.0471-.33014.0471-.3773.1884l-.04717.14131h.09433l.04716-.14131c0-.0942.09433-.0942.33014-.1884.28298-.09421.47163-.28261.47163-.28261zm-1.98084 3.53262-.09433.1884-.04716.0942v.0471l.04716-.0471v-.0471l.04717-.0471.09432-.1884zm4.99926-8.94929h-.09432l.09432-.0942h.09433zm-.04716.32971-.14149.37681c0 .0471-.04716.23551-.04716.32971v.0471l.14149.56522.14148.23551-.09432.1884h-.09433l-.04716-.0471-.04716-.2355v-.18841l-.04717-.0942v-.14131h-.04716v.09421l-.04716.0471s-.09433.1413-.14149.28261l-.14149.37681-.04716.1884-.04716-.2355v-.14131-.0471l.04716-.18841c.04716-.2355.14149-.42391.14149-.61231v-.04711-.2826h.04716v-.09421-.2355c0-.14131-.09433-.23551-.09433-.28261v-.0471-.14131l.04717-.0471h.09432l.04717.18841v.0942.0471l-.04717.18841v.0471.1413.23551h.09433v-.23551-.1413l.04716-.14131.18865-.2355h.04717l.04716.0471v.0471zm.14149 1.88406-.04717.0471-.18865-.0942h.04717.04716zm-.51879.47101-.14149-.0471-.18865.0471c-.18866.09421-.23582.32971-.23582.47102l-.04716.1884v.09421l-.3773.1884-.04717-.28261h.04717.09432.09433l-.04717-.0942-.23581-.28261-.04716-.0942.18865-.32971c.04716-.0471.09432-.0942.14149-.23551 0-.0942.04716-.28261.04716-.42391.04716.0471.14149.1884.14149.37681v.0942l.04716-.0942.14149-.18841.04716.28261v.04711l-.04716.1413.09433-.0942.09432-.0471c.09433.0471.18865.0942.23582.2826zm-1.17908 1.36595c-.23581.37681-.47162.65942-.51879.75362-.09432-.0942-.18865-.28261-.18865-.42391v-.04711c.04716-.1413.14149-.47101.14149-.70652v-.1413l-.09433-.18841.04717-.1413.14149-.14131.23581.18841.28298.0942.04716.32971c0 .14131 0 .28261-.09433.42392zm-.04716.70652-.18865.2355h-.04716v.04711l.14149.2355-.09433.0471h-.09433-.04716v.04711.0471c0 .0942 0 .23551-.09432.37681-.04717-.1413-.23582-.51812-.56596-.61232v-.0471l-.04716-.23551-.04716-.1884-.04717-.23551h-.04716l.04716.23551v.1413l-.28297-.28261-.04717-.1413-.04716-.0471-.04716.0471s-.28298.32971-.61312.47101l.3773-.61232c.33014-.0942.51879-.32971.51879-.32971h.09433v-.0942h-.18865l-.09433-.0942-.04716-.0471-.04716-.04711v.04711h-.04717l-.14148.0942c-.18866.0471-.33014.1413-.42447.1413v-.0471l-.18865-.1884-.09433-.23551v-.0471h-.09432-.18865-.14149l-.04717-.32971v-.09421-.0942h-.04716l-.14149.0471h-.14149l.04717-.2355.04716-.04711.04716-.0471-.09432-.0942h-.04717l-.23581-.1413.04716-.18841.04717-.14131.09432.04711.09433.0471-.14149-.32971h-.04716l-.04717.0942-.18865-.18841.18865-.2355.04717.0471.04716.0942v-.28261h-.04716l-.04717-.1884v-.0471l.18865-.09421s0-.0942 0-.2355l.04717-.28261v-.0471c0 .1413.04716.2826.09432.37681.14149.0942.14149.28261.42447.47101.14149.14131.28298.23551.3773.32971v.0471.0471c-.04716.14131-.14149.32971-.28298.32971h-.04716l-.04716.23551c0 .18841.09432.42392.42446.47102 0 0 .37731.28261.5188.28261h.04716l.18865-.09421.04716-.0942.23582.23551.14149-.18841.04716-.0942.09432.1884.18866.18841.04716.23551v.1413c0 .23551-.09433.51812-.14149.70652v.0471c0 .23551.23581.47102.23581.47102v.0471l.04717-.0471c.14149.0471.33014-.0471.56595-.0471zm0 .56521c.09433.04711.23582.14131.28298.14131l.23581.0471h.04717.04716l.09432-.0942h.04717l.09432-.09421.09433-.1884v-.0471-.23551l.04716-.32971.09433-.0942v.1884l-.04717.32971-.14148.42392-.14149.47101c-.09433.0942-.14149.23551-.18865.32971l-.04717.32971-.18865.0942-.04716-.0942.04716-.1884.14149-.23551.09433-.14131v-.0942c-.04717-.0471-.09433-.0942-.23582-.1884-.14149-.04711-.18865-.09421-.33014-.14131l-.23581-.0471v-.0471h.09432zm.56596-.32971v-.1413.0471l.09432.18841zm.04716-.2355v-.09421l.04716-.0942h.09433v.28261.23551l-.04717.1413v-.1413l-.09432-.23551zm-.14149 2.07246h-.09433-.09432v-.0942l.09432-.0471.04717.0942zm-1.50921-1.41304c-.09433.0942-.3773.2355-.47163.42391l-.09433.1413v.04711h-.04716l-.09432.28261v.0942l-.28298.0942-.23582.23551c-.04716-.18841-.14148-.28261-.14148-.32971l.04716-.37681h-.09433s-.04716.2355-.04716.37681v.0471c0 .0471.09433.18841.18865.37681v.0471h.04716v.14131.0471c0 .23551-.04716.51811-.23581.80072l-.09433.14131-.09432.32974c-.04716.1413-.23582.471-.3773.6123-.18866.1413-.18866.2826-.18866.4239s0 .1884-.09432.3297c-.09433.1413-.14149.1884-.14149.3297v.1413c0 .0942 0 .1884-.09433.3297-.09432.1413-.09432.2355-.09432.3297v.1885c.04716.1413 0 .3768.23581.4239h.04717l.18865-.0471h.09432l.18865.0942.04717.1413h.09432v.0471l-.04716-.1413-.23581-.1884h.04716.14149l.14149.0471.14148.1884h.09433l-.14149-.1884.18865.1413-.14149.1413c-.14148.0942-.33014.1884-.51879.1884-.14149 0-.33014.0471-.47163.0471h-.09432l-.28298-.1884-.09432-.4239-.04717-.3298.09433-.6123c0-.0471.09432-.1884.09432-.3768s-.09432-.3768-.09432-.471l.18865-.471.04716-.1884.04717.0471.14148-.0471.14149-.2826v-.0471c0-.0942-.09432-.3297-.18865-.47104-.09432-.14131-.23581-.61232-.28298-.75362 0-.14131.18866-.47102.18866-.47102l-.09433-.0942s-.18865.32971-.18865.51811v.04711c.04716.1413.18865.61231.28298.75362.14148.18844.23581.42394.23581.47104l-.14149.2355-.09432.0471-.14149-.0942.04716-.0942.09433-.1413.14148-.0471h-.33014l.04717-.1413v-.0471h-.14149v-.14134-.1413h-.09433l.04717-.14131.04716-.0471h-.18865l.04716-.1413v-.04711h-.14149l.14149-.2826.04716-.04711-.04716-.0471s-.51879-.37681-.51879-.94203c-.04716-.51811.99042-1.41304.99042-2.35507 0-.1884 0-.28261-.04716-.42391l.23581.0471c0 .18841-.04716.51812-.04716.51812v.0471l.09432.0471.04717.1413c-.23582 1.03623-.94326 1.27174-.99042 1.97826v.04711s.04716.37681.33014.42391h.04716.04716l.14149-.0942.09433-.18841c.09432-.18841.14148-.37681.33014-.56522.23581-.1884.61311-.51811.66028-.75362.09432-.18841.14148-.28261.14148-.47102v-.0942c.14149-.0471.23582-.0942.33014-.1413-.04716.2355-.09432.51811-.09432.51811v.0471h.04716c.3773-.0942.66028-.37681.75461-.51811l.04716.0942.33014.32971.04716.28261h.04717zm-.14149.61232c.28298 0 .51879.0942.56595.56521l-.18865.32971-.04716.04711.09433.0471v.0471l-.04717.0471c-.14149.1413-.47163.42391-.61311.61232l-.04717.1413c0 .14131.14149.28265.18865.37685.04717.1413.28298.471.42447.5181l.09433.1884v.0471l-.04717.1884h.09433l.04716-.1413v-.0942h.04716l.14149-.1884.09433-.0942h.04716.09433l.04716.0471.04716-.0471-.18865-.0942h-.09432l-.14149.1413v.0471l.04716-.2355.18865-.0942h.04716.09433l.04716.0471.04717-.0471-.09433-.0942h-.04716l.04716-.0471.09433-.0471.04716.2826-.18865.5181c-.09433.1413-.33014.5181-.47163.471-.14149 0-.23582-.0942-.28298-.1884-.04716-.1413-.18865-.3768-.18865-.3768l-.18865-.0471-.18865-.2355c-.09433-.0942-.14149-.1884-.28298-.2355l-.18865-.1413v-.1413-.09424l.14149-.28261.04716-.18841v-.0471-.0471c0-.32971.09433-.42391.14149-.56522.04716-.1413.28298-.1884.28298-.1884v-.0942h-.18866v.0471l-.18865.1884c-.04716.14131-.14149.23551-.14149.51812l-.23581.1413-.14149.09421c.09433-.18841.09433-.37682.09433-.56522v-.0471-.18841-.0471s.14149-.1413.23581-.23551l.23582-.0942.04716-.1413.04716-.23551c.09433 0 .28298-.0471.47163-.0471zm-2.64112-2.68479c.14149-.0471.28298-.1884.3773-.2826v.0942.0471l.04717.23551c-.09433 0-.28298-.0471-.42447-.09421zm.04716-.37681h.04717l.14148.0471-.33014.28261zm-.33014.14131h-.09432c-.09433 0-.37731.0942-.37731.37681l.09433.1884s.3773.09421.33014.28261v.09421c-.09433.32971-.42447.56521-.42447.75362v.0471c0 .1413.09433.28261.14149.37681v-.0471s-.04716-.0942-.14149-.23551l-.04716-.1413.04716-.23551c.04717-.0942.18866-.23551.23582-.42391v-.0942c0-.18841-.23582-.28261-.23582-.28261v.0471s.18866.1413.18866.23551v.0471c-.04717.1413-.18866.28261-.23582.42391l-.04716.28261.04716.1884.04716.09421-.09432-.0471c-.04716-.04711 0-.09421-.04716-.23551 0-.14131.14148-.56522.18865-.65942v-.0471c0-.14131-.18865-.28261-.18865-.28261l.09432.0942.04716.18841c-.04716.0942-.18865.51811-.18865.70652l.09433.28261.18865.1413c-.14149 0-.28298-.0471-.28298-.28261v-.0942c.09433-.51812.14149-.51812.14149-.65942v-.0471c0-.14131-.18865-.32971-.18865-.61232v-.0942c0-.32971.23581-.51812.56595-.56522h.04717l.23581.0471.09433.0471-.04717.14131zm-.33014-.75363c.18865.14131.56596.14131.70745.14131v.1884l.04716.23551h-.04716-.04717l-.14149-.0471c-.14148-.0942-.3773-.23551-.51879-.51812zm0-.1413c.04717 0 .14149-.0471.28298-.0471h.04716.09433l.23581.23551h-.23581c-.18865-.04711-.3773-.09421-.42447-.18841zm.09433-.42391c-.14149-.14131-.28298-.32971-.28298-.51812.18865.23551.66028.51812.75461.56522l-.14149.28261h-.04716c-.09433-.0471-.18866-.18841-.28298-.32971zm.23581-.47102.04717-.0471s-.70745-.51812-.70745-1.03623v-.0471c.18865.37681.75461.89492.94326 1.03623l-.18865.0942v.0471c.04716.18841.18865.32971.23581.37681h-.04716c-.04716 0-.23581-.0942-.3773-.1884-.18865-.0942-.37731-.28261-.42447-.37681.09433 0 .3773.0471.51879.1413zm-.04716-.80072c.23581.28261.47163.47101.56595.56521l-.14148.04711c-.04717-.04711-.23582-.18841-.42447-.37682-.23581-.1884-.42447-.47101-.51879-.65942.14149.14131.3773.32971.51879.42392zm-.56595-1.507249.04716-.282609c0 .800728.89609 1.695648.89609 1.695648.09433.23551.14149.42392.18865.51812-.09432-.0942-.28297-.23551-.47162-.42391l-.04717-.09421s-.61311-.80072-.61311-1.413039zm.14148-.329711c.14149.282609.5188 1.03623.75461 1.22464 0 .1413 0 .23551.04716.37681-.23581-.23551-.80177-.98913-.80177-1.60145zm1.08475 2.68478c-.09433-.0471-.23581-.0471-.3773-.0942l.28297-.1413zm-.18865.28261-.04716.0471c-.04717-.0471-.18866-.1884-.23582-.32971h.04716l.33014.0471.09433.04711zm.18865.37681c-.04716 0-.23581 0-.3773.0471l.04716-.1413.14149-.18841zm-.14149.84783v-.18841l.04716-.1884.04717-.0471-.09433-.0471-.23581-.18841v-.0471l.33014-.0471c0 .1413 0 .28261-.04717.28261l.28298.1884zm.66028.18841v.0471.0471c-.04716.0471-.23581.23551-.3773.28261v-.23551-.0471-.18841l.04716.0471.04716.04711h.14149zm.18865.89492-.09432-.32971v-.0471h-.04717s-.18865 0-.3773-.0942l.28298-.23551.04716.18841s.04716 0 .18865.0471h.18865c.04717.1413-.04716.37681-.18865.47101zm.33014.0471-.23581-.0471c.14149-.0942.18865-.2355.23581-.32971l.04717.14131.18865.2355zm-.89609.28261.04716-.1413h.14149.18865v.37681.0471h.04716.14149.14149v.0942c0 .18841-.04716.23551-.14149.42392-.09432.2355-.42446.56521-.66028.75362-.23581.18841-.28297.42391-.3773.61232l-.09433.18841h-.09432-.04716c-.18866 0-.28298-.37682-.28298-.37682v-.0471c.04716-.61232.7546-.84782.99042-1.93116zm.42446-.56521c0 .1413.09433.32971.09433.32971h.33014c0 .1413-.14149.32971-.42447.42391 0-.0942 0-.23551.09433-.37681l-.04716-.0471h-.04717l-.23581.0471-.18865-.0471c.14149-.09421.33014-.28261.42446-.32971zm-.47162-.18841c.14148.0471.28297.0942.3773.0942l-.14149.18841-.28298.23551c0-.14131.04717-.37682.04717-.51812zm0-.61232h-.04717-.04716-.09433l.28298-.23551v.18841zm1.22623 1.31884c-.04716.0471-.23581.23551-.61312.23551.23582-.14131.33014-.32971.37731-.42391h.18865zm.14149 0-.14149-.23551.23581-.0471zm.14149.0942-.33014.47102v-.14131c0-.1413.04716-.2826.09432-.32971h.04717zm-.04717-.0942.14149-.32971h.04717l.18865-.0942.14149.0942c0 .14131-.18866.28261-.5188.32971zm-1.79218-4.33333.04716-.14131c.04716.32971.33014.70653.3773.80073l-.04716.23551v.2355h-.09433c-.04716-.0471-.28297-.51811-.28297-1.13043zm.42446-1.365944c-.14149.235507-.18865.471015-.18865.706524 0 .56522.23581 1.03623.23581 1.03623l-.04716.1413-.09432-.1413-.18866-.42391-.04716-.18841v-.1413c-.04716-.28261.14149-.753627.33014-.989134zm.18865-.141304c0 .188406-.04716.565217-.04716.942028 0 .23551 0 .47102.09433.61232 0 0-.04717.1413-.09433.28261-.09433-.0942-.28298-.51812-.28298-.98913 0-.282611.09433-.56522.33014-.847828zm.04717 1.648548.04716.0471v-.0942l.09432-.1884c0 .1884.04717.65942.14149.84782 0 .0471-.04716.23551-.04716.37681l-.18865-.2355-.09433-.28261v-.09421c0-.1413 0-.2826.04717-.37681zm.28297.70652.04717-.0942.09432-.1413.09433.1884c.04716.09421.04716.23551.14149.28261v.0471.14131.0471.0471.18841.0471l-.23582-.23551-.14149-.0942v-.14131zm.61312 1.74276-.04716.1884c-.33014 0-.37731-.1884-.37731-.37681v-.1413c.14149 0 .23582-.14131.33014-.23551.04717.23551.09433.42391.09433.56522zm.09433-1.93116-.04717-.14131.04717-.2355.09432.0471h.09433.04716l.23581-.0471h.14149c.14149 0 .18865-.0471.33014-.0471l.18865.1413-.04716.0471-.18865-.0942h-.09433l-.09432.0471h-.09433l-.14149.0471-.14148.0471.28297.0471v.04711l-.18865.1884v.0942h.04716l.23582-.0942.09432.0471.14149-.0942-.04716.28261-.09433.0942.04717.28261v.18841c0 .1413.18865.2826.3773.42391.18865.1413.42447.32971.61312.51812.18865.1884.23581.47101.28297.56521l.18866.23551h-.04717l-.33014-.1413c-.14149-.09421-.18865-.14131-.28297-.18841l-.18866.18841-.04716.1413-.14149-.18841-.09432-.1413-.09433-.0942-.14149.1884-.04716.09421-.04716-.04711-.18865-.1884-.04717-.0471v.0471l-.09432.1413-.09433.0471h-.04716l-.47163-.2826c.04716-.04711.04716-.14131.04716-.28261 0-.14131-.09432-.37681-.14149-.61232v-.09421-.0942l-.04716-.1884v-.28261c0-.42392.18865-.56522.23582-.61232zm1.60353-.28261c.14149 0 .18865.0942.23582.18841l.04716.2355-.18865-.0942-.23582.18841-.09432.0942-.23582-.0471h-.14148l.09432-.28261.09433-.28261zm.04717.89493.23581.0942-.14149.0471h-.04716l-.28298-.1413-.14149-.14131h.04717l.09432-.0471.04716.0471zm-.75461-.18841.04716-.0471h.18865zm.28298.23551h-.04717l-.23581.0471v-.0942-.09421h.04716.18865l.09433.04711.14149.1413.09432.0942zm1.83935-.61232c-.04716-.0942-.14149-.23551-.14149-.28261l.04716-.23551h.04717.04716v.09421.0471c0 .0942.09432.1413.09432.28261v.2355.09421zm-.04716-.75362v.1413h-.09433zm.33014-.14131-.04717.14131h-.09432zm.56595.23551-.14149-.0471-.14149.0942-.04716.0471-.14149.14131v-.0471l-.04716-.18841-.04716-.0942c0-.14131.09432-.14131.09432-.14131h-.04716-.04716c-.14149 0-.18866.14131-.18866.18841v.0471l-.09432.0471.04716-.1413h-.09432l-.14149.1884-.04717.23551c0 .1413.09433.23551.18866.32971.09432.0942.09432.23551.09432.42391v.0471c0 .14131-.09432.37682-.14149.61232l-.04716.23551v.0471l-.09433.18841c-.04716-.28261-.28297-.42392-.28297-.42392l-.09433-.0471.04716.09421v.0471c0 .0942-.04716.28261-.09432.42391 0 .1413 0 .14131-.09433.23551l-.14149.28261c-.04716-.14131-.14148-.28261-.23581-.37681-.18865-.23551-.47163-.42392-.66028-.56522-.18865-.14131-.33014-.28261-.33014-.37681v-.14131l.23581-.0471h.04717c.09432 0 .18865.1413.42446.1413h.14149l.18865-.0942.04717-.0471h.04716v-.0942h-.14149l-.18865-.0471-.18865-.14131-.04717-.0471.09433-.0942.14149-.14131.23581.14131.04717.0942v-.0942-.0471c0-.14131 0-.51812-.37731-.51812h-.3773c-.04716-.0942-.14149-.23551-.28298-.23551-.18865 0-.18865.0471-.33014.0471h-.04716l-.33014-.0942h-.04716v.0471l-.04717.09421h-.04716l-.09432-.09421-.09433-.0942v.1413l-.04716.28261-.04717.0471.04717.04711.04716.0471s-.14149.1413-.23581.42391l-.09433-.23551c-.04716-.1413-.09433-.28261-.09433-.28261v-.0471h-.04716l-.14149.14131c-.04716-.28261-.09432-.80073-.09432-.80073v-.0471h-.04717l-.14148.18841c-.04717-.14131-.04717-.32971-.04717-.51812 0-.471014.09433-1.036231.09433-1.036231v-.047102h-.04716c-.37731.094203-.66028.800725-.66028 1.271743v.0471l-.04717.0471v.18841c-.14149-.09421-.28297-.37682-.47163-.65943-.14148-.329705-.33014-.612314-.33014-.612314v-.047101h-.04716c-.14149.141304-.18865.32971-.18865.471014 0 .518121.3773 1.083331.56595 1.365941-.18865-.1413-.47162-.37681-.47162-.37681l-.04717-.0471v.0471l-.04716.23551c0 .37681.33014.75362.51879.98913-.18865-.09421-.3773-.09421-.3773-.09421h-.04716v.04711.0942c0 .32971.3773.70652.56595.89493-.23581 0-.33014.0942-.3773.0942v.0471c.04716.23551.23581.42391.3773.56522h-.04716c-.37731 0-.70745.23551-.70745.61232v.0471c0 .32971.23582.51811.18866.61232 0 .1413-.04717.1413-.14149.65942v.0942c0 .28261.28297.37681.42446.37681h.09433.04716v-.0471l-.04716.0471c-.04716 0-.14149-.1884-.18865-.37681 0-.1413.28297-.37681.42446-.65942v-.0942c0-.28261-.33014-.37681-.3773-.37681l-.04716-.23551c0-.23551.23581-.32971.28297-.32971h.09433l.14149.0471.04716.18841v.0471l.18865.0471c.04717.0942.04717.23551.04717.42391v.0471c0 .94203-1.03759 1.78986-1.03759 2.35508 0 .51811.42447.89492.51879.98913l-.14148.2826v.04711h.14148l-.04716.2826.14149-.0471-.04716.14131v.0471h.09432v.14134.0471h.14149l-.04716.1884v.0471h.23581l-.18865.2826v.0471l.14149.0471-.09433.1884-.18865.471c0 .0942.09433.2826.09433.4239 0 .1884-.04716.2826-.04716.3768l-.14149.6594.09432.3298.04717.471c.04716.1413.18865.1884.33014.2355l.14148.0471c.14149 0 .33014-.0471.47163-.0471.18865 0 .42447-.0942.56596-.2355l.18865-.1413v-.0471l-.28298-.2826-.14149-.0471h-.09432-.04717-.09432c-.18865 0-.23582.0942-.33014.0942h-.04716c-.14149 0-.14149-.1884-.18866-.3297l-.04716-.1885c0-.0942.04716-.1884.09433-.3297.09432-.1413.09432-.2826.09432-.3768v-.1413c0-.0942 0-.1413.14149-.2826.09433-.1413.09433-.2355.09433-.3768s.04716-.2826.18865-.3768c.18865-.0942.33014-.471.42446-.5652l.04717-.28264.09432-.1413.09433-.14131c.09432-.0942.14149-.1413.23581-.1884l.14149-.14131v.0471.0471.14131l-.14149.28261v.14134.1413l.23582.1884.23581.2355.23582.2355.14148.0942.14149.3297c.09433.1413.18865.2355.37731.2355.23581 0 .42446-.4239.51879-.5181.14149-.1413.23581-.471.23581-.6123v-.3297-.04714h-.09432l-.14149.09424-.14149.1413-.18865.1413-.09433.2826-.04716.0942-.14149-.1413c-.09433-.0471-.33014-.3297-.3773-.471-.04717-.14134-.18865-.28264-.18865-.37685l.04716-.1413c.14149-.18841.47163-.47102.61312-.61232l.09432-.1413-.04716-.04711c.14149-.0942.14149-.32971.14149-.32971-.04717-.51811-.33014-.65942-.61312-.65942l-.33014.0471.04716-.0942.23582-.2355.14149-.09421.09432-.0942v-.0471-.14131c.33014.18841.47163.65942.47163.65942l.04716.09421.04717-.09421c.14148-.1413.14148-.2826.18865-.37681l.23581.0471c.09433.04711.14149.04711.28298.14131.14149.0471.14149.0942.18865.1884l-.04716.09421-.14149.1884-.09433.23551v.0471l.09433.14131.04716.1413.09433.0471h.14149l-.09433-.0942v-.0942l.09433-.09421.09432-.37681.14149-.32971c.09433-.1413.14149-.42391.14149-.47101l.14149-.37682.09432-.32971v-.0942h.04717.04716l-.18865-.1413h-.04717l-.04716-.0471-.18865.0942h-.14149l-.09432.1884v.04711l-.09433.1413v.0942l.09433.14131.04716.2355v.04711l-.09433.0471-.23581-.0471c-.04716 0-.23582-.14131-.3773-.23551l-.04717-.0942.23582-.28261.04716-.0471h-.04716-.04717c-.14148 0-.28297.0471-.3773.0471.09433-.14131.28298-.37681.47163-.65942l.09433-.32971.3773-.28261c.09432-.0471.04716-.18841.09432-.32971 0-.14131.04717-.32971.18866-.42391h.18865c.14149 0 .18865.2355.18865.2355h.09432c0-.42391-.14148-.56521-.28297-.56521v-.18841c0-.0942.09432-.23551.14149-.37681l.09432-.23551v.0471.18841l.04716.28261.04717.0471.18865.1413.09432-.0942-.04716-.0942.04716-.14131-.09432-.32971-.14149-.56522c0-.1413.04716-.2826.04716-.32971l.14149-.32971.04716-.2355v-.0471-.09421zm-5.14075 8.00725.04716.0942-.09432.14134.04716.0471.04716-.18844v-.14131z"/><path d="m15.9415 10.1269.0943.0471-.0471.0471h-.0944l-.1414.1413c-.0944.0471-.1887.2826-.3302.3768-.0943.0942-.1415.1884-.1886.1884h-.0472l.0472-.0471.1886-.1884.283-.3768.1415-.1884-.1415-.14134.0472-.0471s.0471.09424.1886.18844zm-.3301-6.87685-.0472-.32971-.0943-.1413h.0943l.0943.0942.0472.32971zm.7074 1.55435h.0943l.1415.0471.0944-.1413c.0471-.14131.1414-.14131.2829-.18841.1887-.0942.1415-.0942.1887-.1884l-.0943-.14131v-.0471l.0943-.28261v-.1884h-.0472-.0471l-.1415-.04711v-.0471l.0471-.1884.2358-.23551.0472.0471-.0943.0471-.0472.09421-.0943.1884.0943.0471.1415-.0942.0472-.0471v.0942l-.0472.28261-.1415.32971.0943.18841v.0471c0 .0942 0 .1413-.1886.23551-.1887.0471-.2358.0471-.283.1413v.0942l-.0943.0471-.1887-.0471h-.0943c-.1415.0471-.283.28261-.2358.37681h-.0943c0-.1413.1415-.37681.3301-.42391zm1.7922 6.5471v.0942h-.0472l-.0943.2826c0 .1413 0 .1413.0472.2355l.1415.2826v.1413c0 .1413-.0472.3297-.0472.4239l.0472.3298v.0942l-.0944.0942-.0471-.0471.0943-.0942v-.0942l-.0472-.3298c0-.0942.0472-.2826.0472-.4239v-.0942l-.1886-.2355-.0472-.2826c0-.1413.0943-.2355.0943-.2826zm-2.5468-4.05072s.1887.1884.4716.28261c.283.0942.3302.0942.3773.2355l.0472.14131h-.0943l-.0472-.14131c0-.0942-.0943-.0942-.3301-.1884-.283-.0942-.4717-.28261-.4717-.28261zm2.028 3.53262.0943.1884.0472.0942v.0471h-.0943v-.0471l-.0472-.0471-.0943-.2355zm-5.0464-8.94929h.0943.0472l-.1415-.0942h-.0943zm.0943.32971.1415.37681c0 .0471.0472.23551.0472.32971v.0471l-.1415.56522-.0944.28261.0472.1413h.0472l.0471-.0471.0472-.2355.0472-.18841.0471-.0942v-.09421h.0472v.04711l.0472.0471s.0943.1413.1414.28261l.0944.37681.0471.1884.0472-.2355.0472-.09421v-.0471l-.0472-.1884c-.0943-.28261-.1415-.47102-.1415-.65942v-.04711-.2826h-.0472v-.09421-.2355c0-.14131.0944-.23551.0944-.28261l-.0472-.14131-.0472-.0942h-.0943l-.0471.18841v.0942.0942l.0471.14131v.0471.1413.23551h-.0943v-.23551-.1413l-.0472-.18841-.1886-.23551h-.0472-.0943v.04711zm-.1415 1.88406.0472.0471.1415-.0942-.0472-.0471h-.0472zm.4717.47101.1414-.0471.1887.0471c.1886.09421.2358.32971.2358.47102v.1884.09421l.3773.1884.0472-.28261h-.0944-.0943l.0472-.0471.2358-.2355.0943-.18841-.1886-.32971c-.0472-.0471-.0944-.0942-.1415-.23551 0-.0942-.0472-.28261-.0943-.42391-.0472.0471-.1415.1884-.1415.32971v.1413l-.0472-.0942-.1415-.18841-.0471.28261v.04711l.0471.0942h-.0943l-.1415-.0471c-.0472 0-.1415.0471-.1886.2355zm1.2262 1.36595c.2358.37681.4245.65942.5188.75362.0471-.0942.1886-.28261.1886-.42391v-.04711c-.0471-.1413-.1415-.47101-.1415-.70652v-.1413l.0944-.18841-.0944-.1884-.1414-.14131-.1887.18841-.3301.1413-.0472.32971c0 .14131.0472.28261.1415.42392zm0 .70652.1886.2355h.0472v.04711l-.1415.2826.0943.04711h.0944.0471v.0471.0471c0 .0942 0 .23551.0944.37681.0943-.18841.2358-.56522.6131-.65942v-.0471l.0471-.23551v-.1884l.0944-.23551h.0943l-.0943.23551v.1413l.2829-.23551.0944-.1413.0471-.0471.0472.0471s.283.32971.6131.47101l-.4716-.65942c-.3302-.0942-.5188-.32971-.5188-.32971h-.0943v-.0942h.2358l.0471-.0942.0472-.0471.0472-.04711.0471.04711v.0471l.1415.0471c.1415.0471.283.0942.3773.0942l.0472-.0471.1415-.18841.0943-.2355v-.0471h.0472.0943.1886l.1415-.04711.0472-.2826v-.14131l-.0472-.0471h.0943l.1887.0471h.1415l-.0472-.23551h-.0943l-.0472-.0471.0944-.0471.0471-.0471h.0472l.2358-.18841v-.1884l-.0943-.09421-.0944.04711-.0943.0471.0943-.32971.0472.0471.0943.0942.1415-.1884-.1886-.28261-.0472.0471-.0472.0942v-.28261h.0472.0472l.0943-.2355-.283-.04711v-.0471s0-.0942 0-.2355v-.28261-.0471c0 .1413-.0471.2826-.0943.37681-.1415.1413-.1415.28261-.4245.51811-.1415.09421-.2829.23551-.3773.32971v.0471.04711c0 .0942.1415.32971.283.2826h.0472.0471v.04711l.0472.1884c0 .18841-.0943.42392-.4245.47102h-.0471s-.4245.28261-.5188.28261h-.0944l-.1886-.04711-.0472-.0942-.2358.23551-.1415-.18841-.0471-.0942-.1415.18841-.1887.1884-.0471.23551v.1413c0 .23551.0943.51812.1415.70652v.04711c0 .2355-.2359.47101-.2359.47101v.0471h-.0943c-.0471-.0471-.2358-.1413-.4716-.1413zm.0471.56521c-.1414.04711-.2358.09421-.2829.14131l-.2358.0471h-.0472-.0472l-.0471-.0942v-.0471l-.0944-.09421-.0943-.1884v-.23551l-.0471-.32971-.1415-.0471-.0944.1413.0944.32971.1415.42392.1414.47101c.0944.14131.1415.28261.1415.37681l.0944.32971.1886.09421.0472-.09421v-.0471l-.0944-.1884-.1414-.23551-.0944-.14131.0472-.0942c.0472-.0471.0943-.0942.2358-.1884.1415-.09421.1887-.09421.3301-.14131l.2359-.0471-.0944-.0471zm-.5659-.32971v-.1413.0471l-.0943.14131zm-.0943-.2355v-.0471-.04711l-.0472-.0942h-.0943l.0471.28261v.23551l.0472.0942v-.1413l.0943-.18841v-.0942zm-.4717-.32971-.0943.0942h.0472zm.6132 2.40217h.0943.0471v-.0942l-.0471-.0942-.0472.1413zm1.5563-1.41304c.0472.0942.3773.2355.4717.42391l.0943.1413v.04711l.0471.2355.0472.09421.2358.0942.2358.18841c.0944-.09421.1887-.18841.1887-.23551l-.0472-.37681h.0944s.0471.2355.0471.37681v.0471c0 .0471-.0943.18841-.1886.37681v.0471.14131.0471c0 .23551 0 .51811.1886.80072l.1415.14131.0472.28264c.0943.1884.2358.5181.3773.6594.1886.1413.2358.2826.2358.4239s0 .1884.0943.3297.1415.1884.1415.3297v.1413c0 .0942 0 .1884.0943.3297.0472.0942.0944.2355.0944.3297v.1885c-.0472.1413 0 .3768-.2359.4239h-.0943-.1415-.0943l-.1887.0942-.0471.1413h-.0943l.0471-.1413.2358-.1413h-.0471-.1415-.1887l-.0943.1884h-.0943l.0943-.1884-.1886.1413.1414.0942c.1415.1413.3302.2355.5188.2355.1415 0 .3302.0471.4717.0471h.0943l.283-.1884.0471-.4239.0944-.3298-.0944-.6594c0-.0471-.0471-.1884-.0471-.3768s.0943-.3768.0943-.4239l-.1887-.471-.0943-.1884v.0471l-.1886-.0471-.1415-.2826c0-.1413.0943-.3297.1886-.47104.0944-.18841.283-.65942.283-.80072 0-.14131-.1886-.47102-.1886-.47102l.0471-.0471s.1887.32971.1887.51812v.0471c0 .1413-.1887.61232-.283.75362-.0472.18844-.1415.42394-.1415.47104l.0943.2355.0944.0471.1414-.0471-.0471-.1413-.0943-.1413-.1415-.0471h.3301v-.1884-.0471h.1415l-.0472-.18844v-.0471h.0944l-.0472-.14131v-.0471h.1415l-.0472-.1884v-.04711h.1415l-.1415-.32971h-.0471l.0471-.0471s.5188-.37681.5188-.94203c0-.51811-.9904-1.41304-1.0376-2.35507 0-.1884 0-.28261.0472-.42391l-.1887.0471c.0472.18841.0472.51812.0472.51812v.0471h-.0472l-.0943.0471v.1413c.2358 1.03623.9433 1.27174.9904 1.97826v.04711s-.0471.37681-.3301.42391h-.0472l-.1415-.0942-.0943-.18841c-.0943-.18841-.1415-.42391-.3301-.56522-.2358-.1884-.6131-.51811-.7075-.75362-.0471-.18841-.1415-.28261-.1415-.47102v-.0942c-.1414-.0471-.2358-.0942-.3301-.1413.0943.2355.0943.51811.0943.56521v.04711h-.0471c-.3773-.09421-.6603-.37682-.7546-.47102l-.0944.0471-.3301.32971-.0472.28261h-.0471zm.1415.61232c-.2358 0-.5188.0942-.5659.56521l.1415.32971.0943.04711h-.0943l-.0472.0471.0472.0942c.1886.1413.4716.42391.6602.61232l.0944.1884c0 .14131-.1415.28265-.1887.37685-.1415.1413-.3301.4239-.4716.5181l-.1415.1413v.0471.0471l.0472.1884h-.0472v-.1413l-.0943-.1413h-.0472l-.0943-.1884-.0943-.0942h-.0472-.0943l-.0472.0471-.0472-.0942.1887-.0471h.0472l.1414.1413v.0471l-.0471-.2355-.1415-.0942h-.0472-.0943l-.0943.0471-.0472-.0471.0943-.0942h.0472l-.0472-.0471-.0943-.0942v.2826l.1887.5181c.0943.1413.3301.5181.4716.471.1886 0 .2358-.0942.283-.1884.0471-.1413.1886-.3297.1886-.3297h.0472l.1415-.0471.1886-.2355.2358-.2355.1887-.0942v-.1413-.09424l-.0943-.32971-.0472-.18841v-.0471-.0471c0-.32971-.0943-.42391-.1415-.56522-.0472-.0942-.283-.1884-.283-.1884v-.0942h.1415v.0471l.1887.1884c.0471.18841.1415.28261.1415.51812l.2358.1884.1415.09421c-.0944-.18841-.0944-.42392-.0944-.56522v-.0471l.0472-.18841v-.0471s-.1415-.1413-.2358-.23551l-.283-.0942h-.0472v-.0471-.1413l-.0943-.23551c-.0471 0-.1886-.0471-.3773-.0471zm2.6411-2.68479c-.1414-.0471-.3301-.1884-.3773-.2826v.0942.0471l-.0471.23551c.0471 0 .2358-.0471.4244-.09421zm-.0943-.37681h-.0471l-.1887.0471.3773.28261zm.3302.14131h.0943.0471c.0944 0 .3773.0942.3773.37681l-.0943.23551s-.3773.0942-.3301.2826v.09421c.0943.28261.4244.47101.4244.70652v.0471c0 .1413-.0943.28261-.1414.37681v-.0471s.0471-.0942.0943-.23551l.0471-.1413-.0471-.23551c-.0472-.0942-.1887-.23551-.2358-.42391v-.0942c0-.18841.2358-.28261.2358-.28261l.0471.0471s-.1886.1413-.1886.23551v.0471c0 .1413.1415.28261.1886.42391l.0944.23551-.0472.1884-.0472.14131.0472-.0471c.0472-.04711.0472-.09421.0472-.23551 0-.14131-.1415-.56522-.1887-.65942v-.0471c0-.14131.1887-.28261.1887-.32971l.0471.0471-.0943.0942-.0943.14131c.0471.0942.1886.51811.1886.65942l-.0471.32971-.1887.1884c.1415 0 .283-.0942.283-.28261v-.0942c-.0943-.51812-.1415-.51812-.1415-.65942s.1887-.32971.1887-.61232v-.0942c0-.37681-.283-.56522-.6603-.56522h-.2358l-.0944.0471.0944.14131zm.3301-.75363c-.1887.14131-.566.14131-.7074.14131l.0471.1884-.0471.28261h.0471.0472l.0943-.0471c.1415-.1413.4245-.28261.5188-.56522zm0-.1413c-.0472 0-.1415-.0471-.283-.0471h-.0471-.0944l-.2829.28261.2829-.0471c.1887-.04711.4245-.09421.4245-.18841zm-.0472-.42391c.1415-.14131.2358-.32971.283-.51812-.1886.28261-.6603.51812-.7546.56522l.0943.2355h.0472.0472c.0471 0 .1414-.1413.2829-.2826zm-.2829-.47102-.0472-.0471s.7074-.51812.7074-1.03623v-.0471c-.1886.37681-.7546.89492-.9432 1.03623l.1886.1413v.0471c0 .14131-.0943.28261-.1415.32971l.0472.04711c.0472 0 .1887-.09421.3773-.18841.1415-.1413.3301-.32971.3773-.42391-.1415 0-.3773.0471-.5659.1413zm.0471-.80072c-.2358.28261-.4716.47101-.5659.56521l.1415.04711c.0943 0 .2829-.18841.4716-.37682.1886-.1884.4244-.42391.4716-.61231-.1415.0942-.3773.2826-.5188.37681zm.566-1.507249-.0472-.329711c0 .80073-.8961 1.69565-.8961 1.69565-.0471.28261-.1415.47102-.1886.56522.0943-.0942.2829-.23551.4244-.47101l.0472-.04711c.0472 0 .6603-.80072.6603-1.413039zm-.1415-.329711c-.1415.282609-.5188 1.03623-.7546 1.22464 0 .1413-.0472.23551-.0472.37681.2358-.28261.8018-.98913.8018-1.60145zm-1.0376 2.68478c.0472 0 .1887-.0471.3301-.0471l-.2829-.1413zm.1415.28261h.0472c.0471-.0471.1414-.1884.1886-.28261l-.3301.0471-.0944.04711zm-.1415.37681c.0943 0 .2358 0 .3773.0471l-.0472-.1413-.1414-.18841zm.1415.84783v-.18841l-.0472-.1884-.0471-.0471.0471-.0471.283-.23551h-.0472l-.3301-.0471c.0472.0942.0472.2355.0472.28261l-.283.2355zm-.6603.18841v.0471.0471c.0472.0471.1887.23551.3301.28261l.0472-.23551v-.0471-.18841l-.0472.0471h-.0471-.1415-.1415zm-.1886.89492.0943-.28261v-.0942h.0471s.1887 0 .3773-.0942c-.1414-.0471-.2829-.14131-.3301-.23551l-.0472.18841s-.0471 0-.1886.0471h-.1887c0 .1413.0472.37681.2359.47101zm-.3773.0471.2358-.0471c-.0944-.0942-.1887-.2355-.1887-.32971l-.0471.14131-.1887.1884zm.896.28261-.0471-.1413h-.1415-.2358c.0471.1884.0471.32971.0471.37681v.0471h-.1414-.1415v.0942c0 .18841.0471.23551.1415.42392.0471.2355.4244.51811.6602.70652.1887.18841.2359.42391.3773.61232l.0944.1884.0943.04711h.0472c.1886 0 .2829-.37682.2829-.37682v-.0471c-.0471-.61232-.8017-.84782-1.0376-1.93116zm-.3773-.56521c0 .1413-.0943.32971-.0943.32971h-.0471c-.1415 0-.2359 0-.3302 0 .0472.0942.1415.2826.4245.37681 0-.09421 0-.23551-.0943-.37681l.0471-.04711.0472.04711.1886.0471h.1887c-.0943-.14131-.2358-.32971-.3302-.37681zm.4245-.18841c-.1415.0942-.283.0942-.3773.1413l.1415.18841.283.23551c0-.18841 0-.42392-.0472-.56522zm0-.61232h.0472.0471.0944l-.2359-.23551.0472.18841zm-1.2262 1.31884c.0471.0471.2358.23551.6131.23551-.283-.0942-.3773-.32971-.3773-.42391h-.1415zm-.0943 0 .0943-.23551-.2358-.0471zm-.1415.0942.3301.51812v-.18841c-.0472-.1413-.0943-.2355-.1415-.32971zm.0471-.0942-.1415-.28261-.0943-.0471-.1886-.0942-.1415.1413h-.0472c.0943.09421.283.23551.6131.28261zm1.7451-4.33333v-.18841c-.0944.37681-.3302.75363-.3774.84783v.23551.2355l.1415.0471c.0472-.0942.2359-.56521.2359-1.17753zm-.3774-1.365944c.1415.235507.1887.471015.1887.706524 0 .56522-.2358 1.03623-.2358 1.03623l.0471.1413.0944-.1413.1886-.42391.0472-.18841v-.0471-.1413c0-.23551-.1415-.706527-.3302-.942034zm-.1886-.141304c.0472.188406.0472.565217.0472.942028 0 .23551 0 .47102-.0944.61232 0 0 .0472.1413.0944.28261.0471-.0942.2358-.51812.2358-.98913 0-.282611-.0944-.56522-.283-.847828zm-.0943 1.648548v.0471l-.0472-.0942-.0472-.1884c0 .1884-.0471.65942-.1414.84782 0 .0471.0943.23551.0943.37681l.1415-.2355.0943-.23551v-.0942c0-.18841-.0472-.32971-.0943-.42392zm-.283.70652-.0472-.0942-.0471-.1413-.0944.1884c-.0471.09421-.0943.23551-.1886.28261v.0471.14131.0471.0942.18841.0471l.283-.23551.1415-.0942.0471-.14131zm-.6131 1.74276.0471.1884c.3302-.0471.3773-.2355.3773-.37681v-.1413c-.1414 0-.2358-.14131-.2829-.23551-.0472.23551-.1415.42391-.1415.56522zm-.0943-1.93116.0471-.0942-.0471-.28261-.0472.0471h-.0943-.0472l-.283-.0471-.1415-.0471c-.1415 0-.1886-.04711-.3301-.04711l-.1415.18841.0472.0942.1886-.0942h.0943.0472l.0943.0471.1415.0471.1415.0471h-.283v.04711l.1887.1884v.0942l-.283-.0942-.0943.0471-.1415-.0942.0943.28261.0943.0942-.0471.28261v.18841c-.0472.1413-.1887.2826-.3773.42391-.1887.1413-.4716.37681-.6131.56522-.1887.1884-.2359.47101-.3302.56521l-.1886.23551h.0471l.3302-.1884.283-.18841.1886.18841.0472.1413.1415-.18841.0943-.1884.0943-.0942.1415.1884.0472.0942.0471.04711.0472-.04711.1415-.1884.0471-.0471.0472.0471.0472.1413.0943.0471.4716-.2355c0-.0471-.0471-.14131-.0471-.28261v-.0471c0-.14131.0943-.37681.1414-.61232v-.09421l.0944-.0942v-.1884-.28261c0-.42392-.1887-.56522-.2358-.61232zm-1.6036-.28261c-.1415 0-.1886.0942-.2358.18841l-.0472.2355.2359-.0942.1886.18841.0943.0942.2358-.0471h.1415l-.0471-.28261-.1415-.28261zm0 .89493-.2358.0942.1415.0471h.0472l.2829-.1413.1415-.14131h-.0471l-.0944-.0471h-.0471zm.7075-.18841-.0472-.0471h-.1887zm-.283.23551h.0471l.1887.0471v-.0942-.09421h-.1415-.0943l-.1415.14131-.0943.0942zm-1.8394-.61232c.0944-.1413.1887-.23551.1887-.28261l-.0472-.23551h-.0943v.09421.0471c0 .0942-.0943.1413-.0943.28261v.2355.09421zm.0472-.75362v.1413h.0472.0471zm-.283-.14131h-.0471l.0943.14131h.0943zm-.6131.23551.1415-.0471.1415.0942h.0471l.1415.18841v-.0471l.0472-.18841.0472-.0471c0-.14131-.0944-.14131-.0944-.14131h.0472.0472c.1414 0 .1886.14131.1886.18841v.0471h.1415l-.0472-.1413v-.0471h.0472l.1415.1884.0471.28261c0 .1413-.0943.23551-.1886.32971-.0943.18841-.0943.28261-.0943.47101v.04711c0 .1413.0943.37681.1415.61231l.0471.18841v.0471l.0943.14131c.0944-.23551.283-.37682.283-.37682l.0943-.0471-.0471.09421v.0471c0 .0942.0471.28261.0471.42391.0472.1413.0472.14131.1415.23551l.1415.28261c.0472-.09421.0943-.23551.2358-.37681.1887-.23551.4717-.42392.6603-.56522.1887-.14131.3302-.28261.3302-.37681v-.14131l-.1887-.0471h-.0472c-.0943 0-.1886.1413-.4244.1413h-.1415l-.1887-.0942-.0943-.0471v-.0471-.0471h.0472.0471l.1887-.0471.1886-.14131.0472-.0471-.0943-.0942-.0943-.14131-.2359.14131-.0471.0942v-.0942-.09421c0-.1413.0471-.51811.3773-.51811h.3773c.0471-.0471.0943-.18841.283-.18841.1886 0 .1886.0471.3301.0471h.0472l.2829-.0942h.0472v.0471.09421h.0472l.1415-.09421.0471-.0942v.1413l.0472.28261.0471.0471v.04711l-.0471.0471s.1415.1413.1886.42391l.1415-.23551c.0472-.1413.0943-.2355.0943-.2355v-.04711l.0472.04711.1415.0471c.0472-.23551.0943-.80073.0943-.80073v-.0471h.0943l.1415.18841c0-.14131.0472-.32971.0472-.51812 0-.471014-.0943-1.036231-.0943-1.036231v-.047102h.0471c.3773.094203.6603.847827.6603 1.271743v.0471l.0472.0471.0471.18841c.0944-.09421.283-.37682.4245-.65943.1887-.329705.3301-.612314.3301-.612314l.0472-.047101v.047101c.1415.141304.1887.282609.1887.471015 0 .518119-.3773 1.083329-.5188 1.365939.1886-.1413.4716-.37681.4716-.37681l.0472-.0471v.0471l.0471.23551c0 .37681-.3301.75362-.5188.98913.1887-.0471.4245-.0942.4245-.0942h.0472v.0471.0942c0 .32971-.3773.70652-.566.89493.2358 0 .3301.0942.3301.0942v.0471c-.0943.23551-.2358.42392-.4244.51812h.0471.0472c.3773.0471.6603.28261.7074.65942v.0471c0 .32971-.2358.51812-.1886.61232.0472.1413.0943.1413.1886.65942v.0942c0 .28261-.2829.37681-.4244.37681h-.1415-.0943v-.0471c.0471 0 .1415-.1884.1886-.37681 0-.1413-.3301-.37681-.4244-.70652v-.0942c0-.28261.3301-.37682.3773-.37682l.0471-.1413c0-.23551-.2358-.32971-.283-.32971h-.0943-.1886l.0471.18841v.0471h-.0471-.1415c-.0472.0942-.0943.2355-.0943.42391v.0471c0 .94203 1.0375 1.78986 1.0375 2.35507 0 .51812-.4244.89493-.5188.98913l.1415.32971v.04711h-.1415l.0472.2355h-.1415l.0472.14131v.0471h-.0943v.14134.0471h-.0944l.0472.1413v.0942h-.2358l.1415.2355v.0471l-.1415.0471.0943.1884.1887.5181c0 .0942-.0944.2826-.0944.4239 0 .1884.0472.2826.0944.3768l.0943.6594-.0472.3298-.0943.471c0 .0942-.1887.1413-.3301.1884l-.1415.0471c-.1415 0-.3302-.0471-.4717-.0471-.1886 0-.4244-.0942-.5659-.2355l-.1887-.1413v-.0471l.283-.2355.1415-.0471h.0943.0472.0943c.1415 0 .1887.1413.3301.1413h.0472c.1415 0 .1415-.1884.1887-.3297l.0471-.1885c0-.0942-.0471-.1884-.0943-.3297-.0943-.1413-.0943-.2826-.0943-.3768v-.1413c0-.0942 0-.1413-.1415-.2826-.0943-.1413-.0472-.2355-.0943-.3768 0-.1413-.0472-.2826-.1887-.3768-.1415-.1413-.3301-.5181-.3773-.6123l-.0943-.32974-.0943-.14131-.0944-.1413c-.0471-.0471-.0943-.0942-.2358-.1413l-.1886-.14131v.0471.0471l.0471.18841.1415.28261v.14134.1413l-.2358.1413-.283.2355-.1886.2355-.1415.0942-.1887.3297c-.0471.0942-.1415.2355-.3773.2355s-.4244-.4239-.5188-.5181c-.0943-.1884-.1415-.471-.1886-.6123l.0471-.3297v-.04714h.0472l.1887.09424.1415.0942.1414.1884.0944.2826.0471.0942.1415-.1413c.0943-.0471.3302-.3297.3773-.471.0472-.0942.1887-.23554.1887-.32975l-.0472-.1413c-.1415-.18841-.4716-.47101-.6131-.56522l-.0472-.1884.0472-.09421c-.1887-.0942-.1887-.32971-.1887-.32971.0472-.51811.3773-.65942.6603-.61232l.3302.04711-.0944-.14131-.2358-.2355-.1886-.09421-.0472-.0942v-.0471-.14131c-.3301.18841-.4716.65942-.4716.65942l-.0943.09421-.0472-.09421c-.0472-.1413-.0943-.2826-.0943-.37681l-.2359.0471c-.1414.04711-.1886.04711-.3301.14131-.0943.0471-.1415.0942-.1886.1413l.0943.14131.1415.1884.0943.23551v.0471l-.0943.14131-.0472.1884-.0943.0471h-.1415l.0472-.0942.0471-.0942-.0943-.14131-.0943-.32971-.1415-.37681c-.0943-.1413-.1415-.42391-.1887-.47101l-.1415-.37682-.0943-.32971.0472-.0942h-.0472-.0471l.1414-.1413h.0472l.0472-.0471.1886.0942h.1415l.1415.1884v.04711.0471l.0472.0471.0471.0942-.0471.0471-.0472.18841-.0472.23551v.0471h.0472l.1886-.0471c.0472 0 .2359-.14131.3773-.23551l.0472-.0942-.1886-.28261-.0472-.0471h.0472.0471c.1415 0 .283.0471.3773.0471-.0943-.14131-.283-.32971-.4716-.65942l-.0472-.32971-.4244-.28261c-.0944-.0471-.0472-.18841-.0944-.32971 0-.14131-.0471-.32971-.1886-.42391l-.1415-.04711c-.1415 0-.1886.23551-.1886.23551h-.0944c0-.42391.1415-.51811.283-.51811v-.18841c0-.0942-.0943-.23551-.1415-.37681l-.0943-.23551v.0471.18841l-.0943.2355-.0944.09421-.1886.0942-.0943-.0471.0943-.0471-.0472-.23551.0943-.28261.1415-.56522c0-.1413-.0471-.2826-.0471-.32971l-.1415-.37681-.0472-.2355v-.09421l.0472-.0471zm5.1879 8.00725-.0472.0942.0472.14134-.0472.0942-.0471-.23554.0471-.14131z"/><path d="m19.0539 6.73551c.0943.51811-.566.42391-.4716.37681.0471-.0471.1415-.23551.1886-.42391.0472-.18841-.3301-.37682-.4244-.70653-.0944-.32971.3773-.42391.3773-.42391l.0943-.1413c0-.28261-.283-.37681-.3773-.37681-.0472 0-.1887-.04711-.283.0471l.0472.1884-.2358.0471c-.0472.09421-.0472.28261-.0472.47102 0 .94203 1.0376 1.78985 1.0376 2.35507s-.566.98913-.566.98913l.1415.37681h-.1415l.0472.23551-.0943-.0471.0471.1884h-.1415l.0472.1884h-.1415l.0472.1884-.283.0471.1886.2826-.1414.0942.0943.2355.1886.5182c0 .0942-.0943.2826-.0943.4239 0 .1884.0472.2826.0943.3768l.0944.6123-.0472.3297-.0472.471-.3301.1884c-.0943.0471-.4245 0-.6131-.0471-.1887 0-.3773-.0942-.566-.2355-.1415-.0942-.1415-.0471-.1415-.1413l.283-.2355c.0943-.0942.2358 0 .3773 0s.1887.1413.3773.0942c.1887 0 .1887-.2355.2358-.3768 0-.0942.0472-.2826-.0943-.5181-.1415-.1884-.0943-.3768-.0943-.471s-.0472-.1413-.1415-.2826c-.0943-.1884-.0943-.2355-.0943-.3769 0-.1413-.0472-.2826-.2359-.4239-.1414-.1413-.2829-.471-.3301-.6123-.0943-.1413-.0943-.3297-.0943-.3297l-.2358-.2355-.2358-.18841-.1887-.1884v.1413l.0472.23551.1415.28261v.28259l-.283.0942-.2358.2826-.1887.2355-.1886.0471s-.1415.2355-.1887.3297c-.0472.1413-.1415.2356-.3301.2356-.1887 0-.3773-.3769-.4717-.5182-.0943-.1413-.1886-.471-.1886-.5652l.0471-.3297.1415.0942.1415.0942.1887.1413.0943.2826.0943.1413c0-.0471.0472-.1413.1415-.1884.1415-.0471.3302-.3297.4245-.5181.0471-.14129.2358-.2826.0943-.471-.1886-.18841-.4716-.47102-.6131-.61232-.1415-.14131 0-.18841 0-.18841-.1415-.0471-.1887-.37681-.1887-.37681.0472-.84783.8961-.56522 1.0376-.51812 0 0-.0471-.0471-.1415-.1884-.0943-.18841-.5188-.32971-.4716-.37681v-.23551c-.4245.1413-.6131.70652-.6131.70652-.0943-.18841-.0943-.32971-.0943-.42391l-.283.0471c-.1415.0471-.1887.0942-.3302.1413-.1414.09421-.1414.14131-.2358.18841l.0472.18841.1415.1884.0943.23551v.1413l-.0472.18841h-.1886l.0472-.0471.0471-.18841-.1415-.0471-.0943-.37681c0-.09421-.0943-.23551-.1415-.32971l-.1415-.47102-.1415-.42391-.0943-.28261.0472-.0942h-.0472-.0943l.0943-.14131h.1415l.1887.09421h.1414l.0944.1413.0471.0942v.18841l-.0471.1413-.0472.28261.0943.09421.2358-.04711c.0472-.0471.283-.1884.4245-.2826l.0472-.09421-.283-.32971c.3301 0 .5188.14131.5188.14131l.0472-.0471c-.0944-.09421-.283-.32971-.5188-.70653l-.0944-.32971c-.0943-.0942-.3301-.2355-.4244-.2826-.1415-.04711 0-.56522-.283-.75363-.3301-.23551-.4245.18841-.4245.18841.0472-.47102.2358-.51812.3302-.51812l-.0944-.1884c0-.09421-.0943-.28261-.1414-.37682 0-.1884-.0944-.32971-.0944-.32971l-.0943.09421v.1884l-.0472.28261-.0943.0471h.0472l-.1887.14131-.0471-.0471.0943-.09421h.0471l-.0943-.1884.0943-.28261.1415-.56522-.0471-.37681-.1415-.37681-.0472-.23551-.1415-.1884c.3302-.04711.283.1413.283.1413l.0472.0471.2358.23551v-.18841l.0472-.1884.0471-.0471c.0472-.18841-.0943-.23551-.0943-.23551h.0472c.2358-.0471.1886.1884.1886.23551l.0943.0942h.0472l-.0943-.14131h.0471c.1415 0 .1415.23551.1415.23551l.0472.23551c0 .0942-.0943.1884-.1887.32971-.0943.0942-.0943.23551-.1415.42391 0 .18841.0944.42391.1415.65942l.0472.18841.1415.2355c0-.2826.2358-.47101.2358-.47101.0472.18841.0943.42391.1415.56522.0471.1413.0471.1413.1415.2355l.1886.37682c.0472-.14131.0943-.28261.2358-.47102.1887-.1884.4717-.42391.6603-.51811.1887-.14131.3302-.28261.3302-.42392v-.1884h-.3302c-.0943 0-.1886.1413-.3773.1413-.1886 0-.2358-.0471-.3301-.0942l-.0472-.0942.283-.09421.1886-.1884h.0944l-.283-.28261-.283.1413s-.0472-.51811.3302-.51811h.4244s.0943-.18841.2358-.18841.1887.0471.3302.0471h.1415-.0472l.3301-.0471v.0942h.0944l.1415-.0942.0471.32971-.0471.0942c0 .04711.2358.23551.2358.65942 0-.1413 0-.1884 0-.1884.1415-.0471.2829-.56522.2829-.56522l.1415.23551c.0472-.18841.0944-.94203.0944-.94203.1414.0471.1886.28261.1886.28261.1887-.37681 0-1.695654 0-1.695654.3773.094203.6603.989134.6131 1.365944l.0472-.0471c0 .1884.0472.2355.0472.2355.2358-.1413.8489-1.365938.8489-1.365938.5188.659418-.4716 1.978258-.4716 1.978258.1414-.0471.6131-.47101.6131-.47101.2358.61232-.6603 1.31884-.6603 1.31884.2358-.14131.6131-.14131.6131-.14131.0472.32971-.5188.94203-.6131 1.03624.283 0 .4245.0942.4245.0942-.0944.28261-.3773.51811-.566.61232l.283-.0471c.3773.0471.6603.2355.6603.61232.0471.37681-.2359.56521-.1887.70652 0 .1413.0472.1413.1415.65942zm-8.112-6.73551 5.6595 18.558c1.4621-1.7899 2.594-4.1921 2.594-7.3479v-11.2101zm-4.43332 8.43116-.09433.0471.04716.14131.04717.0471.33014-1.03624-.09433.09421c-.04716.1413-.14149.28261-.14149.32971zm.66028-1.97826h-.04717l.04717.0942v.0471zm-3.39573-1.83696c.04716-.0471.09433-.1413.09433-.28261 0-.1413-.09433-.37681-.14149-.65942 0 .0471-.14149.32971-.33014.28261-.04716.0471-.23582.65942.3773.65942zm-1.13191 1.36594v.18841c-.28297 1.08333-1.03758 1.31884-.99042 2.02536 0 0 .09433.37681.28298.37681.23581 0 .14149-.0471.23581-.2355.14149-.18841.18866-.42392.37731-.61232.23581-.18841.61311-.47102.70744-.70652.04716-.18841.14149-.28261.14149-.47102v-.1413c-.09433 0-.18865.0471-.33014 0 0 0 0-.23551.09432-.47102-.04716 0-.18865.14131-.51879.0471zm14.19598-1.97826c-.1886.0471-.3301-.28261-.3301-.32971-.0943.28261-.1886.51812-.1886.65942 0 .14131.0471.23551.0471.28261.6603 0 .4716-.61232.4716-.61232zm-15.893841 7.20648c0 3.1087 1.131911 5.5109 2.641121 7.3008l2.9241-9.79713h-.18865l-.04717-.23551-.04716-.0942.09433-.23551.14148-.1884.04717-.18841c-.04717-.0471-.09433-.14131-.23582-.18841-.09432-.0471-.18865-.0942-.28297-.1413l-.28298-.0471c0 .0942-.04716.2355-.14149.42391 0 0-.18865-.51812-.56595-.70652v.23551c0 .0471-.37731.1884-.47163.42391-.09433.0942-.14149.1413-.14149.1413.14149-.0471.99042-.32971 1.03758.51812 0 0-.04716.28261-.18865.37681 0 0 .14149.0471 0 .18841-.14149.1413-.47163.42391-.61312.61232-.14149.1884.04717.32971.09433.5181.04716.1413.28298.471.3773.5181l.18865.1884.09433-.1413.09432-.2826.18866-.1413.14148-.0942.14149-.0942.04717.3297c0 .0942-.09433.4239-.18866.5652-.09432.1413-.33014.5182-.47162.5182-.18866 0-.28298-.0942-.33014-.2356-.09433-.1413-.23582-.3768-.23582-.3768l-.14149-.0471-.18865-.2355-.28298-.2826-.23581-.0942v-.28259l.14149-.28261v-.23551-.0942s-.09433.0942-.23582.1884l-.18865.14131-.23581.2355s0 .1884-.04716.3297c-.04717.1413-.23582.471-.37731.6123-.18865.1413-.18865.2826-.23581.4239 0 .1414 0 .1885-.09433.3298-.09432.1884-.09432.1884-.09432.3297s.04716.2826-.09433.5181c-.14149.1884-.14149.3768-.09432.471 0 .1413 0 .3768.18865.3768s.23581-.0942.3773-.0942.28298-.0471.3773 0l.23582.2355c.04716.0471 0 .0471-.14149.1413-.09433.1413-.33014.2355-.51879.2355s-.51879.0471-.61312 0l-.28298-.1413-.04716-.471-.09433-.3297.09433-.6123c0-.0942.09433-.1884.09433-.3768 0-.1413-.09433-.3768-.09433-.4239l.18865-.5182.09433-.2355-.14149-.0471.18865-.2826h-.28298l.04717-.2355h-.14149l.04716-.2355h-.09433l.04717-.1884h-.14149l.04716-.23551h-.14149l.18865-.37681s-.56595-.37681-.56595-.94203 1.03758-1.41304 1.03758-2.35507c0-.23551 0-.37681-.04716-.47102l-.23581-.0471.04716-.1884c-.14149-.09421-.28298-.0471-.28298-.0471-.04716 0-.3773.0942-.3773.37681l.09432.1413s.47163.0942.37731.42391c-.14149.32971-.47163.56522-.42447.75363.04716.1884.14149.37681.18865.42391.04717 0-.56595.1413-.47163-.37681.09433-.51812.14149-.51812.14149-.65942.04717-.14131-.23581-.32971-.18865-.70652 0-.47102.28298-.65942.66028-.70653l.28298.04711c-.18865-.09421-.51879-.28261-.61312-.65942 0 0 .14149-.09421.42447-.09421-.09433-.0471-.66028-.65942-.56596-.98913 0 0 .37731.0471.61312.14131 0 0-.89609-.65942-.66028-1.27174 0 0 .47163.42391.61312.47101 0 0-1.037586-1.31884-.47163-1.931157 0 0 .56595 1.224637.84893 1.365947 0 0 .04716-.04711.04716-.23551l.04717.0471c-.09433-.42391.23581-1.318841.56595-1.413044 0 0-.18865 1.318844 0 1.695654 0 0 .04716-.23551.18865-.23551 0 0 .04716.70652.14149.89493l.14149-.18841s.14149.51812.28298.51812v.1884c0-.42391.23581-.61231.23581-.65942l-.09433-.0942.04717-.32971.14149.0942h.09432v-.0942l.33014.0471h-.09432.14148c.14149 0 .18866-.0471.33014-.0471.14149 0 .23582.18841.23582.18841h.42446c.37731 0 .33014.51811.33014.51811l-.18865-.1413-.28297.28261.04716.0471.18865.1884.28298.04711-.04717.0471c-.04716.0471-.14148.0942-.28297.0942-.18865 0-.28298-.0942-.42447-.0942h-.28298v.1884c0 .09421.14149.28261.33014.42392.18866.1413.47163.32971.66028.51811.09433.14131.18866.32971.23582.47102l.18865-.32971c.04716-.09421.09433-.09421.14149-.23551 0-.14131.09432-.37681.04716-.51812 0 0 .23582.14131.23582.47102l.14148-.23551.04717-.18841c.04716-.2826.14149-.51811.14149-.65942 0-.1884 0-.32971-.09433-.42391-.04716-.23551-.18865-.37681-.14149-.42391l.04716-.23551.09433-.23551h.04716l-.04716.14131h.04716l.14149-.0471c0-.09421-.04716-.28261.18865-.28261h.04717s-.14149.0471-.09433.23551l.04716.0471.04717.1884v.14131l.23581-.23551h.04716s-.04716-.18841.23582-.0942l-.14149.0942-.04716.28261-.14149.37681-.09433.37681.14149.56522.09433.28261-.04717.1884h.04717l.09432.09421-.09432.0471-.14149-.14131h.04716l-.14149-.0471-.04716-.28261v-.1884l-.04716-.09421s-.09433.14131-.14149.28261c-.04717.14131-.14149.32971-.14149.42392l-.04716.1884c.09432 0 .28297 0 .33014.51812 0 0-.09433-.37681-.37731-.18841-.3773.23551-.18865.70652-.33014.75363-.14149.0471-.3773.1884-.42446.2826l-.14149.32971c-.23582.37682-.42447.61232-.51879.70653v.0471s.18865-.14131.51879-.09421l-.23582.28261.04717.09421c.14149.0942.3773.2355.42446.2826l.23582.04711.09432-.09421-.04716-.28261-.04716-.1413.04716-.18841.04716-.0942.09433-.1413h.14149l.18865-.09421h.09432l.09433.09421 1.88651-6.3586986h-8.159171zm11.790741 8.2899v.0471l.1886.1413.1887.2355.4244.6123.0472.0471h-.0472s-.2829.0942-.5187.0942h-.1887c-.1415 0-.2358-.0471-.3773-.0471-.283 0-.3773-.0471-.6603-.0471s-.4716.1413-.8018.1884c-.3301 0-.7074-.1884-.9432-.1884-.23582 0-.61313.2355-.75461.2355h-.09433c-.14149 0-.28298-.0471-.42447-.0942-.14148-.0471-.33014-.1884-.47162-.1884-.14149 0-.42447.1884-.5188.2355-.09432 0-.23581.0471-.42446.0471l.09432.0471c.37731-.0471.33014-.2355.80177-.2355s.51879.2355.94326.2355.33014-.2355.84894-.2355.5659.2355.9904.2355.4245-.2355.8961-.2355c.4245 0 .4716.2355.8489.2355s.4245-.2355.9433-.2355c.4716 0 .2358.1413.6131.1413.7546-.6123 1.5564-1.3659 2.2638-2.2137h-4.056zm-2.73547 2.9674c.51877 0 .56597.2355.99037.2355l-.8489.3768-.84891-.3297c.23581-.0471.28297-.2826.70744-.2826zm.18867.6123s.7074-.2355 1.6978-.7536c-.4244 0-.4244.2355-.8489.2355s-.4716-.2355-.9904-.2355-.47164.2355-.84894.2355c-.33014 0-.42447-.1413-.66028-.2355l-.80177-.4239c.14149-.0471.23582-.1884.51879-.1884.47163 0 .51879.2355.94326.2355.3773 0 .33014-.2355.84894-.2355s.5659.2355.9904.2355.4245-.2355.8961-.2355c.3773 0 .3773.1413.6131.1884l.1887-.1413c-.3302 0-.3773-.2355-.849-.2355-.4244 0-.4244.2355-.8961.2355-.4244 0-.4716-.2355-.99037-.2355-.51879 0-.47163.2355-.84893.2355-.37731 0-.47163-.2355-.94326-.2355-.3773 0-.42447.1884-.66028.2355l-.99042-.5652h.14149c.51879 0 .70744.2355.70744.2355.3773 0 .33014-.2355.80177-.2355s.51879.2355.94326.2355c.3773 0 .33014-.2355.84893-.2355.51877 0 .56597.3297.99037.2355.4245-.0942.4245-.2355.8961-.2355.4245 0 .4717.2355.849.2355s.4244-.2355.9432-.2355h.0944l.1414-.0943c-.0471-.0942-.0943-.0942-.2829-.0942-.5188 0-.566.2356-.9433.2356-.3301 0-.3773-.2356-.8489-.2356-.4245 0-.4245.2356-.8961.2356-.4245 0-.4716-.2356-.99043-.2356-.5188 0-.47163.2356-.84894.2356-.3773 0-.47162-.2356-.94325-.2356s-.33014.2356-.70745.2356c0 0-.18865-.2356-.70744-.2356-.14149 0-.23581.0471-.33014.0471l-.33014-.2355c.23582-.0471.23582-.1884.66028-.1884-.14149-.0942-.14149-.2355-.18865-.2355 0 0 .18865-.2355.3773-.4239s.28298-.2826.33014-.3768l.23582-.1884.14149-.942h-4.10317c2.78261 3.3442 6.64998 4.6159 6.64998 4.6159zm7.3574-17.09782c-.3302.04711-.4716-.0471-.4716-.0471.0943.23551.0943.47102.0943.47102-.1415 0-.2358 0-.3302 0v.1413c0 .18841.0472.23551.1415.47102.0944.2355.4245.51811.6603.70652.2358.1884.283.42391.3773.61232.0943.1884 0 .2355.2358.2355s.283-.37681.283-.37681c.0472-.70652-.7074-.94203-.9904-2.02536z"/><path d="m10.0924 6.82966h.0472v.0942 2.26087l.3773-.37681-.4716-2.44928-.09437.51812zm.283 2.49637h2.2638l-1.9808-.2355zm-.61312.23551h-2.12233c-.14149 0-.23582-.0471-.23582-.1413l.14149-.09421-.7546.09421v.0942l2.64112.37681zm.42442 3.39126c0 .1413-.0471.1885-.1414.1885l-.09437-.1414v-3.20285l-.37731.37685.47168 3.8623h.0943l.4716-3.8152-.4245-.42395zm2.6412-3.48546-.1887.0942c-.2358 0-1.8393.0471-2.2638.0471l.283.28261 2.7354-.37681v-.0942l-.6603-.09421zm-2.6412.0471h.0944s2.0751-.0471 2.3581-.0471h.0943l-.0471-.0471h-2.4997l.7546-.65942.0472-.14131-.1886.0471-.7075.70653v-.09421-2.35507h-.09431v2.44928l-.61312-.61232-.33014-.18841.14149.23551.75461.61232h-.14149s-1.69786 0-2.12233 0h-.18865l-.04716.0471.04716.0471.14149.0471h2.31098l-.70745.61236-.14148.1884.28297-.0942.66033-.61236v3.39126.0943l.0471-.1414v-3.29705-.14131l.6131.65946.2358.1413-.0471-.1884zm-.47159-.18841-.28297-.1884-1.79219.1884h.04716zm.18865-2.40217-.28297 1.93116.28297.32971z"/><path d="m9.10286 15.826h-.84893l-.04716.2355h.89609zm-1.08475-.3768.23582.2826h3.67867l.2358-.2826zm1.03759 1.1775h-.94326l-.09433.3297h.99042zm-.94326-.0471h.42446v-.4239h-.33013zm.33014.4239h-.42447l-.04716.4239h.47163zm3.30142 0v.4239h.4716l-.0472-.4239zm-.4716.8949h1.0847l-.0943-.4239h-.9904zm.8017-1.2717h-.9432v.3297h1.0375zm0-.0471-.0943-.4239h-.3773v.4239zm-.9904-.7536v.2355h.8961l-.0472-.2355zm-2.16949 1.6485h-.99042l-.04717.4239h1.03759zm2.82979 2.9203h.2358l-.0472-.0942h-.0471l-.0472-.1413-.0472-.0942h-.0471l-.1887-.1413h-.1886-.0943l.1414.0942h.0472v.0471l.0943.0471h.0472v.0471zm-2.07519-.0942h-.23581v.0471l-.14149.2355v.0942h-.04716-.09433-.09432l-.14149-.0471h-.14149l-.14149-.0942-.09433-.0942v-.0471l-.09432-.0942v-.0471l-.09433-.0942-.18865.1884h-.09432l-.09433.0471-.28298.2355h-.18865c-.14149-.0942-.23581-.1884-.28298-.3297-.09432.0942-.23581.2355-.42446.2826l.04716.0471c.18865.0471.23582.0471.47163.0471h.04716c.14149 0 .33014-.0471.37731-.0471.09432-.0471.3773-.2355.56595-.2355s.3773.1413.51879.1884.28298.0942.37731.0942c.09432 0 .47162-.2355.70744-.2355zm3.25429.0942h-.0472-.1887c-.0471.0471-.0471.1884-.1886.1884h-.0472-.0471l-.0472-.0942v-.0942l-.0472.0942h-.1886l-.0472-.0471h-.3301l-.2358-.1884-.0944-.0471c0 .1413 0 .2355-.0471.3768v.0471h-.0943c-.2359 0-.3302-.2355-.4245-.4239h-.1415-.0472l-.3301.2826h-.1415c.2358.0471.566.1884.8018.1884.283 0 .4716-.1884.8017-.1884.283 0 .4245.0471.6603.0942.1415.0471.283.0471.3773.0471h.1887.0471zm-2.3582-.2826.0943-.0471h.0944.0943v.0471c.1415.1413.283.3768.4245.3768.0471-.1413.0471-.2826.0471-.4239l-.1415-.0942h-.0471v-.0471h-.1415c-.1887 0-.3302 0-.5188 0h-.1887l-.2358-.0471.0472.0471-.23584.2355v.0471l-.04716.0471-.09432-.0471.09432-.0942.18865-.2355c-.14149 0-.33014 0-.47163-.0471l-.09432.1884-.09433.1884v.0471h.37731c.09432.1413.23581.1413.37732.1413h.1415c.1415-.0942.2358-.1884.3301-.2826zm1.9337-.0471-.0472-.0942-.0471-.0942h-.4245-.3301l.0943.0942h.0471.0472l.0472.0942.0471.0942.0944.0942v.0471h.0943v.0471h.1415l.1415-.0942.0943-.0471v-.0942zm-4.95211-.4239.04716.0471c.14149.0471.23581.0942.33014.0942l.09432.0471h.09433c.14149 0 .28298.0471.42446.0942h.14149c.09433 0 .23582 0 .33014-.0471l.09433-.0471h.04716.04717c.33014.0471.66028.0471.99041.0942h.1887.5187.0944.0471l.1887-.0471h.2358v-.0471h.0943l.3302-.0471h.8017l.0944-.0942-.0944-.0942-.0471-.0471h-1.5092-3.58441l-.14149.0471h.14149zm1.32055-1.2717h-1.08474l-.04716.4239h1.1319zm-.56595-.3769h-.47163l-.04716.3298h.51879zm3.53721.3298h.566l-.0472-.3298h-.4716v.3298zm-2.4053.5181h-1.74503l-.09432.6123h1.83935zm3.0184 1.6014.1887-.1413-.0472-.0471v.0471h-.0472-.0943l-.0471.0471h.0471zm-3.25421-4.3804h.89611v-.2355h-.89611zm.94321 1.5072c.3302 0 .5188.1413.6603.3297h.3302v-.4239h-.9905zm.4245-.5652h-.99041v.4239h.99041zm1.0848 0h-.9905v.4239h.9905zm-1.4621-.0471h.8961v-.3297h-.8961zm.4245-.3768h.9432v-.4239h-.9432zm-.4717-.5181h.849v-.2355h-.849zm-2.68824 3.9094.09433-.1413h.09432l-.09432.1884-.28298.2355.18865.3297h.18865l.28298-.2826h.04716v-.0471h.04716l.23582-.1884v-.1413h.04716v.0471l.09433.1413.09432.1413v.0471l.04716.0471v.0471l.09433.0942.09433.0471h.18865.04716.04716.09433l.09433-.1884.09432-.0471v-.0942l.14149-.2355v-.1413h-.09433l-.09432.0471h-.09433-.04716c-.14149.0471-.28298.0942-.3773.0942h-.18866c-.09432-.0942-.23581-.0942-.3773-.0942h-.09432l-.14149-.0471c-.14149 0-.23582-.0471-.3773-.0942h-.04717l-.04716-.0471h-.09433v.0471c-.09432.0471-.18865.1413-.3773.3297-.09432.0942-.28298.3297-.33014.3768l.04716.0942h.04717c.18865 0 .28297-.1884.42446-.2826zm5.61234-.0471-.1414-.1884.0471.0942-.1415.0471h-.3301v.0471.0471h.0471v.0471l.0472.1413.1415.0942v.0471h.1415.0472l.0471.0471.0943.1884.0472.0471c.1415 0 .283-.0471.3301-.0942-.0471-.0942-.3301-.471-.3773-.5652zm-.8489-5.2283h-.3773v.424h-.3773v-.424h-.5188v.424h-.4716v-.4711h-.80179v.4711h-.47162v-.424h-.56596v.424h-.3773v-.424h-.28298v.7066h4.19745zm-1.2262 3.8153c0-.1413-.1415-.8479-.8961-.8479-.75463 0-.84895.7066-.84895.8479h.18865c0-.1413 0-.2827.09432-.3769.09433-.1413.23582-.2826.56598-.2826.6131 0 .7074.5653.7074.7066zm.3301.2826h1.1791l-.0472-.4239h-1.1319zm-.5188.6594h.283 1.5564l-.1415-.6123h-1.6979zm-.7074-1.5544c-.56597 0-.56598.3768-.56598.6595v.8949h1.22628v-.8949c-.0472-.1413-.0944-.6595-.6603-.6595zm-.6603.7066h-.28298v-.0471-.1413h-.23581v.3768h.51879zm2.3581-.6124h-.8961l.1415.3298h.7546zm-2.16945-1.413h.89605v-.4239h-.89605zm1.17905 2.2138h.4717v-.4239h-.2359l.0472.1413v.0471l-.283.0471zm-2.40528-.471h.7546l.14149-.3298h-.94326v.3298zm1.17907-2.1667h-.94326v.4239h.94326zm.51881.471h-.99044v.3297h.99044zm-.56598.3768h-1.03758v.4239h.99042zm-.18865.9891c.14149-.1884.37731-.3768.75463-.3768v-.1413h-1.08477v.4239h.37731z"/></g></svg>