<svg fill="none" height="26" viewBox="0 0 129 26" width="129" xmlns="http://www.w3.org/2000/svg" xmlns:xlink="http://www.w3.org/1999/xlink"><clipPath id="a"><path d="m0 0h129v26h-129z"/></clipPath><g clip-path="url(#a)" clip-rule="evenodd" fill="#001b3c" fill-rule="evenodd"><path d="m16.251 22.7668h.1181v.3074zm3.2097 0h-.1181v.3074zm-.1181 1.0062c0 .0126 0 .0379.0085.0716.021.0757.1012.1641.1813.1684h14.3277v-2.6186c-.0042-.0547-.0295-.1094-.0632-.1515-.0422-.0337-.0886-.059-.1392-.0632h-13.868v1.5871zm-2.9819-4.0878c-.0928.0211-.1687.1095-.1687.2063v2.6059h3.332v-2.5975s0-.0252-.0085-.0547c-.0253-.101-.1012-.16-.2066-.1642h-2.9187c-.0084 0-.0169 0-.0295.0042zm-14.31509 5.6075-.41334-1.0187h-.04218v-1.6082h-1.320154v2.8164h1.564784s.02109 0 .05062-.0084c.08435-.0211.15183-.0926.16027-.1811zm-.12653-1.0187.12653.3115v-.3115zm31.87782.0042h-.1266v.3115zm.3332-1.6082v1.6082l-.4598 1.0145c.0296.1221.1139.1895.2109.1937h1.5648v-2.8164zm-15.0574.3452h-2.1426v1.082s-.0043.0463-.0169.101c-.0506.1852-.1982.3115-.3923.3241l-13.91855.0043v1.0566c.00422.2231-.19401.421-.41334.4168h-1.767235v-.2484h-.421775v-3.351h1.58588v-.9935c.00421-.1474.05904-.2653.13918-.3579.08436-.0758.19402-.1305.30368-.1389h.02952 13.85954v-1.0146c-.0042-.2189.1603-.421.3754-.4715.0337-.0084.0632-.0126.0801-.0126h.0338 2.8933.0296c.2277.0126.4091.181.447.3999.1772.0548.2953.2189.2995.4042v.6988h13.5727.0296c.1138.0084.2193.0674.3036.1389.0633.0758.1139.1642.1308.261.0548.0169.1181.0464.1771.1011.0675.08.1181.181.1224.2862v.7031h1.2948v.3831h.291v3.2163h-1.763s-.0422 0-.1012-.0168c-.1392-.0379-.232-.1221-.2826-.2358-.0211 0-.0548-.0042-.0928-.0168-.2025-.0547-.3796-.2568-.3627-.4715v-.741h-13.4884c-.1771-.0084-.3037-.1136-.3669-.2483-.27-.0169-.4682-.2526-.4682-.4926zm-2.7036.7831-.4471-1.0315v-1.5913h-13.86374c-.05061.0042-.10122.0295-.13918.0632-.03374.0421-.06327.0968-.06327.1515v2.6185h14.29819c.1223-.0168.1982-.0884.2151-.2104zm11.6494-9.8679c.0507-.0169.1013-.0169.1519-.0127l-.038-.0252s-.0632-.0463-.1096-.0716c-.0422-.0252-.0802-.0505-.1308-.0631l-.0337-.0042.0084.0926c.0042.0589.0211.1347.097.1094zm.2995.0758c.2404.1641.5778.3241.8731.2694.059-.0126.1349-.0505.2193-.1011-.232.1348-.5061.1221-.8815-.0547-.0802-.0379-.1519-.0758-.2109-.1136zm1.2189.0757c.173-.1347.3374-.3115.3881-.4378.0084-.021.0126-.0379.0126-.0379.0633-.2652.0338-.5936-.1729-.6946-.3248-.16-.7002-.1263-1.0502-.1347-.6496-.0127-1.0081.1642-1.6576.1684-.4513 0-.7002-.0674-1.1515-.0716-.2362-.0042-.3669.0211-.5989.0084-.2488-.0126-.388-.0715-.6369-.0715-.2151 0-.4808.0547-.5525.0547-.1096 0-.1392-.08-.2488-.0379-.0802.0337-.1519.0421-.232 0l-.0338-.0211-.0463-.0336c-.0464-.0295-.0886-.0169-.1224-.0042l-.0548.021c-.0211.0084-.0464.0168-.0759.0168l.1898.0842c-.2109.139-.2446.1179-.3163.3368-.0549.1726-.2025.2021-.2531.3831-.0295.1053-.0591.2147-.1392.2947l-.0337.0295c-.0886.0842.0632.2063.1645.1852.0464-.0084.097-.021.1391-.0379l.038-.0168c.1139-.0505.2446-.0168.3416.0505l.038.0253c.2109.0968.3796-.1979.814.1642.135.1136.2657.2946.2995.4715l.0126.0673c.0464.0421.076.0674.097.0926.1519.1305.0802.2021.2615.3073.135.08.4092.2232.4092.2232-.0675.4504.0759.2778.0801.543 0 .059-.0126.1053-.0253.1432l-.0169.0505c-.0211.0716-.0253.1473-.0337.2231-.0759.0758-.1519.1516-.1982.2484.1307.021.1771.0126.2783-.0674l-.0548-.1894c.0633-.0421.1561-.0842.1307-.1726l-.0168-.0632c-.0717-.2989.1856-.7956.3121-1.0482.0886.2821.156.4968.3458.7367l.0296.4168-.0844-.0421.0717.101-.0675.0295c-.0084.0295-.0253.0674-.0421.1052.0632.0295.194.0506.2488 0l-.0253-.0842s.0253-.0421.0295-.0505c.0042-.0126.0085-.0252.0127-.0379-.0127-.0463-.0211-.0673-.0296-.0926l-.0379-.0884c-.0633-.16-.0591-.3284-.0802-.4967-.021-.16-.0759-.501-.0759-.501s.4302-.0379.6453-.0463c.2067-.0084.8056.0042.8056.0042l-.1434.0968c.1477-.0379.3712-.1979.5652-.261.2193-.0716.4555-.0968.6833-.1221.0126.1979.0126.3494.1392.5136.2488.3242.1518.7325.0253 1.0904.0211-.0042.0886-.0085.1096-.0127.038-.2947.1308-.5346.2194-.7872.0084-.0295-.0506-.4589-.0506-.4841l.1687-.0506s.0548.1221.1096.2863c.1603.4547.1603.6357.1223 1.0862l.0464.0505.076-.0127.0295-.0084-.0211-.0631c-.0591-.1768-.0506-.3873-.0464-.5768.0295-.2736.0717-.4252-.0591-.6567-.1813-.32-.1012-.6652.0633-.9641-.1307.0969-.2657.1684-.3669.1895-.3712.0715-.7972-.1389-1.084-.3579h-.038c-.0084 0-.021.0043-.0337.0043l-.0422.0168c-.1856.0631-.291-.0758-.3079-.2442-.0084-.0842.0085-.0842-.0464-.1221l-.1855-.1263s.2615-.0252.3078-.0252c.1898 0 .2953.0715.4429.1768.0169.0126.6285.4547.987.3242.2699-.0969.3964-.3074.5272-.5305l.0253-.0421c0 .0042.0169.0211.0042.0421l.1519-.0505c.0042.0084.0084.0421-.0127.0842l-.0253.0463c-.135.2273-.2489.3789-.3712.4841zm.3543 2.7406.0253.0884s-.0337.0548-.0632.0842c-.1097.1179-.2236.139-.3754.1263-.1097-.021-.2278-.1178-.3206-.181l.038-.0084c-.038-.0168-.0717-.0421-.1055-.0632-.1434.0927-.447-.0126-.5651-.0589l.0632-.08c-.1054-.0252-.2024-.0589-.2615-.0842 0 0 .076-.1178.1013-.1515.0632-.0842.1307-.1516.2319-.1895l.0338-.0715c.0801-.2568.1265-.5515-.0506-.7789-.0717-.0926-.1055-.1599-.1308-.2483-.3585.0589-.4555.1178-.8224.2989-.0971.0505-.2152.0673-.3206.0336l-.0295-.0126c-.0338-.0168-.0633-.0463-.0633-.0884-.2826-.0042-.5609.0084-.8393.0337.0126.0842.0379.2315.0506.3368.0211.1515.0169.3115.0717.4588l.0337.0842c.0422.1011.0633.1558.0169.261l.0127.0464c.0253.1683-.1814.2062-.3037.2062-.1012 0-.2067-.0673-.2868-.122l.0253-.0548c-.0295-.0084-.0591-.0168-.0802-.0252-.0464-.0211-.1307-.08-.1307-.08s.0169-.08.0295-.1137c.0211-.0631.0548-.1305.097-.1852v-.3326l-.0379-.0505-.0338-.0463c-.0632.1642-.1181.3578-.0885.4841l.0168.0589c.0295.1179-.0042.1895-.0928.2653l.0422.181s-.0548.0547-.0928.0842c-.1771.1389-.3374.1137-.5441.0547 0 0-.0042-.0589-.0042-.0716.0042-.0126.0084-.0252.0127-.0421-.0675-.0084-.1434-.0294-.2194-.0547 0 0 .0211-.1136.0422-.16.0422-.1052.1012-.1852.1772-.2694l.0295-.0295c.0084-.0673.0126-.1347.0337-.1978.0886-.2526-.0928-.2316-.0632-.5599-.1519-.1095-.4218-.2231-.5019-.3873-.0296-.0632-.0633-.0842-.1013-.139l-.0211-.0294c-.0885-.0632-.1012-.0421-.1223-.1642l-.0084-.0632c-.0169-.0799-.0633-.1726-.1308-.2568-.2952-.2273-.447.0253-.7001-.0926-.0127-.0042-.0253-.0126-.038-.021-.0801-.059-.156-.08-.2151-.0548l-.0379.0169c-.1687.0716-.4049.0884-.5062-.1095-.0801-.0336-.1476-.08-.1898-.1684-.0548-.1094-.0464-.2357.0422-.3241l.0338-.0295c.1054-.1052.0548-.3031.2572-.4841.1477-.1347.0717-.2231.2109-.3621-.1518-.08-.2741-.1852-.388-.3199l.1139-.1347s.0717.0421.1645.08c.0759.0336.2193.0884.3079.0589l.0506-.0211c.0843-.0294.1729-.0378.253.0043l.0338.021.0422.0337c.0843.0463.1518-.0842.3585.0084.0168.0084.0337.0168.0548.0168.0717 0 .3374-.0547.5525-.0547.2531 0 .3923.059.6453.0716.232.0084.3628-.0126.5947-.0084.4471.0042.7002.0757 1.1473.0715.6495-.0042 1.008-.181 1.6618-.1684.4471.0085 1.1514-.0505 1.3623.4.1308.0926.2025.202.2067.4504.0084.2274-.0296.5894-.2067.7704-.232.3116-.4555.7199-.2488 1.0904.1518.2694.1096.4336.0801.7409 0 0-.0042.2863.0253.4673.0042.0168.0084.0337.0127.0547l.021.059c.038.1052.0296.1642-.0759.202zm-.5652-.5767c-.0337.101-.0632.2021-.0632.2905l.0548-.0211c-.0084-.0421 0-.1515.0084-.2694zm.2194.3536c-.0633.0295-.173.0842-.2109.1053-.0338.021-.0591.0421-.0802.0631.0253.0084.0507.0211.0717.0253.1055.0084.173 0 .2489-.0884zm-.7339-.1515s-.0675.0126-.0886.021c-.0464.0169-.0844.0463-.1139.0842.2151.0505.2489.0674.2025-.1052zm-.793-7.99453c.0507-.01684.1013-.01684.1519-.01263l-.038-.02526s-.0632-.04631-.1096-.07157c-.0422-.02526-.0802-.05052-.1308-.06315l-.0337-.0042.0084.09261c.0042.05894.0211.13472.097.10946zm.2995.07999c.2404.16418.5778.32836.8731.26942.059-.01262.1349-.05051.2193-.10103-.232.13471-.5061.12209-.8815-.05473-.0802-.0421-.1519-.07999-.2109-.11366zm1.2189.07577c.173-.13471.3374-.31153.3881-.43782.0084-.02105.0126-.03789.0126-.03789.0633-.26522.0338-.59359-.1729-.69462-.3248-.15998-.7002-.1263-1.0502-.13472-.6496-.01263-1.0081.16418-1.6576.16839-.4513 0-.7002-.06735-1.1515-.07156-.2362-.00421-.3669.02105-.5989.00842-.2488-.01263-.388-.07157-.6369-.07157-.2151 0-.4808.05473-.5525.05473-.1096 0-.1392-.07999-.2488-.03789-.0802.03368-.1519.0421-.232 0l-.0338-.02105-.0463-.03368c-.0464-.02947-.0886-.01684-.1224-.00421l-.0548.02105c-.0211.00842-.0464.01684-.0759.01684l.1898.0842c-.2109.13892-.2446.11787-.3163.33678-.0549.1684-.2025.20208-.2531.3831-.0295.10525-.0591.2147-.1392.29469l-.0337.02947c-.0886.0842.0632.20628.1645.18523.0464-.00842.097-.02105.1391-.03789l.038-.01684c.1139-.05052.2446-.01684.3416.05052l.038.02526c.2109.09683.3796-.19786.814.16418.135.11367.2657.29469.2995.47151l.0126.06735c.0464.0421.076.06736.097.09262.1519.13051.0802.20207.2615.30732.135.07999.4092.22312.4092.22312-.0675.45043.0759.27783.0801.54303 0 .059-.0126.1053-.0253.1432l-.0169.0505c-.0211.0716-.0253.1473-.0337.2231-.0759.0758-.1519.1516-.1982.2484.1307.021.1771.0126.2783-.0674l-.0548-.1894c.0633-.0421.1561-.0842.1307-.1726l-.0168-.0632c-.0717-.2989.1856-.79562.3121-1.04821.0886.28206.156.49681.3458.73671l.0296.4168-.0844-.0421.0717.101-.0675.0295c-.0084.0295-.0253.0674-.0421.1052.0632.0295.194.0506.2488 0l-.0422-.0631s.0253-.0421.0295-.0505c.0043-.0127.0085-.0253.0127-.0379-.0127-.0463-.0211-.0674-.0295-.0926l-.038-.0884c-.0632-.16-.059-.3284-.0801-.4968-.0211-.16-.0759-.50097-.0759-.50097s.4302-.03789.6453-.04631c.2066-.00842.8056.00421.8056.00421l-.1434.09683c.1476-.03789.3711-.19786.5651-.26101.2194-.07157.4556-.09683.6833-.12208.0127.19786.0127.35362.1392.5136.2489.32413.1518.73253.0253 1.08613.0211 0 .0886-.0084.1097-.0126.0379-.2947.1307-.5347.2193-.7873.0084-.0294-.0506-.45884-.0506-.4841l.1687-.0463s.0548.12208.1097.28626c.1602.45464.1602.63574.1223 1.08614l.0464.0505.0759-.0126.0295-.0084-.0211-.059c-.059-.1768-.0506-.3873-.0464-.5767.0295-.2737.0717-.42521-.059-.65675-.1814-.31995-.1013-.66515.0632-.96405-.1307.09682-.2657.16839-.3669.18944-.3712.07157-.7972-.13892-1.084-.35784h-.0379c-.0085 0-.0211.00421-.0338.00421l-.0421.01684c-.1856.06315-.2911-.07578-.3079-.24417-.0085-.0842.0084-.0842-.0464-.12208l-.1856-.1263s.2615-.02526.3079-.02526c.1898 0 .2952.07157.4428.17682.0169.01262.6285.45466.987.32415.2699-.09682.3965-.30732.5272-.53044l.0253-.0421c0 .00421.0169.02105.0042.0421l.1519-.05052c.0042.00842.0084.0421-.0127.0842l-.0253.04631c-.1181.19786-.232.34942-.3543.45887zm.3543 2.74057.0253.0884s-.0337.0506-.0632.0842c-.1097.1179-.2236.139-.3754.1263-.1097-.021-.2278-.1178-.3206-.1852l.038-.0084c-.038-.0169-.0717-.0421-.1055-.0632-.1434.0927-.447-.0126-.5651-.0589l.0632-.08c-.1054-.0252-.2024-.0589-.2615-.0842 0 0 .076-.1179.1013-.1515.0632-.0842.1307-.1516.2319-.1895l.0338-.0715c.0801-.2568.1265-.5515-.0506-.77887-.0717-.09261-.1055-.15997-.1308-.24838-.3585.05894-.4555.11788-.8224.29895-.0971.0505-.2152.0673-.3206.0336l-.0295-.0126c-.0338-.0168-.0633-.0463-.0633-.08841-.2826-.00421-.5609.00842-.8393.03368.0126.08423.0379.23153.0506.33683.0211.1515.0169.3115.0717.4588l.0337.0842c.0422.1011.0633.1558.0169.261l.0127.0463c.0253.1684-.1814.2063-.3037.2063-.1012 0-.2067-.0673-.2868-.1221l.0253-.0547c-.0295-.0084-.0591-.0168-.0802-.0295-.0464-.021-.1307-.0799-.1307-.0799s.0169-.08.0295-.1137c.0211-.0632.0548-.1305.097-.1852v-.3326l-.0379-.0505-.0338-.0463c-.0632.1641-.1181.3578-.0885.4841l.0168.0589c.0295.1179-.0042.1895-.0928.2652l.0422.1811s-.0548.0547-.0928.0842c-.1771.1389-.3374.1136-.5441.0547 0 0-.0042-.0589-.0042-.0716.0042-.0126.0084-.0252.0127-.0421-.0675-.0084-.1434-.0294-.2194-.0547 0 0 .0211-.1137.0422-.16.0422-.1052.1012-.1852.1772-.2694l.0295-.0295c.0084-.0673.0126-.1347.0337-.1978.0886-.2526-.0928-.2316-.0632-.5599-.1519-.1095-.4218-.22316-.5019-.38735-.0296-.06315-.0633-.0842-.1013-.13892l-.0211-.02947c-.0885-.06315-.1012-.0421-.1223-.16419l-.0084-.06314c-.0169-.07999-.0633-.17261-.1308-.2568-.2952-.22734-.447.02525-.7001-.09262-.0127-.00421-.0253-.01263-.038-.02105-.0801-.05894-.156-.07999-.2151-.05473l-.0379.01684c-.1687.07157-.4049.08841-.5062-.10945-.0801-.03368-.1476-.07999-.1898-.1684-.0548-.10945-.0464-.23575.0422-.32416l.0338-.02947c.1054-.10524.0548-.30311.2572-.48413.1477-.13471.0717-.22312.2109-.36204-.1518-.07999-.2741-.18524-.388-.31995l.1139-.13472s.0717.0421.1645.07999c.0759.03368.2193.08841.3079.05894l.0506-.02105c.0843-.02947.1729-.03789.253.00421l.0338.0421.0422.03367c.0843.04631.1518-.08419.3585.00842.0168.00842.0337.01684.0548.01684.0717 0 .3374-.05472.5525-.05472.2531 0 .3923.05893.6453.07156.232.00842.3628-.01263.5947-.00842.4471.00421.7002.07578 1.1473.07157.6495-.00421 1.008-.18102 1.6618-.16839.4471.00842 1.1514-.05052 1.3623.39993.1308.09262.2025.20208.2067.45046.0084.22733-.0296.58937-.2067.7704-.232.31153-.4555.71988-.2488 1.09035.1518.26939.1096.43359.0801.74089 0 0-.0042.2863.0253.4673.0042.0169.0084.0337.0127.0548l.021.0589c.038.0926.0296.1473-.0759.1894zm-.5652-.5809c-.0337.101-.0632.2021-.0632.2905l.0548-.0211c-.0084-.0421 0-.1515.0084-.2694zm.2194.3536c-.0633.0295-.173.0842-.2109.1053-.0338.021-.0591.0421-.0802.0631.0253.0084.0507.0211.0717.0253.1055.0084.173 0 .2489-.0884zm-.7339-.1473s-.0675.0126-.0886.021c-.0464.0169-.0844.0463-.1139.0842.2151.0463.2489.0632.2025-.1052zm-2.0035-9.92685.2868.41678.8394-.15577-.0464.24838.1982-.03789-.1476.77041.561.38309-.0633.0421.2067.13892-.7128.48835.156.84618-.8477-.15577-.4893.70726-.1392-.20208-.038.05894-.3796-.5557-.7802.14314.0464-.20208-.2489.04631.1561-.83776-.4218-.28627-.2995-.23575.7255-.49676-.1603-.86302.8647.15998.4976-.724097.2152.315737zm-.2277 1.41872c-.1223 0-.2193.10104-.2193.22312 0 .12209.1012.21891.2193.21891.1223 0 .2193-.10103.2193-.21891 0-.12629-.097-.22312-.2193-.22312zm.2699-.00842.7466-.31153.1138-.61885-.62.11367-.3036.75777c.0253.02105.0463.03789.0632.05894zm.0844.2568.7339.31153.5187-.35784-.523-.35363-.7381.30732c.0043.02105.0085.04631.0085.06736zm-.135.24838.2952.7283.6201.11367-.1139-.61885-.7213-.30732c-.0253.03368-.0506.06315-.0801.0842zm-.2741.07578-.3079.72409.3542.51781.3586-.51781-.2911-.72409c-.0168.00421-.0379.00421-.059.00421s-.038-.00421-.0548-.00421zm-.2405-.15156-.7423.30311-.1139.61885.62-.11367.3079-.7283c-.0253-.02526-.0506-.05052-.0717-.07999zm-.0548-.26101-.755-.31153-.5188.35784.5188.35784.7466-.30732v-.03368c0-.02105.0042-.0421.0084-.06315zm.135-.22312-.3164-.75777-.62-.11367.1139.61885.7592.31574c.0211-.02526.0422-.04631.0633-.06315zm-.1519-.82513.3164.75777c.0168 0 .0337-.00421.0464-.00421.0168 0 .0295 0 .0464.00421l.3036-.75777-.3543-.51781zm5.2385-.53044.2868.41678.8393-.15577-.0464.24838.1983-.03789-.1477.77041.561.38309-.0633.0421.2067.13892-.7128.48835.1603.84618-.8478-.15577-.4892.70726-.1392-.20208-.0464.05894-.3796-.5557-.7803.14314.0464-.20208-.2489.04631.1561-.83776-.4218-.28627-.2994-.23575.7254-.49676-.1603-.86302.8647.15998.4977-.724097.2151.315737zm-.232 1.41872c-.1223 0-.2193.10104-.2193.22312 0 .12209.097.21891.2193.21891s.2193-.10103.2193-.21891c.0043-.12629-.097-.22312-.2193-.22312zm.2742-.00842.7465-.31153.1139-.61885-.62.11367-.3037.75777c.0253.02105.0422.03789.0633.05894zm.0801.2568.7339.31153.5188-.35784-.5188-.35363-.7381.30732c.0042.02105.0084.04631.0084.06736zm-.1307.24838.2952.7283.62.11367-.1139-.61885-.7212-.30732c-.0295.03368-.0548.06315-.0801.0842zm-.2784.07578-.3079.72409.3543.51781.3585-.51781-.291-.72409c-.0169.00421-.038.00421-.0591.00421-.0169 0-.0379-.00421-.0548-.00421zm-.2362-.15156-.7423.30311-.1139.61885.62-.11367.3079-.7283c-.0253-.02526-.0506-.05052-.0717-.07999zm-.0591-.26101-.7507-.31153-.5188.35784.5188.35784.7465-.30732v-.03368c0-.02105.0042-.0421.0042-.06315zm.1392-.22312-.3163-.75777-.62-.11367.1139.61885.7592.31574c.0168-.02526.0379-.04631.0632-.06315zm-.1518-.82513.3163.75777c.0169 0 .0295-.00421.0464-.00421s.0295 0 .0464.00421l.3037-.75777-.3585-.51781zm-8.6928-.53044.2868.41678.8393-.15577-.0421.24838.1982-.03789-.1476.77041.5609.38309-.0632.0421.2066.13892-.7128.48835.1561.84618-.8478-.15577-.4892.70726-.1392-.20208-.0422.05894-.3796-.5557-.7803.14314.0464-.20208-.2488.04631.156-.83776-.4218-.28627-.2994-.23575.7254-.49676-.1602-.86302.8646.15998.4977-.724097.2151.315737zm-.2278 1.41872c-.1223 0-.2193.10104-.2193.22312 0 .12209.097.21891.2193.21891.1224 0 .2236-.10103.2236-.21891-.0042-.12629-.1012-.22312-.2236-.22312zm.27-.00842.7465-.31153.1139-.61885-.62.11367-.3037.75777c.0253.02105.0464.03789.0633.05894zm.0843.2568.7339.31153.5188-.35784-.523-.35363-.7381.30732c.0042.02105.0084.04631.0084.06736zm-.1349.24838.2952.7283.62.11367-.1139-.61885-.7212-.30732c-.0253.03368-.0506.06315-.0801.0842zm-.2742.07578-.3079.72409.3543.51781.3585-.51781-.291-.72409c-.0169.00421-.038.00421-.0591.00421s-.0379-.00421-.0548-.00421zm-.2404-.15156-.7423.30311-.1139.61885.62-.11367.3079-.7283c-.0253-.02526-.0506-.05052-.0717-.07999zm-.0548-.26101-.7508-.31153-.5188.35784.5188.35784.7465-.30732v-.03368c0-.02105 0-.0421.0043-.06315zm.1349-.22312-.3163-.75777-.62-.11367.1139.61885.7592.31574c.0211-.02526.0421-.04631.0632-.06315zm-.1476-.82513.3163.75777c.0169 0 .0296-.00421.0464-.00421.0169 0 .0296 0 .0464.00421l.3037-.75777-.3585-.51781zm-13.80892 11.97701c.05062.0968.03375.1937-.03796.2736l.03796.3663-.22354.0337-.1898.0042-.2151-.0042-.16028-.0084-.22354-.0295.02531-.1221-.22354-.0295.06327-.3704c-.05484-.059-.07171-.1263-.05484-.2063l.00844-.0379c-.05905-.0968-.10966-.1852-.10966-.2863 0-.0631.02109-.1052.03796-.1347-.05483-.3831-.14762-1.1409-.14762-1.1409l.2151.0464.15606-.1095.1181.0589.12653-.0715.13497.0631.13075-.0631.13497.08.13075-.0548.15605.1053.22354-.0505-.04217.2399.1898-.0421-.18559 1.0819.01266.0337c.04218.1179.00843.2189-.05905.32zm-1.02913-.0842c-.00843.0379-.01687.0589.00844.0884h.69171c.02531-.0295.03374-.0505.02109-.0884l-.72124-.0042zm.66219.261h-.61579l-.02953.1642.05483.0084.15184.0084h.21089l.17715-.0042.06748-.0084zm-.68749-.442h.75919l.02531-.0379c.06748-.101.0717-.1474.01687-.2484l.15606-.9135-.0464.0084-.13918-.0968-.12232.0505-.12653-.0758-.13075.0674-.13075-.0632-.12654.0716-.10966-.0547-.13497.0926-.05061-.0127c.02531.2021.08014.6147.12653.8841.01687.0926-.04217.1137-.04217.1684 0 .0716.03374.1221.07592.16zm1.9486-2.6985c.05061.0968.03374.1936-.03796.2736l.03374.3663-.21932.0336-.1898.0043h-.21511l-.16027-.0085-.22354-.0294.0253-.1221-.22354-.0295.06327-.3705c-.05483-.0589-.0717-.1262-.05483-.2062l.00843-.0379c-.05904-.0969-.10966-.1895-.10966-.2863 0-.0631.02109-.1052.03796-.1347-.05483-.38311-.14762-1.14088-.14762-1.14088l.21511.04631.15605-.10946.1181.05894.12653-.07157.13497.06315.13497-.07157.13919.07999.13075-.05473.15605.10525.22354-.05052-.04217.23996.18979-.04209-.18136 1.08192.01265.0337c.04218.1179.00844.2189-.05904.3199zm-1.02913-.08c-.00844.0379-.01687.0589.00843.0842h.69171c.02531-.0295.03374-.0505.02109-.0884l-.72123-.0042zm.66218.261h-.61579l-.02952.1642.05905.0084.15183.0084h.21089l.17715-.0084.06748-.0084zm-.68749-.442h.7592l.02952-.0379c.06327-.1011.0717-.1474.01687-.2484l.15606-.91355-.0464.00842-.13918-.09682-.12232.05051-.12653-.07577-.13075.06735-.13075-.06314-.12653.07578-.10967-.05473-.13496.09261-.05062-.00842c.02531.20208.08014.61464.12654.87986.01687.0926-.04218.1137-.04218.1684-.00844.0674.02952.1179.0717.1558zm-.72967.261c.05061.0968.03374.1936-.03796.2736l.03796.3663-.22354.0336-.1898.0043h-.21511l-.16027-.0085-.22354-.0294.0253-.1221-.22354-.0295.06327-.3705c-.05483-.0589-.0717-.1262-.05483-.2062l.00843-.0379c-.05904-.0969-.10966-.1895-.10966-.2863 0-.0631.02109-.1052.03796-.1347-.05483-.38311-.14762-1.14088-.14762-1.14088l.21511.04631.15605-.10946.1181.05894.12653-.07157.13497.06315.13497-.07157.13919.07999.13075-.05473.15605.10525.22354-.05052-.04217.23996.1898-.04209-.18559 1.08192.01266.0337c.04217.1179.00843.2189-.05905.3199zm-1.02913-.08c-.00844.0379-.01687.0589.00843.0842h.69171c.02531-.0295.03375-.0505.02109-.0884l-.72123-.0042zm.66218.261h-.61579l-.02952.1642.05905.0084.15184.0084h.21088l.17715-.0084.06748-.0084zm-.68749-.442h.75498l.0253-.0379c.06749-.1011.07171-.1474.01688-.2484l.15605-.91355-.04639.00842-.13919-.09682-.12231.05051-.12654-.07577-.13075.06735-.13075-.06314-.12653.07578-.10966-.05473-.13497.09261-.05061-.00842c.0253.20208.08014.61464.12653.87986.01687.0926-.04218.1137-.04218.1684 0 .0674.03796.1179.08014.1558zm6.4996 5.7969.1096.0042.1223.5052.1013.1095s.0126.0126.0337.0379c.0253.0336.0464.0631.0633.0926l.0632.0673s.0127.0127.0296.0379c.1898.2442.1307.4168-.0886.5978-.0422.3663-.2151.4673-.5778.4252-.0971.0926-.2362.2063-.3754.2063s-.2784-.1095-.3712-.2021c-.2235.0505-.4175.0505-.5188-.1557-.156-.0421-.2362-.1769-.2657-.421l-.0548-.0337c-.2489-.1768-.1729-.4547.0126-.6525l.2404-.261.135-.5515.3627-.0169c.2025-.1642.3375-.1726.5568-.0042l.3838.0253zm-.5399-.0842c-.0253-.021-.0464-.0337-.0675-.0463-.059-.0337-.1012-.0463-.1476-.0252l-.1645.1136c-.0464.0379-.0506.1053-.0844.1347-.0168.0169-.1602-.0294-.1307-.1221l-.0675.0043-.1139.463-.2699.2989c-.1181.1263-.1983.2779-.0295.3958l.253-.3705.1476.101-.2825.4168c.0337.2779.1054.3284.3753.2652l.1013-.6314.1771.0294-.1054.6525c.0548.0506.1687.1516.2572.1516.0844 0 .1983-.0968.2573-.1516l-.1392-.6651.173-.0379.1349.6525c.2615.0211.3332-.021.3712-.282l-.3037-.4042.1434-.1052.27.3578c.1307-.1221.1265-.2231-.0043-.362l-.2783-.3031-.1139-.4673-.0801-.0042-.1561.0884c-.0211-.0506-.0337-.08-.0801-.1095zm-4.40757.0842.10967.0042.12231.5052.10123.1095s.01265.0126.03374.0379c.0253.0336.04639.0631.06326.0926l.06327.0673s.01265.0127.02952.0379c.19402.2442.13076.4168-.08857.5978-.04218.3663-.2151.4673-.57361.4252-.09701.0926-.2362.2063-.37538.2063-.13919 0-.27837-.1095-.37116-.2021-.22355.0505-.41756.0505-.51879-.1557-.15606-.0421-.23619-.1769-.26572-.421l-.05483-.0337c-.24884-.1768-.17293-.4547.01266-.6525l.24041-.261.13497-.5515.36272-.0169c.20245-.1642.33742-.1726.55253-.0042l.38381.0253zm-.53987-.0842c-.02531-.021-.04639-.0337-.06748-.0463-.05905-.0337-.10123-.0463-.14762-.0252l-.1645.1136c-.04639.0379-.05061.1053-.08435.1347-.01687.0169-.16028-.0294-.13075-.1221l-.06749.0043-.11388.463-.26993.2989c-.1181.1263-.19824.2779-.02953.3958l.25307-.3705.14762.101-.28259.4168c.03374.2779.10544.3284.3796.2652l.10122-.6314.17715.0294-.10544.6525c.05483.0506.16871.1516.25728.1516.08436 0 .19823-.0968.25307-.1516l-.13919-.6651.17714-.0379.13497.6525c.2615.0211.33742-.021.37117-.282l-.30368-.4042.1434-.1052.26994.3578c.13075-.1221.12653-.2231-.00422-.362l-.27837-.3031-.11388-.4673-.08014-.0042-.15606.0884c-.02109-.0506-.03374-.08-.07592-.1095zm8.71814-2.5343.1096.0084.1223.5052.1013.1094s.0126.0127.0337.0379c.0253.0337.0464.0632.0633.0927l.0632.0673s.0127.0126.0296.0379c.1898.2442.1307.4168-.0886.5978-.0422.3663-.2151.4673-.5778.4252-.0971.0926-.2362.2063-.3754.2063s-.2784-.1095-.3712-.2021c-.2235.0505-.4175.0505-.5188-.1558-.156-.0421-.2362-.1768-.2657-.4209l-.0548-.0337c-.2489-.1768-.1729-.4547.0126-.6526l.2404-.261.135-.5515.3627-.0168c.2025-.1642.3375-.1726.5568-.0042l.3838.0253zm-.5399-.08c-.0253-.021-.0464-.0337-.0675-.0463-.059-.0337-.1012-.0463-.1476-.0253l-.1645.1137c-.0464.0421-.0506.1052-.0844.1347-.0168.0169-.1602-.0295-.1349-.1221l-.0675.0042-.1139.4673-.2699.2989c-.1181.1263-.1983.2779-.0296.3958l.2531-.3705.1476.101-.2826.4168c.0338.2779.1055.3284.3754.2652l.1012-.6315.1772.0295-.1055.6525c.0549.0506.1688.1516.2573.1516.0844 0 .1983-.0968.2531-.1473l-.1392-.6694.1729-.0337.135.6525c.2615.0211.3374-.021.3712-.282l-.3037-.4042.1434-.1052.2699.3578c.1308-.1221.1266-.2231-.0042-.362l-.2784-.3031-.1138-.4673-.0802-.0042-.156.0884c-.0211-.0505-.0338-.08-.0802-.1095zm.5399-3.81411.1096.00842.1223.50519.1013.1094s.0126.0127.0337.0379c.0253.0337.0464.0632.0633.0926l.0632.0674s.0127.0126.0296.0379c.1898.2442.1307.4168-.0886.5978-.0422.3662-.2151.4631-.5778.4252-.0971.0926-.2362.2063-.3754.2063s-.2784-.1137-.3712-.2063c-.2235.0505-.4175.0547-.5188-.1558-.156-.0421-.2362-.1768-.2657-.421l-.0548-.0336c-.2489-.1769-.1729-.4547.0126-.6526l.2404-.26098.135-.55149.3627-.01684c.2025-.16418.3375-.1726.5568-.00421l.3838.02526zm-.5399-.07999c-.0253-.02105-.0464-.03368-.0675-.04631-.059-.03789-.1012-.04631-.1476-.02526l-.1645.11367c-.0464.03789-.0506.10103-.0844.13471-.0168.01684-.1602-.02947-.1349-.12208l-.0675.00421-.1139.46726-.2699.2989c-.1181.1263-.1983.2779-.0296.3958l.2531-.3705.1476.101-.2826.4168c.0338.2778.1055.3284.3754.2652l.1012-.6315.1772.0295-.1055.6525c.0549.0506.1688.1516.2573.1516.0844 0 .1983-.0968.2531-.1474l-.1392-.6651.1729-.0379.135.6525c.2615.0211.3374-.021.3712-.282l-.3037-.4042.1434-.1052.2699.3536c.1308-.1221.1266-.2231-.0042-.362l-.2784-.3074-.1138-.46725-.0802-.00421-.156.0884c-.0211-.05052-.0338-.07577-.0802-.10945zm.5399-3.80991.1096.00421.1223.50518.1013.10946s.0126.01263.0337.03788c.0253.02947.0464.06315.0633.09262l.0632.06736s.0127.01263.0296.03368c.1898.24417.1307.41677-.0886.5978-.0422.36625-.2151.46729-.5778.42519-.0971.09262-.2362.20628-.3754.20628s-.2784-.10945-.3712-.20207c-.2235.05052-.4175.05052-.5188-.15576-.156-.0421-.2362-.17682-.2657-.42099l-.0548-.03368c-.2489-.17681-.1729-.45466.0126-.65252l.2404-.26101.135-.55149.3627-.01684c.2025-.16419.3375-.17261.5568-.00421l.3838.02526zm-.5399-.0842c-.0253-.02105-.0464-.03368-.0675-.04631-.059-.03368-.1012-.0463-.1476-.02526l-.1645.11367c-.0464.03789-.0506.10525-.0844.13472-.0168.01683-.1602-.02947-.1349-.12209l-.0675.00421-.1139.46729-.2699.2989c-.1181.1263-.1983.27785-.0296.39573l.2531-.37047.1476.10104-.2826.41677c.0338.27785.1055.32837.3754.26522l.1012-.63147.1772.02946-.1055.65253c.0549.05052.1688.15155.2573.15155.0844 0 .1983-.09682.2531-.14734l-.1392-.66937.1729-.03367.135.64831c.2615.02105.3374-.02105.3712-.28206l-.3037-.40414.1434-.10525.2699.35784c.1308-.12209.1266-.22312-.0042-.36205l-.2784-.30311-.1138-.46729-.0802-.00421-.156.08841c-.0211-.05052-.0338-.07578-.0802-.10946zm.5399-3.80991.1096.00842.1223.50518.1013.10946s.0126.01263.0337.03789c.0253.03368.0464.06315.0633.09261l.0632.06736s.0127.01263.0296.03789c.1898.24417.1307.41678-.0886.5978-.0422.36626-.2151.46729-.5778.42519-.0971.08841-.2362.20208-.3754.20208s-.2784-.11367-.3712-.20208c-.2235.05052-.4175.05052-.5188-.15576-.156-.0421-.2362-.17681-.2657-.42099l-.0548-.03367c-.2489-.17682-.1729-.45467.0126-.65253l.2404-.26101.135-.55149.3627-.01684c.2025-.16418.3375-.1726.5568-.00421l.3838.02526zm-.5399-.08419c-.0253-.02105-.0464-.03368-.0675-.04631-.059-.03789-.1012-.04631-.1476-.02526l-.1645.11366c-.0464.03789-.0506.10104-.0844.13472-.0168.01684-.1602-.02947-.1349-.12209l-.0675.00421-.1139.4673-.2699.29048c-.1181.12629-.1983.27785-.0296.39572l.2531-.37047.1476.10104-.2826.41678c.0338.27364.1055.32415.3754.26101l.1012-.63148.1772.02947-.1055.65252c.0549.05052.1688.15156.2573.15156.0844 0 .1983-.09683.2531-.14735l-.135-.66515.173-.03789.1349.65253c.2615.02105.3374-.02105.3712-.28206l-.3037-.40415.1434-.10946.2699.35784c.1308-.12208.1266-.22312-.0042-.36204l-.2783-.30311-.1139-.4673-.0802-.00421-.156.08841c-.0211-.05052-.0338-.07578-.0802-.10946zm-10.87338 11.76231.10966.0084.12231.5052.10123.1094s.01265.0127.03374.0379c.02531.0337.0464.0632.06327.0927l.06326.0673s.01266.0126.02953.0379c.19401.2442.13075.4168-.08858.5978-.04217.3663-.2151.4673-.57361.4252-.09701.0926-.23619.2063-.37538.2063s-.27837-.1095-.37116-.2021c-.22354.0505-.41756.0505-.51879-.1558-.15605-.0421-.23619-.1768-.26571-.4209l-.06327-.0421c-.24885-.1769-.17293-.4547.01265-.6526l.24041-.261.13497-.5515.36273-.0168c.20245-.1642.33742-.1726.55253-.0042l.38381.0252zm-.53988-.08c-.0253-.021-.04639-.0337-.06748-.0463-.05905-.0337-.10123-.0463-.14762-.0253l-.16449.1137c-.0464.0421-.05062.1052-.08436.1347-.01687.0169-.16027-.0295-.13075-.1221l-.06748.0042-.11388.4673-.26994.2989c-.1181.1263-.19823.2779-.02952.3958l.25306-.3705.14762.101-.28259.4168c.03375.2779.10545.3284.37538.2652l.10123-.6315.17715.0295-.10545.6525c.05483.0506.16871.1516.25728.1516.08436 0 .19824-.0968.25307-.1473l-.13919-.6694.17715-.0337.13497.6525c.2615.0211.33742-.021.37116-.282l-.30368-.4042.14341-.1052.26993.3578c.13075-.1221.12653-.2231-.00843-.362l-.27838-.3031-.11387-.4673-.08014-.0042-.16028.0673c-.02109-.0505-.03374-.08-.07592-.1094zm.53988-3.81411.10966.00842.12231.50519.10123.1094s.01265.0127.03374.0379c.02531.0337.0464.0632.06327.0926l.06326.0674s.01266.0126.02953.0379c.19401.2442.13075.4168-.08858.5978-.04217.3662-.2151.4631-.57361.4252-.09701.0926-.23619.2063-.37538.2063s-.27837-.1137-.37116-.2063c-.22354.0505-.41756.0547-.51879-.1558-.15605-.0421-.23619-.1768-.26571-.421l-.06327-.0379c-.24885-.1768-.17293-.4546.01265-.6525l.24041-.26099.13497-.55149.36273-.01684c.20245-.16418.33742-.1726.55253-.00421l.38381.02526zm-.53988-.07999c-.0253-.02105-.04639-.03368-.06748-.04631-.05905-.03789-.10123-.04631-.14762-.02526l-.16449.11367c-.0464.03789-.05062.10103-.08436.13471-.01687.01684-.16027-.02947-.13075-.12208l-.06748.00421-.11388.46726-.26994.2989c-.1181.1263-.19823.2779-.02952.3958l.25306-.3705.14762.101-.28259.4168c.03375.2778.10545.3284.37538.2652l.09701-.6441.17715.0295-.10545.6525c.05483.0505.16871.1516.25729.1516.08435 0 .19823-.0969.25306-.1474l-.13918-.6651.17714-.0379.13497.6525c.2615.021.33742-.0211.37116-.2821l-.30368-.4041.14341-.1053.26993.3537c.13075-.1221.12654-.2231-.00843-.3621l-.27837-.3073-.11388-.46728-.08014-.00421-.15606.0884c-.02109-.05051-.03374-.07577-.07592-.10945zm.53988-3.80991.10966.00421.12231.50518.10123.10946s.01265.01263.03374.03788c.02531.02947.0464.06315.06327.09262l.06326.06736s.01266.01263.02953.03368c.19401.24417.13075.41677-.08858.5978-.04217.36625-.2151.46729-.57361.42519-.09701.09262-.23619.20628-.37538.20628s-.27837-.10945-.37116-.20207c-.22354.05052-.41756.05052-.51879-.15576-.15605-.0421-.23619-.17682-.26571-.42099l-.06327-.03789c-.24885-.17681-.17293-.45466.01265-.65252l.24041-.26101.13497-.55149.36273-.01684c.20245-.16419.33742-.17261.55253-.00421l.38381.02526zm-.53988-.0842c-.0253-.02105-.04639-.03368-.06748-.04631-.05905-.03368-.10123-.0463-.14762-.02526l-.16449.11367c-.0464.03789-.05062.10525-.08436.13472-.01687.01683-.16027-.02947-.13075-.12209l-.06748.00421-.11388.46729-.26994.2989c-.1181.1263-.19823.27785-.02952.39573l.25306-.37047.14762.10104-.28259.41677c.03375.27785.10545.32837.37538.26522l.10123-.63147.17715.02946-.10545.65253c.05483.05052.16871.15155.25728.15155.08436 0 .19824-.09682.25307-.14734l-.13919-.66937.17715-.03367.13497.64831c.2615.02105.33742-.02105.37116-.28206l-.30368-.40414.14341-.10525.26993.35784c.13075-.12209.12653-.22312-.00843-.36205l-.27838-.30311-.11387-.46729-.08014-.00421-.16028.07157c-.02109-.05052-.03374-.07578-.07592-.10946zm.53988-3.80991.10966.00842.12231.50518.10123.10946s.01265.01263.03374.03789c.02531.03368.0464.06315.06327.09261l.06326.06736s.01266.01263.02953.03789c.19401.24417.13075.41678-.08858.5978-.04217.36626-.2151.46729-.57361.42519-.10123.08841-.24041.20208-.3796.20208-.13918 0-.27837-.11367-.37116-.20208-.22776.04631-.42177.05052-.523-.15997-.15606-.0421-.2362-.17681-.26572-.42099l-.05483-.03367c-.24463-.17682-.17293-.45888.01265-.65674l.24041-.26101.13497-.55149.36273-.01684c.20245-.16418.33742-.1726.55253-.00421l.38381.02526zm-.53988-.08419c-.0253-.01684-.04639-.03368-.06748-.04631-.05905-.03789-.10123-.0421-.14762-.02526l-.16449.11366c-.0464.03789-.05062.10104-.08436.13472-.01687.01263-.16027-.02947-.13497-.1263l-.06748.00421-.11388.46309-.26994.2989c-.11809.12629-.19823.27785-.02952.39572l.25306-.37047.14763.10104-.28681.41257c.03374.27785.10544.32836.3796.26522l.10122-.63148.17715.02947-.10545.65252c.05483.05052.16871.15156.25729.15156.08435 0 .19823-.09683.25306-.14735l-.13497-.66515.17715-.03789.13497.65253c.2615.02105.33742-.02105.37116-.28206l-.3079-.40415.14341-.10946.26993.35784c.13075-.12208.12654-.22312-.00843-.36204l-.27837-.30311-.11388-.4673-.08014-.00421-.15606.08841c-.02109-.05052-.03796-.07999-.08013-.11367zm30.76006 14.88601c0 .0084-.0422.6736-.6622 1.4356-.426.522-1.24.884-1.9022.964l-2.9651.0042c-.0042 0-.679.0084-1.0291.2063-.3416.1894-.6537.6736-.8435 1.023-.076-.1179-.1645-.2568-.2658-.3915l-.0801.1473c-.2109-.3368-.3754-.5936-.5567-.7914-.3501-.2021-1.1557-.1937-1.1641-.1937l-2.3535-.0042c-.7761.0926-1.6323-.2357-2.1891-.7872-.1898-.1263-.3585-.2737-.5061-.4379-.7761-.8672-.7423-1.4229-.7254-1.5323l-.0085-11.29926v-3.1616c-.1012-.62726-.2741-.972471-.6664-1.246111l-.1223.016839c-.0675.02105-.8435.27364-1.1261.660942-.2489.34521-.2995 1.06509-.2995 1.07351v14.37238c0 .0169-.0042.5305-.7423 1.3977-.4218.4926-1.1726.8714-1.8179.9514l-2.9018.0042c-.0042 0-.6748.0042-1.0376.1853-.3585.181-.70432.6693-.91521 1.0188-.0717-.1221-.16027-.2611-.25728-.4l-.08857.1432c-.17715-.3032-.32899-.5431-.48926-.7326l-.05483-.0294c-.3796-.1979-1.09662-.1853-1.10084-.1853l-2.42099-.0042s-.33742.0127-.79294-.0926c-.44708-.1052-1.01226-.3326-1.46356-.8125-.14762-.1052-.27837-.2189-.39647-.3452-.76341-.8167-.77184-1.4103-.76763-1.5071l.00844-14.47347c-.13919-.892484-.40912-1.220852-1.269544-1.54922l.046395-.26101h4.563609 8.30898l4.648.00420984 17.2885.00420985.0127.05472801.4597.4757123c-.3374.155764-.814.420985-1.0249.71146-.2404.33679-.329 1.01037-.3374 1.06509v3.17002zm-.5567-11.39184h-14.4247l.0042 11.05084s-.0085.0421-.0042.0842c.0126.4378.4049.9598.6664 1.2503.4934.5515 1.1936.842 1.919.842.1266 0 .2067-.0126.2067-.0126l2.3662.0042s.2193 0 .485.0252c.8309.0842 1.1135.3663 1.5775 1.023.5103-.7999.9363-1.0356 1.8853-1.044l2.9524-.0042c1.0798-.1516 1.936-.7789 2.2903-1.8271.0674-.2021.0843-.341.0885-.3747zm-15.3569-4.96762c.6454.383096.8267.80829.9279 1.52396v3.18265h14.429v-3.04793s.0253-.19786.0801-.43362c.1434-.602003.4007-.943.8267-1.21664zm-17.43194-.00842c.62845.370467.80981.82092.90682 1.52396l-.00422 14.49452s0 .0337.00422.0842c.05061.4462.4049.9304.69171 1.2377.50191.5388 1.37499.8756 2.10888.8504l2.42099.0042s.1898-.0042.43443.0168c.80559.0758 1.12192.3536 1.56478 1.0062.55253-.7915.98693-1.023 1.94863-1.023l2.8891-.0042c1.0292-.1516 1.9149-.8757 2.2903-1.8397.0337-.0842.0759-.2147.0801-.3074l.0042-14.38079s.0127-.19786.0591-.43782c.1265-.648321.3332-.93459.8815-1.21665h-3.9858v6.99255.26522 6.62209s-.0126.1389-.0464.3073c-.1265.581-.426.7915-.9658.9809h-6.14953s-.16028-.0463-.32899-.1221c-.56096-.2484-.72967-.5767-.82246-1.1619v-6.62629-.26522-6.99676zm12.02484 0h-1.3581l-2.52647 2.53012-2.53487-2.53012h-1.3539v1.35136l2.14683 2.15965-2.14683 2.13439v1.35136h1.34546l2.54331-2.52169 2.53487 2.52169h1.3497v-1.33873l-2.1595-2.14702 2.1595-2.15123zm-1.6112 0h-4.55518l2.28181 2.27753zm-6.16214 13.87148c.11809.6441.29524.8377.92368 1.0356h2.93556v-7.64089h-3.85924zm4.12918 1.0356h2.85116c.5779-.2189.7297-.4126.793-1.0314v-6.60949h-3.64416zm3.64416-13.08001-1.801 1.7934 1.801 1.78918zm-7.77334 3.56995 1.89799-1.88601-1.89799-1.90706zm3.99421-.56412-2.19745 2.16386h4.37378zm1.02493 5.98638c-.0633-.0252-.1181-.0589-.1561-.1263-.0084-.0126-.0126-.0252-.0168-.0337-.2278-.0841-.29107-.3115-.1561-.5725-.35851-.2484-.39225-.49675-.05483-.79565-.27416-.26101-.12232-.79566.26153-.8546-.0422-.43782.2573-.57254.6369-.50097.2277-.31574.7381-.33679.9447-.01263.2573-.1263.4893-.04631.5441.17681.0127.00421.0295.01263.0422.02105.097.06315.1223.15577.1265.2568.0928.05894.1561.13472.1898.22312.0759.05473.135.12209.1645.21891.0506.18103-.0253.35784-.1307.50098.1476.14734.2615.32416.2277.51778-.0295.1726-.1139.3789-.3079.421.1603.2863.097.6104-.2699.6567-.0464.0043-.0886.0085-.1223.0085.0169.4125-.194.522-.5694.3704-.0169.4168-.0127.8504.0337 1.2672.0169.1768.0717.341.1687.4841.1055.1137.2278.2189.3248.2905l.4808.3536-.0295.059.1898.1431-.059.1179s-.3459-.1011-.5568-.1895c-.1181-.0505-.2404-.1052-.3416-.1852l-.0296-.0253c.0085.0211.0169.0464.0254.0632l.1349.4041-.1096.0674s-.0844-.0842-.173-.181c-.0211.0126-.194-.1684-.2994-.2905-.0253-.0253-.0422-.0589-.0633-.0884-.1223.1263-.3121.3662-.3627.4547-.0591.101-.426.4294-.5357.5304l-.1054-.08.1434-.2736-.1983.1852-.1391-.1095.1771-.3325s.1012-.1642.135-.2274c-.1814.08-.3501.139-.57364.2063l-.05483-.1221.29527-.181c-.13078.0505-.26574.0968-.40493.1389l-.0717-.1599.37963-.2358s.1392-.0758.2994-.1936c.62-.4505.5146-.6652.5863-1.3261.0169-.1474.0253-.3326.0295-.4926-.1729.0379-.3585.0295-.4175-.1558-.1603-.0336-.2489-.1599-.232-.3915zm.2952 3.0522c.1223-.1221.4429-.6399.5863-.6652.194-.0379.2741.2526.3796.3663l-.0127-.0379s-.0084-.0295-.0126-.0632c-.0211-.1894.1223-.2357.2615-.1389.0886.0631.1982.1095.2994.1516-.0168-.0169-.1223-.0927-.2404-.2021-.5314-.4926-.4681-.7367-.5272-1.3893-.0295-.3494.0085-1.0356.0085-1.0356.447.2358.6115.2694.5356-.2947.1054.0127.4007.0463.4597-.0758.1308-.261-.1476-.4925-.291-.6483 0 0 .3079.08.3206.08.2488.0169.3374-.45886.0084-.69882l-.0801-.05894c.1138-.12208.2615-.2989.2109-.48834-.0507-.18102-.2658-.2147-.4134-.23154.0253-.0842.1055-.31153.0042-.37468-.1476-.09261-.3163.05052-.4217.13051 0 0-.038-.14314-.0422-.15156-.1139-.26101-.561-.2147-.6917.02947l-.0338.06315c-.1096-.02947-.3711-.09262-.4597 0-.1434.14313-.0802.32837-.0338.48413-.1729-.01684-.3711-.0421-.43017.20208-.07591.30731.05057.35362.27417.44203-.45131.31153-.58206.45466-.0253.76621-.32479.4252-.097.5178.3247.4673-.0379.1136-.1349.4125-.0421.5136.1096.1221.5019-.0884.6115-.1432 0 0 0 .6778-.0337 1.0146-.0717.6694.0211.9304-.5947 1.4019.0844-.0379.3079-.1726.4007-.08.1265.1263-.1898.4378-.2657.5936zm18.4443 9.2153c.1012-.0084.1645-.0337.1898-.0673.0295-.0337.0421-.1179.0421-.2442v-.9767c0-.0884-.0126-.1431-.0421-.1684-.0296-.0253-.0886-.0421-.1856-.0463v-.0421h.4766l.5567 1.2124.5315-1.2124h.4808v.0463c-.0886.0042-.1476.0211-.1729.0505-.0253.0253-.038.08-.038.1684v1.0693c0 .0884.0127.1432.038.1684.0253.0253.0843.0421.1729.0505v.0421h-.6748v-.0421c.097-.0084.156-.0252.1813-.0505.0253-.0252.038-.0926.038-.1936v-1.0778l-.6158 1.3682h-.0338l-.6031-1.3092v.9556c0 .1305.0211.2189.059.2568.0254.0253.0802.0421.1688.0547v.0421h-.5652v-.0547zm-1.6112 0c.0886-.0084.1434-.0253.1729-.0463.0253-.021.038-.08.038-.1684v-1.0693c0-.0842-.0127-.1389-.038-.1684-.0253-.0252-.0843-.0421-.1729-.0505v-.0421h1.278l.0084.3452h-.0591c-.021-.1052-.0506-.1726-.0927-.2063-.0422-.0294-.1308-.0463-.2742-.0463h-.3248c-.0337 0-.059.0042-.0674.0169-.0085.0084-.0127.0336-.0127.0631v.5346h.3712c.1012 0 .1687-.0168.194-.0463.0295-.0294.0506-.0926.0675-.1852h.0548v.5557h-.0548c-.0169-.0926-.0422-.1558-.0675-.1852-.0295-.0295-.0928-.0463-.194-.0463h-.3712v.5936c0 .0463.0169.0757.0464.0842.0295.0084.1223.0126.2699.0126.1645 0 .2826-.0169.3585-.0547.076-.0379.1477-.1221.2109-.2611h.0675l-.1097.4042h-1.299zm-1.6154 0c.0886-.0084.1476-.0253.1729-.0463s.038-.08.038-.1684v-1.0693c0-.0842-.0127-.1389-.038-.1684-.0253-.0252-.0843-.0421-.1729-.0505v-.0421h.679v.0463c-.0885.0042-.1476.0168-.1771.0421s-.0464.0758-.0464.1558v1.1535c0 .0252.0042.0463.0127.0631.0084.0169.0295.0253.059.0295l.0548.0042h.1139c.2151 0 .3585-.0168.4344-.0547.076-.0337.1477-.1263.2194-.2695h.0632l-.1181.4168h-1.2948zm-1.5943-1.3682c.1476-.1389.329-.2105.5441-.2105s.4006.0716.5483.2147c.1602.1516.2404.3579.2404.6147 0 .261-.0844.4673-.2489.6188-.1476.1389-.329.2063-.5398.2063-.2236 0-.4134-.0758-.561-.2273-.1518-.1558-.2278-.3579-.2278-.5978.0043-.2611.0844-.4631.2447-.6189zm.1813 1.1746c.1013.122.2236.181.367.181s.2615-.059.3627-.1768c.1012-.1179.1518-.3074.1518-.5642 0-.261-.0506-.4504-.1518-.5683s-.2235-.1726-.3627-.1726c-.1434 0-.2657.059-.367.181-.1012.1221-.1476.3074-.1476.5599 0 .2526.0464.4421.1476.56zm-1.822-.2484c.0421.1094.0885.1936.1434.2568.097.1136.2151.1684.3543.1684.0759 0 .1434-.0253.1982-.0716.0548-.0505.0843-.1179.0843-.2021 0-.08-.0295-.1473-.0843-.202-.038-.0379-.1139-.0927-.232-.1642l-.2067-.1263c-.0632-.0379-.1096-.08-.1476-.1179-.0675-.0758-.1012-.16-.1012-.2526 0-.1221.0422-.2231.1223-.3031.0802-.08.1856-.1221.3206-.1221.0548 0 .1223.0126.1982.0421.0759.0253.1223.0379.1307.0379.0296 0 .0507-.0084.0591-.021.0127-.0127.0211-.0337.0253-.059h.0506l.0506.5094h-.059c-.038-.1558-.1012-.261-.1898-.3242-.0844-.0589-.1729-.0926-.2573-.0926-.0633 0-.1223.0211-.1729.059s-.0717.0926-.0717.1599c0 .0632.0211.1137.0548.16.038.0463.097.0926.1729.1389l.2109.1305c.1308.08.2236.1558.2784.2232.0548.0673.0801.1515.0801.2441 0 .1263-.0464.2316-.1434.3158-.0928.0842-.2151.1263-.3627.1263-.0759 0-.1518-.0127-.232-.0421-.0801-.0295-.1265-.0421-.1392-.0421-.0295 0-.0464.0084-.059.0252-.0085.0169-.0169.0379-.0169.0548h-.0548l-.0717-.5094zm-5.1583-1.0904c.1012-.0084.1644-.0337.1898-.0673.0295-.0337.0421-.1179.0421-.2442v-1.0567l-.0337-.0379c-.0338-.0421-.0675-.0673-.0886-.0757-.0253-.0085-.059-.0169-.1096-.0169v-.0463h.4133l.9279 1.1535v-.7999c0-.1347-.0211-.2189-.0591-.2568-.0253-.0252-.0843-.0421-.1729-.0505v-.0463h.5652v.0463c-.0928.0084-.1518.0337-.1814.0674-.0295.0337-.0464.1179-.0464.2441v1.263h-.0421l-1.0629-1.3177v.9346c0 .1305.0211.2189.059.2568.0253.0253.0802.0421.1687.0547v.0421h-.5651v-.0463zm-.7888 0c.097-.0084.1603-.021.1898-.0421.0296-.021.0422-.08.0422-.1726v-1.0693c0-.0884-.0126-.1431-.0422-.1684-.0295-.0252-.0928-.0421-.1898-.0463v-.0463h.7128v.0463c-.097.0042-.1602.0211-.1898.0463-.0295.0253-.0421.08-.0421.1684v1.0693c0 .0926.0168.1516.0421.1726.0296.0211.0928.0379.1898.0421v.0421h-.7128zm-3.2139 1.6082v-.0421c.0591-.0084.1012-.0295.1308-.0716.0295-.0379.0801-.1473.1518-.3241l.4766-1.1788h.0464l.5694 1.3598c.038.0884.0675.1473.0886.1684.0253.021.0632.0337.1138.0421v.0421h-.582v-.0421c.0675-.0042.1097-.0127.1307-.0211.0211-.0084.0296-.0337.0296-.0673 0-.0127-.0042-.0337-.0127-.0632-.0084-.0294-.0169-.0589-.0295-.0926l-.0928-.2315h-.5989c-.0591.1557-.097.2526-.1055.2862-.0126.0337-.0168.0632-.0168.0842 0 .0379.0168.0674.0464.0842.021.0084.0548.0169.1096.0211v.0421h-.4555zm.987-.6189-.2658-.6609-.2615.6609zm-2.4506.5726c.0886-.0084.1434-.0253.1645-.0548.0211-.0252.0338-.0926.0338-.1894v-1.0398c0-.0842-.0127-.139-.038-.1642-.0253-.0253-.0759-.0421-.1603-.0505v-.0463h.6327c.1308 0 .2404.0168.329.0505.1645.0673.2488.1894.2488.3662 0 .1179-.0379.2105-.1096.2737-.0759.0631-.173.1052-.2995.1263l.4724.6104c.0295.0379.0591.0631.0886.08.0295.0168.0675.0295.1096.0337v.0421h-.3669l-.5441-.7368-.1265.0043v.4715c0 .0884.0126.1473.0379.1683.0253.0253.0844.0379.1687.0464v.0421h-.6411zm.7803-.8294c.1223-.0547.1814-.1515.1814-.2947 0-.1389-.0548-.2315-.1645-.2862-.0591-.0253-.135-.0421-.232-.0421-.0632 0-.1054.0042-.1181.0168-.0126.0084-.0211.0295-.0211.0674v.5936c.1687-.0085.2868-.0253.3543-.0548zm-1.4298-.0421c.097-.0463.1434-.1305.1434-.2526 0-.1431-.0548-.2399-.1687-.2904-.0633-.0295-.1561-.0421-.2826-.0421-.0464 0-.0759.0042-.0886.0126-.0126.0084-.0168.0337-.0168.0716v.543l.2193-.0042c.0801 0 .1434-.0126.194-.0379zm-.8604.8715c.0928-.0042.1518-.0211.1771-.0463.0253-.0253.0422-.0842.0422-.1726v-1.0693c0-.0884-.0126-.1432-.0422-.1684-.0253-.0253-.0885-.0421-.1771-.0463v-.0463h.6411c.1813 0 .329.0294.4344.0926.1097.0631.1603.1684.1603.3199 0 .1137-.038.1979-.1139.2568-.0422.0337-.1054.059-.1898.0842.1055.0253.194.0716.2699.1347.076.0632.1097.1474.1097.261 0 .1895-.0843.3158-.2488.3873-.0886.0379-.1941.0548-.3206.0548h-.7465v-.0421zm.9363-.1137c.0802-.0463.1181-.1389.1181-.2736s-.0464-.2274-.1392-.2737c-.0928-.0505-.2108-.0757-.3543-.0757h-.0674-.0422v.5978c0 .0421.0126.0673.0337.0799.0211.0127.0759.0169.1561.0169.1181 0 .2151-.0211.2952-.0716zm-2.97771.1137c.09279-.0084.15606-.0337.18137-.0674.0253-.0337.03796-.1136.03796-.2442v-.9766c0-.0842-.01266-.1432-.03796-.1684-.02531-.0253-.08436-.0421-.17715-.0463v-.0463h.4513l.52722 1.2082.50613-1.2082h.45554v.0463c-.0844.0042-.1392.021-.1645.0505-.0253.0252-.038.08-.038.1642v1.0693c0 .0884.0127.1431.038.1684.0253.0252.0801.0378.1645.0463v.0421h-.64112v-.0421c.09279-.0085.14762-.0253.17293-.0506.02109-.0294.03374-.0926.03374-.1936v-1.0735l-.58627 1.364h-.02952l-.57362-1.3093v.9556c0 .1306.01687.219.05483.2568.02531.0253.07592.0421.16028.0506v.0421h-.53566zm-.9996-1.5408v.0463c-.08858.0042-.14341.021-.16871.0463-.02531.0252-.03796.08-.03796.1684v.7662c0 .1263.01687.2231.05061.2947.06327.1263.17714.1936.34586.1936.18558 0 .31211-.0673.37538-.1978.03374-.0716.05483-.1853.05483-.341v-.6231c0-.1305-.01687-.2105-.0464-.2442-.02952-.0336-.08857-.0547-.16871-.0631v-.0463h.52722v.0463c-.08857.0084-.14762.0337-.17293.0673-.0253.0337-.03796.1137-.03796.24v.6231c0 .1641-.0253.2946-.0717.3873-.08857.1726-.25728.2568-.51035.2568-.24884 0-.41334-.0842-.50191-.2526-.0464-.0926-.0717-.2105-.0717-.3579v-.7493c0-.0884-.01266-.1432-.03796-.1684-.02531-.0253-.08014-.0421-.16871-.0463v-.0463zm-2.91869 1.5408c.06327-.0084.10966-.0253.13919-.0505.03374-.0295.09701-.1011.1898-.2232l.35851-.463-.25307-.3874c-.10966-.1683-.18558-.2694-.23198-.3115-.04217-.0421-.10122-.0631-.17714-.0673v-.0463h.68749v.0463c-.06748.0042-.10966.0084-.13075.0126-.02952.0084-.04639.0337-.04639.0673 0 .0211.00843.0506.02108.08.00844.0169.01688.0337.02953.0548l.23619.362.2615-.3326c.03796-.0463.06327-.0842.07592-.1136.00844-.0169.01266-.0337.01266-.0463 0-.0337-.01687-.059-.05062-.0674-.02109-.0084-.05483-.0126-.10966-.0126v-.0463h.53987v.0463c-.05904 0-.10966.0126-.1434.0294-.05061.0295-.1181.0969-.19402.1979l-.33742.4336.43865.661c.0464.0715.08436.1178.1181.1347.02952.0168.07592.0337.13918.0421v.0421h-.67484v-.0463c.06327 0 .10966-.0085.13497-.0169s.03796-.0294.03796-.0589c0-.0253-.01687-.0674-.05061-.1221-.03374-.0589-.13075-.2063-.28259-.4462l-.26994.3578c-.03796.0505-.06748.0884-.08435.1137-.02531.0379-.03796.0673-.03796.0842 0 .0336.02109.0589.05905.0715.02108.0084.06326.0169.11809.0169v.0421h-.53143v-.0379zm-1.39608 0c.08436-.0084.13919-.0253.1645-.0463.0253-.0211.03796-.08.03796-.1684v-1.0693c0-.0842-.01266-.139-.03796-.1642-.02531-.0253-.08014-.0421-.1645-.0505v-.0463h1.21472l.00843.3452h-.05905c-.02108-.1053-.04639-.1768-.08857-.2063-.03796-.0295-.12653-.0463-.25728-.0463h-.3079c-.03374 0-.05483.0042-.06326.0168-.00844.0127-.01266.0337-.01266.0632v.5346h.35008c.09701 0 .16027-.0168.18558-.0463.0253-.0295.04639-.0926.06326-.1852h.05484v.5557h-.05062c-.01687-.0926-.03796-.1558-.06748-.1853-.02531-.0294-.08857-.0463-.18558-.0463h-.35008v.5936c0 .0463.01266.0758.04218.0842.02953.0084.11388.0126.25728.0126.15606 0 .26994-.0168.34164-.0547.0717-.0337.13919-.1221.19824-.2568h.06326l-.10544.4042h-1.23159z"/><path d="m126.385 8.00713.81 1.91548h-1.612zm.253-1.00194h-.139l-1.418 3.35521c-.286.6736-.468 1.183-.898 1.2167v.1305h1.379v-.1305c-.236 0-.472-.0632-.472-.2905 0-.2568.287-.8125.375-1.0777h1.827l.253.5936c.265.6188.27.7535-.321.7788v.1305h1.78v-.1347c-.392.021-.536-.3957-.662-.682zm-3.303.00421h-.147c-.232.56412-.578-.00842-1.536-.00842-1.4 0-2.383 1.02299-2.383 2.40803 0 1.52399 1.038 2.39539 2.4 2.39539.671 0 1.388-.3494 1.814-.8714l-.118-.139c-.481.4715-.949.6947-1.632.6947-1.143 0-1.654-1.0525-1.654-2.02496 0-1.25454.494-2.17649 1.645-2.17649.793 0 1.303.52202 1.506 1.28821h.169zm-5.483.64831c0-.20207.106-.42519.684-.42519v-.13472h-2.08v.13472c.578 0 .683.22312.683.42519v3.49419c0 .2021-.105.4252-.683.4252v.1305h2.08v-.1305c-.578 0-.684-.2231-.684-.4252zm-2.674 0c0-.20207.106-.42519.675-.42519v-.13472h-1.658v.13472c.574 0 .675.22312.675.42519v2.79109l-2.686-3.34679h-1.194v.13472c.342.00842.405.06736.62.31153l.055.06735v3.53629c0 .2021-.106.4252-.675.4252v.1305h1.662v-.1305c-.574 0-.675-.2231-.675-.4252v-3.18266l3.096 3.83516h.105zm-5.01-.64831h-.148c-.232.56412-.578-.00842-1.535-.00842-1.401 0-2.383 1.02299-2.383 2.40803 0 1.52399 1.037 2.39539 2.399 2.39539.671 0 1.388-.3494 1.814-.8714l-.118-.139c-.481.4715-.949.6947-1.632.6947-1.143 0-1.654-1.0525-1.654-2.02496 0-1.25454.494-2.17649 1.645-2.17649.797 0 1.304.52202 1.506 1.28821h.169zm-5.091 4.6982.312-1.1746h-.194c-.371.8841-.899.8925-1.46.8925h-.919c-.139 0-.181-.1473-.181-.2694v-1.71341h.982c.468 0 .865.1305.865.67361h.148v-1.62925h-.148c0 .54307-.397.66937-.865.66937h-.982v-1.4945c0-.1726.13-.27364.307-.27364h1.122c.49 0 .717.33258.793.71147h.152v-.99353h-3.703v.13472c.51 0 .616.22312.616.42519v3.49417c0 .2021-.106.4252-.616.4252v.1305h3.771zm-5.3991-.1305c-.5103 0-.6115-.2231-.6115-.4252v-3.75941h.5019c.5147 0 .8347 0 .9907.89249h.169l-.042-1.18297h-3.9478l-.0422 1.18297h.1687c.1518-.89249.4724-.89249.9912-.89249h.5019v3.75941c0 .2021-.1055.4252-.6116.4252v.1305h1.9402v-.1305zm-9.7641-3.86466c0-.33258.0633-.35363.3965-.35363 1.2906 0 2.1806.70305 2.1806 2.06704 0 1.29245-.8225 2.05865-2.2439 1.99545-.1518-.0084-.3332-.0842-.3332-.341zm.5315 3.99516c1.8684 0 2.809-.8757 2.809-2.29017 0-1.56606-1.0797-2.31963-2.8681-2.31963h-1.801v.13472c.5104 0 .6158.22312.6158.42519v3.49419c0 .2021-.1054.4252-.6158.4252v.1305zm-5.1077-3.70047.8098 1.91548h-1.6112zm.2488-1.00194h-.1392l-1.4171 3.35521c-.2868.6736-.4682 1.183-.8984 1.2167v.1305h1.3792v-.1305c-.2362 0-.4724-.0632-.4724-.2905 0-.2568.2868-.8125.3754-1.0777h1.8263l.2488.5936c.2657.6188.2742.7535-.3205.7788v.1305h1.7799v-.1347c-.3923.021-.5357-.3957-.6622-.682zm-6.2338.70725c0-.33258.0633-.35363.3965-.35363 1.2906 0 2.1805.70305 2.1805 2.06704 0 1.29245-.8224 2.05865-2.2438 1.99545-.1519-.0084-.3332-.0842-.3332-.341zm.5272 3.99516c1.8685 0 2.809-.8757 2.809-2.29017 0-1.56606-1.0797-2.31963-2.868-2.31963h-1.801v.13472c.5103 0 .6158.22312.6158.42519v3.49419c0 .2021-.1055.4252-.6158.4252v.1305zm-3.1802-4.04989c0-.20207.1055-.42519.6833-.42519v-.13472h-2.0794v.13472c.5779 0 .6833.22312.6833.42519v3.49419c0 .2021-.1054.4252-.6833.4252v.1305h2.0794v-.1305c-.5778 0-.6833-.2231-.6833-.4252zm-5.2806 4.14669h.1518c.0675-.5094.5694 0 1.2949 0 .949 0 1.472-.6483 1.472-1.2714 0-.83351-.6411-1.13241-1.5901-1.70495-.2995-.18102-.7381-.46729-.7381-.87144 0-.43782.3121-.66936.7339-.66936.6495 0 1.1092.54728 1.2695 1.19559h.1729l-.1518-1.48186h-.1476c-.1687.5136-.5019 0-1.24 0-.6833 0-1.2358.4715-1.2358 1.16191 0 1.33031 1.9022 1.37241 2.189 2.34491.1602.543-.2236 1.0314-.7887 1.0314-.7382 0-1.2274-.5852-1.4425-1.2335h-.1603zm-4.1545-4.11301c0-.32837.0633-.32837.5146-.32837.6284 0 1.1177.27364 1.1177.95985 0 .75356-.62.95984-1.6323.99352zm-.7086 3.46051c0 .2021-.1054.4252-.5905.4252v.1305h1.9191v-.1305c-.5103 0-.6158-.2231-.6158-.4252v-1.5745l.3923-.01263 1.6576 2.14283h1.1219v-.1305c-.3121-.0211-.4724-.16-.6622-.3915l-1.3792-1.6966c.6537-.08841 1.2611-.42941 1.2611-1.17034 0-.81671-.6959-1.21665-1.8558-1.21665h-1.839v.13472c.4893 0 .5905.22312.5905.42519zm-1.4762.5557.3163-1.1746h-.194c-.3711.8841-.8984.8925-1.4593.8925h-.9195c-.1392 0-.1814-.1473-.1814-.2694v-1.71341h.9828c.4682 0 .8646.1305.8646.67361h.1476v-1.62925h-.1476c0 .54307-.3964.66937-.8646.66937h-.9828v-1.4945c0-.1726.1308-.27364.3079-.27364h1.122c.4892 0 .717.33258.7929.71147h.1518v-.99353h-3.7031v.13472c.5103 0 .6157.22312.6157.42519v3.49417c0 .2021-.1054.4252-.6157.4252v.1305h3.7664zm-6.6683.0968h.0928c.3838-1.0019 1.1009-2.83743 1.6154-4.07091.1097-.27785.2531-.49255.5779-.50097v-.13472h-1.4299v.13472c.2025 0 .5104.03368.5104.2989 0 .15997-.1055.4294-.1687.57675l-.9912 2.47963-1.0165-2.27756c-.0632-.13893-.3205-.67358-.3205-.82092 0-.16839.0759-.2568.523-.2568v-.13472h-1.8558v.13472c.4049 0 .5862.39151.7718.80829zm-3.7875-4.14669c0-.20207.1054-.42519.6833-.42519v-.13472h-2.0794v.13472c.5779 0 .6833.22312.6833.42519v3.49419c0 .2021-.1054.4252-.6833.4252v.1305h2.0794v-.1305c-.5779 0-.6833-.2231-.6833-.4252zm-2.6741 0c0-.20207.1055-.42519.6749-.42519v-.13472h-1.6576v.13472c.5736 0 .6748.22312.6748.42519v2.79109l-2.6867-3.34679h-1.1936v.13472c.3416.00842.4049.06736.62.31153l.0548.06735v3.53629c0 .2021-.1054.4252-.6748.4252v.1305h1.6576v-.1305c-.5694 0-.6749-.2231-.6749-.4252v-3.18266l3.0959 3.83516h.1054v-4.14669zm-8.9627 2.29016c0 1.27563.5146 1.85653 1.7841 1.85653.291 0 .6706-.0758.8942-.181.7887-.3747.8562-.9893.8562-1.77657v-2.19333c0-.20207.1054-.42519.6537-.42519v-.13472h-1.6196v.13472c.5526 0 .6538.22312.6538.42519v2.19333c0 .66097-.0085 1.64187-1.3117 1.64187-.8731 0-1.2063-.4126-1.2063-1.49873v-2.33647c0-.20207.1054-.42519.6158-.42519v-.13472h-1.9402v.13472c.5104 0 .6116.22312.6116.42519v2.29437zm83.3979 5.26653.81 1.9155h-1.612zm.253-1.0062h-.139l-1.418 3.3553c-.286.6736-.468 1.1829-.898 1.2166v.1305h1.379v-.1305c-.236 0-.472-.0631-.472-.2905 0-.2568.287-.8125.375-1.0777h1.827l.253.5936c.265.6189.27.7536-.321.7788v.1305h1.78v-.1305c-.392.0211-.536-.3957-.662-.682zm-3.556.6568c0-.2021.106-.4252.684-.4252v-.1305h-2.08v.1305c.578 0 .683.2231.683.4252v3.4941c0 .2021-.105.4252-.683.4252v.1305h2.08v-.1305c-.578 0-.684-.2231-.684-.4252zm-4.981.0336c0-.3283.063-.3283.515-.3283.628 0 1.117.2736 1.117.9598 0 .7536-.62.9599-1.632.9935zm-.713 3.4605c0 .2021-.105.4252-.594.4252v.1305h1.919v-.1305c-.511 0-.616-.2231-.616-.4252v-1.5744l.392-.0127 1.658 2.1428h1.122v-.1305c-.312-.021-.473-.1599-.663-.3915l-1.379-1.6966c.654-.0884 1.261-.4294 1.261-1.1703 0-.8125-.696-1.2166-1.855-1.2166h-1.844v.1305c.49 0 .595.2231.595.4252v3.4941zm-3.602-3.1447.81 1.9155h-1.611zm.253-1.0062h-.139l-1.417 3.3553c-.287.6736-.468 1.1829-.898 1.2166v.1305h1.379v-.1305c-.236 0-.473-.0631-.473-.2905 0-.2568.287-.8125.376-1.0777h1.826l.249.5936c.266.6189.274.7536-.321.7788v.1305h1.78v-.1305c-.392.0211-.535-.3957-.662-.682zm-3.505.6568c0-.2021.106-.4252.612-.4252v-.1305h-1.388l-1.539 3.5152-1.611-3.5152h-1.379v.1305c.556 0 .662.2231.662.4252v3.4941c0 .2021-.106.4252-.675.4252v.1305h1.657v-.1305c-.573 0-.674-.2231-.674-.4252v-3.2415l1.75 3.8014h.097l1.784-3.9614v3.4057c0 .2021-.105.4252-.611.4252v.1305h1.94v-.1305c-.511 0-.612-.2231-.612-.4252zm-10.16.3494.81 1.9155h-1.6115zm.249-1.0062h-.139l-1.4176 3.3553c-.2868.6736-.4682 1.1829-.8984 1.2166v.1305h1.3792v-.1305c-.2362 0-.4724-.0631-.4724-.2905 0-.2568.2868-.8125.3754-1.0777h1.8258l.249.5936c.266.6189.274.7536-.32.7788v.1305h1.78v-.1305c-.393.0211-.536-.3957-.663-.682zm-3.2733 4.5761c-.5103 0-.6157-.2231-.6157-.4252v-3.7594h.5019c.5145 0 .8351 0 .9911.8925h.1687l-.0421-1.1829h-3.9478l-.0422 1.1829h.1687c.1518-.8925.4724-.8925.9912-.8925h.5019v3.7594c0 .2021-.1055.4252-.6116.4252v.1305h1.9402v-.1305zm-4.0574-3.9193c0-.2021.1054-.4252.6748-.4252v-.1305h-1.6576v.1305c.5736 0 .6749.2231.6749.4252v2.7911l-2.6867-3.3468h-1.1937v.1305c.3417.0084.4049.0673.62.3115l.0549.0674v3.5362c0 .2021-.1055.4252-.6749.4252v.1305h1.6576v-.1305c-.5694 0-.6748-.2231-.6748-.4252v-3.1826l3.0958 3.8352h.1054v-4.1425zm-7.1913.3494.8098 1.9155h-1.6112zm.2488-1.0062h-.1391l-1.4172 3.3553c-.2868.6736-.4682 1.1829-.8984 1.2166v.1305h1.3792v-.1305c-.2362 0-.4724-.0631-.4724-.2905 0-.2568.2868-.8125.3754-1.0777h1.8263l.2488.5936c.2658.6189.2742.7536-.3205.7788v.1305h1.7799v-.1305c-.3923.0211-.5357-.3957-.6622-.682zm-6.1326 4.8035h.1519c.0675-.5094.5694 0 1.2948 0 .949 0 1.472-.6484 1.472-1.2756 0-.8336-.6411-1.1325-1.5901-1.705-.2994-.181-.7381-.4673-.7381-.8714 0-.4379.3121-.6694.7339-.6694.6495 0 1.1093.5515 1.2695 1.1998h.173l-.1519-1.4819h-.1476c-.1687.5136-.5019 0-1.24 0-.6833 0-1.2358.4757-1.2358 1.1619 0 1.3304 1.9022 1.3725 2.189 2.3449.1603.5431-.2235 1.0314-.7887 1.0314-.7381 0-1.2274-.5851-1.4425-1.2334h-.1603zm-5.0022-4.5509c1.0797-.0126 1.4931 1.0567 1.4931 2.1513.0337.7451-.2489 2.0544-1.4931 2.1512-.8225.0631-1.4931-.7157-1.4931-2.1512 0-1.3304.4555-2.0839 1.4931-2.1513zm0-.2526c-1.3581-.0294-2.2861 1.0146-2.2861 2.3996 0 1.4735 1.0587 2.3997 2.2861 2.3997 1.396 0 2.2818-1.0567 2.2818-2.3997 0-1.4776-1.0756-2.4543-2.2818-2.3996zm-3.0706.0085h-.1476c-.232.5641-.5778-.0085-1.5352-.0085-1.4003 0-2.3873 1.023-2.3873 2.4081 0 1.5239 1.0376 2.3954 2.3999 2.3954.6706 0 1.3877-.3495 1.8136-.8715l-.118-.1389c-.4809.4715-.949.6946-1.6323.6946-1.143 0-1.6534-1.0524-1.6534-2.0249 0-1.2503.4977-2.1765 1.6449-2.1765.793 0 1.3033.522 1.5058 1.2882h.1687zm-5.2932.6483c0-.2021.1054-.4252.6832-.4252v-.1305h-2.0793v.1305c.5778 0 .6833.2231.6833.4252v3.4941c0 .2021-.1055.4252-.6833.4252v.1305h2.0793v-.1305c-.5778 0-.6832-.2231-.6832-.4252zm-4.9812.0336c0-.3283.0633-.3283.5146-.3283.6284 0 1.1177.2736 1.1177.9598 0 .7536-.62.9599-1.6323.9935zm-.7128 3.4605c0 .2021-.1054.4252-.5947.4252v.1305h1.9191v-.1305c-.5104 0-.6116-.2231-.6116-.4252v-1.5744l.3922-.0127 1.6576 2.1428h1.1219v-.1305c-.3121-.021-.4723-.1599-.6621-.3915l-1.3792-1.6966c.6537-.0884 1.2611-.4294 1.2611-1.1703 0-.8125-.696-1.2166-1.8558-1.2166h-1.839v.1305c.4893 0 .5947.2231.5947.4252v3.4941zm-1.2822.5557.3121-1.1745h-.194c-.3712.8841-.8984.8925-1.4593.8925h-.9195c-.1392 0-.1814-.1474-.1814-.2737v-1.7134h.9828c.4681 0 .8646.1347.8646.6736h.1476v-1.6292h-.1476c0 .5431-.3965.6694-.8646.6694h-.9828v-1.4945c0-.1726.1308-.2737.3079-.2737h1.1219c.4893 0 .7171.3326.793.7115h.1518v-.9935h-3.7032v.1305c.5104 0 .6158.2231.6158.4252v3.4941c0 .2021-.1054.4252-.6158.4252v.1305zm-7.6173-3.9951c0-.3326.0633-.3536.3965-.3536 1.2906 0 2.1806.703 2.1806 2.067 0 1.2966-.8225 2.0586-2.2439 1.9997-.1518-.0084-.3332-.0842-.3332-.341zm.5315 3.9951c1.8684 0 2.809-.8756 2.809-2.2901 0-1.5661-1.0797-2.3154-2.8681-2.3154h-1.801v.1305c.5104 0 .6116.2231.6116.4252v3.4941c0 .2021-.1054.4252-.6116.4252v.1305zm-2.6024 0 .3121-1.1745h-.194c-.3711.8841-.8984.8925-1.4593.8925h-.9195c-.1392 0-.1814-.1474-.1814-.2737v-1.7134h.9828c.4681 0 .8646.1347.8646.6736h.1476v-1.6292h-.1476c0 .5431-.3965.6694-.8646.6694h-.9828v-1.4945c0-.1726.1308-.2737.3079-.2737h1.122c.4892 0 .717.3326.7929.7115h.1518v-.9935h-3.7032v.1305c.5104 0 .6158.2231.6158.4252v3.4941c0 .2021-.1054.4252-.6158.4252v.1305zm-5.888 0v-.1305c-.523 0-.6284-.2231-.6284-.4252v-1.7134h.9195c.4681 0 .8646.1347.8646.6736h.1476v-1.6292h-.1476c0 .5431-.3965.6694-.8646.6694h-.9195v-1.4945c0-.1684.0548-.2737.2995-.2737h.9194c.4893 0 .9068-.0547.9954.7115h.1687v-.9935h-3.7116v.1305c.5103 0 .6158.2231.6158.4252v3.4941c0 .2021-.1055.4252-.6158.4252v.1305z"/></g></svg>