<svg width="61" height="37" viewBox="0 0 61 37" fill="none" xmlns="http://www.w3.org/2000/svg">
<path d="M25.0605 0C34.6621 0 42.7057 6.16434 44.7197 14.3818V0.474609H60.2227V5.71973H49.8779V15.5605H56.7646V20.7188H49.8779V31.0195H60.251V36.1777H44.7344V22.4561C42.7343 30.6735 34.6618 36.8379 25.0742 36.8379H22.5029V24.582H12.1016L4.08594 36.1494H0V3.2627L5.12988 0.518555V25.5596L18.96 5.56055C17.4603 5.77623 16.1308 6.03444 15.002 6.37891L12.5439 7.1123L11.0732 2.15527L13.5303 1.42285C16.5451 0.531435 20.7315 1.46124e-06 25.0605 0ZM27.6348 31.4375C34.6781 30.359 40.0495 24.9576 40.0498 18.4209C40.0498 11.884 34.6782 6.45279 27.6348 5.375V31.4375ZM15.6758 19.3682H22.4902V9.5127L15.6758 19.3682Z" fill="#001B3C"/>
</svg>
