<svg fill="none" height="26" viewBox="0 0 61 26" width="61" xmlns="http://www.w3.org/2000/svg" xmlns:xlink="http://www.w3.org/1999/xlink"><clipPath id="a"><path d="m0 0h61v26h-61z"/></clipPath><g clip-path="url(#a)" fill="#001b3c"><path d="m4.51868 7.25429.48162-1.82404-1.46514-1.19347 1.88896-.10711.68644-1.75736.68643 1.75736 1.88998.10711-1.46514 1.19347.48162 1.82404-1.59239-1.02015-1.59137 1.02015zm1.59137-1.16163 1.39822.89535-.42332-1.60172 1.28669-1.04845-1.65931-.09348-.60279-1.54412-.60228 1.54412-1.6588.09348 1.28669 1.04845-.42281 1.60172z"/><path d="m5.68801 3.62173-.71584-2.19644-.07959.02527.74727 2.29395z"/><path d="m5.63955 3.80413h-.00152c-.02535-.00051-.04766-.01667-.05577-.04143l-.74727-2.29345c-.01014-.03133.00659-.06518.03802-.07478l.0801-.02577c.0147-.00505.03143-.00354.04563.00353.01419.00708.02484.01921.0294.03487l.71635 2.19643c.00406.01314.00406.02729-.00101.03992l-.04766.12278c-.00963.02274-.03143.0379-.05627.0379z"/><path d="m2.29492 5.09877h2.39492l-.10291-.08388h-2.29201z"/><path d="m4.68912 5.15843h-2.39492c-.03346 0-.05982-.02678-.05982-.05963v-.08337c0-.03284.02636-.05962.05982-.05962h2.29251c.01369 0 .02738.00455.03802.01364l.10241.08287c.01977.01617.02687.04295.01876.06619-.00913.02375-.03143.03992-.05627.03992z"/><path d="m5.46748 4.18691.02129-.05508-2.29099-3.142816-.06692.049516 2.29606 3.1504z"/><path d="m5.42624 4.24897c-.01926 0-.03701-.00909-.04816-.02476l-2.29657-3.15039c-.00912-.01264-.01267-.0288-.01064-.04447.00253-.01566.01064-.029809.02382-.038904l.06794-.049012c.02636-.019705.06489-.014147.08365.013137l2.29048 3.141809c.01217.01667.01521.03789.00761.0571l-.0218.05507c-.00811.02223-.0289.03689-.05222.0379l-.03954.00252z"/><path d="m6.11188 2.53593.04259.10712v-2.5834797h-.08416v2.5834797z"/><path d="m6.15425 2.70323c-.01622 0-.03092-.00657-.04258-.01718-.01318.01314-.03346.0197-.05273.01617-.02839-.00506-.04917-.02981-.04917-.05861v-2.5839874c0-.0333482.02687-.0596226.06033-.0596226h.08415c.03295 0 .05932.0267796.05932.0596226v2.5834774c0 .0288-.02028.05305-.04867.05861-.00406.00101-.00761.00152-.01065.00152z"/><path d="m7.33884 4.21934 1.88593-1.36526-.04918-.0677-1.96856 1.42538z"/><path d="m7.33848 4.27958h-.00305l-.13231-.00808c-.02586-.00152-.04665-.01819-.05425-.04244-.0071-.02426.00203-.05053.02231-.06518l1.96906-1.4264c.01268-.00909.0289-.01263.04462-.01061.01622.00253.0294.01112.03903.02375l.04918.0677c.01926.02678.01318.06417-.01369.08338l-1.88592 1.36576c-.01014.00707-.02231.01162-.03498.01162z"/><path d="m8.52854 4.28741-.06084.05002 2.4238-.7852-.0258-.07933-2.48875.80642z"/><path d="m8.46838 4.39703c-.0213 0-.04208-.01162-.05273-.03082-.00405-.00809-.00659-.01718-.00659-.02577l-.03447-.00152c-.0289-.00151-.05222-.02375-.05577-.05204-.00355-.0283.01369-.05558.04056-.06417l2.48922-.80592c.0147-.00505.0314-.00353.0456.00354s.0244.01971.0294.03436l.0259.07933c.0101.03132-.0066.06467-.0385.07528l-2.42387.7847c-.00608.00202-.01216.00303-.01825.00303z"/><path d="m5.01578 4.21201-1.96856-1.42539-.04917.06771 1.88592 1.36525z"/><path d="m4.88351 4.27976c-.01267 0-.02484-.00455-.03498-.01163l-1.88643-1.36576c-.02687-.0192-.03244-.05659-.01318-.08337l.04918-.06771c.00963-.01263.02332-.02122.03903-.02374.01572-.00253.03194.00151.04462.01061l1.96957 1.42639c.02028.01466.0294.04093.0218.06518-.0071.02426-.0289.04093-.05425.04245l-.13231.00808h-.00355.0005z"/><path d="m6.58332 3.74476.74778-2.29396-.0796-.02526-.71634 2.19643z"/><path d="m6.58268 3.80429c-.02484 0-.04664-.01465-.05526-.03789l-.04867-.12278c-.00507-.01263-.00558-.02729-.00101-.03992l.71634-2.19644c.01014-.03132.04411-.0485.07504-.0384l.07959.02577c.01521.00455.02788.01516.03447.02931.0071.01415.00862.03082.00355.04497l-.74727 2.29395c-.00811.02426-.02991.04042-.05526.04143h-.00203z"/><path d="m6.75617 4.18691.03955.00202 2.29707-3.1504-.06844-.049516-2.28997 3.142816z"/><path d="m6.79511 4.24897h-.00355l-.03954-.00252c-.02383-.00152-.04411-.01617-.05273-.0379l-.02129-.05507c-.00761-.0187-.00456-.04043.0071-.0571l2.28997-3.141809c.01927-.027284.05729-.032842.08365-.013137l.06794.049012c.01267.009095.02129.023244.02383.038904.00253.01567-.00203.03183-.01014.04447l-2.29708 3.15039c-.01166.01567-.0294.02476-.04867.02476z"/><path d="m9.92957 5.01489h-2.29201l-.1024.08388h2.39441z"/><path d="m7.53448 5.15843c-.02535 0-.04816-.01617-.05627-.03992-.00862-.02375-.00152-.05053.01876-.06619l.1019-.08287c.01064-.00859.02382-.01364.03853-.01364h2.292c.01572 0 .03093.00606.04208.01769.01166.01111.01774.02627.01774.04193v.08337c0 .03335-.02686.05963-.05982.05963z"/><path d="m3.69161 4.28716.15159-.00808-2.48922-.80642-.02586.07932 2.42433.7852z"/><path d="m3.75304 4.39681c-.00609 0-.01217-.00101-.01825-.00253l-2.42382-.78519c-.03143-.01011-.04867-.04396-.03853-.07529l.02585-.07933c.00457-.01465.01572-.02728.02991-.03436.01369-.00707.03042-.00808.04614-.00353l2.4882.80591c.02738.00859.04512.03588.04107.06417-.00355.0283-.02738.05053-.05577.05204l-.03447.00152c0 .00859-.00305.01768-.0071.02577-.01065.0192-.03093.03082-.05273.03082z"/><path d="m6.51172 6.41992.73967 2.26869.07959-.02577-.70773-2.17167z"/><path d="m7.25073 8.74834c-.00913 0-.01876-.00202-.02738-.00606-.01419-.00809-.02484-.02021-.0294-.03487l-.73967-2.26919c-.00811-.02375 0-.04952.02028-.06569.01977-.01516.04765-.01617.06895-.00303l.11102.07124c.01217.00708.02079.01819.02535.03184l.70722 2.17167c.01065.03133-.00659.06417-.03802.07478l-.07959.02577c-.00609.00152-.01268.00304-.01876.00304z"/><path d="m6.11188 6.16333-.04157.02728v3.86389h.08416v-3.86389z"/><path d="m6.15425 10.1135h-.08415c-.03296 0-.06033-.0268-.06033-.0596v-3.86385c0-.02071.01064-.03941.02788-.05053l.04208-.02677c.01977-.01264.04512-.01264.06489 0l.04157.02677c.01774.01112.02788.02982.02788.05053v3.86385c0 .0328-.02636.0596-.05931.0596z"/><path d="m7.30154 5.97085 1.87275 1.35616.04917-.0672-1.95588-1.41679z"/><path d="m9.17503 7.38662c-.01216 0-.02484-.00404-.03498-.01162l-1.87274-1.35565c-.01115-.00809-.01926-.01971-.02281-.03335l-.03346-.12733c-.00659-.02476.00304-.05053.02382-.06468.02079-.01414.04867-.01364.06946.00101l1.95487 1.41629c.02687.0192.03295.05659.01369.08337l-.04918.06771c-.00963.01263-.02332.02122-.03903.02375-.00355.00101-.00609.00101-.00964.00101z"/><path d="m7.1543 5.40838.00862.03284 3.70438 1.19952.0259-.07932-3.68821-1.19448z"/><path d="m10.8666 6.70099c-.006 0-.0121-.00101-.0182-.00354l-3.70443-1.19952c-.01926-.00607-.03396-.02224-.03954-.04144l-.00862-.03284c-.00608-.02223.00152-.04648.01977-.06114l.05121-.04143c.01571-.01314.0365-.01718.05576-.01061l3.68825 1.19447c.0319.01011.0486.04346.0385.07478l-.0259.07933c-.005.01516-.0157.02779-.0294.03436-.0086.00455-.0182.00707-.0274.00707z"/><path d="m7.60542 7.12141-.07808-.05052 1.49607 2.05344.06844-.04851-1.52141-2.08729z"/><path d="m9.02319 9.1839c-.01825 0-.03599-.00859-.04867-.02425l-1.49606-2.05294c-.01724-.02324-.01521-.05507.00507-.0763.00861-.00909.01926-.01465.03092-.01768l-.00253-.0091c-.0071-.02779.00608-.05709.03244-.06922.02586-.01263.05678-.00455.07351.0187l1.52192 2.08679c.00862.01263.01318.0288.01014.04396-.00253.01617-.01115.03031-.02383.0389l-.06793.04901c-.01065.00809-.02281.01163-.03498.01163z"/><path d="m5.60031 6.49117-.70773 2.17167.07959.02577.73967-2.26869z"/><path d="m4.97154 8.74828c-.00608 0-.01217-.00151-.01825-.00303l-.0801-.02577c-.01521-.00505-.02738-.01566-.03448-.0293-.0076-.01415-.00862-.03032-.00355-.04548l.70773-2.17168c.00457-.01313.01268-.02425.02484-.03183l.11103-.07124c.02129-.01365.04867-.01213.06895.00303.01977.01566.02788.04194.01977.06569l-.73967 2.26919c-.00811.02476-.03143.04093-.05678.04093h.00051z"/><path d="m4.95343 5.84302-1.95538 1.41679.04917.0672 1.87275-1.35616z"/><path d="m3.04677 7.38664c-.00355 0-.00659 0-.00964-.00101-.01571-.00202-.0294-.01112-.03903-.02375l-.04918-.0677c-.01926-.02678-.01369-.06417.01318-.08337l1.95639-1.41629c.02028-.01466.04766-.01516.06845-.00101.02078.01414.03041.03991.02382.06467l-.03346.12733c-.00355.01263-.01216.02476-.02281.03284l-1.87325 1.35566c-.01065.00808-.02281.01162-.03498.01162v.00101z"/><path d="m5.06753 5.40838-.0507-.04144-3.68871 1.19448.02637.07932 3.70442-1.19952z"/><path d="m1.35539 6.70097c-.00963 0-.01876-.00252-.02738-.00707-.01419-.00657-.02484-.0192-.02991-.03436l-.02585-.07933c-.00964-.03133.00709-.06467.03853-.07478l3.68819-1.19447c.01927-.00657.04056-.00253.05628.01061l.05069.04143c.01826.01465.02586.03891.01978.06114l-.00862.03284c-.00507.01971-.01927.03537-.03904.04143l-3.70391 1.19953c-.00659.00202-.01268.00354-.01876.00354z"/><path d="m4.61678 7.12141.03499-.13288-1.52091 2.08729.06743.04851 1.49707-2.05344z"/><path d="m3.19729 9.1839c-.01217 0-.02484-.00353-.03447-.01162l-.06794-.04901c-.01267-.00909-.02129-.02324-.02383-.03891-.00253-.01515.00153-.03132.01065-.04395l1.52192-2.0868c.01724-.02324.04766-.03082.07402-.01869.02585.01213.03904.04093.03245.06922l-.00254.00859c.01217.00253.02231.00809.03143.01769.01977.02071.0218.05305.00456.07629l-1.49657 2.05294c-.01166.01566-.02991.02425-.04867.02425z"/><path d="m6.1341 2.54663h-.04816v3.61677h.04816z"/><path d="m6.15462 6.18303h-.08821v-3.65617h.08821zm-.04816-.03941h.00811v-3.57735h-.00811z"/><path d="m3.70434 4.26636-.01489.04565 3.45128 1.11764.01488-.04565z"/><path d="m7.15302 5.45536-3.48896-1.13031.02687-.08286 3.48947 1.1298zm-3.43877-1.15557 3.41342 1.10504.00254-.00758-3.41393-1.10555z"/><path d="m5.0733 5.42999-.01471-.04547 3.45094-1.11767.0147.04547z"/><path d="m5.06007 5.45536-.02687-.08337 3.48947-1.1298.02636.08286zm.02332-.05761.00254.00758 3.41342-1.10504-.00254-.00808z"/><path d="m7.58008 7.12841-2.13281-2.92606.03903-.02779 2.13282 2.92605z"/><path d="m7.57606 7.15615-2.15614-2.95788.07098-.05154 2.15614 2.95839-.07098.05154zm-2.10088-2.94929 2.1095 2.89422.0071-.00505-2.11001-2.89423z"/><path d="m4.63865 7.12841-.03904-.0278 2.13282-2.92605.03853.02779z"/><path d="m4.64324 7.15617-.07097-.05154 2.15613-2.95839.07098.05154-2.15614 2.95789zm-.01521-.06013.00609.00506 2.10949-2.89423-.00659-.00505-2.10949 2.89422z"/><path d="m6.2707 26.0001h-.31939v-.1587c0-.2375-.53891-.2905-.7275-.2905h-4.32901c-.568312 0-.8948-.3249-.8948-.8918v-14.72429h6.11049v.31829h-5.7911v14.406c0 .386.188086.574.57541.574h4.32901c.32446 0 .68542.0722.88719.2556.20178-.1834.56274-.2556.8872-.2556h4.329c.3873 0 .5754-.188.5754-.574v-14.406h-5.7916v-.31829h6.111v14.72379c0 .5669-.3265.8918-.8948.8918h-4.329c-.1886 0-.7275.053-.7275.2905v.1587z"/><path d="m7.76253 12.354c-.01926 0-.03751-.0091-.04917-.0247l-.46692-.6508c-.04563.0101-.09024.0151-.13384.0151-.12979 0-.23371-.0474-.29303-.1339-.12421-.1813-.00963-.4668.26008-.6507.1313-.0895.27629-.1385.41013-.1385s.23372.047.29354.1339c.08111.1193.06185.288-.05121.4472l.25754.3941c.01319.0202.01268.0465 0 .0662-.05982.0864-.13789.2415-.16679.4891-.00304.0247-.02078.045-.04512.051-.00456.001-.01014.002-.0147.002zm-.49125-.8033c.01926 0 .03751.009.04867.0247l.40709.5669c.036-.1652.09126-.2844.14145-.3643l-.25856-.3961c-.01419-.0217-.01267-.0495.00305-.0697.09936-.1253.12775-.2592.07148-.3411-.036-.0525-.10545-.0819-.19468-.0819-.10747 0-.2327.043-.3422.1178-.20786.1409-.31229.3638-.22864.4855.03599.0526.10494.0814.19417.0814.04461 0 .09328-.0071.14195-.0212.00557-.0015.01115-.002.01622-.002z"/><path d="m8.71583 13.1801c-.13739 0-.30773-.0192-.40304-.1738-.16983-.2748-.05982-.5558-.02281-.6356.00963-.0197.0289-.0329.05019-.0344.02281-.0015.04258.0091.05424.0273l.47199.7215c.01166.0182.01268.041.00304.0602-.00912.0192-.02889.0313-.05019.0323-.03498.002-.06945.0025-.10342.0025zm-.35538-.6513c-.02738.1051-.03955.2623.05475.4149.0512.0818.13587.1167.29353.1177l-.34778-.5326z"/><path d="m8.73927 11.9533c0 .0445-.03549.0799-.0796.0799-.0441 0-.07959-.0354-.07959-.0799 0-.0444.03549-.0788.07959-.0788.04411 0 .0796.0354.0796.0788z"/><path d="m8.66066 12.0732c-.06641 0-.11964-.0531-.11964-.1193 0-.0661.05323-.1187.11964-.1187s.11964.0531.11964.1187c0 .0657-.05373.1193-.11964.1193zm0-.1587c-.02231 0-.04005.0177-.04005.0394 0 .0218.01774.0405.04005.0405s.03954-.0177.03954-.0405c0-.0227-.01774-.0394-.03954-.0394z"/><path d="m4.43679 17.3962h-4.272728v.1991h4.224568c.01217-.0677.02839-.1339.04816-.1991z"/><path d="m7.7832 17.3962c.02028.0652.036.1314.04817.1991h4.27473v-.1991z"/><path d="m6.10964 16.1634c.03397 0 .06743.0015.09987.003v-6.0573h-.19974v6.0573c.03295-.0015.0659-.003.09936-.003z"/><path d="m6.10913 19.6507c-.03346 0-.06641-.001-.09936-.003v6.0148h.19974v-6.0148c-.03295.0015-.06641.003-.09987.003z"/><path d="m7.38968 18.6981h-2.55817l-.05221-.0899 1.27908-2.2081h.10342l1.27959 2.2081zm-2.45525-.1192h2.35132l-1.17566-2.0297z"/><path d="m6.75114 16.6357c-.00913 0-.01775-.0015-.02637-.006-.05728-.0273-.30874-.0773-.38935-.0915-.04512-.0076-.1531-.0349-.19467-.1132-.01319-.0252-.01319-.0535 0-.0783.0152-.0293.04866-.049.08669-.0632-.03093-.0313-.0583-.0601-.06692-.0727-.01724-.0263-.0289-.0713-.00811-.1193.03244-.0752.12674-.1263.28846-.1541.22155-.0394.33511.1309.41774.2542.03701.0551.07453.1116.10697.1273.02991.0142.04259.05.02839.0793-.01419.0293-.05019.042-.07959.0278-.06236-.0298-.10748-.097-.15463-.1677-.09328-.1385-.16425-.2279-.29809-.2042-.15666.0273-.19113.0693-.19772.0809-.00456.0066-.00304.0106-.00254.0121.00812.0101.0725.0758.12675.1279.01622.0161.0223.0404.01419.0621-.0071.0217-.02636.0369-.04918.0399-.02636.0036-.05627.0101-.07858.0172.02079.0116.05019.0212.08163.0273.00355 0 .33308.0596.42027.1015.02941.0142.04208.0501.02789.0799-.01014.0212-.03144.0333-.05374.0333h.00051z"/><path d="m6.79243 16.5322-.04157.0445c-.07199-.0349-.3635-.0894-.40507-.0965-.04258-.0076-.12471-.0303-.15209-.0819-.00456-.0085-.00405-.0161 0-.0237-.02788-.0015-.05678-.0025-.08517-.0025-.84968 0-1.54017.6887-1.54017 1.5355s.691 1.5355 1.54017 1.5355 1.54068-.6892 1.54068-1.5355c0-.6023-.3493-1.1237-.85729-1.3749h.00051zm-.68339 2.7912c-.78327 0-1.42053-.6356-1.42053-1.4163s.63726-1.4158 1.42053-1.4158c.78326 0 1.42103.6346 1.42103 1.4158s-.63675 1.4163-1.42103 1.4163z"/><path d="m6.82751 16.2518c.03752.0541.0725.1011.11306.1208l-.04208.0459c.53536.283.90139.8439.90139 1.4886 0 .9287-.75792 1.6841-1.68973 1.6841s-1.68972-.7554-1.68972-1.6841.75842-1.6846 1.68972-1.6846c.05019 0 .09988.0025.14804.0071-.02231-.0233-.04157-.0435-.04715-.0521-.00659-.0101-.01622-.0384.00203-.0707-.03397-.002-.06794-.003-.10292-.003-.99771 0-1.80937.8084-1.80937 1.8033s.81166 1.8033 1.80937 1.8033c.99772 0 1.80937-.8094 1.80937-1.8033 0-.7402-.45018-1.3774-1.09201-1.6553z"/><path d="m6.49097 16.1577c0 .0202-.01622.0364-.0365.0364s-.0365-.0162-.0365-.0364.01622-.0364.0365-.0364.0365.0162.0365.0364z"/><path d="m6.45351 16.2341c-.04208 0-.07656-.0343-.07656-.0763 0-.0419.03448-.0758.07656-.0758.04207 0 .07655.0344.07655.0758 0 .0415-.03448.0763-.07655.0763z"/><path d="m6.11112 18.4108c-.27477 0-.49784-.2223-.49784-.4961 0-.2739.22357-.4967.49784-.4967s.49835.2228.49835.4967c0 .2738-.22357.4961-.49835.4961zm0-.9014c-.22357 0-.40608.1819-.40608.4053 0 .2233.182.4047.40608.4047s.4071-.1819.4071-.4047c0-.2229-.18251-.4053-.4071-.4053z"/><path d="m4.94441 24.8318h-.473c-.03295 0-.05982-.0268-.05982-.0596v-.9919h-3.21114c-.03296 0-.05983-.0268-.05983-.0596v-.5139c0-.0328.02687-.0596.05983-.0596h3.74447c.03346 0 .05982.0268.05982.0596v1.5654c0 .0328-.02687.0596-.05982.0596zm-.41318-.1197h.35336v-.9914c0-.003 0-.0056.00051-.0081v-.4466h-3.62534v.3946h3.21165c.03295 0 .05982.0268.05982.0596v.9914z"/><path d="m3.86898 23.2234c-.6986 0-1.26742-.5669-1.26742-1.2637s.56882-1.2627 1.26742-1.2627c.69861 0 1.26743.5664 1.26743 1.2627s-.56882 1.2637-1.26743 1.2637zm0-2.4076c-.63269 0-1.14777.5133-1.14777 1.1439s.51508 1.1445 1.14777 1.1445c.6327 0 1.14778-.5134 1.14778-1.1445s-.51508-1.1439-1.14778-1.1439z"/><path d="m3.77176 20.5411-2.11356-1.346.03194-.0506 2.11355 1.3461z"/><path d="m1.67625 19.1594-.03563.0479 1.86325 1.3766.03563-.0479z"/><path d="m3.29698 20.6483-1.67198-1.43.03853-.0454 1.67198 1.4294z"/><path d="m3.12884 20.7296-1.52142-1.4997.04208-.0424 1.52141 1.4992z"/><path d="m2.98241 20.8206-1.39061-1.5795.04461-.0394 1.39112 1.5795z"/><path d="m2.85431 20.9317-1.28009-1.6795.04816-.0359 1.27959 1.679z"/><path d="m2.73585 21.052-1.17921-1.7882.05019-.0333 1.17972 1.7892z"/><path d="m2.62948 21.1934-1.08846-1.9185.05171-.0293 1.08846 1.918z"/><path d="m2.52919 21.3597-1.0038-2.0737.05374-.0257 1.0038 2.0741z"/><path d="m1.56316 19.275-.05535.0226.93646 2.2768.05535-.0226z"/><path d="m2.39408 21.9216-.90189-2.6128.05678-.0197.9019 2.6127z"/><path d="m1.79602 19.497-.33003-.2122-.33004.2117.09936-.378-.303669-.2481.391889-.0222.14246-.3648.14245.3648.3924.0222-.30418.2481.09987.3785zm-.55107-.525.12573.1021-.04158.1561.13638-.0874.13637.0874-.04157-.1561.12573-.1021-.16223-.0096-.0583-.1506-.05881.1506-.16223.0096z"/><path d="m3.55215 23.0148c-.02738 0-.04816-.0136-.05577-.0369-.00659-.0207-.01267-.0798-.02332-.2137-.00355-.0425-.00659-.0864-.00811-.096-.00304-.0147-.00253-.0485-.00203-.1061 0-.045.00203-.1208-.00202-.1359-.00153-.0036-.00457-.0142-.00812-.0263-.00608-.0243-.02332-.0889-.04765-.098-.18961-.0688-.182-.1309-.18048-.1511.00152-.0101-.00152-.0394-.00355-.0652-.00963-.1102-.01217-.1844.03245-.2122.0147-.0091.03396-.0182.05373-.0278.00964-.0051.02332-.0116.03549-.0177-.02636-.0141-.05729-.0308-.06641-.0637-.00761-.0106-.06185-.0454-.09176-.0641-.036-.0238-.05932-.0389-.07301-.0526-.00709-.007-.01166-.0161-.02281-.0384-.04664-.0945-.06793-.1116-.07706-.1142-.05019-.0035-.19163-.0404-.22307-.1051-.01115-.0212-.00963-.0454.00406-.0657.03397-.0515.19468-.2758.28897-.3425.12624-.091.31686-.1794.32548-.1829.01166-.0051.02484-.0046.03599.001.01115.0065.01927.0172.02028.0293 0 0 .01521.1157.01977.1657.00304.0258.01673.0515.03853.0455.01268-.0041.04107-.0329.06033-.0516.04005-.0409.07909-.0793.12269-.0793h.0076c.00811 0 .02383-.0066.036-.0121.01825-.0081.0365-.0162.05576-.0162.01471 0 .06337.0066.06337.0824 0 .0359-.00152.0586-.00304.0778-.00152.0288-.00304.0465.00304.0914.00457.04-.0076.0784-.03498.1092-.03853.0429-.10139.0616-.13637.0379-.00659-.0046-.01318-.0096-.02028-.0147-.01419-.0111-.03092-.0242-.04259-.0242-.00304 0-.00506.001-.00861.002-.0436.0197-.09379.0586-.10799.0965-.0218.0591-.07706.1112-.11914.1112-.00354 0-.01115-.0015-.01571-.0026-.03853-.0131-.04208-.0626-.04208-.1172-.00101-.005-.01318-.0192-.02129-.0207-.01217-.002-.02434-.0061-.03498-.0096-.00812-.0025-.01825-.0061-.02434-.0071-.01825.0207-.05069.0728-.0441.1102.00912.053.10392.1905.13434.2031.05932.0237.29354.2183.30723.2329.0152.0096.13029.0556.17743.0693.09988.0282.22155.0798.2327.1672.01217.0864-.05171.236-.10494.2754-.03751.0283-.08923.0798-.13232.1324-.01064.0131-.01926.0222-.02687.0298-.02028.0212-.02737.0283-.04461.1217-.02535.1355-.09379.3214-.09632.3295-.00355.0086-.00964.0161-.01826.0207-.01267.0071-.05627.0298-.09074.0298zm-.2474-.858c.0071.0122.04563.0405.12877.0703.06286.0227.08466.1036.09784.1526.00153.0081.00355.0156.00558.0197.0071.0187.00761.0556.00659.1637-.00101.0348-.00152.0823 0 .0925.00203.0121.00406.0454.00913.1025.00355.049.01064.1324.01571.1738.00659-.0025.01521-.006.02282-.0096.01673-.0464.06793-.194.08821-.3021.01977-.1081.03194-.1279.06489-.1622.00659-.0066.0142-.0142.02281-.0248.04715-.0566.10444-.1142.14652-.1455.02687-.0202.08263-.1394.07452-.2016-.00355-.0258-.06033-.0682-.17592-.1016-.02636-.007-.18504-.0626-.2114-.0894-.02079-.0202-.2403-.1986-.28086-.2147-.06794-.0268-.17288-.1966-.18403-.2638-.01318-.0788.04867-.1612.07097-.1834.00862-.0086.02434-.0192.04867-.0192.01876 0 .03701.0061.05273.0121.0076.0026.01571.0051.02281.0066.04918.0081.08821.0596.08821.0985v.0187c.00812-.0096.01673-.0222.02231-.0374.02383-.0662.09582-.1177.15108-.142.01318-.0055.02636-.0091.04055-.0091.03904 0 .06946.0233.09126.0405.00456.0035.00862.006.01217.0091.00861-.001.02382-.0081.03599-.0218.00862-.0096.01825-.0252.01521-.0464-.00659-.0531-.00456-.0768-.00304-.1067.00152-.0176.00253-.0379.00253-.0692-.00253.001-.00507.002-.00659.003-.0223.0096-.04968.0208-.07655.0182-.01166.0021-.04664.0374-.0654.0556-.03143.0324-.06236.0632-.09379.0723-.06793.0202-.13232-.0334-.14093-.1137-.00254-.0263-.00812-.0718-.01268-.1076-.06489.0318-.18048.0919-.26312.151-.06945.0501-.2043.2269-.26311.3148.02129.0202.10139.0516.15361.0556.06185.0046.10393.0803.14246.1582.00355.008.00659.0151.00912.0192.01065.0091.036.0252.0583.0389.07757.0505.11458.0778.12421.1101.00304.002.0218.0121.03194.0172.02687.0136.06743.0344.05881.0758-.0071.0354-.04867.0561-.1014.0808-.01571.0076-.03092.0152-.04258.0218-.00862.0222-.00203.1015.00152.1404.00304.0334.00507.0602.00355.0783z"/><path d="m4.17504 21.1579c-.0578 0-.09886-.0273-.10241-.0687-.00152-.0127-.01825-.041-.03498-.0496-.03549-.0171-.06895-.0363-.08974-.0808-.01774-.0389-.02535-.1112-.02585-.1198-.00051-.005 0-.0106.00203-.0161l.0223-.0687c.00558-.0172.0218-.0283.04005-.0273.00659 0 .16122.0096.30013.0662.01115.0045.01876.0131.02281.0242.00355.0111.00254.0238-.00405.0334-.02079.0343-.04563.0793-.04817.0914 0 .0046-.00152.0162-.00202.0313-.00812.1152-.01471.1809-.06692.185h-.01318zm-.02383-.0834c.00253.001.00659.0025.01115.003.00659-.0288.01065-.0864.01217-.1111.00101-.0187.00253-.0339.00355-.0399.00304-.0177.01825-.048.03447-.0763-.0801-.0258-.15919-.0369-.20076-.042l-.00963.0303c.00253.0268.01014.0682.01876.0864.00862.0197.0223.0288.05171.043.04157.0207.07199.0692.07807.1061h.00051z"/><path d="m4.82564 22.7248c-.00558 0-.01116-.0015-.01673-.0036-.01623-.008-.02535-.0252-.02231-.0429.00913-.0531.01774-.1182.01724-.1354-.00507-.0157-.00558-.0394-.00609-.0778 0-.0182 0-.0369-.00202-.0511-.00102-.0116-.01471-.0389-.02434-.0591-.01419-.0273-.02585-.0515-.02839-.0722-.00355-.0283-.01774-.0571-.04411-.088-.02433-.0288-.0365-.0651-.04664-.097-.00709-.0217-.01419-.0444-.02382-.0561-.0213-.0262-.03144-.0576-.03904-.0828-.00355-.0096-.00761-.0223-.00963-.0253-.04563-.046.03092-.1698.03244-.1703.01572-.0202.0654-.0449.10444-.0616.00152-.0005.00304-.0015.00507-.0015.06996-.0197.09734-.0258.109-.0273.00811-.0051.02382-.0187.03244-.0283-.00355-.0131-.00862-.0288-.01419-.043-.00761-.0176-.00811-.0404-.00558-.0621h-.00101c-.00862.0066-.02079.0141-.04158.0162-.03599.0045-.06489-.0021-.11406-.0187-.01623-.0051-.0218-.0056-.0218-.0056-.01673.0015-.02789-.0055-.03752-.0121-.03194-.0207-.04867-.0288-.05729-.0318-.00202-.0006-.02129 0-.037.003h-.00254c-.00355.006-.00862.0162-.01217.0247-.00405.0314-.00862.0688-.00862.0768 0 .0551-.1095.087-.14448.087-.00609 0-.01166-.0006-.01724-.0021-.08922-.0197-.10798-.0328-.11559-.0561-.01014-.0303.02079-.1035.03093-.1232-.00051-.0046-.00355-.0122-.00558-.0172-.00659-.0182-.01622-.044-.00152-.0677.01267-.0207.0365-.042.04157-.0465.00659-.0061.01622-.0091.02586-.0091.0076 0 .04816 0 .06742.004.00152 0 .00812-.003.01521-.0055.01065-.0167.02991-.0445.04208-.0566l.00304-.003c.01166-.0122.02282-.0228.02484-.045.00203-.0238.00001-.0369-.00253-.0526-.00152-.007-.00253-.0141-.00355-.0217-.00101-.0061-.00405-.0106-.01419-.0212-.00558-.0066-.01116-.0132-.01623-.0207-.02332-.0349-.03346-.0581-.03346-.0789 0-.0353.01673-.0636.04512-.0783.00761-.004.03701-.0273.06236-.051.01318-.0116.03245-.0136.04816-.0046.00203.0016.06084.0369.12776.0961.06489.057.28137.3562.33967.4628.05931.1076.11407.4189.06185.721-.05171.2956-.22864.5012-.23574.5093-.00811.0091-.01876.0142-.03042.0142h.00051zm-.17998-.8373c.00913.0132.01369.0293.01977.047.00609.0197.01319.042.02586.0566.01876.0233.02839.0526.03752.0819.00861.0262.01723.053.03143.0697.03751.0435.05779.0864.06235.1309.00102.0075.01268.0303.02028.0454.01471.0298.03042.0607.03296.088.00152.0156.00152.0363.00152.0571 0 .0192.0005.048.00304.056.00101.0021.00253.0056.00355.0132.04867-.0839.10595-.2042.12978-.3451.04867-.2805 0-.574-.05272-.6695-.05323-.0965-.26515-.3906-.32294-.4411-.0365-.0324-.07047-.0571-.09227-.0718-.01825.0162-.04208.0354-.05678.043 0 0-.00152.0015-.00152.007 0 0 .00203.0076.02028.0349.00304.0046.00659.0091.01014.0126.01216.0142.02889.0334.03244.0632.00102.0071.00152.0126.00304.0182.00305.0187.00659.0389.00406.0733-.00456.0515-.03346.0798-.04867.0955-.00862.008-.02738.0343-.04056.0555-.00355.0056-.00912.0112-.01571.0142-.01014.005-.05019.0217-.07503.0167-.00558-.0016-.0218-.0021-.03701-.0026-.00355.0036-.00609.0066-.00862.0096.00101.0021.00152.0046.00253.0071.0071.0202.01825.0505.00203.0788-.00659.0111-.01521.0359-.02028.0541.01065.0035.02738.0081.0507.0131.01622 0 .05019-.0136.0654-.0237.00203-.0243.00811-.0627.00963-.0758 0-.002.00101-.0046.00152-.0066.00963-.0268.02991-.0732.06794-.0798l.00861-.0015c.02231-.0046.05425-.0081.07757 0 .01876.0065.04208.0192.07351.0399.01115.0005.02332.004.04208.0101.04512.0146.05931.0172.07858.0146.00253 0 .00456-.001.00659-.0025.01014-.0071.02281-.0146.04512-.0146.02788 0 .05425.0075.05729.0081.02078.0055.03295.0267.02839.0469-.00507.0208-.00761.048-.00558.0556.01014.0248.01774.0526.02129.0677.00609.0223-.00507.0389-.0147.0506 0 .0005-.05171.0621-.09024.0621-.0076.001-.05374.0131-.09277.0248-.03245.0141-.06591.0318-.07351.0384-.00761.0096-.02535.0545-.02738.0732z"/><path d="m10.3313 24.7348c-.0066 0-.0132-.001-.0193-.003-.0243-.0086-.0405-.0308-.0405-.0566l.0015-.6472c0-.0142.0051-.0278.0142-.0384l.9688-1.1283c.0167-.0187.0431-.0253.0669-.0162.0239.0091.0391.0324.0381.0571l-.0031.0829c-.004.1329-.0045.1374.0086.2016.0097.047.0512.0662.0517.0667.0168.0076.0295.0222.0345.0404.0046.0177 0 .0369-.0106.051l-1.0631 1.3678c-.0117.0147-.0294.0228-.0477.0228zm.0608-.6851v.4507l.9177-1.1808c-.0259-.0258-.0502-.0617-.0599-.1087-.0121-.0571-.0147-.0803-.0131-.143l-.8442.9823h-.0005z"/><path d="m9.06815 22.5357c-.00608 0-.01166-.001-.01774-.0025-.02535-.0076-.04309-.0308-.04259-.0576l.03955-2.2252c0-.0197.01064-.0384.02737-.049.13688-.089.26059-.1294.39088-.1294.13891 0 .2692.0465.38985.098.05374.0228.1161.0344.18553.0344.1876 0 .361-.0854.3625-.0859.0183-.0091.0406-.0081.0578.0025.0177.0111.0284.0304.0284.0511 0 .0161.0071 1.6426 0 2.1994 0 .0182-.0086.0359-.0233.047-.0147.0106-.034.0147-.0522.0096-.2677-.0732-.50752-.1106-.71183-.1106-.45678 0-.58301.1884-.58453.19-.01065.0176-.03042.0277-.05019.0277h.0005zm.09937-2.251-.03701 2.054c.09987-.0667.27731-.1405.57237-.1405.19569 0 .41972.0324.66922.095.004-.5275 0-1.7007-.001-2.0327-.0781.0283-.1998.0631-.3296.0631-.08564 0-.16372-.0151-.23267-.0444-.14854-.0627-.24841-.0884-.34271-.0884-.09429 0-.19315.0303-.2986.0939z"/><path d="m9.05714 22.5293c-.01926 0-.03751-.0091-.04917-.0248-.07148-.102-.24943-.1551-.51457-.1551-.37263 0-.78935.1061-.79392.1071-.01774.0046-.0365.0005-.0512-.0106s-.02332-.0283-.02332-.0465l-.02535-1.9427c0-.0182.00811-.0354.02281-.047.01369-.0117.03245-.0157.0507-.0117 0 0 .07706.0167.19265.0167.14296 0 .35792-.0257.56628-.149.14804-.0874.29455-.1319.43549-.1319.1678 0 .26819.0647.27224.0667.01724.0116.02738.0308.02687.0515 0 0-.0294 1.2849-.04968 2.2187 0 .0258-.01775.0485-.04208.0566-.00608.0015-.01166.002-.01775.002zm-.56374-.2986c.22357 0 .3929.0359.50646.1071.01774-.8216.04106-1.8432.04613-2.0504-.03295-.0142-.0943-.0339-.17845-.0339-.11914 0-.24537.0384-.37465.1152-.23169.137-.46844.1653-.62712.1653-.0583 0-.10799-.0041-.145-.0081l.02282 1.7973c.13992-.0309.45374-.093.74981-.093z"/><path d="m9.05714 22.5293c-.01926 0-.03751-.0091-.04917-.0248-.07148-.102-.24943-.1551-.51457-.1551-.37263 0-.78935.1061-.79392.1071-.01774.0046-.0365.0005-.0512-.0106s-.02332-.0283-.02332-.0465l-.02535-1.9427c0-.0182.00811-.0354.02281-.047.01369-.0117.03245-.0157.0507-.0117 0 0 .07706.0167.19265.0167.14296 0 .35792-.0257.56628-.149.14804-.0874.29455-.1319.43549-.1319.1678 0 .26819.0647.27224.0667.01724.0116.02738.0308.02687.0515 0 0-.0294 1.2849-.04968 2.2187 0 .0258-.01775.0485-.04208.0566-.00608.0015-.01166.002-.01775.002zm-.56374-.2986c.22357 0 .3929.0359.50646.1071.01774-.8216.04106-1.8432.04613-2.0504-.03295-.0142-.0943-.0339-.17845-.0339-.11914 0-.24537.0384-.37465.1152-.23169.137-.46844.1653-.62712.1653-.0583 0-.10799-.0041-.145-.0081l.02282 1.7973c.13992-.0309.45374-.093.74981-.093z"/><path d="m10.2186 23.8208c-.0071 0-.0137-.001-.0203-.0035-.0233-.0081-.039-.0294-.0395-.0546l-.0162-.4997c0-.0157.0056-.0309.0162-.0425l.8532-.9125c.0168-.0177.0431-.0238.0659-.0142.0228.0091.0376.0314.0376.0561l-.0016.0718c-.0015.1152-.002.1172.0107.1708.0081.0358.04.0505.041.0515.0178.0076.031.0232.035.0414.0041.0182 0 .0379-.0127.0521l-.9242 1.0626c-.0116.0131-.0283.0207-.0451.0207zm.0441-.5366.0107.3229.7822-.8989c-.0197-.0207-.0385-.0501-.0476-.089-.0107-.0464-.0142-.0687-.0142-.1162l-.7316.7817z"/><path d="m11.0565 22.3928h-.0051l-.3265-.0268c-.0329-.003-.0578-.0313-.0547-.0642.0025-.0328.0309-.0571.0644-.0545l.3264.0267c.033.0026.0573.0314.0548.0642-.0025.0313-.0284.0546-.0593.0546z"/><path d="m10.2057 23.8274c-.0046 0-.0096 0-.0142-.0016l-3.03777-.7356c-.06793-.0132-.20279-.091-.20633-.2921-.00203-.0854.01977-.1521.06438-.197.06337-.0642.14702-.0566.14702-.0566.00203 0 .00456.001.0071.0015l3.053.6361c.0284.0056.0481.0303.0476.0581v.5286c0 .0176-.0096.0353-.0238.0464-.0107.0086-.0238.0127-.037.0127zm-3.05907-1.1642c-.00912 0-.03194.003-.04968.0207-.02078.0217-.03092.0596-.02991.1117.00304.1496.10139.1753.11255.1778l2.96681.7185.001-.4042z"/><path d="m7.06183 22.694c-.01623 0-.03245-.0061-.04462-.0197-.0223-.0243-.01977-.0622.00507-.0844l.34424-.3108c.02433-.0217.06235-.0202.08466.0046.0218.0242.02028.0621-.00456.0839l-.34474.3112c-.01116.0101-.02586.0152-.04005.0152z"/><path d="m7.71072 23.2185c-.03346 0-.06033-.0268-.06033-.0597v-.4168c0-.0328.02687-.0596.06033-.0596s.05932.0268.05932.0596v.4168c0 .0334-.02637.0597-.05932.0597z"/><path d="m7.99877 23.2911c-.03295 0-.05932-.0268-.05932-.0596v-.4058c0-.0328.02637-.0596.05932-.0596s.06084.0268.06084.0596v.4058c0 .0328-.02738.0596-.06084.0596z"/><path d="m9.2942 23.5907c-.03296 0-.05982-.0267-.05982-.0596v-.4371c0-.0328.02636-.0596.05982-.0596s.05982.0268.05982.0596v.4371c0 .0329-.02687.0596-.05982.0596z"/><path d="m10.3149 24.7298c-.0061 0-.0112-.0005-.0162-.0021l-3.47884-.9741c-.0796-.0177-.22611-.1092-.22611-.334 0-.2072.12167-.2804.22611-.2804h.01369c.00304.0005.00608.0005.00861.002l3.48644.8408c.0269.0065.0461.0308.0461.0576v.6305c0 .0187-.0086.0364-.0233.048-.0106.0076-.0233.0117-.036.0117zm-3.49555-1.4719c-.04157 0-.10646.0227-.10646.1612 0 .1814.12066.2142.13434.2178l3.40787.9544v-.5053l-3.43575-.8286z"/><path d="m6.72173 23.2911c-.01622 0-.03295-.007-.04461-.0207-.0218-.0247-.01978-.0626.00557-.0844l.3123-.2718c.02534-.0212.06286-.0192.08466.0061.0218.0247.01926.0621-.00558.0843l-.3128.2714c-.01115.0096-.02535.0146-.03954.0146z"/><path d="m11.3002 22.9436h-.0061l-.2748-.0273c-.0329-.0035-.0572-.0323-.0542-.0647.003-.0328.0319-.0566.0654-.0541l.2748.0273c.0329.0036.0568.0324.0532.0652-.0025.0308-.0289.0536-.0588.0536z"/><path d="m7.19239 23.8242c-.0223 0-.04005-.0182-.04005-.0399v-.4719c0-.0217.01775-.0399.04005-.0399.02231 0 .03955.0182.03955.0399v.4719c0 .0217-.01775.0399-.03955.0399z"/><path d="m9.21532 24.3906c-.0223 0-.03954-.0177-.03954-.0404v-.5512c0-.0223.01775-.04.03954-.04.0218 0 .03955.0177.03955.04v.5512c0 .0222-.01724.0404-.03955.0404z"/><path d="m9.07035 20.218c-.24638 0-.45525-.1556-.52015-.3865-.00405-.0157.00102-.0319.01318-.0415.01217-.0101.02941-.0121.0436-.004 0 0 .03853.0197.09227.0374-.04715-.0682-.08111-.1521-.10088-.2228-.00457-.0152 0-.0319.01318-.0415.01216-.0101.02889-.0116.0436-.004 0 0 .04207.0217.09835.0409-.03296-.0546-.0578-.1182-.07301-.1733-.00405-.0157.00102-.0318.01319-.0419.01267-.0101.02991-.0112.0441-.0046.00102 0 .08314.044.15463.0571.06641-.0763.08162-.1814.09277-.2592.01065-.0717.01977-.1389.08112-.1389.05576 0 .0659.0596.07756.1283.01268.0768.03042.1799.09785.2577.07655-.0121.16375-.046.16476-.0465.01369-.0045.02941-.002.04107.0081.01064.0101.01571.0258.01166.0404-.01572.0551-.04056.1187-.07402.1738.05627-.0192.09835-.0414.09886-.0414.01419-.0081.03143-.0061.04411.004.01216.0096.01723.0263.01318.0415-.01876.0682-.05425.1536-.10241.2243.05425-.0187.09277-.0394.09328-.0394.0142-.0081.03143-.0061.0436.004.01268.0096.01825.0258.01369.0415-.06489.2309-.27376.3865-.52015.3865zm-.40963-.3229c.07605.1486.23118.2436.40963.2436.17846 0 .33308-.095.40963-.2431-.0436.0157-.09835.0319-.15564.0379-.01774.0016-.03498-.0086-.04157-.0257-.00659-.0172 0-.0364.01471-.0465.05576-.0379.10494-.1177.13789-.1976-.04309.0162-.09835.0334-.15412.0389-.01723.002-.03498-.0081-.04106-.0252-.00659-.0172 0-.0364.01369-.0465.04055-.0283.07706-.09.10291-.1541-.03751.0111-.08365.0227-.12573.0273-.01216.001-.02382-.0031-.03244-.0117-.09683-.0965-.11914-.2278-.13334-.3137 0 0 0 .0055-.00152.008-.01267.0885-.03143.2224-.12826.3189-.00811.0086-.02028.0126-.03245.0116-.03802-.0046-.0801-.0172-.11559-.0303.02535.0596.05983.1162.09684.1435.0147.0106.02078.0293.01419.0465-.00659.0166-.02383.0277-.04157.0252-.05526-.0055-.10951-.0217-.15311-.0379.03296.0799.08112.1587.13689.1971.01521.0101.02078.0293.0147.046-.00609.0171-.02434.0278-.04157.0257-.05628-.006-.11052-.0217-.15361-.0369v-.001z"/><path d="m2.88395 15.6797c-.01673 0-.03397-.0071-.04563-.0213-.02129-.0252-.01825-.0631.00761-.0838l.45475-.381c.02585-.0212.06388-.0177.08415.0076.0213.0247.01826.0626-.00709.0838l-.45577.381c-.01064.0096-.02484.0142-.03853.0142z"/><path d="m2.86634 16.0333c-.01724 0-.03397-.0071-.04614-.0212-.02078-.0253-.01723-.0627.00761-.0839l.46438-.3855c.02535-.0212.06236-.0177.08416.0076.02129.0252.01774.0626-.00761.0839l-.46438.3855c-.01166.0096-.02484.0141-.03853.0141z"/><path d="m3.12303 16.6494c-.32496 0-.58656-.2546-.59569-.578 0-.0162.00609-.0318.01673-.043.01116-.0116.02687-.0181.04259-.0181h1.07224c.01622 0 .03194.0065.04258.0181.01166.0112.01775.0268.01673.043-.00862.3239-.27072.578-.59568.578zm-.47097-.5204c.03599.2294.23219.4007.47097.4007s.43498-.1718.47098-.4007z"/><path d="m3.92458 15.2971h-1.60304c-.03295 0-.05982-.0267-.05982-.0596v-.2658c0-.0333.02687-.0596.05982-.0596h1.60304c.03295 0 .06033.0268.06033.0596v.2658c0 .0329-.02738.0596-.06033.0596zm-1.54322-.1192h1.48339v-.1465h-1.48339z"/><path d="m3.3666 16.1284h-.51913c-.01673 0-.03194-.0071-.04411-.0182-.01064-.0116-.01673-.0278-.01622-.0445l.04157-.8311c.00203-.0314.02788-.0566.05982-.0566h.43498c.03143 0 .0583.0247.05982.0566l.04158.8215c0 .0046.00101.0086.00101.0127 0 .0333-.02636.0596-.05932.0596zm-.45627-.1192h.3924l-.036-.7125h-.3204z"/><path d="m3.31093 15.0315h-.40862c-.01622 0-.03244-.0066-.0436-.0182-.01115-.0116-.01673-.0278-.01673-.0434l.16528-3.298h-1.27199l.67579 1.527c.00355.0081.00558.0166.00558.0257-.01369.473-.39544.8433-.86945.8433-.47402 0-.856274-.3703-.869456-.8433 0-.0085.001521-.0176.005577-.0257l.808619-1.8322c.00963-.0217.03092-.0353.05475-.0353h1.47832l.02028-.4179c.00203-.0313.02788-.0561.06033-.0561.03143 0 .05779.0248.05931.0561l.0213.4179h1.49961c.02332 0 .04461.0136.05425.0353l.80912 1.8322c.00355.0081.00507.0166.00507.0257-.01318.473-.39544.8433-.86996.8433s-.85627-.3703-.86895-.8433c0-.0085.00152-.0176.00507-.0257l.67579-1.527h-1.29226l.16629 3.2879c.0005.004.00101.008.00101.0126 0 .0323-.02687.0596-.05982.0596zm-.34626-.1192h.28238l-.14195-2.8058zm.96983-1.6786c.01775.4017.34474.7145.7493.7145s.73156-.3128.74981-.7145l-.78732-1.7836h-1.51736c-.00913 0-.01673-.002-.02383-.005-.0076.003-.01572.005-.02383.005h-1.49606l-.787831 1.7836c.018251.4017.345241.7145.749811.7145.40456 0 .73104-.3128.7498-.7145l-.70773-1.5982c-.0076-.0181-.00608-.0394.00507-.0565.01065-.0167.02941-.0273.04969-.0273h1.42559c.01268 0 .02484.004.03498.0111.01014-.0071.02231-.0111.03498-.0111h1.44689c.02028 0 .03904.0106.05019.0273.01065.0166.01268.0379.00457.0565l-.70723 1.5982z"/><path d="m2.14311 13.2634h-1.191887c-.020279 0-.039037-.0106-.050697-.0273-.011153-.0166-.013181-.0379-.004563-.0566l.595177-1.3672c.01014-.0223.03144-.0364.05526-.0364.02383 0 .04512.0141.05476.0364l.59163 1.3592c.00608.009.00963.0207.00963.0318 0 .0333-.02687.0596-.05982.0596h.00051zm-1.10063-.1192h1.00836l-.50444-1.1586-.50443 1.1586z"/><path d="m5.28153 13.2634h-1.19189c-.02028 0-.03903-.0106-.05019-.0273-.01166-.0166-.01318-.0379-.00507-.0566l.59569-1.3672c.00913-.0223.03093-.0364.05475-.0364.02383 0 .04512.0141.05476.0364l.59214 1.3592c.00608.009.00963.0207.00963.0318 0 .0333-.02687.0596-.05982.0596zm-1.10114-.1192h1.00887l-.50444-1.1586z"/><path d="m9.34968 13.9536c-.00406 0-.00761 0-.01217-.0015-.02078-.004-.03701-.0187-.0441-.0384-.05577-.1556-.15615-.3279-.21242-.3279-.00609.0005-.01775.003-.03499.0055-.07148.0127-.22053.039-.3934.039-.54145 0-.86439-.2527-.93384-.7297-.13688-.9448.2474-1.2576.29708-1.2935.11204-.1031.24639-.1581.38834-.1581.24994 0 .48314.1758.53029.4012.05729.2733-.09125.6088-.16882.6427-.01622.007-.03397.0106-.05272.0106-.09582 0-.20381-.0985-.26667-.1652-.02636.0343-.06286.0985-.08618.1844-.0289.1056-.0431.2648.05323.4209.0512.0834.13941.1177.30114.1177.04816 0 .09733-.003.15057-.005.05272-.0036.10747-.0061.16121-.0061.1379 0 .31128.0182.42535.1612.22205.2789.05931.5952-.05729.723-.01217.0127-.02839.0197-.04461.0197zm-.26819-.4871c.12573 0 .22662.1774.2839.3052.06439-.1066.13993-.3011-.0076-.486-.06489-.0814-.16426-.1163-.33156-.1163-.05069 0-.10342.0031-.15513.0056-.05171.003-.10494.0056-.15665.0056-.13739 0-.30773-.0192-.40304-.1739-.13739-.2223-.09176-.4476-.05273-.5618.03448-.1006.10342-.2198.17237-.2451.02383-.0096.0512-.002.06793.0177.07706.0935.17085.1667.21344.1672.04005-.05.15057-.294.10494-.5098-.03599-.1718-.21698-.3062-.41318-.3062-.11255 0-.21952.0445-.30976.1289-.00202.002-.00456.0045-.0076.006 0 0-.09531.0677-.17338.2436-.07301.1652-.1455.4613-.07656.9368.06084.4168.33511.628.81572.628.16172 0 .30468-.0252.37262-.0369.02078-.0035.03599-.006.0441-.007.00507-.0011.00862-.0011.01167-.0011z"/><path d="m9.10249 14.7596c-.17542 0-.30317-.0435-.38936-.1339-.26413-.2754-.0512-.665.09785-.8322.01217-.0136.02839-.0212.04715-.0202.01774.001.03447.0096.04512.0237.00355.0046.08263.1097.18504.2688.01166.0177.01268.041.00304.0597-.00608.0121-.00862.0197-.00912.0227.00608.0035.02636.0121.07908.0121.06692 0 .16173-.0146.26768-.0409.28239-.0712.5019-.0243.60833.1299.1019.1465.0664.3102-.10592.4865-.01572.0162-.03954.0218-.06134.0152-.0218-.0071-.03752-.0258-.04056-.048-.00254-.0152-.02788-.0227-.07453-.0227-.06539 0-.15716.0156-.255.0328-.12471.0222-.26667.0465-.39848.0465zm-.24842-.8277c-.0872.1233-.24993.4078-.05475.6114.06286.0652.16223.097.30317.097.12167 0 .25804-.0232.3782-.0444.10291-.0182.19974-.0344.27528-.0344.06641 0 .11103.0147.14043.0354.1131-.141.08111-.2264.0436-.2799-.05121-.0743-.14094-.1112-.26717-.1112-.06388 0-.13587.0096-.21394.0288-.08112.0207-.19874.0455-.29658.0455-.09785 0-.15412-.0233-.18302-.0703-.01318-.0222-.02382-.0571-.0076-.1061-.04664-.0707-.08771-.1303-.11711-.1718z"/><path d="m9.16222 14.28h-.01927c-.01825-.0005-.03599-.0096-.04714-.0247l-.4654-.6493c-.01318-.0177-.0147-.0414-.00507-.0617.01014-.0197.02991-.0323.05222-.0323.15209-.0025.28441-.0263.34879-.0369.02028-.0035.03549-.006.0436-.007.00203 0 .00558-.0011.00811-.0011h.00507c.01927.0016.03904.0117.04969.0278l.41723.6377c.01065.0167.01267.0374.00507.0556s-.02383.0318-.0436.0353c-.01774.0036-.03549.0071-.05425.0117-.0806.0207-.19771.0454-.29606.0454h.00101zm-.37009-.6548.38378.5351c.06033-.0015.13941-.0132.22763-.0349l-.34981-.5351s-.00355.001-.00659.001c-.0507.0091-.14347.0253-.25501.0334z"/><path d="m10.3491 16.649c-.0026 0-.0076 0-.0107-.0005-.077-.0107-.1014-.09-.1222-.1597-.0137-.046-.0299-.0975-.0567-.1278-.0173-.0197-.0381-.0384-.0599-.0587-.0679-.0616-.14497-.1313-.15206-.2632-.00102-.0167-.00203-.0328-.00254-.049-.0071-.1486-.01064-.2223-.12725-.3269-.04867-.0435-.10545-.0612-.17135-.0819-.11407-.0354-.24385-.0753-.35184-.2577-.17947-.3036.15868-.6174.17339-.6306.01216-.0111.02889-.0166.04512-.0146.01622 0 .03143.0086.04157.0212.18808.2314.23827.3345.25044.3825.00963-.001.01977-.002.03042-.0035.03954-.0046.08821-.0106.13891-.0106.07099 0 .12979.0121.17899.0358.2088.1041.2007.2906.1764.4219-.0335.1845.0258.2411.0887.3007.0467.0444.0989.094.1019.1834.0041.1384-.0223.5235-.109.6124-.0228.0232-.0466.0278-.0629.0278v-.001zm-.84415-1.8216c-.07351.0849-.20329.2704-.10646.4356.08466.143.18149.1728.2839.2046.07301.0223.14753.046.21597.1066.15364.138.15914.2582.16684.4103 0 .0152.0015.0314.0025.048.004.0829.0517.1263.113.1819.0234.0207.0467.043.069.0677.0441.0501.0644.1152.0811.1723.0041.0132.0091.0293.0142.044.0309-.0935.0613-.3173.0563-.4856-.001-.0389-.0213-.0596-.0644-.1005-.0715-.0672-.1693-.1607-.1242-.4083.0289-.1566-.0026-.239-.1126-.2941-.0319-.0156-.073-.0232-.12569-.0232-.0436 0-.0867.005-.12421.0101-.02941.0035-.05526.0066-.07706.0066-.01318 0-.05526 0-.07858-.0334-.00862-.0116-.01977-.0364-.00811-.0702-.01572-.0445-.09734-.1627-.182-.2713v-.0011z"/><path d="m10.1606 15.2336c-.0106 0-.0213-.0025-.0314-.0086-.0081-.0055-.0178-.0106-.0274-.0156-.0319-.0157-.0735-.0233-.12573-.0233-.0436 0-.08669.0051-.1242.0101-.01471.0015-.0284.0036-.04006.0046-.02129.002-.04207-.0076-.05475-.0243l-.12116-.1688c-.03752-.056-.08061-.1157-.11154-.1556l-.11254-.1571c-.01268-.0167-.01471-.0379-.00659-.0571.0076-.0192.02484-.0324.04512-.0359l.02788-.005c.13029-.0223.25196-.0425.33105-.0309.01724.0021.03245.0117.04157.0263l.35535.5437c.0097.0106.0152.0242.0152.0394 0 .0333-.0263.0596-.0598.0596h-.001zm-.59568-.531.05627.0783c.03042.0399.07605.1015.11357.1591l.09885.1375s.00305 0 .00355-.0005c.03955-.0046.08822-.0106.13891-.0106.01521 0 .02943 0 .04363.0015l-.25301-.3871c-.0512-.0015-.12319.0081-.20177.0218z"/><path d="m11.263 17.0793c-.0117 0-.0233-.0035-.0335-.0101l-.2109-.1435c-.006-.004-.0106-.0085-.0147-.0146l-.5896-.8211c-.0076-.0101-.0111-.0232-.0111-.0354v-.0434c-.001-.0389-.0213-.0596-.0644-.1006-.0715-.0672-.1693-.1606-.1242-.4082.0096-.0546.0127-.0996.0081-.1375-.0041-.0272.0122-.054.038-.0631.0264-.0096.0558 0 .071.0232l.9242 1.4143c.0041.0056.0066.0126.0081.0192l.0573.2476c.0051.0242-.0041.049-.0248.0626-.0102.0066-.0218.0101-.0335.0101zm-.1683-.2455.0755.051-.0208-.0889-.8202-1.2551c-.0279.1718.0299.2263.0912.2839.0467.0445.0989.094.1019.1835v.0283l.5719.7973z"/><path d="m10.7776 20.3354c-.0152-.0117-.0355-.0147-.0532-.0086-.0933.0298-.2089.0566-.3037.0768v.1218c.0776-.0157.1729-.0369.2616-.0617-.001.4128-.0101 1.7078-.0122 2.0272-.1551-.0278-.5399-.0884-.92062-.0884-.26818 0-.48212.0308-.63776.0924-.0071.0147-.01978.0268-.036.0324-.00608.0015-.01166.002-.01774.002-.01927 0-.03752-.0091-.04918-.0248-.00101-.002-.00253-.004-.00456-.006-.11711-.0379-.35589-.0996-.67275-.0996-.28644 0-.57085.0505-.84562.1501-.00355-.4992-.02991-1.5537-.03752-1.8417.03904.0065.09328.0161.15564.0252l-.00101-.1207c-.12269-.0182-.20279-.0344-.20482-.0344-.01774-.0035-.03599.001-.05019.0126-.01419.0117-.0218.0288-.0218.047 0 .0147.04005 1.4825.04005 1.9984 0 .0197.01014.0384.02637.0495.01013.0071.02179.0101.03345.0101.00761 0 .01521-.001.02231-.004.28644-.1147.58352-.1728.88314-.1728.42231 0 .70317.1177.70621.1187.01673.0076.03549.0066.05171-.002.14094-.0748.3635-.1132.66007-.1132.46992 0 .96272.0985.96832.099.0177.0036.0355-.001.0497-.0121.0137-.0111.0223-.0278.0223-.046s.0127-1.8579.0127-2.1797c0-.0187-.0092-.0369-.0249-.0475z"/><path d="m6.11048 18.44c-.36755 0-.70773-.1834-.9095-.4911l-.02129-.0324.02129-.0323c.20177-.3077.54195-.4916.9095-.4916s.70773.1839.9095.4916l.0213.0323-.0213.0324c-.20177.3072-.54195.4911-.9095.4911zm-.78681-.5235c.18149.2542.47249.4038.78681.4038s.60583-.1496.78732-.4038c-.18149-.2541-.47249-.4047-.78732-.4047s-.60481.1506-.78681.4047z"/><path d="m6.32176 17.9099c0 .1167-.09481.2112-.21192.2112s-.2114-.0945-.2114-.2112.0948-.2107.2114-.2107c.11661 0 .21192.0945.21192.2107z"/><path d="m1.36266 23.2134-.08922-.0435.37921-1.0237.27782.1334-.56831.9333zm.34576-.9297-.16173.4355.24233-.3971z"/><path d="m2.40034 23.2134-.56831-.9333.27782-.1334.38023 1.0237-.08974.0435zm-.42636-.8913.24183.3971-.16223-.4355-.0801.0384z"/><path d="m1.88366 22.3504c-.15919 0-.28796-.1289-.28796-.2875 0-.1587.12877-.287.28796-.287s.28796.1288.28796.287c0 .1581-.12928.2875-.28796.2875zm0-.4548c-.09328 0-.16882.0748-.16882.1678s.07554.1682.16882.1682.16832-.0752.16832-.1682-.07554-.1678-.16832-.1678z"/><path d="m18.8862 13.8606c-.0725 0-.1283.0207-.1668.0617-.039.0409-.0654.0904-.0801.1485s-.0223.1208-.0223.188v2.7168c0 .5847-.1612 1.0313-.4831 1.3405-.3225.3093-.7742.4634-1.3557.4634s-1.0398-.1572-1.3591-.4709c-.3199-.3138-.4796-.7635-.4796-1.3476v-2.7457c0-.1066-.0122-.192-.0365-.2577-.0244-.0646-.0994-.0975-.2251-.0975h-.1095v-.0722h1.352v.0722c-.0775 0-.1389.0025-.1855.0071-.0461.005-.0826.0192-.109.0434-.0264.0243-.0451.0602-.0548.1087-.0096.0485-.0147.1137-.0147.1955v2.7598c0 .4447.1035.7964.3093 1.054.2058.2587.5414.3876 1.0063.3876.4264 0 .7574-.1208.9922-.3623.2347-.241.3523-.572.3523-.9919v-2.8689c0-.0723-.0106-.1329-.0324-.1814s-.0594-.0854-.1126-.1122-.1313-.0399-.2327-.0399v-.0722h1.1559v.0722h-.109v.001z"/><path d="m24.0915 13.8935c-.0533.0217-.0908.054-.1126.0975-.0218.0434-.0339.099-.0365.1667-.0025.0677-.0035.1471-.0035.239v4.3318h-.3711l-2.9151-4.1585v3.5284c0 .0914.0015.1702.0041.2354.002.0652.0147.1193.0365.1627.0213.0435.0593.0748.1125.094.0532.0197.1283.0293.2256.0293v.0723h-1.1701v-.0723c.1019 0 .1795-.0096.2327-.0293.0533-.0192.0918-.0495.1166-.0904.0244-.041.037-.094.0396-.1597.0025-.0652.0035-.146.0035-.2425v-3.9341c-.0289-.0627-.0532-.1147-.0725-.1556-.0192-.041-.041-.0723-.0654-.094-.0243-.0217-.0542-.0364-.0907-.0435-.036-.0076-.0908-.0111-.1638-.0111v-.0722h.9592c.4461.671.8989 1.3309 1.3597 1.9781.4603.6473.9136 1.3061 1.3592 1.9772v-3.3465c0-.097-.0015-.1789-.0036-.2466-.0025-.0677-.0142-.1233-.036-.1662-.0218-.0435-.0608-.0748-.1166-.0945-.0557-.0192-.1343-.0288-.2362-.0288v-.0722h1.1777v.0722c-.1019 0-.179.0111-.2327.0329h-.0005z"/><path d="m25.2168 18.6928v-.0723c.0821 0 .1496-.0025.1997-.0075.0518-.0046.0908-.0182.1202-.0395.0289-.0217.0487-.0566.0583-.1051s.0142-.1157.0142-.2031v-4.0493c0-.0869-.0051-.1546-.0142-.2031-.0096-.0485-.0294-.0834-.0583-.1051-.0294-.0217-.069-.0348-.1202-.0399-.0501-.0045-.1176-.0071-.1997-.0071v-.0722h1.4104v.0722c-.0827 0-.1491.0026-.2003.0071-.0507.0051-.0907.0182-.1196.0399s-.0487.0566-.0583.1051-.0142.1162-.0142.2031v4.0493c0 .0869.0046.1546.0142.2031s.0289.0834.0583.1051c.0289.0213.0689.0349.1196.0395.0512.005.1176.0075.2003.0075v.0723z"/><path d="m31.8135 13.9477c-.0456.0581-.0862.1279-.1196.2102l-1.781 4.5854h-.2981l-1.8753-4.5707c-.039-.092-.0862-.1652-.1419-.2213-.0558-.0556-.1344-.0854-.2363-.0905v-.0722h1.2862v.0722c-.0487 0-.0943.001-.1379.0036-.0436.0025-.0801.0121-.1095.0293-.0289.0172-.0466.0419-.0542.0763-.0076.0338.001.0793.0253.1374l1.4829 3.7234 1.3663-3.5642c.0532-.1349.0654-.234.0365-.2966-.0289-.0627-.1212-.0991-.2763-.1092v-.0722h1.0469v.0722c-.0969 0-.1683.0288-.2145.0869z"/><path d="m35.5094 18.6928h-3.3141v-.0723c.1501 0 .2449-.0207.2834-.0616.0385-.0414.0583-.139.0583-.2936v-4.0493c0-.1546-.0198-.2526-.0583-.2935-.0385-.041-.1333-.0617-.2834-.0617v-.0722h3.2411l.0076.7463h-.1019c-.0239-.1834-.0811-.2961-.1709-.3371-.0897-.0409-.219-.0611-.3883-.0611h-1.4687c-.0826 0-.1293.0081-.142.0253-.0116.0172-.0177.0641-.0177.1409v1.6589h1.4758c.077 0 .145-.0036.2028-.0111.0588-.0071.1059-.0228.1419-.0465.037-.0243.0644-.0607.0842-.1087.0192-.048.0339-.1137.0436-.196h.0943v1.0944h-.0943c-.0097-.0869-.0244-.1546-.0436-.2031-.0198-.0485-.0472-.0859-.0842-.1122-.036-.0268-.0821-.0434-.1379-.051-.0562-.0071-.1247-.0106-.2068-.0106h-1.4758v1.8902c0 .0435.0132.0763.0395.098.0269.0218.0583.0354.0948.04.036.005.0746.006.1161.0035.0411-.0025.0761-.0035.1055-.0035h1.199c.1161 0 .2164-.0061.3016-.0182.0847-.0122.1607-.0374.2287-.0758.0679-.0384.1282-.0905.1815-.1557.0532-.0651.1044-.1536.1526-.2647h.1166l-.182.862z"/><path d="m39.3972 18.6928c-.1166-.2557-.2327-.4866-.3488-.6918-.1166-.2056-.2429-.3971-.3782-.5765-.1364-.1783-.2839-.3501-.4436-.5138-.1597-.1643-.3412-.336-.545-.5144l-.5232.0071v1.8619c0 .0824.0051.1475.0142.1955.0101.0491.0269.0849.0512.1092.0243.0242.0603.0384.1095.0434.0482.0051.111.0076.1886.0076v.0723h-1.3227v-.0723c.073 0 .1323-.0035.178-.0116.0456-.0071.0806-.0227.1054-.0465.0238-.0242.0401-.0591.0472-.1051.0071-.0465.0106-.1101.0106-.1925v-4.0493c0-.0773-.0035-.1399-.0106-.1884-.0071-.048-.0234-.0844-.0472-.1082-.0248-.0242-.0598-.0404-.1054-.047-.0462-.0075-.1055-.0111-.178-.0111v-.0722h1.7369c.2134 0 .4177.0232.6144.0692s.3691.1192.5197.2208c.1506.101.2702.2344.3594.3981.0898.1643.1349.3674.1349.6084 0 .1834-.0345.3441-.1019.4815-.068.138-.1597.2537-.2763.3482-.1161.0939-.2494.1702-.4.2284-.1501.0576-.3077.0985-.4725.1227.1404.1162.2545.2148.3417.2971.0872.0824.1637.1602.2291.2355s.1293.1526.1932.2319c.0623.0793.1379.1728.2256.2789.0968.1208.1886.2572.2758.4093s.1683.2946.2433.427c.0756.1334.1445.245.2074.337.0628.0914.1237.1379.1815.1379v.0723h-.8142zm-2.2393-2.6371h.3488c.1744 0 .3452-.0151.5125-.0465.1673-.0313.3184-.0869.4543-.1667.1353-.0798.2443-.1869.3265-.3229.0826-.1349.1242-.3041.1242-.5068 0-.1788-.034-.3259-.1019-.4421-.068-.1157-.1587-.2061-.2728-.2713-.114-.0652-.2433-.1097-.3888-.1344-.1455-.0243-.2936-.0359-.4431-.0359h-.145c-.0487 0-.0999.0025-.1526.0071-.0532.005-.1029.0172-.149.0364-.0467.0192-.0837.0459-.1131.0793z"/><path d="m41.0913 18.5947c-.0243.0223-.036.0521-.036.0905h-.0872l-.0365-1.057.0142-.0218h.0659c.0872.2077.2044.3744.3524.4997.148.1254.3037.2163.4689.2719.1648.0556.3321.0783.5019.0687.1694-.0091.323-.05.4609-.1228.1384-.0727.2499-.1728.3351-.3006.0846-.1279.1267-.2789.1267-.4527 0-.2077-.0563-.3815-.1708-.522-.1141-.14-.2561-.2668-.4254-.3805-.1693-.1132-.3554-.2218-.5561-.3259-.2008-.1036-.3863-.2193-.5557-.3476-.1698-.1283-.3118-.2774-.4253-.4492-.1136-.1718-.1709-.385-.1709-.6412 0-.1885.0401-.3562.1197-.5032.0801-.1476.1855-.2739.3163-.3805.1313-.1061.2804-.187.4477-.2425.1668-.0556.3376-.0834.5125-.0834.1014 0 .2023.0081.3017.0252.0993.0172.1972.04.294.0688.0102.005.037.0136.0801.0257.0436.0117.0908.0253.142.0394.0507.0147.0983.0278.1414.04.0441.0116.068.0176.073.0176.0822-.0096.1288-.0555.1384-.1374h.0801c.0193.1789.0375.3623.0548.5508.0167.1884.0197.3718.0106.5507h-.0796c-.0639-.1834-.1581-.3355-.2839-.4563-.1262-.1202-.2651-.2122-.4182-.2748-.1521-.0632-.3108-.0945-.4756-.0945-.1647 0-.3067.0293-.44.0869-.1333.0581-.2418.145-.3265.2607-.0852.1157-.1278.2582-.1278.4275 0 .1303.035.245.105.3441.0705.099.1541.19.2514.2718.1263.1016.2586.1956.3995.2825.1405.0869.2834.1692.4289.246l-.0512-.0212c.1597.0824.3138.1713.4614.2678.148.097.2803.2057.3964.3259.1161.1213.2084.2572.2763.4098.068.1521.1014.3274.1014.525 0 .2076-.0456.3921-.1379.5543-.0923.1616-.2124.2981-.3599.4092-.1481.1117-.3138.1961-.4979.2537-.184.0581-.3706.0869-.5602.0869-.2028 0-.3969-.0243-.581-.0723-.184-.0485-.3736-.099-.5668-.1521-.0339.0046-.0633.0182-.0877.0395v-.0011z"/><path d="m44.5664 18.6928v-.0723c.0821 0 .1491-.0025.2003-.0075.0507-.0046.0902-.0182.1196-.0395.0294-.0217.0487-.0566.0583-.1051.0091-.0485.0147-.1157.0147-.2031v-4.0493c0-.0869-.0056-.1546-.0147-.2031-.0096-.0485-.0289-.0834-.0583-.1051s-.0689-.0348-.1196-.0399c-.0507-.0045-.1182-.0071-.2003-.0071v-.0722h1.4099v.0722c-.0826 0-.1486.0026-.2003.0071-.0502.0051-.0907.0182-.1196.0399-.0294.0217-.0482.0566-.0583.1051-.0096.0485-.0142.1162-.0142.2031v4.0493c0 .0869.0046.1546.0142.2031.0101.0485.0289.0834.0583.1051.0289.0213.0694.0349.1196.0395.0517.005.1177.0075.2003.0075v.0723z"/><path d="m46.8848 18.6205c.072 0 .1328-.0025.1815-.0075.0481-.0046.0846-.0192.109-.0435.0238-.0243.041-.0601.0507-.1091.0101-.048.0147-.1132.0147-.1956v-4.0493c0-.0823-.0046-.1475-.0147-.1955-.0097-.0485-.0269-.0844-.0507-.1086-.0244-.0243-.0609-.0384-.109-.0435-.0487-.0045-.1095-.0071-.1815-.0071v-.0722h1.6861c.4021 0 .7691.05 1.1012.1485.332.0991.6165.2501.8537.4528.2378.2031.4218.4587.5526.768.1313.3087.1967.674.1967 1.0939 0 .3527-.0558.6821-.1673.9888-.1115.3062-.3052.5781-.582.8145-.2814.2415-.5952.4083-.9445.5003-.3488.0914-.7052.1374-1.0682.1374h-1.6283zm.9733-.4492c0 .0435.0173.0773.0518.1016.0334.0243.0745.0419.1237.0541.0481.0121.0963.0192.145.0217.0481.0025.0846.0035.1095.0035.3533 0 .6763-.0399.9662-.1197.2905-.0794.5379-.2052.7417-.3765.2033-.1717.3605-.391.472-.6593.1116-.2678.1678-.5902.1678-.9671 0-.377-.0542-.6675-.1602-.9308-.1064-.2632-.258-.482-.4542-.6558-.1967-.1738-.4335-.3027-.7128-.3876-.2788-.0843-.5896-.1263-.9339-.1263-.0872 0-.1774.0071-.2692.0213-.0922.0146-.1744.051-.2474.1086z"/><path d="m54.8514 18.6928v-.0723c.1115 0 .1936-.0207.2474-.0616.0537-.0414.0537-.1218 0-.243l-.4507-1.1015h-2.1876l-.4071 1.0145c-.0532.1254-.0695.2224-.0471.2896.0218.0677.11.102.2651.102v.0723h-1.0175v-.0723c.0583-.005.1075-.0222.1491-.051.041-.0293.0775-.0626.109-.1016.0314-.0384.0577-.0823.0801-.1303.0218-.0485.042-.0965.0618-.145l1.8606-4.4551h.4l1.9336 4.643c.0532.1304.1571.2102.3128.2395v.0723h-1.3095zm-1.2867-4.1943-.9597 2.3617h1.9194z"/><path d="m56.6094 18.6205c.073 0 .1333-.0025.182-.0075.0481-.0046.0846-.0192.109-.0435.0243-.0243.041-.0601.0512-.1091.0091-.048.0147-.1132.0147-.1956v-4.0493c0-.0823-.0056-.1475-.0147-.1955-.0102-.0485-.0269-.0844-.0512-.1086-.0244-.0243-.0609-.0384-.109-.0435-.0487-.0045-.109-.0071-.182-.0071v-.0722h1.6867c.402 0 .769.05 1.1011.1485.3316.0991.6165.2501.8542.4528.2373.2031.4213.4587.5521.768.1313.3087.1967.674.1967 1.0939 0 .3527-.0557.6821-.1678.9888-.1115.3062-.3047.5781-.581.8145-.2813.2415-.5962.4083-.945.5003-.3487.0914-.7051.1374-1.0686.1374h-1.6284zm.9744-.4492c0 .0435.0167.0773.0507.1016.0339.0243.0755.0419.1237.0541.0486.0121.0968.0192.1455.0217.0486.0025.0846.0035.109.0035.3538 0 .6763-.0399.9668-.1197.2904-.0794.5378-.2052.7411-.3765.2038-.1717.3615-.391.4725-.6593.1116-.2678.1678-.5902.1678-.9671 0-.377-.0537-.6675-.1607-.9308-.1069-.2632-.258-.482-.4537-.6558-.1967-.1738-.434-.3027-.7128-.3876-.2783-.0843-.5896-.1263-.9338-.1263-.0872 0-.177.0071-.2687.0213-.0923.0146-.1744.051-.2469.1086v3.9123z"/><path d="m14.5918 25.4604c.0725 0 .1328-.0026.1815-.0071.0487-.0051.0847-.0197.109-.044.0243-.0242.0411-.0601.0512-.1081.0096-.0485.0147-.1137.0147-.196v-4.0498c0-.0819-.0046-.1471-.0147-.1956-.0101-.048-.0269-.0843-.0512-.1086s-.0603-.0389-.109-.0435c-.0487-.0045-.109-.007-.1815-.007v-.0723h1.6862c.402 0 .769.0495 1.1011.1481.3321.099.617.2496.8537.4527.2373.2026.4218.4588.5526.768.1313.3092.1967.6735.1967 1.0939 0 .3527-.0557.6822-.1673.9889-.1115.3067-.3051.5785-.5814.815-.2814.241-.5957.4082-.945.4997-.3488.0919-.7052.1379-1.0687.1379h-1.6279v-.0727zm.9734-.4492c0 .0434.0167.0778.0512.101.0334.0243.0745.0425.1232.0546.0486.0121.0968.0192.1455.0212.0481.0026.0846.0036.1095.0036.3533 0 .6758-.0394.9663-.1193.2905-.0798.5379-.2051.7412-.3769.2032-.1713.3609-.3911.4724-.6594.1116-.2678.1673-.5902.1673-.9671 0-.3572-.0537-.6675-.1602-.9307-.1064-.2633-.258-.4815-.4542-.6554-.1967-.1738-.4335-.3026-.7123-.387-.2788-.0849-.5901-.1273-.9338-.1273-.0872 0-.1775.0075-.2692.0217-.0918.0146-.1744.0505-.2474.1081v3.9124h.0005z"/><path d="m22.9064 25.5331h-3.3146v-.0727c.1501 0 .2444-.0207.2839-.0617.0385-.0409.0578-.1389.0578-.293v-4.0498c0-.1546-.0193-.2522-.0578-.2936-.0395-.0409-.1338-.0616-.2839-.0616v-.0723h3.2421l.0071.7458h-.1019c-.0244-.1834-.0812-.2961-.1709-.3365-.0897-.0409-.219-.0617-.3888-.0617h-1.4682c-.0821 0-.1293.0081-.142.0253-.0116.0167-.0182.0642-.0182.1415v1.6588h1.4753c.0775 0 .1455-.0035.2038-.0106.0583-.0076.1054-.0227.1419-.047.036-.0242.0639-.0601.0837-.1091.0192-.048.0334-.1132.0436-.1956h.0943v1.094h-.0943c-.0102-.087-.0244-.1547-.0436-.2032-.0198-.0485-.0477-.0854-.0837-.1121-.0365-.0263-.0826-.0435-.1384-.0506-.0558-.0075-.1252-.0111-.2073-.0111h-1.4753v1.8908c0 .0434.0132.0763.0395.098.0269.0217.0588.0348.0948.0399.0365.0051.0751.0061.1161.0035.0411-.002.0761-.0035.1055-.0035h1.199c.1161 0 .2169-.0056.3016-.0177s.1612-.0374.2292-.0763c.0679-.0384.1282-.0904.1814-.1561.0528-.0652.104-.1531.1526-.2638h.1161l-.1815.862z"/><path d="m28.9869 25.4856c-.2783.0895-.5703.1339-.8755.1339-.3879 0-.7331-.0616-1.0358-.1849-.3031-.1233-.5612-.2961-.7741-.5179-.2134-.2218-.3757-.4891-.4877-.8004-.1115-.3117-.1673-.6553-.1673-1.0322 0-.377.0583-.6988.1744-1.0106.1166-.3117.2824-.5821.4978-.8115.216-.2294.4751-.4082.7782-.5361.3027-.1278.6403-.192 1.014-.192.257 0 .5135.0288.7706.0869.0288.0101.0669.0208.1125.0329s.0933.0252.142.0399c.0486.0141.0942.0268.1384.0364.0436.0096.0795.0146.109.0146.0922 0 .1505-.0434.1749-.1303h.0801v.2683c0 .0965-.0016.1955-.0041.2966-.0025.1015-.0071.2006-.0147.2971-.0071.0965-.0203.1814-.0401.2541-.1698-.2753-.3584-.484-.5662-.6265-.2089-.1425-.4801-.2137-.8142-.2137s-.6059.0591-.8431.1773c-.2373.1182-.4325.2764-.5851.4745-.1526.198-.2666.43-.3422.6952-.0745.2658-.1125.5457-.1125.8403s.039.5891.1161.8544c.0776.2658.1947.4962.3528.6917.1577.1956.3559.3502.5962.4639.2398.1132.5242.1703.8538.1703.1166 0 .2423-.0021.3782-.0076.1358-.0046.2702-.0177.4035-.0394.1333-.0223.2606-.0556.3813-.1016.1216-.046.2306-.1096.3275-.192l.0289.1233c-.2327.2077-.4883.3562-.7671.4456h-.0005z"/><path d="m33.2266 25.5331v-.0727c.0775 0 .1404-.0036.1896-.0107.0481-.0075.0846-.0227.1085-.0469.0243-.0243.0415-.0592.0512-.1051.0096-.046.0142-.1097.0142-.192v-1.8979h-2.3772v1.8979c0 .0823.0035.146.0112.192.0071.0454.0228.0808.0471.1051.0243.0242.0593.0394.1054.0469.0457.0071.108.0107.1856.0107v.0727h-1.3298v-.0727c.0771 0 .1405-.0036.1886-.0107.0482-.0075.0847-.0227.1095-.0469.0238-.0243.0411-.0592.0507-.1051.0096-.046.0147-.1097.0147-.192v-4.0498c0-.0819-.0051-.1461-.0147-.192-.0096-.0455-.0269-.0809-.0507-.1051-.0248-.0243-.0608-.04-.1095-.047-.0487-.0071-.1115-.0106-.1886-.0106v-.0723h1.3298v.0723c-.0776 0-.1394.0035-.1856.0106-.0461.0076-.0811.0232-.1054.047-.0243.0242-.04.0606-.0471.1091-.0077.048-.0112.1112-.0112.188v1.7821h2.3772v-1.7821c0-.0819-.0051-.1461-.0142-.192-.0097-.0455-.0269-.0809-.0512-.1051-.0239-.0243-.0604-.04-.1085-.047-.0487-.0071-.1121-.0106-.1896-.0106v-.0723h1.3374v.0723c-.0776 0-.1389.0035-.1851.0106-.0461.0076-.0821.0232-.1085.047-.0268.0242-.0441.0606-.0512.1091-.0071.048-.0106.1112-.0106.188v4.0498c0 .0823.0035.146.0106.192.0071.0454.0244.0808.0512.1051.0264.0242.0624.0394.1085.0469.0462.0071.108.0107.1851.0107v.0727z"/><path d="m35.4727 25.5331v-.0727c.0826 0 .149-.0026.2002-.0071.0507-.0051.0908-.0182.1202-.0404.0289-.0213.0481-.0566.0583-.1046.0096-.0485.0142-.1162.0142-.2026v-4.0498c0-.0869-.0051-.1546-.0142-.2027-.0097-.048-.0289-.0833-.0583-.1045-.0294-.0218-.0695-.0354-.1202-.0405-.0507-.0045-.1176-.007-.2002-.007v-.0723h1.4103v.0723c-.0826 0-.149.0025-.2002.007-.0507.0051-.0908.0182-.1197.0405-.0294.0212-.0486.0565-.0583.1045-.0096.0481-.0141.1158-.0141.2027v4.0498c0 .0869.0045.1546.0141.2026.0097.0485.0289.0833.0583.1046.0289.0217.069.0353.1197.0404.0512.0045.1176.0071.2002.0071v.0727z"/><path d="m41.0691 25.5331h-3.2781v-.0727c.0776 0 .1394-.0036.1856-.0107.0461-.0075.0811-.0227.1059-.0469.0239-.0243.0396-.0592.0467-.1051.0071-.046.0111-.1097.0111-.192v-4.0498c0-.0768-.004-.14-.0111-.188-.0071-.0485-.0228-.0844-.0467-.1091-.0248-.0243-.0598-.04-.1059-.047-.0462-.0071-.108-.0106-.1856-.0106v-.0723h1.3374v.0723c-.0771 0-.1404.0035-.1886.0106-.0487.0076-.0867.0232-.113.047-.0264.0242-.0452.0596-.0548.1051-.0096.0459-.0142.1096-.0142.192v3.9916c0 .0435.0132.0763.0395.0981.0264.0217.0584.0348.0943.0399.036.005.0751.0061.1166.0035.0411-.002.0761-.0035.1055-.0035h1.0611c.1308 0 .2474-.0046.3493-.0147.1014-.0096.1911-.0323.2687-.0687.0775-.0359.147-.0914.2068-.1667.0603-.0743.1202-.1748.1785-.3007l.0943.0218z"/><path d="m44.9435 25.5331h-3.3146v-.0727c.1501 0 .2449-.0207.2839-.0617.0385-.0409.0583-.1389.0583-.293v-4.0498c0-.1546-.0198-.2522-.0583-.2936-.039-.0409-.1338-.0616-.2839-.0616v-.0723h3.2421l.0071.7458h-.1019c-.0244-.1834-.0811-.2961-.1709-.3365-.0902-.0409-.2195-.0617-.3888-.0617h-1.4682c-.0826 0-.1298.0081-.142.0253-.0121.0167-.0177.0642-.0177.1415v1.6588h1.4753c.0775 0 .145-.0035.2033-.0106.0583-.0076.1054-.0227.1419-.047.0365-.0242.0644-.0601.0837-.1091.0192-.048.0339-.1132.0436-.1956h.0943v1.094h-.0943c-.0097-.087-.0244-.1547-.0436-.2032-.0198-.0485-.0477-.0854-.0837-.1121-.0365-.0263-.0826-.0435-.1379-.0506-.0557-.0075-.1247-.0111-.2068-.0111h-1.4753v1.8908c0 .0434.0127.0763.0395.098.0269.0217.0583.0348.0949.0399.0365.0051.075.0061.1155.0035.0416-.002.0771-.0035.106-.0035h1.199c.1166 0 .217-.0056.3016-.0177.0847-.0121.1612-.0374.2292-.0763.0679-.0384.1282-.0904.1815-.1561.0537-.0652.1049-.1531.1526-.2638h.1166l-.1815.862z"/></g></svg>