<svg fill="none" height="37" viewBox="0 0 82 37" width="82" xmlns="http://www.w3.org/2000/svg"><g fill="#001b3c"><path d="m2.77717 5.62465c-.74995 0-1.40616-.26951-1.968627-.80854-.539029-.56247-.808543-1.21868-.808543-1.96863s.269514-1.40616.808543-1.968627c.562467-.562465 1.218677-.8436968 1.968627-.8436968.77339 0 1.4296.2812318 1.96863.8436968.56246.562467.84369 1.218677.84369 1.968627s-.28123 1.40616-.84369 1.96863c-.53903.53903-1.19524.80854-1.96863.80854z"/><path d="m.395328 27.7091v-17.577h4.534872v17.577z"/><path d="m19.718 9.83738c2.3671 0 4.3826.90232 6.0465 2.70682 1.6874 1.7812 2.5311 3.9725 2.5311 6.5739 0 2.6013-.8437 4.8043-2.5311 6.6089-1.6639 1.7811-3.6794 2.6717-6.0465 2.6717-2.4608 0-4.3591-.8554-5.6949-2.5662v10.9692h-4.5349v-26.4722h4.5349v2.0741c1.3358-1.7108 3.2341-2.56622 5.6949-2.56622zm-4.3239 12.86642c.914.914 2.0741 1.371 3.4802 1.371 1.4062 0 2.5663-.457 3.4803-1.371.9374-.9375 1.4061-2.1327 1.4061-3.5857 0-1.4531-.4687-2.6366-1.4061-3.5506-.914-.9374-2.0741-1.4062-3.4803-1.4062-1.4061 0-2.5662.4688-3.4802 1.4062-.914.914-1.371 2.0975-1.371 3.5506 0 1.453.457 2.6482 1.371 3.5857z"/><path d="m46.1262 10.1319h4.5349v17.577h-4.5349v-2.0741c-1.3593 1.7108-3.2693 2.5662-5.7301 2.5662-2.3436 0-4.3591-.8905-6.0465-2.6717-1.664-1.8045-2.496-4.0075-2.496-6.6089s.832-4.7927 2.496-6.5738c1.6874-1.8046 3.7029-2.70688 6.0465-2.70688 2.4608 0 4.3708.85538 5.7301 2.56628zm-8.3667 12.3742c.914.914 2.0741 1.371 3.4803 1.371 1.4061 0 2.5662-.457 3.4802-1.371.9375-.9374 1.4062-2.1327 1.4062-3.5857s-.4687-2.6366-1.4062-3.5506c-.914-.9374-2.0741-1.4061-3.4802-1.4061-1.4062 0-2.5663.4687-3.4803 1.4061-.914.914-1.371 2.0976-1.371 3.5506s.457 2.6483 1.371 3.5857z"/><path d="m74.6449 9.63972c2.0155 0 3.6208.65618 4.8161 1.96858 1.2187 1.3125 1.828 3.0702 1.828 5.2731v10.8275h-4.5349v-10.5111c0-1.0546-.2578-1.8748-.7734-2.4607s-1.2421-.8789-2.1795-.8789c-1.0312 0-1.8397.3398-2.4256 1.0195-.5625.6796-.8437 1.6639-.8437 2.9529v9.8783h-4.5349v-10.5111c0-1.0546-.2578-1.8748-.7734-2.4607s-1.2421-.8789-2.1796-.8789c-1.0077 0-1.8162.3398-2.4256 1.0195-.5859.6796-.8788 1.6639-.8788 2.9529v9.8783h-4.5349v-17.577h4.5349v1.8631c1.0546-1.5702 2.6834-2.35528 4.8864-2.35528 2.1561 0 3.7497.84368 4.7809 2.53108 1.1718-1.6874 2.9178-2.53108 5.238-2.53108z"/><path d="m18.3833 32.9719h62.8097v3.8299h-62.8097z"/></g></svg>