<svg fill="none" height="26" viewBox="0 0 67 26" width="67" xmlns="http://www.w3.org/2000/svg" xmlns:xlink="http://www.w3.org/1999/xlink"><clipPath id="a"><path d="m0 0h67v26h-67z"/></clipPath><g clip-path="url(#a)" fill="#001b3c"><path d="m26.3206 13.4474c.4281 0 .7574-.1575.9884-.4724l3.0376-5.46912c.0988-.16542.1931-.32686.2841-.48489.0903-.15746.1768-.3189.2592-.48489l.0989.02501v10.29189c0 .5309.4942.7958 1.482.7958h.7162c.9879 0 1.4821-.2654 1.4821-.7958v-15.909933c0-.5298-.4942-.795269-1.4821-.795269h-1.2844c-.3626 0-.6789.049456-.9511.148936-.2711.099479-.4733.273426-.6049.521841l-4.174 7.358655c-.0333.06651-.0706.13302-.1107.19896-.0418.06651-.0785.14097-.1113.22397-.0333-.083-.074-.15746-.1237-.22397-.0497-.06594-.0909-.13245-.1237-.19896l-4.1005-7.358655c-.1322-.248415-.3338-.42293-.6049-.521841-.2723-.09948-.5891-.148936-.9512-.148936h-1.3092c-.9879 0-1.4815.265469-1.4815.795269v15.909933c0 .5309.4936.7958 1.4815.7958h.7167c.9879 0 1.4815-.2654 1.4815-.7958v-10.29189l.0989-.02501c.0824.16599.1688.32743.2592.48489s.1853.3189.2841.48489l3.0382 5.46912c.2304.3149.5597.4724.9878.4724zm12.7947 4.2014c.296 0 .5434-.042.7405-.1245.1977-.0824.3293-.2148.3954-.3973l.9878-3.0327h5.8295l.9878 3.0327c.0661.1989.2226.3354.4694.4098.2468.0745.5512.112.9139.112h1.0867c.8235 0 1.2352-.1824 1.2352-.5468 0-.133-.0243-.282-.074-.448l-5.4341-15.98436c-.1152-.347894-.5851-.521842-1.408-.521842h-1.2844c-.8072 0-1.2765.173948-1.4081.521842l-5.4341 15.98436c-.0169.083-.0373.162-.0616.2359-.0248.0745-.0372.145-.0372.2115 0 .3644.5021.5469 1.5069.5469h.9884zm4.6434-11.26164c.0988-.2649.1728-.5298.2225-.79584.0491-.2649.0988-.5298.148-.79583h.0988c.0497.26547.1022.53093.1604.79583.0576.26547.1277.53094.2101.79584l1.4076 4.42484h-3.7052l1.4572-4.42484zm19.1178 11.33614c.6422-.05 1.2759-.141 1.9017-.2729.6258-.133 1.1528-.3268 1.5804-.5843.4281-.2564.6422-.6003.6422-1.0318v-6.91069c0-.66225-.3293-.99423-.9879-.99423h-5.0144c-.4942 0-.741.4144-.741 1.24321v.79584c0 .82877.2468 1.24317.741 1.24317h2.1734v4.5988l1.0873-1.69c-.6095.149-1.1325.257-1.5685.3229-.4366.0665-.9184.0995-1.4454.0995-.7083 0-1.3256-.12-1.8526-.3604-.5275-.2399-.9675-.5963-1.3216-1.0693-.3547-.4724-.618-1.0647-.7908-1.7775-.1728-.7123-.2592-1.53259-.2592-2.46088 0-1.24321.1519-2.27837.4569-3.10717.3044-.82881.7738-1.45013 1.4081-1.86454.6337-.41383 1.4363-.62132 2.4083-.62132.7908 0 1.4448.06594 1.9639.19896.5185.13245.9218.26547 1.2104.39735.2875.13302.4812.19896.5801.19896.2135 0 .4451-.14496.6913-.43487.2468-.28991.4609-.62189.6422-.99423.1807-.3729.2717-.67532.2717-.90782 0-.2649-.1695-.50081-.5067-.70829-.3372-.206922-.7777-.388827-1.3211-.546858-.5433-.157462-1.12-.277406-1.7289-.3604-.6094-.0824263-1.1861-.124492-1.7289-.124492-2.7337 0-4.7918.733307-6.1751 2.20049-1.3832 1.46661-2.0751 3.68359-2.0751 6.64979 0 2.96622.6631 5.32472 1.9887 6.77432 1.3251 1.4501 3.3719 2.1754 6.1378 2.1754.4446 0 .9879-.025 1.6307-.0744"/><path d="m12.5237 16.2191c1.2601-1.0522 1.8899-2.5319 1.8899-4.4379v-10.839855c0-.5298-.4942-.795837-1.4821-.795837h-.815c-.9879 0-1.4821.265468-1.4821.795837v10.591455c0 .5804-.144 1.0983-.4321 1.5536-.28859.4565-.68396.8123-1.18608 1.0693-.50268.2569-1.09122.3854-1.76617.3854-.67496 0-1.24373-.1285-1.75375-.3854-.5106-.257-.90597-.6128-1.18611-1.0693-.28015-.4553-.41966-.9732-.41966-1.5536v-10.591455c0-.5298-.49421-.795837-1.48207-.795837h-.83988c-.98843 0-1.4826425.266037-1.4826425.795837v10.839855c0 1.906.6297685 3.3857 1.8898725 4.4379 1.25953 1.0528 3.0178 1.5786 5.27367 1.5786s4.01412-.5258 5.27422-1.5786z"/><path d="m66.3545 24.7629c.1559-.0801.2773-.1904.3665-.3302.0881-.1399.1328-.3013.1328-.4832 0-.1529-.0311-.2786-.0927-.3769-.0615-.0984-.1395-.1768-.2332-.2348-.0944-.0585-.1921-.1091-.2932-.1529-.0836-.0364-.1649-.0716-.244-.1063-.0796-.0347-.1451-.079-.1954-.1336-.0508-.0546-.0757-.1239-.0757-.2075 0-.1017.0424-.1813.1277-.2376.0847-.0563.1999-.0847.3445-.0847s.2581.021.3282.0631c.0706.0421.1203.0625.1491.0625.0254 0 .0553-.0187.0898-.0574.0344-.0381.0644-.0818.0898-.1313.0248-.0489.0378-.0898.0378-.1228 0-.0511-.0231-.0938-.0706-.1285-.0469-.0346-.1079-.063-.1819-.0847-.0739-.0221-.153-.0386-.2361-.0494-.0835-.0108-.1592-.0165-.2281-.0165-.1847 0-.353.0341-.5044.1012-.1519.0676-.2734.1648-.3638.2922-.0903.1273-.1355.2842-.1355.4701 0 .1455.0311.2689.0926.3684.0616.1.1418.183.2418.2484.0994.0659.2016.1205.3067.1637.083.0295.1609.0619.2332.0983s.1311.0802.1762.1313c.0452.0506.0678.1223.0678.2132 0 .12-.0486.2137-.1468.2808-.0977.0677-.2226.1012-.3745.1012-.1192 0-.2214-.0153-.3067-.0466-.0853-.0307-.1536-.062-.2067-.0927-.052-.0312-.0915-.0466-.1164-.0466-.0293 0-.0525.029-.0706.087-.018.0585-.0271.1313-.0271.2183 0 .0472.0215.0921.0655.1336.0435.042.1011.0784.1734.1091.0723.0313.1548.0557.2469.0739.0926.0182.1852.0273.2795.0273.2135 0 .3977-.0398.5536-.1199m-2.5084-2.2562c.0797.0619.1198.1461.1198.2512 0 .0915-.0238.1666-.0706.2268-.0469.0603-.1074.108-.1819.1444-.074.0364-.1536.0643-.2389.0819-.0847.0182-.1661.0312-.244.0386-.0774.0074-.1435.0108-.1977.0108h-.3474c.0396-.2586.1322-.4644.2768-.6173s.3327-.2291.5642-.2291c.1339 0 .2406.0307.3203.0927m-1.1042-.3332c-.2186.1495-.3835.357-.4937.6225-.1107.266-.1655.577-.1655.934 0 .2257.0345.4132.1028.5627.0689.1495.1616.2672.2796.3525.1175.0858.2502.1466.3988.183.1485.0364.3021.0546.4614.0546.065 0 .1446-.0063.2389-.0188.0944-.013.1898-.0329.2875-.0602s.1819-.0637.2525-.1092c.0706-.0454.113-.1028.1277-.1716.0107-.0546.0186-.112.0242-.1723.0057-.0602.0085-.1012.0085-.1228 0-.0363-.0039-.0574-.0107-.0631-.0068-.0056-.0164-.0085-.0271-.0085-.0254 0-.074.021-.1463.0631s-.1678.0858-.2853.1313c-.1174.0455-.2541.0682-.4094.0682-.1554 0-.2768-.0221-.3852-.0659-.1085-.0438-.1938-.1199-.2553-.2291-.0616-.1091-.0921-.2586-.0921-.4479v-.2564l-.1197.2132c.0756.0182.1615.0335.2581.046.096.0131.2163.0188.3609.0188.17 0 .3366-.0171.4993-.0518.1626-.0346.3101-.0898.4422-.1665.1322-.0762.2384-.1791.3175-.3087.0796-.129.1197-.2871.1197-.4724 0-.0693-.0153-.1461-.0463-.2319-.0311-.0853-.0825-.1671-.1548-.2456-.0723-.0779-.1717-.1427-.2988-.1938-.1265-.0506-.2858-.0762-.4772-.0762-.322 0-.5925.0745-.8117.224m-1.3278 2.6626c.083-.0307.1321-.0864.1462-.1665.0147-.0728.0226-.1285.0243-.1666.0017-.0386.0029-.0614.0029-.0682 0-.033-.0108-.0489-.0328-.0489-.0147 0-.0379.0063-.0706.0188-.0328.013-.0723.0187-.1198.0187-.0542 0-.0943-.0187-.1191-.0568-.0254-.0387-.0345-.0955-.0271-.1723l.1412-1.4256c.0248-.2695-.0221-.4736-.1412-.6123-.1198-.1381-.3073-.2075-.5643-.2075-.1265 0-.2542.0256-.3829.0762-.1282.0512-.248.1268-.3581.2268-.1102.1001-.209.2246-.296.3741l.0763.1313c.0073-.0364.0147-.0876.0214-.1529.0074-.066.0108-.1313.0108-.1967 0-.0949-.0108-.1819-.0322-.2621-.0221-.0801-.0616-.1205-.1198-.1205-.0435 0-.0971.004-.1598.0108-.0633.0074-.1192.0216-.1683.0438-.0486.0216-.0735.0529-.0735.0932 0 .0216.0017.0472.0057.0762.0034.029.0056.0762.0056.1421 0 .0546-.005.1415-.0135.2621-.0091.1205-.0209.2438-.0356.3712l-.179 1.6934c-.0034.0364.0135.0682.0513.0955.0385.0273.0989.0409.1819.0409h.0599c.1666 0 .253-.0455.2609-.1364l.1627-1.5678c.0655-.1859.1412-.3303.2282-.4343s.1762-.1779.2688-.2211c.0927-.0438.1763-.066.2525-.066.1305 0 .2288.0341.296.1012.0666.0676.0932.1774.0785.3303l-.1305 1.3273c-.0248.2587.0136.4389.1169.5406.1028.1018.2401.1529.4101.1529.0649 0 .1389-.0153.2225-.0466m-4.758-.4997c-.074-.0471-.1321-.1256-.1734-.2353-.0418-.1091-.0627-.2547-.0627-.4366 0-.2222.0283-.428.0842-.6173s.1401-.3411.2525-.4559c.1118-.1143.253-.1717.423-.1717.1373 0 .2513.0228.3417.0682.0904.0455.1593.0887.2062.1285-.0074.0472-.0147.0955-.0215.145-.0068.0494-.0147.1085-.0215.1773l-.0813.7214c-.0615.1859-.1327.3331-.2146.4422-.0813.1092-.1638.1876-.2468.2354-.0831.0472-.161.071-.2333.071-.0943 0-.1785-.0233-.2525-.071m.54.415c.1412-.087.2626-.224.3637-.4099.0108.1751.0576.3087.1407.4019.0836.0927.2118.1387.3852.1387.0655 0 .1389-.0153.2225-.0466.083-.0307.1322-.0864.1463-.1666.0147-.0727.0226-.1284.0243-.1665.0022-.0387.0028-.0614.0028-.0682 0-.033-.0107-.0489-.0322-.0489-.0147 0-.0384.0062-.0706.0187-.0328.0131-.0723.0188-.1192.0188-.0542 0-.0943-.0188-.1197-.0569-.0254-.0386-.0345-.0955-.0271-.1722l.2061-2.0481c.0074-.062-.0034-.1058-.0322-.1314-.0293-.0255-.0779-.0386-.1468-.0386h-.0435c-.0616 0-.1096.0108-.144.033-.0345.0216-.0605.0528-.0785.0926-.0181.0404-.0362.0876-.0543.1421-.0581-.0545-.144-.1165-.2575-.1859-.1141-.0693-.2542-.1034-.4208-.1034-.2604 0-.4886.0739-.6834.2211-.1955.1472-.3468.353-.453.6174-.1068.2643-.1599.5667-.1599.9095 0 .2223.0272.4098.0814.5628.0542.1529.1265.274.2169.3632.0909.0892.1881.1541.2931.1938.1051.0398.2079.0597.309.0597.1592 0 .3089-.0437.4501-.1313m-2.0525.0847c.083-.0307.1338-.0864.1519-.1665.0107-.0728.017-.1285.0192-.1666.0017-.0387.0028-.0614.0028-.0682 0-.033-.0107-.0489-.0327-.0489-.0147 0-.0384.0063-.0706.0188-.0322.013-.0723.0187-.1192.0187-.0542 0-.0943-.0187-.1197-.0568-.0249-.0387-.0345-.0955-.0271-.1723l.3422-3.3317c.0074-.0438-.0073-.0762-.0435-.0983-.0361-.0222-.0943-.033-.1734-.033h-.0926c-.0796 0-.1384.0108-.1762.033-.0384.0216-.061.0545-.0678.0983l-.3361 3.2772c-.0214.262.0119.4513.1006.5678.0887.1166.2304.1746.4259.1746.0615 0 .1338-.0154.2168-.0466m-1.7215 0c.083-.0307.1338-.0865.1519-.1666.0108-.0728.017-.1285.0187-.1666.0022-.0386.0028-.0614.0028-.0682 0-.0329-.0107-.0489-.0328-.0489-.0147 0-.0378.0063-.0706.0188-.0327.0131-.0723.0188-.1191.0188-.0543 0-.0944-.0188-.1198-.0569-.0254-.0386-.0344-.0955-.0271-.1722l.3417-3.3318c.0074-.0437-.0073-.0761-.0435-.0983-.0361-.0216-.0943-.033-.1739-.033h-.0921c-.0796 0-.1384.0108-.1768.033-.0378.0216-.0604.0546-.0678.0983l-.3366 3.2772c-.0215.2621.0119.4513.1005.5679.0887.1165.2305.1745.4259.1745.0616 0 .1339-.0154.2169-.0466m-3.1681-.4997c-.0739-.0472-.1321-.1256-.1733-.2353-.0418-.1092-.0627-.2547-.0627-.4366 0-.2223.0282-.4281.0841-.6173.0559-.1893.1401-.3411.2525-.4559.1118-.1143.253-.1717.423-.1717.1373 0 .2514.0227.3417.0682.0904.0455.1593.0887.2062.1285-.0073.0471-.0147.0955-.0215.1449-.0073.0489-.0146.1086-.0214.1774l-.0814.7213c-.0615.1859-.1327.3332-.2146.4423-.0813.1091-.1638.1876-.2468.2353-.083.0472-.161.0711-.2333.0711-.0943 0-.1785-.0233-.2525-.0711m.54.415c.1412-.087.2626-.224.3638-.4098.0107.175.0576.3086.1406.4019.083.0926.2118.1387.3852.1387.0655 0 .1389-.0154.2225-.0466.0831-.0307.1322-.0865.1463-.1666.0147-.0728.0226-.1285.0243-.1666.0017-.0386.0028-.0614.0028-.0682 0-.0329-.0107-.0489-.0327-.0489-.0147 0-.0379.0063-.0706.0188-.0328.0131-.0723.0188-.1192.0188-.0542 0-.0943-.0188-.1197-.0569-.0255-.0386-.0345-.0955-.0272-.1722l.2062-2.0482c.0073-.0619-.0034-.1057-.0328-.1313-.0288-.0256-.0773-.0386-.1462-.0386h-.0435c-.0616 0-.1096.0108-.1441.0329-.0344.0216-.061.0529-.0785.0927-.0181.0403-.0361.0875-.0542.1421-.0582-.0546-.144-.1165-.2581-.1859-.1135-.0693-.2542-.1034-.4202-.1034-.2604 0-.4886.0738-.6835.2211-.1954.1472-.3468.353-.4529.6173-.1068.2644-.1605.5668-.1605.9096 0 .2222.0272.4098.0814.5627s.1265.274.2169.3633c.0903.0892.1881.154.2931.1938.1051.0398.2084.0597.3095.0597.1593 0 .309-.0438.4502-.1313m-3.5776-.4559c-.0796-.0455-.1417-.12-.1869-.224-.0452-.1034-.0678-.2433-.0678-.4178 0-.1637.0147-.3206.0435-.4701.0288-.149.0751-.2803.1384-.3934.0632-.1125.1491-.2029.2575-.2706.1085-.0676.2423-.1012.4016-.1012.1232 0 .2282.0216.3152.0654.0864.0438.1576.0859.2118.1256-.0107.0506-.0198.1035-.0271.1586-.0074.0546-.0147.1126-.022.1746l-.0706.6668c-.0656.1893-.1396.3382-.2226.4479s-.1677.1876-.2547.2348-.1683.071-.244.071c-.1011 0-.1915-.0227-.2711-.0682m.8116 1.5456c.183-.1074.3293-.2848.4394-.5326.1107-.2478.1853-.5793.2254-.9942l.2282-2.2176c0-.0364-.0136-.0659-.0407-.0875s-.0751-.033-.144-.033h-.0435c-.0616 0-.1084.0108-.1412.033-.0322.0216-.0576.0517-.0757.0904-.0181.0381-.0378.0864-.0599.1444-.0576-.058-.1462-.1223-.266-.191-.1192-.0694-.2621-.1035-.4287-.1035-.2677 0-.501.0745-.7003.224-.1989.1495-.3536.3553-.4638.6173-.1107.2621-.1655.5628-.1655.9016 0 .2183.0289.4013.087.5485.0576.1478.1328.2649.2248.3525.0927.0875.1926.1506.3011.1881.1084.0387.2152.0575.3202.0575.1847 0 .3576-.0563.5185-.1694.161-.1126.2903-.2877.3881-.5242l-.0707-.0983-.0214.2785c-.0328.4298-.1169.739-.2525.9289-.1355.1893-.3298.2837-.5834.2837-.174 0-.3169-.0228-.4287-.0683-.1124-.0454-.2-.0915-.2632-.1364-.0639-.0455-.1057-.0682-.1277-.0682-.0181 0-.0373.021-.057.0631-.0198.0421-.0294.137-.0294.2865 0 .062.0418.1222.1248.1802s.196.1074.3389.1472c.1429.0404.3067.0603.4914.0603.2677 0 .4931-.054.6755-.1609m-3.9141-1.5047c-.074-.0472-.1322-.1256-.1734-.2353-.0418-.1092-.0627-.2547-.0627-.4366 0-.2223.0276-.4281.0841-.6173.0559-.1893.1401-.3411.2519-.4559.1124-.1143.2536-.1717.4236-.1717.1373 0 .2514.0227.3417.0682.0904.0455.1593.0887.2062.1285-.0073.0471-.0147.0955-.0215.1449-.0067.0495-.0146.1086-.0214.1774l-.0814.7213c-.0615.1859-.1327.3332-.2146.4423-.0813.1091-.1638.1876-.2468.2353-.083.0472-.161.0711-.2333.0711-.0943 0-.1785-.0233-.2524-.0711m.5399.415c.1412-.087.2627-.224.3638-.4098.0107.175.0576.3086.1406.4019.083.0926.2118.1387.3852.1387.065 0 .1389-.0154.2225-.0466.0831-.0307.1322-.0865.1463-.1666.0147-.0728.0226-.1285.0243-.1666.0017-.0386.0028-.0614.0028-.0682 0-.0329-.0107-.0489-.0327-.0489-.0147 0-.0379.0063-.0706.0188-.0328.0131-.0723.0188-.1198.0188-.0542 0-.0943-.0188-.1191-.0569-.0255-.0386-.0345-.0955-.0272-.1722l.2062-2.0482c.0073-.0619-.0034-.1057-.0328-.1313-.0288-.0256-.0773-.0386-.1462-.0386h-.0435c-.0616 0-.109.0108-.1435.0329-.0345.0216-.061.0529-.0785.0927-.0181.0403-.0362.0875-.0542.1421-.0582-.0546-.1441-.1165-.2582-.1859-.1135-.0693-.2541-.1034-.4202-.1034-.2604 0-.4885.0738-.6834.2211-.1954.1472-.3468.353-.4535.6173-.1068.2644-.1599.5668-.1599.9096 0 .2222.0271.4098.0813.5627.0543.1529.1266.274.2169.3633.0904.0892.1881.154.2932.1938.105.0398.2084.0597.3095.0597.1593 0 .3089-.0438.4501-.1313m-5.5961.1034c.1666 0 .253-.0454.2609-.1364l.2497-2.4256c.0073-.0654.0124-.1319.0163-.1989.0034-.0677.0034-.1194 0-.1558l.0215-.0108c.0181.0438.0401.0921.065.145.0254.0523.0451.0972.0598.1335l.7055 1.5235c.0288.062.0757.0932.1412.0932h.2005c.0689 0 .1214-.0273.1576-.0818l1.0471-1.557c.0215-.0364.0452-.0739.0706-.1114.0249-.0387.0469-.0757.065-.112l.0164.0051c-.004.0438-.0085.0898-.0136.1364-.0056.0472-.0118.0932-.0186.1364l-.2553 2.4745c-.0034.0438.0118.0779.0463.1035s.0966.0381.187.0381h.0706c.166 0 .253-.0455.2603-.1365l.3745-3.5721c0-.0472-.0169-.0819-.0514-.1035-.0344-.0222-.0971-.033-.1869-.033h-.2169c-.0689 0-.1249.0103-.1678.0302-.0435.0199-.0762.0483-.0977.0847l-1.1613 1.7366c-.0248.0404-.053.0875-.0835.1421-.0311.0546-.0554.1035-.0735.1478-.0107-.0511-.026-.1063-.0463-.1665-.0198-.0603-.039-.1086-.057-.145l-.7925-1.715c-.018-.0364-.048-.0648-.0898-.0847s-.0971-.0302-.1655-.0302h-.2118c-.166 0-.253.0455-.2604.1365l-.3688 3.5665c-.0039.0437.0119.0778.0463.1034.0345.0256.0972.0381.187.0381h.0706zm-3.0845-2.3488c.0797.0619.1192.1461.1192.2512 0 .0916-.0237.1666-.0706.2269-.0469.0602-.1079.108-.1819.1443-.074.0364-.1536.0643-.2389.0819-.0847.0182-.1661.0313-.244.0387-.0774.0073-.1435.0108-.1977.0108h-.3473c.0401-.2587.1321-.4645.2767-.6174.1452-.1529.3327-.2291.5643-.2291.1338 0 .2406.0307.3202.0927zm-1.1042-.3331c-.2191.1495-.3835.357-.4942.6224-.1107.2655-.1655.577-.1655.934 0 .2257.0344.4133.1028.5628.0689.1495.1621.2671.2796.3524.1175.0858.2502.1467.3987.1831.1486.0363.3022.0545.4615.0545.0649 0 .1446-.0062.2389-.0187s.1898-.033.2875-.0603.1819-.0637.2525-.1091c.0706-.0455.1129-.1029.1276-.1717.0108-.0546.0187-.112.0243-.1722.0057-.0603.0085-.1012.0085-.1228 0-.0364-.004-.0574-.0108-.0631-.0073-.0057-.0163-.0086-.0271-.0086-.0248 0-.074.0211-.1463.0631-.0722.0421-.1671.0859-.2852.1314-.1175.0454-.2542.0682-.4095.0682s-.2767-.0222-.3852-.066c-.1084-.0437-.1931-.1199-.2547-.2291-.0616-.1091-.0926-.2586-.0926-.4479v-.2564l-.1198.2132c.0763.0182.1621.0335.2581.046.0961.0131.2164.0188.361.0188.17 0 .3366-.0171.4993-.0517.1626-.0347.31-.0898.4422-.1666.1322-.0762.2378-.1791.3174-.3087.0797-.129.1198-.287.1198-.4723 0-.0694-.0153-.1461-.0463-.232-.0311-.0852-.0825-.1671-.1548-.2455-.0723-.0779-.1723-.1427-.2988-.1939-.1265-.0506-.2858-.0762-.4778-.0762-.322 0-.5925.0745-.8111.224m-3.1353 2.0675c-.1011-.1109-.1519-.3047-.1519-.5816 0-.1637.0147-.3217.0435-.4723.0288-.1507.0757-.2831.1412-.3957.0655-.1125.153-.2029.2632-.2706.1101-.0676.2468-.1012.41-.1012.1373 0 .2502.0205.3389.0626.0887.042.1582.083.209.1233l-.1084 1.0596c-.065.1859-.139.3326-.2226.4394-.0836.1075-.1672.1848-.2524.2325-.0848.0472-.1655.0711-.2418.0711-.1847 0-.3276-.0551-.4287-.1666m.7298.5105c.1462-.087.2705-.224.3716-.4098.0107.1785.0576.3132.1412.4047.083.091.2118.1364.3852.1364.0655 0 .1395-.0153.2226-.0466.083-.0307.1321-.0864.1468-.1665.0147-.0728.0226-.1285.0243-.1666.0017-.0387.0028-.0614.0028-.0682 0-.033-.0124-.0489-.0384-.0489-.0107 0-.0328.0063-.065.0188-.0327.013-.0722.0187-.1197.0187-.0582 0-.0988-.0187-.122-.0568-.0237-.0387-.0322-.0955-.0248-.1723l.3422-3.3044c.0074-.0506-.0084-.0898-.0463-.1171-.0378-.0273-.1022-.0409-.1926-.0409h-.0599c-.1626 0-.2496.0454-.2603.1364l-.1412 1.3217c-.0689-.0546-.1582-.108-.2689-.1609-.1107-.0523-.2525-.079-.4259-.079-.2677 0-.5009.0744-.7003.2239s-.3536.3553-.4643.6174c-.1101.262-.1655.5645-.1655.9067 0 .2256.0299.4149.0898.5679.0599.1529.139.274.2389.3632.0994.0892.2084.1541.3259.1938.1175.0398.2305.0597.3389.0597.1627 0 .3174-.0437.4643-.1313m-5.3183-.5105c-.1011-.1108-.1519-.3046-.1519-.5815 0-.1637.0146-.3217.0435-.4724.0293-.1512.0762-.2831.1412-.3956.0655-.1126.153-.203.2632-.2706.1107-.0676.2468-.1012.41-.1012.1373 0 .2502.0205.3389.0625.0887.0421.1582.083.209.1234l-.1085 1.0596c-.0655.1859-.1395.3325-.2225.4394-.083.1075-.1672.1848-.2525.2325-.0847.0472-.1655.0711-.2417.0711-.1847 0-.3276-.0552-.4287-.1666m.7297.5105c.1469-.087.2706-.224.3717-.4099.0107.1785.0582.3133.1412.4048.083.0909.2118.1364.3852.1364.0649 0 .1389-.0153.2225-.0466.0836-.0307.1322-.0864.1469-.1666.0147-.0727.0226-.1284.0243-.1665.0017-.0387.0028-.0614.0028-.0682 0-.033-.013-.0489-.0384-.0489-.0107 0-.0322.0062-.065.0187-.0327.0131-.0723.0188-.1197.0188-.0576 0-.0989-.0188-.122-.0569-.0237-.0386-.0316-.0955-.0243-.1722l.3417-3.3044c.0074-.0506-.0085-.0898-.0463-.1171-.0384-.0273-.1022-.041-.1926-.041h-.0599c-.1626 0-.2496.0455-.2603.1365l-.1413 1.3216c-.0689-.0545-.1581-.108-.2688-.1608-.1101-.0523-.2525-.0791-.4259-.0791-.2677 0-.501.0745-.7003.224-.1989.1495-.3536.3553-.4643.6174-.1102.262-.1655.5644-.1655.9066 0 .2257.0294.415.0892.5679.0599.1529.139.274.2389.3633.0994.0892.2085.154.3259.1938.1175.0398.2311.0597.3395.0597.1627 0 .3174-.0438.4637-.1313m-3.7244-.415c-.074-.0472-.1321-.1256-.1734-.2353-.0418-.1092-.0627-.2547-.0627-.4366 0-.2223.0283-.428.0842-.6173s.1401-.3411.2525-.4559c.1118-.1143.253-.1717.423-.1717.1373 0 .2513.0227.3417.0682s.1593.0887.2067.1285c-.0073.0472-.0146.0955-.022.1449-.0073.0489-.0147.1086-.0215.1774l-.0813.7214c-.0615.1858-.1327.3331-.2146.4422-.0813.1092-.1638.1876-.2468.2354-.0831.0471-.161.071-.2333.071-.0943 0-.1785-.0233-.2525-.071m.54.4149c.1412-.087.2626-.2239.3637-.4098.0108.1751.0576.3086.1412.4019.0831.0926.2118.1387.3852.1387.0655 0 .1395-.0154.2226-.0466.083-.0307.1321-.0864.1463-.1666.0146-.0728.0225-.1285.0248-.1666.0017-.0386.0023-.0614.0023-.0682 0-.0329-.0108-.0489-.0322-.0489-.0147 0-.0384.0063-.0706.0188-.0322.0131-.0723.0188-.1192.0188-.0542 0-.0943-.0188-.1197-.0569-.0255-.0386-.0345-.0955-.0272-.1722l.2062-2.0482c.0073-.0619-.0034-.1057-.0322-.1313-.0294-.0256-.0779-.0386-.1468-.0386h-.0435c-.0616 0-.1096.0108-.1441.0329-.0344.0216-.0604.0529-.0785.0927-.018.0403-.0361.0875-.0542.1421-.0576-.0546-.144-.1165-.2576-.1859-.114-.0693-.2541-.1034-.4207-.1034-.2604 0-.488.0739-.6835.2211-.1954.1472-.3468.353-.4529.6173-.1068.2644-.1599.5668-.1599.9096 0 .2222.0271.4098.0813.5627.0543.1529.1266.274.2169.3633.0904.0892.1881.154.2932.1938.105.0398.2078.0597.3089.0597.1593 0 .3095-.0438.4502-.1313m-3.7894-.5105c-.1011-.1108-.1519-.3047-.1519-.5815 0-.1637.0147-.3218.0435-.4724s.0757-.2831.1412-.3956c.0655-.1126.1531-.203.2632-.2706.1101-.0677.2468-.1012.4101-.1012.1372 0 .2502.0204.3388.0625.0887.0421.1582.083.209.1234l-.1084 1.0596c-.0655.1859-.1395.3325-.2226.4394-.0835.1074-.1671.1847-.2524.2325-.0847.0472-.1655.071-.2418.071-.1847 0-.3276-.0551-.4287-.1665m.7298.5105c.1468-.087.2705-.224.3716-.4099.0108.1785.0582.3132.1412.4047.0831.091.2118.1365.3852.1365.065 0 .139-.0154.2226-.0466.083-.0307.1321-.0864.1468-.1666.0147-.0728.0226-.1285.0243-.1666.0017-.0386.0028-.0614.0028-.0682 0-.0329-.013-.0489-.0384-.0489-.0107 0-.0327.0063-.0649.0188-.0328.0131-.0723.0188-.1198.0188-.0581 0-.0988-.0188-.122-.0569-.0237-.0386-.0322-.0955-.0243-.1722l.3418-3.3045c.0073-.0506-.0085-.0898-.0464-.1171-.0384-.0272-.1022-.0409-.1926-.0409h-.0598c-.1627 0-.2497.0455-.2604.1364l-.1412 1.3217c-.0689-.0546-.1582-.108-.2689-.1609-.1101-.0523-.2524-.079-.4258-.079-.2678 0-.501.0745-.7004.224-.1988.1495-.3536.3553-.4643.6173-.1101.2621-.1655.5645-.1655.9067 0 .2257.03.415.0898.5679.0599.1529.139.274.239.3632.0994.0893.2084.1541.3259.1939.1174.0398.2304.0597.3388.0597.1627 0 .318-.0438.4643-.1313m-2.0768-3.2607.0328-.3553c.0073-.0438-.0102-.0773-.0514-.1012-.0418-.0233-.1136-.0358-.2147-.0358s-.1813.012-.2282.0358c-.0468.0239-.0723.0574-.0756.1012l-.0385.3553c-.0033.0438.0164.0773.0599.1012s.1158.0358.2169.0358c.1915 0 .2915-.0455.2988-.1364m-.0926 3.3453c.0869-.0307.1395-.0864.1575-.1665.0108-.0728.017-.1285.0193-.1666.0016-.0386.0028-.0614.0028-.0682 0-.033-.0108-.0489-.0328-.0489-.0147 0-.0384.0063-.0706.0188-.0327.013-.0723.0187-.1197.0187-.0542 0-.0927-.017-.1141-.0517-.0215-.0347-.0288-.0938-.0215-.1774l.2062-2.0811c.0039-.0437-.0136-.0773-.0514-.1012-.0379-.0238-.1006-.0358-.187-.0358h-.0598c-.1627 0-.2497.0455-.2604.1365l-.2062 2.0868c-.0254.2546.0119.432.1113.5326.0994.1.227.1501.3824.1501.0762 0 .1575-.0154.244-.0466m-1.9221-.0739c.1553-.0802.2773-.1905.366-.3303.0887-.1399.1327-.3013.1327-.4832 0-.1529-.031-.2785-.0926-.3769-.0616-.0983-.1389-.1768-.2333-.2348-.0943-.0585-.1914-.1091-.2931-.1529-.083-.0364-.1644-.0716-.244-.1063s-.1446-.079-.1954-.1336c-.0503-.0545-.0757-.1239-.0757-.2074 0-.1018.0423-.1814.1276-.2377.0853-.0562.2-.0847.3451-.0847.1452 0 .2576.0211.3282.0631.0706.0421.1203.0626.1497.0626.0248 0 .0548-.0188.0892-.0574.0345-.0381.0644-.0819.0898-.1314.0254-.0494.0384-.0898.0384-.1227 0-.0512-.0237-.0938-.0706-.1285s-.1073-.0631-.1819-.0847c-.0739-.0222-.153-.0387-.236-.0495-.0836-.0108-.1593-.0165-.2282-.0165-.1847 0-.3525.0341-.5044.1012-.1519.0677-.2734.1649-.3632.2922-.0909.1273-.1355.2842-.1355.4701 0 .1455.0305.2689.092.3684.0616.1.1424.183.2418.2484.0994.0659.2016.1205.3067.1637.083.0296.1609.062.2332.0984.0723.0363.1311.0801.1768.1313.0452.0506.0678.1222.0678.2131 0 .12-.0486.2138-.1463.2809-.0977.0676-.2225.1011-.3745.1011-.1197 0-.2219-.0153-.3067-.0466-.0852-.0307-.1536-.0619-.2061-.0926-.0525-.0313-.0915-.0466-.1169-.0466-.0288 0-.0526.0289-.0706.0869-.0181.0586-.0271.1313-.0271.2183 0 .0472.0214.0921.0649.1336.0435.0421.1011.0784.174.1091.0723.0313.1547.0558.2468.0739.0921.0182.1853.0273.279.0273.2135 0 .3982-.0398.5535-.1199m-2.9861.0926c.1666 0 .2553-.0471.266-.1415l.1898-1.8952c.0756-.124.1626-.2121.2609-.2649.0977-.0529.1864-.079.266-.079.0865 0 .1508.0091.1926.0272.0413.0182.0752.0273.1006.0273.0288 0 .0548-.0199.0785-.0602.0231-.0404.0435-.0876.0599-.1421.0163-.0546.0242-.1058.0242-.153 0-.0511-.013-.092-.0384-.1233-.0254-.0307-.0576-.0552-.0977-.0739-.0401-.0182-.0836-.0273-.1305-.0273-.1451 0-.2761.0426-.3936.1285-.1175.0858-.2164.1921-.296.3194.004-.0869-.0034-.1705-.0215-.2512-.018-.0802-.0598-.1205-.1248-.1205-.1451 0-.2525.0131-.3231.0386-.0706.0256-.1056.0654-.1056.12 0 .0221.0029.0557.0079.1012.0057.0454.0085.1114.0085.1989 0 .0438-.0011.0938-.0028.1507-.0017.0562-.0062.1227-.0136.1989l-.201 1.8844c-.0034.0404.0135.0728.0514.0984.0384.0256.0988.0381.1818.0381h.0605zm-1.6182-2.3488c.0796.062.1197.1461.1197.2512 0 .0916-.0237.1666-.0706.2269-.0469.0602-.1073.108-.1819.1443-.074.0364-.1536.0643-.2389.0819-.0847.0182-.166.0313-.244.0387-.0774.0074-.1434.0108-.1977.0108h-.3473c.0395-.2587.1321-.4645.2767-.6174s.3327-.2291.5643-.2291c.1338 0 .2406.0307.3202.0927m-1.1042-.3331c-.2186.1495-.3835.357-.4936.6224-.1107.2661-.1655.577-.1655.934 0 .2257.0344.4133.1028.5628.0689.1495.1615.2671.2796.3524.1174.0859.2502.1467.3987.1831.1486.0363.3022.0545.4615.0545.0649 0 .1446-.0062.2389-.0187s.1898-.033.2875-.0603.1818-.0637.2524-.1091c.0707-.0455.113-.1029.1277-.1717.0107-.0546.0186-.112.0243-.1722.0056-.0603.0085-.1012.0085-.1228 0-.0364-.004-.0574-.0108-.0631-.0073-.0057-.0164-.0086-.0271-.0086-.0254 0-.074.0211-.1463.0631-.0723.0421-.1677.0859-.2852.1314-.1175.0454-.2542.0682-.4101.0682-.1558 0-.2767-.0222-.3852-.066-.1084-.0437-.1937-.1199-.2553-.2291-.0615-.1091-.092-.2586-.092-.4479v-.2564l-.1198.2132c.0757.0182.1616.0335.2582.046.096.0131.2163.0188.3609.0188.17 0 .3366-.0171.4993-.0517.1626-.0347.3101-.0898.4422-.1666.1322-.0762.2378-.179.3174-.3087.0797-.129.1198-.287.1198-.4723 0-.0694-.0153-.1461-.0458-.232-.031-.0852-.0824-.1671-.1547-.2455-.0723-.0779-.1717-.1427-.2988-.1939-.1265-.0506-.2858-.0762-.4773-.0762-.3219 0-.5925.0745-.8116.224m-2.31576 2.6814c.06156 0 .11522-.0074.15984-.0216.04519-.0148.07512-.0381.08981-.071l1.14491-2.6002c.0147-.0329.022-.0636.022-.0926 0-.0364-.022-.0614-.0655-.0739s-.0977-.0188-.1627-.0188h-.0926c-.065 0-.1164.0074-.1548.0216-.0378.0148-.0644.0387-.0785.0711l-.54277 1.2506c-.05762.1461-.11353.2962-.16775.4508-.05423.1546-.10506.3013-.15194.4394h-.02146c-.02147-.1381-.04519-.2831-.0706-.4343-.02542-.1507-.05423-.3013-.08699-.4508l-.27111-1.2563c-.00734-.033-.03332-.0568-.07851-.071-.04518-.0148-.09884-.0216-.15984-.0216h-.06552c-.19881 0-.28749.0454-.26602.1364l.60265 2.6331c.00735.0403.03276.0682.07569.0841.04349.0165.09602.0244.15758.0244h.1847zm-1.67806-3.3647.03276-.3553c.00734-.0437-.01017-.0773-.0514-.1011-.0418-.0233-.11297-.0359-.21463-.0359-.10167 0-.18131.012-.22762.0359-.04688.0238-.0723.0574-.07625.1011l-.03785.3553c-.00395.0438.01638.0773.05988.1012.04349.0239.11522.0358.21688.0358.19204 0 .29145-.0455.29879-.1364m-.09206 3.3454c.08698-.0307.13894-.0864.15758-.1666.01073-.0728.01694-.1285.01864-.1666.00169-.0386.00282-.0614.00282-.0682 0-.0329-.01073-.0489-.03276-.0489-.01468 0-.03784.0063-.0706.0188-.03276.0131-.07229.0188-.11974.0188-.05422 0-.09206-.0171-.11353-.0518-.02202-.0346-.02937-.0938-.02202-.1773l.20672-2.0811c.00339-.0438-.01356-.0774-.0514-.1012-.03841-.0239-.10054-.0358-.18695-.0358h-.05987c-.16267 0-.24965.0454-.26038.1364l-.20673 2.0868c-.02541.2547.01186.432.11127.5326.09941.1001.22706.1501.38295.1501.07568 0 .15758-.0153.244-.0466m-1.47756 0c.08359-.0307.13217-.0864.14685-.1666.01469-.0727.0226-.1284.02429-.1665.00169-.0387.00282-.0614.00282-.0682 0-.033-.01073-.0489-.03276-.0489-.01468 0-.03784.0062-.0706.0187-.03276.0131-.07229.0188-.11974.0188-.05422 0-.09432-.0188-.11917-.0569-.02542-.0386-.03446-.0955-.02711-.1722l.14063-1.4257c.02542-.2694-.02146-.4735-.14063-.6122-.11975-.1381-.30783-.2075-.56425-.2075-.12652 0-.25417.0256-.38295.0762-.12821.0511-.24795.1267-.35809.2268-.11014.1-.20898.2245-.29596.374l.07625.1313c.00734-.0363.01412-.0875.02146-.1529.00734-.0659.01073-.1313.01073-.1967 0-.0949-.01073-.1819-.03219-.262-.02203-.0802-.06157-.1205-.11974-.1205-.0435 0-.09715.004-.15985.0108-.06326.0074-.11974.0216-.16831.0437-.04858.0216-.07343.0529-.07343.0933 0 .0216.0017.0472.00565.0761.00339.029.00565.0762.00565.1422 0 .0545-.00508.1415-.01356.262-.00903.1205-.02089.2439-.03558.3712l-.17905 1.6934c-.00395.0364.01356.0683.0514.0955.03841.0273.09884.041.18187.041h.05987c.16606 0 .25304-.0455.26038-.1365l.16267-1.5678c.06552-.1858.1412-.3302.22818-.4343.08698-.104.17623-.1779.26886-.2211.09206-.0438.17622-.0659.2519-.0659.13047 0 .22875.0341.29597.1012.06721.067.09319.1773.0785.3302l-.13047 1.3274c-.02485.2586.01356.4388.11692.5406.10336.1017.24005.1529.41005.1529.06496 0 .13895-.0154.22254-.0466m-3.72947-.2922c.2858-.2257.44846-.5389.48857-.9397l.25473-2.458c.00734-.0437-.00622-.0773-.04067-.1011-.03445-.0239-.09715-.0359-.18695-.0359h-.08134c-.17001 0-.25868.0455-.26602.1365l-.2553 2.4523c-.02542.2473-.12595.44-.30105.5764-.17509.1364-.41344.2046-.71336.2046-.29991 0-.535442-.0653-.672692-.1966-.13725-.1314-.195426-.3042-.173398-.5185l.260379-2.5182c.003389-.0438-.011861-.0773-.046314-.1012-.034454-.0239-.097148-.0358-.186954-.0358h-.081333c-.170574 0-.258685.0454-.266028.1364l-.26150914 2.5274c-.04010186.3967.06156484.6986.30387014.9038.242306.2058.600398.3087 1.074279.3087.47388 0 .86473-.1126 1.15053-.3383"/></g></svg>