<svg width="129" height="26" viewBox="0 0 129 26" fill="none" xmlns="http://www.w3.org/2000/svg">
<g clip-path="url(#clip0_2418_8185)">
<path fill-rule="evenodd" clip-rule="evenodd" d="M16.251 22.7668H16.3691V23.0742L16.251 22.7668ZM19.4607 22.7668H19.3426V23.0742L19.4607 22.7668ZM19.3426 23.773C19.3426 23.7856 19.3426 23.8109 19.3511 23.8446C19.3721 23.9203 19.4523 24.0087 19.5324 24.013H33.8601V21.3944C33.8559 21.3397 33.8306 21.285 33.7969 21.2429C33.7547 21.2092 33.7083 21.1839 33.6577 21.1797H19.7897V22.7668L19.3426 23.773ZM16.3607 19.6852C16.2679 19.7063 16.192 19.7947 16.192 19.8915V22.4974H19.524V19.8999C19.524 19.8999 19.524 19.8747 19.5155 19.8452C19.4902 19.7442 19.4143 19.6852 19.3089 19.681H16.3902C16.3818 19.681 16.3733 19.681 16.3607 19.6852ZM2.04561 25.2927L1.63227 24.274H1.59009V22.6658H0.269936V25.4822H1.83472C1.83472 25.4822 1.85581 25.4822 1.88534 25.4738C1.96969 25.4527 2.03717 25.3812 2.04561 25.2927ZM1.91908 24.274L2.04561 24.5855V24.274H1.91908ZM33.7969 24.2782H33.6703V24.5897L33.7969 24.2782ZM34.1301 22.67V24.2782L33.6703 25.2927C33.6999 25.4148 33.7842 25.4822 33.8812 25.4864H35.446V22.67H34.1301ZM19.0727 23.0152H16.9301V24.0972C16.9301 24.0972 16.9258 24.1435 16.9132 24.1982C16.8626 24.3834 16.715 24.5097 16.5209 24.5223L2.60235 24.5266V25.5832C2.60657 25.8063 2.40834 26.0042 2.18901 26H0.421775V25.7516H0V22.4006H1.58588V21.4071C1.59009 21.2597 1.64492 21.1418 1.72506 21.0492C1.80942 20.9734 1.91908 20.9187 2.02874 20.9103H2.05826H15.9178V19.8957C15.9136 19.6768 16.0781 19.4747 16.2932 19.4242C16.3269 19.4158 16.3564 19.4116 16.3733 19.4116H16.4071H19.3004H19.33C19.5577 19.4242 19.7391 19.5926 19.777 19.8115C19.9542 19.8663 20.0723 20.0304 20.0765 20.2157V20.9145H33.6492H33.6788C33.7926 20.9229 33.8981 20.9819 33.9824 21.0534C34.0457 21.1292 34.0963 21.2176 34.1132 21.3144C34.168 21.3313 34.2313 21.3608 34.2903 21.4155C34.3578 21.4955 34.4084 21.5965 34.4127 21.7017V22.4048H35.7075V22.7879H35.9985V26.0042H34.2355C34.2355 26.0042 34.1933 26.0042 34.1343 25.9874C33.9951 25.9495 33.9023 25.8653 33.8517 25.7516C33.8306 25.7516 33.7969 25.7474 33.7589 25.7348C33.5564 25.6801 33.3793 25.478 33.3962 25.2633V24.5223H19.9078C19.7307 24.5139 19.6041 24.4087 19.5409 24.274C19.2709 24.2571 19.0727 24.0214 19.0727 23.7814V23.0152ZM16.3691 23.7983L15.922 22.7668V21.1755H2.05826C2.00765 21.1797 1.95704 21.205 1.91908 21.2387C1.88534 21.2808 1.85581 21.3355 1.85581 21.3902V24.0087H16.154C16.2763 23.9919 16.3522 23.9203 16.3691 23.7983ZM28.0185 13.9304C28.0692 13.9135 28.1198 13.9135 28.1704 13.9177L28.1324 13.8925C28.1324 13.8925 28.0692 13.8462 28.0228 13.8209C27.9806 13.7957 27.9426 13.7704 27.892 13.7578L27.8583 13.7536L27.8667 13.8462C27.8709 13.9051 27.8878 13.9809 27.9637 13.9556L28.0185 13.9304ZM28.318 14.0062C28.5584 14.1703 28.8958 14.3303 29.1911 14.2756C29.2501 14.263 29.326 14.2251 29.4104 14.1745C29.1784 14.3093 28.9043 14.2966 28.5289 14.1198C28.4487 14.0819 28.377 14.044 28.318 14.0062ZM29.5369 14.0819C29.7099 13.9472 29.8743 13.7704 29.925 13.6441C29.9334 13.6231 29.9376 13.6062 29.9376 13.6062C30.0009 13.341 29.9714 13.0126 29.7647 12.9116C29.4399 12.7516 29.0645 12.7853 28.7145 12.7769C28.0649 12.7642 27.7064 12.9411 27.0569 12.9453C26.6056 12.9453 26.3567 12.8779 25.9054 12.8737C25.6692 12.8695 25.5385 12.8948 25.3065 12.8821C25.0577 12.8695 24.9185 12.8106 24.6696 12.8106C24.4545 12.8106 24.1888 12.8653 24.1171 12.8653C24.0075 12.8653 23.9779 12.7853 23.8683 12.8274C23.7881 12.8611 23.7164 12.8695 23.6363 12.8274L23.6025 12.8063L23.5562 12.7727C23.5098 12.7432 23.4676 12.7558 23.4338 12.7685L23.379 12.7895C23.3579 12.7979 23.3326 12.8063 23.3031 12.8063L23.4929 12.8905C23.282 13.0295 23.2483 13.0084 23.1766 13.2273C23.1217 13.3999 22.9741 13.4294 22.9235 13.6104C22.894 13.7157 22.8644 13.8251 22.7843 13.9051L22.7506 13.9346C22.662 14.0188 22.8138 14.1409 22.9151 14.1198C22.9615 14.1114 23.0121 14.0988 23.0542 14.0819L23.0922 14.0651C23.2061 14.0146 23.3368 14.0483 23.4338 14.1156L23.4718 14.1409C23.6827 14.2377 23.8514 13.943 24.2858 14.3051C24.4208 14.4187 24.5515 14.5997 24.5853 14.7766L24.5979 14.8439C24.6443 14.886 24.6739 14.9113 24.6949 14.9365C24.8468 15.067 24.7751 15.1386 24.9564 15.2438C25.0914 15.3238 25.3656 15.467 25.3656 15.467C25.2981 15.9174 25.4415 15.7448 25.4457 16.01C25.4457 16.069 25.4331 16.1153 25.4204 16.1532L25.4035 16.2037C25.3824 16.2753 25.3782 16.351 25.3698 16.4268C25.2939 16.5026 25.2179 16.5784 25.1716 16.6752C25.3023 16.6962 25.3487 16.6878 25.4499 16.6078L25.3951 16.4184C25.4584 16.3763 25.5512 16.3342 25.5258 16.2458L25.509 16.1826C25.4373 15.8837 25.6946 15.387 25.8211 15.1344C25.9097 15.4165 25.9771 15.6312 26.1669 15.8711L26.1965 16.2879L26.1121 16.2458L26.1838 16.3468L26.1163 16.3763C26.1079 16.4058 26.091 16.4437 26.0742 16.4815C26.1374 16.511 26.2682 16.5321 26.323 16.4815L26.2977 16.3973C26.2977 16.3973 26.323 16.3552 26.3272 16.3468C26.3314 16.3342 26.3357 16.3216 26.3399 16.3089C26.3272 16.2626 26.3188 16.2416 26.3103 16.2163L26.2724 16.1279C26.2091 15.9679 26.2133 15.7995 26.1922 15.6312C26.1712 15.4712 26.1163 15.1302 26.1163 15.1302C26.1163 15.1302 26.5465 15.0923 26.7616 15.0839C26.9683 15.0755 27.5672 15.0881 27.5672 15.0881L27.4238 15.1849C27.5715 15.147 27.795 14.987 27.989 14.9239C28.2083 14.8523 28.4445 14.8271 28.6723 14.8018C28.6849 14.9997 28.6849 15.1512 28.8115 15.3154C29.0603 15.6396 28.9633 16.0479 28.8368 16.4058C28.8579 16.4016 28.9254 16.3973 28.9464 16.3931C28.9844 16.0984 29.0772 15.8585 29.1658 15.6059C29.1742 15.5764 29.1152 15.147 29.1152 15.1218L29.2839 15.0712C29.2839 15.0712 29.3387 15.1933 29.3935 15.3575C29.5538 15.8122 29.5538 15.9932 29.5158 16.4437L29.5622 16.4942L29.6382 16.4815L29.6677 16.4731L29.6466 16.41C29.5875 16.2332 29.596 16.0227 29.6002 15.8332C29.6297 15.5596 29.6719 15.408 29.5411 15.1765C29.3598 14.8565 29.4399 14.5113 29.6044 14.2124C29.4737 14.3093 29.3387 14.3808 29.2375 14.4019C28.8663 14.4734 28.4403 14.263 28.1535 14.044H28.1155C28.1071 14.044 28.0945 14.0483 28.0818 14.0483L28.0396 14.0651C27.854 14.1282 27.7486 13.9893 27.7317 13.8209C27.7233 13.7367 27.7402 13.7367 27.6853 13.6988L27.4998 13.5725C27.4998 13.5725 27.7613 13.5473 27.8076 13.5473C27.9974 13.5473 28.1029 13.6188 28.2505 13.7241C28.2674 13.7367 28.879 14.1788 29.2375 14.0483C29.5074 13.9514 29.6339 13.7409 29.7647 13.5178L29.79 13.4757C29.79 13.4799 29.8069 13.4968 29.7942 13.5178L29.9461 13.4673C29.9503 13.4757 29.9545 13.5094 29.9334 13.5515L29.9081 13.5978C29.7731 13.8251 29.6592 13.9767 29.5369 14.0819ZM29.8912 16.8225L29.9165 16.9109C29.9165 16.9109 29.8828 16.9657 29.8533 16.9951C29.7436 17.113 29.6297 17.1341 29.4779 17.1214C29.3682 17.1004 29.2501 17.0036 29.1573 16.9404L29.1953 16.932C29.1573 16.9152 29.1236 16.8899 29.0898 16.8688C28.9464 16.9615 28.6428 16.8562 28.5247 16.8099L28.5879 16.7299C28.4825 16.7047 28.3855 16.671 28.3264 16.6457C28.3264 16.6457 28.4024 16.5279 28.4277 16.4942C28.4909 16.41 28.5584 16.3426 28.6596 16.3047L28.6934 16.2332C28.7735 15.9764 28.8199 15.6817 28.6428 15.4543C28.5711 15.3617 28.5373 15.2944 28.512 15.206C28.1535 15.2649 28.0565 15.3238 27.6896 15.5049C27.5925 15.5554 27.4744 15.5722 27.369 15.5385L27.3395 15.5259C27.3057 15.5091 27.2762 15.4796 27.2762 15.4375C26.9936 15.4333 26.7153 15.4459 26.4369 15.4712C26.4495 15.5554 26.4748 15.7027 26.4875 15.808C26.5086 15.9595 26.5044 16.1195 26.5592 16.2668L26.5929 16.351C26.6351 16.4521 26.6562 16.5068 26.6098 16.612L26.6225 16.6584C26.6478 16.8267 26.4411 16.8646 26.3188 16.8646C26.2176 16.8646 26.1121 16.7973 26.032 16.7426L26.0573 16.6878C26.0278 16.6794 25.9982 16.671 25.9771 16.6626C25.9307 16.6415 25.8464 16.5826 25.8464 16.5826C25.8464 16.5826 25.8633 16.5026 25.8759 16.4689C25.897 16.4058 25.9307 16.3384 25.9729 16.2837V15.9511L25.935 15.9006L25.9012 15.8543C25.838 16.0185 25.7831 16.2121 25.8127 16.3384L25.8295 16.3973C25.859 16.5152 25.8253 16.5868 25.7367 16.6626L25.7789 16.8436C25.7789 16.8436 25.7241 16.8983 25.6861 16.9278C25.509 17.0667 25.3487 17.0415 25.142 16.9825C25.142 16.9825 25.1378 16.9236 25.1378 16.9109C25.142 16.8983 25.1462 16.8857 25.1505 16.8688C25.083 16.8604 25.0071 16.8394 24.9311 16.8141C24.9311 16.8141 24.9522 16.7005 24.9733 16.6541C25.0155 16.5489 25.0745 16.4689 25.1505 16.3847L25.18 16.3552C25.1884 16.2879 25.1926 16.2205 25.2137 16.1574C25.3023 15.9048 25.1209 15.9258 25.1505 15.5975C24.9986 15.488 24.7287 15.3744 24.6486 15.2102C24.619 15.147 24.5853 15.126 24.5473 15.0712L24.5262 15.0418C24.4377 14.9786 24.425 14.9997 24.4039 14.8776L24.3955 14.8144C24.3786 14.7345 24.3322 14.6418 24.2647 14.5576C23.9695 14.3303 23.8177 14.5829 23.5646 14.465C23.5519 14.4608 23.5393 14.4524 23.5266 14.444C23.4465 14.385 23.3706 14.364 23.3115 14.3892L23.2736 14.4061C23.1049 14.4777 22.8687 14.4945 22.7674 14.2966C22.6873 14.263 22.6198 14.2166 22.5776 14.1282C22.5228 14.0188 22.5312 13.8925 22.6198 13.8041L22.6536 13.7746C22.759 13.6694 22.7084 13.4715 22.9108 13.2905C23.0585 13.1558 22.9825 13.0674 23.1217 12.9284C22.9699 12.8484 22.8476 12.7432 22.7337 12.6085L22.8476 12.4738C22.8476 12.4738 22.9193 12.5159 23.0121 12.5538C23.088 12.5874 23.2314 12.6422 23.32 12.6127L23.3706 12.5916C23.4549 12.5622 23.5435 12.5538 23.6236 12.5959L23.6574 12.6169L23.6996 12.6506C23.7839 12.6969 23.8514 12.5664 24.0581 12.659C24.0749 12.6674 24.0918 12.6758 24.1129 12.6758C24.1846 12.6758 24.4503 12.6211 24.6654 12.6211C24.9185 12.6211 25.0577 12.6801 25.3107 12.6927C25.5427 12.7011 25.6735 12.6801 25.9054 12.6843C26.3525 12.6885 26.6056 12.76 27.0527 12.7558C27.7022 12.7516 28.0607 12.5748 28.7145 12.5874C29.1616 12.5959 29.8659 12.5369 30.0768 12.9874C30.2076 13.08 30.2793 13.1894 30.2835 13.4378C30.2919 13.6652 30.2539 14.0272 30.0768 14.2082C29.8448 14.5198 29.6213 14.9281 29.828 15.2986C29.9798 15.568 29.9376 15.7322 29.9081 16.0395C29.9081 16.0395 29.9039 16.3258 29.9334 16.5068C29.9376 16.5236 29.9418 16.5405 29.9461 16.5615L29.9671 16.6205C30.0051 16.7257 29.9967 16.7847 29.8912 16.8225ZM29.326 16.2458C29.2923 16.3468 29.2628 16.4479 29.2628 16.5363L29.3176 16.5152C29.3092 16.4731 29.3176 16.3637 29.326 16.2458ZM29.5454 16.5994C29.4821 16.6289 29.3724 16.6836 29.3345 16.7047C29.3007 16.7257 29.2754 16.7468 29.2543 16.7678C29.2796 16.7762 29.305 16.7889 29.326 16.7931C29.4315 16.8015 29.499 16.7931 29.5749 16.7047L29.5454 16.5994ZM28.8115 16.4479C28.8115 16.4479 28.744 16.4605 28.7229 16.4689C28.6765 16.4858 28.6385 16.5152 28.609 16.5531C28.8241 16.6036 28.8579 16.6205 28.8115 16.4479ZM28.0185 8.45337C28.0692 8.43653 28.1198 8.43653 28.1704 8.44074L28.1324 8.41548C28.1324 8.41548 28.0692 8.36917 28.0228 8.34391C27.9806 8.31865 27.9426 8.29339 27.892 8.28076L27.8583 8.27656L27.8667 8.36917C27.8709 8.42811 27.8878 8.50389 27.9637 8.47863L28.0185 8.45337ZM28.318 8.53336C28.5584 8.69754 28.8958 8.86172 29.1911 8.80278C29.2501 8.79016 29.326 8.75227 29.4104 8.70175C29.1784 8.83646 28.9043 8.82384 28.5289 8.64702C28.4487 8.60492 28.377 8.56703 28.318 8.53336ZM29.5369 8.60913C29.7099 8.47442 29.8743 8.2976 29.925 8.17131C29.9334 8.15026 29.9376 8.13342 29.9376 8.13342C30.0009 7.8682 29.9714 7.53983 29.7647 7.4388C29.4399 7.27882 29.0645 7.3125 28.7145 7.30408C28.0649 7.29145 27.7064 7.46826 27.0569 7.47247C26.6056 7.47247 26.3567 7.40512 25.9054 7.40091C25.6692 7.3967 25.5385 7.42196 25.3065 7.40933C25.0577 7.3967 24.9185 7.33776 24.6696 7.33776C24.4545 7.33776 24.1888 7.39249 24.1171 7.39249C24.0075 7.39249 23.9779 7.3125 23.8683 7.3546C23.7881 7.38828 23.7164 7.3967 23.6363 7.3546L23.6025 7.33355L23.5562 7.29987C23.5098 7.2704 23.4676 7.28303 23.4338 7.29566L23.379 7.31671C23.3579 7.32513 23.3326 7.33355 23.3031 7.33355L23.4929 7.41775C23.282 7.55667 23.2483 7.53562 23.1766 7.75453C23.1217 7.92293 22.9741 7.95661 22.9235 8.13763C22.894 8.24288 22.8644 8.35233 22.7843 8.43232L22.7506 8.46179C22.662 8.54599 22.8138 8.66807 22.9151 8.64702C22.9615 8.6386 23.0121 8.62597 23.0542 8.60913L23.0922 8.59229C23.2061 8.54177 23.3368 8.57545 23.4338 8.64281L23.4718 8.66807C23.6827 8.7649 23.8514 8.47021 24.2858 8.83225C24.4208 8.94592 24.5515 9.12694 24.5853 9.30376L24.5979 9.37111C24.6443 9.41321 24.6739 9.43847 24.6949 9.46373C24.8468 9.59424 24.7751 9.6658 24.9564 9.77105C25.0914 9.85104 25.3656 9.99417 25.3656 9.99417C25.2981 10.4446 25.4415 10.272 25.4457 10.5372C25.4457 10.5962 25.4331 10.6425 25.4204 10.6804L25.4035 10.7309C25.3824 10.8025 25.3782 10.8782 25.3698 10.954C25.2939 11.0298 25.2179 11.1056 25.1716 11.2024C25.3023 11.2234 25.3487 11.215 25.4499 11.135L25.3951 10.9456C25.4584 10.9035 25.5512 10.8614 25.5258 10.773L25.509 10.7098C25.4373 10.4109 25.6946 9.91418 25.8211 9.66159C25.9097 9.94365 25.9771 10.1584 26.1669 10.3983L26.1965 10.8151L26.1121 10.773L26.1838 10.874L26.1163 10.9035C26.1079 10.933 26.091 10.9709 26.0742 11.0087C26.1374 11.0382 26.2682 11.0593 26.323 11.0087L26.2808 10.9456C26.2808 10.9456 26.3061 10.9035 26.3103 10.8951C26.3146 10.8824 26.3188 10.8698 26.323 10.8572C26.3103 10.8109 26.3019 10.7898 26.2935 10.7646L26.2555 10.6762C26.1923 10.5162 26.1965 10.3478 26.1754 10.1794C26.1543 10.0194 26.0995 9.67843 26.0995 9.67843C26.0995 9.67843 26.5297 9.64054 26.7448 9.63212C26.9514 9.6237 27.5504 9.63633 27.5504 9.63633L27.407 9.73316C27.5546 9.69527 27.7781 9.5353 27.9721 9.47215C28.1915 9.40058 28.4277 9.37532 28.6554 9.35007C28.6681 9.54793 28.6681 9.70369 28.7946 9.86367C29.0435 10.1878 28.9464 10.5962 28.8199 10.9498C28.841 10.9498 28.9085 10.9414 28.9296 10.9372C28.9675 10.6425 29.0603 10.4025 29.1489 10.1499C29.1573 10.1205 29.0983 9.69106 29.0983 9.6658L29.267 9.6195C29.267 9.6195 29.3218 9.74158 29.3767 9.90576C29.5369 10.3604 29.5369 10.5415 29.499 10.9919L29.5454 11.0424L29.6213 11.0298L29.6508 11.0214L29.6297 10.9624C29.5707 10.7856 29.5791 10.5751 29.5833 10.3857C29.6128 10.112 29.655 9.96049 29.5243 9.72895C29.3429 9.409 29.423 9.0638 29.5875 8.7649C29.4568 8.86172 29.3218 8.93329 29.2206 8.95434C28.8494 9.02591 28.4234 8.81542 28.1366 8.5965H28.0987C28.0902 8.5965 28.0776 8.60071 28.0649 8.60071L28.0228 8.61755C27.8372 8.6807 27.7317 8.54177 27.7149 8.37338C27.7064 8.28918 27.7233 8.28918 27.6685 8.2513L27.4829 8.125C27.4829 8.125 27.7444 8.09974 27.7908 8.09974C27.9806 8.09974 28.086 8.17131 28.2336 8.27656C28.2505 8.28918 28.8621 8.73122 29.2206 8.60071C29.4905 8.50389 29.6171 8.29339 29.7478 8.07027L29.7731 8.02817C29.7731 8.03238 29.79 8.04922 29.7773 8.07027L29.9292 8.01975C29.9334 8.02817 29.9376 8.06185 29.9165 8.10395L29.8912 8.15026C29.7731 8.34812 29.6592 8.49968 29.5369 8.60913ZM29.8912 11.3497L29.9165 11.4381C29.9165 11.4381 29.8828 11.4887 29.8533 11.5223C29.7436 11.6402 29.6297 11.6613 29.4779 11.6486C29.3682 11.6276 29.2501 11.5308 29.1573 11.4634L29.1953 11.455C29.1573 11.4381 29.1236 11.4129 29.0898 11.3918C28.9464 11.4845 28.6428 11.3792 28.5247 11.3329L28.5879 11.2529C28.4825 11.2277 28.3855 11.194 28.3264 11.1687C28.3264 11.1687 28.4024 11.0508 28.4277 11.0172C28.4909 10.933 28.5584 10.8656 28.6596 10.8277L28.6934 10.7562C28.7735 10.4994 28.8199 10.2047 28.6428 9.97733C28.5711 9.88472 28.5373 9.81736 28.512 9.72895C28.1535 9.78789 28.0565 9.84683 27.6896 10.0279C27.5925 10.0784 27.4744 10.0952 27.369 10.0615L27.3395 10.0489C27.3057 10.0321 27.2762 10.0026 27.2762 9.96049C26.9936 9.95628 26.7153 9.96891 26.4369 9.99417C26.4495 10.0784 26.4748 10.2257 26.4875 10.331C26.5086 10.4825 26.5044 10.6425 26.5592 10.7898L26.5929 10.874C26.6351 10.9751 26.6562 11.0298 26.6098 11.135L26.6225 11.1813C26.6478 11.3497 26.4411 11.3876 26.3188 11.3876C26.2176 11.3876 26.1121 11.3203 26.032 11.2655L26.0573 11.2108C26.0278 11.2024 25.9982 11.194 25.9771 11.1813C25.9307 11.1603 25.8464 11.1014 25.8464 11.1014C25.8464 11.1014 25.8633 11.0214 25.8759 10.9877C25.897 10.9245 25.9307 10.8572 25.9729 10.8025V10.4699L25.935 10.4194L25.9012 10.3731C25.838 10.5372 25.7831 10.7309 25.8127 10.8572L25.8295 10.9161C25.859 11.034 25.8253 11.1056 25.7367 11.1813L25.7789 11.3624C25.7789 11.3624 25.7241 11.4171 25.6861 11.4466C25.509 11.5855 25.3487 11.5602 25.142 11.5013C25.142 11.5013 25.1378 11.4424 25.1378 11.4297C25.142 11.4171 25.1462 11.4045 25.1505 11.3876C25.083 11.3792 25.0071 11.3582 24.9311 11.3329C24.9311 11.3329 24.9522 11.2192 24.9733 11.1729C25.0155 11.0677 25.0745 10.9877 25.1505 10.9035L25.18 10.874C25.1884 10.8067 25.1926 10.7393 25.2137 10.6762C25.3023 10.4236 25.1209 10.4446 25.1505 10.1163C24.9986 10.0068 24.7287 9.89314 24.6486 9.72895C24.619 9.6658 24.5853 9.64475 24.5473 9.59003L24.5262 9.56056C24.4377 9.49741 24.425 9.51846 24.4039 9.39637L24.3955 9.33323C24.3786 9.25324 24.3322 9.16062 24.2647 9.07643C23.9695 8.84909 23.8177 9.10168 23.5646 8.98381C23.5519 8.9796 23.5393 8.97118 23.5266 8.96276C23.4465 8.90382 23.3706 8.88277 23.3115 8.90803L23.2736 8.92487C23.1049 8.99644 22.8687 9.01328 22.7674 8.81542C22.6873 8.78174 22.6198 8.73543 22.5776 8.64702C22.5228 8.53757 22.5312 8.41127 22.6198 8.32286L22.6536 8.29339C22.759 8.18815 22.7084 7.99028 22.9108 7.80926C23.0585 7.67455 22.9825 7.58614 23.1217 7.44722C22.9699 7.36723 22.8476 7.26198 22.7337 7.12727L22.8476 6.99255C22.8476 6.99255 22.9193 7.03465 23.0121 7.07254C23.088 7.10622 23.2314 7.16095 23.32 7.13148L23.3706 7.11043C23.4549 7.08096 23.5435 7.07254 23.6236 7.11464L23.6574 7.15674L23.6996 7.19041C23.7839 7.23672 23.8514 7.10622 24.0581 7.19883C24.0749 7.20725 24.0918 7.21567 24.1129 7.21567C24.1846 7.21567 24.4503 7.16095 24.6654 7.16095C24.9185 7.16095 25.0577 7.21988 25.3107 7.23251C25.5427 7.24093 25.6735 7.21988 25.9054 7.22409C26.3525 7.2283 26.6056 7.29987 27.0527 7.29566C27.7022 7.29145 28.0607 7.11464 28.7145 7.12727C29.1616 7.13569 29.8659 7.07675 30.0768 7.5272C30.2076 7.61982 30.2793 7.72928 30.2835 7.97766C30.2919 8.20499 30.2539 8.56703 30.0768 8.74806C29.8448 9.05959 29.6213 9.46794 29.828 9.83841C29.9798 10.1078 29.9376 10.272 29.9081 10.5793C29.9081 10.5793 29.9039 10.8656 29.9334 11.0466C29.9376 11.0635 29.9418 11.0803 29.9461 11.1014L29.9671 11.1603C30.0051 11.2529 29.9967 11.3076 29.8912 11.3497ZM29.326 10.7688C29.2923 10.8698 29.2628 10.9709 29.2628 11.0593L29.3176 11.0382C29.3092 10.9961 29.3176 10.8867 29.326 10.7688ZM29.5454 11.1224C29.4821 11.1519 29.3724 11.2066 29.3345 11.2277C29.3007 11.2487 29.2754 11.2698 29.2543 11.2908C29.2796 11.2992 29.305 11.3119 29.326 11.3161C29.4315 11.3245 29.499 11.3161 29.5749 11.2277L29.5454 11.1224ZM28.8115 10.9751C28.8115 10.9751 28.744 10.9877 28.7229 10.9961C28.6765 11.013 28.6385 11.0424 28.609 11.0803C28.8241 11.1266 28.8579 11.1435 28.8115 10.9751ZM26.808 1.04825L27.0948 1.46503L27.9342 1.30926L27.8878 1.55764L28.086 1.51975L27.9384 2.29016L28.4994 2.67325L28.4361 2.71535L28.6428 2.85427L27.93 3.34262L28.086 4.1888L27.2383 4.03303L26.749 4.74029L26.6098 4.53821L26.5718 4.59715L26.1922 4.04145L25.412 4.18459L25.4584 3.98251L25.2095 4.02882L25.3656 3.19106L24.9438 2.90479L24.6443 2.66904L25.3698 2.17228L25.2095 1.30926L26.0742 1.46924L26.5718 0.745143L26.787 1.06088L26.808 1.04825ZM26.5803 2.46697C26.458 2.46697 26.361 2.56801 26.361 2.69009C26.361 2.81218 26.4622 2.909 26.5803 2.909C26.7026 2.909 26.7996 2.80797 26.7996 2.69009C26.7996 2.5638 26.7026 2.46697 26.5803 2.46697ZM26.8502 2.45855L27.5968 2.14702L27.7106 1.52817L27.0906 1.64184L26.787 2.39961C26.8123 2.42066 26.8333 2.4375 26.8502 2.45855ZM26.9346 2.71535L27.6685 3.02688L28.1872 2.66904L27.6642 2.31541L26.9261 2.62273C26.9304 2.64378 26.9346 2.66904 26.9346 2.69009V2.71535ZM26.7996 2.96373L27.0948 3.69203L27.7149 3.8057L27.601 3.18685L26.8797 2.87953C26.8544 2.91321 26.8291 2.94268 26.7996 2.96373ZM26.5255 3.03951L26.2176 3.7636L26.5718 4.28141L26.9304 3.7636L26.6393 3.03951C26.6225 3.04372 26.6014 3.04372 26.5803 3.04372C26.5592 3.04372 26.5423 3.03951 26.5255 3.03951ZM26.285 2.88795L25.5427 3.19106L25.4288 3.80991L26.0488 3.69624L26.3567 2.96794C26.3314 2.94268 26.3061 2.91742 26.285 2.88795ZM26.2302 2.62694L25.4752 2.31541L24.9564 2.67325L25.4752 3.03109L26.2218 2.72377V2.69009C26.2218 2.66904 26.226 2.64799 26.2302 2.62694ZM26.3652 2.40382L26.0488 1.64605L25.4288 1.53238L25.5427 2.15123L26.3019 2.46697C26.323 2.44171 26.3441 2.42066 26.3652 2.40382ZM26.2133 1.57869L26.5297 2.33646C26.5465 2.33646 26.5634 2.33225 26.5761 2.33225C26.5929 2.33225 26.6056 2.33225 26.6225 2.33646L26.9261 1.57869L26.5718 1.06088L26.2133 1.57869ZM31.4518 1.04825L31.7386 1.46503L32.5779 1.30926L32.5315 1.55764L32.7298 1.51975L32.5821 2.29016L33.1431 2.67325L33.0798 2.71535L33.2865 2.85427L32.5737 3.34262L32.734 4.1888L31.8862 4.03303L31.397 4.74029L31.2578 4.53821L31.2114 4.59715L30.8318 4.04145L30.0515 4.18459L30.0979 3.98251L29.849 4.02882L30.0051 3.19106L29.5833 2.90479L29.2839 2.66904L30.0093 2.17228L29.849 1.30926L30.7137 1.46924L31.2114 0.745143L31.4265 1.06088L31.4518 1.04825ZM31.2198 2.46697C31.0975 2.46697 31.0005 2.56801 31.0005 2.69009C31.0005 2.81218 31.0975 2.909 31.2198 2.909C31.3421 2.909 31.4391 2.80797 31.4391 2.69009C31.4434 2.5638 31.3421 2.46697 31.2198 2.46697ZM31.494 2.45855L32.2405 2.14702L32.3544 1.52817L31.7344 1.64184L31.4307 2.39961C31.456 2.42066 31.4729 2.4375 31.494 2.45855ZM31.5741 2.71535L32.308 3.02688L32.8268 2.66904L32.308 2.31541L31.5699 2.62273C31.5741 2.64378 31.5783 2.66904 31.5783 2.69009L31.5741 2.71535ZM31.4434 2.96373L31.7386 3.69203L32.3586 3.8057L32.2447 3.18685L31.5235 2.87953C31.494 2.91321 31.4687 2.94268 31.4434 2.96373ZM31.165 3.03951L30.8571 3.7636L31.2114 4.28141L31.5699 3.7636L31.2789 3.03951C31.262 3.04372 31.2409 3.04372 31.2198 3.04372C31.2029 3.04372 31.1819 3.03951 31.165 3.03951ZM30.9288 2.88795L30.1865 3.19106L30.0726 3.80991L30.6926 3.69624L31.0005 2.96794C30.9752 2.94268 30.9499 2.91742 30.9288 2.88795ZM30.8697 2.62694L30.119 2.31541L29.6002 2.67325L30.119 3.03109L30.8655 2.72377V2.69009C30.8655 2.66904 30.8697 2.64799 30.8697 2.62694ZM31.0089 2.40382L30.6926 1.64605L30.0726 1.53238L30.1865 2.15123L30.9457 2.46697C30.9625 2.44171 30.9836 2.42066 31.0089 2.40382ZM30.8571 1.57869L31.1734 2.33646C31.1903 2.33646 31.2029 2.33225 31.2198 2.33225C31.2367 2.33225 31.2493 2.33225 31.2662 2.33646L31.5699 1.57869L31.2114 1.06088L30.8571 1.57869ZM22.1643 1.04825L22.4511 1.46503L23.2904 1.30926L23.2483 1.55764L23.4465 1.51975L23.2989 2.29016L23.8598 2.67325L23.7966 2.71535L24.0032 2.85427L23.2904 3.34262L23.4465 4.1888L22.5987 4.03303L22.1095 4.74029L21.9703 4.53821L21.9281 4.59715L21.5485 4.04145L20.7682 4.18459L20.8146 3.98251L20.5658 4.02882L20.7218 3.19106L20.3 2.90479L20.0006 2.66904L20.726 2.17228L20.5658 1.30926L21.4304 1.46924L21.9281 0.745143L22.1432 1.06088L22.1643 1.04825ZM21.9365 2.46697C21.8142 2.46697 21.7172 2.56801 21.7172 2.69009C21.7172 2.81218 21.8142 2.909 21.9365 2.909C22.0589 2.909 22.1601 2.80797 22.1601 2.69009C22.1559 2.5638 22.0589 2.46697 21.9365 2.46697ZM22.2065 2.45855L22.953 2.14702L23.0669 1.52817L22.4469 1.64184L22.1432 2.39961C22.1685 2.42066 22.1896 2.4375 22.2065 2.45855ZM22.2908 2.71535L23.0247 3.02688L23.5435 2.66904L23.0205 2.31541L22.2824 2.62273C22.2866 2.64378 22.2908 2.66904 22.2908 2.69009V2.71535ZM22.1559 2.96373L22.4511 3.69203L23.0711 3.8057L22.9572 3.18685L22.236 2.87953C22.2107 2.91321 22.1854 2.94268 22.1559 2.96373ZM21.8817 3.03951L21.5738 3.7636L21.9281 4.28141L22.2866 3.7636L21.9956 3.03951C21.9787 3.04372 21.9576 3.04372 21.9365 3.04372C21.9154 3.04372 21.8986 3.03951 21.8817 3.03951ZM21.6413 2.88795L20.899 3.19106L20.7851 3.80991L21.4051 3.69624L21.713 2.96794C21.6877 2.94268 21.6624 2.91742 21.6413 2.88795ZM21.5865 2.62694L20.8357 2.31541L20.3169 2.67325L20.8357 3.03109L21.5822 2.72377V2.69009C21.5822 2.66904 21.5822 2.64799 21.5865 2.62694ZM21.7214 2.40382L21.4051 1.64605L20.7851 1.53238L20.899 2.15123L21.6582 2.46697C21.6793 2.44171 21.7003 2.42066 21.7214 2.40382ZM21.5738 1.57869L21.8901 2.33646C21.907 2.33646 21.9197 2.33225 21.9365 2.33225C21.9534 2.33225 21.9661 2.33225 21.9829 2.33646L22.2866 1.57869L21.9281 1.06088L21.5738 1.57869ZM7.76488 13.5557C7.8155 13.6525 7.79863 13.7494 7.72692 13.8293L7.76488 14.1956L7.54134 14.2293L7.35154 14.2335L7.13644 14.2293L6.97616 14.2209L6.75262 14.1914L6.77793 14.0693L6.55439 14.0398L6.61766 13.6694C6.56282 13.6104 6.54595 13.5431 6.56282 13.4631L6.57126 13.4252C6.51221 13.3284 6.4616 13.24 6.4616 13.1389C6.4616 13.0758 6.48269 13.0337 6.49956 13.0042C6.44473 12.6211 6.35194 11.8633 6.35194 11.8633L6.56704 11.9097L6.7231 11.8002L6.8412 11.8591L6.96773 11.7876L7.1027 11.8507L7.23345 11.7876L7.36842 11.8676L7.49917 11.8128L7.65522 11.9181L7.87876 11.8676L7.83659 12.1075L8.02639 12.0654L7.8408 13.1473L7.85346 13.181C7.89564 13.2989 7.86189 13.3999 7.79441 13.501L7.76488 13.5557ZM6.73575 13.4715C6.72732 13.5094 6.71888 13.5304 6.74419 13.5599H7.4359C7.46121 13.5304 7.46964 13.5094 7.45699 13.4715L6.73575 13.4673V13.4715ZM7.39794 13.7325H6.78215L6.75262 13.8967L6.80745 13.9051L6.95929 13.9135H7.17018L7.34733 13.9093L7.41481 13.9009L7.39794 13.7325ZM6.71045 13.2905H7.46964L7.49495 13.2526C7.56243 13.1516 7.56665 13.1052 7.51182 13.0042L7.66788 12.0907L7.62148 12.0991L7.4823 12.0023L7.35998 12.0528L7.23345 11.977L7.1027 12.0444L6.97195 11.9812L6.84541 12.0528L6.73575 11.9981L6.60078 12.0907L6.55017 12.078C6.57548 12.2801 6.63031 12.6927 6.6767 12.9621C6.69357 13.0547 6.63453 13.0758 6.63453 13.1305C6.63453 13.2021 6.66827 13.2526 6.71045 13.2905ZM8.65905 10.592C8.70966 10.6888 8.69279 10.7856 8.62109 10.8656L8.65483 11.2319L8.43551 11.2655L8.24571 11.2698H8.0306L7.87033 11.2613L7.64679 11.2319L7.67209 11.1098L7.44855 11.0803L7.51182 10.7098C7.45699 10.6509 7.44012 10.5836 7.45699 10.5036L7.46542 10.4657C7.40638 10.3688 7.35576 10.2762 7.35576 10.1794C7.35576 10.1163 7.37685 10.0742 7.39372 10.0447C7.33889 9.66159 7.2461 8.90382 7.2461 8.90382L7.46121 8.95013L7.61726 8.84067L7.73536 8.89961L7.86189 8.82804L7.99686 8.89119L8.13183 8.81962L8.27102 8.89961L8.40177 8.84488L8.55782 8.95013L8.78136 8.89961L8.73919 9.13957L8.92898 9.09748L8.74762 10.1794L8.76027 10.2131C8.80245 10.331 8.76871 10.432 8.70123 10.533L8.65905 10.592ZM7.62992 10.512C7.62148 10.5499 7.61305 10.5709 7.63835 10.5962H8.33006C8.35537 10.5667 8.3638 10.5457 8.35115 10.5078L7.62992 10.5036V10.512ZM8.2921 10.773H7.67631L7.64679 10.9372L7.70584 10.9456L7.85767 10.954H8.06856L8.24571 10.9456L8.31319 10.9372L8.2921 10.773ZM7.60461 10.331H8.36381L8.39333 10.2931C8.4566 10.192 8.46503 10.1457 8.4102 10.0447L8.56626 9.13115L8.51986 9.13957L8.38068 9.04275L8.25836 9.09326L8.13183 9.01749L8.00108 9.08484L7.87033 9.0217L7.7438 9.09748L7.63413 9.04275L7.49917 9.13536L7.44855 9.12694C7.47386 9.32902 7.52869 9.74158 7.57509 10.0068C7.59196 10.0994 7.53291 10.1205 7.53291 10.1752C7.52447 10.2426 7.56243 10.2931 7.60461 10.331ZM6.87494 10.592C6.92555 10.6888 6.90868 10.7856 6.83698 10.8656L6.87494 11.2319L6.6514 11.2655L6.4616 11.2698H6.24649L6.08622 11.2613L5.86268 11.2319L5.88798 11.1098L5.66444 11.0803L5.72771 10.7098C5.67288 10.6509 5.65601 10.5836 5.67288 10.5036L5.68131 10.4657C5.62227 10.3688 5.57165 10.2762 5.57165 10.1794C5.57165 10.1163 5.59274 10.0742 5.60961 10.0447C5.55478 9.66159 5.46199 8.90382 5.46199 8.90382L5.6771 8.95013L5.83315 8.84067L5.95125 8.89961L6.07778 8.82804L6.21275 8.89119L6.34772 8.81962L6.48691 8.89961L6.61766 8.84488L6.77371 8.95013L6.99725 8.89961L6.95508 9.13957L7.14488 9.09748L6.95929 10.1794L6.97195 10.2131C7.01412 10.331 6.98038 10.432 6.9129 10.533L6.87494 10.592ZM5.84581 10.512C5.83737 10.5499 5.82894 10.5709 5.85424 10.5962H6.54595C6.57126 10.5667 6.5797 10.5457 6.56704 10.5078L5.84581 10.5036V10.512ZM6.50799 10.773H5.8922L5.86268 10.9372L5.92173 10.9456L6.07357 10.954H6.28445L6.4616 10.9456L6.52908 10.9372L6.50799 10.773ZM5.8205 10.331H6.57548L6.60078 10.2931C6.66827 10.192 6.67249 10.1457 6.61766 10.0447L6.77371 9.13115L6.72732 9.13957L6.58813 9.04275L6.46582 9.09326L6.33928 9.01749L6.20853 9.08484L6.07778 9.0217L5.95125 9.09748L5.84159 9.04275L5.70662 9.13536L5.65601 9.12694C5.68131 9.32902 5.73615 9.74158 5.78254 10.0068C5.79941 10.0994 5.74036 10.1205 5.74036 10.1752C5.74036 10.2426 5.77832 10.2931 5.8205 10.331ZM12.3201 16.1279L12.4297 16.1321L12.552 16.6373L12.6533 16.7468C12.6533 16.7468 12.6659 16.7594 12.687 16.7847C12.7123 16.8183 12.7334 16.8478 12.7503 16.8773L12.8135 16.9446C12.8135 16.9446 12.8262 16.9573 12.8431 16.9825C13.0329 17.2267 12.9738 17.3993 12.7545 17.5803C12.7123 17.9466 12.5394 18.0476 12.1767 18.0055C12.0796 18.0981 11.9405 18.2118 11.8013 18.2118C11.6621 18.2118 11.5229 18.1023 11.4301 18.0097C11.2066 18.0602 11.0126 18.0602 10.9113 17.854C10.7553 17.8119 10.6751 17.6771 10.6456 17.433L10.5908 17.3993C10.3419 17.2225 10.4179 16.9446 10.6034 16.7468L10.8438 16.4858L10.9788 15.9343L11.3415 15.9174C11.544 15.7532 11.679 15.7448 11.8983 15.9132L12.2821 15.9385L12.3201 16.1279ZM11.7802 16.0437C11.7549 16.0227 11.7338 16.01 11.7127 15.9974C11.6537 15.9637 11.6115 15.9511 11.5651 15.9722L11.4006 16.0858C11.3542 16.1237 11.35 16.1911 11.3162 16.2205C11.2994 16.2374 11.156 16.1911 11.1855 16.0984L11.118 16.1027L11.0041 16.5657L10.7342 16.8646C10.6161 16.9909 10.5359 17.1425 10.7047 17.2604L10.9577 16.8899L11.1053 16.9909L10.8228 17.4077C10.8565 17.6856 10.9282 17.7361 11.1981 17.6729L11.2994 17.0415L11.4765 17.0709L11.3711 17.7234C11.4259 17.774 11.5398 17.875 11.6283 17.875C11.7127 17.875 11.8266 17.7782 11.8856 17.7234L11.7464 17.0583L11.9194 17.0204L12.0543 17.6729C12.3158 17.694 12.3875 17.6519 12.4255 17.3909L12.1218 16.9867L12.2652 16.8815L12.5352 17.2393C12.6659 17.1172 12.6617 17.0162 12.5309 16.8773L12.2526 16.5742L12.1387 16.1069L12.0586 16.1027L11.9025 16.1911C11.8814 16.1405 11.8688 16.1111 11.8224 16.0816L11.7802 16.0437ZM7.37263 16.1279L7.4823 16.1321L7.60461 16.6373L7.70584 16.7468C7.70584 16.7468 7.71849 16.7594 7.73958 16.7847C7.76488 16.8183 7.78597 16.8478 7.80284 16.8773L7.86611 16.9446C7.86611 16.9446 7.87876 16.9573 7.89563 16.9825C8.08965 17.2267 8.02639 17.3993 7.80706 17.5803C7.76488 17.9466 7.59196 18.0476 7.23345 18.0055C7.13644 18.0981 6.99725 18.2118 6.85807 18.2118C6.71888 18.2118 6.5797 18.1023 6.48691 18.0097C6.26336 18.0602 6.06935 18.0602 5.96812 17.854C5.81206 17.8119 5.73193 17.6771 5.7024 17.433L5.64757 17.3993C5.39873 17.2225 5.47464 16.9446 5.66023 16.7468L5.90064 16.4858L6.03561 15.9343L6.39833 15.9174C6.60078 15.7532 6.73575 15.7448 6.95086 15.9132L7.33467 15.9385L7.37263 16.1279ZM6.83276 16.0437C6.80745 16.0227 6.78637 16.01 6.76528 15.9974C6.70623 15.9637 6.66405 15.9511 6.61766 15.9722L6.45316 16.0858C6.40677 16.1237 6.40255 16.1911 6.36881 16.2205C6.35194 16.2374 6.20853 16.1911 6.23806 16.0984L6.17057 16.1027L6.05669 16.5657L5.78676 16.8646C5.66866 16.9909 5.58852 17.1425 5.75723 17.2604L6.0103 16.8899L6.15792 16.9909L5.87533 17.4077C5.90907 17.6856 5.98077 17.7361 6.25493 17.6729L6.35615 17.0415L6.5333 17.0709L6.42786 17.7234C6.48269 17.774 6.59657 17.875 6.68514 17.875C6.7695 17.875 6.88337 17.7782 6.93821 17.7234L6.79902 17.0583L6.97616 17.0204L7.11113 17.6729C7.37263 17.694 7.44855 17.6519 7.4823 17.3909L7.17862 16.9867L7.32202 16.8815L7.59196 17.2393C7.72271 17.1172 7.71849 17.0162 7.58774 16.8773L7.30937 16.5742L7.19549 16.1069L7.11535 16.1027L6.95929 16.1911C6.9382 16.1405 6.92555 16.1111 6.88337 16.0816L6.83276 16.0437ZM15.5509 13.5094L15.6605 13.5178L15.7828 14.023L15.8841 14.1324C15.8841 14.1324 15.8967 14.1451 15.9178 14.1703C15.9431 14.204 15.9642 14.2335 15.9811 14.263L16.0443 14.3303C16.0443 14.3303 16.057 14.3429 16.0739 14.3682C16.2637 14.6124 16.2046 14.785 15.9853 14.966C15.9431 15.3323 15.7702 15.4333 15.4075 15.3912C15.3104 15.4838 15.1713 15.5975 15.0321 15.5975C14.8929 15.5975 14.7537 15.488 14.6609 15.3954C14.4374 15.4459 14.2434 15.4459 14.1421 15.2396C13.9861 15.1975 13.9059 15.0628 13.8764 14.8187L13.8216 14.785C13.5727 14.6082 13.6487 14.3303 13.8342 14.1324L14.0746 13.8714L14.2096 13.3199L14.5723 13.3031C14.7748 13.1389 14.9098 13.1305 15.1291 13.2989L15.5129 13.3242L15.5509 13.5094ZM15.011 13.4294C14.9857 13.4084 14.9646 13.3957 14.9435 13.3831C14.8845 13.3494 14.8423 13.3368 14.7959 13.3578L14.6314 13.4715C14.585 13.5136 14.5808 13.5767 14.547 13.6062C14.5302 13.6231 14.3868 13.5767 14.4121 13.4841L14.3446 13.4883L14.2307 13.9556L13.9608 14.2545C13.8427 14.3808 13.7625 14.5324 13.9312 14.6503L14.1843 14.2798L14.3319 14.3808L14.0493 14.7976C14.0831 15.0755 14.1548 15.126 14.4247 15.0628L14.5259 14.4313L14.7031 14.4608L14.5976 15.1133C14.6525 15.1639 14.7664 15.2649 14.8549 15.2649C14.9393 15.2649 15.0532 15.1681 15.108 15.1176L14.9688 14.4482L15.1417 14.4145L15.2767 15.067C15.5382 15.0881 15.6141 15.046 15.6479 14.785L15.3442 14.3808L15.4876 14.2756L15.7575 14.6334C15.8883 14.5113 15.8841 14.4103 15.7533 14.2714L15.4749 13.9683L15.3611 13.501L15.2809 13.4968L15.1249 13.5852C15.1038 13.5347 15.0911 13.5052 15.0447 13.4757L15.011 13.4294ZM15.5509 9.61529L15.6605 9.62371L15.7828 10.1289L15.8841 10.2383C15.8841 10.2383 15.8967 10.251 15.9178 10.2762C15.9431 10.3099 15.9642 10.3394 15.9811 10.3688L16.0443 10.4362C16.0443 10.4362 16.057 10.4488 16.0739 10.4741C16.2637 10.7183 16.2046 10.8909 15.9853 11.0719C15.9431 11.4381 15.7702 11.535 15.4075 11.4971C15.3104 11.5897 15.1713 11.7034 15.0321 11.7034C14.8929 11.7034 14.7537 11.5897 14.6609 11.4971C14.4374 11.5476 14.2434 11.5518 14.1421 11.3413C13.9861 11.2992 13.9059 11.1645 13.8764 10.9203L13.8216 10.8867C13.5727 10.7098 13.6487 10.432 13.8342 10.2341L14.0746 9.97312L14.2096 9.42163L14.5723 9.40479C14.7748 9.24061 14.9098 9.23219 15.1291 9.40058L15.5129 9.42584L15.5509 9.61529ZM15.011 9.5353C14.9857 9.51425 14.9646 9.50162 14.9435 9.48899C14.8845 9.4511 14.8423 9.44268 14.7959 9.46373L14.6314 9.5774C14.585 9.61529 14.5808 9.67843 14.547 9.71211C14.5302 9.72895 14.3868 9.68264 14.4121 9.59003L14.3446 9.59424L14.2307 10.0615L13.9608 10.3604C13.8427 10.4867 13.7625 10.6383 13.9312 10.7562L14.1843 10.3857L14.3319 10.4867L14.0493 10.9035C14.0831 11.1813 14.1548 11.2319 14.4247 11.1687L14.5259 10.5372L14.7031 10.5667L14.5976 11.2192C14.6525 11.2698 14.7664 11.3708 14.8549 11.3708C14.9393 11.3708 15.0532 11.274 15.108 11.2234L14.9688 10.5583L15.1417 10.5204L15.2767 11.1729C15.5382 11.194 15.6141 11.1519 15.6479 10.8909L15.3442 10.4867L15.4876 10.3815L15.7575 10.7351C15.8883 10.613 15.8841 10.512 15.7533 10.3731L15.4749 10.0657L15.3611 9.59845L15.2809 9.59424L15.1249 9.68264C15.1038 9.63212 15.0911 9.60687 15.0447 9.57319L15.011 9.5353ZM15.5509 5.72539L15.6605 5.7296L15.7828 6.23478L15.8841 6.34424C15.8841 6.34424 15.8967 6.35687 15.9178 6.38212C15.9431 6.41159 15.9642 6.44527 15.9811 6.47474L16.0443 6.5421C16.0443 6.5421 16.057 6.55473 16.0739 6.57578C16.2637 6.81995 16.2046 6.99255 15.9853 7.17358C15.9431 7.53983 15.7702 7.64087 15.4075 7.59877C15.3104 7.69139 15.1713 7.80505 15.0321 7.80505C14.8929 7.80505 14.7537 7.6956 14.6609 7.60298C14.4374 7.6535 14.2434 7.6535 14.1421 7.44722C13.9861 7.40512 13.9059 7.2704 13.8764 7.02623L13.8216 6.99255C13.5727 6.81574 13.6487 6.53789 13.8342 6.34003L14.0746 6.07902L14.2096 5.52753L14.5723 5.51069C14.7748 5.3465 14.9098 5.33808 15.1291 5.50648L15.5129 5.53174L15.5509 5.72539ZM15.011 5.64119C14.9857 5.62014 14.9646 5.60751 14.9435 5.59488C14.8845 5.5612 14.8423 5.54858 14.7959 5.56962L14.6314 5.68329C14.585 5.72118 14.5808 5.78854 14.547 5.81801C14.5302 5.83484 14.3868 5.78854 14.4121 5.69592L14.3446 5.70013L14.2307 6.16742L13.9608 6.46632C13.8427 6.59262 13.7625 6.74417 13.9312 6.86205L14.1843 6.49158L14.3319 6.59262L14.0493 7.00939C14.0831 7.28724 14.1548 7.33776 14.4247 7.27461L14.5259 6.64314L14.7031 6.6726L14.5976 7.32513C14.6525 7.37565 14.7664 7.47668 14.8549 7.47668C14.9393 7.47668 15.0532 7.37986 15.108 7.32934L14.9688 6.65997L15.1417 6.6263L15.2767 7.27461C15.5382 7.29566 15.6141 7.25356 15.6479 6.99255L15.3442 6.58841L15.4876 6.48316L15.7575 6.841C15.8883 6.71891 15.8841 6.61788 15.7533 6.47895L15.4749 6.17584L15.3611 5.70855L15.2809 5.70434L15.1249 5.79275C15.1038 5.74223 15.0911 5.71697 15.0447 5.68329L15.011 5.64119ZM15.5509 1.83128L15.6605 1.8397L15.7828 2.34488L15.8841 2.45434C15.8841 2.45434 15.8967 2.46697 15.9178 2.49223C15.9431 2.52591 15.9642 2.55538 15.9811 2.58484L16.0443 2.6522C16.0443 2.6522 16.057 2.66483 16.0739 2.69009C16.2637 2.93426 16.2046 3.10687 15.9853 3.28789C15.9431 3.65415 15.7702 3.75518 15.4075 3.71308C15.3104 3.80149 15.1713 3.91516 15.0321 3.91516C14.8929 3.91516 14.7537 3.80149 14.6609 3.71308C14.4374 3.7636 14.2434 3.7636 14.1421 3.55732C13.9861 3.51522 13.9059 3.38051 13.8764 3.13633L13.8216 3.10266C13.5727 2.92584 13.6487 2.64799 13.8342 2.45013L14.0746 2.18912L14.2096 1.63763L14.5723 1.62079C14.7748 1.45661 14.9098 1.44819 15.1291 1.61658L15.5129 1.64184L15.5509 1.83128ZM15.011 1.74709C14.9857 1.72604 14.9646 1.71341 14.9435 1.70078C14.8845 1.66289 14.8423 1.65447 14.7959 1.67552L14.6314 1.78918C14.585 1.82707 14.5808 1.89022 14.547 1.9239C14.5302 1.94074 14.3868 1.89443 14.4121 1.80181L14.3446 1.80602L14.2307 2.27332L13.9608 2.5638C13.8427 2.69009 13.7625 2.84165 13.9312 2.95952L14.1843 2.58905L14.3319 2.69009L14.0493 3.10687C14.0831 3.38051 14.1548 3.43102 14.4247 3.36788L14.5259 2.7364L14.7031 2.76587L14.5976 3.41839C14.6525 3.46891 14.7664 3.56995 14.8549 3.56995C14.9393 3.56995 15.0532 3.47312 15.108 3.4226L14.973 2.75745L15.146 2.71956L15.2809 3.37209C15.5424 3.39314 15.6183 3.35104 15.6521 3.09003L15.3484 2.68588L15.4918 2.57642L15.7617 2.93426C15.8925 2.81218 15.8883 2.71114 15.7575 2.57222L15.4792 2.26911L15.3653 1.80181L15.2851 1.7976L15.1291 1.88601C15.108 1.83549 15.0953 1.81023 15.0489 1.77655L15.011 1.74709ZM4.13762 13.5094L4.24728 13.5178L4.36959 14.023L4.47082 14.1324C4.47082 14.1324 4.48347 14.1451 4.50456 14.1703C4.52987 14.204 4.55096 14.2335 4.56783 14.263L4.63109 14.3303C4.63109 14.3303 4.64375 14.3429 4.66062 14.3682C4.85463 14.6124 4.79137 14.785 4.57204 14.966C4.52987 15.3323 4.35694 15.4333 3.99843 15.3912C3.90142 15.4838 3.76224 15.5975 3.62305 15.5975C3.48386 15.5975 3.34468 15.488 3.25189 15.3954C3.02835 15.4459 2.83433 15.4459 2.7331 15.2396C2.57705 15.1975 2.49691 15.0628 2.46739 14.8187L2.40412 14.7766C2.15527 14.5997 2.23119 14.3219 2.41677 14.124L2.65718 13.863L2.79215 13.3115L3.15488 13.2947C3.35733 13.1305 3.4923 13.1221 3.70741 13.2905L4.09122 13.3157L4.13762 13.5094ZM3.59774 13.4294C3.57244 13.4084 3.55135 13.3957 3.53026 13.3831C3.47121 13.3494 3.42903 13.3368 3.38264 13.3578L3.21815 13.4715C3.17175 13.5136 3.16753 13.5767 3.13379 13.6062C3.11692 13.6231 2.97352 13.5767 3.00304 13.4841L2.93556 13.4883L2.82168 13.9556L2.55174 14.2545C2.43364 14.3808 2.35351 14.5324 2.52222 14.6503L2.77528 14.2798L2.9229 14.3808L2.64031 14.7976C2.67406 15.0755 2.74576 15.126 3.01569 15.0628L3.11692 14.4313L3.29407 14.4608L3.18862 15.1133C3.24345 15.1639 3.35733 15.2649 3.4459 15.2649C3.53026 15.2649 3.64414 15.1681 3.69897 15.1176L3.55978 14.4482L3.73693 14.4145L3.8719 15.067C4.1334 15.0881 4.20932 15.046 4.24306 14.785L3.93938 14.3808L4.08279 14.2756L4.35272 14.6334C4.48347 14.5113 4.47925 14.4103 4.34429 14.2714L4.06591 13.9683L3.95204 13.501L3.8719 13.4968L3.71162 13.5641C3.69053 13.5136 3.67788 13.4841 3.6357 13.4547L3.59774 13.4294ZM4.13762 9.61529L4.24728 9.62371L4.36959 10.1289L4.47082 10.2383C4.47082 10.2383 4.48347 10.251 4.50456 10.2762C4.52987 10.3099 4.55096 10.3394 4.56783 10.3688L4.63109 10.4362C4.63109 10.4362 4.64375 10.4488 4.66062 10.4741C4.85463 10.7183 4.79137 10.8909 4.57204 11.0719C4.52987 11.4381 4.35694 11.535 3.99843 11.4971C3.90142 11.5897 3.76224 11.7034 3.62305 11.7034C3.48386 11.7034 3.34468 11.5897 3.25189 11.4971C3.02835 11.5476 2.83433 11.5518 2.7331 11.3413C2.57705 11.2992 2.49691 11.1645 2.46739 10.9203L2.40412 10.8824C2.15527 10.7056 2.23119 10.4278 2.41677 10.2299L2.65718 9.96891L2.79215 9.41742L3.15488 9.40058C3.35733 9.2364 3.4923 9.22798 3.70741 9.39637L4.09122 9.42163L4.13762 9.61529ZM3.59774 9.5353C3.57244 9.51425 3.55135 9.50162 3.53026 9.48899C3.47121 9.4511 3.42903 9.44268 3.38264 9.46373L3.21815 9.5774C3.17175 9.61529 3.16753 9.67843 3.13379 9.71211C3.11692 9.72895 2.97352 9.68264 3.00304 9.59003L2.93556 9.59424L2.82168 10.0615L2.55174 10.3604C2.43364 10.4867 2.35351 10.6383 2.52222 10.7562L2.77528 10.3857L2.9229 10.4867L2.64031 10.9035C2.67406 11.1813 2.74576 11.2319 3.01569 11.1687L3.1127 10.5246L3.28985 10.5541L3.1844 11.2066C3.23923 11.2571 3.35311 11.3582 3.44169 11.3582C3.52604 11.3582 3.63992 11.2613 3.69475 11.2108L3.55557 10.5457L3.73271 10.5078L3.86768 11.1603C4.12918 11.1813 4.2051 11.1392 4.23884 10.8782L3.93516 10.4741L4.07857 10.3688L4.3485 10.7225C4.47925 10.6004 4.47504 10.4994 4.34007 10.3604L4.0617 10.0531L3.94782 9.58582L3.86768 9.58161L3.71162 9.67001C3.69053 9.6195 3.67788 9.59424 3.6357 9.56056L3.59774 9.5353ZM4.13762 5.72539L4.24728 5.7296L4.36959 6.23478L4.47082 6.34424C4.47082 6.34424 4.48347 6.35687 4.50456 6.38212C4.52987 6.41159 4.55096 6.44527 4.56783 6.47474L4.63109 6.5421C4.63109 6.5421 4.64375 6.55473 4.66062 6.57578C4.85463 6.81995 4.79137 6.99255 4.57204 7.17358C4.52987 7.53983 4.35694 7.64087 3.99843 7.59877C3.90142 7.69139 3.76224 7.80505 3.62305 7.80505C3.48386 7.80505 3.34468 7.6956 3.25189 7.60298C3.02835 7.6535 2.83433 7.6535 2.7331 7.44722C2.57705 7.40512 2.49691 7.2704 2.46739 7.02623L2.40412 6.98834C2.15527 6.81153 2.23119 6.53368 2.41677 6.33582L2.65718 6.07481L2.79215 5.52332L3.15488 5.50648C3.35733 5.34229 3.4923 5.33387 3.70741 5.50227L4.09122 5.52753L4.13762 5.72539ZM3.59774 5.64119C3.57244 5.62014 3.55135 5.60751 3.53026 5.59488C3.47121 5.5612 3.42903 5.54858 3.38264 5.56962L3.21815 5.68329C3.17175 5.72118 3.16753 5.78854 3.13379 5.81801C3.11692 5.83484 2.97352 5.78854 3.00304 5.69592L2.93556 5.70013L2.82168 6.16742L2.55174 6.46632C2.43364 6.59262 2.35351 6.74417 2.52222 6.86205L2.77528 6.49158L2.9229 6.59262L2.64031 7.00939C2.67406 7.28724 2.74576 7.33776 3.01569 7.27461L3.11692 6.64314L3.29407 6.6726L3.18862 7.32513C3.24345 7.37565 3.35733 7.47668 3.4459 7.47668C3.53026 7.47668 3.64414 7.37986 3.69897 7.32934L3.55978 6.65997L3.73693 6.6263L3.8719 7.27461C4.1334 7.29566 4.20932 7.25356 4.24306 6.99255L3.93938 6.58841L4.08279 6.48316L4.35272 6.841C4.48347 6.71891 4.47925 6.61788 4.34429 6.47895L4.06591 6.17584L3.95204 5.70855L3.8719 5.70434L3.71162 5.77591C3.69053 5.72539 3.67788 5.70013 3.6357 5.66645L3.59774 5.64119ZM4.13762 1.83128L4.24728 1.8397L4.36959 2.34488L4.47082 2.45434C4.47082 2.45434 4.48347 2.46697 4.50456 2.49223C4.52987 2.52591 4.55096 2.55538 4.56783 2.58484L4.63109 2.6522C4.63109 2.6522 4.64375 2.66483 4.66062 2.69009C4.85463 2.93426 4.79137 3.10687 4.57204 3.28789C4.52987 3.65415 4.35694 3.75518 3.99843 3.71308C3.8972 3.80149 3.75802 3.91516 3.61883 3.91516C3.47965 3.91516 3.34046 3.80149 3.24767 3.71308C3.01991 3.75939 2.8259 3.7636 2.72467 3.55311C2.56861 3.51101 2.48847 3.3763 2.45895 3.13212L2.40412 3.09845C2.15949 2.92163 2.23119 2.63957 2.41677 2.44171L2.65718 2.1807L2.79215 1.62921L3.15488 1.61237C3.35733 1.44819 3.4923 1.43977 3.70741 1.60816L4.09122 1.63342L4.13762 1.83128ZM3.59774 1.74709C3.57244 1.73025 3.55135 1.71341 3.53026 1.70078C3.47121 1.66289 3.42903 1.65868 3.38264 1.67552L3.21815 1.78918C3.17175 1.82707 3.16753 1.89022 3.13379 1.9239C3.11692 1.93653 2.97352 1.89443 2.99882 1.7976L2.93134 1.80181L2.81746 2.2649L2.54752 2.5638C2.42943 2.69009 2.34929 2.84165 2.518 2.95952L2.77106 2.58905L2.91869 2.69009L2.63188 3.10266C2.66562 3.38051 2.73732 3.43102 3.01148 3.36788L3.1127 2.7364L3.28985 2.76587L3.1844 3.41839C3.23923 3.46891 3.35311 3.56995 3.44169 3.56995C3.52604 3.56995 3.63992 3.47312 3.69475 3.4226L3.55978 2.75745L3.73693 2.71956L3.8719 3.37209C4.1334 3.39314 4.20932 3.35104 4.24306 3.09003L3.93516 2.68588L4.07857 2.57642L4.3485 2.93426C4.47925 2.81218 4.47504 2.71114 4.34007 2.57222L4.0617 2.26911L3.94782 1.80181L3.86768 1.7976L3.71162 1.88601C3.69053 1.83549 3.67366 1.80602 3.63149 1.77234L3.59774 1.74709ZM34.3578 16.6331C34.3578 16.6415 34.3156 17.3067 33.6956 18.0687C33.2696 18.5907 32.4556 18.9527 31.7934 19.0327L28.8283 19.0369C28.8241 19.0369 28.1493 19.0453 27.7992 19.2432C27.4576 19.4326 27.1455 19.9168 26.9557 20.2662C26.8797 20.1483 26.7912 20.0094 26.6899 19.8747L26.6098 20.022C26.3989 19.6852 26.2344 19.4284 26.0531 19.2306C25.703 19.0285 24.8974 19.0369 24.889 19.0369L22.5355 19.0327C21.7594 19.1253 20.9032 18.797 20.3464 18.2455C20.1566 18.1192 19.9879 17.9718 19.8403 17.8076C19.0642 16.9404 19.098 16.3847 19.1149 16.2753L19.1064 4.97604V1.81444C19.0052 1.18718 18.8323 0.841969 18.44 0.568329L18.3177 0.585168C18.2502 0.606218 17.4742 0.858808 17.1916 1.24611C16.9427 1.59132 16.8921 2.3112 16.8921 2.31962V16.692C16.8921 16.7089 16.8879 17.2225 16.1498 18.0897C15.728 18.5823 14.9772 18.9611 14.3319 19.0411L11.4301 19.0453C11.4259 19.0453 10.7553 19.0495 10.3925 19.2306C10.034 19.4116 9.68818 19.8999 9.47729 20.2494C9.40559 20.1273 9.31702 19.9883 9.22001 19.8494L9.13144 19.9926C8.95429 19.6894 8.80245 19.4495 8.64218 19.26L8.58735 19.2306C8.20775 19.0327 7.49073 19.0453 7.48651 19.0453L5.06552 19.0411C5.06552 19.0411 4.7281 19.0538 4.27258 18.9485C3.8255 18.8433 3.26032 18.6159 2.80902 18.136C2.6614 18.0308 2.53065 17.9171 2.41255 17.7908C1.64914 16.9741 1.64071 16.3805 1.64492 16.2837L1.65336 1.81023C1.51417 0.917746 1.24424 0.589378 0.383816 0.26101L0.430211 0H4.99382H13.3028L17.9508 0.00420984L35.2393 0.00841969L35.252 0.0631477L35.7117 0.53886C35.3743 0.694624 34.8977 0.959845 34.6868 1.25032C34.4464 1.58711 34.3578 2.26069 34.3494 2.31541V5.48543L34.3578 16.6331ZM33.8011 5.24126H19.3764L19.3806 16.2921C19.3806 16.2921 19.3721 16.3342 19.3764 16.3763C19.389 16.8141 19.7813 17.3361 20.0428 17.6266C20.5362 18.1781 21.2364 18.4686 21.9618 18.4686C22.0884 18.4686 22.1685 18.456 22.1685 18.456L24.5347 18.4602C24.5347 18.4602 24.754 18.4602 25.0197 18.4854C25.8506 18.5696 26.1332 18.8517 26.5972 19.5084C27.1075 18.7085 27.5335 18.4728 28.4825 18.4644L31.4349 18.4602C32.5147 18.3086 33.3709 17.6813 33.7252 16.6331C33.7926 16.431 33.8095 16.2921 33.8137 16.2584L33.8011 5.24126ZM18.4442 0.27364C19.0896 0.656736 19.2709 1.08193 19.3721 1.7976V4.98025H33.8011V1.93232C33.8011 1.93232 33.8264 1.73446 33.8812 1.4987C34.0246 0.896697 34.2819 0.5557 34.7079 0.28206L18.4442 0.27364ZM1.01226 0.26522C1.64071 0.635687 1.82207 1.08614 1.91908 1.78918L1.91486 16.2837C1.91486 16.2837 1.91486 16.3174 1.91908 16.3679C1.96969 16.8141 2.32398 17.2983 2.61079 17.6056C3.1127 18.1444 3.98578 18.4812 4.71967 18.456L7.14066 18.4602C7.14066 18.4602 7.33046 18.456 7.57509 18.477C8.38068 18.5528 8.69701 18.8306 9.13987 19.4832C9.6924 18.6917 10.1268 18.4602 11.0885 18.4602L13.9776 18.456C15.0068 18.3044 15.8925 17.5803 16.2679 16.6163C16.3016 16.5321 16.3438 16.4016 16.348 16.3089L16.3522 1.92811C16.3522 1.92811 16.3649 1.73025 16.4113 1.49029C16.5378 0.841969 16.7445 0.5557 17.2928 0.27364H13.307V7.26619V7.53141V14.1535C13.307 14.1535 13.2944 14.2924 13.2606 14.4608C13.1341 15.0418 12.8346 15.2523 12.2948 15.4417H6.14527C6.14527 15.4417 5.98499 15.3954 5.81628 15.3196C5.25532 15.0712 5.08661 14.7429 4.99382 14.1577V7.53141V7.26619V0.26943L1.01226 0.26522ZM13.0371 0.26522H11.679L9.15253 2.79534L6.61766 0.26522H5.26376V1.61658L7.41059 3.77623L5.26376 5.91062V7.26198H6.60922L9.15253 4.74029L11.6874 7.26198H13.0371V5.92325L10.8776 3.77623L13.0371 1.625V0.26522ZM11.4259 0.26522H6.87072L9.15253 2.54275L11.4259 0.26522ZM5.26376 14.1367C5.38185 14.7808 5.559 14.9744 6.18744 15.1723H9.123V7.53141H5.26376V14.1367ZM9.39294 15.1723H12.2441C12.822 14.9534 12.9738 14.7597 13.0371 14.1409V7.53141H9.39294V15.1723ZM13.0371 2.09229L11.2361 3.88569L13.0371 5.67487V2.09229ZM5.26376 5.66224L7.16175 3.77623L5.26376 1.86917V5.66224ZM9.25797 5.09812L7.06052 7.26198H11.4343L9.25797 5.09812ZM10.2829 11.0845C10.2196 11.0593 10.1648 11.0256 10.1268 10.9582C10.1184 10.9456 10.1142 10.933 10.11 10.9245C9.8822 10.8404 9.81893 10.613 9.9539 10.352C9.59539 10.1036 9.56165 9.85525 9.89907 9.55635C9.62491 9.29534 9.77675 8.76069 10.1606 8.70175C10.1184 8.26393 10.4179 8.12921 10.7975 8.20078C11.0252 7.88504 11.5356 7.86399 11.7422 8.18815C11.9995 8.06185 12.2315 8.14184 12.2863 8.36496C12.299 8.36917 12.3158 8.37759 12.3285 8.38601C12.4255 8.44916 12.4508 8.54178 12.455 8.64281C12.5478 8.70175 12.6111 8.77753 12.6448 8.86593C12.7207 8.92066 12.7798 8.98802 12.8093 9.08484C12.8599 9.26587 12.784 9.44268 12.6786 9.58582C12.8262 9.73316 12.9401 9.90998 12.9063 10.1036C12.8768 10.2762 12.7924 10.4825 12.5984 10.5246C12.7587 10.8109 12.6954 11.135 12.3285 11.1813C12.2821 11.1856 12.2399 11.1898 12.2062 11.1898C12.2231 11.6023 12.0122 11.7118 11.6368 11.5602C11.6199 11.977 11.6241 12.4106 11.6705 12.8274C11.6874 13.0042 11.7422 13.1684 11.8392 13.3115C11.9447 13.4252 12.067 13.5304 12.164 13.602L12.6448 13.9556L12.6153 14.0146L12.8051 14.1577L12.7461 14.2756C12.7461 14.2756 12.4002 14.1745 12.1893 14.0861C12.0712 14.0356 11.9489 13.9809 11.8477 13.9009L11.8181 13.8756C11.8266 13.8967 11.835 13.922 11.8435 13.9388L11.9784 14.3429L11.8688 14.4103C11.8688 14.4103 11.7844 14.3261 11.6958 14.2293C11.6747 14.2419 11.5018 14.0609 11.3964 13.9388C11.3711 13.9135 11.3542 13.8799 11.3331 13.8504C11.2108 13.9767 11.021 14.2166 10.9704 14.3051C10.9113 14.4061 10.5444 14.7345 10.4347 14.8355L10.3293 14.7555L10.4727 14.4819L10.2744 14.6671L10.1353 14.5576L10.3124 14.2251C10.3124 14.2251 10.4136 14.0609 10.4474 13.9977C10.266 14.0777 10.0973 14.1367 9.87376 14.204L9.81893 14.0819L10.1142 13.9009C9.98342 13.9514 9.84846 13.9977 9.70927 14.0398L9.63757 13.8799L10.0172 13.6441C10.0172 13.6441 10.1564 13.5683 10.3166 13.4505C10.9366 13 10.8312 12.7853 10.9029 12.1244C10.9198 11.977 10.9282 11.7918 10.9324 11.6318C10.7595 11.6697 10.5739 11.6613 10.5149 11.476C10.3546 11.4424 10.266 11.3161 10.2829 11.0845ZM10.5781 14.1367C10.7004 14.0146 11.021 13.4968 11.1644 13.4715C11.3584 13.4336 11.4385 13.7241 11.544 13.8378L11.5313 13.7999C11.5313 13.7999 11.5229 13.7704 11.5187 13.7367C11.4976 13.5473 11.641 13.501 11.7802 13.5978C11.8688 13.6609 11.9784 13.7073 12.0796 13.7494C12.0628 13.7325 11.9573 13.6567 11.8392 13.5473C11.3078 13.0547 11.3711 12.8106 11.312 12.158C11.2825 11.8086 11.3205 11.1224 11.3205 11.1224C11.7675 11.3582 11.932 11.3918 11.8561 10.8277C11.9615 10.8404 12.2568 10.874 12.3158 10.7519C12.4466 10.4909 12.1682 10.2594 12.0248 10.1036C12.0248 10.1036 12.3327 10.1836 12.3454 10.1836C12.5942 10.2005 12.6828 9.72474 12.3538 9.48478L12.2737 9.42584C12.3875 9.30376 12.5352 9.12694 12.4846 8.9375C12.4339 8.75648 12.2188 8.7228 12.0712 8.70596C12.0965 8.62176 12.1767 8.39443 12.0754 8.33128C11.9278 8.23867 11.7591 8.3818 11.6537 8.46179C11.6537 8.46179 11.6157 8.31865 11.6115 8.31023C11.4976 8.04922 11.0505 8.09553 10.9198 8.3397L10.886 8.40285C10.7764 8.37338 10.5149 8.31023 10.4263 8.40285C10.2829 8.54598 10.3461 8.73122 10.3925 8.88698C10.2196 8.87014 10.0214 8.84488 9.96233 9.08906C9.88642 9.39637 10.0129 9.44268 10.2365 9.53109C9.78519 9.84262 9.65444 9.98575 10.2112 10.2973C9.88641 10.7225 10.1142 10.8151 10.5359 10.7646C10.498 10.8782 10.401 11.1771 10.4938 11.2782C10.6034 11.4003 10.9957 11.1898 11.1053 11.135C11.1053 11.135 11.1053 11.8128 11.0716 12.1496C10.9999 12.819 11.0927 13.08 10.4769 13.5515C10.5613 13.5136 10.7848 13.3789 10.8776 13.4715C11.0041 13.5978 10.6878 13.9093 10.6119 14.0651L10.5781 14.1367ZM29.0224 23.352C29.1236 23.3436 29.1869 23.3183 29.2122 23.2847C29.2417 23.251 29.2543 23.1668 29.2543 23.0405V22.0638C29.2543 21.9754 29.2417 21.9207 29.2122 21.8954C29.1826 21.8701 29.1236 21.8533 29.0266 21.8491V21.807H29.5032L30.0599 23.0194L30.5914 21.807H31.0722V21.8533C30.9836 21.8575 30.9246 21.8744 30.8993 21.9038C30.874 21.9291 30.8613 21.9838 30.8613 22.0722V23.1415C30.8613 23.2299 30.874 23.2847 30.8993 23.3099C30.9246 23.3352 30.9836 23.352 31.0722 23.3604V23.4025H30.3974V23.3604C30.4944 23.352 30.5534 23.3352 30.5787 23.3099C30.604 23.2847 30.6167 23.2173 30.6167 23.1163V22.0385L30.0009 23.4067H29.9671L29.364 22.0975V23.0531C29.364 23.1836 29.3851 23.272 29.423 23.3099C29.4484 23.3352 29.5032 23.352 29.5918 23.3646V23.4067H29.0266V23.352H29.0224ZM27.4112 23.352C27.4998 23.3436 27.5546 23.3267 27.5841 23.3057C27.6094 23.2847 27.6221 23.2257 27.6221 23.1373V22.068C27.6221 21.9838 27.6094 21.9291 27.5841 21.8996C27.5588 21.8744 27.4998 21.8575 27.4112 21.8491V21.807H28.6892L28.6976 22.1522H28.6385C28.6175 22.047 28.5879 21.9796 28.5458 21.9459C28.5036 21.9165 28.415 21.8996 28.2716 21.8996H27.9468C27.9131 21.8996 27.8878 21.9038 27.8794 21.9165C27.8709 21.9249 27.8667 21.9501 27.8667 21.9796V22.5142H28.2379C28.3391 22.5142 28.4066 22.4974 28.4319 22.4679C28.4614 22.4385 28.4825 22.3753 28.4994 22.2827H28.5542V22.8384H28.4994C28.4825 22.7458 28.4572 22.6826 28.4319 22.6532C28.4024 22.6237 28.3391 22.6069 28.2379 22.6069H27.8667V23.2005C27.8667 23.2468 27.8836 23.2762 27.9131 23.2847C27.9426 23.2931 28.0354 23.2973 28.183 23.2973C28.3475 23.2973 28.4656 23.2804 28.5415 23.2426C28.6175 23.2047 28.6892 23.1205 28.7524 22.9815H28.8199L28.7102 23.3857H27.4112V23.352ZM25.7958 23.352C25.8844 23.3436 25.9434 23.3267 25.9687 23.3057C25.994 23.2847 26.0067 23.2257 26.0067 23.1373V22.068C26.0067 21.9838 25.994 21.9291 25.9687 21.8996C25.9434 21.8744 25.8844 21.8575 25.7958 21.8491V21.807H26.4748V21.8533C26.3863 21.8575 26.3272 21.8701 26.2977 21.8954C26.2682 21.9207 26.2513 21.9712 26.2513 22.0512V23.2047C26.2513 23.2299 26.2555 23.251 26.264 23.2678C26.2724 23.2847 26.2935 23.2931 26.323 23.2973L26.3778 23.3015H26.4917C26.7068 23.3015 26.8502 23.2847 26.9261 23.2468C27.0021 23.2131 27.0738 23.1205 27.1455 22.9773H27.2087L27.0906 23.3941H25.7958V23.352ZM24.2015 21.9838C24.3491 21.8449 24.5305 21.7733 24.7456 21.7733C24.9607 21.7733 25.1462 21.8449 25.2939 21.988C25.4541 22.1396 25.5343 22.3459 25.5343 22.6027C25.5343 22.8637 25.4499 23.07 25.2854 23.2215C25.1378 23.3604 24.9564 23.4278 24.7456 23.4278C24.522 23.4278 24.3322 23.352 24.1846 23.2005C24.0328 23.0447 23.9568 22.8426 23.9568 22.6027C23.9611 22.3416 24.0412 22.1396 24.2015 21.9838ZM24.3828 23.1584C24.4841 23.2804 24.6064 23.3394 24.7498 23.3394C24.8932 23.3394 25.0113 23.2804 25.1125 23.1626C25.2137 23.0447 25.2643 22.8552 25.2643 22.5984C25.2643 22.3374 25.2137 22.148 25.1125 22.0301C25.0113 21.9122 24.889 21.8575 24.7498 21.8575C24.6064 21.8575 24.4841 21.9165 24.3828 22.0385C24.2816 22.1606 24.2352 22.3459 24.2352 22.5984C24.2352 22.851 24.2816 23.0405 24.3828 23.1584ZM22.5608 22.91C22.6029 23.0194 22.6493 23.1036 22.7042 23.1668C22.8012 23.2804 22.9193 23.3352 23.0585 23.3352C23.1344 23.3352 23.2019 23.3099 23.2567 23.2636C23.3115 23.2131 23.341 23.1457 23.341 23.0615C23.341 22.9815 23.3115 22.9142 23.2567 22.8595C23.2187 22.8216 23.1428 22.7668 23.0247 22.6953L22.818 22.569C22.7548 22.5311 22.7084 22.489 22.6704 22.4511C22.6029 22.3753 22.5692 22.2911 22.5692 22.1985C22.5692 22.0764 22.6114 21.9754 22.6915 21.8954C22.7717 21.8154 22.8771 21.7733 23.0121 21.7733C23.0669 21.7733 23.1344 21.7859 23.2103 21.8154C23.2862 21.8407 23.3326 21.8533 23.341 21.8533C23.3706 21.8533 23.3917 21.8449 23.4001 21.8323C23.4128 21.8196 23.4212 21.7986 23.4254 21.7733H23.476L23.5266 22.2827H23.4676C23.4296 22.1269 23.3664 22.0217 23.2778 21.9585C23.1934 21.8996 23.1049 21.8659 23.0205 21.8659C22.9572 21.8659 22.8982 21.887 22.8476 21.9249C22.797 21.9628 22.7759 22.0175 22.7759 22.0848C22.7759 22.148 22.797 22.1985 22.8307 22.2448C22.8687 22.2911 22.9277 22.3374 23.0036 22.3837L23.2145 22.5142C23.3453 22.5942 23.4381 22.67 23.4929 22.7374C23.5477 22.8047 23.573 22.8889 23.573 22.9815C23.573 23.1078 23.5266 23.2131 23.4296 23.2973C23.3368 23.3815 23.2145 23.4236 23.0669 23.4236C22.991 23.4236 22.9151 23.4109 22.8349 23.3815C22.7548 23.352 22.7084 23.3394 22.6957 23.3394C22.6662 23.3394 22.6493 23.3478 22.6367 23.3646C22.6282 23.3815 22.6198 23.4025 22.6198 23.4194H22.565L22.4933 22.91H22.5608ZM17.4025 21.8196C17.5037 21.8112 17.5669 21.7859 17.5923 21.7523C17.6218 21.7186 17.6344 21.6344 17.6344 21.5081V20.4514L17.6007 20.4135C17.5669 20.3714 17.5332 20.3462 17.5121 20.3378C17.4868 20.3293 17.4531 20.3209 17.4025 20.3209V20.2746H17.8158L18.7437 21.4281V20.6282C18.7437 20.4935 18.7226 20.4093 18.6846 20.3714C18.6593 20.3462 18.6003 20.3293 18.5117 20.3209V20.2746H19.0769V20.3209C18.9841 20.3293 18.9251 20.3546 18.8955 20.3883C18.866 20.422 18.8491 20.5062 18.8491 20.6324V21.8954H18.807L17.7441 20.5777V21.5123C17.7441 21.6428 17.7652 21.7312 17.8031 21.7691C17.8284 21.7944 17.8833 21.8112 17.9718 21.8238V21.8659H17.4067V21.8196H17.4025ZM16.6137 21.8196C16.7107 21.8112 16.774 21.7986 16.8035 21.7775C16.8331 21.7565 16.8457 21.6975 16.8457 21.6049V20.5356C16.8457 20.4472 16.8331 20.3925 16.8035 20.3672C16.774 20.342 16.7107 20.3251 16.6137 20.3209V20.2746H17.3265V20.3209C17.2295 20.3251 17.1663 20.342 17.1367 20.3672C17.1072 20.3925 17.0946 20.4472 17.0946 20.5356V21.6049C17.0946 21.6975 17.1114 21.7565 17.1367 21.7775C17.1663 21.7986 17.2295 21.8154 17.3265 21.8196V21.8617H16.6137V21.8196ZM13.3998 23.4278V23.3857C13.4589 23.3773 13.501 23.3562 13.5306 23.3141C13.5601 23.2762 13.6107 23.1668 13.6824 22.99L14.159 21.8112H14.2054L14.7748 23.171C14.8128 23.2594 14.8423 23.3183 14.8634 23.3394C14.8887 23.3604 14.9266 23.3731 14.9772 23.3815V23.4236H14.3952V23.3815C14.4627 23.3773 14.5049 23.3688 14.5259 23.3604C14.547 23.352 14.5555 23.3267 14.5555 23.2931C14.5555 23.2804 14.5513 23.2594 14.5428 23.2299C14.5344 23.2005 14.5259 23.171 14.5133 23.1373L14.4205 22.9058H13.8216C13.7625 23.0615 13.7246 23.1584 13.7161 23.192C13.7035 23.2257 13.6993 23.2552 13.6993 23.2762C13.6993 23.3141 13.7161 23.3436 13.7457 23.3604C13.7667 23.3688 13.8005 23.3773 13.8553 23.3815V23.4236H13.3998V23.4278ZM14.3868 22.8089L14.121 22.148L13.8595 22.8089H14.3868ZM11.9362 23.3815C12.0248 23.3731 12.0796 23.3562 12.1007 23.3267C12.1218 23.3015 12.1345 23.2341 12.1345 23.1373V22.0975C12.1345 22.0133 12.1218 21.9585 12.0965 21.9333C12.0712 21.908 12.0206 21.8912 11.9362 21.8828V21.8365H12.5689C12.6997 21.8365 12.8093 21.8533 12.8979 21.887C13.0624 21.9543 13.1467 22.0764 13.1467 22.2532C13.1467 22.3711 13.1088 22.4637 13.0371 22.5269C12.9612 22.59 12.8641 22.6321 12.7376 22.6532L13.21 23.2636C13.2395 23.3015 13.2691 23.3267 13.2986 23.3436C13.3281 23.3604 13.3661 23.3731 13.4082 23.3773V23.4194H13.0413L12.4972 22.6826L12.3707 22.6869V23.1584C12.3707 23.2468 12.3833 23.3057 12.4086 23.3267C12.4339 23.352 12.493 23.3646 12.5773 23.3731V23.4152H11.9362V23.3815ZM12.7165 22.5521C12.8388 22.4974 12.8979 22.4006 12.8979 22.2574C12.8979 22.1185 12.8431 22.0259 12.7334 21.9712C12.6743 21.9459 12.5984 21.9291 12.5014 21.9291C12.4382 21.9291 12.396 21.9333 12.3833 21.9459C12.3707 21.9543 12.3622 21.9754 12.3622 22.0133V22.6069C12.5309 22.5984 12.649 22.5816 12.7165 22.5521ZM11.2867 22.51C11.3837 22.4637 11.4301 22.3795 11.4301 22.2574C11.4301 22.1143 11.3753 22.0175 11.2614 21.967C11.1981 21.9375 11.1053 21.9249 10.9788 21.9249C10.9324 21.9249 10.9029 21.9291 10.8902 21.9375C10.8776 21.9459 10.8734 21.9712 10.8734 22.0091V22.5521L11.0927 22.5479C11.1728 22.5479 11.2361 22.5353 11.2867 22.51ZM10.4263 23.3815C10.5191 23.3773 10.5781 23.3604 10.6034 23.3352C10.6287 23.3099 10.6456 23.251 10.6456 23.1626V22.0933C10.6456 22.0049 10.633 21.9501 10.6034 21.9249C10.5781 21.8996 10.5149 21.8828 10.4263 21.8786V21.8323H11.0674C11.2487 21.8323 11.3964 21.8617 11.5018 21.9249C11.6115 21.988 11.6621 22.0933 11.6621 22.2448C11.6621 22.3585 11.6241 22.4427 11.5482 22.5016C11.506 22.5353 11.4428 22.5606 11.3584 22.5858C11.4639 22.6111 11.5524 22.6574 11.6283 22.7205C11.7043 22.7837 11.738 22.8679 11.738 22.9815C11.738 23.171 11.6537 23.2973 11.4892 23.3688C11.4006 23.4067 11.2951 23.4236 11.1686 23.4236H10.4221V23.3815H10.4263ZM11.3626 23.2678C11.4428 23.2215 11.4807 23.1289 11.4807 22.9942C11.4807 22.8595 11.4343 22.7668 11.3415 22.7205C11.2487 22.67 11.1307 22.6448 10.9872 22.6448H10.9198H10.8776V23.2426C10.8776 23.2847 10.8902 23.3099 10.9113 23.3225C10.9324 23.3352 10.9872 23.3394 11.0674 23.3394C11.1855 23.3394 11.2825 23.3183 11.3626 23.2678ZM8.38489 23.3815C8.47768 23.3731 8.54095 23.3478 8.56626 23.3141C8.59156 23.2804 8.60422 23.2005 8.60422 23.0699V22.0933C8.60422 22.0091 8.59156 21.9501 8.56626 21.9249C8.54095 21.8996 8.4819 21.8828 8.38911 21.8786V21.8323H8.84041L9.36763 23.0405L9.87376 21.8323H10.3293V21.8786C10.2449 21.8828 10.1901 21.8996 10.1648 21.9291C10.1395 21.9543 10.1268 22.0091 10.1268 22.0933V23.1626C10.1268 23.251 10.1395 23.3057 10.1648 23.331C10.1901 23.3562 10.2449 23.3688 10.3293 23.3773V23.4194H9.68818V23.3773C9.78097 23.3688 9.8358 23.352 9.86111 23.3267C9.8822 23.2973 9.89485 23.2341 9.89485 23.1331V22.0596L9.30858 23.4236H9.27906L8.70544 22.1143V23.0699C8.70544 23.2005 8.72231 23.2889 8.76027 23.3267C8.78558 23.352 8.83619 23.3688 8.92055 23.3773V23.4194H8.38489V23.3815ZM7.38529 21.8407V21.887C7.29671 21.8912 7.24188 21.908 7.21658 21.9333C7.19127 21.9585 7.17862 22.0133 7.17862 22.1017V22.8679C7.17862 22.9942 7.19549 23.091 7.22923 23.1626C7.2925 23.2889 7.40637 23.3562 7.57509 23.3562C7.76067 23.3562 7.8872 23.2889 7.95047 23.1584C7.98421 23.0868 8.0053 22.9731 8.0053 22.8174V22.1943C8.0053 22.0638 7.98843 21.9838 7.9589 21.9501C7.92938 21.9165 7.87033 21.8954 7.79019 21.887V21.8407H8.31741V21.887C8.22884 21.8954 8.16979 21.9207 8.14448 21.9543C8.11918 21.988 8.10652 22.068 8.10652 22.1943V22.8174C8.10652 22.9815 8.08122 23.112 8.03482 23.2047C7.94625 23.3773 7.77754 23.4615 7.52447 23.4615C7.27563 23.4615 7.11113 23.3773 7.02256 23.2089C6.97616 23.1163 6.95086 22.9984 6.95086 22.851V22.1017C6.95086 22.0133 6.9382 21.9585 6.9129 21.9333C6.88759 21.908 6.83276 21.8912 6.74419 21.887V21.8407H7.38529ZM4.4666 23.3815C4.52987 23.3731 4.57626 23.3562 4.60579 23.331C4.63953 23.3015 4.7028 23.2299 4.79559 23.1078L5.1541 22.6448L4.90103 22.2574C4.79137 22.0891 4.71545 21.988 4.66905 21.9459C4.62688 21.9038 4.56783 21.8828 4.49191 21.8786V21.8323H5.1794V21.8786C5.11192 21.8828 5.06974 21.887 5.04865 21.8912C5.01913 21.8996 5.00226 21.9249 5.00226 21.9585C5.00226 21.9796 5.01069 22.0091 5.02334 22.0385C5.03178 22.0554 5.04022 22.0722 5.05287 22.0933L5.28906 22.4553L5.55056 22.1227C5.58852 22.0764 5.61383 22.0385 5.62648 22.0091C5.63492 21.9922 5.63914 21.9754 5.63914 21.9628C5.63914 21.9291 5.62227 21.9038 5.58852 21.8954C5.56743 21.887 5.53369 21.8828 5.47886 21.8828V21.8365H6.01873V21.8828C5.95969 21.8828 5.90907 21.8954 5.87533 21.9122C5.82472 21.9417 5.75723 22.0091 5.68131 22.1101L5.34389 22.5437L5.78254 23.2047C5.82894 23.2762 5.8669 23.3225 5.90064 23.3394C5.93016 23.3562 5.97656 23.3731 6.03982 23.3815V23.4236H5.36498V23.3773C5.42825 23.3773 5.47464 23.3688 5.49995 23.3604C5.52526 23.352 5.53791 23.331 5.53791 23.3015C5.53791 23.2762 5.52104 23.2341 5.4873 23.1794C5.45356 23.1205 5.35655 22.9731 5.20471 22.7332L4.93477 23.091C4.89681 23.1415 4.86729 23.1794 4.85042 23.2047C4.82511 23.2426 4.81246 23.272 4.81246 23.2889C4.81246 23.3225 4.83355 23.3478 4.87151 23.3604C4.89259 23.3688 4.93477 23.3773 4.9896 23.3773V23.4194H4.45817V23.3815H4.4666ZM3.07052 23.3815C3.15488 23.3731 3.20971 23.3562 3.23502 23.3352C3.26032 23.3141 3.27298 23.2552 3.27298 23.1668V22.0975C3.27298 22.0133 3.26032 21.9585 3.23502 21.9333C3.20971 21.908 3.15488 21.8912 3.07052 21.8828V21.8365H4.28524L4.29367 22.1817H4.23462C4.21354 22.0764 4.18823 22.0049 4.14605 21.9754C4.10809 21.9459 4.01952 21.9291 3.88877 21.9291H3.58087C3.54713 21.9291 3.52604 21.9333 3.51761 21.9459C3.50917 21.9586 3.50495 21.9796 3.50495 22.0091V22.5437H3.85503C3.95204 22.5437 4.0153 22.5269 4.04061 22.4974C4.06591 22.4679 4.087 22.4048 4.10387 22.3122H4.15871V22.8679H4.10809C4.09122 22.7753 4.07013 22.7121 4.04061 22.6826C4.0153 22.6532 3.95204 22.6363 3.85503 22.6363H3.50495V23.2299C3.50495 23.2762 3.51761 23.3057 3.54713 23.3141C3.57666 23.3225 3.66101 23.3267 3.80441 23.3267C3.96047 23.3267 4.07435 23.3099 4.14605 23.272C4.21775 23.2383 4.28524 23.1499 4.34429 23.0152H4.40755L4.30211 23.4194H3.07052V23.3815Z" fill="#001B3C"/>
<path fill-rule="evenodd" clip-rule="evenodd" d="M126.385 8.00713L127.195 9.92261H125.583L126.385 8.00713ZM126.638 7.00519H126.499L125.081 10.3604C124.795 11.034 124.613 11.5434 124.183 11.5771V11.7076H125.562V11.5771C125.326 11.5771 125.09 11.5139 125.09 11.2866C125.09 11.0298 125.377 10.4741 125.465 10.2089H127.292L127.545 10.8025C127.81 11.4213 127.815 11.556 127.224 11.5813V11.7118H129.004V11.5771C128.612 11.5981 128.468 11.1814 128.342 10.8951L126.638 7.00519ZM123.335 7.0094H123.188C122.956 7.57352 122.61 7.00098 121.652 7.00098C120.252 7.00098 119.269 8.02397 119.269 9.40901C119.269 10.933 120.307 11.8044 121.669 11.8044C122.34 11.8044 123.057 11.455 123.483 10.933L123.365 10.794C122.884 11.2655 122.416 11.4887 121.733 11.4887C120.59 11.4887 120.079 10.4362 120.079 9.46374C120.079 8.2092 120.573 7.28725 121.724 7.28725C122.517 7.28725 123.027 7.80927 123.23 8.57546H123.399L123.335 7.0094ZM117.852 7.65771C117.852 7.45564 117.958 7.23252 118.536 7.23252V7.0978H116.456V7.23252C117.034 7.23252 117.139 7.45564 117.139 7.65771V11.1519C117.139 11.354 117.034 11.5771 116.456 11.5771V11.7076H118.536V11.5771C117.958 11.5771 117.852 11.354 117.852 11.1519V7.65771ZM115.178 7.65771C115.178 7.45564 115.284 7.23252 115.853 7.23252V7.0978H114.195V7.23252C114.769 7.23252 114.87 7.45564 114.87 7.65771V10.4488L112.184 7.10201H110.99V7.23673C111.332 7.24515 111.395 7.30409 111.61 7.54826L111.665 7.61561V11.1519C111.665 11.354 111.559 11.5771 110.99 11.5771V11.7076H112.652V11.5771C112.078 11.5771 111.977 11.354 111.977 11.1519V7.96924L115.073 11.8044H115.178V7.65771ZM110.168 7.0094H110.02C109.788 7.57352 109.442 7.00098 108.485 7.00098C107.084 7.00098 106.102 8.02397 106.102 9.40901C106.102 10.933 107.139 11.8044 108.501 11.8044C109.172 11.8044 109.889 11.455 110.315 10.933L110.197 10.794C109.716 11.2655 109.248 11.4887 108.565 11.4887C107.422 11.4887 106.911 10.4362 106.911 9.46374C106.911 8.2092 107.405 7.28725 108.556 7.28725C109.353 7.28725 109.86 7.80927 110.062 8.57546H110.231L110.168 7.0094ZM105.077 11.7076L105.389 10.533H105.195C104.824 11.4171 104.296 11.4255 103.735 11.4255H102.816C102.677 11.4255 102.635 11.2782 102.635 11.1561V9.44269H103.617C104.085 9.44269 104.482 9.57319 104.482 10.1163H104.63V8.48705H104.482C104.482 9.03012 104.085 9.15642 103.617 9.15642H102.635V7.66192C102.635 7.48932 102.765 7.38828 102.942 7.38828H104.064C104.554 7.38828 104.781 7.72086 104.857 8.09975H105.009V7.10622H101.306V7.24094C101.816 7.24094 101.922 7.46406 101.922 7.66613V11.1603C101.922 11.3624 101.816 11.5855 101.306 11.5855V11.716H105.077V11.7076ZM99.6779 11.5771C99.1676 11.5771 99.0664 11.354 99.0664 11.1519V7.39249H99.5683C100.083 7.39249 100.403 7.39249 100.559 8.28498H100.728L100.686 7.10201H96.7382L96.696 8.28498H96.8647C97.0165 7.39249 97.3371 7.39249 97.8559 7.39249H98.3578V11.1519C98.3578 11.354 98.2523 11.5771 97.7462 11.5771V11.7076H99.6864V11.5771H99.6779ZM89.9138 7.71244C89.9138 7.37986 89.9771 7.35881 90.3103 7.35881C91.6009 7.35881 92.4909 8.06186 92.4909 9.42585C92.4909 10.7183 91.6684 11.4845 90.247 11.4213C90.0952 11.4129 89.9138 11.3371 89.9138 11.0803V7.71244ZM90.4453 11.7076C92.3137 11.7076 93.2543 10.8319 93.2543 9.41743C93.2543 7.85137 92.1746 7.0978 90.3862 7.0978H88.5852V7.23252C89.0956 7.23252 89.201 7.45564 89.201 7.65771V11.1519C89.201 11.354 89.0956 11.5771 88.5852 11.5771V11.7076H90.4453ZM85.3376 8.00713L86.1474 9.92261H84.5362L85.3376 8.00713ZM85.5864 7.00519H85.4472L84.0301 10.3604C83.7433 11.034 83.5619 11.5434 83.1317 11.5771V11.7076H84.5109V11.5771C84.2747 11.5771 84.0385 11.5139 84.0385 11.2866C84.0385 11.0298 84.3253 10.4741 84.4139 10.2089H86.2402L86.489 10.8025C86.7547 11.4213 86.7632 11.556 86.1685 11.5813V11.7118H87.9484V11.5771C87.5561 11.5981 87.4127 11.1814 87.2862 10.8951L85.5864 7.00519ZM79.3526 7.71244C79.3526 7.37986 79.4159 7.35881 79.7491 7.35881C81.0397 7.35881 81.9296 8.06186 81.9296 9.42585C81.9296 10.7183 81.1072 11.4845 79.6858 11.4213C79.5339 11.4129 79.3526 11.3371 79.3526 11.0803V7.71244ZM79.8798 11.7076C81.7483 11.7076 82.6888 10.8319 82.6888 9.41743C82.6888 7.85137 81.6091 7.0978 79.8208 7.0978H78.0198V7.23252C78.5301 7.23252 78.6356 7.45564 78.6356 7.65771V11.1519C78.6356 11.354 78.5301 11.5771 78.0198 11.5771V11.7076H79.8798ZM76.6996 7.65771C76.6996 7.45564 76.8051 7.23252 77.3829 7.23252V7.0978H75.3035V7.23252C75.8814 7.23252 75.9868 7.45564 75.9868 7.65771V11.1519C75.9868 11.354 75.8814 11.5771 75.3035 11.5771V11.7076H77.3829V11.5771C76.8051 11.5771 76.6996 11.354 76.6996 11.1519V7.65771ZM71.419 11.8044H71.5708C71.6383 11.295 72.1402 11.8044 72.8657 11.8044C73.8147 11.8044 74.3377 11.1561 74.3377 10.533C74.3377 9.69949 73.6966 9.40059 72.7476 8.82805C72.4481 8.64703 72.0095 8.36076 72.0095 7.95661C72.0095 7.51879 72.3216 7.28725 72.7434 7.28725C73.3929 7.28725 73.8526 7.83453 74.0129 8.48284H74.1858L74.034 7.00098H73.8864C73.7177 7.51458 73.3845 7.00098 72.6464 7.00098C71.9631 7.00098 71.4106 7.47248 71.4106 8.16289C71.4106 9.4932 73.3128 9.5353 73.5996 10.5078C73.7598 11.0508 73.376 11.5392 72.8109 11.5392C72.0727 11.5392 71.5835 10.954 71.3684 10.3057H71.2081L71.419 11.8044ZM67.2645 7.69139C67.2645 7.36302 67.3278 7.36302 67.7791 7.36302C68.4075 7.36302 68.8968 7.63666 68.8968 8.32287C68.8968 9.07643 68.2768 9.28271 67.2645 9.31639V7.69139ZM66.5559 11.1519C66.5559 11.354 66.4505 11.5771 65.9654 11.5771V11.7076H67.8845V11.5771C67.3742 11.5771 67.2687 11.354 67.2687 11.1519V9.5774L67.661 9.56477L69.3186 11.7076H70.4405V11.5771C70.1284 11.556 69.9681 11.4171 69.7783 11.1856L68.3991 9.489C69.0528 9.40059 69.6602 9.05959 69.6602 8.31866C69.6602 7.50195 68.9643 7.10201 67.8044 7.10201H65.9654V7.23673C66.4547 7.23673 66.5559 7.45985 66.5559 7.66192V11.1519ZM65.0797 11.7076L65.396 10.533H65.202C64.8309 11.4171 64.3036 11.4255 63.7427 11.4255H62.8232C62.684 11.4255 62.6418 11.2782 62.6418 11.1561V9.44269H63.6246C64.0928 9.44269 64.4892 9.57319 64.4892 10.1163H64.6368V8.48705H64.4892C64.4892 9.03012 64.0928 9.15642 63.6246 9.15642H62.6418V7.66192C62.6418 7.48932 62.7726 7.38828 62.9497 7.38828H64.0717C64.5609 7.38828 64.7887 7.72086 64.8646 8.09975H65.0164V7.10622H61.3133V7.24094C61.8236 7.24094 61.929 7.46406 61.929 7.66613V11.1603C61.929 11.3624 61.8236 11.5855 61.3133 11.5855V11.716H65.0797V11.7076ZM58.4114 11.8044H58.5042C58.888 10.8025 59.6051 8.96697 60.1196 7.73349C60.2293 7.45564 60.3727 7.24094 60.6975 7.23252V7.0978H59.2676V7.23252C59.4701 7.23252 59.778 7.2662 59.778 7.53142C59.778 7.69139 59.6725 7.96082 59.6093 8.10817L58.6181 10.5878L57.6016 8.31024C57.5384 8.17131 57.2811 7.63666 57.2811 7.48932C57.2811 7.32093 57.357 7.23252 57.8041 7.23252V7.0978H55.9483V7.23252C56.3532 7.23252 56.5345 7.62403 56.7201 8.04081L58.4114 11.8044ZM54.6239 7.65771C54.6239 7.45564 54.7293 7.23252 55.3072 7.23252V7.0978H53.2278V7.23252C53.8057 7.23252 53.9111 7.45564 53.9111 7.65771V11.1519C53.9111 11.354 53.8057 11.5771 53.2278 11.5771V11.7076H55.3072V11.5771C54.7293 11.5771 54.6239 11.354 54.6239 11.1519V7.65771ZM51.9498 7.65771C51.9498 7.45564 52.0553 7.23252 52.6247 7.23252V7.0978H50.9671V7.23252C51.5407 7.23252 51.6419 7.45564 51.6419 7.65771V10.4488L48.9552 7.10201H47.7616V7.23673C48.1032 7.24515 48.1665 7.30409 48.3816 7.54826L48.4364 7.61561V11.1519C48.4364 11.354 48.331 11.5771 47.7616 11.5771V11.7076H49.4192V11.5771C48.8498 11.5771 48.7443 11.354 48.7443 11.1519V7.96924L51.8402 11.8044H51.9456V7.65771H51.9498ZM42.9871 9.94787C42.9871 11.2235 43.5017 11.8044 44.7712 11.8044C45.0622 11.8044 45.4418 11.7286 45.6654 11.6234C46.4541 11.2487 46.5216 10.6341 46.5216 9.84683V7.6535C46.5216 7.45143 46.627 7.22831 47.1753 7.22831V7.09359H45.5557V7.22831C46.1083 7.22831 46.2095 7.45143 46.2095 7.6535V9.84683C46.2095 10.5078 46.201 11.4887 44.8978 11.4887C44.0247 11.4887 43.6915 11.0761 43.6915 9.98997V7.6535C43.6915 7.45143 43.7969 7.22831 44.3073 7.22831V7.09359H42.3671V7.22831C42.8775 7.22831 42.9787 7.45143 42.9787 7.6535V9.94787H42.9871ZM126.385 15.2144L127.195 17.1299H125.583L126.385 15.2144ZM126.638 14.2082H126.499L125.081 17.5635C124.795 18.2371 124.613 18.7464 124.183 18.7801V18.9106H125.562V18.7801C125.326 18.7801 125.09 18.717 125.09 18.4896C125.09 18.2328 125.377 17.6771 125.465 17.4119H127.292L127.545 18.0055C127.81 18.6244 127.815 18.7591 127.224 18.7843V18.9148H129.004V18.7843C128.612 18.8054 128.468 18.3886 128.342 18.1023L126.638 14.2082ZM123.082 14.865C123.082 14.6629 123.188 14.4398 123.766 14.4398V14.3093H121.686V14.4398C122.264 14.4398 122.369 14.6629 122.369 14.865V18.3591C122.369 18.5612 122.264 18.7843 121.686 18.7843V18.9148H123.766V18.7843C123.188 18.7843 123.082 18.5612 123.082 18.3591V14.865ZM118.101 14.8986C118.101 14.5703 118.164 14.5703 118.616 14.5703C119.244 14.5703 119.733 14.8439 119.733 15.5301C119.733 16.2837 119.113 16.49 118.101 16.5236V14.8986ZM117.388 18.3591C117.388 18.5612 117.283 18.7843 116.794 18.7843V18.9148H118.713V18.7843C118.202 18.7843 118.097 18.5612 118.097 18.3591V16.7847L118.489 16.772L120.147 18.9148H121.269V18.7843C120.957 18.7633 120.796 18.6244 120.606 18.3928L119.227 16.6962C119.881 16.6078 120.488 16.2668 120.488 15.5259C120.488 14.7134 119.792 14.3093 118.633 14.3093H116.789V14.4398C117.279 14.4398 117.384 14.6629 117.384 14.865V18.3591H117.388ZM113.786 15.2144L114.596 17.1299H112.985L113.786 15.2144ZM114.039 14.2082H113.9L112.483 17.5635C112.196 18.2371 112.015 18.7464 111.585 18.7801V18.9106H112.964V18.7801C112.728 18.7801 112.491 18.717 112.491 18.4896C112.491 18.2328 112.778 17.6771 112.867 17.4119H114.693L114.942 18.0055C115.208 18.6244 115.216 18.7591 114.621 18.7843V18.9148H116.401V18.7843C116.009 18.8054 115.866 18.3886 115.739 18.1023L114.039 14.2082ZM110.534 14.865C110.534 14.6629 110.64 14.4398 111.146 14.4398V14.3093H109.758L108.219 17.8245L106.608 14.3093H105.229V14.4398C105.785 14.4398 105.891 14.6629 105.891 14.865V18.3591C105.891 18.5612 105.785 18.7843 105.216 18.7843V18.9148H106.873V18.7843C106.3 18.7843 106.199 18.5612 106.199 18.3591V15.1176L107.949 18.919H108.046L109.83 14.9576V18.3633C109.83 18.5654 109.725 18.7885 109.219 18.7885V18.919H111.159V18.7885C110.648 18.7885 110.547 18.5654 110.547 18.3633L110.534 14.865ZM100.374 15.2144L101.184 17.1299H99.5725L100.374 15.2144ZM100.623 14.2082H100.484L99.0664 17.5635C98.7796 18.2371 98.5982 18.7464 98.168 18.7801V18.9106H99.5472V18.7801C99.311 18.7801 99.0748 18.717 99.0748 18.4896C99.0748 18.2328 99.3616 17.6771 99.4502 17.4119H101.276L101.525 18.0055C101.791 18.6244 101.799 18.7591 101.205 18.7843V18.9148H102.985V18.7843C102.592 18.8054 102.449 18.3886 102.322 18.1023L100.623 14.2082ZM97.3497 18.7843C96.8394 18.7843 96.734 18.5612 96.734 18.3591V14.5997H97.2359C97.7504 14.5997 98.071 14.5997 98.227 15.4922H98.3957L98.3536 14.3093H94.4058L94.3636 15.4922H94.5323C94.6841 14.5997 95.0047 14.5997 95.5235 14.5997H96.0254V18.3591C96.0254 18.5612 95.9199 18.7843 95.4138 18.7843V18.9148H97.354V18.7843H97.3497ZM93.2923 14.865C93.2923 14.6629 93.3977 14.4398 93.9671 14.4398V14.3093H92.3095V14.4398C92.8831 14.4398 92.9844 14.6629 92.9844 14.865V17.6561L90.2977 14.3093H89.104V14.4398C89.4457 14.4482 89.5089 14.5071 89.724 14.7513L89.7789 14.8187V18.3549C89.7789 18.557 89.6734 18.7801 89.104 18.7801V18.9106H90.7616V18.7801C90.1922 18.7801 90.0868 18.557 90.0868 18.3549V15.1723L93.1826 19.0075H93.288V14.865H93.2923ZM86.101 15.2144L86.9108 17.1299H85.2996L86.101 15.2144ZM86.3498 14.2082H86.2107L84.7935 17.5635C84.5067 18.2371 84.3253 18.7464 83.8951 18.7801V18.9106H85.2743V18.7801C85.0381 18.7801 84.8019 18.717 84.8019 18.4896C84.8019 18.2328 85.0887 17.6771 85.1773 17.4119H87.0036L87.2524 18.0055C87.5182 18.6244 87.5266 18.7591 86.9319 18.7843V18.9148H88.7118V18.7843C88.3195 18.8054 88.1761 18.3886 88.0496 18.1023L86.3498 14.2082ZM80.2172 19.0117H80.3691C80.4366 18.5023 80.9385 19.0117 81.6639 19.0117C82.6129 19.0117 83.1359 18.3633 83.1359 17.7361C83.1359 16.9025 82.4948 16.6036 81.5458 16.0311C81.2464 15.8501 80.8077 15.5638 80.8077 15.1597C80.8077 14.7218 81.1198 14.4903 81.5416 14.4903C82.1911 14.4903 82.6509 15.0418 82.8111 15.6901H82.9841L82.8322 14.2082H82.6846C82.5159 14.7218 82.1827 14.2082 81.4446 14.2082C80.7613 14.2082 80.2088 14.6839 80.2088 15.3701C80.2088 16.7005 82.111 16.7426 82.3978 17.715C82.5581 18.2581 82.1743 18.7464 81.6091 18.7464C80.871 18.7464 80.3817 18.1613 80.1666 17.513H80.0063L80.2172 19.0117ZM75.215 14.4608C76.2947 14.4482 76.7081 15.5175 76.7081 16.6121C76.7418 17.3572 76.4592 18.6665 75.215 18.7633C74.3925 18.8264 73.7219 18.0476 73.7219 16.6121C73.7219 15.2817 74.1774 14.5282 75.215 14.4608ZM75.215 14.2082C73.8569 14.1788 72.9289 15.2228 72.9289 16.6078C72.9289 18.0813 73.9876 19.0075 75.215 19.0075C76.611 19.0075 77.4968 17.9508 77.4968 16.6078C77.4968 15.1302 76.4212 14.1535 75.215 14.2082ZM72.1444 14.2167H71.9968C71.7648 14.7808 71.419 14.2082 70.4616 14.2082C69.0613 14.2082 68.0743 15.2312 68.0743 16.6163C68.0743 18.1402 69.1119 19.0117 70.4742 19.0117C71.1448 19.0117 71.8619 18.6622 72.2878 18.1402L72.1698 18.0013C71.6889 18.4728 71.2208 18.6959 70.5375 18.6959C69.3945 18.6959 68.8841 17.6435 68.8841 16.671C68.8841 15.4207 69.3818 14.4945 70.529 14.4945C71.322 14.4945 71.8323 15.0165 72.0348 15.7827H72.2035L72.1444 14.2167ZM66.8512 14.865C66.8512 14.6629 66.9566 14.4398 67.5344 14.4398V14.3093H65.4551V14.4398C66.0329 14.4398 66.1384 14.6629 66.1384 14.865V18.3591C66.1384 18.5612 66.0329 18.7843 65.4551 18.7843V18.9148H67.5344V18.7843C66.9566 18.7843 66.8512 18.5612 66.8512 18.3591V14.865ZM61.87 14.8986C61.87 14.5703 61.9333 14.5703 62.3846 14.5703C63.013 14.5703 63.5023 14.8439 63.5023 15.5301C63.5023 16.2837 62.8823 16.49 61.87 16.5236V14.8986ZM61.1572 18.3591C61.1572 18.5612 61.0518 18.7843 60.5625 18.7843V18.9148H62.4816V18.7843C61.9712 18.7843 61.87 18.5612 61.87 18.3591V16.7847L62.2622 16.772L63.9198 18.9148H65.0417V18.7843C64.7296 18.7633 64.5694 18.6244 64.3796 18.3928L63.0004 16.6962C63.6541 16.6078 64.2615 16.2668 64.2615 15.5259C64.2615 14.7134 63.5655 14.3093 62.4057 14.3093H60.5667V14.4398C61.056 14.4398 61.1614 14.6629 61.1614 14.865V18.3591H61.1572ZM59.875 18.9148L60.1871 17.7403H59.9931C59.6219 18.6244 59.0947 18.6328 58.5338 18.6328H57.6143C57.4751 18.6328 57.4329 18.4854 57.4329 18.3591V16.6457H58.4157C58.8838 16.6457 59.2803 16.7804 59.2803 17.3193H59.4279V15.6901H59.2803C59.2803 16.2332 58.8838 16.3595 58.4157 16.3595H57.4329V14.865C57.4329 14.6924 57.5637 14.5913 57.7408 14.5913H58.8627C59.352 14.5913 59.5798 14.9239 59.6557 15.3028H59.8075V14.3093H56.1043V14.4398C56.6147 14.4398 56.7201 14.6629 56.7201 14.865V18.3591C56.7201 18.5612 56.6147 18.7843 56.1043 18.7843V18.9148H59.875ZM52.2577 14.9197C52.2577 14.5871 52.321 14.5661 52.6542 14.5661C53.9448 14.5661 54.8348 15.2691 54.8348 16.6331C54.8348 17.9297 54.0123 18.6917 52.5909 18.6328C52.4391 18.6244 52.2577 18.5486 52.2577 18.2918V14.9197ZM52.7892 18.9148C54.6576 18.9148 55.5982 18.0392 55.5982 16.6247C55.5982 15.0586 54.5185 14.3093 52.7301 14.3093H50.9291V14.4398C51.4395 14.4398 51.5407 14.6629 51.5407 14.865V18.3591C51.5407 18.5612 51.4353 18.7843 50.9291 18.7843V18.9148H52.7892ZM50.1868 18.9148L50.4989 17.7403H50.3049C49.9338 18.6244 49.4065 18.6328 48.8456 18.6328H47.9261C47.7869 18.6328 47.7447 18.4854 47.7447 18.3591V16.6457H48.7275C49.1956 16.6457 49.5921 16.7804 49.5921 17.3193H49.7397V15.6901H49.5921C49.5921 16.2332 49.1956 16.3595 48.7275 16.3595H47.7447V14.865C47.7447 14.6924 47.8755 14.5913 48.0526 14.5913H49.1746C49.6638 14.5913 49.8916 14.9239 49.9675 15.3028H50.1193V14.3093H46.4161V14.4398C46.9265 14.4398 47.0319 14.6629 47.0319 14.865V18.3591C47.0319 18.5612 46.9265 18.7843 46.4161 18.7843V18.9148H50.1868ZM44.2988 18.9148V18.7843C43.7758 18.7843 43.6704 18.5612 43.6704 18.3591V16.6457H44.5899C45.058 16.6457 45.4545 16.7804 45.4545 17.3193H45.6021V15.6901H45.4545C45.4545 16.2332 45.058 16.3595 44.5899 16.3595H43.6704V14.865C43.6704 14.6966 43.7252 14.5913 43.9699 14.5913H44.8893C45.3786 14.5913 45.7961 14.5366 45.8847 15.3028H46.0534V14.3093H42.3418V14.4398C42.8521 14.4398 42.9576 14.6629 42.9576 14.865V18.3591C42.9576 18.5612 42.8521 18.7843 42.3418 18.7843V18.9148H44.2988Z" fill="#001B3C"/>
</g>
<defs>
<clipPath id="clip0_2418_8185">
<rect width="129" height="26" fill="white"/>
</clipPath>
</defs>
</svg>
