<svg width="96" height="26" viewBox="0 0 96 26" fill="none" xmlns="http://www.w3.org/2000/svg">
<path fill-rule="evenodd" clip-rule="evenodd" d="M12.5576 2.02178C12.4688 2.00221 12.3829 1.98006 12.3048 1.95518V1.9221C12.3048 1.77675 12.1271 1.65112 11.8903 1.60485V1.36012H12.1666V1.06927H11.8903V0.837891H11.5283V1.06927H11.2454V1.36012H11.5152V1.59817C11.2586 1.63792 11.0743 1.77007 11.0743 1.91558V1.94198C10.9362 1.98825 10.7782 2.02133 10.6203 2.0544C10.5975 2.05911 10.5661 2.06411 10.5275 2.07018C9.85423 2.17608 6.99369 2.62655 9.3898 7.8854L9.50166 8.12345C10.1926 7.8722 10.9296 7.73338 11.706 7.73338C12.4825 7.73338 13.1865 7.8458 13.8709 8.09705L13.9564 7.87888C16.3479 2.6226 13.4874 2.17548 12.8116 2.06973C12.7734 2.06381 12.7422 2.05895 12.7194 2.0544C12.6651 2.04439 12.6108 2.03362 12.5576 2.02178ZM11.6731 2.33858C14.5025 2.33858 14.417 3.71379 14.417 3.71379C14.3512 4.18974 13.1207 3.77327 13.1865 3.09234L13.101 3.07914C12.9036 3.91209 11.6534 3.69392 11.7323 2.88083H11.6139C11.6928 3.69392 10.4426 3.91209 10.2452 3.07914L10.1597 3.09234C10.2255 3.77327 8.99502 4.18974 8.92921 3.71379C8.93005 3.71379 8.93043 3.70818 8.93115 3.69771C8.94173 3.54462 9.02434 2.3448 11.6731 2.33858ZM13.3905 7.41612C13.0944 7.41612 12.8509 7.1582 12.8839 6.84747L12.818 6.83427C12.6667 7.48212 11.6863 7.31022 11.7521 6.67557H11.6468C11.706 7.31022 10.7322 7.48212 10.5742 6.82759L10.5084 6.83427C10.5677 7.43585 9.64644 7.6739 9.42929 6.99297L9.18581 6.36484L9.25822 6.33176C10.7782 5.61776 12.6207 5.68391 14.1407 6.34511C14.0288 6.74172 13.9235 7.41612 13.3905 7.41612ZM13.7656 5.69711C13.4037 5.69058 13.0747 5.37318 13.1142 5.00298L13.0352 4.98978C12.851 5.77646 11.6666 5.57148 11.7455 4.80468H11.6139C11.6928 5.57148 10.5084 5.77646 10.3242 4.98978L10.2452 5.00298C10.3176 5.73686 9.19897 6.01451 8.94237 5.18808L8.8634 4.55342C10.6992 3.69392 12.6733 3.76659 14.5091 4.56662L14.5009 4.60258C14.4939 4.6352 14.4877 4.66873 14.4821 4.70272C14.4782 4.72623 14.4745 4.75006 14.4709 4.77418L14.4579 4.86612L14.4574 4.86976C14.4009 5.27866 14.3415 5.70758 13.7656 5.69711Z" fill="#001B3C"/>
<path d="M1.38841 4.96338L2.00695 4.32205L7.40922 9.72337C7.19206 9.76964 6.90254 9.91514 6.67223 10.1069L4.67848 8.15L4.29022 8.55328L4.26393 8.58636L2.88868 10.0144L1.64501 8.81106L2.30303 8.13013L2.99394 8.80438L3.3822 8.40111L2.69125 7.72685L3.02026 7.38305L3.04659 7.34997L2.64521 6.95989L2.61232 6.99297L2.28331 7.33677L1.5924 6.66237L1.20415 7.06564L1.90165 7.74005L1.24363 8.42098L0 7.21782L1.40157 5.75673L1.80296 6.14681L2.19118 5.74353L1.38841 4.96338Z" fill="#001B3C"/>
<path fill-rule="evenodd" clip-rule="evenodd" d="M8.84368 10.616H9.32403C9.63988 10.616 10.2189 10.6821 10.14 11.3366C10.1234 11.4753 9.99559 11.4742 9.49984 11.4705H9.47568C9.38658 11.4697 9.28606 11.4688 9.17269 11.4688H8.98846V11.8193C8.98846 12.0044 9.14636 12.1432 9.32403 12.1233C9.45463 12.1113 9.60191 12.0946 9.72291 12.0775C9.80306 12.0661 9.87167 12.0544 9.91624 12.044C11.331 11.72 10.469 13.4257 10.2387 13.7827C10.2224 13.809 10.1739 13.8903 10.1258 13.9713C10.0768 14.0538 10.0283 14.1362 10.0149 14.1596C10.0149 14.1596 10.8309 13.9215 11.2191 13.8819L11.4034 14.8801C11.4034 14.8801 12.3904 14.4636 13.0352 13.8158L13.6143 14.6422L14.0288 13.6968C14.0517 13.7068 14.0814 13.7138 14.1154 13.7185C14.1449 13.7225 14.1777 13.7247 14.2121 13.7257C14.2373 13.7263 14.2632 13.7263 14.2894 13.7258C14.3102 13.7254 14.3311 13.7246 14.3518 13.7235C14.4992 13.7164 14.6342 13.6968 14.6342 13.6968C14.0025 13.2142 14.0354 12.6918 14.0354 12.6918C14.3512 12.8174 14.7395 12.6455 14.7395 12.6455C14.2538 12.1446 14.2078 11.8997 14.1438 11.5578L14.1407 11.5415C14.1949 11.5204 14.243 11.5008 14.2845 11.4832C14.3094 11.4727 14.3319 11.4629 14.3519 11.4541C14.424 11.4222 14.4631 11.4026 14.4631 11.4026C14.1078 11.2043 14.0091 11.1118 13.9433 10.9399C13.917 10.8804 13.9038 10.8143 13.8907 10.7481L13.8512 10.5498C13.8461 10.5269 13.842 10.504 13.8385 10.4815L13.8331 10.4437L13.8272 10.3976L13.8271 10.3963L13.8248 10.3779C13.7656 9.9549 13.6077 9.67709 13.4169 9.48547C12.7457 8.77798 11.3573 8.90361 10.5479 9.41264C9.96233 9.77632 9.52146 9.88874 9.25826 9.92182H8.69893C8.62656 9.92182 8.58048 9.9945 8.6068 10.0606L8.84368 10.616ZM11.0086 9.97462H11.9429C11.3178 10.5764 11.0349 10.3846 11.0086 9.97462Z" fill="#001B3C"/>
<path d="M5.68523 14.4438C5.74444 14.6553 5.9616 14.7809 6.18531 14.761C6.80859 14.6965 7.23265 14.925 7.59383 15.1197C7.97237 15.3237 8.28181 15.4906 8.67917 15.2436C9.69253 14.609 10.2781 13.1215 10.2781 13.1215C10.2781 13.1215 9.83727 13.0223 9.2385 13.5447C8.63969 14.0669 7.14602 13.8355 7.05388 12.8504C6.93543 11.5612 6.19187 11.4885 6.19187 11.4885C6.50772 12.3545 6.28401 12.5662 6.28401 12.5662C6.15899 12.3943 5.90895 12.4274 5.90895 12.4274C6.09318 12.7381 6.06685 13.5315 6.06685 13.5315C5.94183 13.3529 5.72472 13.2735 5.72472 13.2735C5.72472 13.2735 5.96816 13.7231 5.73784 14.0736C5.65891 14.2057 5.65231 14.3313 5.68523 14.4438Z" fill="#001B3C"/>
<path d="M11.5942 17.8551C8.31068 17.4784 8.63969 20.2352 8.89633 20.7442C9.15296 21.2534 8.69893 21.6764 8.69893 21.6764L8.62652 21.6698C8.40281 21.6434 8.1791 21.5905 7.96854 21.5045C6.50776 20.9294 5.92211 21.8616 5.92211 21.8616C5.92211 21.8616 6.59329 21.8285 7.04732 22.0995C7.04732 22.0995 6.80384 22.1723 6.67223 22.5359C6.67223 22.5359 7.35657 22.2582 7.87641 22.5558C7.87641 22.5558 7.69214 22.7805 7.8106 23.1309C7.8106 23.1309 8.00799 22.6548 9.31743 23.3954C10.0544 23.8119 10.0215 22.959 10.0215 22.959C10.0544 22.0268 10.3176 21.6434 10.469 21.4979C10.6006 21.3723 10.7256 21.2467 10.8309 21.1012C12.0219 19.4749 11.5942 17.8551 11.5942 17.8551Z" fill="#001B3C"/>
<path d="M16.6214 13.9611C17.0951 14.3577 17.4439 14.8801 17.5821 15.4817C17.9947 17.2905 16.6848 18.0851 16.0847 18.4492L16.0797 18.4524C16.05 18.4702 16.0221 18.4872 15.9963 18.5031C15.8844 18.5758 15.7265 18.7213 15.6607 18.8402C15.4172 19.2567 15.8515 19.2567 15.8515 19.2567C15.8515 19.2567 16.2002 19.25 15.9831 19.5741C15.3054 20.5988 15.0619 22.3309 15.0421 22.4235C14.9175 23.0736 14.6644 23.0888 14.3166 23.1098C14.2788 23.1121 14.2399 23.1145 14.1999 23.1177C13.7919 23.1507 13.8446 23.8119 13.8446 23.8119C13.4563 23.6069 13.3774 23.3556 13.3774 23.3556C12.9497 23.3887 12.6535 24.1159 12.6535 24.1159C12.3575 23.8912 12.4496 23.5805 12.4496 23.5805C12.0087 23.6598 11.5284 24.2614 11.5284 24.2614C11.5305 24.2508 11.5283 24.2197 11.5252 24.1742C11.5088 23.9376 11.4655 23.3125 11.8574 23.1573C13.304 22.5737 13.4048 22.203 13.5808 21.5567C13.6081 21.4562 13.6372 21.3491 13.6735 21.2335C13.6806 21.2038 13.6892 21.1739 13.6975 21.1449C13.7428 20.9865 13.781 20.8537 13.5419 20.9096C10.7322 21.5442 12.8773 17.6964 13.838 17.6568C13.0615 17.4321 12.1008 18.8666 12.1008 18.8666C12.2653 17.1874 10.7519 16.6915 10.7519 16.6915C10.7519 16.6915 10.5611 17.4122 9.50826 17.6501C9.22283 17.7122 8.87326 17.7756 8.50867 17.8417L8.50685 17.8422C7.74574 17.9804 6.9195 18.1305 6.47483 18.3046C6.34321 18.3576 6.24452 18.4105 6.19187 18.47C5.87602 18.8138 5.37595 19.2567 4.97456 18.4964C4.61923 17.8155 4.48765 17.6436 4.46132 17.6237C4.46789 17.5642 4.50081 17.1279 4.39551 16.9692C4.39551 16.9692 4.63899 17.0221 4.77057 17.2139C4.77057 17.2139 4.70476 16.5263 4.48765 16.2949C4.48765 16.2949 4.81666 16.3213 4.90875 16.4865C4.90875 16.4865 4.84294 15.7461 4.59951 15.5412C4.59951 15.5412 4.84294 15.4884 5.03377 15.6668C5.03377 15.6668 5.11275 15.1643 4.86271 14.8866C4.86271 14.8866 5.36278 14.7941 5.65891 15.3891C5.6858 15.4406 5.70833 15.4931 5.72688 15.5466C5.7537 15.624 5.77225 15.7037 5.78393 15.7857L5.92211 16.6387C5.92355 16.6519 5.92693 16.6641 5.93197 16.675C5.93561 16.683 5.94013 16.6903 5.94544 16.697C5.95029 16.7032 5.95579 16.7087 5.96182 16.7135C5.98113 16.729 6.00609 16.7378 6.03397 16.7378C6.13266 16.7378 6.28401 16.7378 6.47483 16.7246C7.0144 16.685 7.83692 16.5594 8.3436 16.1561C8.57816 15.9687 8.83404 15.7035 9.09967 15.4281L9.10047 15.4272C9.74362 14.7604 10.4436 14.0346 11.0349 14.2124L11.2125 15.2899C11.6863 15.118 12.5154 14.6487 12.9892 14.1594L13.5814 15.1842L14.1275 14.4636C13.9564 17.5841 14.7658 18.2518 15.6541 17.9807C16.1871 17.8155 17.1478 17.1742 17.1083 16.1957C17.0754 15.4618 16.3121 15.257 16.3121 15.257C16.4174 15.1048 16.6674 15.1643 16.6674 15.1643C16.5885 14.7478 15.9304 14.4306 15.9304 14.4306C16.3648 14.2719 16.6674 14.5495 16.6674 14.5495C16.693 14.4809 16.5114 14.3152 16.3159 14.137L16.3138 14.1352C16.2571 14.0834 16.1994 14.0306 16.1452 13.9789C16.0985 13.9343 16.0544 13.8904 16.016 13.8487C15.7528 13.5578 15.5817 13.1148 15.5949 12.7182C15.608 12.2423 15.8581 11.7067 16.4306 11.6604C17.1675 11.6009 17.5557 12.4274 17.4899 13.1611C17.4242 13.8554 17.6479 14.1793 17.6479 14.1793C17.6479 14.1793 17.0491 13.7892 16.8056 13.538C16.5556 13.2867 16.5424 13.0223 16.5424 13.0223C16.7003 13.1282 16.7661 13.0488 16.7661 13.0488C16.4634 12.7777 16.5424 12.2885 16.5424 12.2885C16.5885 12.4207 16.8056 12.5264 16.9043 12.5727C16.9043 12.5727 16.8253 11.8918 16.3055 12.0968C15.9765 12.2289 15.8844 12.8637 16.1016 13.3462C16.1871 13.5315 16.3911 13.7694 16.6214 13.9611Z" fill="#001B3C"/>
<path d="M4.46132 17.6304V17.6237C4.45472 17.6172 4.45472 17.6237 4.46132 17.6304Z" fill="#001B3C"/>
<path d="M22.1816 8.42098L23.4252 7.21782L22.0171 5.75673L21.6157 6.14681L21.2275 5.74353L22.0302 4.96338L21.4117 4.32205L14.7658 10.7615C14.7658 10.7615 15.0487 11.3168 15.1211 11.6606L18.7402 8.15653L19.1284 8.55981L19.1547 8.59288L20.53 10.0209L21.7736 8.81774L21.1156 8.13665L20.4247 8.81106L20.0365 8.40778L20.7274 7.73338L20.3984 7.38972L20.372 7.35665L20.7734 6.96657L20.8064 6.99964L21.1353 7.34345L21.8263 6.66904L22.2145 7.07232L21.5236 7.74673L22.1816 8.42098Z" fill="#001B3C"/>
<path fill-rule="evenodd" clip-rule="evenodd" d="M4.28366 21.2864L6.78412 18.8138L8.36332 18.5295L4.59294 22.1921C4.6982 22.1921 4.8101 22.1987 4.91535 22.212C5.94187 22.364 6.6591 23.3292 6.50776 24.3672C6.37614 25.2598 5.65235 25.9143 4.8035 25.987C4.75589 25.9914 4.70829 25.9935 4.66046 25.9938C4.64146 25.9939 4.62242 25.9938 4.60334 25.9933C4.58031 25.9927 4.55721 25.9917 4.53404 25.9903C4.47763 25.987 4.42063 25.9813 4.36263 25.9738C3.8099 25.8944 3.34271 25.5705 3.05975 25.1341L2.90184 25.154C2.7571 25.1672 2.60576 25.1605 2.46098 25.1406C1.9609 25.068 1.52003 24.8035 1.21735 24.3937C0.914659 23.9838 0.78964 23.4813 0.862011 22.9789C0.87616 22.8865 0.895997 22.7961 0.921525 22.7085C0.928011 22.6862 0.934876 22.6642 0.942121 22.6424C0.959379 22.5902 0.978724 22.5392 1.00019 22.4896C0.631697 22.0863 0.440868 21.5178 0.526439 20.936C0.677782 19.898 1.63845 19.184 2.67153 19.3361C3.63224 19.4816 4.31658 20.3277 4.28366 21.2864ZM2.2241 22.3971C2.86896 22.4896 3.47433 22.04 3.56643 21.3922C3.65856 20.7377 3.21109 20.1361 2.56627 20.0435C2.47414 20.0302 2.38201 20.0302 2.28991 20.0369C1.75691 20.0831 1.30288 20.4931 1.22391 21.0484C1.13181 21.6962 1.57924 22.2978 2.2241 22.3971ZM2.77023 24.4465C2.74675 24.3245 2.73487 24.2001 2.73609 24.0734C2.73662 24.0188 2.73958 23.9637 2.74508 23.9084C2.74823 23.8763 2.75225 23.8442 2.7571 23.8119C2.80315 23.5011 2.92157 23.2235 3.08607 22.9854C2.99872 23.0206 2.90579 23.0501 2.81028 23.0719C2.72592 23.0913 2.63952 23.1048 2.55311 23.1111C2.40833 23.1243 2.26359 23.1177 2.11224 23.0979C1.92798 23.0715 1.75031 23.0185 1.58584 22.9392L1.58186 22.9533L1.57097 22.9932C1.5635 23.0221 1.55698 23.0522 1.55292 23.0847C1.51343 23.3954 1.58584 23.7061 1.77663 23.9639C1.96746 24.2218 2.23726 24.387 2.55311 24.4333C2.58892 24.4398 2.62472 24.4432 2.66053 24.4449C2.6971 24.4465 2.73366 24.4465 2.77023 24.4465ZM5.80369 24.2614C5.89579 23.6136 5.44836 23.0053 4.8035 22.9128C4.76299 22.9068 4.72252 22.9037 4.682 22.9024C4.65629 22.9017 4.63057 22.9017 4.60485 22.9023C4.57895 22.9029 4.55304 22.9043 4.52713 22.9061C3.99413 22.9524 3.5401 23.3623 3.46117 23.9176C3.36904 24.5655 3.81647 25.1737 4.46132 25.2663C5.10618 25.3588 5.71156 24.9093 5.80369 24.2614Z" fill="#001B3C"/>
<path fill-rule="evenodd" clip-rule="evenodd" d="M16.4371 19.9841L18.6809 22.1987C18.6483 22.1987 18.615 22.1994 18.5815 22.2007C18.5337 22.2025 18.4855 22.2056 18.4379 22.21C18.4111 22.2124 18.3846 22.2153 18.3585 22.2186C17.3254 22.3707 16.6148 23.3426 16.7661 24.3738C16.8977 25.2598 17.6215 25.9143 18.4704 25.9936C18.4993 25.9962 18.5282 25.998 18.5571 25.9991C18.6246 26.0018 18.6924 26.0005 18.7612 25.9956L18.8132 25.9915C18.8456 25.9885 18.8783 25.9848 18.9113 25.9804C19.464 25.9011 19.9312 25.5772 20.2141 25.1408C20.2668 25.1473 20.3194 25.1607 20.372 25.1607C20.5168 25.1739 20.6681 25.1672 20.8129 25.1473C21.313 25.0746 21.7539 24.8102 22.0565 24.4004C22.3592 23.9904 22.4843 23.4879 22.4119 22.9921C22.3902 22.8507 22.3552 22.7137 22.3068 22.585C22.2964 22.5573 22.2853 22.53 22.2737 22.503C22.6422 22.093 22.833 21.531 22.7475 20.9493C22.5961 19.9112 21.6354 19.1907 20.6023 19.3427C19.6417 19.4882 18.9573 20.3344 18.9902 21.2931L16.8385 19.1576C16.8375 19.1587 16.8334 19.171 16.8263 19.1921C16.7852 19.3139 16.6446 19.7305 16.4371 19.9841ZM20.7011 20.0502C20.7448 20.0438 20.7885 20.0391 20.8323 20.0373C20.8806 20.0352 20.929 20.0366 20.9774 20.0435C21.5104 20.0898 21.9644 20.4998 22.0434 21.0551C22.1355 21.7029 21.6881 22.3112 21.0432 22.4037C20.3984 22.4963 19.7996 22.0467 19.7009 21.3989C19.6087 20.7509 20.0562 20.1493 20.7011 20.0502ZM18.4638 22.926C18.4942 22.9216 18.5246 22.9187 18.5551 22.917C18.6168 22.9135 18.6784 22.915 18.7402 22.9194C19.2732 22.9657 19.7272 23.3757 19.8062 23.931C19.8983 24.5788 19.4508 25.1871 18.806 25.2796C18.1611 25.3789 17.5623 24.9226 17.4636 24.2748C17.3715 23.6268 17.8189 23.0252 18.4638 22.926ZM20.4726 23.0898C20.5497 23.1068 20.628 23.1186 20.7076 23.1244C20.8524 23.1376 20.9971 23.1309 21.1485 23.1112C21.3393 23.0847 21.517 23.0252 21.6815 22.9525L21.6875 22.9742L21.6931 22.9954C21.7019 23.0297 21.7098 23.0654 21.7144 23.0979C21.7604 23.4153 21.6815 23.726 21.4907 23.9772C21.2998 24.235 21.0235 24.4004 20.7142 24.4467C20.6418 24.4599 20.5694 24.4599 20.4971 24.4599C20.5119 24.3833 20.522 24.3057 20.5272 24.2271C20.5288 24.2039 20.5299 24.1807 20.5306 24.1573L20.5312 24.1199L20.5311 24.0807C20.5301 23.9967 20.5232 23.9114 20.5102 23.8252C20.4641 23.5145 20.3457 23.2367 20.1746 22.9988C20.2718 23.0364 20.3711 23.0675 20.4726 23.0898Z" fill="#001B3C"/>
<path d="M9.48194 10.9927C9.50166 10.9927 9.51482 11.0059 9.51482 11.0258C9.51482 11.039 9.50826 11.0456 9.50166 11.0522C9.45561 11.1051 9.12004 11.3034 8.52783 11.1051C8.41597 11.0654 8.31068 11.039 8.21198 11.0258C8.18566 11.0191 8.15933 11.0126 8.13301 11.0126H8.11985C7.98311 10.9994 7.87053 11.0041 7.78052 11.0179C7.68861 11.0318 7.62023 11.0552 7.57368 11.0786C7.5474 11.0852 7.50791 11.1116 7.47499 11.1447C7.47211 11.1476 7.46797 11.1505 7.46369 11.1527C7.46084 11.1543 7.45792 11.1556 7.45523 11.1565L7.45348 11.157L7.45064 11.1578L7.44867 11.1579C7.43357 11.1579 7.4223 11.1502 7.41787 11.1376C7.4165 11.1338 7.41578 11.1295 7.41578 11.125C7.41578 11.1207 7.41578 11.1165 7.41741 11.1124L7.41927 11.1087L7.42234 11.1051C7.42234 11.1051 7.90269 10.5498 8.49491 10.7745C8.59364 10.8143 8.67917 10.8472 8.75154 10.8737C8.75811 10.8737 8.76471 10.8803 8.77127 10.8803C8.78443 10.8868 8.79759 10.8918 8.81075 10.8968C8.82392 10.9018 8.83708 10.9068 8.85024 10.9133C8.97526 10.9596 9.08712 10.986 9.17269 10.9994C9.34376 11.0191 9.47537 10.9927 9.47537 10.9927H9.48194Z" fill="#001B3C"/>
<path d="M34.8461 22.8648C34.8424 22.8002 34.8417 22.7184 34.8417 22.6087H34.8351V20.9956H34.0653V22.7145C34.0653 23.1575 34.1245 23.4021 34.2824 23.607C34.4864 23.8847 34.8878 24.0566 35.3287 24.0566C35.7761 24.0566 36.1183 23.9178 36.3683 23.6334C36.5789 23.3889 36.6578 23.1508 36.6578 22.7145V20.9956H35.888V22.6022C35.888 22.9194 35.8748 23.0055 35.809 23.1244C35.73 23.2764 35.5524 23.369 35.355 23.369C35.1707 23.369 35.0128 23.2896 34.9273 23.1443C34.874 23.0596 34.8537 22.9988 34.8461 22.8648Z" fill="#001B3C"/>
<path d="M37.2829 20.9956H38.0594L39.4807 22.8204V20.9956H40.2505V23.9839H39.4807L38.0594 22.1526V23.9839H37.2829V20.9956Z" fill="#001B3C"/>
<path d="M40.8757 20.9956H41.6456V23.9839H40.8757V20.9956Z" fill="#001B3C"/>
<path d="M43.5143 22.8137L44.2381 20.9956H45.0738L43.8104 23.9839H43.205L41.9548 20.9956H42.7971L43.5143 22.8137Z" fill="#001B3C"/>
<path d="M46.1595 22.146V21.6501H47.0742V20.9956H45.3831V23.9839H47.0742V23.3227H46.1595V22.807H47.0281V22.146H46.1595Z" fill="#001B3C"/>
<path fill-rule="evenodd" clip-rule="evenodd" d="M50.0352 23.9839H49.0745L48.3375 22.8401V23.9839H47.5677V20.9956H48.7652C49.1074 20.9956 49.3245 21.0749 49.4956 21.26C49.6535 21.4319 49.7522 21.67 49.7522 21.9211C49.7522 22.3707 49.5219 22.6617 49.1008 22.7607L50.0352 23.9839ZM48.4823 22.3311C48.785 22.3311 48.9561 22.1922 48.9561 21.9608C48.9561 21.7295 48.7784 21.5906 48.4823 21.5906H48.3375V22.3311H48.4823Z" fill="#001B3C"/>
<path d="M51.4894 21.5708C51.6671 21.5708 51.825 21.6302 51.9961 21.7691L52.3119 21.1608C52.0158 21.0021 51.6868 20.9162 51.371 20.9162C50.7656 20.9162 50.3576 21.3262 50.3576 21.9278C50.3576 22.1856 50.4366 22.3773 50.5813 22.5095C50.6466 22.5635 50.7187 22.6063 50.8342 22.6522C50.9164 22.685 51.0207 22.7195 51.1604 22.7607C51.5157 22.8665 51.621 22.9458 51.621 23.1045C51.621 23.2764 51.4763 23.3954 51.2459 23.3954C51.0156 23.3954 50.7985 23.2963 50.5616 23.0913L50.2326 23.7195C50.5419 23.9376 50.9037 24.0566 51.2657 24.0566C51.9961 24.0566 52.4238 23.6665 52.4238 22.9921C52.4238 22.5624 52.2132 22.3179 51.6934 22.1658C51.6211 22.144 51.5662 22.1277 51.5238 22.1152L51.4367 22.0891L51.4185 22.0833C51.4089 22.0803 51.4009 22.0777 51.3938 22.0751C51.379 22.0699 51.3686 22.0654 51.3578 22.0599C51.2262 22.0004 51.1604 21.9211 51.1604 21.8285C51.1604 21.6832 51.3051 21.5708 51.4894 21.5708Z" fill="#001B3C"/>
<path d="M53.674 20.9956H52.9041V23.9839H53.674V20.9956Z" fill="#001B3C"/>
<path fill-rule="evenodd" clip-rule="evenodd" d="M55.4375 20.9956H54.2991V23.9839H55.4375C56.2206 23.9839 56.8983 23.2963 56.8983 22.4898C56.8983 21.6832 56.2206 20.9956 55.4375 20.9956ZM56.1021 22.4831C56.1021 22.9921 55.7665 23.3227 55.2532 23.3227H55.0756V21.6501H55.2532C55.7665 21.6501 56.1021 21.9807 56.1021 22.4831Z" fill="#001B3C"/>
<path fill-rule="evenodd" clip-rule="evenodd" d="M58.0169 23.4615L57.813 23.9839H56.997L58.1354 20.9956H58.9776L60.0962 23.9839H59.2737L59.0829 23.4615H58.0169ZM58.5565 21.9146L58.2341 22.8666H58.8789L58.5565 21.9146Z" fill="#001B3C"/>
<path fill-rule="evenodd" clip-rule="evenodd" d="M61.5767 20.9956H60.4384V23.9839H61.5767C62.3598 23.9839 63.0375 23.2963 63.0375 22.4898C63.0375 21.6832 62.3598 20.9956 61.5767 20.9956ZM62.2413 22.4831C62.2413 22.9921 61.9057 23.3227 61.3925 23.3227H61.2148V21.6501H61.3925C61.9057 21.6501 62.2413 21.9807 62.2413 22.4831Z" fill="#001B3C"/>
<path fill-rule="evenodd" clip-rule="evenodd" d="M65.9196 23.9839H65.1497V20.9956H66.3736C66.7224 20.9956 66.9264 21.0617 67.1172 21.2468C67.308 21.4253 67.4067 21.67 67.4067 21.9807C67.4067 22.6418 67.0579 22.9921 66.3999 22.9921H65.9196V23.9839ZM66.1762 22.3641C66.4724 22.3641 66.6039 22.2452 66.6039 21.9807C66.6039 21.736 66.4592 21.6104 66.1828 21.6104H65.9262V22.3575H66.1762V22.3641Z" fill="#001B3C"/>
<path fill-rule="evenodd" clip-rule="evenodd" d="M69.4137 24.0897C70.3546 24.0897 71.0586 23.4087 71.0586 22.4963C71.0586 21.584 70.3546 20.903 69.4137 20.903C68.4727 20.903 67.7686 21.5906 67.7686 22.4963C67.7686 23.4021 68.4727 24.0897 69.4137 24.0897ZM69.4071 23.3359C68.9464 23.3359 68.5714 22.9592 68.5714 22.4963C68.5714 22.0335 68.9464 21.6566 69.4071 21.6566C69.8677 21.6566 70.2427 22.0335 70.2427 22.4963C70.2427 22.9592 69.8677 23.3359 69.4071 23.3359Z" fill="#001B3C"/>
<path d="M71.4666 20.9956H72.2365L73.6578 22.8204V20.9956H74.4276V23.9839H73.6578L72.2365 22.1526V23.9839H71.4666V20.9956Z" fill="#001B3C"/>
<path d="M75.4015 23.9839H76.1714V21.6501H76.8163V20.9956H74.7698V21.6501H75.4015V23.9839Z" fill="#001B3C"/>
<path d="M77.9217 20.9956H77.1519V23.9839H77.9217V20.9956Z" fill="#001B3C"/>
<path d="M79.3233 22.146V21.6501H80.251V20.9956H78.5468V23.9839H79.3233V22.807H80.1656V22.146H79.3233Z" fill="#001B3C"/>
<path d="M81.5605 20.9956H80.7906V23.9839H81.5605V20.9956Z" fill="#001B3C"/>
<path d="M84.2387 22.0059L84.2453 22.0136H84.2387V22.0059Z" fill="#001B3C"/>
<path d="M84.2387 21.088V22.0059C84.0559 21.793 83.8407 21.6896 83.5741 21.6896C83.1135 21.6896 82.7779 22.0334 82.7779 22.516C82.7779 22.9789 83.12 23.316 83.5741 23.316C83.8307 23.316 84.0413 23.2168 84.2453 23.0053V23.9243C84.1062 23.97 84.003 24.002 83.9171 24.0241C83.8469 24.0422 83.7883 24.0537 83.731 24.0605C83.6761 24.0672 83.6224 24.0696 83.561 24.0696C82.666 24.0696 81.9685 23.3887 81.9685 22.5095C81.9685 21.6368 82.666 20.936 83.5412 20.936C83.621 20.936 83.696 20.9407 83.7714 20.9516C83.7853 20.9536 83.7993 20.9558 83.8133 20.9583L83.8522 20.9655L83.8699 20.9693C83.9818 20.9932 84.0994 21.0312 84.2387 21.088Z" fill="#001B3C"/>
<path d="M85.5086 20.9956H84.7388V23.9839H85.5086V20.9956Z" fill="#001B3C"/>
<path fill-rule="evenodd" clip-rule="evenodd" d="M86.6667 23.9839L86.8707 23.4615H87.9366L88.1275 23.9839H88.95L87.8313 20.9956H86.9891L85.8507 23.9839H86.6667ZM87.0878 22.8666L87.4102 21.9146L87.7326 22.8666H87.0878Z" fill="#001B3C"/>
<path d="M35.2694 11.2242C34.7167 10.6358 33.8744 10.2788 33.019 10.2788C31.1108 10.2788 30.0119 11.8126 30.0119 13.353C30.0119 14.8537 31.1503 16.3546 33.0059 16.3546C33.8613 16.3546 34.7167 15.9645 35.2694 15.409V17.4784C34.5259 17.7826 33.7757 18.0139 32.9532 18.0139C30.0777 18.0139 27.9523 15.852 27.9523 13.3926C27.9523 10.8605 29.9988 8.62596 32.9993 8.62596C33.7955 8.62596 34.5851 8.81774 35.276 9.14819V11.2242H35.2694Z" fill="#001B3C"/>
<path fill-rule="evenodd" clip-rule="evenodd" d="M41.7377 8.56648C38.7503 8.56648 36.6776 10.7548 36.6776 13.2473C36.6776 15.7991 38.7503 17.9545 41.7377 17.9545C44.7251 17.9545 46.7977 15.7991 46.7977 13.2473C46.7977 10.7548 44.7185 8.56648 41.7377 8.56648ZM41.7311 16.2354C40.04 16.2354 38.7371 14.5233 38.7371 13.1744C38.7371 11.7332 39.9808 10.2788 41.7311 10.2788C43.4748 10.2788 44.7251 11.7332 44.7251 13.1744C44.7251 14.5233 43.4221 16.2354 41.7311 16.2354Z" fill="#001B3C"/>
<path d="M56.1745 12.3017H56.1482L53.8254 17.9543H53.1344L50.8972 12.3017H50.8709L49.9628 17.8354H47.9559L49.6799 8.68543H51.0881L53.6083 14.5629L56.0232 8.68543H57.4642L58.9908 17.8354H56.9904L56.1745 12.3017Z" fill="#001B3C"/>
<path d="M61.0108 8.68543H63.0046V17.8354H61.0108V8.68543Z" fill="#001B3C"/>
<path d="M67.3343 16.3215H70.1506V17.8354H65.3405V8.68543H67.3343V16.3215Z" fill="#001B3C"/>
<path d="M76.5005 16.3215H73.6776V8.68543H71.6838V17.8354H76.5005V16.3215Z" fill="#001B3C"/>
<path fill-rule="evenodd" clip-rule="evenodd" d="M80.7512 15.9578L79.909 17.8354H77.8099L81.7975 8.68543H83.3438L87.2195 17.8354H85.0941L84.3045 15.9578H80.7512ZM82.4752 11.2969H82.4489L81.3237 14.5363H83.7517L82.4752 11.2969Z" fill="#001B3C"/>
<path d="M92.1479 10.0341C92.8389 10.0341 93.3521 10.3184 93.7469 10.768L94.7142 9.56467C94.0627 8.96309 92.7468 8.57301 91.7992 8.57301C90.0029 8.57301 88.6868 9.76964 88.6868 11.2439C88.6868 12.6257 89.6936 13.2008 91.0688 13.6768L91.2278 13.7279C92.0284 13.9836 92.9244 14.27 92.9244 15.1314C92.9244 15.819 92.398 16.4206 91.5491 16.4206C90.6543 16.4206 89.9042 15.8056 89.6212 15.1182L88.2788 16.2156C89.0158 17.247 90.0884 17.9543 91.5623 17.9543C93.7469 17.9543 95.0761 16.6915 95.0761 14.9065C95.0761 13.1531 93.6256 12.6416 92.4232 12.2175C91.572 11.9173 90.8451 11.661 90.8451 11.039C90.8451 10.4572 91.4834 10.0341 92.1479 10.0341Z" fill="#001B3C"/>
</svg>
