<svg width="128" height="26" viewBox="0 0 128 26" fill="none" xmlns="http://www.w3.org/2000/svg">
<g clip-path="url(#clip0_2418_8022)">
<path d="M123.944 0H127.953V3.86232H123.944V0ZM29.6185 0.0942029V12.9058H58.3879V0.0942029H95.1277V13H123.944V5.84058H128V16.8623H91.0717V13.1413H62.4439V16.8623H25.5625V0.0942029H29.6185ZM91.0717 9.09058V4.05072H62.4439V9.04348L91.0717 9.09058Z" fill="#001B3C"/>
<path d="M29.6654 20.489H28.6278V23.5977C28.6278 24.0216 28.5806 24.1629 28.4863 24.3042C28.3448 24.5397 28.0618 24.6339 27.7317 24.6339C27.4016 24.6339 27.1658 24.5397 27.0243 24.3513C26.9299 24.21 26.8828 24.0216 26.8828 23.5977V20.489H25.6094V23.5977C25.6094 24.3042 25.7509 24.7281 26.0338 25.0579C26.4111 25.3876 26.9299 25.5289 27.6374 25.5289C28.2977 25.5289 28.8164 25.3876 29.1466 25.0579C29.4767 24.7281 29.6182 24.3984 29.6182 23.5506L29.6654 20.489Z" fill="#001B3C"/>
<path d="M34.4767 20.489H33.5806V23.0796C33.5806 23.1738 33.5806 23.2209 33.5806 23.4093L31.8356 20.489H30.6094V25.4818H31.5526V22.5144V22.326V22.1376L33.5335 25.4818H34.5711V20.489H34.4767Z" fill="#001B3C"/>
<path d="M36.6927 20.489H35.5137V25.4818H36.6927V20.489Z" fill="#001B3C"/>
<path d="M41.4562 20.489H40.4658L39.381 24.0687L38.3906 20.489H37.1172L38.6736 25.4818H39.947L41.4562 20.489Z" fill="#001B3C"/>
<path d="M45.5124 21.431V20.489H41.8809V25.4818H45.5124V24.4926H43.1071V23.4093H44.9936V22.4673H43.1071V21.431H45.5124Z" fill="#001B3C"/>
<path d="M47.3995 21.3842H48.1069C48.5786 21.3842 48.6729 21.3842 48.8144 21.5255C48.9559 21.6197 49.0502 21.8081 49.0502 21.9965C49.0502 22.1849 48.9087 22.4204 48.7672 22.5146C48.6257 22.6088 48.5314 22.6088 48.1541 22.6088H47.4466L47.3995 21.3842ZM47.3995 23.5038H48.2484L49.003 25.482H50.3236L49.3803 23.3153C49.6161 23.2211 49.7105 23.1269 49.852 23.0327C50.0878 22.7972 50.2764 22.4204 50.2764 21.9965C50.2764 21.5726 50.0878 21.1016 49.7576 20.819C49.4747 20.5835 49.0974 20.4893 48.4371 20.4893H46.2676V25.482H47.4466L47.3995 23.5038Z" fill="#001B3C"/>
<path d="M54.7097 21.6197C54.5682 21.1958 54.4267 21.0074 54.1438 20.8189C53.8136 20.5834 53.3892 20.4421 52.8232 20.4421C52.2573 20.4421 51.8328 20.5834 51.5027 20.8661C51.1725 21.1487 50.9839 21.5726 50.9839 22.0436C50.9839 22.5617 51.2197 22.9385 51.597 23.174C51.88 23.3153 52.2101 23.4566 52.776 23.5508C53.4363 23.6921 53.6721 23.7863 53.6721 24.1161C53.6721 24.4458 53.342 24.6342 52.8704 24.6342C52.3044 24.6342 51.9743 24.4458 51.8328 23.9276L50.748 24.1632C50.8895 24.6342 51.031 24.8697 51.3612 25.1052C51.7385 25.3878 52.2101 25.5291 52.8232 25.5291C53.342 25.5291 53.8608 25.4349 54.1438 25.1994C54.6154 24.9168 54.8984 24.3987 54.8984 23.8805C54.8984 23.4095 54.6626 22.9856 54.2853 22.703C54.0023 22.5146 53.7193 22.4204 52.9175 22.2791C52.3987 22.1849 52.2101 22.0436 52.2101 21.761C52.2101 21.4784 52.4459 21.29 52.8704 21.29C53.342 21.29 53.5778 21.4313 53.7665 21.8552L54.7097 21.6197Z" fill="#001B3C"/>
<path d="M56.7845 20.489H55.6055V25.4818H56.7845V20.489Z" fill="#001B3C"/>
<path d="M58.9542 21.431H59.473C59.8974 21.431 60.1332 21.5252 60.3691 21.8079C60.6049 22.0905 60.6992 22.5144 60.6992 22.9854C60.6992 23.4093 60.5577 23.8332 60.3219 24.1629C60.1332 24.4455 59.8503 24.5868 59.4258 24.5868H58.9542V21.431ZM57.8223 20.489V25.4818H59.5673C60.3219 25.4818 60.935 25.2463 61.3595 24.7752C61.7839 24.3042 61.9726 23.6919 61.9726 22.9854C61.9726 22.2789 61.7368 21.6666 61.3123 21.1955C60.8407 20.6774 60.3219 20.489 59.3786 20.489H57.8223Z" fill="#001B3C"/>
<path d="M63.8577 23.5506L64.3765 21.8079L64.9425 23.5506H63.8577ZM65.1783 20.489H63.8106L62.207 25.4818H63.2446L63.5748 24.4455H65.2255L65.5556 25.4818H66.829L65.1783 20.489Z" fill="#001B3C"/>
<path d="M68.4796 21.431H68.9512C69.3757 21.431 69.6115 21.5252 69.8473 21.8079C70.0831 22.0905 70.2246 22.5144 70.2246 22.9854C70.2246 23.4093 70.0831 23.8332 69.8473 24.1629C69.6586 24.4455 69.3757 24.5868 68.9512 24.5868H68.4796V21.431ZM67.3477 20.489V25.4818H69.0927C69.8473 25.4818 70.4604 25.2463 70.8377 24.7752C71.2622 24.3042 71.4508 23.6919 71.4508 22.9854C71.4508 22.2789 71.215 21.6666 70.7905 21.1955C70.3189 20.6774 69.8001 20.489 68.8569 20.489H67.3477Z" fill="#001B3C"/>
<path d="M75.2715 23.5506L75.7903 21.8079L76.3563 23.5506H75.2715ZM76.6392 20.489H75.2715L73.668 25.4818H74.7056L74.9885 24.4926H76.6392L76.9222 25.5289H78.1956L76.6392 20.489Z" fill="#001B3C"/>
<path d="M79.8936 21.4313H80.4124C80.8369 21.4313 81.0727 21.5255 81.3085 21.8081C81.5443 22.0907 81.6858 22.5146 81.6858 22.9856C81.6858 23.4095 81.5443 23.8335 81.3085 24.1632C81.0727 24.4458 80.8369 24.5871 80.4124 24.5871H79.9408V21.4313H79.8936ZM78.7617 20.4893V25.482H80.5067C81.2613 25.482 81.8273 25.2465 82.2518 24.7755C82.6762 24.3045 82.8649 23.6922 82.8649 22.9856C82.8649 22.2791 82.6291 21.6668 82.2518 21.1958C81.7801 20.6777 81.2613 20.4893 80.3181 20.4893H78.7617Z" fill="#001B3C"/>
<path d="M85.6011 21.3842C85.9313 21.3842 86.1671 21.5255 86.3086 21.8081C86.4501 22.0907 86.4972 22.5146 86.4972 23.0327C86.4972 24.1161 86.2142 24.6342 85.6011 24.6342C84.988 24.6342 84.6579 24.1161 84.6579 23.0327C84.6579 21.9494 84.988 21.3842 85.6011 21.3842ZM85.6483 20.4421C84.9408 20.4421 84.3749 20.6776 83.9976 21.1487C83.6203 21.6197 83.4316 22.2791 83.4316 22.9856C83.4316 23.6921 83.6203 24.3516 83.9976 24.8226C84.3749 25.2936 84.8937 25.5291 85.554 25.5291C86.2142 25.5291 86.8274 25.2465 87.1575 24.8226C87.4876 24.3516 87.7235 23.645 87.7235 22.9856C87.7235 22.2791 87.5348 21.6197 87.1575 21.1487C86.8274 20.6776 86.2614 20.4421 85.6483 20.4421Z" fill="#001B3C"/>
<path d="M89.7045 24.4926V20.489H88.5254V25.4818H91.7325V24.4926H89.7045Z" fill="#001B3C"/>
<path d="M95.9301 21.4781V20.489H92.3457V25.4818H93.5719V23.5506H95.4113V22.6086H93.5719V21.4781H95.9301Z" fill="#001B3C"/>
<path d="M98.4293 21.3842C98.7594 21.3842 98.9481 21.5255 99.1367 21.8081C99.2782 22.0907 99.3725 22.5146 99.3725 23.0327C99.3725 24.1161 99.0424 24.6342 98.4293 24.6342C97.8161 24.6342 97.486 24.1161 97.486 23.0327C97.486 21.9494 97.8633 21.3842 98.4293 21.3842ZM98.4764 20.4421C97.769 20.4421 97.203 20.6776 96.8257 21.1487C96.4484 21.6197 96.2598 22.2791 96.2598 22.9856C96.2598 23.6921 96.4484 24.3516 96.8257 24.8226C97.203 25.2936 97.7218 25.5291 98.3821 25.5291C99.0424 25.5291 99.6555 25.2465 99.9856 24.8226C100.316 24.3516 100.552 23.645 100.552 22.9856C100.552 22.2791 100.363 21.6197 99.9856 21.1487C99.6555 20.6776 99.1367 20.4421 98.4764 20.4421Z" fill="#001B3C"/>
<path d="M104.419 20.489H103.24V25.4818H104.419V20.489Z" fill="#001B3C"/>
<path d="M106.636 23.3624H107.627C108.145 23.3624 108.428 23.5508 108.428 23.9276C108.428 24.1161 108.334 24.3516 108.145 24.4458C108.004 24.54 107.862 24.54 107.579 24.54H106.683V23.3624H106.636ZM106.636 21.3842H107.438C107.862 21.3842 107.957 21.3842 108.098 21.5255C108.192 21.6197 108.24 21.761 108.24 21.9023C108.24 22.0907 108.145 22.232 108.004 22.3262C107.909 22.4204 107.768 22.4204 107.485 22.4204H106.589V21.3842H106.636ZM105.457 20.4892V25.482H107.815C108.428 25.482 108.853 25.3878 109.183 25.1052C109.466 24.8697 109.655 24.4929 109.655 24.1161C109.655 23.7863 109.513 23.4566 109.23 23.174C109.041 23.0327 108.9 22.9385 108.57 22.8914C109.183 22.703 109.513 22.3262 109.513 21.761C109.513 21.3842 109.372 21.0545 109.041 20.7718C108.758 20.5363 108.428 20.4421 107.815 20.4421C107.815 20.4892 105.457 20.4892 105.457 20.4892Z" fill="#001B3C"/>
<path d="M113.19 18.8877L111.587 19.6413L111.775 20.0652L113.426 19.5L113.19 18.8877ZM111.539 23.5507L112.058 21.808L112.577 23.5507H111.539ZM112.86 20.4891H111.492L109.889 25.4819H110.926L111.256 24.4457H112.907L113.237 25.4819H114.511L112.86 20.4891Z" fill="#001B3C"/>
<path d="M118.048 19.0291C117.907 19.2175 117.671 19.3117 117.529 19.3117C117.435 19.3117 117.293 19.2646 117.152 19.2175C116.916 19.0762 116.775 19.0762 116.586 19.0762C116.303 19.0762 116.02 19.2175 115.737 19.5001L116.067 19.924C116.209 19.7827 116.397 19.6885 116.539 19.6885C116.633 19.6885 116.727 19.7356 116.869 19.7827C117.199 19.924 117.293 19.9711 117.482 19.9711C117.812 19.9711 118.095 19.8298 118.378 19.5001L118.048 19.0291ZM118.897 20.4892H117.954V23.0798C117.954 23.174 117.954 23.2211 117.954 23.4095L116.256 20.4892H114.982V25.482H115.926V22.5146V22.3262V22.1377L117.907 25.482H118.944C118.897 25.482 118.897 20.4892 118.897 20.4892Z" fill="#001B3C"/>
<path d="M123.52 21.431V20.489H119.936V25.4818H123.52V24.4926H121.115V23.4093H123.001V22.4673H121.115V21.431H123.52Z" fill="#001B3C"/>
<path d="M127.858 21.3839V20.489H124.038V21.431H126.444L123.85 24.6339V25.4818H127.953V24.5397H125.312L127.858 21.3839Z" fill="#001B3C"/>
<path d="M18.8651 22.75L18.6293 22.8442H18.5822L18.4407 22.75V22.7029H18.4878L18.8651 22.75V22.4674C18.7708 22.3732 18.7237 22.4203 18.4878 22.4674L18.2049 22.3732C18.1105 22.279 18.1105 22.0906 18.252 21.9964L18.4407 21.9022L18.4878 21.8551L18.535 21.9022L18.6765 22.0435V22.0906C18.6293 22.0906 18.4878 21.9493 18.2992 22.0906L18.252 22.279C18.2992 22.3261 18.3935 22.3261 18.5822 22.279C18.7237 22.2319 18.8651 22.2319 18.9595 22.3732C19.0066 22.4674 19.0066 22.6558 18.8651 22.75ZM18.0634 23.3152C17.8276 23.4565 17.5917 23.4094 17.4503 23.1739C17.2616 22.9855 17.2616 22.7029 17.5446 22.4674C17.7804 22.3261 18.0162 22.3732 18.2049 22.6087C18.2992 22.75 18.3935 23.0797 18.0634 23.3152ZM17.4503 23.692H17.4031L16.4598 23.4094H16.4127L16.6485 23.8333C16.79 24.0217 16.8843 23.8804 16.9315 23.9275L16.8843 23.9746L16.7428 24.0688L16.6485 24.1159H16.6013L16.6485 23.9275L16.3655 23.4565C16.224 23.221 16.1769 23.4094 16.1297 23.3152V23.2681L16.1769 23.221L16.3183 23.1739H16.3655L17.1201 23.4094H17.1673H17.2144L16.9786 23.0326L16.79 22.9855V22.9384L16.9315 22.8442L17.073 22.75H17.1201C17.1201 22.7971 17.0258 22.7971 17.1201 22.9384L17.4503 23.6449V23.692ZM15.941 23.9746L15.7996 23.9275L15.8467 23.7862L15.9882 23.8333L15.941 23.9746ZM15.3279 24.7283L15.1864 24.7754L14.9978 24.8225H14.9506C14.9506 24.7754 15.0921 24.7754 15.045 24.6341L14.762 24.0688L14.7148 24.0217L14.6205 24.0688C14.4318 24.1159 14.5262 24.2572 14.479 24.3043L14.4318 24.2572L14.3847 24.0688V24.0217C14.5262 23.9746 14.6205 23.9746 14.8091 23.8804C14.9978 23.8333 15.0921 23.7862 15.1864 23.7391H15.2336L15.2808 23.8333V23.9275C15.2336 23.9275 15.2336 23.7862 15.0921 23.8333L14.9978 23.9275L14.9506 24.0217L15.1864 24.5869C15.2336 24.7283 15.3751 24.6341 15.4223 24.6812L15.3279 24.7283ZM14.5733 25.0109L14.3847 25.058L14.2432 25.1051L14.2903 24.9167L14.0545 24.3043L13.913 24.2572L13.9602 24.2101L14.1017 24.163L14.2903 24.1159H14.3375L14.2432 24.2572L14.4318 24.8696C14.479 25.058 14.6205 24.9167 14.6205 24.9638L14.5733 25.0109ZM13.7244 25.2464C13.5357 25.2935 13.4886 25.2935 13.4414 25.3406H13.3471H13.2999C13.2999 25.2935 13.3943 25.2935 13.3943 25.1993L13.2056 24.5869C13.1584 24.3985 13.0169 24.5398 13.0169 24.4927V24.4456H13.1113L13.4414 24.3514C13.7716 24.2572 13.8187 24.4456 13.8187 24.4927L13.7244 24.6812C13.913 24.6812 13.9602 24.7283 14.0074 24.8696C14.0545 25.058 13.9602 25.1993 13.7244 25.2464ZM13.1584 25.3877L12.9698 25.4348L12.8283 25.4819H12.7811L12.8283 25.3406L12.7811 25.2464L12.6868 25.1522L12.451 25.1993L12.3567 25.2935V25.3877L12.5453 25.4819H12.4982H12.3567L12.2152 25.5761H12.168L12.2623 25.4819L12.451 24.5869V24.5398L12.4982 24.5869L13.0169 25.2935L13.2056 25.3877H13.1584ZM11.9322 25.6232L11.7436 25.4819L11.6021 25.2464L11.4606 25.1993L11.4134 25.2935L11.4606 25.529C11.4606 25.6703 11.6021 25.5761 11.6021 25.6232L11.5077 25.6703H11.4134H11.2248H11.1776C11.1776 25.6232 11.2719 25.6703 11.2719 25.4819L11.2248 24.9167C11.2248 24.7754 11.0833 24.8225 11.0833 24.7754H11.2248L11.5077 24.7283C11.7907 24.6812 11.8379 24.8696 11.8379 24.9167L11.7907 25.058L11.7436 25.1522C11.7436 25.1522 11.885 25.3406 11.9794 25.529H12.0265H12.0737L11.9322 25.6232ZM10.8475 25.7174C10.6588 25.7174 10.5645 25.7174 10.5173 25.7174H10.3287C10.3287 25.6703 10.423 25.7174 10.423 25.5761L10.3758 24.9167L10.2343 24.7754L10.2815 24.7283C10.3287 24.7283 10.423 24.7283 10.6588 24.7283C10.7531 24.7283 10.8475 24.7283 10.9889 24.7283L11.0361 24.7754V24.9167V24.9638C10.9889 24.9638 11.0833 24.8225 10.8003 24.8225C10.6588 24.8225 10.6116 24.8225 10.6116 24.9167V25.1051L10.6588 25.1522H10.7531L10.8946 25.0109H10.9418V25.2464V25.2935C10.8946 25.2935 10.9418 25.1522 10.8003 25.1522H10.6588L10.6116 25.3406V25.529L10.706 25.6703C11.0361 25.6703 11.0361 25.4819 11.0833 25.4819V25.529L10.8475 25.7174ZM9.80987 25.7174C9.62122 25.7174 9.5269 25.7174 9.47974 25.7174H9.38541L9.33825 25.6703C9.33825 25.6232 9.47974 25.6703 9.47974 25.529V24.9638C9.47974 24.7754 9.33825 24.8696 9.33825 24.7754V24.7283H9.43257H9.76271C10.0929 24.7283 10.0929 24.9167 10.0929 24.9638L9.95136 25.1993C10.0929 25.2464 10.1872 25.3406 10.1872 25.4348C10.1872 25.6232 10.0457 25.7174 9.80987 25.7174ZM9.1496 24.8696L9.10243 25.529C9.10243 25.7174 9.24392 25.6232 9.24392 25.6703H9.19676H9.00811H8.86662C8.86662 25.6232 8.96094 25.6703 8.96094 25.529L9.00811 24.8696C9.00811 24.7283 8.86662 24.7754 8.86662 24.7283H8.91378H9.05527H9.19676H9.24392C9.24392 24.8225 9.1496 24.7754 9.1496 24.8696ZM8.48932 25.6232C8.2535 25.5761 8.20634 25.5761 8.11201 25.5761H7.92336C7.92336 25.529 8.01769 25.5761 8.06485 25.4348L8.15917 24.8225L8.01769 24.6341H8.06485H8.2535H8.39499H8.44215L8.30066 24.7754L8.20634 25.3877L8.30066 25.529C8.6308 25.5761 8.6308 25.3877 8.67797 25.3877V25.4348L8.48932 25.6232ZM7.59322 24.9638L7.45173 25.058L7.35741 24.9167L7.4989 24.8225L7.59322 24.9638ZM6.93294 24.4456V24.6341H6.88578C6.83861 24.6341 6.88578 24.3985 6.69713 24.3043L6.50847 24.4456C6.50847 24.5398 6.55564 24.5869 6.69713 24.6812C6.79145 24.7754 6.88578 24.8696 6.83862 25.0109C6.79145 25.1993 6.64996 25.2464 6.46131 25.2464L6.27266 25.1051L6.2255 25.058V24.8696L6.27266 24.8225V24.8696C6.27266 25.0109 6.31982 25.1522 6.46131 25.1993L6.69713 25.1051C6.74429 24.9638 6.64996 24.9167 6.46131 24.7754C6.36699 24.6812 6.31982 24.6341 6.36699 24.4927C6.41415 24.3514 6.55564 24.2572 6.69713 24.3043L6.88578 24.3985H6.9801V24.4456H6.93294ZM6.03685 25.058H5.98968L5.8482 25.0109L5.70671 24.9638H5.65954L5.80103 24.8696V24.7754C5.80103 24.6341 5.80103 24.6341 5.75387 24.6341L5.51805 24.5398L5.37657 24.5869L5.28224 24.6812L5.37657 24.8225H5.28224H5.18791L5.09359 24.7754L5.18791 24.6812L5.8482 24.0217L5.89536 23.9746V24.0217L5.98968 24.9638L6.03685 25.058ZM4.99926 23.8333L4.71629 24.4456C4.66912 24.587 4.85777 24.587 4.81061 24.6341H4.76345L4.5748 24.5398L4.43331 24.4927L4.38615 24.4456C4.38615 24.3985 4.52764 24.4927 4.5748 24.3514L4.81061 23.7862V23.692L4.66912 23.6449C4.52763 23.5978 4.52763 23.7862 4.43331 23.7391V23.692L4.52763 23.5507L4.5748 23.5036C4.66912 23.5507 4.76345 23.5978 4.9521 23.692C5.14075 23.7862 5.18791 23.7862 5.3294 23.8333V23.8804L5.28224 24.0217L5.23508 24.0688C5.18791 24.0688 5.28224 23.9275 5.14075 23.8804L5.09359 23.8333H4.99926ZM4.29182 23.5507L4.00884 24.1159C3.96168 24.2572 4.10317 24.3043 4.10317 24.3043H4.05601L3.82019 24.2101L3.72587 24.163L3.86735 24.0217L4.15033 23.4565L4.05601 23.2681H4.10317L4.24466 23.3623L4.38615 23.4094L4.43331 23.4565C4.43331 23.5036 4.33898 23.4094 4.29182 23.5507ZM3.53721 23.9746L3.58438 24.0217H3.44289L3.34856 23.7862V23.5507L3.25424 23.4565H3.15991L3.06559 23.6449C3.01842 23.7862 3.15991 23.7862 3.15991 23.8333H3.11275L3.01842 23.7862L2.82977 23.692L2.78261 23.6449C2.78261 23.5978 2.87693 23.692 2.97126 23.5507L3.25424 23.0326C3.3014 22.8913 3.15991 22.8913 3.20707 22.8442H3.25424L3.39573 22.9384L3.63154 23.0797C3.86735 23.1739 3.77303 23.3623 3.77303 23.4094L3.63154 23.5036L3.53721 23.5507C3.53721 23.5507 3.53721 23.7391 3.53721 23.9746ZM2.49963 23.5036C2.31098 23.4094 2.26382 23.3623 2.21665 23.3152L2.07517 23.221C2.12233 23.1739 2.16949 23.2681 2.26382 23.1739L2.59396 22.6558L2.49963 22.3732H2.54679C2.59396 22.4203 2.68828 22.4674 2.82977 22.5616L3.11275 22.7029V22.75L3.06559 22.8913L3.01842 22.9384C2.9241 22.8913 3.11275 22.7971 2.87693 22.6558C2.73545 22.5616 2.73545 22.5616 2.68828 22.6558L2.59396 22.7971V22.8913L2.64112 22.9384L2.82977 22.8913V22.9384L2.73545 23.1739L2.68828 23.221L2.64112 23.0326L2.59396 22.9855L2.49963 23.0326L2.40531 23.1739V23.3152C2.68828 23.5036 2.78261 23.3152 2.82977 23.3623V23.4094L2.49963 23.5036ZM1.50921 22.8913V22.7971L1.69786 21.9493V21.808H1.74503L1.83935 21.9022L1.98084 21.9964L2.028 22.0435H1.88651L1.79219 22.2319L1.69786 22.7029V22.75L2.07517 22.5145L2.21665 22.4203V22.1848H2.26382L2.35814 22.279L2.45247 22.3261L2.49963 22.3732L2.31098 22.4203L1.50921 22.8913ZM1.41489 21.0072L1.22623 20.7717C1.08475 20.6304 1.03758 20.5362 1.03758 20.442L0.943257 20.5362C0.943257 20.5362 0.66028 20.7246 0.188651 21.2898C0.0471629 21.4783 0 21.6196 0 21.7609C0 22.0906 0.282977 22.3261 0.282977 22.3261C0.282977 22.3261 1.36772 23.2681 3.11275 24.163C4.85777 25.058 7.35741 26 10.1872 26C15.7996 26 19.3839 22.75 19.8556 22.2319C20.0914 21.9964 20.1385 21.7609 20.1385 21.6196C20.1385 21.4312 20.0914 21.337 20.0914 21.337L19.1481 20.442L19.0538 20.3949V20.442C19.0538 20.7717 18.6765 21.0543 18.6765 21.0543C18.6765 21.0543 16.5542 23.1268 13.0641 23.9746H13.0169C12.8755 24.0217 12.734 24.0688 12.5453 24.0688H12.4982C12.3095 24.1159 12.168 24.1159 11.9794 24.163H11.885C11.7436 24.163 11.6021 24.2101 11.4606 24.2101L11.2719 24.3043C11.1304 24.3043 11.0361 24.3043 10.8946 24.3514H10.706C10.5173 24.3514 10.3758 24.3514 10.1872 24.3514H10.14C9.95136 24.3514 9.76271 24.3514 9.57406 24.3514H9.38541C9.24392 24.3514 9.10243 24.3514 8.96094 24.3043H8.81946C8.6308 24.3043 8.44215 24.2572 8.2535 24.2101H8.15917C8.01769 24.163 7.8762 24.1159 7.68755 24.0688H7.59322C3.82019 23.2681 1.41489 21.0543 1.41489 21.0072ZM12.4982 24.7754L12.4038 25.058V25.1051H12.451L12.6396 25.058H12.6868V25.0109L12.4982 24.7754ZM13.4886 24.7754H13.5829L13.6772 24.5869C13.6772 24.4456 13.5357 24.3985 13.4414 24.4456L13.3471 24.5869L13.3943 24.7283L13.4886 24.7754ZM9.71555 25.2464L9.62122 25.3406V25.4819C9.62122 25.6232 9.66839 25.6232 9.76271 25.6232C9.9042 25.6232 9.95136 25.529 9.95136 25.4348C9.99853 25.3877 9.95136 25.2464 9.71555 25.2464ZM3.58438 23.3623L3.53721 23.0797H3.39573L3.3014 23.3152L3.34856 23.4094C3.53721 23.5036 3.58438 23.4094 3.58438 23.3623ZM11.4606 24.7754L11.3663 24.8696L11.4134 25.1522L11.5077 25.1993C11.6964 25.1051 11.6964 25.058 11.6964 24.9638C11.6492 24.8225 11.6021 24.7754 11.4606 24.7754ZM13.5357 24.8225L13.4886 24.9167L13.5357 25.058C13.5829 25.1522 13.6301 25.1993 13.7244 25.1522C13.8659 25.1522 13.913 25.058 13.8659 24.9638C13.8187 24.8696 13.7716 24.7754 13.5357 24.8225ZM9.71555 25.1993H9.80987L9.95136 25.058C9.95136 24.9167 9.85704 24.8225 9.76271 24.8225L9.62122 24.9638V25.1051L9.71555 25.1993ZM17.5446 22.5616C17.3559 22.7029 17.4031 22.8913 17.4974 23.0326C17.5917 23.1739 17.8276 23.3623 18.0162 23.221C18.2049 23.0797 18.1577 22.8913 18.0634 22.75C17.9219 22.5145 17.6861 22.4674 17.5446 22.5616ZM2.87693 20.6775C2.26382 20.5362 1.98084 20.3478 1.74503 20.3007L1.41489 20.2536C1.22623 20.2536 1.08475 20.3007 1.08475 20.3949C1.08475 20.4891 1.13191 20.5833 1.2734 20.7246L1.46205 20.9601C1.50921 21.0072 1.83935 21.2898 2.45247 21.7138L3.25424 20.6304L3.06559 20.7246L2.87693 20.6775ZM5.75387 24.2572L5.56522 24.4456L5.51805 24.4927L5.56522 24.5398L5.75387 24.5869H5.80103V24.5398L5.75387 24.2572ZM16.8371 20.8659C17.073 20.8659 17.4974 20.6304 17.4974 20.6304C18.0162 20.3478 18.3935 20.1594 18.6765 20.1594H18.818L19.1481 20.3949C19.4783 20.0652 19.5726 19.5471 19.6669 19.2174C19.3368 19.5471 18.6293 19.7826 18.6293 19.7826L18.5822 19.8297V19.7826V19.5942C18.5822 18.9819 18.3935 18.558 18.252 18.3696V18.4167L18.2049 18.6993C18.1105 18.9819 17.4974 19.5942 17.2616 19.8297C17.073 20.0652 16.6013 20.3949 16.6013 20.6775L16.6485 20.7717L16.8371 20.8659ZM0.896094 20.442L1.03758 20.2536C1.13191 20.2065 1.2734 20.1594 1.41489 20.1594C1.55637 20.1594 1.6507 20.1594 1.74503 20.2065C2.028 20.2536 2.31098 20.4891 2.87693 20.6304H3.06559C3.25424 20.6304 3.25424 20.5362 3.25424 20.4891V20.3478L3.11275 20.2536C3.01842 20.1123 2.78261 19.9239 2.40531 19.5942C1.74503 18.9819 1.55637 18.4167 1.55637 18.1812C1.41489 18.4167 1.36772 18.7464 1.36772 19.029C1.36772 19.4529 1.41489 19.8297 1.41489 19.8297V19.8768H1.36772H1.2734C0.848932 19.7355 0.377303 19.3116 0.235814 19.1703C0.235814 19.8768 0.896094 20.442 0.896094 20.442ZM18.6765 20.2065C18.4407 20.2065 18.0634 20.3478 17.5446 20.6304C17.5446 20.6304 17.1673 20.8659 16.8371 20.913H16.6957L17.4031 21.9964C18.1577 21.4783 18.5822 21.0543 18.5822 21.0543C18.5822 21.0543 18.9595 20.7246 18.9595 20.442V20.3478C18.8651 20.2536 18.818 20.2065 18.6765 20.2065Z" fill="#001B3C"/>
<path d="M4.2439 10.1269H4.19673L4.2439 10.174H4.33822H4.38538L4.47971 10.3624C4.52687 10.4566 4.66836 10.6921 4.76269 10.7863L4.95134 10.9747H4.9985L5.04566 10.9276L4.9985 10.8334L4.80985 10.6921L4.52687 10.3153L4.38538 10.1269L4.52687 9.98556L4.43255 9.93846C4.43255 9.93846 4.38538 10.0327 4.2439 10.1269ZM4.6212 3.25005L4.66836 2.92034L4.76269 2.77904L4.66836 2.73194L4.57404 2.87324L4.52687 3.20295L4.6212 3.25005ZM3.91376 4.8044H3.81943L3.63078 4.8515H3.58362V4.7102C3.53645 4.616 3.44213 4.616 3.25348 4.52179C3.11199 4.42759 3.15915 4.42759 3.11199 4.33339L3.20631 4.19208V4.14498L3.06482 3.86237V3.67397L3.11199 3.72107H3.15915L3.30064 3.62686V3.57976L3.25348 3.34426L3.01766 3.10875L2.9705 3.15585L3.06482 3.25005L3.15915 3.39136L3.20631 3.57976L3.15915 3.62686L3.01766 3.53266L2.9705 3.48556V3.57976L3.01766 3.86237L3.11199 4.09788L3.01766 4.33339V4.38049C3.01766 4.47469 3.01766 4.52179 3.20631 4.616C3.39496 4.7102 3.44213 4.7102 3.44213 4.7573L3.48929 4.8515L3.58362 4.8986L3.77227 4.8515H3.86659C4.00808 4.8986 4.14957 5.08701 4.14957 5.18121H4.19673C4.19673 5.08701 4.10241 4.8515 3.91376 4.8044ZM2.12157 11.3515V11.4457H2.16873L2.26306 11.6812C2.26306 11.8225 2.26306 11.8225 2.21589 11.9167L2.02724 12.2464V12.3406C2.02724 12.4819 2.0744 12.6703 2.0744 12.7645L2.02724 13.0943V13.1885L2.16873 13.2827L2.21589 13.2356L2.12157 13.1414V13.0943L2.16873 12.7645C2.16873 12.6703 2.12157 12.4819 2.12157 12.3406V12.2935L2.31022 12.0109L2.35738 11.7283C2.35738 11.587 2.26306 11.4928 2.26306 11.4457L2.12157 11.3515ZM4.6212 7.30078C4.6212 7.30078 4.43255 7.48918 4.14957 7.58339C3.96092 7.63049 3.81943 7.63049 3.77227 7.77179L3.7251 7.9131H3.81943L3.86659 7.77179C3.86659 7.67759 3.96092 7.67759 4.19673 7.58339C4.47971 7.48918 4.66836 7.30078 4.66836 7.30078H4.6212ZM2.64036 10.8334L2.54603 11.0218L2.49887 11.116V11.1631L2.54603 11.116V11.0689L2.5932 11.0218L2.68752 10.8334H2.64036ZM7.63962 1.88411H7.5453L7.63962 1.78991H7.73395L7.63962 1.88411ZM7.59246 2.21382L7.45097 2.59063C7.45097 2.63773 7.40381 2.82614 7.40381 2.92034V2.96744L7.5453 3.53266L7.68678 3.76817L7.59246 3.95657H7.49813L7.45097 3.90947L7.40381 3.67397V3.48556L7.35664 3.39136V3.25005H7.30948V3.34426L7.26232 3.39136C7.26232 3.39136 7.16799 3.53266 7.12083 3.67397L6.97934 4.05078L6.93218 4.23918L6.88502 4.00368V3.86237V3.81527L6.93218 3.62686C6.97934 3.39136 7.07367 3.20295 7.07367 3.01455V2.96744V2.68484H7.12083V2.59063V2.35513C7.12083 2.21382 7.0265 2.11962 7.0265 2.07252V2.02542V1.88411L7.07367 1.83701H7.16799L7.21516 2.02542V2.11962V2.16672L7.16799 2.35513V2.40223V2.54353V2.77904H7.26232V2.54353V2.40223L7.30948 2.26092L7.49813 2.02542H7.5453L7.59246 2.07252V2.11962V2.21382ZM7.73395 4.09788L7.68678 4.14498L7.49813 4.05078H7.5453H7.59246L7.73395 4.09788ZM7.21516 4.56889L7.07367 4.52179L6.88502 4.56889C6.69636 4.6631 6.6492 4.8986 6.6492 5.03991L6.60204 5.22831V5.32252L6.22474 5.51092L6.17757 5.22831H6.22474H6.31906H6.41339L6.36622 5.13411L6.13041 4.8515L6.08325 4.7573L6.2719 4.42759C6.31906 4.38049 6.36622 4.33339 6.41339 4.19208C6.41339 4.09788 6.46055 3.90947 6.46055 3.76817C6.50771 3.81527 6.60204 3.95657 6.60204 4.14498V4.23918L6.6492 4.14498L6.79069 3.95657L6.83785 4.23918V4.28629L6.79069 4.42759L6.88502 4.33339L6.97934 4.28629C7.07367 4.33339 7.16799 4.38049 7.21516 4.56889ZM6.03608 5.93484C5.80027 6.31165 5.56446 6.59426 5.51729 6.68846C5.42297 6.59426 5.32864 6.40585 5.32864 6.26455V6.21744C5.3758 6.07614 5.47013 5.74643 5.47013 5.51092V5.36962L5.3758 5.18121L5.42297 5.03991L5.56446 4.8986L5.80027 5.08701L6.08325 5.18121L6.13041 5.51092C6.13041 5.65223 6.13041 5.79353 6.03608 5.93484ZM5.98892 6.64136L5.80027 6.87686H5.75311V6.92397L5.8946 7.15947L5.80027 7.20657H5.70594H5.65878V7.25368V7.30078C5.65878 7.39498 5.65878 7.53629 5.56446 7.67759C5.51729 7.53629 5.32864 7.15947 4.9985 7.06527V7.01817L4.95134 6.78266L4.90418 6.59426L4.85701 6.35875H4.80985L4.85701 6.59426V6.73556L4.57404 6.45295L4.52687 6.31165L4.47971 6.26455L4.43255 6.31165C4.43255 6.31165 4.14957 6.64136 3.81943 6.78266L4.19673 6.17034C4.52687 6.07614 4.71552 5.84063 4.71552 5.84063H4.80985V5.74643H4.6212L4.52687 5.65223L4.47971 5.60513L4.43255 5.55802V5.60513H4.38538L4.2439 5.69933C4.05524 5.74643 3.91376 5.84063 3.81943 5.84063V5.79353L3.63078 5.60513L3.53645 5.36962V5.32252H3.44213H3.25348H3.11199L3.06482 4.99281V4.8986V4.8044H3.01766L2.87617 4.8515H2.73468L2.78185 4.616L2.82901 4.56889L2.87617 4.52179L2.78185 4.42759H2.73468L2.49887 4.28629L2.54603 4.09788L2.5932 3.95657L2.68752 4.00368L2.78185 4.05078L2.64036 3.72107H2.5932L2.54603 3.81527L2.35738 3.62686L2.54603 3.39136L2.5932 3.43846L2.64036 3.53266V3.25005H2.5932L2.54603 3.06165V3.01455L2.73468 2.92034C2.73468 2.92034 2.73468 2.82614 2.73468 2.68484L2.78185 2.40223V2.35513C2.78185 2.49643 2.82901 2.63773 2.87617 2.73194C3.01766 2.82614 3.01766 3.01455 3.30064 3.20295C3.44213 3.34426 3.58362 3.43846 3.67794 3.53266V3.57976V3.62686C3.63078 3.76817 3.53645 3.95657 3.39496 3.95657H3.3478L3.30064 4.19208C3.30064 4.38049 3.39496 4.616 3.7251 4.6631C3.7251 4.6631 4.10241 4.94571 4.2439 4.94571H4.29106L4.47971 4.8515L4.52687 4.7573L4.76269 4.99281L4.90418 4.8044L4.95134 4.7102L5.04566 4.8986L5.23432 5.08701L5.28148 5.32252V5.46382C5.28148 5.69933 5.18715 5.98194 5.13999 6.17034V6.21744C5.13999 6.45295 5.3758 6.68846 5.3758 6.68846V6.73556L5.42297 6.68846C5.56446 6.73556 5.75311 6.64136 5.98892 6.64136ZM5.98892 7.20657C6.08325 7.25368 6.22474 7.34788 6.2719 7.34788L6.50771 7.39498H6.55488H6.60204L6.69636 7.30078H6.74353L6.83785 7.20657L6.93218 7.01817V6.97107V6.73556L6.97934 6.40585L7.07367 6.31165V6.50005L7.0265 6.82976L6.88502 7.25368L6.74353 7.72469C6.6492 7.81889 6.60204 7.9602 6.55488 8.0544L6.50771 8.38411L6.31906 8.47831L6.2719 8.38411L6.31906 8.19571L6.46055 7.9602L6.55488 7.81889V7.72469C6.50771 7.67759 6.46055 7.63049 6.31906 7.53629C6.17757 7.48918 6.13041 7.44208 5.98892 7.39498L5.75311 7.34788V7.30078H5.84743L5.98892 7.20657ZM6.55488 6.87686V6.73556V6.78266L6.6492 6.97107L6.55488 6.87686ZM6.60204 6.64136V6.54715L6.6492 6.45295H6.74353V6.73556V6.97107L6.69636 7.11237V6.97107L6.60204 6.73556V6.64136ZM6.46055 8.71382H6.36622H6.2719V8.61962L6.36622 8.57252L6.41339 8.66672L6.46055 8.71382ZM4.95134 7.30078C4.85701 7.39498 4.57404 7.53628 4.47971 7.72469L4.38538 7.86599V7.9131H4.33822L4.2439 8.19571V8.28991L3.96092 8.38411L3.7251 8.61962C3.67794 8.43121 3.58362 8.33701 3.58362 8.28991L3.63078 7.9131H3.53645C3.53645 7.9131 3.48929 8.1486 3.48929 8.28991V8.33701C3.48929 8.38411 3.58362 8.52542 3.67794 8.71382V8.76092H3.7251V8.90223V8.94933C3.7251 9.18484 3.67794 9.46744 3.48929 9.75005L3.39496 9.89136L3.30064 10.2211C3.25348 10.3624 3.06482 10.6921 2.92334 10.8334C2.73468 10.9747 2.73468 11.116 2.73468 11.2573C2.73468 11.3986 2.73468 11.4457 2.64036 11.587C2.54603 11.7283 2.49887 11.7754 2.49887 11.9167V12.058C2.49887 12.1522 2.49887 12.2464 2.40454 12.3877C2.31022 12.529 2.31022 12.6232 2.31022 12.7174V12.9059C2.35738 13.0472 2.31022 13.2827 2.54603 13.3298H2.5932L2.78185 13.2827H2.87617L3.06482 13.3769L3.11199 13.5182H3.20631V13.5653L3.15915 13.424L2.92334 13.2356H2.9705H3.11199L3.25348 13.2827L3.39496 13.4711H3.48929L3.3478 13.2827L3.53645 13.424L3.39496 13.5653C3.25348 13.6595 3.06482 13.7537 2.87617 13.7537C2.73468 13.7537 2.54603 13.8008 2.40454 13.8008H2.31022L2.02724 13.6124L1.93292 13.1885L1.88575 12.8587L1.98008 12.2464C1.98008 12.1993 2.0744 12.058 2.0744 11.8696C2.0744 11.6812 1.98008 11.4928 1.98008 11.3986L2.16873 10.9276L2.21589 10.7392L2.26306 10.7863L2.40454 10.7392L2.54603 10.4566V10.4095C2.54603 10.3153 2.45171 10.0798 2.35738 9.93846C2.26306 9.79715 2.12157 9.32614 2.0744 9.18484C2.0744 9.04353 2.26306 8.71382 2.26306 8.71382L2.16873 8.61962C2.16873 8.61962 1.98008 8.94933 1.98008 9.13773V9.18484C2.02724 9.32614 2.16873 9.79715 2.26306 9.93846C2.40454 10.1269 2.49887 10.3624 2.49887 10.4095L2.35738 10.645L2.26306 10.6921L2.12157 10.5979L2.16873 10.5037L2.26306 10.3624L2.40454 10.3153H2.0744L2.12157 10.174V10.1269H1.98008V9.98556V9.84426H1.88575L1.93292 9.70295L1.98008 9.65585H1.79143L1.83859 9.51455V9.46744H1.6971L1.83859 9.18484L1.88575 9.13773L1.83859 9.09063C1.83859 9.09063 1.3198 8.71382 1.3198 8.1486C1.27264 7.63049 2.31022 6.73556 2.31022 5.79353C2.31022 5.60513 2.31022 5.51092 2.26306 5.36962L2.49887 5.41672C2.49887 5.60513 2.45171 5.93484 2.45171 5.93484V5.98194L2.54603 6.02904L2.5932 6.17034C2.35738 7.20657 1.64994 7.44208 1.60278 8.1486V8.19571C1.60278 8.19571 1.64994 8.57252 1.93292 8.61962H1.98008H2.02724L2.16873 8.52542L2.26306 8.33701C2.35738 8.1486 2.40454 7.9602 2.5932 7.77179C2.82901 7.58339 3.20631 7.25368 3.25348 7.01817C3.3478 6.82976 3.39496 6.73556 3.39496 6.54715V6.45295C3.53645 6.40585 3.63078 6.35875 3.7251 6.31165C3.67794 6.54715 3.63078 6.82976 3.63078 6.82976V6.87686H3.67794C4.05524 6.78266 4.33822 6.50005 4.43255 6.35875L4.47971 6.45295L4.80985 6.78266L4.85701 7.06527H4.90418L4.95134 7.30078ZM4.80985 7.9131C5.09283 7.9131 5.32864 8.0073 5.3758 8.47831L5.18715 8.80802L5.13999 8.85513L5.23432 8.90223V8.94933L5.18715 8.99643C5.04566 9.13773 4.71552 9.42034 4.57404 9.60875L4.52687 9.75005C4.52687 9.89136 4.66836 10.0327 4.71552 10.1269C4.76269 10.2682 4.9985 10.5979 5.13999 10.645L5.23432 10.8334V10.8805L5.18715 11.0689H5.28148L5.32864 10.9276V10.8334H5.3758L5.51729 10.645L5.61162 10.5508H5.65878H5.75311L5.80027 10.5979L5.84743 10.5508L5.65878 10.4566H5.56446L5.42297 10.5979V10.645L5.47013 10.4095L5.65878 10.3153H5.70594H5.80027L5.84743 10.3624L5.8946 10.3153L5.80027 10.2211H5.75311L5.80027 10.174L5.8946 10.1269L5.94176 10.4095L5.75311 10.9276C5.65878 11.0689 5.42297 11.4457 5.28148 11.3986C5.13999 11.3986 5.04566 11.3044 4.9985 11.2102C4.95134 11.0689 4.80985 10.8334 4.80985 10.8334L4.6212 10.7863L4.43255 10.5508C4.33822 10.4566 4.29106 10.3624 4.14957 10.3153L3.96092 10.174V10.0327V9.93846L4.10241 9.65585L4.14957 9.46744V9.42034V9.37324C4.14957 9.04353 4.2439 8.94933 4.29106 8.80802C4.33822 8.66672 4.57404 8.61962 4.57404 8.61962V8.52542H4.38538V8.57252L4.19673 8.76092C4.14957 8.90223 4.05524 8.99643 4.05524 9.27904L3.81943 9.42034L3.67794 9.51455C3.77227 9.32614 3.77227 9.13773 3.77227 8.94933V8.90223V8.71382V8.66672C3.77227 8.66672 3.91376 8.52542 4.00808 8.43121L4.2439 8.33701L4.29106 8.19571L4.33822 7.9602C4.43255 7.9602 4.6212 7.9131 4.80985 7.9131ZM2.16873 5.22831C2.31022 5.18121 2.45171 5.03991 2.54603 4.94571V5.03991V5.08701L2.5932 5.32252C2.49887 5.32252 2.31022 5.27542 2.16873 5.22831ZM2.21589 4.8515H2.26306L2.40454 4.8986L2.0744 5.18121L2.21589 4.8515ZM1.88575 4.99281H1.79143C1.6971 4.99281 1.41412 5.08701 1.41412 5.36962L1.50845 5.55802C1.50845 5.55802 1.88575 5.65223 1.83859 5.84063V5.93484C1.74426 6.26455 1.41412 6.50005 1.41412 6.68846V6.73556C1.41412 6.87686 1.50845 7.01817 1.55561 7.11237V7.06527C1.55561 7.06527 1.50845 6.97107 1.41412 6.82976L1.36696 6.68846L1.41412 6.45295C1.46129 6.35875 1.60278 6.21744 1.64994 6.02904V5.93484C1.64994 5.74643 1.41412 5.65223 1.41412 5.65223V5.69933C1.41412 5.69933 1.60278 5.84063 1.60278 5.93484V5.98194C1.55561 6.12324 1.41412 6.26455 1.36696 6.40585L1.3198 6.68846L1.36696 6.87686L1.41412 6.97107L1.3198 6.92397C1.27264 6.87686 1.3198 6.82976 1.27264 6.68846C1.27264 6.54715 1.41412 6.12324 1.46129 6.02904V5.98194C1.46129 5.84063 1.27264 5.69933 1.27264 5.69933L1.36696 5.79353L1.41412 5.98194C1.36696 6.07614 1.22547 6.50005 1.22547 6.68846L1.3198 6.97107L1.50845 7.11237C1.36696 7.11237 1.22547 7.06527 1.22547 6.82976V6.73556C1.3198 6.21744 1.36696 6.21744 1.36696 6.07614V6.02904C1.36696 5.88773 1.17831 5.69933 1.17831 5.41672V5.32252C1.17831 4.99281 1.41412 4.8044 1.74426 4.7573H1.79143L2.02724 4.8044L2.12157 4.8515L2.0744 4.99281H1.88575ZM1.55561 4.23918C1.74426 4.38049 2.12157 4.38049 2.26306 4.38049V4.56889L2.31022 4.8044H2.26306H2.21589L2.0744 4.7573C1.93292 4.6631 1.6971 4.52179 1.55561 4.23918ZM1.55561 4.09788C1.60278 4.09788 1.6971 4.05078 1.83859 4.05078H1.88575H1.98008L2.21589 4.28629H1.98008C1.79143 4.23918 1.60278 4.19208 1.55561 4.09788ZM1.64994 3.67397C1.50845 3.53266 1.36696 3.34426 1.36696 3.15585C1.55561 3.39136 2.02724 3.67397 2.12157 3.72107L1.98008 4.00368H1.93292C1.83859 3.95658 1.74426 3.81527 1.64994 3.67397ZM1.88575 3.20295L1.93292 3.15585C1.93292 3.15585 1.22547 2.63773 1.22547 2.11962V2.07252C1.41412 2.44933 1.98008 2.96744 2.16873 3.10875L1.98008 3.20295V3.25005C2.02724 3.43846 2.16873 3.57976 2.21589 3.62686H2.16873C2.12157 3.62686 1.93292 3.53266 1.79143 3.43846C1.60278 3.34426 1.41412 3.15585 1.36696 3.06165C1.46129 3.06165 1.74426 3.10875 1.88575 3.20295ZM1.83859 2.40223C2.0744 2.68484 2.31022 2.87324 2.40454 2.96744L2.26306 3.01455C2.21589 2.96744 2.02724 2.82614 1.83859 2.63773C1.60278 2.44933 1.41412 2.16672 1.3198 1.97831C1.46129 2.11962 1.6971 2.30802 1.83859 2.40223ZM1.27264 0.894981L1.3198 0.612372C1.3198 1.4131 2.21589 2.30802 2.21589 2.30802C2.31022 2.54353 2.35738 2.73194 2.40454 2.82614C2.31022 2.73194 2.12157 2.59063 1.93292 2.40223L1.88575 2.30802C1.88575 2.30802 1.27264 1.5073 1.27264 0.894981ZM1.41412 0.56527C1.55561 0.847879 1.93292 1.6015 2.16873 1.78991C2.16873 1.93121 2.16873 2.02542 2.21589 2.16672C1.98008 1.93121 1.41412 1.17759 1.41412 0.56527ZM2.49887 3.25005C2.40454 3.20295 2.26306 3.20295 2.12157 3.15585L2.40454 3.01455L2.49887 3.25005ZM2.31022 3.53266L2.26306 3.57976C2.21589 3.53266 2.0744 3.39136 2.02724 3.25005H2.0744L2.40454 3.29715L2.49887 3.34426L2.31022 3.53266ZM2.49887 3.90947C2.45171 3.90947 2.26306 3.90947 2.12157 3.95657L2.16873 3.81527L2.31022 3.62686L2.49887 3.90947ZM2.35738 4.7573V4.56889L2.40454 4.38049L2.45171 4.33339L2.35738 4.28629L2.12157 4.09788V4.05078L2.45171 4.00368C2.45171 4.14498 2.45171 4.28629 2.40454 4.28629L2.68752 4.47469L2.35738 4.7573ZM3.01766 4.94571V4.99281V5.03991C2.9705 5.08701 2.78185 5.27542 2.64036 5.32252V5.08701V5.03991V4.8515L2.68752 4.8986L2.73468 4.94571H2.87617H3.01766ZM3.20631 5.84063L3.11199 5.51092V5.46382H3.06482C3.06482 5.46382 2.87617 5.46382 2.68752 5.36962L2.9705 5.13411L3.01766 5.32252C3.01766 5.32252 3.06482 5.32252 3.20631 5.36962H3.39496C3.44213 5.51092 3.3478 5.74643 3.20631 5.84063ZM3.53645 5.88773L3.30064 5.84063C3.44213 5.74643 3.48929 5.60513 3.53645 5.51092L3.58362 5.65223L3.77227 5.88773H3.53645ZM2.64036 6.17034L2.68752 6.02904H2.82901H3.01766C3.01766 6.21744 3.01766 6.35875 3.01766 6.40585V6.45295H3.06482H3.20631H3.3478V6.54715C3.3478 6.73556 3.30064 6.78266 3.20631 6.97107C3.11199 7.20657 2.78185 7.53628 2.54603 7.72469C2.31022 7.9131 2.26306 8.1486 2.16873 8.33701L2.0744 8.52542H1.98008H1.93292C1.74426 8.52542 1.64994 8.1486 1.64994 8.1486V8.1015C1.6971 7.48918 2.40454 7.25368 2.64036 6.17034ZM3.06482 5.60513C3.06482 5.74643 3.15915 5.93484 3.15915 5.93484C3.30064 5.93484 3.44213 5.93484 3.48929 5.93484C3.48929 6.07614 3.3478 6.26455 3.06482 6.35875C3.06482 6.26455 3.06482 6.12324 3.15915 5.98194L3.11199 5.93484H3.06482L2.82901 5.98194L2.64036 5.93484C2.78185 5.84063 2.9705 5.65223 3.06482 5.60513ZM2.5932 5.41672C2.73468 5.46382 2.87617 5.51092 2.9705 5.51092L2.82901 5.69933L2.54603 5.93484C2.54603 5.79353 2.5932 5.55802 2.5932 5.41672ZM2.5932 4.8044H2.54603H2.49887H2.40454L2.68752 4.56889V4.7573L2.5932 4.8044ZM3.81943 6.12324C3.77227 6.17034 3.58362 6.35875 3.20631 6.35875C3.44213 6.21744 3.53645 6.02904 3.58362 5.93484H3.77227L3.81943 6.12324ZM3.96092 6.12324L3.81943 5.88773L4.05524 5.84063L3.96092 6.12324ZM4.10241 6.21744L3.77227 6.68846V6.54715C3.77227 6.40585 3.81943 6.26455 3.86659 6.21744H3.91376H4.10241ZM4.05524 6.12324L4.19673 5.79353H4.2439L4.43255 5.69933L4.57404 5.79353C4.57404 5.93484 4.38538 6.07614 4.05524 6.12324ZM2.26306 1.78991L2.31022 1.6486C2.35738 1.97831 2.64036 2.35513 2.68752 2.44933L2.64036 2.68484V2.92034H2.54603C2.49887 2.87324 2.26306 2.40223 2.26306 1.78991ZM2.68752 0.423966C2.54603 0.659473 2.49887 0.894981 2.49887 1.13049C2.49887 1.69571 2.73468 2.16672 2.73468 2.16672L2.68752 2.30802L2.5932 2.16672L2.40454 1.74281L2.35738 1.5544V1.4131C2.31022 1.13049 2.49887 0.659473 2.68752 0.423966ZM2.87617 0.282662C2.87617 0.471068 2.82901 0.847879 2.82901 1.22469C2.82901 1.4602 2.82901 1.69571 2.92334 1.83701C2.92334 1.83701 2.87617 1.97831 2.82901 2.11962C2.73468 2.02542 2.54603 1.6015 2.54603 1.13049C2.54603 0.847879 2.64036 0.56527 2.87617 0.282662ZM2.92334 1.93121L2.9705 1.97831V1.88411L3.06482 1.69571C3.06482 1.88411 3.11199 2.35513 3.20631 2.54353C3.20631 2.59063 3.15915 2.77904 3.15915 2.92034L2.9705 2.68484L2.87617 2.40223V2.30802C2.87617 2.16672 2.87617 2.02542 2.92334 1.93121ZM3.20631 2.63773L3.25348 2.54353L3.3478 2.40223L3.44213 2.59063C3.48929 2.68484 3.48929 2.82614 3.58362 2.87324V2.92034V3.06165V3.10875V3.15585V3.34426V3.39136L3.3478 3.15585L3.20631 3.06165V2.92034V2.63773ZM3.81943 4.38049L3.77227 4.56889C3.44213 4.56889 3.39496 4.38049 3.39496 4.19208V4.05078C3.53645 4.05078 3.63078 3.90947 3.7251 3.81527C3.77227 4.05078 3.81943 4.23918 3.81943 4.38049ZM3.91376 2.44933L3.86659 2.30802L3.91376 2.07252L4.00808 2.11962H4.10241H4.14957L4.38538 2.07252H4.52687C4.66836 2.07252 4.71552 2.02542 4.85701 2.02542L5.04566 2.16672L4.9985 2.21382L4.80985 2.11962H4.71552L4.6212 2.16672H4.52687L4.38538 2.21382L4.2439 2.26092L4.52687 2.30802V2.35513L4.33822 2.54353V2.63773H4.38538L4.6212 2.54353L4.71552 2.59063L4.85701 2.49643L4.80985 2.77904L4.71552 2.87324L4.76269 3.15585V3.34426C4.76269 3.48556 4.95134 3.62686 5.13999 3.76817C5.32864 3.90947 5.56446 4.09788 5.75311 4.28629C5.94176 4.47469 5.98892 4.7573 6.03608 4.8515L6.22474 5.08701H6.17757L5.84743 4.94571C5.70594 4.8515 5.65878 4.8044 5.56446 4.7573L5.3758 4.94571L5.32864 5.08701L5.18715 4.8986L5.09283 4.7573L4.9985 4.6631L4.85701 4.8515L4.80985 4.94571L4.76269 4.8986L4.57404 4.7102L4.52687 4.6631V4.7102L4.43255 4.8515L4.33822 4.8986H4.29106L3.81943 4.616C3.86659 4.56889 3.86659 4.47469 3.86659 4.33339C3.86659 4.19208 3.77227 3.95658 3.7251 3.72107V3.62686V3.53266L3.67794 3.34426V3.06165C3.67794 2.63773 3.86659 2.49643 3.91376 2.44933ZM5.51729 2.16672C5.65878 2.16672 5.70594 2.26092 5.75311 2.35513L5.80027 2.59063L5.61162 2.49643L5.3758 2.68484L5.28148 2.77904L5.04566 2.73194H4.90418L4.9985 2.44933L5.09283 2.16672H5.51729ZM5.56446 3.06165L5.80027 3.15585L5.65878 3.20295H5.61162L5.32864 3.06165L5.18715 2.92034H5.23432L5.32864 2.87324L5.3758 2.92034L5.56446 3.06165ZM4.80985 2.87324L4.85701 2.82614H5.04566L4.80985 2.87324ZM5.09283 3.10875H5.04566L4.80985 3.15585V3.06165V2.96744H4.85701H5.04566L5.13999 3.01455L5.28148 3.15585L5.3758 3.25005L5.09283 3.10875ZM6.93218 2.49643C6.88502 2.40223 6.79069 2.26092 6.79069 2.21382L6.83785 1.97831H6.88502H6.93218V2.07252V2.11962C6.93218 2.21382 7.0265 2.26092 7.0265 2.40223V2.63773V2.73194L6.93218 2.49643ZM6.88502 1.74281V1.88411H6.79069L6.88502 1.74281ZM7.21516 1.6015L7.16799 1.74281H7.07367L7.21516 1.6015ZM7.78111 1.83701L7.63962 1.78991L7.49813 1.88411L7.45097 1.93121L7.30948 2.07252V2.02542L7.26232 1.83701L7.21516 1.74281C7.21516 1.6015 7.30948 1.6015 7.30948 1.6015H7.26232H7.21516C7.07367 1.6015 7.0265 1.74281 7.0265 1.78991V1.83701L6.93218 1.88411L6.97934 1.74281H6.88502L6.74353 1.93121L6.69636 2.16672C6.69636 2.30802 6.79069 2.40223 6.88502 2.49643C6.97934 2.59063 6.97934 2.73194 6.97934 2.92034V2.96744C6.97934 3.10875 6.88502 3.34426 6.83785 3.57976L6.79069 3.81527V3.86237L6.69636 4.05078C6.6492 3.76817 6.41339 3.62686 6.41339 3.62686L6.31906 3.57976L6.36622 3.67397V3.72107C6.36622 3.81527 6.31906 4.00368 6.2719 4.14498C6.2719 4.28628 6.2719 4.28629 6.17757 4.38049L6.03608 4.6631C5.98892 4.52179 5.8946 4.38049 5.80027 4.28629C5.61162 4.05078 5.32864 3.86237 5.13999 3.72107C4.95134 3.57976 4.80985 3.43846 4.80985 3.34426V3.20295L5.04566 3.15585H5.09283C5.18715 3.15585 5.28148 3.29715 5.51729 3.29715H5.65878L5.84743 3.20295L5.8946 3.15585H5.94176V3.06165H5.80027L5.61162 3.01455L5.42297 2.87324L5.3758 2.82614L5.47013 2.73194L5.61162 2.59063L5.84743 2.73194L5.8946 2.82614V2.73194V2.68484C5.8946 2.54353 5.8946 2.16672 5.51729 2.16672H5.13999C5.09283 2.07252 4.9985 1.93121 4.85701 1.93121C4.66836 1.93121 4.66836 1.97831 4.52687 1.97831H4.47971L4.14957 1.88411H4.10241V1.93121L4.05524 2.02542H4.00808L3.91376 1.93121L3.81943 1.83701V1.97831L3.77227 2.26092L3.7251 2.30802L3.77227 2.35513L3.81943 2.40223C3.81943 2.40223 3.67794 2.54353 3.58362 2.82614L3.48929 2.59063C3.44213 2.44933 3.39496 2.30802 3.39496 2.30802V2.26092H3.3478L3.20631 2.40223C3.15915 2.11962 3.11199 1.6015 3.11199 1.6015V1.5544H3.06482L2.92334 1.74281C2.87617 1.6015 2.87617 1.4131 2.87617 1.22469C2.87617 0.753676 2.9705 0.188459 2.9705 0.188459V0.141357H2.92334C2.54603 0.23556 2.26306 0.942082 2.26306 1.4131V1.4602L2.21589 1.5073V1.69571C2.0744 1.6015 1.93292 1.31889 1.74426 1.03628C1.60278 0.706575 1.41412 0.423966 1.41412 0.423966V0.376865H1.36696C1.22547 0.518169 1.17831 0.706575 1.17831 0.847879C1.17831 1.366 1.55561 1.93121 1.74426 2.21382C1.55561 2.07252 1.27264 1.83701 1.27264 1.83701L1.22547 1.78991V1.83701L1.17831 2.07252C1.17831 2.44933 1.50845 2.82614 1.6971 3.06165C1.50845 2.96744 1.3198 2.96744 1.3198 2.96744H1.27264V3.01455V3.10875C1.27264 3.43846 1.64994 3.81527 1.83859 4.00368C1.60278 4.00368 1.50845 4.09788 1.46129 4.09788V4.14498C1.50845 4.38049 1.6971 4.56889 1.83859 4.7102H1.79143C1.41412 4.7102 1.08398 4.94571 1.08398 5.32252V5.36962C1.08398 5.69933 1.3198 5.88773 1.27264 5.98194C1.27264 6.12324 1.22547 6.12324 1.13115 6.64136V6.73556C1.13115 7.01817 1.41412 7.11237 1.55561 7.11237H1.64994H1.6971V7.06527L1.64994 7.11237C1.60278 7.11237 1.50845 6.92397 1.46129 6.73556C1.46129 6.59426 1.74426 6.35875 1.88575 6.07614V5.98194C1.88575 5.69933 1.55561 5.60513 1.50845 5.60513L1.46129 5.36962C1.46129 5.13411 1.6971 5.03991 1.74426 5.03991H1.83859L1.98008 5.08701L2.02724 5.27542V5.32252L2.21589 5.36962C2.26306 5.46382 2.26306 5.60513 2.26306 5.79353V5.84063C2.26306 6.78266 1.22547 7.63049 1.22547 8.19571C1.22547 8.71382 1.64994 9.09063 1.74426 9.18484L1.60278 9.46744V9.51455H1.74426L1.6971 9.79715L1.83859 9.75005L1.79143 9.89136V9.93846H1.88575V10.0798V10.1269H2.02724L1.98008 10.3153V10.3624H2.21589L2.02724 10.645V10.6921L2.16873 10.7392L2.0744 10.9276L1.88575 11.3986C1.88575 11.4928 1.98008 11.6812 1.98008 11.8225C1.98008 12.0109 1.93292 12.1051 1.93292 12.1993L1.79143 12.8587L1.88575 13.1885L1.93292 13.6595C1.98008 13.8008 2.12157 13.8479 2.26306 13.895L2.40454 13.9421C2.54603 13.9421 2.73468 13.895 2.87617 13.895C3.06482 13.895 3.30064 13.8008 3.44213 13.6595L3.63078 13.5182V13.4711L3.3478 13.1885L3.20631 13.1414H3.11199H3.06482H2.9705C2.78185 13.1414 2.73468 13.2356 2.64036 13.2356H2.5932C2.45171 13.2356 2.45171 13.0472 2.40454 12.9059L2.35738 12.7174C2.35738 12.6232 2.40454 12.529 2.45171 12.3877C2.54603 12.2464 2.54603 12.1051 2.54603 12.0109V11.8696C2.54603 11.7754 2.54603 11.7283 2.68752 11.587C2.78185 11.4457 2.78185 11.3515 2.78185 11.2102C2.78185 11.0689 2.82901 10.9276 2.9705 10.8334C3.15915 10.7392 3.30064 10.3624 3.39496 10.2682L3.44213 9.98556L3.53645 9.84426L3.63078 9.70295C3.7251 9.60875 3.77227 9.56165 3.86659 9.51455L4.00808 9.37324V9.42034V9.46744V9.60875L3.86659 9.89136V10.0327V10.174L4.10241 10.3624L4.33822 10.5979L4.57404 10.8334L4.71552 10.9276L4.85701 11.2573C4.95134 11.3986 5.04566 11.4928 5.23432 11.4928C5.47013 11.4928 5.65878 11.0689 5.75311 10.9747C5.8946 10.8334 5.98892 10.5037 5.98892 10.3624V10.0327V9.98556H5.8946L5.75311 10.0798L5.61162 10.2211L5.42297 10.3624L5.32864 10.645L5.28148 10.7392L5.13999 10.5979C5.04566 10.5508 4.80985 10.2682 4.76269 10.1269C4.71552 9.98556 4.57404 9.84426 4.57404 9.75005L4.6212 9.60875C4.76269 9.42034 5.09283 9.13773 5.23432 8.99643L5.32864 8.85513L5.28148 8.80802C5.42297 8.71382 5.42297 8.47831 5.42297 8.47831C5.3758 7.9602 5.09283 7.81889 4.80985 7.81889L4.47971 7.86599L4.52687 7.77179L4.76269 7.53629L4.90418 7.44208L4.9985 7.34788V7.30078V7.15947C5.32864 7.34788 5.47013 7.81889 5.47013 7.81889L5.51729 7.9131L5.56446 7.81889C5.70594 7.67759 5.70594 7.53629 5.75311 7.44208L5.98892 7.48918C6.08325 7.53629 6.13041 7.53629 6.2719 7.63049C6.41339 7.67759 6.41339 7.72469 6.46055 7.81889L6.41339 7.9131L6.2719 8.1015L6.17757 8.33701V8.38411L6.2719 8.52542L6.31906 8.66672L6.41339 8.71382H6.55488L6.46055 8.61962V8.52542L6.55488 8.43121L6.6492 8.0544L6.79069 7.72469C6.88502 7.58339 6.93218 7.30078 6.93218 7.25368L7.07367 6.87686L7.16799 6.54715V6.45295H7.21516H7.26232L7.07367 6.31165H7.0265L6.97934 6.26455L6.79069 6.35875H6.6492L6.55488 6.54715V6.59426L6.46055 6.73556V6.82976L6.55488 6.97107L6.60204 7.20657V7.25368L6.50771 7.30078L6.2719 7.25368C6.22474 7.25368 6.03608 7.11237 5.8946 7.01817L5.84743 6.92397L6.08325 6.64136L6.13041 6.59426H6.08325H6.03608C5.8946 6.59426 5.75311 6.64136 5.65878 6.64136C5.75311 6.50005 5.94176 6.26455 6.13041 5.98194L6.22474 5.65223L6.60204 5.36962C6.69636 5.32252 6.6492 5.18121 6.69636 5.03991C6.69636 4.8986 6.74353 4.7102 6.88502 4.616H7.07367C7.21516 4.616 7.26232 4.8515 7.26232 4.8515H7.35664C7.35664 4.42759 7.21516 4.28629 7.07367 4.28629V4.09788C7.07367 4.00368 7.16799 3.86237 7.21516 3.72107L7.30948 3.48556V3.53266V3.72107L7.35664 4.00368L7.40381 4.05078L7.59246 4.19208L7.68678 4.09788L7.63962 4.00368L7.68678 3.86237L7.59246 3.53266L7.45097 2.96744C7.45097 2.82614 7.49813 2.68484 7.49813 2.63773L7.63962 2.30802L7.68678 2.07252V2.02542V1.93121L7.78111 1.83701ZM2.64036 9.84426L2.68752 9.93846L2.5932 10.0798L2.64036 10.1269L2.68752 9.93846V9.79715L2.64036 9.84426Z" fill="#001B3C"/>
<path d="M15.9415 10.1269L16.0358 10.174L15.9887 10.2211H15.8943L15.7529 10.3624C15.6585 10.4095 15.5642 10.645 15.4227 10.7392C15.3284 10.8334 15.2812 10.9276 15.2341 10.9276H15.1869L15.2341 10.8805L15.4227 10.6921L15.7057 10.3153L15.8472 10.1269L15.7057 9.98556L15.7529 9.93846C15.7529 9.93846 15.8 10.0327 15.9415 10.1269ZM15.6114 3.25005L15.5642 2.92034L15.4699 2.77904H15.5642L15.6585 2.87324L15.7057 3.20295L15.6114 3.25005ZM16.3188 4.8044H16.4131L16.5546 4.8515L16.649 4.7102C16.6961 4.56889 16.7904 4.56889 16.9319 4.52179C17.1206 4.42759 17.0734 4.42759 17.1206 4.33339L17.0263 4.19208V4.14498L17.1206 3.86237V3.67397H17.0734H17.0263L16.8848 3.62686V3.57976L16.9319 3.39136L17.1677 3.15585L17.2149 3.20295L17.1206 3.25005L17.0734 3.34426L16.9791 3.53266L17.0734 3.57976L17.2149 3.48556L17.2621 3.43846V3.53266L17.2149 3.81527L17.0734 4.14498L17.1677 4.33339V4.38049C17.1677 4.47469 17.1677 4.52179 16.9791 4.616C16.7904 4.6631 16.7433 4.6631 16.6961 4.7573V4.8515L16.6018 4.8986L16.4131 4.8515H16.3188C16.1773 4.8986 16.0358 5.13411 16.083 5.22831H15.9887C15.9887 5.08701 16.1302 4.8515 16.3188 4.8044ZM18.111 11.3515V11.4457H18.0638L17.9695 11.7283C17.9695 11.8696 17.9695 11.8696 18.0167 11.9638L18.1582 12.2464V12.3877C18.1582 12.529 18.111 12.7174 18.111 12.8116L18.1582 13.1414V13.2356L18.0638 13.3298L18.0167 13.2827L18.111 13.1885V13.0943L18.0638 12.7645C18.0638 12.6703 18.111 12.4819 18.111 12.3406V12.2464L17.9224 12.0109L17.8752 11.7283C17.8752 11.587 17.9695 11.4928 17.9695 11.4457L18.111 11.3515ZM15.5642 7.30078C15.5642 7.30078 15.7529 7.48918 16.0358 7.58339C16.3188 7.67759 16.366 7.67759 16.4131 7.81889L16.4603 7.9602H16.366L16.3188 7.81889C16.3188 7.72469 16.2245 7.72469 15.9887 7.63049C15.7057 7.53629 15.517 7.34788 15.517 7.34788L15.5642 7.30078ZM17.5922 10.8334L17.6865 11.0218L17.7337 11.116V11.1631H17.6394V11.116L17.5922 11.0689L17.4979 10.8334H17.5922ZM12.5458 1.88411H12.6401H12.6873L12.5458 1.78991H12.4515L12.5458 1.88411ZM12.6401 2.21382L12.7816 2.59063C12.7816 2.63773 12.8288 2.82614 12.8288 2.92034V2.96744L12.6873 3.53266L12.5929 3.81527L12.6401 3.95657H12.6873L12.7344 3.90947L12.7816 3.67397L12.8288 3.48556L12.8759 3.39136V3.29715H12.9231V3.34426L12.9703 3.39136C12.9703 3.39136 13.0646 3.53266 13.1117 3.67397L13.2061 4.05078L13.2532 4.23918L13.3004 4.00368L13.3476 3.90947V3.86237L13.3004 3.67397C13.2061 3.39136 13.1589 3.20295 13.1589 3.01455V2.96744V2.68484H13.1117V2.59063V2.35513C13.1117 2.21382 13.2061 2.11962 13.2061 2.07252L13.1589 1.93121L13.1117 1.83701H13.0174L12.9703 2.02542V2.11962V2.21382L13.0174 2.35513V2.40223V2.54353V2.77904H12.9231V2.54353V2.40223L12.8759 2.21382L12.6873 1.97831H12.6401H12.5458V2.02542L12.6401 2.21382ZM12.4986 4.09788L12.5458 4.14498L12.6873 4.05078L12.6401 4.00368H12.5929L12.4986 4.09788ZM12.9703 4.56889L13.1117 4.52179L13.3004 4.56889C13.489 4.6631 13.5362 4.8986 13.5362 5.03991V5.22831V5.32252L13.9135 5.51092L13.9607 5.22831H13.8663H13.772L13.8192 5.18121L14.055 4.94571L14.1493 4.7573L13.9607 4.42759C13.9135 4.38049 13.8663 4.33339 13.8192 4.19208C13.8192 4.09788 13.772 3.90947 13.7249 3.76817C13.6777 3.81527 13.5834 3.95657 13.5834 4.09788V4.23918L13.5362 4.14498L13.3947 3.95657L13.3476 4.23918V4.28629L13.3947 4.38049H13.3004L13.1589 4.33339C13.1117 4.33339 13.0174 4.38049 12.9703 4.56889ZM14.1965 5.93484C14.4323 6.31165 14.621 6.59426 14.7153 6.68846C14.7624 6.59426 14.9039 6.40585 14.9039 6.26455V6.21744C14.8568 6.07614 14.7624 5.74643 14.7624 5.51092V5.36962L14.8568 5.18121L14.7624 4.99281L14.621 4.8515L14.4323 5.03991L14.1022 5.18121L14.055 5.51092C14.055 5.65223 14.1022 5.79353 14.1965 5.93484ZM14.1965 6.64136L14.3851 6.87686H14.4323V6.92397L14.2908 7.20657L14.3851 7.25368H14.4795H14.5266V7.30078V7.34788C14.5266 7.44208 14.5266 7.58339 14.621 7.72469C14.7153 7.53628 14.8568 7.15947 15.2341 7.06527V7.01817L15.2812 6.78266V6.59426L15.3756 6.35875H15.4699L15.3756 6.59426V6.73556L15.6585 6.50005L15.7529 6.35875L15.8 6.31165L15.8472 6.35875C15.8472 6.35875 16.1302 6.68846 16.4603 6.82976L15.9887 6.17034C15.6585 6.07614 15.4699 5.84063 15.4699 5.84063H15.3756V5.74643H15.6114L15.6585 5.65223L15.7057 5.60513L15.7529 5.55802L15.8 5.60513V5.65223L15.9415 5.69933C16.083 5.74643 16.2245 5.79353 16.3188 5.79353L16.366 5.74643L16.5075 5.55802L16.6018 5.32252V5.27542H16.649H16.7433H16.9319L17.0734 5.22831L17.1206 4.94571V4.8044L17.0734 4.7573H17.1677L17.3564 4.8044H17.4979L17.4507 4.56889H17.3564L17.3092 4.52179L17.4036 4.47469L17.4507 4.42759H17.4979L17.7337 4.23918V4.05078L17.6394 3.95657L17.545 4.00368L17.4507 4.05078L17.545 3.72107L17.5922 3.76817L17.6865 3.86237L17.828 3.67397L17.6394 3.39136L17.5922 3.43846L17.545 3.53266V3.25005H17.5922H17.6394L17.7337 3.01455L17.4507 2.96744V2.92034C17.4507 2.92034 17.4507 2.82614 17.4507 2.68484V2.40223V2.35513C17.4507 2.49643 17.4036 2.63773 17.3564 2.73194C17.2149 2.87324 17.2149 3.01455 16.9319 3.25005C16.7904 3.34426 16.649 3.48556 16.5546 3.57976V3.62686V3.67397C16.5546 3.76817 16.6961 4.00368 16.8376 3.95657H16.8848H16.9319V4.00368L16.9791 4.19208C16.9791 4.38049 16.8848 4.616 16.5546 4.6631H16.5075C16.5075 4.6631 16.083 4.94571 15.9887 4.94571H15.8943L15.7057 4.8986L15.6585 4.8044L15.4227 5.03991L15.2812 4.8515L15.2341 4.7573L15.0926 4.94571L14.9039 5.13411L14.8568 5.36962V5.51092C14.8568 5.74643 14.9511 6.02904 14.9983 6.21744V6.26455C14.9983 6.50005 14.7624 6.73556 14.7624 6.73556V6.78266H14.6681C14.621 6.73556 14.4323 6.64136 14.1965 6.64136ZM14.2436 7.20657C14.1022 7.25368 14.0078 7.30078 13.9607 7.34788L13.7249 7.39498H13.6777H13.6305L13.5834 7.30078V7.25368L13.489 7.15947L13.3947 6.97107V6.73556L13.3476 6.40585L13.2061 6.35875L13.1117 6.50005L13.2061 6.82976L13.3476 7.25368L13.489 7.72469C13.5834 7.866 13.6305 8.0073 13.6305 8.1015L13.7249 8.43121L13.9135 8.52542L13.9607 8.43121V8.38411L13.8663 8.19571L13.7249 7.9602L13.6305 7.81889L13.6777 7.72469C13.7249 7.67759 13.772 7.63049 13.9135 7.53629C14.055 7.44208 14.1022 7.44208 14.2436 7.39498L14.4795 7.34788L14.3851 7.30078L14.2436 7.20657ZM13.6777 6.87686V6.73556V6.78266L13.5834 6.92397L13.6777 6.87686ZM13.5834 6.64136V6.59426V6.54715L13.5362 6.45295H13.4419L13.489 6.73556V6.97107L13.5362 7.06527V6.92397L13.6305 6.73556V6.64136H13.5834ZM13.1117 6.31165L13.0174 6.40585H13.0646L13.1117 6.31165ZM13.7249 8.71382H13.8192H13.8663V8.61962L13.8192 8.52542L13.772 8.66672L13.7249 8.71382ZM15.2812 7.30078C15.3284 7.39498 15.6585 7.53628 15.7529 7.72469L15.8472 7.86599V7.9131L15.8943 8.1486L15.9415 8.24281L16.1773 8.33701L16.4131 8.52542C16.5075 8.43121 16.6018 8.33701 16.6018 8.28991L16.5546 7.9131H16.649C16.649 7.9131 16.6961 8.1486 16.6961 8.28991V8.33701C16.6961 8.38411 16.6018 8.52542 16.5075 8.71382V8.76092V8.90223V8.94933C16.5075 9.18484 16.5075 9.46744 16.6961 9.75005L16.8376 9.89136L16.8848 10.174C16.9791 10.3624 17.1206 10.6921 17.2621 10.8334C17.4507 10.9747 17.4979 11.116 17.4979 11.2573C17.4979 11.3986 17.4979 11.4457 17.5922 11.587C17.6865 11.7283 17.7337 11.7754 17.7337 11.9167V12.058C17.7337 12.1522 17.7337 12.2464 17.828 12.3877C17.8752 12.4819 17.9224 12.6232 17.9224 12.7174V12.9059C17.8752 13.0472 17.9224 13.2827 17.6865 13.3298H17.5922H17.4507H17.3564L17.1677 13.424L17.1206 13.5653H17.0263L17.0734 13.424L17.3092 13.2827H17.2621H17.1206H16.9319L16.8376 13.4711H16.7433L16.8376 13.2827L16.649 13.424L16.7904 13.5182C16.9319 13.6595 17.1206 13.7537 17.3092 13.7537C17.4507 13.7537 17.6394 13.8008 17.7809 13.8008H17.8752L18.1582 13.6124L18.2053 13.1885L18.2997 12.8587L18.2053 12.1993C18.2053 12.1522 18.1582 12.0109 18.1582 11.8225C18.1582 11.6341 18.2525 11.4457 18.2525 11.3986L18.0638 10.9276L17.9695 10.7392V10.7863L17.7809 10.7392L17.6394 10.4566C17.6394 10.3153 17.7337 10.1269 17.828 9.98556C17.9224 9.79715 18.111 9.32614 18.111 9.18484C18.111 9.04353 17.9224 8.71382 17.9224 8.71382L17.9695 8.66672C17.9695 8.66672 18.1582 8.99643 18.1582 9.18484V9.23194C18.1582 9.37324 17.9695 9.84426 17.8752 9.98556C17.828 10.174 17.7337 10.4095 17.7337 10.4566L17.828 10.6921L17.9224 10.7392L18.0638 10.6921L18.0167 10.5508L17.9224 10.4095L17.7809 10.3624H18.111V10.174V10.1269H18.2525L18.2053 9.93846V9.89136H18.2997L18.2525 9.75005V9.70295H18.394L18.3468 9.51455V9.46744H18.4883L18.3468 9.13773H18.2997L18.3468 9.09063C18.3468 9.09063 18.8656 8.71382 18.8656 8.1486C18.8656 7.63049 17.8752 6.73556 17.828 5.79353C17.828 5.60513 17.828 5.51092 17.8752 5.36962L17.6865 5.41672C17.7337 5.60513 17.7337 5.93484 17.7337 5.93484V5.98194H17.6865L17.5922 6.02904V6.17034C17.828 7.20657 18.5355 7.44208 18.5826 8.1486V8.19571C18.5826 8.19571 18.5355 8.57252 18.2525 8.61962H18.2053L18.0638 8.52542L17.9695 8.33701C17.8752 8.1486 17.828 7.9131 17.6394 7.77179C17.4036 7.58339 17.0263 7.25368 16.9319 7.01817C16.8848 6.82976 16.7904 6.73556 16.7904 6.54715V6.45295C16.649 6.40585 16.5546 6.35875 16.4603 6.31165C16.5546 6.54715 16.5546 6.82976 16.5546 6.87686V6.92397H16.5075C16.1302 6.82976 15.8472 6.54715 15.7529 6.45295L15.6585 6.50005L15.3284 6.82976L15.2812 7.11237H15.2341L15.2812 7.30078ZM15.4227 7.9131C15.1869 7.9131 14.9039 8.0073 14.8568 8.47831L14.9983 8.80802L15.0926 8.85513H14.9983L14.9511 8.90223L14.9983 8.99643C15.1869 9.13773 15.4699 9.42034 15.6585 9.60875L15.7529 9.79715C15.7529 9.93846 15.6114 10.0798 15.5642 10.174C15.4227 10.3153 15.2341 10.5979 15.0926 10.6921L14.9511 10.8334V10.8805V10.9276L14.9983 11.116H14.9511V10.9747L14.8568 10.8334H14.8096L14.7153 10.645L14.621 10.5508H14.5738H14.4795L14.4323 10.5979L14.3851 10.5037L14.5738 10.4566H14.621L14.7624 10.5979V10.645L14.7153 10.4095L14.5738 10.3153H14.5266H14.4323L14.338 10.3624L14.2908 10.3153L14.3851 10.2211H14.4323L14.3851 10.174L14.2908 10.0798V10.3624L14.4795 10.8805C14.5738 11.0218 14.8096 11.3986 14.9511 11.3515C15.1397 11.3515 15.1869 11.2573 15.2341 11.1631C15.2812 11.0218 15.4227 10.8334 15.4227 10.8334H15.4699L15.6114 10.7863L15.8 10.5508L16.0358 10.3153L16.2245 10.2211V10.0798V9.98556L16.1302 9.65585L16.083 9.46744V9.42034V9.37324C16.083 9.04353 15.9887 8.94933 15.9415 8.80802C15.8943 8.71382 15.6585 8.61962 15.6585 8.61962V8.52542H15.8V8.57252L15.9887 8.76092C16.0358 8.94933 16.1302 9.04353 16.1302 9.27904L16.366 9.46744L16.5075 9.56165C16.4131 9.37324 16.4131 9.13773 16.4131 8.99643V8.94933L16.4603 8.76092V8.71382C16.4603 8.71382 16.3188 8.57252 16.2245 8.47831L15.9415 8.38411H15.8943V8.33701V8.19571L15.8 7.9602C15.7529 7.9602 15.6114 7.9131 15.4227 7.9131ZM18.0638 5.22831C17.9224 5.18121 17.7337 5.03991 17.6865 4.94571V5.03991V5.08701L17.6394 5.32252C17.6865 5.32252 17.8752 5.27542 18.0638 5.22831ZM17.9695 4.8515H17.9224L17.7337 4.8986L18.111 5.18121L17.9695 4.8515ZM18.2997 4.99281H18.394H18.4411C18.5355 4.99281 18.8184 5.08701 18.8184 5.36962L18.7241 5.60513C18.7241 5.60513 18.3468 5.69933 18.394 5.88773V5.98194C18.4883 6.26455 18.8184 6.45295 18.8184 6.68846V6.73556C18.8184 6.87686 18.7241 7.01817 18.677 7.11237V7.06527C18.677 7.06527 18.7241 6.97107 18.7713 6.82976L18.8184 6.68846L18.7713 6.45295C18.7241 6.35875 18.5826 6.21744 18.5355 6.02904V5.93484C18.5355 5.74643 18.7713 5.65223 18.7713 5.65223L18.8184 5.69933C18.8184 5.69933 18.6298 5.84063 18.6298 5.93484V5.98194C18.6298 6.12324 18.7713 6.26455 18.8184 6.40585L18.9128 6.64136L18.8656 6.82976L18.8184 6.97107L18.8656 6.92397C18.9128 6.87686 18.9128 6.82976 18.9128 6.68846C18.9128 6.54715 18.7713 6.12324 18.7241 6.02904V5.98194C18.7241 5.84063 18.9128 5.69933 18.9128 5.65223L18.9599 5.69933L18.8656 5.79353L18.7713 5.93484C18.8184 6.02904 18.9599 6.45295 18.9599 6.59426L18.9128 6.92397L18.7241 7.11237C18.8656 7.11237 19.0071 7.01817 19.0071 6.82976V6.73556C18.9128 6.21744 18.8656 6.21744 18.8656 6.07614C18.8656 5.93484 19.0543 5.74643 19.0543 5.46382V5.36962C19.0543 4.99281 18.7713 4.8044 18.394 4.8044H18.1582L18.0638 4.8515L18.1582 4.99281H18.2997ZM18.6298 4.23918C18.4411 4.38049 18.0638 4.38049 17.9224 4.38049L17.9695 4.56889L17.9224 4.8515H17.9695H18.0167L18.111 4.8044C18.2525 4.6631 18.5355 4.52179 18.6298 4.23918ZM18.6298 4.09788C18.5826 4.09788 18.4883 4.05078 18.3468 4.05078H18.2997H18.2053L17.9224 4.33339L18.2053 4.28629C18.394 4.23918 18.6298 4.19208 18.6298 4.09788ZM18.5826 3.67397C18.7241 3.53266 18.8184 3.34426 18.8656 3.15585C18.677 3.43846 18.2053 3.67397 18.111 3.72107L18.2053 3.95657H18.2525H18.2997C18.3468 3.95657 18.4411 3.81527 18.5826 3.67397ZM18.2997 3.20295L18.2525 3.15585C18.2525 3.15585 18.9599 2.63773 18.9599 2.11962V2.07252C18.7713 2.44933 18.2053 2.96744 18.0167 3.10875L18.2053 3.25005V3.29715C18.2053 3.43846 18.111 3.57976 18.0638 3.62686L18.111 3.67397C18.1582 3.67397 18.2997 3.57976 18.4883 3.48556C18.6298 3.34426 18.8184 3.15585 18.8656 3.06165C18.7241 3.06165 18.4883 3.10875 18.2997 3.20295ZM18.3468 2.40223C18.111 2.68484 17.8752 2.87324 17.7809 2.96744L17.9224 3.01455C18.0167 3.01455 18.2053 2.82614 18.394 2.63773C18.5826 2.44933 18.8184 2.21382 18.8656 2.02542C18.7241 2.11962 18.4883 2.30802 18.3468 2.40223ZM18.9128 0.894981L18.8656 0.56527C18.8656 1.366 17.9695 2.26092 17.9695 2.26092C17.9224 2.54353 17.828 2.73194 17.7809 2.82614C17.8752 2.73194 18.0638 2.59063 18.2053 2.35513L18.2525 2.30802C18.2997 2.30802 18.9128 1.5073 18.9128 0.894981ZM18.7713 0.56527C18.6298 0.847879 18.2525 1.6015 18.0167 1.78991C18.0167 1.93121 17.9695 2.02542 17.9695 2.16672C18.2053 1.88411 18.7713 1.17759 18.7713 0.56527ZM17.7337 3.25005C17.7809 3.25005 17.9224 3.20295 18.0638 3.20295L17.7809 3.06165L17.7337 3.25005ZM17.8752 3.53266H17.9224C17.9695 3.48556 18.0638 3.34426 18.111 3.25005L17.7809 3.29715L17.6865 3.34426L17.8752 3.53266ZM17.7337 3.90947C17.828 3.90947 17.9695 3.90947 18.111 3.95657L18.0638 3.81527L17.9224 3.62686L17.7337 3.90947ZM17.8752 4.7573V4.56889L17.828 4.38049L17.7809 4.33339L17.828 4.28629L18.111 4.05078H18.0638L17.7337 4.00368C17.7809 4.09788 17.7809 4.23918 17.7809 4.28629L17.4979 4.52179L17.8752 4.7573ZM17.2149 4.94571V4.99281V5.03991C17.2621 5.08701 17.4036 5.27542 17.545 5.32252L17.5922 5.08701V5.03991V4.8515L17.545 4.8986H17.4979H17.3564H17.2149V4.94571ZM17.0263 5.84063L17.1206 5.55802V5.46382H17.1677C17.1677 5.46382 17.3564 5.46382 17.545 5.36962C17.4036 5.32252 17.2621 5.22831 17.2149 5.13411L17.1677 5.32252C17.1677 5.32252 17.1206 5.32252 16.9791 5.36962H16.7904C16.7904 5.51092 16.8376 5.74643 17.0263 5.84063ZM16.649 5.88773L16.8848 5.84063C16.7904 5.74643 16.6961 5.60513 16.6961 5.51092L16.649 5.65223L16.4603 5.84063L16.649 5.88773ZM17.545 6.17034L17.4979 6.02904H17.3564H17.1206C17.1677 6.21744 17.1677 6.35875 17.1677 6.40585V6.45295H17.0263H16.8848V6.54715C16.8848 6.73556 16.9319 6.78266 17.0263 6.97107C17.0734 7.20657 17.4507 7.48918 17.6865 7.67759C17.8752 7.866 17.9224 8.1015 18.0638 8.28991L18.1582 8.47831L18.2525 8.52542H18.2997C18.4883 8.52542 18.5826 8.1486 18.5826 8.1486V8.1015C18.5355 7.48918 17.7809 7.25368 17.545 6.17034ZM17.1677 5.60513C17.1677 5.74643 17.0734 5.93484 17.0734 5.93484H17.0263C16.8848 5.93484 16.7904 5.93484 16.6961 5.93484C16.7433 6.02904 16.8376 6.21744 17.1206 6.31165C17.1206 6.21744 17.1206 6.07614 17.0263 5.93484L17.0734 5.88773L17.1206 5.93484L17.3092 5.98194H17.4979C17.4036 5.84063 17.2621 5.65223 17.1677 5.60513ZM17.5922 5.41672C17.4507 5.51092 17.3092 5.51092 17.2149 5.55802L17.3564 5.74643L17.6394 5.98194C17.6394 5.79353 17.6394 5.55802 17.5922 5.41672ZM17.5922 4.8044H17.6394H17.6865H17.7809L17.545 4.56889L17.5922 4.7573V4.8044ZM16.366 6.12324C16.4131 6.17034 16.6018 6.35875 16.9791 6.35875C16.6961 6.26455 16.6018 6.02904 16.6018 5.93484H16.4603L16.366 6.12324ZM16.2717 6.12324L16.366 5.88773L16.1302 5.84063L16.2717 6.12324ZM16.1302 6.21744L16.4603 6.73556V6.54715C16.4131 6.40585 16.366 6.31165 16.3188 6.21744H16.1302ZM16.1773 6.12324L16.0358 5.84063L15.9415 5.79353L15.7529 5.69933L15.6114 5.84063H15.5642C15.6585 5.93484 15.8472 6.07614 16.1773 6.12324ZM17.9224 1.78991V1.6015C17.828 1.97831 17.5922 2.35513 17.545 2.44933V2.68484V2.92034L17.6865 2.96744C17.7337 2.87324 17.9224 2.40223 17.9224 1.78991ZM17.545 0.423966C17.6865 0.659473 17.7337 0.894981 17.7337 1.13049C17.7337 1.69571 17.4979 2.16672 17.4979 2.16672L17.545 2.30802L17.6394 2.16672L17.828 1.74281L17.8752 1.5544V1.5073V1.366C17.8752 1.13049 17.7337 0.659473 17.545 0.423966ZM17.3564 0.282662C17.4036 0.471068 17.4036 0.847879 17.4036 1.22469C17.4036 1.4602 17.4036 1.69571 17.3092 1.83701C17.3092 1.83701 17.3564 1.97831 17.4036 2.11962C17.4507 2.02542 17.6394 1.6015 17.6394 1.13049C17.6394 0.847879 17.545 0.56527 17.3564 0.282662ZM17.2621 1.93121V1.97831L17.2149 1.88411L17.1677 1.69571C17.1677 1.88411 17.1206 2.35513 17.0263 2.54353C17.0263 2.59063 17.1206 2.77904 17.1206 2.92034L17.2621 2.68484L17.3564 2.44933V2.35513C17.3564 2.16672 17.3092 2.02542 17.2621 1.93121ZM16.9791 2.63773L16.9319 2.54353L16.8848 2.40223L16.7904 2.59063C16.7433 2.68484 16.6961 2.82614 16.6018 2.87324V2.92034V3.06165V3.10875V3.20295V3.39136V3.43846L16.8848 3.20295L17.0263 3.10875L17.0734 2.96744L16.9791 2.63773ZM16.366 4.38049L16.4131 4.56889C16.7433 4.52179 16.7904 4.33339 16.7904 4.19208V4.05078C16.649 4.05078 16.5546 3.90947 16.5075 3.81527C16.4603 4.05078 16.366 4.23918 16.366 4.38049ZM16.2717 2.44933L16.3188 2.35513L16.2717 2.07252L16.2245 2.11962H16.1302H16.083L15.8 2.07252L15.6585 2.02542C15.517 2.02542 15.4699 1.97831 15.3284 1.97831L15.1869 2.16672L15.2341 2.26092L15.4227 2.16672H15.517H15.5642L15.6585 2.21382L15.8 2.26092L15.9415 2.30802H15.6585V2.35513L15.8472 2.54353V2.63773L15.5642 2.54353L15.4699 2.59063L15.3284 2.49643L15.4227 2.77904L15.517 2.87324L15.4699 3.15585V3.34426C15.4227 3.48556 15.2812 3.62686 15.0926 3.76817C14.9039 3.90947 14.621 4.14498 14.4795 4.33339C14.2908 4.52179 14.2436 4.8044 14.1493 4.8986L13.9607 5.13411H14.0078L14.338 4.94571L14.621 4.7573L14.8096 4.94571L14.8568 5.08701L14.9983 4.8986L15.0926 4.7102L15.1869 4.616L15.3284 4.8044L15.3756 4.8986L15.4227 4.94571L15.4699 4.8986L15.6114 4.7102L15.6585 4.6631L15.7057 4.7102L15.7529 4.8515L15.8472 4.8986L16.3188 4.6631C16.3188 4.616 16.2717 4.52179 16.2717 4.38049V4.33339C16.2717 4.19208 16.366 3.95658 16.4131 3.72107V3.62686L16.5075 3.53266V3.34426V3.06165C16.5075 2.63773 16.3188 2.49643 16.2717 2.44933ZM14.6681 2.16672C14.5266 2.16672 14.4795 2.26092 14.4323 2.35513L14.3851 2.59063L14.621 2.49643L14.8096 2.68484L14.9039 2.77904L15.1397 2.73194H15.2812L15.2341 2.44933L15.0926 2.16672H14.6681ZM14.6681 3.06165L14.4323 3.15585L14.5738 3.20295H14.621L14.9039 3.06165L15.0454 2.92034H14.9983L14.9039 2.87324H14.8568L14.6681 3.06165ZM15.3756 2.87324L15.3284 2.82614H15.1397L15.3756 2.87324ZM15.0926 3.10875H15.1397L15.3284 3.15585V3.06165V2.96744H15.1869H15.0926L14.9511 3.10875L14.8568 3.20295L15.0926 3.10875ZM13.2532 2.49643C13.3476 2.35513 13.4419 2.26092 13.4419 2.21382L13.3947 1.97831H13.3004V2.07252V2.11962C13.3004 2.21382 13.2061 2.26092 13.2061 2.40223V2.63773V2.73194L13.2532 2.49643ZM13.3004 1.74281V1.88411H13.3476H13.3947L13.3004 1.74281ZM13.0174 1.6015H12.9703L13.0646 1.74281H13.1589L13.0174 1.6015ZM12.4043 1.83701L12.5458 1.78991L12.6873 1.88411H12.7344L12.8759 2.07252V2.02542L12.9231 1.83701L12.9703 1.78991C12.9703 1.6486 12.8759 1.6486 12.8759 1.6486H12.9231H12.9703C13.1117 1.6486 13.1589 1.78991 13.1589 1.83701V1.88411H13.3004L13.2532 1.74281V1.69571H13.3004L13.4419 1.88411L13.489 2.16672C13.489 2.30802 13.3947 2.40223 13.3004 2.49643C13.2061 2.68484 13.2061 2.77904 13.2061 2.96744V3.01455C13.2061 3.15585 13.3004 3.39136 13.3476 3.62686L13.3947 3.81527V3.86237L13.489 4.00368C13.5834 3.76817 13.772 3.62686 13.772 3.62686L13.8663 3.57976L13.8192 3.67397V3.72107C13.8192 3.81527 13.8663 4.00368 13.8663 4.14498C13.9135 4.28628 13.9135 4.28629 14.0078 4.38049L14.1493 4.6631C14.1965 4.56889 14.2436 4.42759 14.3851 4.28629C14.5738 4.05078 14.8568 3.86237 15.0454 3.72107C15.2341 3.57976 15.3756 3.43846 15.3756 3.34426V3.20295L15.1869 3.15585H15.1397C15.0454 3.15585 14.9511 3.29715 14.7153 3.29715H14.5738L14.3851 3.20295L14.2908 3.15585V3.10875V3.06165H14.338H14.3851L14.5738 3.01455L14.7624 2.87324L14.8096 2.82614L14.7153 2.73194L14.621 2.59063L14.3851 2.73194L14.338 2.82614V2.73194V2.63773C14.338 2.49643 14.3851 2.11962 14.7153 2.11962H15.0926C15.1397 2.07252 15.1869 1.93121 15.3756 1.93121C15.5642 1.93121 15.5642 1.97831 15.7057 1.97831H15.7529L16.0358 1.88411H16.083V1.93121V2.02542H16.1302L16.2717 1.93121L16.3188 1.83701V1.97831L16.366 2.26092L16.4131 2.30802V2.35513L16.366 2.40223C16.366 2.40223 16.5075 2.54353 16.5546 2.82614L16.6961 2.59063C16.7433 2.44933 16.7904 2.35513 16.7904 2.35513V2.30802L16.8376 2.35513L16.9791 2.40223C17.0263 2.16672 17.0734 1.6015 17.0734 1.6015V1.5544H17.1677L17.3092 1.74281C17.3092 1.6015 17.3564 1.4131 17.3564 1.22469C17.3564 0.753676 17.2621 0.188459 17.2621 0.188459V0.141357H17.3092C17.6865 0.23556 17.9695 0.989184 17.9695 1.4131V1.4602L18.0167 1.5073L18.0638 1.69571C18.1582 1.6015 18.3468 1.31889 18.4883 1.03628C18.677 0.706575 18.8184 0.423966 18.8184 0.423966L18.8656 0.376865V0.423966C19.0071 0.56527 19.0543 0.706575 19.0543 0.894981C19.0543 1.4131 18.677 1.97831 18.5355 2.26092C18.7241 2.11962 19.0071 1.88411 19.0071 1.88411L19.0543 1.83701V1.88411L19.1014 2.11962C19.1014 2.49643 18.7713 2.87324 18.5826 3.10875C18.7713 3.06165 19.0071 3.01455 19.0071 3.01455H19.0543V3.06165V3.15585C19.0543 3.48556 18.677 3.86237 18.4883 4.05078C18.7241 4.05078 18.8184 4.14498 18.8184 4.14498V4.19208C18.7241 4.42759 18.5826 4.616 18.394 4.7102H18.4411H18.4883C18.8656 4.7573 19.1486 4.99281 19.1957 5.36962V5.41672C19.1957 5.74643 18.9599 5.93484 19.0071 6.02904C19.0543 6.17034 19.1014 6.17034 19.1957 6.68846V6.78266C19.1957 7.06527 18.9128 7.15947 18.7713 7.15947H18.6298H18.5355V7.11237C18.5826 7.11237 18.677 6.92397 18.7241 6.73556C18.7241 6.59426 18.394 6.35875 18.2997 6.02904V5.93484C18.2997 5.65223 18.6298 5.55802 18.677 5.55802L18.7241 5.41672C18.7241 5.18121 18.4883 5.08701 18.4411 5.08701H18.3468H18.1582L18.2053 5.27542V5.32252H18.1582H18.0167C17.9695 5.41672 17.9224 5.55802 17.9224 5.74643V5.79353C17.9224 6.73556 18.9599 7.58339 18.9599 8.1486C18.9599 8.66672 18.5355 9.04353 18.4411 9.13773L18.5826 9.46744V9.51455H18.4411L18.4883 9.75005H18.3468L18.394 9.89136V9.93846H18.2997V10.0798V10.1269H18.2053L18.2525 10.2682V10.3624H18.0167L18.1582 10.5979V10.645L18.0167 10.6921L18.111 10.8805L18.2997 11.3986C18.2997 11.4928 18.2053 11.6812 18.2053 11.8225C18.2053 12.0109 18.2525 12.1051 18.2997 12.1993L18.394 12.8587L18.3468 13.1885L18.2525 13.6595C18.2525 13.7537 18.0638 13.8008 17.9224 13.8479L17.7809 13.895C17.6394 13.895 17.4507 13.8479 17.3092 13.8479C17.1206 13.8479 16.8848 13.7537 16.7433 13.6124L16.5546 13.4711V13.424L16.8376 13.1885L16.9791 13.1414H17.0734H17.1206H17.2149C17.3564 13.1414 17.4036 13.2827 17.545 13.2827H17.5922C17.7337 13.2827 17.7337 13.0943 17.7809 12.953L17.828 12.7645C17.828 12.6703 17.7809 12.5761 17.7337 12.4348C17.6394 12.2935 17.6394 12.1522 17.6394 12.058V11.9167C17.6394 11.8225 17.6394 11.7754 17.4979 11.6341C17.4036 11.4928 17.4507 11.3986 17.4036 11.2573C17.4036 11.116 17.3564 10.9747 17.2149 10.8805C17.0734 10.7392 16.8848 10.3624 16.8376 10.2682L16.7433 9.93846L16.649 9.79715L16.5546 9.65585C16.5075 9.60875 16.4603 9.56165 16.3188 9.51455L16.1302 9.37324V9.42034V9.46744L16.1773 9.65585L16.3188 9.93846V10.0798V10.2211L16.083 10.3624L15.8 10.5979L15.6114 10.8334L15.4699 10.9276L15.2812 11.2573C15.2341 11.3515 15.1397 11.4928 14.9039 11.4928C14.6681 11.4928 14.4795 11.0689 14.3851 10.9747C14.2908 10.7863 14.2436 10.5037 14.1965 10.3624L14.2436 10.0327V9.98556H14.2908L14.4795 10.0798L14.621 10.174L14.7624 10.3624L14.8568 10.645L14.9039 10.7392L15.0454 10.5979C15.1397 10.5508 15.3756 10.2682 15.4227 10.1269C15.4699 10.0327 15.6114 9.89136 15.6114 9.79715L15.5642 9.65585C15.4227 9.46744 15.0926 9.18484 14.9511 9.09063L14.9039 8.90223L14.9511 8.80802C14.7624 8.71382 14.7624 8.47831 14.7624 8.47831C14.8096 7.9602 15.1397 7.81889 15.4227 7.86599L15.7529 7.9131L15.6585 7.77179L15.4227 7.53629L15.2341 7.44208L15.1869 7.34788V7.30078V7.15947C14.8568 7.34788 14.7153 7.81889 14.7153 7.81889L14.621 7.9131L14.5738 7.81889C14.5266 7.67759 14.4795 7.53629 14.4795 7.44208L14.2436 7.48918C14.1022 7.53629 14.055 7.53629 13.9135 7.63049C13.8192 7.67759 13.772 7.72469 13.7249 7.77179L13.8192 7.9131L13.9607 8.1015L14.055 8.33701V8.38411L13.9607 8.52542L13.9135 8.71382L13.8192 8.76092H13.6777L13.7249 8.66672L13.772 8.57252L13.6777 8.43121L13.5834 8.1015L13.4419 7.72469C13.3476 7.58339 13.3004 7.30078 13.2532 7.25368L13.1117 6.87686L13.0174 6.54715L13.0646 6.45295H13.0174H12.9703L13.1117 6.31165H13.1589L13.2061 6.26455L13.3947 6.35875H13.5362L13.6777 6.54715V6.59426V6.64136L13.7249 6.68846L13.772 6.78266L13.7249 6.82976L13.6777 7.01817L13.6305 7.25368V7.30078H13.6777L13.8663 7.25368C13.9135 7.25368 14.1022 7.11237 14.2436 7.01817L14.2908 6.92397L14.1022 6.64136L14.055 6.59426H14.1022H14.1493C14.2908 6.59426 14.4323 6.64136 14.5266 6.64136C14.4323 6.50005 14.2436 6.31165 14.055 5.98194L14.0078 5.65223L13.5834 5.36962C13.489 5.32252 13.5362 5.18121 13.489 5.03991C13.489 4.8986 13.4419 4.7102 13.3004 4.616L13.1589 4.56889C13.0174 4.56889 12.9703 4.8044 12.9703 4.8044H12.8759C12.8759 4.38049 13.0174 4.28629 13.1589 4.28629V4.09788C13.1589 4.00368 13.0646 3.86237 13.0174 3.72107L12.9231 3.48556V3.53266V3.72107L12.8288 3.95657L12.7344 4.05078L12.5458 4.14498L12.4515 4.09788L12.5458 4.05078L12.4986 3.81527L12.5929 3.53266L12.7344 2.96744C12.7344 2.82614 12.6873 2.68484 12.6873 2.63773L12.5458 2.26092L12.4986 2.02542V1.93121L12.5458 1.88411L12.4043 1.83701ZM17.5922 9.84426L17.545 9.93846L17.5922 10.0798L17.545 10.174L17.4979 9.93846L17.545 9.79715L17.5922 9.84426Z" fill="#001B3C"/>
<path d="M19.0539 6.73551C19.1482 7.25362 18.4879 7.15942 18.5823 7.11232C18.6294 7.06522 18.7238 6.87681 18.7709 6.68841C18.8181 6.5 18.4408 6.31159 18.3465 5.98188C18.2521 5.65217 18.7238 5.55797 18.7238 5.55797L18.8181 5.41667C18.8181 5.13406 18.5351 5.03986 18.4408 5.03986C18.3936 5.03986 18.2521 4.99275 18.1578 5.08696L18.205 5.27536L17.9692 5.32246C17.922 5.41667 17.922 5.60507 17.922 5.79348C17.922 6.73551 18.9596 7.58333 18.9596 8.14855C18.9596 8.71377 18.3936 9.13768 18.3936 9.13768L18.5351 9.51449H18.3936L18.4408 9.75L18.3465 9.7029L18.3936 9.8913H18.2521L18.2993 10.0797H18.1578L18.205 10.2681L17.922 10.3152L18.1106 10.5978L17.9692 10.692L18.0635 10.9275L18.2521 11.4457C18.2521 11.5399 18.1578 11.7283 18.1578 11.8696C18.1578 12.058 18.205 12.1522 18.2521 12.2464L18.3465 12.8587L18.2993 13.1884L18.2521 13.6594L17.922 13.8478C17.8277 13.8949 17.4975 13.8478 17.3089 13.8007C17.1202 13.8007 16.9316 13.7065 16.7429 13.5652C16.6014 13.471 16.6014 13.5181 16.6014 13.4239L16.8844 13.1884C16.9787 13.0942 17.1202 13.1884 17.2617 13.1884C17.4032 13.1884 17.4504 13.3297 17.639 13.2826C17.8277 13.2826 17.8277 13.0471 17.8748 12.9058C17.8748 12.8116 17.922 12.6232 17.7805 12.3877C17.639 12.1993 17.6862 12.0109 17.6862 11.9167C17.6862 11.8225 17.639 11.7754 17.5447 11.6341C17.4504 11.4457 17.4504 11.3986 17.4504 11.2572C17.4504 11.1159 17.4032 10.9746 17.2145 10.8333C17.0731 10.692 16.9316 10.3623 16.8844 10.221C16.7901 10.0797 16.7901 9.8913 16.7901 9.8913L16.5543 9.6558L16.3185 9.46739L16.1298 9.27899V9.42029L16.177 9.6558L16.3185 9.93841V10.221L16.0355 10.3152L15.7997 10.5978L15.611 10.8333L15.4224 10.8804C15.4224 10.8804 15.2809 11.1159 15.2337 11.2101C15.1865 11.3514 15.0922 11.4457 14.9036 11.4457C14.7149 11.4457 14.5263 11.0688 14.4319 10.9275C14.3376 10.7862 14.2433 10.4565 14.2433 10.3623L14.2904 10.0326L14.4319 10.1268L14.5734 10.221L14.7621 10.3623L14.8564 10.6449L14.9507 10.7862C14.9507 10.7391 14.9979 10.6449 15.0922 10.5978C15.2337 10.5507 15.4224 10.2681 15.5167 10.0797C15.5638 9.93841 15.7525 9.7971 15.611 9.6087C15.4224 9.42029 15.1394 9.13768 14.9979 8.99638C14.8564 8.85507 14.9979 8.80797 14.9979 8.80797C14.8564 8.76087 14.8092 8.43116 14.8092 8.43116C14.8564 7.58333 15.7053 7.86594 15.8468 7.91304C15.8468 7.91304 15.7997 7.86594 15.7053 7.72464C15.611 7.53623 15.1865 7.39493 15.2337 7.34783V7.11232C14.8092 7.25362 14.6206 7.81884 14.6206 7.81884C14.5263 7.63043 14.5263 7.48913 14.5263 7.39493L14.2433 7.44203C14.1018 7.48913 14.0546 7.53623 13.9131 7.58333C13.7717 7.67754 13.7717 7.72464 13.6773 7.77174L13.7245 7.96015L13.866 8.14855L13.9603 8.38406V8.52536L13.9131 8.71377H13.7245L13.7717 8.66667L13.8188 8.47826L13.6773 8.43116L13.583 8.05435C13.583 7.96014 13.4887 7.81884 13.4415 7.72464L13.3 7.25362L13.1585 6.82971L13.0642 6.5471L13.1114 6.4529H13.0642H12.9699L13.0642 6.31159H13.2057L13.3944 6.4058H13.5358L13.6302 6.5471L13.6773 6.6413V6.82971L13.6302 6.97101L13.583 7.25362L13.6773 7.34783L13.9131 7.30072C13.9603 7.25362 14.1961 7.11232 14.3376 7.01812L14.3848 6.92391L14.1018 6.5942C14.4319 6.5942 14.6206 6.73551 14.6206 6.73551L14.6678 6.68841C14.5734 6.5942 14.3848 6.3587 14.149 5.98188L14.0546 5.65217C13.9603 5.55797 13.7245 5.41667 13.6302 5.36957C13.4887 5.32246 13.6302 4.80435 13.3472 4.61594C13.0171 4.38043 12.9227 4.80435 12.9227 4.80435C12.9699 4.33333 13.1585 4.28623 13.2529 4.28623L13.1585 4.09783C13.1585 4.00362 13.0642 3.81522 13.0171 3.72101C13.0171 3.53261 12.9227 3.3913 12.9227 3.3913L12.8284 3.48551V3.67391L12.7812 3.95652L12.6869 4.00362H12.7341L12.5454 4.14493L12.4983 4.09783L12.5926 4.00362H12.6397L12.5454 3.81522L12.6397 3.53261L12.7812 2.96739L12.7341 2.59058L12.5926 2.21377L12.5454 1.97826L12.4039 1.78986C12.7341 1.74275 12.6869 1.93116 12.6869 1.93116L12.7341 1.97826L12.9699 2.21377V2.02536L13.0171 1.83696L13.0642 1.78986C13.1114 1.60145 12.9699 1.55435 12.9699 1.55435H13.0171C13.2529 1.50725 13.2057 1.74275 13.2057 1.78986L13.3 1.88406H13.3472L13.2529 1.74275H13.3C13.4415 1.74275 13.4415 1.97826 13.4415 1.97826L13.4887 2.21377C13.4887 2.30797 13.3944 2.40217 13.3 2.54348C13.2057 2.63768 13.2057 2.77899 13.1585 2.96739C13.1585 3.1558 13.2529 3.3913 13.3 3.62681L13.3472 3.81522L13.4887 4.05072C13.4887 3.76812 13.7245 3.57971 13.7245 3.57971C13.7717 3.76812 13.8188 4.00362 13.866 4.14493C13.9131 4.28623 13.9131 4.28623 14.0075 4.38043L14.1961 4.75725C14.2433 4.61594 14.2904 4.47464 14.4319 4.28623C14.6206 4.09783 14.9036 3.86232 15.0922 3.76812C15.2809 3.62681 15.4224 3.48551 15.4224 3.3442V3.1558H15.0922C14.9979 3.1558 14.9036 3.2971 14.7149 3.2971C14.5263 3.2971 14.4791 3.25 14.3848 3.2029L14.3376 3.1087L14.6206 3.01449L14.8092 2.82609H14.9036L14.6206 2.54348L14.3376 2.68478C14.3376 2.68478 14.2904 2.16667 14.6678 2.16667H15.0922C15.0922 2.16667 15.1865 1.97826 15.328 1.97826C15.4695 1.97826 15.5167 2.02536 15.6582 2.02536H15.7997H15.7525L16.0826 1.97826V2.07246H16.177L16.3185 1.97826L16.3656 2.30797L16.3185 2.40217C16.3185 2.44928 16.5543 2.63768 16.5543 3.06159C16.5543 2.92029 16.5543 2.87319 16.5543 2.87319C16.6958 2.82609 16.8372 2.30797 16.8372 2.30797L16.9787 2.54348C17.0259 2.35507 17.0731 1.60145 17.0731 1.60145C17.2145 1.64855 17.2617 1.88406 17.2617 1.88406C17.4504 1.50725 17.2617 0.188406 17.2617 0.188406C17.639 0.282609 17.922 1.17754 17.8748 1.55435L17.922 1.50725C17.922 1.69565 17.9692 1.74275 17.9692 1.74275C18.205 1.60145 18.8181 0.376812 18.8181 0.376812C19.3369 1.03623 18.3465 2.35507 18.3465 2.35507C18.4879 2.30797 18.9596 1.88406 18.9596 1.88406C19.1954 2.49638 18.2993 3.2029 18.2993 3.2029C18.5351 3.06159 18.9124 3.06159 18.9124 3.06159C18.9596 3.3913 18.3936 4.00362 18.2993 4.09783C18.5823 4.09783 18.7238 4.19203 18.7238 4.19203C18.6294 4.47464 18.3465 4.71014 18.1578 4.80435L18.4408 4.75725C18.8181 4.80435 19.1011 4.99275 19.1011 5.36957C19.1482 5.74638 18.8652 5.93478 18.9124 6.07609C18.9124 6.21739 18.9596 6.21739 19.0539 6.73551ZM10.9419 0L16.6014 18.558C18.0635 16.7681 19.1954 14.3659 19.1954 11.2101V0H10.9419ZM6.50858 8.43116L6.41425 8.47826L6.46141 8.61957L6.50858 8.66667L6.83872 7.63043L6.74439 7.72464C6.69723 7.86594 6.6029 8.00725 6.6029 8.05435L6.50858 8.43116ZM7.16886 6.4529H7.12169L7.16886 6.5471V6.5942V6.4529ZM3.77313 4.61594C3.82029 4.56884 3.86746 4.47464 3.86746 4.33333C3.86746 4.19203 3.77313 3.95652 3.72597 3.67391C3.72597 3.72101 3.58448 4.00362 3.39583 3.95652C3.34867 4.00362 3.16001 4.61594 3.77313 4.61594ZM2.64122 5.98188V6.17029C2.35825 7.25362 1.60364 7.48913 1.6508 8.19565C1.6508 8.19565 1.74513 8.57246 1.93378 8.57246C2.16959 8.57246 2.07527 8.52536 2.16959 8.33696C2.31108 8.14855 2.35825 7.91304 2.5469 7.72464C2.78271 7.53623 3.16001 7.25362 3.25434 7.01812C3.3015 6.82971 3.39583 6.73551 3.39583 6.5471V6.4058C3.3015 6.4058 3.20718 6.4529 3.06569 6.4058C3.06569 6.4058 3.06569 6.17029 3.16001 5.93478C3.11285 5.93478 2.97136 6.07609 2.64122 5.98188ZM16.8372 4.00362C16.6486 4.05072 16.5071 3.72101 16.5071 3.67391C16.4128 3.95652 16.3185 4.19203 16.3185 4.33333C16.3185 4.47464 16.3656 4.56884 16.3656 4.61594C17.0259 4.61594 16.8372 4.00362 16.8372 4.00362ZM0.943359 11.2101C0.943359 14.3188 2.07527 16.721 3.58448 18.5109L6.50858 8.71377H6.31993L6.27276 8.47826L6.2256 8.38406L6.31993 8.14855L6.46141 7.96015L6.50858 7.77174C6.46141 7.72464 6.41425 7.63043 6.27276 7.58333C6.17844 7.53623 6.08411 7.48913 5.98979 7.44203L5.70681 7.39493C5.70681 7.48913 5.65965 7.63043 5.56532 7.81884C5.56532 7.81884 5.37667 7.30072 4.99937 7.11232V7.34783C4.99937 7.39493 4.62206 7.53623 4.52774 7.77174C4.43341 7.86594 4.38625 7.91304 4.38625 7.91304C4.52774 7.86594 5.37667 7.58333 5.42383 8.43116C5.42383 8.43116 5.37667 8.71377 5.23518 8.80797C5.23518 8.80797 5.37667 8.85507 5.23518 8.99638C5.09369 9.13768 4.76355 9.42029 4.62206 9.6087C4.48057 9.7971 4.66923 9.93841 4.71639 10.1268C4.76355 10.2681 4.99937 10.5978 5.09369 10.6449L5.28234 10.8333L5.37667 10.692L5.47099 10.4094L5.65965 10.2681L5.80113 10.1739L5.94262 10.0797L5.98979 10.4094C5.98979 10.5036 5.89546 10.8333 5.80113 10.9746C5.70681 11.1159 5.47099 11.4928 5.32951 11.4928C5.14085 11.4928 5.04653 11.3986 4.99937 11.2572C4.90504 11.1159 4.76355 10.8804 4.76355 10.8804L4.62206 10.8333L4.43341 10.5978L4.15043 10.3152L3.91462 10.221V9.93841L4.05611 9.6558V9.42029V9.32609C4.05611 9.32609 3.96178 9.42029 3.82029 9.51449L3.63164 9.6558L3.39583 9.8913C3.39583 9.8913 3.39583 10.0797 3.34867 10.221C3.3015 10.3623 3.11285 10.692 2.97136 10.8333C2.78271 10.9746 2.78271 11.1159 2.73555 11.2572C2.73555 11.3986 2.73555 11.4457 2.64122 11.587C2.5469 11.7754 2.5469 11.7754 2.5469 11.9167C2.5469 12.058 2.59406 12.1993 2.45257 12.4348C2.31108 12.6232 2.31108 12.8116 2.35825 12.9058C2.35825 13.0471 2.35825 13.2826 2.5469 13.2826C2.73555 13.2826 2.78271 13.1884 2.9242 13.1884C3.06569 13.1884 3.20718 13.1413 3.3015 13.1884L3.53732 13.4239C3.58448 13.471 3.53732 13.471 3.39583 13.5652C3.3015 13.7065 3.06569 13.8007 2.87704 13.8007C2.68839 13.8007 2.35825 13.8478 2.26392 13.8007L1.98094 13.6594L1.93378 13.1884L1.83945 12.8587L1.93378 12.2464C1.93378 12.1522 2.02811 12.058 2.02811 11.8696C2.02811 11.7283 1.93378 11.4928 1.93378 11.4457L2.12243 10.9275L2.21676 10.692L2.07527 10.6449L2.26392 10.3623H1.98094L2.02811 10.1268H1.88662L1.93378 9.8913H1.83945L1.88662 9.7029H1.74513L1.79229 9.46739H1.6508L1.83945 9.09058C1.83945 9.09058 1.2735 8.71377 1.2735 8.14855C1.2735 7.58333 2.31108 6.73551 2.31108 5.79348C2.31108 5.55797 2.31108 5.41667 2.26392 5.32246L2.02811 5.27536L2.07527 5.08696C1.93378 4.99275 1.79229 5.03986 1.79229 5.03986C1.74513 5.03986 1.41499 5.13406 1.41499 5.41667L1.50931 5.55797C1.50931 5.55797 1.98094 5.65217 1.88662 5.98188C1.74513 6.31159 1.41499 6.5471 1.46215 6.73551C1.50931 6.92391 1.60364 7.11232 1.6508 7.15942C1.69797 7.15942 1.08485 7.30072 1.17917 6.78261C1.2735 6.26449 1.32066 6.26449 1.32066 6.12319C1.36783 5.98188 1.08485 5.79348 1.13201 5.41667C1.13201 4.94565 1.41499 4.75725 1.79229 4.71014L2.07527 4.75725C1.88662 4.66304 1.55648 4.47464 1.46215 4.09783C1.46215 4.09783 1.60364 4.00362 1.88662 4.00362C1.79229 3.95652 1.22634 3.3442 1.32066 3.01449C1.32066 3.01449 1.69797 3.06159 1.93378 3.1558C1.93378 3.1558 1.03769 2.49638 1.2735 1.88406C1.2735 1.88406 1.74513 2.30797 1.88662 2.35507C1.88662 2.35507 0.849034 1.03623 1.41499 0.423913C1.41499 0.423913 1.98094 1.64855 2.26392 1.78986C2.26392 1.78986 2.31108 1.74275 2.31108 1.55435L2.35825 1.60145C2.26392 1.17754 2.59406 0.282609 2.9242 0.188406C2.9242 0.188406 2.73555 1.50725 2.9242 1.88406C2.9242 1.88406 2.97136 1.64855 3.11285 1.64855C3.11285 1.64855 3.16001 2.35507 3.25434 2.54348L3.39583 2.35507C3.39583 2.35507 3.53732 2.87319 3.67881 2.87319C3.67881 2.87319 3.67881 2.96739 3.67881 3.06159C3.67881 2.63768 3.91462 2.44928 3.91462 2.40217L3.82029 2.30797L3.86746 1.97826L4.00895 2.07246H4.10327V1.97826L4.43341 2.02536H4.33909H4.48057C4.62206 2.02536 4.66923 1.97826 4.81071 1.97826C4.9522 1.97826 5.04653 2.16667 5.04653 2.16667H5.47099C5.8483 2.16667 5.80113 2.68478 5.80113 2.68478L5.61248 2.54348L5.32951 2.82609L5.37667 2.87319L5.56532 3.06159L5.8483 3.1087L5.80113 3.1558C5.75397 3.2029 5.65965 3.25 5.51816 3.25C5.32951 3.25 5.23518 3.1558 5.09369 3.1558H4.81071V3.3442C4.81071 3.43841 4.9522 3.62681 5.14085 3.76812C5.32951 3.90942 5.61248 4.09783 5.80113 4.28623C5.89546 4.42754 5.98979 4.61594 6.03695 4.75725L6.2256 4.42754C6.27276 4.33333 6.31993 4.33333 6.36709 4.19203C6.36709 4.05072 6.46141 3.81522 6.41425 3.67391C6.41425 3.67391 6.65007 3.81522 6.65007 4.14493L6.79155 3.90942L6.83872 3.72101C6.88588 3.43841 6.98021 3.2029 6.98021 3.06159C6.98021 2.87319 6.98021 2.73188 6.88588 2.63768C6.83872 2.40217 6.69723 2.26087 6.74439 2.21377L6.79155 1.97826L6.88588 1.74275H6.93304L6.88588 1.88406H6.93304L7.07453 1.83696C7.07453 1.74275 7.02737 1.55435 7.26318 1.55435H7.31035C7.31035 1.55435 7.16886 1.60145 7.21602 1.78986L7.26318 1.83696L7.31035 2.02536V2.16667L7.54616 1.93116H7.59332C7.59332 1.93116 7.54616 1.74275 7.82914 1.83696L7.68765 1.93116L7.64049 2.21377L7.499 2.59058L7.40467 2.96739L7.54616 3.53261L7.64049 3.81522L7.59332 4.00362H7.64049L7.73481 4.09783L7.64049 4.14493L7.499 4.00362H7.54616L7.40467 3.95652L7.35751 3.67391V3.48551L7.31035 3.3913C7.31035 3.3913 7.21602 3.53261 7.16886 3.67391C7.12169 3.81522 7.02737 4.00362 7.02737 4.09783L6.98021 4.28623C7.07453 4.28623 7.26318 4.28623 7.31035 4.80435C7.31035 4.80435 7.21602 4.42754 6.93304 4.61594C6.55574 4.85145 6.74439 5.32246 6.6029 5.36957C6.46141 5.41667 6.2256 5.55797 6.17844 5.65217L6.03695 5.98188C5.80113 6.3587 5.61248 6.5942 5.51816 6.68841V6.73551C5.51816 6.73551 5.70681 6.5942 6.03695 6.6413L5.80113 6.92391L5.8483 7.01812C5.98979 7.11232 6.2256 7.25362 6.27276 7.30072L6.50858 7.34783L6.6029 7.25362L6.55574 6.97101L6.50858 6.82971L6.55574 6.6413L6.6029 6.5471L6.69723 6.4058H6.83872L7.02737 6.31159H7.12169L7.21602 6.4058L9.10253 0.0471014H0.943359V11.2101ZM12.7341 19.5V19.5471L12.9227 19.6884L13.1114 19.9239L13.5358 20.5362L13.583 20.5833H13.5358C13.5358 20.5833 13.2529 20.6775 13.0171 20.6775H12.8284C12.6869 20.6775 12.5926 20.6304 12.4511 20.6304C12.1681 20.6304 12.0738 20.5833 11.7908 20.5833C11.5078 20.5833 11.3192 20.7246 10.989 20.7717C10.6589 20.7717 10.2816 20.5833 10.0458 20.5833C9.80998 20.5833 9.43267 20.8188 9.29119 20.8188H9.19686C9.05537 20.8188 8.91388 20.7717 8.77239 20.7246C8.63091 20.6775 8.44225 20.5362 8.30077 20.5362C8.15928 20.5362 7.8763 20.7246 7.78197 20.7717C7.68765 20.7717 7.54616 20.8188 7.35751 20.8188L7.45183 20.8659C7.82914 20.8188 7.78197 20.6304 8.2536 20.6304C8.72523 20.6304 8.77239 20.8659 9.19686 20.8659C9.62133 20.8659 9.527 20.6304 10.0458 20.6304C10.5646 20.6304 10.6117 20.8659 11.0362 20.8659C11.4607 20.8659 11.4607 20.6304 11.9323 20.6304C12.3568 20.6304 12.4039 20.8659 12.7812 20.8659C13.1585 20.8659 13.2057 20.6304 13.7245 20.6304C14.1961 20.6304 13.9603 20.7717 14.3376 20.7717C15.0922 20.1594 15.894 19.4058 16.6014 18.558H12.5454L12.7341 19.5ZM9.99863 22.4674C10.5174 22.4674 10.5646 22.7029 10.989 22.7029L10.1401 23.0797L9.29119 22.75C9.527 22.7029 9.57416 22.4674 9.99863 22.4674ZM10.1873 23.0797C10.1873 23.0797 10.8947 22.8442 11.8851 22.3261C11.4607 22.3261 11.4607 22.5616 11.0362 22.5616C10.6117 22.5616 10.5646 22.3261 10.0458 22.3261C9.527 22.3261 9.57416 22.5616 9.19686 22.5616C8.86672 22.5616 8.77239 22.4203 8.53658 22.3261L7.73481 21.9022C7.8763 21.8551 7.97063 21.7138 8.2536 21.7138C8.72523 21.7138 8.77239 21.9493 9.19686 21.9493C9.57416 21.9493 9.527 21.7138 10.0458 21.7138C10.5646 21.7138 10.6117 21.9493 11.0362 21.9493C11.4607 21.9493 11.4607 21.7138 11.9323 21.7138C12.3096 21.7138 12.3096 21.8551 12.5454 21.9022L12.7341 21.7609C12.4039 21.7609 12.3568 21.5254 11.8851 21.5254C11.4607 21.5254 11.4607 21.7609 10.989 21.7609C10.5646 21.7609 10.5174 21.5254 9.99863 21.5254C9.47984 21.5254 9.527 21.7609 9.1497 21.7609C8.77239 21.7609 8.67807 21.5254 8.20644 21.5254C7.82914 21.5254 7.78197 21.7138 7.54616 21.7609L6.55574 21.1957H6.69723C7.21602 21.1957 7.40467 21.4312 7.40467 21.4312C7.78197 21.4312 7.73481 21.1957 8.20644 21.1957C8.67807 21.1957 8.72523 21.4312 9.1497 21.4312C9.527 21.4312 9.47984 21.1957 9.99863 21.1957C10.5174 21.1957 10.5646 21.5254 10.989 21.4312C11.4135 21.337 11.4135 21.1957 11.8851 21.1957C12.3096 21.1957 12.3568 21.4312 12.7341 21.4312C13.1114 21.4312 13.1585 21.1957 13.6773 21.1957H13.7717L13.9131 21.1014C13.866 21.0072 13.8188 21.0072 13.6302 21.0072C13.1114 21.0072 13.0642 21.2428 12.6869 21.2428C12.3568 21.2428 12.3096 21.0072 11.838 21.0072C11.4135 21.0072 11.4135 21.2428 10.9419 21.2428C10.5174 21.2428 10.4703 21.0072 9.95147 21.0072C9.43267 21.0072 9.47984 21.2428 9.10253 21.2428C8.72523 21.2428 8.63091 21.0072 8.15928 21.0072C7.68765 21.0072 7.82914 21.2428 7.45183 21.2428C7.45183 21.2428 7.26318 21.0072 6.74439 21.0072C6.6029 21.0072 6.50858 21.0543 6.41425 21.0543L6.08411 20.8188C6.31993 20.7717 6.31993 20.6304 6.74439 20.6304C6.6029 20.5362 6.6029 20.3949 6.55574 20.3949C6.55574 20.3949 6.74439 20.1594 6.93304 19.971C7.12169 19.7826 7.21602 19.6884 7.26318 19.5942L7.499 19.4058L7.64049 18.4638H3.53732C6.31993 21.808 10.1873 23.0797 10.1873 23.0797ZM17.5447 5.98188C17.2145 6.02899 17.0731 5.93478 17.0731 5.93478C17.1674 6.17029 17.1674 6.4058 17.1674 6.4058C17.0259 6.4058 16.9316 6.4058 16.8372 6.4058V6.5471C16.8372 6.73551 16.8844 6.78261 16.9787 7.01812C17.0731 7.25362 17.4032 7.53623 17.639 7.72464C17.8748 7.91304 17.922 8.14855 18.0163 8.33696C18.1106 8.52536 18.0163 8.57246 18.2521 8.57246C18.4879 8.57246 18.5351 8.19565 18.5351 8.19565C18.5823 7.48913 17.8277 7.25362 17.5447 6.17029V5.98188Z" fill="#001B3C"/>
<path d="M10.0924 6.82966H10.1396V6.92386V9.18473L10.5169 8.80792L10.0453 6.35864L9.95093 6.87676L10.0924 6.82966ZM10.3754 9.32603H12.6392L10.6584 9.09053L10.3754 9.32603ZM9.76228 9.56154H7.63995C7.49846 9.56154 7.40413 9.51444 7.40413 9.42024L7.54562 9.32603L6.79102 9.42024V9.51444L9.43214 9.89125L9.76228 9.56154ZM10.1867 12.9528C10.1867 13.0941 10.1396 13.1413 10.0453 13.1413L9.95093 12.9999V9.79705L9.57362 10.1739L10.0453 14.0362H10.1396L10.6112 10.221L10.1867 9.79705V12.9528ZM12.8279 9.46734L12.6392 9.56154C12.4034 9.56154 10.7999 9.60864 10.3754 9.60864L10.6584 9.89125L13.3938 9.51444V9.42024L12.7335 9.32603L12.8279 9.46734ZM10.1867 9.51444H10.2811C10.2811 9.51444 12.3562 9.46734 12.6392 9.46734H12.7335L12.6864 9.42024H10.1867L10.9413 8.76082L10.9885 8.61951L10.7999 8.66661L10.0924 9.37314V9.27893V6.92386H9.99809V9.37314L9.38497 8.76082L9.05483 8.57241L9.19632 8.80792L9.95093 9.42024H9.80944C9.80944 9.42024 8.11158 9.42024 7.68711 9.42024H7.49846L7.4513 9.46734L7.49846 9.51444L7.63995 9.56154H9.95093L9.24348 10.1739L9.102 10.3623L9.38497 10.2681L10.0453 9.65574V13.047V13.1413L10.0924 12.9999V9.70285V9.56154L10.7055 10.221L10.9413 10.3623L10.8942 10.1739L10.1867 9.51444ZM9.71511 9.32603L9.43214 9.13763L7.63995 9.32603H7.68711C8.06441 9.32603 9.33781 9.32603 9.71511 9.32603ZM9.90376 6.92386L9.62079 8.85502L9.90376 9.18473V6.92386Z" fill="#001B3C"/>
<path d="M9.10286 15.826H8.25393L8.20677 16.0615H9.10286V15.826ZM8.01811 15.4492L8.25393 15.7318H11.9326L12.1684 15.4492H8.01811ZM9.0557 16.6267H8.11244L8.01811 16.9564H9.00853L9.0557 16.6267ZM8.11244 16.5796H8.5369V16.1557H8.20677L8.11244 16.5796ZM8.44258 17.0035H8.01811L7.97095 17.4274H8.44258V17.0035ZM11.744 17.0035V17.4274H12.2156L12.1684 17.0035H11.744ZM11.2724 17.8984H12.3571L12.2628 17.4745H11.2724V17.8984ZM12.0741 16.6267H11.1309V16.9564H12.1684L12.0741 16.6267ZM12.0741 16.5796L11.9798 16.1557H11.6025V16.5796H12.0741ZM11.0837 15.826V16.0615H11.9798L11.9326 15.826H11.0837ZM8.91421 17.4745H7.92379L7.87662 17.8984H8.91421V17.4745ZM11.744 20.3948H11.9798L11.9326 20.3006H11.8855L11.8383 20.1593L11.7911 20.0651H11.744L11.5553 19.9238H11.3667H11.2724L11.4138 20.018H11.461V20.0651L11.5553 20.1122H11.6025V20.1593L11.744 20.3948ZM9.66881 20.3006H9.433V20.3477L9.29151 20.5832V20.6774H9.24435H9.15002H9.0557L8.91421 20.6303H8.77272L8.63123 20.5361L8.5369 20.4419V20.3948L8.44258 20.3006V20.2535L8.34825 20.1593L8.1596 20.3477H8.06528L7.97095 20.3948L7.68797 20.6303H7.49932C7.35783 20.5361 7.26351 20.4419 7.21634 20.3006C7.12202 20.3948 6.98053 20.5361 6.79188 20.5832L6.83904 20.6303C7.02769 20.6774 7.07486 20.6774 7.31067 20.6774H7.35783C7.49932 20.6774 7.68797 20.6303 7.73514 20.6303C7.82946 20.5832 8.11244 20.3948 8.30109 20.3948C8.48974 20.3948 8.67839 20.5361 8.81988 20.5832C8.96137 20.6303 9.10286 20.6774 9.19719 20.6774C9.29151 20.6774 9.66881 20.4419 9.90463 20.4419L9.66881 20.3006ZM12.9231 20.3948H12.8759H12.6872C12.6401 20.4419 12.6401 20.5832 12.4986 20.5832H12.4514H12.4043L12.3571 20.489V20.3948L12.3099 20.489H12.1213L12.0741 20.4419H11.744L11.5082 20.2535L11.4138 20.2064C11.4138 20.3477 11.4138 20.4419 11.3667 20.5832V20.6303H11.2724C11.0365 20.6303 10.9422 20.3948 10.8479 20.2064H10.7064H10.6592L10.3291 20.489H10.1876C10.4234 20.5361 10.7536 20.6774 10.9894 20.6774C11.2724 20.6774 11.461 20.489 11.7911 20.489C12.0741 20.489 12.2156 20.5361 12.4514 20.5832C12.5929 20.6303 12.7344 20.6303 12.8287 20.6303H13.0174H13.0645L12.9231 20.3948ZM10.5649 20.1122L10.6592 20.0651H10.7536H10.8479V20.1122C10.9894 20.2535 11.1309 20.489 11.2724 20.489C11.3195 20.3477 11.3195 20.2064 11.3195 20.0651L11.178 19.9709H11.1309V19.9238H10.9894C10.8007 19.9238 10.6592 19.9238 10.4706 19.9238H10.2819L10.0461 19.8767L10.0933 19.9238L9.85746 20.1593V20.2064L9.8103 20.2535L9.71598 20.2064L9.8103 20.1122L9.99895 19.8767C9.85746 19.8767 9.66881 19.8767 9.52732 19.8296L9.433 20.018L9.33867 20.2064V20.2535H9.71598C9.8103 20.3948 9.95179 20.3948 10.0933 20.3948H10.2348C10.3763 20.3006 10.4706 20.2064 10.5649 20.1122ZM12.4986 20.0651L12.4514 19.9709L12.4043 19.8767H11.9798H11.6497L11.744 19.9709H11.7911H11.8383L11.8855 20.0651L11.9326 20.1593L12.027 20.2535V20.3006H12.1213V20.3477H12.2628L12.4043 20.2535L12.4986 20.2064V20.1122V20.0651ZM7.54649 19.6412L7.59365 19.6883C7.73514 19.7354 7.82946 19.7825 7.92379 19.7825L8.01811 19.8296H8.11244C8.25393 19.8296 8.39542 19.8767 8.5369 19.9238H8.67839C8.77272 19.9238 8.91421 19.9238 9.00853 19.8767L9.10286 19.8296H9.15002H9.19719C9.52733 19.8767 9.85747 19.8767 10.1876 19.9238H10.3763C10.5649 19.9238 10.7064 19.9238 10.895 19.9238H10.9894H11.0365L11.2252 19.8767H11.461V19.8296H11.5553L11.8855 19.7825H12.6872L12.7816 19.6883L12.6872 19.5941L12.6401 19.547H11.1309H7.54649L7.405 19.5941H7.54649V19.6412ZM8.86704 18.3695H7.7823L7.73514 18.7934H8.86704V18.3695ZM8.30109 17.9926H7.82946L7.7823 18.3224H8.30109V17.9926ZM11.8383 18.3224H12.4043L12.3571 17.9926H11.8855V18.3224H11.8383ZM9.433 18.8405H7.68797L7.59365 19.4528H9.433V18.8405ZM12.4514 20.4419L12.6401 20.3006L12.5929 20.2535V20.3006H12.5457H12.4514L12.4043 20.3477H12.4514V20.4419ZM9.19719 16.0615H10.0933V15.826H9.19719V16.0615ZM10.1404 17.5687C10.4706 17.5687 10.6592 17.71 10.8007 17.8984H11.1309V17.4745H10.1404V17.5687ZM10.5649 17.0035H9.57449V17.4274H10.5649V17.0035ZM11.6497 17.0035H10.6592V17.4274H11.6497V17.0035ZM10.1876 16.9564H11.0837V16.6267H10.1876V16.9564ZM10.6121 16.5796H11.5553V16.1557H10.6121V16.5796ZM10.1404 16.0615H10.9894V15.826H10.1404V16.0615ZM7.45216 19.9709L7.54649 19.8296H7.64081L7.54649 20.018L7.26351 20.2535L7.45216 20.5832H7.64081L7.92379 20.3006H7.97095V20.2535H8.01811L8.25393 20.0651V19.9238H8.30109V19.9709L8.39542 20.1122L8.48974 20.2535V20.3006L8.5369 20.3477V20.3948L8.63123 20.489L8.72556 20.5361H8.91421H8.96137H9.00853H9.10286L9.19719 20.3477L9.29151 20.3006V20.2064L9.433 19.9709V19.8296H9.33867L9.24435 19.8767H9.15002H9.10286C8.96137 19.9238 8.81988 19.9709 8.72556 19.9709H8.5369C8.44258 19.8767 8.30109 19.8767 8.1596 19.8767H8.06528L7.92379 19.8296C7.7823 19.8296 7.68797 19.7825 7.54649 19.7354H7.49932L7.45216 19.6883H7.35783V19.7354C7.26351 19.7825 7.16918 19.8767 6.98053 20.0651C6.88621 20.1593 6.69755 20.3948 6.65039 20.4419L6.69755 20.5361H6.74472C6.93337 20.5361 7.02769 20.3477 7.16918 20.2535L7.45216 19.9709ZM13.0645 19.9238L12.9231 19.7354L12.9702 19.8296L12.8287 19.8767H12.4986V19.9238V19.9709H12.5457V20.018L12.5929 20.1593L12.7344 20.2535V20.3006H12.8759H12.9231L12.9702 20.3477L13.0645 20.5361L13.1117 20.5832C13.2532 20.5832 13.3947 20.5361 13.4418 20.489C13.3947 20.3948 13.1117 20.018 13.0645 19.9238ZM12.2156 14.6955H11.8383V15.1195H11.461V14.6955H10.9422V15.1195H10.4706V14.6484H9.66881V15.1195H9.19719V14.6955H8.63123V15.1195H8.25393V14.6955H7.97095V15.4021H12.1684L12.2156 14.6955ZM10.9894 18.5108C10.9894 18.3695 10.8479 17.6629 10.0933 17.6629C9.33867 17.6629 9.24435 18.3695 9.24435 18.5108H9.433C9.433 18.3695 9.433 18.2281 9.52732 18.1339C9.62165 17.9926 9.76314 17.8513 10.0933 17.8513C10.7064 17.8513 10.8007 18.4166 10.8007 18.5579L10.9894 18.5108ZM11.3195 18.7934H12.4986L12.4514 18.3695H11.3195V18.7934ZM10.8007 19.4528H11.0837H12.6401L12.4986 18.8405H10.8007V19.4528ZM10.0933 17.8984C9.52733 17.8984 9.52732 18.2752 9.52732 18.5579V19.4528H10.7536V18.5579C10.7064 18.4166 10.6592 17.8984 10.0933 17.8984ZM9.433 18.605H9.15002V18.5579V18.4166H8.91421V18.7934H9.433V18.605ZM11.7911 17.9926H10.895L11.0365 18.3224H11.7911V17.9926ZM9.62165 16.5796H10.5177V16.1557H9.62165V16.5796ZM10.8007 18.7934H11.2724V18.3695H11.0365L11.0837 18.5108V18.5579L10.8007 18.605V18.7934ZM8.39542 18.3224H9.15002L9.29151 17.9926H8.34825V18.3224H8.39542ZM9.57449 16.1557H8.63123V16.5796H9.57449V16.1557ZM10.0933 16.6267H9.10286V16.9564H10.0933V16.6267ZM9.52732 17.0035H8.48974V17.4274H9.48016L9.52732 17.0035ZM9.33867 17.9926C9.48016 17.8042 9.71598 17.6158 10.0933 17.6158V17.4745H9.00853V17.8984H9.38584L9.33867 17.9926Z" fill="#001B3C"/>
</g>
<defs>
<clipPath id="clip0_2418_8022">
<rect width="128" height="26" fill="white"/>
</clipPath>
</defs>
</svg>
