<svg width="64" height="26" viewBox="0 0 64 26" fill="none" xmlns="http://www.w3.org/2000/svg">
<g clip-path="url(#clip0_2418_8064)">
<path fill-rule="evenodd" clip-rule="evenodd" d="M31.1395 8.89555V5.55908H30.1436V8.95912C30.1436 9.88733 29.8211 10.2256 29.0454 10.2256C28.1801 10.2256 27.9625 9.73983 27.9625 9.05321V5.55908H26.959V9.12188C26.959 10.1645 27.3276 11.1004 28.9737 11.1004C30.3535 11.1004 31.1395 10.3883 31.1395 8.89555Z" fill="#001B3C"/>
<path fill-rule="evenodd" clip-rule="evenodd" d="M35.2595 11.0112V6.41597H34.4403V7.84516C34.4403 8.40972 34.4531 9.22603 34.4863 9.68886C34.3225 9.34301 34.1484 8.95901 33.9462 8.60553L32.7199 6.41089H31.6191V11.0087H32.4383V9.3659C32.4383 8.81406 32.4255 8.09438 32.3999 7.69512C32.5305 7.9952 32.679 8.33597 32.8761 8.68182L34.1638 11.0036H35.2569V11.0112H35.2595Z" fill="#001B3C"/>
<path d="M36.6436 6.41602H35.7988V11.0138H36.6436V6.41602Z" fill="#001B3C"/>
<path fill-rule="evenodd" clip-rule="evenodd" d="M40.9219 6.41602H40.0566L39.1913 9.05314C39.0684 9.43969 38.9942 9.69399 38.9328 10.0068H38.92C38.8406 9.67364 38.7433 9.36594 38.6614 9.10909L37.8089 6.41602H36.8848L38.4156 11.0138H39.391L40.9219 6.41602Z" fill="#001B3C"/>
<path fill-rule="evenodd" clip-rule="evenodd" d="M43.5532 11.0113V10.256H42.0095V9.00737H43.4738V8.28769H42.0095V7.15604H43.5532V6.41602H41.1621V11.0113H43.5532Z" fill="#001B3C"/>
<path fill-rule="evenodd" clip-rule="evenodd" d="M47.1533 11.0113L46.0986 9.46516C45.986 9.30749 45.8631 9.13202 45.7402 8.96164C46.4058 8.85228 46.8615 8.36148 46.8615 7.68249C46.8615 6.74411 46.2343 6.39062 45.264 6.39062C44.7572 6.39062 44.3476 6.39825 44.002 6.41606V11.0113H44.8467V9.11167H44.88L46.1063 11.0113H47.1533ZM45.9732 7.77149C45.9732 8.19872 45.6608 8.47337 45.154 8.47337C45.0234 8.47337 44.9056 8.46574 44.8493 8.46066V7.13319C44.9338 7.11793 45.0592 7.11285 45.1796 7.11285C45.7172 7.10776 45.9732 7.32901 45.9732 7.77149Z" fill="#001B3C"/>
<path fill-rule="evenodd" clip-rule="evenodd" d="M50.0041 9.58716C50.0041 8.15034 48.1558 8.45551 48.1558 7.63156C48.1558 7.30606 48.4041 7.0721 48.893 7.0721C49.1593 7.0721 49.4332 7.12041 49.6815 7.1967L49.7276 6.42108C49.469 6.37276 49.1798 6.33716 48.934 6.33716C47.8793 6.33716 47.2598 6.90426 47.2598 7.71803C47.2598 9.23113 49.103 8.82933 49.103 9.70922C49.103 10.1314 48.7702 10.3145 48.3401 10.3145C48.0226 10.3145 47.6668 10.2382 47.421 10.1492L47.3698 10.9731C47.6412 11.0494 47.9561 11.0825 48.2684 11.0825C49.3487 11.0876 50.0041 10.4518 50.0041 9.58716Z" fill="#001B3C"/>
<path d="M51.2048 6.41602H50.3574V11.0138H51.2048V6.41602Z" fill="#001B3C"/>
<path fill-rule="evenodd" clip-rule="evenodd" d="M55.5191 8.63368C55.5191 7.01886 54.6538 6.38818 53.2893 6.38818C52.7492 6.38818 52.2141 6.40853 51.8711 6.42124V11.0063C52.2423 11.0191 52.6391 11.0394 53.0973 11.0394C54.5284 11.0394 55.5191 10.2155 55.5191 8.63368ZM54.6077 8.70235C54.6077 9.79331 54.0087 10.2841 53.1818 10.2841C53.0103 10.2841 52.8388 10.2689 52.7185 10.2485V7.15109C52.8567 7.13584 53.0359 7.13075 53.233 7.13075C54.2365 7.12821 54.6077 7.71565 54.6077 8.70235Z" fill="#001B3C"/>
<path fill-rule="evenodd" clip-rule="evenodd" d="M59.5926 11.0114L58.0233 6.41357H57.0659L55.5273 11.0114H56.3798L56.6845 10.0705H58.3459L58.6505 11.0114H59.5926ZM58.1257 9.37112H56.8995L57.2963 8.19879C57.3808 7.93431 57.4525 7.66729 57.5037 7.43079H57.5113C57.5651 7.68764 57.6291 7.91397 57.7136 8.16827L58.1257 9.37112Z" fill="#001B3C"/>
<path fill-rule="evenodd" clip-rule="evenodd" d="M63.4605 8.63368C63.4605 7.01886 62.5952 6.38818 61.2333 6.38818C60.6931 6.38818 60.1581 6.40853 59.8125 6.42124V11.0063C60.1837 11.0191 60.5805 11.0394 61.0387 11.0394C62.4698 11.0394 63.4605 10.2155 63.4605 8.63368ZM62.5491 8.70235C62.5491 9.79331 61.9501 10.2841 61.1232 10.2841C60.9543 10.2841 60.7802 10.2689 60.6624 10.2485V7.15109C60.8007 7.13584 60.9799 7.13075 61.177 7.13075C62.1779 7.12821 62.5491 7.71565 62.5491 8.70235Z" fill="#001B3C"/>
<path fill-rule="evenodd" clip-rule="evenodd" d="M37.3866 22.1498L36.0579 13.2212H34.1482L32.6813 17.8393C32.4663 18.5005 32.328 19.0041 32.2 19.6907H32.1744C32.0592 19.0549 31.9107 18.4471 31.7059 17.8114L30.2749 13.2212H28.3523L27.0391 22.1498H28.7107L29.1843 18.0352C29.2867 17.257 29.3763 16.5551 29.425 15.7591H29.4506C29.553 16.4763 29.768 17.2824 29.9959 18.0072L31.2989 22.1472H32.9322L34.2839 17.6639C34.4989 16.962 34.6371 16.3288 34.7523 15.7591H34.7779C34.8419 16.3822 34.9187 17.0408 35.0416 17.8902L35.6483 22.1472L37.3866 22.1498Z" fill="#001B3C"/>
<path fill-rule="evenodd" clip-rule="evenodd" d="M44.8669 22.1499L42.2045 14.3606H40.5814L37.9805 22.1499H39.4269L39.944 20.5554H42.7574L43.2771 22.1499H44.8669ZM42.3862 19.3704H40.3101L40.9833 17.3843C41.1267 16.9341 41.247 16.484 41.3341 16.0822H41.3469C41.4339 16.5196 41.5465 16.9011 41.6873 17.3283L42.3862 19.3704Z" fill="#001B3C"/>
<path fill-rule="evenodd" clip-rule="evenodd" d="M50.3037 14.3606H48.783L47.8435 16.451C47.6234 16.9443 47.4032 17.4428 47.247 17.8903H47.2266C47.0832 17.486 46.9194 17.0613 46.7197 16.601L45.7366 14.3631H44.1699L46.497 19.406V22.1499H47.9306V19.3933L50.3037 14.3606Z" fill="#001B3C"/>
<path fill-rule="evenodd" clip-rule="evenodd" d="M57.4256 18.147C57.4256 15.4819 56.0228 14.2358 54.0388 14.2358C52.042 14.2358 50.3984 15.782 50.3984 18.3556C50.3984 20.7664 51.512 22.2769 53.7853 22.2769C55.8052 22.2744 57.4256 20.7206 57.4256 18.147ZM55.8922 18.264C55.8922 20.1331 54.8554 20.9189 53.8852 20.9189C52.5488 20.9189 51.9319 19.8458 51.9319 18.1953C51.9319 16.4432 52.8791 15.5862 53.9056 15.5862C55.1856 15.5862 55.8922 16.5322 55.8922 18.264Z" fill="#001B3C"/>
<path fill-rule="evenodd" clip-rule="evenodd" d="M63.9547 22.1498L62.1678 19.5305C61.9809 19.266 61.771 18.9634 61.5611 18.6785C62.6875 18.4929 63.458 17.6639 63.458 16.5093C63.458 14.9149 62.3982 14.3147 60.7521 14.3147C59.8919 14.3147 59.1956 14.3274 58.6094 14.3605V22.1498H60.0455V18.9303H60.0993L62.1755 22.1472L63.9547 22.1498ZM61.9579 16.6594C61.9579 17.3867 61.4279 17.8495 60.5678 17.8495C60.3451 17.8495 60.1479 17.8368 60.0507 17.8241V15.576C60.194 15.5532 60.4039 15.543 60.6139 15.543C61.515 15.5379 61.9579 15.9066 61.9579 16.6594Z" fill="#001B3C"/>
<path d="M11.1482 17.1273L11.0996 17.0917C11.9828 15.8889 12.5716 14.7445 12.5716 13.0788C12.5716 11.4004 11.9828 10.256 11.0996 9.05318L11.1482 9.01758C12.0391 10.2306 12.6305 11.3851 12.6305 13.0788C12.6305 14.7623 12.0366 15.9143 11.1482 17.1273Z" fill="#001B3C"/>
<path d="M11.1722 17.1171L11.1543 17.0612C12.954 16.4992 14.0292 14.5792 14.0292 13.0457C14.0292 11.553 12.9309 9.59739 11.1543 9.04301L11.1722 8.98706C12.9719 9.54907 14.0855 11.5326 14.0855 13.0457C14.0855 14.5995 12.9975 16.5475 11.1722 17.1171Z" fill="#001B3C"/>
<path d="M11.143 17.1273C10.2521 15.9143 9.6582 14.7623 9.6582 13.0788C9.6582 11.3851 10.2521 10.2306 11.143 9.01758L11.1916 9.05318C10.3084 10.256 9.71964 11.4029 9.71964 13.0788C9.71964 14.7445 10.3084 15.8863 11.1916 17.0917L11.143 17.1273Z" fill="#001B3C"/>
<path d="M11.1209 17.1171C9.29564 16.5475 8.20508 14.5995 8.20508 13.0457C8.20508 11.5326 9.32124 9.54907 11.1209 8.98706L11.1388 9.04301C9.36476 9.59739 8.26652 11.553 8.26652 13.0457C8.26652 14.5792 9.34172 16.4992 11.1388 17.0612L11.1209 17.1171Z" fill="#001B3C"/>
<path d="M11.18 17.0892H11.1211V9.05322H11.18V17.0892Z" fill="#001B3C"/>
<path d="M11.1032 5.13185L10.9854 5.1293C9.58 5.07081 8.44336 3.92899 8.44336 2.56592C8.44336 1.19268 9.58512 0.0534038 10.9982 0.00254304V0L11.0955 0.00254304C12.5317 0.0559468 13.6402 1.17234 13.6402 2.56338C13.6402 3.92645 12.5061 5.06827 11.1032 5.12676V5.13185ZM11.0418 0.630673C9.964 0.65356 9.07824 1.51819 9.07824 2.56592C9.07824 3.60602 9.95888 4.4732 11.0443 4.50372C12.1246 4.4732 13.0053 3.60602 13.0053 2.56592C13.0053 1.50293 12.1426 0.651017 11.0418 0.630673Z" fill="#001B3C"/>
<path fill-rule="evenodd" clip-rule="evenodd" d="M11.4283 1.52567C11.2645 1.67062 11.221 1.97833 11.3362 2.1538C11.372 2.20721 11.6638 2.48948 11.9659 2.41828C11.7586 2.36487 11.541 2.26061 11.4821 2.02919C11.4821 2.02919 11.4718 1.7698 11.587 1.67317C11.587 1.67317 11.7611 1.52567 11.9454 1.66554C12.012 1.72657 12.076 1.82575 11.989 1.95799C11.989 1.95799 11.9326 2.03428 11.843 2.01393C11.8968 1.96053 11.9019 1.87152 11.8482 1.81812C11.7944 1.76726 11.7048 1.76726 11.651 1.81812C11.6203 1.84864 11.6024 1.89441 11.605 1.93256C11.5947 2.07242 11.733 2.25298 11.9403 2.1716C11.989 2.1538 12.0581 2.10803 12.1144 2.06734C12.2757 1.8995 12.2347 1.70114 12.0914 1.54602C11.971 1.42904 11.6715 1.29934 11.4283 1.52567Z" fill="#001B3C"/>
<path d="M11.8655 2.46411C11.5916 2.46411 11.3484 2.23524 11.3074 2.1742C11.1845 1.98348 11.2306 1.65543 11.4047 1.50284C11.4994 1.41384 11.6095 1.37061 11.7298 1.37061C11.8988 1.37061 12.0396 1.45707 12.1087 1.53082C12.2828 1.71646 12.2905 1.93262 12.1317 2.09537C12.0498 2.1564 11.9884 2.19201 11.9449 2.20726C11.909 2.22252 11.8706 2.23015 11.8348 2.23015C11.7631 2.23015 11.6965 2.19964 11.6479 2.14877C11.5941 2.09028 11.5634 2.00891 11.5685 1.9377C11.5634 1.89447 11.5865 1.83852 11.6223 1.80292C11.6863 1.73935 11.8015 1.73935 11.8655 1.80292C11.8988 1.83344 11.9141 1.87413 11.9141 1.9199C11.9141 1.94025 11.909 1.96059 11.9039 1.98093C11.9423 1.96822 11.9602 1.94533 11.9602 1.94533C12.0191 1.85378 12.0063 1.77495 11.9193 1.69611C11.8757 1.66305 11.8245 1.64525 11.7733 1.64525C11.6786 1.64525 11.6044 1.70374 11.6044 1.70374C11.5045 1.79021 11.5097 2.03179 11.5097 2.03434C11.5532 2.20472 11.7093 2.32933 11.9679 2.39291V2.45648C11.9372 2.45902 11.9039 2.46411 11.8655 2.46411ZM11.7324 1.43418C11.6274 1.43418 11.5327 1.47233 11.4508 1.54862C11.2997 1.6834 11.2588 1.9733 11.3637 2.1386C11.3817 2.16403 11.5583 2.34713 11.7759 2.39036C11.5993 2.31153 11.4917 2.19455 11.4533 2.03942C11.4533 2.02162 11.4431 1.75715 11.5685 1.65034C11.5737 1.6478 11.6607 1.57405 11.781 1.57405C11.8476 1.57405 11.9116 1.59694 11.9679 1.64017C12.0831 1.74189 12.0985 1.85887 12.0217 1.97839C12.0165 1.98348 11.9628 2.05214 11.8757 2.05214L11.7759 2.03179L11.8194 1.99111C11.8399 1.97076 11.8501 1.94279 11.8501 1.91482C11.8501 1.88938 11.8399 1.86395 11.822 1.84361C11.781 1.80546 11.7119 1.80546 11.6709 1.84361C11.6453 1.86904 11.6325 1.9021 11.6351 1.93262C11.6325 1.99365 11.6556 2.05723 11.6965 2.10046C11.7221 2.13097 11.7682 2.16149 11.8348 2.16149C11.8629 2.16149 11.8911 2.1564 11.9218 2.14369C11.9602 2.13097 12.0165 2.09791 12.0882 2.04451C12.2188 1.91227 12.2085 1.73426 12.0601 1.57405C11.9961 1.50539 11.8681 1.43418 11.7324 1.43418Z" fill="#001B3C"/>
<path fill-rule="evenodd" clip-rule="evenodd" d="M11.0358 7.15103C10.9436 7.15103 10.8412 7.06711 10.8412 7.00099C10.8387 6.93233 10.8745 6.87384 10.9283 6.85095C10.9283 6.79246 10.9283 6.77975 10.9283 6.75177C10.8591 6.84841 10.7567 6.83824 10.7081 6.78992C10.6595 6.7416 10.6595 6.66531 10.7081 6.61699C10.7465 6.58139 10.8028 6.57376 10.8489 6.59156V6.31946H10.5187V6.14145H10.2268V6.31946H9.93242V6.14145H9.6457V6.31946H9.33594V5.24121H9.6457V5.62267H9.93242V5.24121H10.2268V5.6303H10.5187V5.24121H11.0895C11.0895 5.24121 11.1279 7.15103 11.0358 7.15103Z" fill="#001B3C"/>
<path d="M11.0359 7.18419C10.9283 7.18419 10.808 7.08501 10.808 7.00109C10.8055 6.92989 10.8387 6.86377 10.8925 6.83071V6.82817C10.8285 6.8714 10.7363 6.86377 10.6851 6.81291C10.6544 6.78493 10.6365 6.74425 10.6365 6.70356C10.6365 6.66287 10.6544 6.62472 10.6851 6.59421C10.7184 6.56369 10.7671 6.54589 10.8157 6.55098V6.35008H10.4855V6.17206H10.2576V6.35008H9.89665V6.17206H9.67649V6.35008H9.30273V5.20825H9.67649V5.58716H9.89665V5.20825H10.2576V5.59479H10.4855V5.20825H11.1203V5.23877C11.1306 5.67108 11.1511 7.08247 11.064 7.17148L11.0359 7.18419ZM10.9616 6.64761V6.8714L10.9411 6.87903C10.9002 6.89683 10.8746 6.94515 10.8771 6.99855C10.8771 7.03924 10.9488 7.11044 11.0231 7.11807C11.0717 6.98583 11.0717 5.94065 11.0589 5.27183H10.552V5.66091H10.1911V5.27183H9.96321V5.65328H9.60993V5.27183H9.36673V6.2865H9.60993V6.10849H9.96321V6.2865H10.1911V6.10849H10.552V6.2865H10.8823V6.63998L10.8362 6.62218C10.8029 6.60692 10.7568 6.61455 10.7312 6.63998C10.7133 6.65778 10.7031 6.68067 10.7031 6.70356C10.7031 6.72644 10.7133 6.74933 10.7312 6.76713C10.7671 6.80019 10.8311 6.82817 10.9002 6.73407L10.9616 6.64761Z" fill="#001B3C"/>
<path fill-rule="evenodd" clip-rule="evenodd" d="M11.3432 5.24108L11.356 4.20352C11.3893 3.9187 11.6453 3.80172 11.6453 3.80172C11.6556 3.8475 11.7119 3.85767 11.7119 3.85767C11.804 3.91616 11.886 3.78392 11.8578 3.71526C11.7784 3.49656 11.6095 3.56268 11.6095 3.56268C11.4354 3.63134 11.2485 3.99245 11.2485 3.99245L11.2511 3.24989H11.3407C11.4175 3.36432 11.5762 3.33889 11.6274 3.24989H11.8194C11.845 3.24989 11.8885 3.21428 11.8885 3.17359C11.8885 3.09985 11.822 3.09222 11.822 3.09222H11.6223C11.5583 2.9905 11.4021 3.00575 11.3407 3.09222H11.2511V2.93964C11.4175 2.78705 11.3458 2.53784 11.2229 2.46409C11.2229 2.37254 11.2229 2.17418 11.2229 2.17418L11.269 2.0572L11.2716 1.58928C11.3125 1.47993 11.4559 1.33752 11.484 1.31464C11.5173 1.27903 11.5711 1.32481 11.5711 1.32481C11.5711 1.32481 11.6223 1.21037 11.63 1.19511C11.5916 1.19257 11.4968 1.14934 11.4968 1.14934C11.4149 1.16968 11.3048 1.27649 11.2664 1.38584C11.2664 1.32989 11.2664 1.0527 11.2664 1.0527C11.2664 1.0527 11.3202 1.02727 11.3381 0.986584C11.3765 0.905207 11.3176 0.760254 11.1333 0.760254C11.0668 1.10865 11.0898 5.24617 11.0898 5.24617H11.3432V5.24108Z" fill="#001B3C"/>
<path fill-rule="evenodd" clip-rule="evenodd" d="M5.57022 13.1196H0.470703L1.18494 17.7836L3.75006 21.8117L7.7795 24.5531L11.1229 25.5449L11.0947 18.521L9.3539 18.221L7.41854 17.1503L5.95934 15.0371L5.57022 13.1196Z" fill="#001B3C"/>
<path d="M11.4715 25.6871H10.7266V18.5437H11.4715V25.6871Z" fill="#001B3C"/>
<path d="M5.41201 13.4985H0.576172V12.761H5.41201V13.4985Z" fill="#001B3C"/>
<path d="M11.1028 18.6889C7.93864 18.6889 5.36328 16.1306 5.36328 12.9874C5.36328 9.84418 7.93864 7.28589 11.1028 7.28589C14.2695 7.28589 16.8449 9.84418 16.8449 12.9874C16.8449 16.1306 14.2695 18.6889 11.1028 18.6889ZM11.1028 7.69532C8.16648 7.69532 5.77544 10.0705 5.77544 12.9874C5.77544 15.9042 8.16648 18.2794 11.1028 18.2794C14.0417 18.2794 16.4302 15.9042 16.4302 12.9874C16.4327 10.0705 14.0417 7.69532 11.1028 7.69532Z" fill="#001B3C"/>
<path fill-rule="evenodd" clip-rule="evenodd" d="M13.0371 13.5519C13.032 13.5468 13.0192 13.5316 13.009 13.5341C13.0013 13.5367 13.0013 13.5418 13.0013 13.5468C13.0038 13.5545 13.009 13.5647 13.0115 13.5697L13.1856 13.9232L12.7862 13.9486C12.7786 13.9486 12.7658 13.9486 12.7581 13.9512C12.753 13.9512 12.7504 13.9588 12.753 13.9639C12.7555 13.9741 12.776 13.9766 12.7811 13.9792L13.1549 14.1165L12.8989 14.4191C12.8963 14.4217 12.8784 14.4395 12.881 14.4445C12.8861 14.4649 12.9091 14.4445 12.9168 14.442L13.2803 14.2716L13.311 14.648C13.311 14.6531 13.311 14.6658 13.3136 14.6734C13.3136 14.6785 13.3213 14.6836 13.3264 14.681C13.3366 14.6785 13.3418 14.6556 13.3418 14.6531L13.4698 14.3021L13.7642 14.5463C13.7642 14.5488 13.7821 14.5666 13.7898 14.5641C13.8051 14.559 13.7872 14.5335 13.7846 14.5285L13.6208 14.1852L14.0048 14.1546C14.0099 14.1521 14.0253 14.1521 14.033 14.1521C14.0381 14.1495 14.0406 14.1445 14.0406 14.1394C14.0381 14.1292 14.015 14.1241 14.0125 14.1216L13.6464 13.9843L13.8998 13.6969C13.905 13.6893 13.9203 13.6791 13.9178 13.6689C13.9178 13.6613 13.9101 13.6613 13.905 13.6613C13.8947 13.6638 13.887 13.6689 13.8819 13.6715L13.5286 13.8317L13.4954 13.44C13.4928 13.4324 13.4954 13.4222 13.4928 13.4146C13.4928 13.4095 13.4851 13.407 13.48 13.407C13.4723 13.4095 13.4672 13.4324 13.4672 13.435L13.3341 13.7961L13.0371 13.5519Z" fill="#001B3C"/>
<path d="M13.3243 14.7115H13.3012L13.2833 14.6835L13.2526 14.3198L12.8891 14.4851C12.8711 14.4851 12.8558 14.4724 12.8507 14.4546L12.8455 14.4368L13.1015 14.1291L12.7687 14.007C12.7508 14.002 12.7278 13.9943 12.7227 13.9714L12.7508 13.9231C12.7585 13.9206 12.7687 13.918 12.7841 13.918L13.1399 13.8951L12.9863 13.5823C12.9684 13.5315 12.9787 13.5111 13.0017 13.5061C13.0324 13.5061 13.0503 13.5188 13.0606 13.5315L13.3191 13.7451L13.4446 13.4094L13.4727 13.3789C13.4983 13.3814 13.5137 13.3891 13.5188 13.4043L13.5521 13.7858L13.9079 13.6281C13.9259 13.6281 13.9412 13.6383 13.9463 13.6561L13.9515 13.6739L13.9259 13.7095L13.698 13.9714L14.0231 14.0935C14.0411 14.0986 14.0641 14.1062 14.0692 14.1291L14.0795 14.1571L14.0103 14.18L13.6699 14.2054L13.8158 14.5106C13.8235 14.5284 13.8337 14.5462 13.826 14.5665L13.8004 14.5868C13.7774 14.5894 13.7543 14.5716 13.7467 14.5614L13.4855 14.3478L13.3729 14.6606C13.3678 14.686 13.355 14.7013 13.3371 14.7064L13.3243 14.7115ZM13.3063 14.2283L13.3371 14.5996L13.4574 14.2512L13.7339 14.48L13.5803 14.1571L13.9489 14.1266L13.6007 13.9943L13.8388 13.7197L13.506 13.8723L13.4753 13.5061L13.3499 13.8417L13.0708 13.6129L13.2347 13.946L12.8558 13.9714L13.2065 14.0986L12.9659 14.3859L13.3063 14.2283Z" fill="#001B3C"/>
<path fill-rule="evenodd" clip-rule="evenodd" d="M10.1835 10.2509C10.1784 10.2458 10.1682 10.2357 10.1605 10.2382C10.1554 10.2382 10.1528 10.2433 10.1554 10.2484C10.1579 10.256 10.1605 10.2611 10.1656 10.2687L10.3013 10.551L9.98129 10.5714C9.97617 10.5714 9.96337 10.5714 9.95825 10.5739C9.95313 10.5739 9.95312 10.579 9.95312 10.5841C9.95568 10.5917 9.97361 10.5942 9.97617 10.5968L10.2757 10.7061L10.0709 10.9503C10.0683 10.9528 10.053 10.9655 10.0555 10.9706C10.0606 10.9859 10.0786 10.9706 10.0837 10.9681L10.3755 10.8333L10.4011 11.1308C10.4037 11.1359 10.4011 11.1461 10.4037 11.1512C10.4037 11.1563 10.4114 11.1588 10.4139 11.1563C10.4216 11.1537 10.4267 11.1385 10.4267 11.1334L10.5291 10.8511L10.7646 11.0469C10.7672 11.0494 10.78 11.0622 10.7851 11.0622C10.7979 11.0571 10.7826 11.0367 10.7826 11.0316L10.652 10.757L10.9592 10.7341C10.9643 10.7341 10.9746 10.7341 10.9797 10.729C10.9848 10.7265 10.9874 10.7239 10.9874 10.7214C10.9848 10.7138 10.9669 10.7087 10.9643 10.7061L10.6725 10.5968L10.8747 10.3679C10.8798 10.3603 10.8926 10.3527 10.8901 10.3425C10.8901 10.3374 10.885 10.3374 10.8798 10.3374C10.8722 10.3399 10.8645 10.3425 10.8594 10.345L10.5752 10.4747L10.5496 10.1619C10.547 10.1543 10.5496 10.1467 10.547 10.1416C10.547 10.1365 10.5394 10.134 10.5368 10.1365C10.5291 10.139 10.5266 10.1568 10.5266 10.1568L10.419 10.4467L10.1835 10.2509Z" fill="#001B3C"/>
<path d="M10.4146 11.1817H10.3916L10.3762 11.1563L10.3506 10.874L10.0434 11.0011L10.0255 10.9554L10.2277 10.7163L9.92565 10.5892L9.91797 10.5612L9.95125 10.5434L10.2559 10.5231L10.1304 10.2281L10.1765 10.2103L10.4069 10.3984L10.5298 10.1111H10.5528L10.5759 10.1365L10.6015 10.434L10.9036 10.312L10.9215 10.3552L10.8984 10.3857L10.7218 10.5866L10.988 10.6884L11.0162 10.7163L10.988 10.7596L10.6962 10.785L10.8165 11.0724L10.7704 11.0927L10.5426 10.9045L10.4479 11.1614L10.4146 11.1817ZM10.4044 10.7824L10.4274 11.0647L10.517 10.7977L10.7244 10.9681L10.6092 10.729L10.8856 10.7062L10.622 10.607L10.8012 10.401L10.5503 10.5154L10.5272 10.2408L10.4325 10.4925L10.2252 10.3196L10.348 10.5714L10.0639 10.5892L10.3276 10.6858L10.1432 10.9045L10.4044 10.7824Z" fill="#001B3C"/>
<path fill-rule="evenodd" clip-rule="evenodd" d="M8.71282 14.4546C8.7077 14.4496 8.69746 14.4394 8.68978 14.4394C8.68466 14.4419 8.6821 14.4445 8.6821 14.4496C8.68466 14.4572 8.68722 14.4623 8.69234 14.4699L8.83058 14.7522L8.51058 14.7725C8.50546 14.7725 8.49266 14.7725 8.48754 14.7725C8.48498 14.7751 8.48242 14.7802 8.48242 14.7827C8.48242 14.7903 8.50034 14.7929 8.50546 14.7954L8.80498 14.9048L8.60018 15.1489C8.59762 15.1489 8.58482 15.1642 8.58482 15.1692C8.58994 15.1845 8.60786 15.1692 8.61298 15.1667L8.90482 15.0319L8.93042 15.3295C8.93042 15.3345 8.93042 15.3447 8.93298 15.3498C8.93298 15.3549 8.9381 15.3574 8.94322 15.3574C8.9509 15.3549 8.95602 15.3371 8.95602 15.3345L9.05842 15.0523L9.29394 15.2481C9.2965 15.2506 9.3093 15.2659 9.31442 15.2633C9.32722 15.2582 9.31442 15.2379 9.31186 15.2328L9.1813 14.9582L9.4885 14.9327C9.49362 14.9327 9.50642 14.9302 9.50898 14.9302C9.5141 14.9277 9.51666 14.9251 9.51666 14.9226C9.51666 14.9124 9.49618 14.9099 9.49362 14.9073L9.20178 14.798L9.40402 14.5665C9.40914 14.5615 9.42194 14.5538 9.41938 14.5437C9.41682 14.5386 9.41426 14.5386 9.40914 14.5386C9.40146 14.5411 9.39378 14.5437 9.38866 14.5462L9.1045 14.6759L9.0789 14.3631C9.07634 14.3555 9.07634 14.3478 9.07634 14.3428C9.07634 14.3377 9.07122 14.3351 9.06866 14.3377C9.06098 14.3402 9.05842 14.358 9.05586 14.358L8.94834 14.6454L8.71282 14.4546Z" fill="#001B3C"/>
<path d="M8.94013 15.388H8.91709L8.90173 15.36L8.87869 15.0778L8.57149 15.2074L8.55101 15.1617L8.75325 14.9226L8.47677 14.8209L8.45117 14.7929L8.47677 14.7497L8.78141 14.7294L8.65341 14.4572L8.69181 14.4166L8.73021 14.4394L8.92989 14.6047L9.05533 14.3174H9.07837L9.10141 14.3428L9.12701 14.6403L9.42909 14.5183L9.44701 14.5615L9.42397 14.592L9.24733 14.7929L9.51357 14.8947L9.54941 14.9506L9.51613 14.9684L9.22429 14.9913L9.34461 15.2787L9.29853 15.299L9.07069 15.1108L8.97597 15.3677L8.94013 15.388ZM8.93245 14.9887L8.95549 15.2685L9.04253 15.004L9.24989 15.1744L9.13469 14.9328L9.41117 14.9099L9.14749 14.8107L9.32925 14.6047L9.07837 14.7217L9.05533 14.4445L8.96061 14.6988L8.75325 14.5259L8.87613 14.7777L8.59197 14.7955L8.85565 14.8921L8.67133 15.1108L8.93245 14.9887Z" fill="#001B3C"/>
<path fill-rule="evenodd" clip-rule="evenodd" d="M11.347 15.5534C11.3419 15.5483 11.3342 15.5356 11.3239 15.5381C11.3188 15.5406 11.3163 15.5432 11.3188 15.5483C11.3188 15.5559 11.3239 15.561 11.3265 15.5686L11.4647 15.8509L11.1447 15.8712C11.1396 15.8712 11.1294 15.8712 11.1243 15.8712C11.1191 15.8738 11.1191 15.8763 11.1191 15.8814C11.1217 15.889 11.1371 15.8941 11.1422 15.8941L11.4417 16.0035L11.2369 16.2451C11.2343 16.2476 11.2215 16.2603 11.2215 16.2654C11.2267 16.2807 11.2446 16.2654 11.2497 16.2629L11.539 16.1281L11.5646 16.4282C11.5671 16.4333 11.5671 16.4434 11.5671 16.4485C11.5697 16.4536 11.5723 16.4561 11.5774 16.4536C11.5851 16.4511 11.5902 16.4333 11.5902 16.4307L11.6926 16.1484L11.9281 16.3442C11.9307 16.3468 11.9435 16.3595 11.9486 16.3595C11.9614 16.3544 11.9486 16.3366 11.946 16.329L11.8129 16.0543L12.1201 16.0289C12.1252 16.0289 12.138 16.0264 12.1431 16.0238C12.1483 16.0238 12.1508 16.0187 12.1508 16.0162C12.1483 16.0086 12.1303 16.006 12.1278 16.0009L11.8359 15.8916L12.0382 15.6627C12.0433 15.6576 12.0561 15.6475 12.0535 15.6398C12.0535 15.6347 12.0484 15.6322 12.0433 15.6347C12.0356 15.6373 12.0279 15.6398 12.0228 15.6449L11.7412 15.7721L11.7131 15.4593C11.7131 15.4516 11.7131 15.444 11.7105 15.4389C11.7105 15.4338 11.7054 15.4338 11.7028 15.4338C11.6951 15.4364 11.6926 15.4542 11.69 15.4567L11.5825 15.7441L11.347 15.5534Z" fill="#001B3C"/>
<path d="M11.5781 16.4866H11.555L11.5397 16.4586L11.5166 16.1763L11.2094 16.3035L11.1915 16.2577L11.3937 16.0161L11.0917 15.889L11.084 15.861L11.1173 15.8432L11.4219 15.8229L11.2965 15.5508L11.3323 15.5101L11.3707 15.533L11.5729 15.6983L11.6958 15.4109H11.7189L11.7419 15.4363L11.7701 15.7339L12.0696 15.6118L12.0875 15.655L12.0645 15.6855L11.8878 15.8864L12.1541 15.9856L12.1899 16.0416L12.1566 16.0594L11.8648 16.0848L11.9851 16.3696L11.939 16.3925L11.7112 16.2018L11.619 16.4612L11.5781 16.4866ZM11.5704 16.0873L11.5934 16.3696L11.683 16.1051L11.8904 16.2755L11.7752 16.0339L12.0517 16.011L11.788 15.9119L11.9697 15.7059L11.7189 15.8203L11.6958 15.5457L11.6011 15.7974L11.3937 15.627L11.5166 15.8763L11.2325 15.8941L11.4961 15.9907L11.3118 16.2069L11.5704 16.0873Z" fill="#001B3C"/>
<path d="M11.1469 10.9682C10.6247 10.9682 9.0042 10.7775 8.22852 10.4062L8.25412 10.3528C9.00932 10.7139 10.6452 10.9072 11.1469 10.9072C11.6333 10.9072 13.241 10.7139 14.0116 10.3553L14.0372 10.4087C13.2461 10.7775 11.6538 10.9682 11.1469 10.9682Z" fill="#001B3C"/>
<path d="M15.0664 13.0482H7.14062V12.9897H15.0664V13.0482Z" fill="#001B3C"/>
<path d="M11.1649 12.0642C11.1572 12.0642 11.1521 12.0642 11.147 12.0642C9.73132 12.0616 8.2542 11.7743 7.47852 11.5098L7.499 11.4539C8.26956 11.7183 9.739 12.0006 11.147 12.0057C11.1547 12.0057 11.1598 12.0057 11.1649 12.0057C12.4654 12.0057 13.9374 11.7921 14.7464 11.4869L14.7668 11.5429C13.9502 11.848 12.4705 12.0642 11.1649 12.0642Z" fill="#001B3C"/>
<path d="M9.38437 16.6772L9.36133 16.6238C10.1063 16.3059 10.8999 16.2805 11.1252 16.2805C11.5757 16.2805 12.2695 16.367 12.8711 16.606L12.848 16.6594C12.2541 16.4229 11.568 16.339 11.1252 16.339C10.9024 16.3416 10.1191 16.3644 9.38437 16.6772Z" fill="#001B3C"/>
<path d="M8.2131 15.7947L8.1875 15.7438C8.93246 15.3649 10.6221 15.1589 11.1469 15.1589C11.6589 15.1589 13.264 15.3522 14.0499 15.7235L14.0243 15.7769C13.2563 15.4132 11.6384 15.2174 11.1443 15.2174C10.6272 15.22 8.95294 15.4209 8.2131 15.7947Z" fill="#001B3C"/>
<path d="M7.48728 14.6783L7.4668 14.6224C8.23992 14.3553 9.7196 14.068 11.143 14.0654C11.1506 14.0654 11.1558 14.0654 11.1609 14.0654C12.4716 14.0654 13.9538 14.279 14.7705 14.5893L14.75 14.6452C13.9385 14.3401 12.4665 14.1239 11.1634 14.1239C11.1558 14.1239 11.1506 14.1239 11.1455 14.1239C9.72728 14.1265 8.25528 14.4138 7.48728 14.6783Z" fill="#001B3C"/>
<path d="M11.1233 9.84656C10.9108 9.84656 10.1659 9.82368 9.44141 9.53886L9.46445 9.48291C10.1787 9.76519 10.916 9.78807 11.1233 9.78807C11.5483 9.78807 12.2088 9.70924 12.7899 9.488L12.8104 9.5414C12.2267 9.76773 11.556 9.84656 11.1233 9.84656Z" fill="#001B3C"/>
<path d="M11.1155 26.0001L11.0438 25.9899C10.9338 25.9721 0 24.2073 0 13.1349V2.12354H8.83456V2.95256H0.83456V13.1349C0.83456 23.1494 10.112 24.9905 11.0976 25.1584C15.703 24.2251 18.8006 21.9389 20.3034 18.3583C21.4323 15.6703 21.1968 13.2391 21.1917 13.2163L21.1891 13.173V2.95256H13.3709V2.12354H22.0262V13.1552C22.0723 13.73 22.6918 23.7037 11.1872 25.9874L11.1155 26.0001Z" fill="#001B3C"/>
<path d="M21.5878 13.4985H16.752V12.761H21.5878V13.4985Z" fill="#001B3C"/>
<path fill-rule="evenodd" clip-rule="evenodd" d="M7.02111 13.0815C7.02111 10.8462 8.84639 9.03297 11.0966 9.03297C13.3469 9.03297 15.1722 10.8462 15.1722 13.0815C15.1722 15.3168 13.3469 17.13 11.0966 17.13C8.84895 17.13 7.02111 15.3168 7.02111 13.0815ZM14.1533 16.8884L13.5798 16.6519L13.585 17.2699L13.0499 16.9545L12.9706 17.5674L12.4842 17.1809L12.3203 17.7785L11.8902 17.3284L11.6419 17.8954L11.281 17.3919L10.9558 17.9183L10.6691 17.369L10.2749 17.8471L10.0675 17.2648L9.60927 17.6818L9.48639 17.0766L8.97439 17.4275L8.93599 16.8096L8.38047 17.0868L8.42911 16.4688L7.83775 16.6646L7.97087 16.0619L7.35903 16.1764L7.57663 15.5965L6.95455 15.6245L7.25151 15.0803L6.63199 15.0218L7.00319 14.5234L6.39647 14.381L6.83423 13.9385L6.25567 13.7122L6.74975 13.3383L6.20703 13.0332L6.74975 12.7305L6.25567 12.3542L6.83423 12.1278L6.39647 11.6879L7.00063 11.5429L6.63199 11.0445L7.25151 10.986L6.95455 10.4444L7.57663 10.4698L7.35903 9.89251L7.97087 10.0069L7.83775 9.40171L8.42911 9.60006L8.38047 8.98211L8.93599 9.2593L8.96671 8.64642L9.47871 8.99736L9.60159 8.38958L10.0598 8.80918L10.2672 8.22682L10.6614 8.70237L10.9482 8.15308L11.2733 8.68203L11.6342 8.17596L11.8826 8.74306L12.3126 8.29294L12.4765 8.89056L12.9629 8.50656L13.0422 9.11943L13.5773 8.80664L13.5722 9.42459L14.1456 9.18809L14.0534 9.80096L14.655 9.64584L14.4784 10.2384L15.103 10.1646L14.8445 10.7266L15.4665 10.7444L15.1312 11.2658L15.7456 11.3675L15.3411 11.8379L15.935 12.0236L15.4691 12.433L16.0297 12.7L15.5101 13.0408L16.0297 13.3816L15.4691 13.6486L15.935 14.058L15.3411 14.2436L15.7456 14.7141L15.1312 14.8158L15.4665 15.3372L14.8445 15.3524L15.103 15.9119L14.4835 15.8407L14.6602 16.4332L14.0586 16.2806L14.1533 16.8884Z" fill="#001B3C"/>
<path d="M10.946 18.0785L10.649 17.5139L10.242 18.0048L10.0295 17.4021L9.5559 17.8344L9.4279 17.2088L8.89798 17.5699L8.85958 16.9341L8.28358 17.219L8.33478 16.5832L7.7255 16.7866L7.86374 16.1636L7.23142 16.2806L7.4567 15.683L6.81414 15.7109L7.12134 15.1515L6.48134 15.0904L6.86278 14.5767L6.23814 14.4267L6.6887 13.9715L6.08966 13.7375L6.60166 13.351L6.04102 13.0382L6.60166 12.7254L6.08966 12.3363L6.6887 12.1024L6.23814 11.6472L6.86278 11.4997L6.48134 10.986L7.12134 10.9249L6.81414 10.3629L7.4567 10.3934L7.23142 9.79329L7.86374 9.91027L7.7255 9.28722L8.33478 9.49067L8.28358 8.85491L8.85958 9.13973L8.89798 8.50397L9.4279 8.86508L9.5559 8.23949L10.0295 8.67181L10.242 8.06911L10.649 8.56246L10.946 7.99536L11.2788 8.53957L11.6525 8.02079L11.9085 8.60569L12.3514 8.14286L12.5229 8.75827L13.0247 8.35902L13.1092 8.99223L13.6621 8.66927L13.6545 9.30757L14.2484 9.06344L14.1537 9.69411L14.7757 9.5339L14.594 10.1468L15.2314 10.0756L14.9652 10.6554L15.6077 10.6732L15.2621 11.2098L15.897 11.314L15.4772 11.7997L16.0916 11.993L15.6103 12.4152L16.1889 12.6898L15.6538 13.0433L16.1889 13.3942L15.6103 13.6689L16.0916 14.091L15.4772 14.2817L15.897 14.7675L15.2621 14.8717L15.6077 15.4109L14.9652 15.4261L15.2314 16.0059L14.594 15.9347L14.7757 16.5476L14.1537 16.3874L14.2484 17.0181L13.6545 16.7739L13.6621 17.4122L13.1092 17.0893L13.0247 17.7225L12.5229 17.3258L12.3514 17.9412L11.9085 17.4783L11.6525 18.0632L11.2788 17.5419L10.946 18.0785ZM10.6797 17.2342L10.9588 17.7657L11.2737 17.2546L11.6244 17.7428L11.8625 17.1935L12.2772 17.6284L12.4359 17.0537L12.9069 17.4275L12.9837 16.8324L13.5034 17.1376L13.4983 16.5374L14.0538 16.7663L13.9642 16.1738L14.5479 16.3238L14.3764 15.7516L14.9754 15.8203L14.7271 15.2761L15.3287 15.2583L15.0061 14.7548L15.6001 14.6556L15.2084 14.2004L15.7844 14.0198L15.3313 13.6256L15.8765 13.3663L15.3748 13.0382L15.8765 12.7076L15.3313 12.4508L15.7844 12.054L15.2084 11.8735L15.6001 11.4183L15.0061 11.3191L15.3287 10.813L14.7271 10.7978L14.9754 10.2536L14.3764 10.3222L14.5479 9.74751L13.9642 9.89755L14.0538 9.30502L13.4983 9.5339L13.5034 8.93628L12.9837 9.23891L12.9069 8.64638L12.4359 9.01766L12.2746 8.44294L11.8599 8.87779L11.6218 8.3285L11.2711 8.81676L10.9562 8.30561L10.6772 8.83711L10.2957 8.37427L10.0961 8.93883L9.65062 8.53449L9.5303 9.12193L9.03366 8.7837L8.99782 9.38132L8.46022 9.1143L8.5063 9.71191L7.93542 9.52118L8.06598 10.1061L7.47206 9.99673L7.68454 10.5562L7.08294 10.5308L7.36966 11.0572L6.77062 11.1131L7.12902 11.5938L6.54278 11.7336L6.96518 12.1609L6.40454 12.3796L6.88326 12.7432L6.35846 13.0382L6.88326 13.3332L6.40454 13.6968L6.96518 13.9155L6.54278 14.3428L7.12902 14.4801L6.77062 14.9607L7.36966 15.0167L7.08294 15.5431L7.68454 15.5151L7.47206 16.0746L8.06598 15.9652L7.93542 16.5501L8.5063 16.3594L8.46022 16.957L8.99782 16.69L9.03366 17.2876L9.5303 16.9468L9.65062 17.5343L10.0961 17.1299L10.2957 17.6945L10.6797 17.2342ZM11.0996 17.2088C8.80838 17.2088 6.94726 15.3575 6.94726 13.0814C6.94726 10.8054 8.81094 8.95409 11.0996 8.95409C13.3882 8.95409 15.2545 10.8054 15.2545 13.0814C15.2545 15.3575 13.3908 17.2088 11.0996 17.2088ZM11.0996 9.10921C8.89542 9.10921 7.10086 10.8919 7.10086 13.0814C7.10086 15.271 8.89542 17.0537 11.0996 17.0537C13.3037 17.0537 15.0983 15.271 15.0983 13.0814C15.0983 10.8919 13.3037 9.10921 11.0996 9.10921Z" fill="#001B3C"/>
<path fill-rule="evenodd" clip-rule="evenodd" d="M10.645 1.52593C10.8062 1.67088 10.8498 1.97859 10.7371 2.15406C10.7013 2.20746 10.4069 2.48974 10.1074 2.41853C10.3147 2.36513 10.5323 2.26086 10.5912 2.02945C10.5912 2.02945 10.6014 1.77006 10.4862 1.67342C10.4862 1.67342 10.3122 1.52593 10.1278 1.66579C10.0587 1.72683 9.99728 1.826 10.0843 1.95824C10.0843 1.95824 10.1406 2.03453 10.2302 2.01419C10.1765 1.96079 10.1739 1.87178 10.2277 1.81838C10.2814 1.76751 10.371 1.76751 10.4248 1.81838C10.4555 1.84889 10.4734 1.89467 10.4709 1.93281C10.4811 2.07268 10.3429 2.25323 10.1381 2.17186C10.0894 2.15406 10.0203 2.10828 9.964 2.06759C9.80016 1.9023 9.84112 1.70648 9.98448 1.55136C10.0997 1.42929 10.4018 1.2996 10.645 1.52593ZM10.8677 5.2413L10.8549 4.20374C10.8216 3.91892 10.5656 3.80194 10.5656 3.80194C10.5554 3.84772 10.499 3.85789 10.499 3.85789C10.4069 3.91638 10.325 3.78414 10.3531 3.71548C10.4325 3.49678 10.6014 3.5629 10.6014 3.5629C10.7755 3.63156 10.9624 3.99267 10.9624 3.99267V3.2501H10.8728C10.796 3.36454 10.6373 3.33911 10.5861 3.2501H10.3941C10.371 3.2501 10.325 3.2145 10.325 3.17381C10.325 3.10007 10.3915 3.09244 10.3915 3.09244H10.5912C10.6578 2.99072 10.8139 3.00597 10.8728 3.09244H10.9624V2.93985C10.7986 2.78727 10.8677 2.53805 10.988 2.46431V2.16931L10.9419 2.05233V1.58442C10.901 1.47507 10.7576 1.33266 10.7294 1.30977C10.6936 1.27417 10.6424 1.31994 10.6424 1.31994L10.5835 1.19025C10.6219 1.1877 10.7166 1.14447 10.7166 1.14447C10.7986 1.16482 10.9086 1.27162 10.947 1.38097V1.04784C10.947 1.04784 10.8933 1.02241 10.8754 0.981717C10.837 0.900339 10.9394 0.752843 11.1237 0.752843C11.1928 1.10378 11.1339 5.24385 11.1339 5.24385L10.8677 5.2413ZM11.0904 4.84967C11.0904 4.84967 8.44336 4.36904 8.7608 2.56603C8.97584 1.34283 9.84368 0.259494 11.1237 0.300183C11.1237 0.541771 11.0904 4.84967 11.0904 4.84967Z" fill="#001B3C"/>
<path fill-rule="evenodd" clip-rule="evenodd" d="M11.0879 4.44772L11.2594 4.4935L11.2517 5.23861H11.5692V5.62769H11.861V5.23861H12.1554V5.62006H12.4421V5.23861H12.7519V6.31685H12.4421V6.13884H12.1554V6.31685H11.861V6.13884H11.5692V6.31685H11.2389V6.58896C11.285 6.57116 11.3439 6.57879 11.3797 6.61439C11.4284 6.66271 11.4284 6.739 11.3797 6.78732C11.3311 6.83309 11.2287 6.84581 11.1621 6.74917V6.84835C11.2133 6.87124 11.2492 6.92973 11.2466 6.99839C11.2466 7.06451 11.1852 7.10011 11.093 7.10011L11.0879 4.44772ZM13.3049 2.53027L13.0514 3.63141L11.9225 4.67151L11.0956 4.77069V7.46885L13.0258 7.77401L14.6002 8.73274L15.8188 10.1619L16.4511 11.5581L16.6713 13.122H21.6146V2.53027H13.3049Z" fill="#001B3C"/>
</g>
<defs>
<clipPath id="clip0_2418_8064">
<rect width="64" height="26" fill="white"/>
</clipPath>
</defs>
</svg>
