<svg fill="none" height="26" viewBox="0 0 96 26" width="96" xmlns="http://www.w3.org/2000/svg"><g fill="#001b3c"><path clip-rule="evenodd" d="m12.5576 2.02178c-.0888-.01957-.1747-.04172-.2528-.0666v-.03308c0-.14535-.1777-.27098-.4145-.31725v-.24473h.2763v-.29085h-.2763v-.231379h-.362v.231379h-.2829v.29085h.2698v.23805c-.2566.03975-.4409.1719-.4409.31741v.0264c-.1381.04627-.2961.07935-.454.11242-.0228.00471-.0542.00971-.0928.01578-.67327.1059-3.53381.55637-1.1377 5.81522l.11186.23805c.69094-.25125 1.42794-.39007 2.20434-.39007.7765 0 1.4805.11242 2.1649.36367l.0855-.21817c2.3915-5.25628-.469-5.7034-1.1448-5.80915-.0382-.00592-.0694-.01078-.0922-.01533-.0543-.01001-.1086-.02078-.1618-.03262zm-.8845.3168c2.8294 0 2.7439 1.37521 2.7439 1.37521-.0658.47595-1.2963.05948-1.2305-.62145l-.0855-.0132c-.1974.83295-1.4476.61478-1.3687-.19831h-.1184c.0789.81309-1.1713 1.03126-1.3687.19831l-.0855.0132c.0658.68093-1.16468 1.0974-1.23049.62145.00084 0 .00122-.00561.00194-.01608.01058-.15309.09319-1.35291 2.74195-1.35913zm1.7174 5.07754c-.2961 0-.5396-.25792-.5066-.56865l-.0659-.0132c-.1513.64785-1.1317.47595-1.0659-.1587h-.1053c.0592.63465-.9146.80655-1.0726.15202l-.0658.00668c.0593.60158-.86196.83963-1.07911.1587l-.24348-.62813.07241-.03308c1.51998-.714 3.36248-.64785 4.88248.01335-.1119.39661-.2172 1.07101-.7502 1.07101zm.3751-1.71901c-.3619-.00653-.6909-.32393-.6514-.69413l-.079-.0132c-.1842.78668-1.3686.5817-1.2897-.1851h-.1316c.0789.7668-1.1055.97178-1.2897.1851l-.079.0132c.0724.73388-1.04623 1.01153-1.30283.1851l-.07897-.63466c1.8358-.8595 3.8099-.78683 5.6457.0132l-.0082.03596c-.007.03262-.0132.06615-.0188.10014-.0039.02351-.0076.04734-.0112.07146l-.013.09194-.0005.00364c-.0565.4089-.1159.83782-.6918.82735z" fill-rule="evenodd"/><path d="m1.38841 4.96338.61854-.64133 5.40227 5.40132c-.21716.04627-.50668.19177-.73699.38353l-1.99375-1.9569-.38826.40328-.02629.03308-1.37525 1.42804-1.24367-1.20334.65802-.68093.69091.67425.38826-.40327-.69095-.67426.32901-.3438.02633-.03308-.40138-.39008-.03289.03308-.32901.3438-.69091-.6744-.38825.40327.6975.67441-.65802.68093-1.24363-1.20316 1.40157-1.46109.40139.39008.38822-.40328z"/><path clip-rule="evenodd" d="m8.84368 10.616h.48035c.31585 0 .89487.0661.81597.7206-.0166.1387-.14441.1376-.64016.1339h-.02416c-.0891-.0008-.18962-.0017-.30299-.0017h-.18423v.3505c0 .1851.1579.3239.33557.304.1306-.012.27788-.0287.39888-.0458.08015-.0114.14876-.0231.19333-.0335 1.41476-.324.55276 1.3817.32246 1.7387-.0163.0263-.0648.1076-.1129.1886-.049.0825-.0975.1649-.1109.1883 0 0 .816-.2381 1.2042-.2777l.1843.9982s.987-.4165 1.6318-1.0643l.5791.8264.4145-.9454c.0229.01.0526.017.0866.0217.0295.004.0623.0062.0967.0072.0252.0006.0511.0006.0773.0001.0208-.0004.0417-.0012.0624-.0023.1474-.0071.2824-.0267.2824-.0267-.6317-.4826-.5988-1.005-.5988-1.005.3158.1256.7041-.0463.7041-.0463-.4857-.5009-.5317-.7458-.5957-1.0877l-.0031-.0163c.0542-.0211.1023-.0407.1438-.0583.0249-.0105.0474-.0203.0674-.0291.0721-.0319.1112-.0515.1112-.0515-.3553-.1983-.454-.2908-.5198-.4627-.0263-.0595-.0395-.1256-.0526-.1918l-.0395-.1983c-.0051-.0229-.0092-.0458-.0127-.0683l-.0054-.0378-.0059-.0461-.0001-.0013-.0023-.0184c-.0592-.423-.2171-.70081-.4079-.89243-.6712-.70749-2.0596-.58186-2.869-.07283-.58557.36368-1.02644.4761-1.28964.50918h-.55933c-.07237 0-.11845.07268-.09213.13878zm2.16492-.64138h.9343c-.6251.60178-.908.40998-.9343 0z" fill-rule="evenodd"/><path d="m5.68523 14.4438c.05921.2115.27637.3371.50008.3172.62328-.0645 1.04734.164 1.40852.3587.37854.204.68798.3709 1.08534.1239 1.01336-.6346 1.59893-2.1221 1.59893-2.1221s-.44083-.0992-1.0396.4232c-.59881.5222-2.09248.2908-2.18462-.6943-.11845-1.2892-.86201-1.3619-.86201-1.3619.31585.866.09214 1.0777.09214 1.0777-.12502-.1719-.37506-.1388-.37506-.1388.18423.3107.1579 1.1041.1579 1.1041-.12502-.1786-.34213-.258-.34213-.258s.24344.4496.01312.8001c-.07893.1321-.08553.2577-.05261.3702z"/><path d="m11.5942 17.8551c-3.28352-.3767-2.95451 2.3801-2.69787 2.8891.25663.5092-.1974.9322-.1974.9322l-.07241-.0066c-.22371-.0264-.44742-.0793-.65798-.1653-1.46078-.5751-2.04643.3571-2.04643.3571s.67118-.0331 1.12521.2379c0 0-.24348.0728-.37509.4364 0 0 .68434-.2777 1.20418.0199 0 0-.18427.2247-.06581.5751 0 0 .19739-.4761 1.50683.2645.73697.4165.70407-.4364.70407-.4364.0329-.9322.2961-1.3156.4475-1.4611.1316-.1256.2566-.2512.3619-.3967 1.191-1.6263.7633-3.2461.7633-3.2461z"/><path d="m16.6214 13.9611c.4737.3966.8225.919.9607 1.5206.4126 1.8088-.8973 2.6034-1.4974 2.9675l-.005.0032c-.0297.0178-.0576.0348-.0834.0507-.1119.0727-.2698.2182-.3356.3371-.2435.4165.1908.4165.1908.4165s.3487-.0067.1316.3174c-.6777 1.0247-.9212 2.7568-.941 2.8494-.1246.6501-.3777.6653-.7255.6863-.0378.0023-.0767.0047-.1167.0079-.408.033-.3553.6942-.3553.6942-.3883-.205-.4672-.4563-.4672-.4563-.4277.0331-.7239.7603-.7239.7603-.296-.2247-.2039-.5354-.2039-.5354-.4409.0793-.9212.6809-.9212.6809.0021-.0106-.0001-.0417-.0032-.0872-.0164-.2366-.0597-.8617.3322-1.0169 1.4466-.5836 1.5474-.9543 1.7234-1.6006.0273-.1005.0564-.2076.0927-.3232.0071-.0297.0157-.0596.024-.0886.0453-.1584.0835-.2912-.1556-.2353-2.8097.6346-.6646-3.2132.2961-3.2528-.7765-.2247-1.7372 1.2098-1.7372 1.2098.1645-1.6792-1.3489-2.1751-1.3489-2.1751s-.1908.7207-1.24364.9586c-.28543.0621-.635.1255-.99959.1916l-.00182.0005c-.76111.1382-1.58735.2883-2.03202.4624-.13162.053-.23031.1059-.28296.1654-.31585.3438-.81592.7867-1.21731.0264-.35533-.6809-.48691-.8528-.51324-.8727.00657-.0595.03949-.4958-.06581-.6545 0 0 .24348.0529.37506.2447 0 0-.06581-.6876-.28292-.919 0 0 .32901.0264.4211.1916 0 0-.06581-.7404-.30924-.9453 0 0 .24343-.0528.43426.1256 0 0 .07898-.5025-.17106-.7802 0 0 .50007-.0925.7962.5025.02689.0515.04942.104.06797.1575.02682.0774.04537.1571.05705.2391l.13818.853c.00144.0132.00482.0254.00986.0363.00364.008.00816.0153.01347.022.00485.0062.01035.0117.01638.0165.01931.0155.04427.0243.07215.0243.09869 0 .25004 0 .44086-.0132.53957-.0396 1.36209-.1652 1.86877-.5685.23456-.1874.49044-.4526.75607-.728l.0008-.0009c.64315-.6668 1.34313-1.3926 1.93443-1.2148l.1776 1.0775c.4738-.1719 1.3029-.6412 1.7767-1.1305l.5922 1.0248.5461-.7206c-.1711 3.1205.6383 3.7882 1.5266 3.5171.533-.1652 1.4937-.8065 1.4542-1.785-.0329-.7339-.7962-.9387-.7962-.9387.1053-.1522.3553-.0927.3553-.0927-.0789-.4165-.737-.7337-.737-.7337.4344-.1587.737.1189.737.1189.0256-.0686-.156-.2343-.3515-.4125l-.0021-.0018c-.0567-.0518-.1144-.1046-.1686-.1563-.0467-.0446-.0908-.0885-.1292-.1302-.2632-.2909-.4343-.7339-.4211-1.1305.0131-.4759.2632-1.0115.8357-1.0578.7369-.0595 1.1251.767 1.0593 1.5007-.0657.6943.158 1.0182.158 1.0182s-.5988-.3901-.8423-.6413c-.25-.2513-.2632-.5157-.2632-.5157.1579.1059.2237.0265.2237.0265-.3027-.2711-.2237-.7603-.2237-.7603.0461.1322.2632.2379.3619.2842 0 0-.079-.6809-.5988-.4759-.329.1321-.4211.7669-.2039 1.2494.0855.1853.2895.4232.5198.6149z"/><path d="m4.46132 17.6304v-.0067c-.0066-.0065-.0066 0 0 .0067z"/><path d="m22.1816 8.42098 1.2436-1.20316-1.4081-1.46109-.4014.39008-.3882-.40328.8027-.78015-.6185-.64133-6.6459 6.43945s.2829.5553.3553.8991l3.6191-3.50407.3882.40328.0263.03307 1.3753 1.42802 1.2436-1.20316-.658-.68109-.6909.67441-.3882-.40328.6909-.6744-.329-.34366-.0264-.03307.4014-.39008.033.03307.3289.34381.691-.67441.3882.40328-.6909.67441z"/><path clip-rule="evenodd" d="m4.28366 21.2864 2.50046-2.4726 1.5792-.2843-3.77038 3.6626c.10526 0 .21716.0066.32241.0199 1.02652.152 1.74375 1.1172 1.59241 2.1552-.13162.8926-.85541 1.5471-1.70426 1.6198-.04761.0044-.09521.0065-.14304.0068-.019.0001-.03804 0-.05712-.0005-.02303-.0006-.04613-.0016-.0693-.003-.05641-.0033-.11341-.009-.17141-.0165-.55273-.0794-1.01992-.4033-1.30288-.8397l-.15791.0199c-.14474.0132-.29608.0065-.44086-.0134-.50008-.0726-.94095-.3371-1.24363-.7469-.302691-.4099-.42771-.9124-.355339-1.4148.014149-.0924.033986-.1828.059514-.2704.006486-.0223.013351-.0443.020596-.0661.017258-.0522.036603-.1032.058069-.1528-.368493-.4033-.559322-.9718-.473751-1.5536.151343-1.038 1.112011-1.752 2.145091-1.5999.96071.1455 1.64505.9916 1.61213 1.9503zm-2.05956 1.1107c.64486.0925 1.25023-.3571 1.34233-1.0049.09213-.6545-.35534-1.2561-1.00016-1.3487-.09213-.0133-.18426-.0133-.27636-.0066-.533.0462-.98703.4562-1.066 1.0115-.0921.6478.35533 1.2494 1.00019 1.3487zm.54613 2.0494c-.02348-.122-.03536-.2464-.03414-.3731.00053-.0546.00349-.1097.00899-.165.00315-.0321.00717-.0642.01202-.0965.04605-.3108.16447-.5884.32897-.8265-.08735.0352-.18028.0647-.27579.0865-.08436.0194-.17076.0329-.25717.0392-.14478.0132-.28952.0066-.44087-.0132-.18426-.0264-.36193-.0794-.5264-.1587l-.00398.0141-.01089.0399c-.00747.0289-.01399.059-.01805.0915-.03949.3107.03292.6214.22371.8792.19083.2579.46063.4231.77648.4694.03581.0065.07161.0099.10742.0116.03657.0016.07313.0016.1097.0016zm3.03346-.1851c.0921-.6478-.35533-1.2561-1.00019-1.3486-.04051-.006-.08098-.0091-.1215-.0104-.02571-.0007-.05143-.0007-.07715-.0001-.0259.0006-.05181.002-.07772.0038-.533.0463-.98703.4562-1.06596 1.0115-.09213.6479.3553 1.2561 1.00015 1.3487.64486.0925 1.25024-.357 1.34237-1.0049z" fill-rule="evenodd"/><path clip-rule="evenodd" d="m16.4371 19.9841 2.2438 2.2146c-.0326 0-.0659.0007-.0994.002-.0478.0018-.096.0049-.1436.0093-.0268.0024-.0533.0053-.0794.0086-1.0331.1521-1.7437 1.124-1.5924 2.1552.1316.886.8554 1.5405 1.7043 1.6198.0289.0026.0578.0044.0867.0055.0675.0027.1353.0014.2041-.0035l.052-.0041c.0324-.003.0651-.0067.0981-.0111.5527-.0793 1.0199-.4032 1.3028-.8396.0527.0065.1053.0199.1579.0199.1448.0132.2961.0065.4409-.0134.5001-.0727.941-.3371 1.2436-.7469.3027-.41.4278-.9125.3554-1.4083-.0217-.1414-.0567-.2784-.1051-.4071-.0104-.0277-.0215-.055-.0331-.082.3685-.41.5593-.972.4738-1.5537-.1514-1.0381-1.1121-1.7586-2.1452-1.6066-.9606.1455-1.645.9917-1.6121 1.9504l-2.1517-2.1355c-.001.0011-.0051.0134-.0122.0345-.0411.1218-.1817.5384-.3892.792zm4.264.0661c.0437-.0064.0874-.0111.1312-.0129.0483-.0021.0967-.0007.1451.0062.533.0463.987.4563 1.066 1.0116.0921.6478-.3553 1.2561-1.0002 1.3486-.6448.0926-1.2436-.357-1.3423-1.0048-.0922-.648.3553-1.2496 1.0002-1.3487zm-2.2373 2.8758c.0304-.0044.0608-.0073.0913-.009.0617-.0035.1233-.002.1851.0024.533.0463.987.4563 1.066 1.0116.0921.6478-.3554 1.2561-1.0002 1.3486-.6449.0993-1.2437-.357-1.3424-1.0048-.0921-.648.3553-1.2496 1.0002-1.3488zm2.0088.1638c.0771.017.1554.0288.235.0346.1448.0132.2895.0065.4409-.0132.1908-.0265.3685-.086.533-.1587l.006.0217.0056.0212c.0088.0343.0167.07.0213.1025.046.3174-.0329.6281-.2237.8793-.1909.2578-.4672.4232-.7765.4695-.0724.0132-.1448.0132-.2171.0132.0148-.0766.0249-.1542.0301-.2328.0016-.0232.0027-.0464.0034-.0698l.0006-.0374-.0001-.0392c-.001-.084-.0079-.1693-.0209-.2555-.0461-.3107-.1645-.5885-.3356-.8264.0972.0376.1965.0687.298.091z" fill-rule="evenodd"/><path d="m9.48194 10.9927c.01972 0 .03288.0132.03288.0331 0 .0132-.00656.0198-.01316.0264-.04605.0529-.38162.2512-.97383.0529-.11186-.0397-.21715-.0661-.31585-.0793-.02632-.0067-.05265-.0132-.07897-.0132h-.01316c-.13674-.0132-.24932-.0085-.33933.0053-.09191.0139-.16029.0373-.20684.0607-.02628.0066-.06577.033-.09869.0661-.00288.0029-.00702.0058-.0113.008-.00285.0016-.00577.0029-.00846.0038l-.00175.0005-.00284.0008-.00197.0001c-.0151 0-.02637-.0077-.0308-.0203-.00137-.0038-.00209-.0081-.00209-.0126 0-.0043 0-.0085.00163-.0126l.00186-.0037.00307-.0036s.48035-.5553 1.07257-.3306c.09873.0398.18426.0727.25663.0992.00657 0 .01317.0066.01973.0066.01316.0065.02632.0115.03948.0165.01317.005.02633.01.03949.0165.12502.0463.23688.0727.32245.0861.17107.0197.30268-.0067.30268-.0067z"/><path d="m34.8461 22.8648c-.0037-.0646-.0044-.1464-.0044-.2561h-.0066v-1.6131h-.7698v1.7189c0 .443.0592.6876.2171.8925.204.2777.6054.4496 1.0463.4496.4474 0 .7896-.1388 1.0396-.4232.2106-.2445.2895-.4826.2895-.9189v-1.7189h-.7698v1.6066c0 .3172-.0132.4033-.079.5222-.079.152-.2566.2446-.454.2446-.1843 0-.3422-.0794-.4277-.2247-.0533-.0847-.0736-.1455-.0812-.2795z"/><path d="m37.2829 20.9956h.7765l1.4213 1.8248v-1.8248h.7698v2.9883h-.7698l-1.4213-1.8313v1.8313h-.7765z"/><path d="m40.8757 20.9956h.7699v2.9883h-.7699z"/><path d="m43.5143 22.8137.7238-1.8181h.8357l-1.2634 2.9883h-.6054l-1.2502-2.9883h.8423z"/><path d="m46.1595 22.146v-.4959h.9147v-.6545h-1.6911v2.9883h1.6911v-.6612h-.9147v-.5157h.8686v-.661z"/><path clip-rule="evenodd" d="m50.0352 23.9839h-.9607l-.737-1.1438v1.1438h-.7698v-2.9883h1.1975c.3422 0 .5593.0793.7304.2644.1579.1719.2566.41.2566.6611 0 .4496-.2303.7406-.6514.8396zm-1.5529-1.6528c.3027 0 .4738-.1389.4738-.3703 0-.2313-.1777-.3702-.4738-.3702h-.1448v.7405z" fill-rule="evenodd"/><path d="m51.4894 21.5708c.1777 0 .3356.0594.5067.1983l.3158-.6083c-.2961-.1587-.6251-.2446-.9409-.2446-.6054 0-1.0134.41-1.0134 1.0116 0 .2578.079.4495.2237.5817.0653.054.1374.0968.2529.1427.0822.0328.1865.0673.3262.1085.3553.1058.4606.1851.4606.3438 0 .1719-.1447.2909-.3751.2909-.2303 0-.4474-.0991-.6843-.3041l-.329.6282c.3093.2181.6711.3371 1.0331.3371.7304 0 1.1581-.3901 1.1581-1.0645 0-.4297-.2106-.6742-.7304-.8263-.0723-.0218-.1272-.0381-.1696-.0506l-.0871-.0261-.0182-.0058c-.0096-.003-.0176-.0056-.0247-.0082-.0148-.0052-.0252-.0097-.036-.0152-.1316-.0595-.1974-.1388-.1974-.2314 0-.1453.1447-.2577.329-.2577z"/><path d="m53.674 20.9956h-.7699v2.9883h.7699z"/><g clip-rule="evenodd" fill-rule="evenodd"><path d="m55.4375 20.9956h-1.1384v2.9883h1.1384c.7831 0 1.4608-.6876 1.4608-1.4941 0-.8066-.6777-1.4942-1.4608-1.4942zm.6646 1.4875c0 .509-.3356.8396-.8489.8396h-.1776v-1.6726h.1776c.5133 0 .8489.3306.8489.833z"/><path d="m58.0169 23.4615-.2039.5224h-.816l1.1384-2.9883h.8422l1.1186 2.9883h-.8225l-.1908-.5224zm.5396-1.5469-.3224.952h.6448z"/><path d="m61.5767 20.9956h-1.1383v2.9883h1.1383c.7831 0 1.4608-.6876 1.4608-1.4941 0-.8066-.6777-1.4942-1.4608-1.4942zm.6646 1.4875c0 .509-.3356.8396-.8488.8396h-.1777v-1.6726h.1777c.5132 0 .8488.3306.8488.833z"/><path d="m65.9196 23.9839h-.7699v-2.9883h1.2239c.3488 0 .5528.0661.7436.2512.1908.1785.2895.4232.2895.7339 0 .6611-.3488 1.0114-1.0068 1.0114h-.4803zm.2566-1.6198c.2962 0 .4277-.1189.4277-.3834 0-.2447-.1447-.3703-.4211-.3703h-.2566v.7471h.25z"/><path d="m69.4137 24.0897c.9409 0 1.6449-.681 1.6449-1.5934 0-.9123-.704-1.5933-1.6449-1.5933-.941 0-1.6451.6876-1.6451 1.5933 0 .9058.7041 1.5934 1.6451 1.5934zm-.0066-.7538c-.4607 0-.8357-.3767-.8357-.8396 0-.4628.375-.8397.8357-.8397.4606 0 .8356.3769.8356.8397 0 .4629-.375.8396-.8356.8396z"/></g><path d="m71.4666 20.9956h.7699l1.4213 1.8248v-1.8248h.7698v2.9883h-.7698l-1.4213-1.8313v1.8313h-.7699z"/><path d="m75.4015 23.9839h.7699v-2.3338h.6449v-.6545h-2.0465v.6545h.6317z"/><path d="m77.9217 20.9956h-.7698v2.9883h.7698z"/><path d="m79.3233 22.146v-.4959h.9277v-.6545h-1.7042v2.9883h.7765v-1.1769h.8423v-.661z"/><path d="m81.5605 20.9956h-.7699v2.9883h.7699z"/><path d="m84.2387 22.0059.0066.0077h-.0066z"/><path d="m84.2387 21.088v.9179c-.1828-.2129-.398-.3163-.6646-.3163-.4606 0-.7962.3438-.7962.8264 0 .4629.3421.8.7962.8.2566 0 .4672-.0992.6712-.3107v.919c-.1391.0457-.2423.0777-.3282.0998-.0702.0181-.1288.0296-.1861.0364-.0549.0067-.1086.0091-.17.0091-.895 0-1.5925-.6809-1.5925-1.5601 0-.8727.6975-1.5735 1.5727-1.5735.0798 0 .1548.0047.2302.0156.0139.002.0279.0042.0419.0067l.0389.0072.0177.0038c.1119.0239.2295.0619.3688.1187z"/><path d="m85.5086 20.9956h-.7698v2.9883h.7698z"/><path clip-rule="evenodd" d="m86.6667 23.9839.204-.5224h1.0659l.1909.5224h.8225l-1.1187-2.9883h-.8422l-1.1384 2.9883zm.4211-1.1173.3224-.952.3224.952z" fill-rule="evenodd"/><path d="m35.2694 11.2242c-.5527-.5884-1.395-.9454-2.2504-.9454-1.9082 0-3.0071 1.5338-3.0071 3.0742 0 1.5007 1.1384 3.0016 2.994 3.0016.8554 0 1.7108-.3901 2.2635-.9456v2.0694c-.7435.3042-1.4937.5355-2.3162.5355-2.8755 0-5.0009-2.1619-5.0009-4.6213 0-2.5321 2.0465-4.76664 5.047-4.76664.7962 0 1.5858.19178 2.2767.52223v2.07601z"/><path clip-rule="evenodd" d="m41.7377 8.56648c-2.9874 0-5.0601 2.18832-5.0601 4.68082 0 2.5518 2.0727 4.7072 5.0601 4.7072s5.06-2.1554 5.06-4.7072c0-2.4925-2.0792-4.68082-5.06-4.68082zm-.0066 7.66892c-1.6911 0-2.994-1.7121-2.994-3.061 0-1.4412 1.2437-2.8956 2.994-2.8956 1.7437 0 2.994 1.4544 2.994 2.8956 0 1.3489-1.303 3.061-2.994 3.061z" fill-rule="evenodd"/><path d="m56.1745 12.3017h-.0263l-2.3228 5.6526h-.691l-2.2372-5.6526h-.0263l-.9081 5.5337h-2.0069l1.724-9.14997h1.4082l2.5202 5.87747 2.4149-5.87747h1.441l1.5266 9.14997h-2.0004z"/><path d="m61.0108 8.68543h1.9938v9.14997h-1.9938z"/><path d="m67.3343 16.3215h2.8163v1.5139h-4.8101v-9.14997h1.9938z"/><path d="m76.5005 16.3215h-2.8229v-7.63607h-1.9938v9.14997h4.8167z"/><path clip-rule="evenodd" d="m80.7512 15.9578-.8422 1.8776h-2.0991l3.9876-9.14997h1.5463l3.8757 9.14997h-2.1254l-.7896-1.8776zm1.724-4.6609h-.0263l-1.1252 3.2394h2.428z" fill-rule="evenodd"/><path d="m92.1479 10.0341c.691 0 1.2042.2843 1.599.7339l.9673-1.20333c-.6515-.60158-1.9674-.99166-2.915-.99166-1.7963 0-3.1124 1.19663-3.1124 2.67089 0 1.3818 1.0068 1.9569 2.382 2.4329l.159.0511c.8006.2557 1.6966.5421 1.6966 1.4035 0 .6876-.5264 1.2892-1.3753 1.2892-.8948 0-1.6449-.615-1.9279-1.3024l-1.3424 1.0974c.737 1.0314 1.8096 1.7387 3.2835 1.7387 2.1846 0 3.5138-1.2628 3.5138-3.0478 0-1.7534-1.4505-2.2649-2.6529-2.689-.8512-.3002-1.5781-.5565-1.5781-1.1785 0-.5818.6383-1.0049 1.3028-1.0049z"/></g></svg>