<svg width="61" height="26" viewBox="0 0 61 26" fill="none" xmlns="http://www.w3.org/2000/svg">
<g clip-path="url(#clip0_2418_7785)">
<path d="M4.51868 7.25429L5.0003 5.43025L3.53516 4.23678L5.42412 4.12967L6.11056 2.37231L6.79699 4.12967L8.68697 4.23678L7.22183 5.43025L7.70345 7.25429L6.11106 6.23414L4.51969 7.25429H4.51868ZM6.11005 6.09266L7.50827 6.98801L7.08495 5.38629L8.37164 4.33784L6.71233 4.24436L6.10954 2.70024L5.50726 4.24436L3.84846 4.33784L5.13515 5.38629L4.71234 6.98801L6.11005 6.09266Z" fill="#001B3C"/>
<path d="M5.68801 3.62173L4.97217 1.42529L4.89258 1.45056L5.63985 3.74451L5.68801 3.62173Z" fill="#001B3C"/>
<path d="M5.63955 3.80413H5.63803C5.61268 3.80362 5.59037 3.78746 5.58226 3.7627L4.83499 1.46925C4.82485 1.43792 4.84158 1.40407 4.87301 1.39447L4.95311 1.3687C4.96781 1.36365 4.98454 1.36516 4.99874 1.37223C5.01293 1.37931 5.02358 1.39144 5.02814 1.4071L5.74449 3.60353C5.74855 3.61667 5.74855 3.63082 5.74348 3.64345L5.69582 3.76623C5.68619 3.78897 5.66439 3.80413 5.63955 3.80413Z" fill="#001B3C"/>
<path d="M2.29492 5.09877H4.68984L4.58693 5.01489H2.29492V5.09877Z" fill="#001B3C"/>
<path d="M4.68912 5.15843H2.2942C2.26074 5.15843 2.23438 5.13165 2.23438 5.0988V5.01543C2.23438 4.98259 2.26074 4.95581 2.2942 4.95581H4.58671C4.6004 4.95581 4.61409 4.96036 4.62473 4.96945L4.72714 5.05232C4.74691 5.06849 4.75401 5.09527 4.7459 5.11851C4.73677 5.14226 4.71447 5.15843 4.68963 5.15843H4.68912Z" fill="#001B3C"/>
<path d="M5.46748 4.18691L5.48877 4.13183L3.19778 0.989014L3.13086 1.03853L5.42692 4.18893L5.46748 4.18691Z" fill="#001B3C"/>
<path d="M5.42624 4.24897C5.40698 4.24897 5.38923 4.23988 5.37808 4.22421L3.08151 1.07382C3.07239 1.06118 3.06884 1.04502 3.07087 1.02935C3.0734 1.01369 3.08151 0.999541 3.09469 0.990446L3.16263 0.941434C3.18899 0.921729 3.22752 0.927287 3.24628 0.954571L5.53676 4.09638C5.54893 4.11305 5.55197 4.13427 5.54437 4.15348L5.52257 4.20855C5.51446 4.23078 5.49367 4.24544 5.47035 4.24645L5.43081 4.24897H5.42624Z" fill="#001B3C"/>
<path d="M6.11188 2.53593L6.15447 2.64305V0.0595703H6.07031V2.64305L6.11188 2.53593Z" fill="#001B3C"/>
<path d="M6.15425 2.70323C6.13803 2.70323 6.12333 2.69666 6.11167 2.68605C6.09849 2.69919 6.07821 2.70575 6.05894 2.70222C6.03055 2.69716 6.00977 2.67241 6.00977 2.64361V0.0596226C6.00977 0.0262744 6.03664 0 6.0701 0H6.15425C6.1872 0 6.21357 0.0267796 6.21357 0.0596226V2.6431C6.21357 2.6719 6.19329 2.69615 6.1649 2.70171C6.16084 2.70272 6.15729 2.70323 6.15425 2.70323Z" fill="#001B3C"/>
<path d="M7.33884 4.21934L9.22477 2.85408L9.17559 2.78638L7.20703 4.21176L7.33884 4.21934Z" fill="#001B3C"/>
<path d="M7.33848 4.27958H7.33543L7.20312 4.2715C7.17726 4.26998 7.15647 4.25331 7.14887 4.22906C7.14177 4.2048 7.1509 4.17853 7.17118 4.16388L9.14024 2.73748C9.15292 2.72839 9.16914 2.72485 9.18486 2.72687C9.20108 2.7294 9.21426 2.73799 9.22389 2.75062L9.27307 2.81832C9.29233 2.8451 9.28625 2.88249 9.25938 2.9017L7.37346 4.26746C7.36332 4.27453 7.35115 4.27908 7.33848 4.27908V4.27958Z" fill="#001B3C"/>
<path d="M8.52854 4.28741L8.4677 4.33743L10.8915 3.55223L10.8657 3.4729L8.37695 4.27932L8.52854 4.28741Z" fill="#001B3C"/>
<path d="M8.46838 4.39703C8.44708 4.39703 8.4263 4.38541 8.41565 4.36621C8.4116 4.35812 8.40906 4.34903 8.40906 4.34044L8.37459 4.33892C8.34569 4.33741 8.32237 4.31517 8.31882 4.28688C8.31527 4.25858 8.33251 4.2313 8.35938 4.22271L10.8486 3.41679C10.8633 3.41174 10.88 3.41326 10.8942 3.42033C10.9084 3.4274 10.9186 3.44004 10.9236 3.45469L10.9495 3.53402C10.9596 3.56534 10.9429 3.59869 10.911 3.6093L8.48713 4.394C8.48105 4.39602 8.47497 4.39703 8.46888 4.39703H8.46838Z" fill="#001B3C"/>
<path d="M5.01578 4.21201L3.04722 2.78662L2.99805 2.85433L4.88397 4.21958L5.01578 4.21201Z" fill="#001B3C"/>
<path d="M4.88351 4.27976C4.87084 4.27976 4.85867 4.27521 4.84853 4.26813L2.9621 2.90237C2.93523 2.88317 2.92966 2.84578 2.94892 2.819L2.9981 2.75129C3.00773 2.73866 3.02142 2.73007 3.03713 2.72755C3.05285 2.72502 3.06907 2.72906 3.08175 2.73816L5.05132 4.16455C5.0716 4.17921 5.08072 4.20548 5.07312 4.22973C5.06602 4.25399 5.04422 4.27066 5.01887 4.27218L4.88656 4.28026H4.88301H4.88351V4.27976Z" fill="#001B3C"/>
<path d="M6.58332 3.74476L7.3311 1.4508L7.2515 1.42554L6.53516 3.62197L6.58332 3.74476Z" fill="#001B3C"/>
<path d="M6.58268 3.80429C6.55784 3.80429 6.53604 3.78964 6.52742 3.7664L6.47875 3.64362C6.47368 3.63099 6.47317 3.61633 6.47774 3.6037L7.19408 1.40726C7.20422 1.37594 7.23819 1.35876 7.26912 1.36886L7.34871 1.39463C7.36392 1.39918 7.37659 1.40979 7.38318 1.42394C7.39028 1.43809 7.3918 1.45476 7.38673 1.46891L6.63946 3.76286C6.63135 3.78712 6.60955 3.80328 6.5842 3.80429H6.58217H6.58268Z" fill="#001B3C"/>
<path d="M6.75617 4.18691L6.79572 4.18893L9.09279 1.03853L9.02435 0.989014L6.73438 4.13183L6.75617 4.18691Z" fill="#001B3C"/>
<path d="M6.79511 4.24897H6.79156L6.75202 4.24645C6.72819 4.24493 6.70791 4.23028 6.69929 4.20855L6.678 4.15348C6.67039 4.13478 6.67344 4.11305 6.6851 4.09638L8.97507 0.954571C8.99434 0.927287 9.03236 0.921729 9.05872 0.941434L9.12666 0.990446C9.13933 0.999541 9.14795 1.01369 9.15049 1.02935C9.15302 1.04502 9.14846 1.06118 9.14035 1.07382L6.84327 4.22421C6.83161 4.23988 6.81387 4.24897 6.7946 4.24897H6.79511Z" fill="#001B3C"/>
<path d="M9.92957 5.01489H7.63756L7.53516 5.09877H9.92957V5.01489Z" fill="#001B3C"/>
<path d="M7.53448 5.15843C7.50913 5.15843 7.48632 5.14226 7.47821 5.11851C7.46959 5.09476 7.47669 5.06798 7.49697 5.05232L7.59887 4.96945C7.60951 4.96086 7.62269 4.95581 7.6374 4.95581H9.9294C9.94512 4.95581 9.96033 4.96187 9.97148 4.9735C9.98314 4.98461 9.98922 4.99977 9.98922 5.01543V5.0988C9.98922 5.13215 9.96236 5.15843 9.9294 5.15843H7.53448Z" fill="#001B3C"/>
<path d="M3.69161 4.28716L3.8432 4.27908L1.35398 3.47266L1.32812 3.55198L3.75245 4.33718L3.69161 4.28716Z" fill="#001B3C"/>
<path d="M3.75304 4.39681C3.74695 4.39681 3.74087 4.3958 3.73479 4.39428L1.31097 3.60909C1.27954 3.59898 1.2623 3.56513 1.27244 3.5338L1.29829 3.45447C1.30286 3.43982 1.31401 3.42719 1.3282 3.42011C1.34189 3.41304 1.35862 3.41203 1.37434 3.41658L3.86254 4.22249C3.88992 4.23108 3.90766 4.25837 3.90361 4.28666C3.90006 4.31496 3.87623 4.33719 3.84784 4.3387L3.81337 4.34022C3.81337 4.34881 3.81032 4.3579 3.80627 4.36599C3.79562 4.38519 3.77534 4.39681 3.75354 4.39681H3.75304Z" fill="#001B3C"/>
<path d="M6.51172 6.41992L7.25139 8.68861L7.33098 8.66284L6.62325 6.49117L6.51172 6.41992Z" fill="#001B3C"/>
<path d="M7.25073 8.74834C7.2416 8.74834 7.23197 8.74632 7.22335 8.74228C7.20916 8.73419 7.19851 8.72207 7.19395 8.70741L6.45428 6.43822C6.44617 6.41447 6.45428 6.3887 6.47456 6.37253C6.49433 6.35737 6.52221 6.35636 6.54351 6.3695L6.65453 6.44074C6.6667 6.44782 6.67532 6.45893 6.67988 6.47258L7.3871 8.64425C7.39775 8.67558 7.38051 8.70842 7.34908 8.71903L7.26949 8.7448C7.2634 8.74632 7.25681 8.74784 7.25073 8.74784V8.74834Z" fill="#001B3C"/>
<path d="M6.11188 6.16333L6.07031 6.19061V10.0545H6.15447V6.19061L6.11188 6.16333Z" fill="#001B3C"/>
<path d="M6.15425 10.1135H6.0701C6.03714 10.1135 6.00977 10.0867 6.00977 10.0539V6.19005C6.00977 6.16934 6.02041 6.15064 6.03765 6.13952L6.07973 6.11275C6.0995 6.10011 6.12485 6.10011 6.14462 6.11275L6.18619 6.13952C6.20393 6.15064 6.21407 6.16934 6.21407 6.19005V10.0539C6.21407 10.0867 6.18771 10.1135 6.15476 10.1135H6.15425Z" fill="#001B3C"/>
<path d="M7.30154 5.97085L9.17429 7.32701L9.22346 7.25981L7.26758 5.84302L7.30154 5.97085Z" fill="#001B3C"/>
<path d="M9.17503 7.38662C9.16287 7.38662 9.15019 7.38258 9.14005 7.375L7.26731 6.01935C7.25616 6.01126 7.24805 5.99964 7.2445 5.986L7.21104 5.85867C7.20445 5.83391 7.21408 5.80814 7.23486 5.79399C7.25565 5.77985 7.28353 5.78035 7.30432 5.795L9.25919 7.21129C9.28606 7.23049 9.29214 7.26788 9.27288 7.29466L9.2237 7.36237C9.21407 7.375 9.20038 7.38359 9.18467 7.38612C9.18112 7.38713 9.17858 7.38713 9.17503 7.38713V7.38662Z" fill="#001B3C"/>
<path d="M7.1543 5.40838L7.16292 5.44122L10.8673 6.64074L10.8932 6.56142L7.20499 5.36694L7.1543 5.40838Z" fill="#001B3C"/>
<path d="M10.8666 6.70099C10.8606 6.70099 10.8545 6.69998 10.8484 6.69745L7.14397 5.49793C7.12471 5.49186 7.11001 5.47569 7.10443 5.45649L7.09581 5.42365C7.08973 5.40142 7.09733 5.37717 7.11558 5.36251L7.16679 5.32108C7.1825 5.30794 7.20329 5.3039 7.22255 5.31047L10.9108 6.50494C10.9427 6.51505 10.9594 6.5484 10.9493 6.57972L10.9234 6.65905C10.9184 6.67421 10.9077 6.68684 10.894 6.69341C10.8854 6.69796 10.8758 6.70048 10.8666 6.70048V6.70099Z" fill="#001B3C"/>
<path d="M7.60542 7.12141L7.52734 7.07089L9.02341 9.12433L9.09185 9.07582L7.57044 6.98853L7.60542 7.12141Z" fill="#001B3C"/>
<path d="M9.02319 9.1839C9.00494 9.1839 8.9872 9.17531 8.97452 9.15965L7.47846 7.10671C7.46122 7.08347 7.46325 7.05164 7.48353 7.03041C7.49214 7.02132 7.50279 7.01576 7.51445 7.01273L7.51192 7.00363C7.50482 6.97584 7.518 6.94654 7.54436 6.93441C7.57022 6.92178 7.60114 6.92986 7.61787 6.95311L9.13979 9.0399C9.14841 9.05253 9.15297 9.0687 9.14993 9.08386C9.1474 9.10003 9.13878 9.11417 9.1261 9.12276L9.05817 9.17177C9.04752 9.17986 9.03536 9.1834 9.02319 9.1834V9.1839Z" fill="#001B3C"/>
<path d="M5.60031 6.49117L4.89258 8.66284L4.97217 8.68861L5.71184 6.41992L5.60031 6.49117Z" fill="#001B3C"/>
<path d="M4.97154 8.74828C4.96546 8.74828 4.95937 8.74677 4.95329 8.74525L4.87319 8.71948C4.85798 8.71443 4.84581 8.70382 4.83871 8.69018C4.83111 8.67603 4.83009 8.65986 4.83516 8.6447L5.54289 6.47302C5.54746 6.45989 5.55557 6.44877 5.56773 6.44119L5.67876 6.36995C5.70005 6.3563 5.72743 6.35782 5.74771 6.37298C5.76748 6.38864 5.77559 6.41492 5.76748 6.43867L5.02781 8.70786C5.0197 8.73262 4.99638 8.74879 4.97103 8.74879H4.97154V8.74828Z" fill="#001B3C"/>
<path d="M4.95343 5.84302L2.99805 7.25981L3.04722 7.32701L4.91997 5.97085L4.95343 5.84302Z" fill="#001B3C"/>
<path d="M3.04677 7.38664C3.04322 7.38664 3.04018 7.38664 3.03713 7.38563C3.02142 7.38361 3.00773 7.37451 2.9981 7.36188L2.94892 7.29418C2.92966 7.2674 2.93523 7.23001 2.9621 7.21081L4.91849 5.79452C4.93877 5.77986 4.96615 5.77936 4.98694 5.79351C5.00772 5.80765 5.01735 5.83342 5.01076 5.85818L4.9773 5.98551C4.97375 5.99814 4.96514 6.01027 4.95449 6.01835L3.08124 7.37401C3.07059 7.38209 3.05843 7.38563 3.04626 7.38563V7.38664H3.04677Z" fill="#001B3C"/>
<path d="M5.06753 5.40838L5.01683 5.36694L1.32812 6.56142L1.35449 6.64074L5.05891 5.44122L5.06753 5.40838Z" fill="#001B3C"/>
<path d="M1.35539 6.70097C1.34576 6.70097 1.33663 6.69845 1.32801 6.6939C1.31382 6.68733 1.30317 6.6747 1.2981 6.65954L1.27225 6.58021C1.26261 6.54888 1.27934 6.51554 1.31078 6.50543L4.99897 5.31096C5.01824 5.30439 5.03953 5.30843 5.05525 5.32157L5.10594 5.363C5.1242 5.37765 5.1318 5.40191 5.12572 5.42414L5.1171 5.45698C5.11203 5.47669 5.09783 5.49235 5.07806 5.49841L1.37415 6.69794C1.36756 6.69996 1.36147 6.70148 1.35539 6.70148V6.70097Z" fill="#001B3C"/>
<path d="M4.61678 7.12141L4.65177 6.98853L3.13086 9.07582L3.19829 9.12433L4.69536 7.07089L4.61678 7.12141Z" fill="#001B3C"/>
<path d="M3.19729 9.1839C3.18512 9.1839 3.17245 9.18037 3.16282 9.17228L3.09488 9.12327C3.08221 9.11418 3.07359 9.10003 3.07105 9.08436C3.06852 9.06921 3.07258 9.05304 3.0817 9.04041L4.60362 6.95361C4.62086 6.93037 4.65128 6.92279 4.67764 6.93492C4.70349 6.94705 4.71668 6.97585 4.71009 7.00414L4.70755 7.01273C4.71972 7.01526 4.72986 7.02082 4.73898 7.03042C4.75875 7.05113 4.76078 7.08347 4.74354 7.10671L3.24697 9.15965C3.23531 9.17531 3.21706 9.1839 3.1983 9.1839H3.19729Z" fill="#001B3C"/>
<path d="M6.1341 2.54663H6.08594V6.1634H6.1341V2.54663Z" fill="#001B3C"/>
<path d="M6.15462 6.18303H6.06641V2.52686H6.15462V6.18303ZM6.10646 6.14362H6.11457V2.56627H6.10646V6.14362Z" fill="#001B3C"/>
<path d="M3.70434 4.26636L3.68945 4.31201L7.14073 5.42965L7.15561 5.384L3.70434 4.26636Z" fill="#001B3C"/>
<path d="M7.15302 5.45536L3.66406 4.32505L3.69093 4.24219L7.1804 5.37199L7.15302 5.45536ZM3.71425 4.29979L7.12767 5.40483L7.13021 5.39725L3.71628 4.2917L3.71425 4.29979Z" fill="#001B3C"/>
<path d="M5.0733 5.42999L5.05859 5.38452L8.50953 4.26685L8.52423 4.31232L5.0733 5.42999Z" fill="#001B3C"/>
<path d="M5.06007 5.45536L5.0332 5.37199L8.52267 4.24219L8.54903 4.32505L5.06007 5.45536ZM5.08339 5.39775L5.08593 5.40533L8.49935 4.30029L8.49681 4.29221L5.08339 5.39775Z" fill="#001B3C"/>
<path d="M7.58008 7.12841L5.44727 4.20235L5.4863 4.17456L7.61912 7.10061L7.58008 7.12841Z" fill="#001B3C"/>
<path d="M7.57606 7.15615L5.41992 4.19827L5.4909 4.14673L7.64704 7.10512L7.57606 7.15666V7.15615ZM5.47518 4.20686L7.58468 7.10108L7.59178 7.09603L5.48177 4.2018L5.47518 4.20686Z" fill="#001B3C"/>
<path d="M4.63865 7.12841L4.59961 7.10061L6.73243 4.17456L6.77096 4.20235L4.63865 7.12841Z" fill="#001B3C"/>
<path d="M4.64324 7.15617L4.57227 7.10463L6.7284 4.14624L6.79938 4.19778L4.64324 7.15567V7.15617ZM4.62803 7.09604L4.63412 7.1011L6.74361 4.20687L6.73702 4.20182L4.62753 7.09604H4.62803Z" fill="#001B3C"/>
<path d="M6.2707 26.0001H5.95131V25.8414C5.95131 25.6039 5.4124 25.5509 5.22381 25.5509H0.8948C0.326488 25.5509 0 25.226 0 24.6591V9.93481H6.11049V10.2531H0.31939V24.6591C0.31939 25.0451 0.507476 25.2331 0.8948 25.2331H5.22381C5.54827 25.2331 5.90923 25.3053 6.111 25.4887C6.31278 25.3053 6.67374 25.2331 6.9982 25.2331H11.3272C11.7145 25.2331 11.9026 25.0451 11.9026 24.6591V10.2531H6.111V9.93481H12.222V24.6586C12.222 25.2255 11.8955 25.5504 11.3272 25.5504H6.9982C6.8096 25.5504 6.2707 25.6034 6.2707 25.8409V25.9996V26.0001Z" fill="#001B3C"/>
<path d="M7.76253 12.354C7.74327 12.354 7.72502 12.3449 7.71336 12.3293L7.24644 11.6785C7.20081 11.6886 7.1562 11.6936 7.1126 11.6936C6.98281 11.6936 6.87889 11.6462 6.81957 11.5597C6.69536 11.3784 6.80994 11.0929 7.07965 10.909C7.21095 10.8195 7.35594 10.7705 7.48978 10.7705C7.62362 10.7705 7.7235 10.8175 7.78332 10.9044C7.86443 11.0237 7.84517 11.1924 7.73211 11.3516L7.98965 11.7457C8.00284 11.7659 8.00233 11.7922 7.98965 11.8119C7.92983 11.8983 7.85176 12.0534 7.82286 12.301C7.81982 12.3257 7.80208 12.346 7.77774 12.352C7.77318 12.353 7.7676 12.354 7.76304 12.354H7.76253ZM7.27128 11.5507C7.29054 11.5507 7.30879 11.5597 7.31995 11.5754L7.72704 12.1423C7.76304 11.9771 7.8183 11.8579 7.86849 11.778L7.60993 11.3819C7.59574 11.3602 7.59726 11.3324 7.61298 11.3122C7.71234 11.1869 7.74073 11.053 7.68446 10.9711C7.64846 10.9186 7.57901 10.8892 7.48978 10.8892C7.38231 10.8892 7.25708 10.9322 7.14758 11.007C6.93972 11.1479 6.83529 11.3708 6.91894 11.4925C6.95493 11.5451 7.02388 11.5739 7.11311 11.5739C7.15772 11.5739 7.20639 11.5668 7.25506 11.5527C7.26063 11.5512 7.26621 11.5507 7.27128 11.5507Z" fill="#001B3C"/>
<path d="M8.71583 13.1801C8.57844 13.1801 8.4081 13.1609 8.31279 13.0063C8.14296 12.7315 8.25297 12.4505 8.28998 12.3707C8.29961 12.351 8.31888 12.3378 8.34017 12.3363C8.36298 12.3348 8.38275 12.3454 8.39441 12.3636L8.8664 13.0851C8.87806 13.1033 8.87908 13.1261 8.86944 13.1453C8.86032 13.1645 8.84055 13.1766 8.81925 13.1776C8.78427 13.1796 8.7498 13.1801 8.71583 13.1801ZM8.36045 12.5288C8.33307 12.6339 8.3209 12.7911 8.4152 12.9437C8.4664 13.0255 8.55107 13.0604 8.70873 13.0614L8.36095 12.5288H8.36045Z" fill="#001B3C"/>
<path d="M8.73927 11.9533C8.73927 11.9978 8.70378 12.0332 8.65967 12.0332C8.61557 12.0332 8.58008 11.9978 8.58008 11.9533C8.58008 11.9089 8.61557 11.8745 8.65967 11.8745C8.70378 11.8745 8.73927 11.9099 8.73927 11.9533Z" fill="#001B3C"/>
<path d="M8.66066 12.0732C8.59425 12.0732 8.54102 12.0201 8.54102 11.9539C8.54102 11.8878 8.59425 11.8352 8.66066 11.8352C8.72707 11.8352 8.7803 11.8883 8.7803 11.9539C8.7803 12.0196 8.72657 12.0732 8.66066 12.0732ZM8.66066 11.9145C8.63835 11.9145 8.62061 11.9322 8.62061 11.9539C8.62061 11.9757 8.63835 11.9944 8.66066 11.9944C8.68297 11.9944 8.7002 11.9767 8.7002 11.9539C8.7002 11.9312 8.68246 11.9145 8.66066 11.9145Z" fill="#001B3C"/>
<path d="M4.43679 17.3962H0.164062V17.5953H4.38863C4.4008 17.5276 4.41702 17.4614 4.43679 17.3962Z" fill="#001B3C"/>
<path d="M7.7832 17.3962C7.80348 17.4614 7.8192 17.5276 7.83137 17.5953H12.1061V17.3962H7.7832Z" fill="#001B3C"/>
<path d="M6.10964 16.1634C6.14361 16.1634 6.17707 16.1649 6.20951 16.1664V10.1091H6.00977V16.1664C6.04272 16.1649 6.07567 16.1634 6.10913 16.1634H6.10964Z" fill="#001B3C"/>
<path d="M6.10913 19.6507C6.07567 19.6507 6.04272 19.6497 6.00977 19.6477V25.6625H6.20951V19.6477C6.17656 19.6492 6.1431 19.6507 6.10964 19.6507H6.10913Z" fill="#001B3C"/>
<path d="M7.38968 18.6981H4.83151L4.7793 18.6082L6.05838 16.4001H6.1618L7.44139 18.6082L7.38968 18.6981ZM4.93443 18.5789H7.28575L6.11009 16.5492L4.93443 18.5789Z" fill="#001B3C"/>
<path d="M6.75114 16.6357C6.74201 16.6357 6.73339 16.6342 6.72477 16.6297C6.66749 16.6024 6.41603 16.5524 6.33542 16.5382C6.2903 16.5306 6.18232 16.5033 6.14075 16.425C6.12756 16.3998 6.12756 16.3715 6.14075 16.3467C6.15595 16.3174 6.18941 16.2977 6.22744 16.2835C6.19651 16.2522 6.16914 16.2234 6.16052 16.2108C6.14328 16.1845 6.13162 16.1395 6.15241 16.0915C6.18485 16.0163 6.27915 15.9652 6.44087 15.9374C6.66242 15.898 6.77598 16.0683 6.85861 16.1916C6.89562 16.2467 6.93314 16.3032 6.96558 16.3189C6.99549 16.3331 7.00817 16.3689 6.99397 16.3982C6.97978 16.4275 6.94378 16.4402 6.91438 16.426C6.85202 16.3962 6.8069 16.329 6.75975 16.2583C6.66647 16.1198 6.5955 16.0304 6.46166 16.0541C6.305 16.0814 6.27053 16.1234 6.26394 16.135C6.25938 16.1416 6.2609 16.1456 6.2614 16.1471C6.26952 16.1572 6.3339 16.2229 6.38815 16.275C6.40437 16.2911 6.41045 16.3154 6.40234 16.3371C6.39524 16.3588 6.37598 16.374 6.35316 16.377C6.3268 16.3806 6.29689 16.3871 6.27458 16.3942C6.29537 16.4058 6.32477 16.4154 6.35621 16.4215C6.35976 16.4215 6.68929 16.4811 6.77648 16.523C6.80589 16.5372 6.81856 16.5731 6.80437 16.6029C6.79423 16.6241 6.77293 16.6362 6.75063 16.6362H6.75114V16.6357Z" fill="#001B3C"/>
<path d="M6.79243 16.5322L6.75086 16.5767C6.67887 16.5418 6.38736 16.4873 6.34579 16.4802C6.30321 16.4726 6.22108 16.4499 6.1937 16.3983C6.18914 16.3898 6.18965 16.3822 6.1937 16.3746C6.16582 16.3731 6.13692 16.3721 6.10853 16.3721C5.25885 16.3721 4.56836 17.0608 4.56836 17.9076C4.56836 18.7544 5.25936 19.4431 6.10853 19.4431C6.9577 19.4431 7.64921 18.7539 7.64921 17.9076C7.64921 17.3053 7.29991 16.7839 6.79192 16.5327H6.79243V16.5322ZM6.10904 19.3234C5.32577 19.3234 4.68851 18.6878 4.68851 17.9071C4.68851 17.1264 5.32577 16.4913 6.10904 16.4913C6.8923 16.4913 7.53007 17.1259 7.53007 17.9071C7.53007 18.6883 6.89332 19.3234 6.10904 19.3234Z" fill="#001B3C"/>
<path d="M6.82751 16.2518C6.86503 16.3059 6.90001 16.3529 6.94057 16.3726L6.89849 16.4185C7.43385 16.7015 7.79988 17.2624 7.79988 17.9071C7.79988 18.8358 7.04196 19.5912 6.11015 19.5912C5.17834 19.5912 4.42043 18.8358 4.42043 17.9071C4.42043 16.9784 5.17885 16.2225 6.11015 16.2225C6.16034 16.2225 6.21003 16.225 6.25819 16.2296C6.23588 16.2063 6.21662 16.1861 6.21104 16.1775C6.20445 16.1674 6.19482 16.1391 6.21307 16.1068C6.1791 16.1048 6.14513 16.1038 6.11015 16.1038C5.11244 16.1038 4.30078 16.9122 4.30078 17.9071C4.30078 18.902 5.11244 19.7104 6.11015 19.7104C7.10787 19.7104 7.91952 18.901 7.91952 17.9071C7.91952 17.1669 7.46934 16.5297 6.82751 16.2518Z" fill="#001B3C"/>
<path d="M6.49097 16.1577C6.49097 16.1779 6.47475 16.1941 6.45447 16.1941C6.43419 16.1941 6.41797 16.1779 6.41797 16.1577C6.41797 16.1375 6.43419 16.1213 6.45447 16.1213C6.47475 16.1213 6.49097 16.1375 6.49097 16.1577Z" fill="#001B3C"/>
<path d="M6.45351 16.2341C6.41143 16.2341 6.37695 16.1998 6.37695 16.1578C6.37695 16.1159 6.41143 16.082 6.45351 16.082C6.49558 16.082 6.53006 16.1164 6.53006 16.1578C6.53006 16.1993 6.49558 16.2341 6.45351 16.2341Z" fill="#001B3C"/>
<path d="M6.11112 18.4108C5.83635 18.4108 5.61328 18.1885 5.61328 17.9147C5.61328 17.6408 5.83685 17.418 6.11112 17.418C6.38539 17.418 6.60947 17.6408 6.60947 17.9147C6.60947 18.1885 6.3859 18.4108 6.11112 18.4108ZM6.11112 17.5094C5.88755 17.5094 5.70504 17.6913 5.70504 17.9147C5.70504 18.138 5.88704 18.3194 6.11112 18.3194C6.3352 18.3194 6.51822 18.1375 6.51822 17.9147C6.51822 17.6918 6.33571 17.5094 6.11112 17.5094Z" fill="#001B3C"/>
<path d="M4.94441 24.8318H4.47141C4.43846 24.8318 4.41159 24.805 4.41159 24.7722V23.7803H1.20045C1.16749 23.7803 1.14062 23.7535 1.14062 23.7207V23.2068C1.14062 23.174 1.16749 23.1472 1.20045 23.1472H4.94492C4.97838 23.1472 5.00474 23.174 5.00474 23.2068V24.7722C5.00474 24.805 4.97787 24.8318 4.94492 24.8318H4.94441ZM4.53123 24.7121H4.88459V23.7207C4.88459 23.7177 4.88459 23.7151 4.8851 23.7126V23.266H1.25976V23.6606H4.47141C4.50436 23.6606 4.53123 23.6874 4.53123 23.7202V24.7116V24.7121Z" fill="#001B3C"/>
<path d="M3.86898 23.2234C3.17038 23.2234 2.60156 22.6565 2.60156 21.9597C2.60156 21.2629 3.17038 20.697 3.86898 20.697C4.56759 20.697 5.13641 21.2634 5.13641 21.9597C5.13641 22.656 4.56759 23.2234 3.86898 23.2234ZM3.86898 20.8158C3.23629 20.8158 2.72121 21.3291 2.72121 21.9597C2.72121 22.5903 3.23629 23.1042 3.86898 23.1042C4.50168 23.1042 5.01676 22.5908 5.01676 21.9597C5.01676 21.3286 4.50168 20.8158 3.86898 20.8158Z" fill="#001B3C"/>
<path d="M3.77176 20.5411L1.6582 19.1951L1.69014 19.1445L3.80369 20.4906L3.77176 20.5411Z" fill="#001B3C"/>
<path d="M1.67625 19.1594L1.64062 19.2073L3.50387 20.5839L3.5395 20.536L1.67625 19.1594Z" fill="#001B3C"/>
<path d="M3.29698 20.6483L1.625 19.2183L1.66353 19.1729L3.33551 20.6023L3.29698 20.6483Z" fill="#001B3C"/>
<path d="M3.12884 20.7296L1.60742 19.2299L1.6495 19.1875L3.17091 20.6867L3.12884 20.7296Z" fill="#001B3C"/>
<path d="M2.98241 20.8206L1.5918 19.2411L1.63641 19.2017L3.02753 20.7812L2.98241 20.8206Z" fill="#001B3C"/>
<path d="M2.85431 20.9317L1.57422 19.2522L1.62238 19.2163L2.90197 20.8953L2.85431 20.9317Z" fill="#001B3C"/>
<path d="M2.73585 21.052L1.55664 19.2638L1.60683 19.2305L2.78655 21.0197L2.73585 21.052Z" fill="#001B3C"/>
<path d="M2.62948 21.1934L1.54102 19.2749L1.59273 19.2456L2.68119 21.1636L2.62948 21.1934Z" fill="#001B3C"/>
<path d="M2.52919 21.3597L1.52539 19.286L1.57913 19.2603L2.58293 21.3344L2.52919 21.3597Z" fill="#001B3C"/>
<path d="M1.56316 19.275L1.50781 19.2976L2.44427 21.5744L2.49962 21.5518L1.56316 19.275Z" fill="#001B3C"/>
<path d="M2.39408 21.9216L1.49219 19.3088L1.54897 19.2891L2.45087 21.9018L2.39408 21.9216Z" fill="#001B3C"/>
<path d="M1.79602 19.497L1.46599 19.2848L1.13595 19.4965L1.23531 19.1185L0.931641 18.8704L1.32353 18.8482L1.46599 18.4834L1.60844 18.8482L2.00084 18.8704L1.69666 19.1185L1.79653 19.497H1.79602ZM1.24495 18.972L1.37068 19.0741L1.3291 19.2302L1.46548 19.1428L1.60185 19.2302L1.56028 19.0741L1.68601 18.972L1.52378 18.9624L1.46548 18.8118L1.40667 18.9624L1.24444 18.972H1.24495Z" fill="#001B3C"/>
<path d="M3.55215 23.0148C3.52477 23.0148 3.50399 23.0012 3.49638 22.9779C3.48979 22.9572 3.48371 22.8981 3.47306 22.7642C3.46951 22.7217 3.46647 22.6778 3.46495 22.6682C3.46191 22.6535 3.46242 22.6197 3.46292 22.5621C3.46292 22.5171 3.46495 22.4413 3.4609 22.4262C3.45937 22.4226 3.45633 22.412 3.45278 22.3999C3.4467 22.3756 3.42946 22.311 3.40513 22.3019C3.21552 22.2331 3.22313 22.171 3.22465 22.1508C3.22617 22.1407 3.22313 22.1114 3.2211 22.0856C3.21147 21.9754 3.20893 21.9012 3.25355 21.8734C3.26825 21.8643 3.28751 21.8552 3.30728 21.8456C3.31692 21.8405 3.3306 21.834 3.34277 21.8279C3.31641 21.8138 3.28548 21.7971 3.27636 21.7642C3.26875 21.7536 3.21451 21.7188 3.1846 21.7001C3.1486 21.6763 3.12528 21.6612 3.11159 21.6475C3.1045 21.6405 3.09993 21.6314 3.08878 21.6091C3.04214 21.5146 3.02085 21.4975 3.01172 21.4949C2.96153 21.4914 2.82009 21.4545 2.78865 21.3898C2.7775 21.3686 2.77902 21.3444 2.79271 21.3241C2.82668 21.2726 2.98739 21.0483 3.08168 20.9816C3.20792 20.8906 3.39854 20.8022 3.40716 20.7987C3.41882 20.7936 3.432 20.7941 3.44315 20.7997C3.4543 20.8062 3.46242 20.8169 3.46343 20.829C3.46343 20.829 3.47864 20.9447 3.4832 20.9947C3.48624 21.0205 3.49993 21.0462 3.52173 21.0402C3.53441 21.0361 3.5628 21.0073 3.58206 20.9886C3.62211 20.9477 3.66115 20.9093 3.70475 20.9093H3.71235C3.72046 20.9093 3.73618 20.9027 3.74835 20.8972C3.7666 20.8891 3.78485 20.881 3.80411 20.881C3.81882 20.881 3.86748 20.8876 3.86748 20.9634C3.86748 20.9993 3.86596 21.022 3.86444 21.0412C3.86292 21.07 3.8614 21.0877 3.86748 21.1326C3.87205 21.1726 3.85988 21.211 3.8325 21.2418C3.79397 21.2847 3.73111 21.3034 3.69613 21.2797C3.68954 21.2751 3.68295 21.2701 3.67585 21.265C3.66166 21.2539 3.64493 21.2408 3.63326 21.2408C3.63022 21.2408 3.6282 21.2418 3.62465 21.2428C3.58105 21.2625 3.53086 21.3014 3.51666 21.3393C3.49486 21.3984 3.4396 21.4505 3.39752 21.4505C3.39398 21.4505 3.38637 21.449 3.38181 21.4479C3.34328 21.4348 3.33973 21.3853 3.33973 21.3307C3.33872 21.3257 3.32655 21.3115 3.31844 21.31C3.30627 21.308 3.2941 21.3039 3.28346 21.3004C3.27534 21.2979 3.26521 21.2943 3.25912 21.2933C3.24087 21.314 3.20843 21.3661 3.21502 21.4035C3.22414 21.4565 3.31894 21.594 3.34936 21.6066C3.40868 21.6303 3.6429 21.8249 3.65659 21.8395C3.67179 21.8491 3.78688 21.8951 3.83402 21.9088C3.9339 21.937 4.05557 21.9886 4.06672 22.076C4.07889 22.1624 4.01501 22.312 3.96178 22.3514C3.92427 22.3797 3.87255 22.4312 3.82946 22.4838C3.81882 22.4969 3.8102 22.506 3.80259 22.5136C3.78231 22.5348 3.77522 22.5419 3.75798 22.6353C3.73263 22.7708 3.66419 22.9567 3.66166 22.9648C3.65811 22.9734 3.65202 22.9809 3.6434 22.9855C3.63073 22.9926 3.58713 23.0153 3.55266 23.0153L3.55215 23.0148ZM3.30475 22.1568C3.31185 22.169 3.35038 22.1973 3.43352 22.2271C3.49638 22.2498 3.51818 22.3307 3.53136 22.3797C3.53289 22.3878 3.53491 22.3953 3.53694 22.3994C3.54404 22.4181 3.54455 22.455 3.54353 22.5631C3.54252 22.5979 3.54201 22.6454 3.54353 22.6556C3.54556 22.6677 3.54759 22.701 3.55266 22.7581C3.55621 22.8071 3.5633 22.8905 3.56837 22.9319C3.57496 22.9294 3.58358 22.9259 3.59119 22.9223C3.60792 22.8759 3.65912 22.7283 3.6794 22.6202C3.69917 22.5121 3.71134 22.4923 3.74429 22.458C3.75088 22.4514 3.75849 22.4438 3.7671 22.4332C3.81425 22.3766 3.87154 22.319 3.91362 22.2877C3.94049 22.2675 3.99625 22.1483 3.98814 22.0861C3.98459 22.0603 3.92781 22.0179 3.81222 21.9845C3.78586 21.9775 3.62718 21.9219 3.60082 21.8951C3.58003 21.8749 3.36052 21.6965 3.31996 21.6804C3.25202 21.6536 3.14708 21.4838 3.13593 21.4166C3.12275 21.3378 3.1846 21.2554 3.2069 21.2332C3.21552 21.2246 3.23124 21.214 3.25557 21.214C3.27433 21.214 3.29258 21.2201 3.3083 21.2261C3.3159 21.2287 3.32401 21.2312 3.33111 21.2327C3.38029 21.2408 3.41932 21.2923 3.41932 21.3312V21.3499C3.42744 21.3403 3.43605 21.3277 3.44163 21.3125C3.46546 21.2463 3.53745 21.1948 3.59271 21.1705C3.60589 21.165 3.61907 21.1614 3.63326 21.1614C3.6723 21.1614 3.70272 21.1847 3.72452 21.2019C3.72908 21.2054 3.73314 21.2079 3.73669 21.211C3.7453 21.21 3.76051 21.2029 3.77268 21.1892C3.7813 21.1796 3.79093 21.164 3.78789 21.1428C3.7813 21.0897 3.78333 21.066 3.78485 21.0361C3.78637 21.0185 3.78738 20.9982 3.78738 20.9669C3.78485 20.9679 3.78231 20.9689 3.78079 20.9699C3.75849 20.9795 3.73111 20.9907 3.70424 20.9881C3.69258 20.9902 3.6576 21.0255 3.63884 21.0437C3.60741 21.0761 3.57648 21.1069 3.54505 21.116C3.47712 21.1362 3.41273 21.0826 3.40412 21.0023C3.40158 20.976 3.396 20.9305 3.39144 20.8947C3.32655 20.9265 3.21096 20.9866 3.12832 21.0457C3.05887 21.0958 2.92402 21.2726 2.86521 21.3605C2.8865 21.3807 2.9666 21.4121 3.01882 21.4161C3.08067 21.4207 3.12275 21.4964 3.16128 21.5743C3.16483 21.5823 3.16787 21.5894 3.1704 21.5935C3.18105 21.6026 3.2064 21.6187 3.2287 21.6324C3.30627 21.6829 3.34328 21.7102 3.35291 21.7425C3.35595 21.7445 3.37471 21.7546 3.38485 21.7597C3.41172 21.7733 3.45228 21.7941 3.44366 21.8355C3.43656 21.8709 3.39499 21.8916 3.34226 21.9163C3.32655 21.9239 3.31134 21.9315 3.29968 21.9381C3.29106 21.9603 3.29765 22.0396 3.3012 22.0785C3.30424 22.1119 3.30627 22.1387 3.30475 22.1568Z" fill="#001B3C"/>
<path d="M4.17504 21.1579C4.11724 21.1579 4.07618 21.1306 4.07263 21.0892C4.07111 21.0765 4.05438 21.0482 4.03765 21.0396C4.00216 21.0225 3.9687 21.0033 3.94791 20.9588C3.93017 20.9199 3.92256 20.8476 3.92206 20.839C3.92155 20.834 3.92206 20.8284 3.92409 20.8229L3.94639 20.7542C3.95197 20.737 3.96819 20.7259 3.98644 20.7269C3.99303 20.7269 4.14766 20.7365 4.28657 20.7931C4.29772 20.7976 4.30533 20.8062 4.30938 20.8173C4.31293 20.8284 4.31192 20.8411 4.30533 20.8507C4.28454 20.885 4.2597 20.93 4.25716 20.9421C4.25716 20.9467 4.25564 20.9583 4.25514 20.9734C4.24702 21.0886 4.24043 21.1543 4.18822 21.1584H4.17504V21.1579ZM4.15121 21.0745C4.15374 21.0755 4.1578 21.077 4.16236 21.0775C4.16895 21.0487 4.17301 20.9911 4.17453 20.9664C4.17554 20.9477 4.17706 20.9325 4.17808 20.9265C4.18112 20.9088 4.19633 20.8785 4.21255 20.8502C4.13245 20.8244 4.05336 20.8133 4.01179 20.8082L4.00216 20.8385C4.00469 20.8653 4.0123 20.9067 4.02092 20.9249C4.02954 20.9446 4.04322 20.9537 4.07263 20.9679C4.1142 20.9886 4.14462 21.0371 4.1507 21.074H4.15121V21.0745Z" fill="#001B3C"/>
<path d="M4.82564 22.7248C4.82006 22.7248 4.81448 22.7233 4.80891 22.7212C4.79268 22.7132 4.78356 22.696 4.7866 22.6783C4.79573 22.6252 4.80434 22.5601 4.80384 22.5429C4.79877 22.5272 4.79826 22.5035 4.79775 22.4651C4.79775 22.4469 4.79775 22.4282 4.79573 22.414C4.79471 22.4024 4.78102 22.3751 4.77139 22.3549C4.7572 22.3276 4.74554 22.3034 4.743 22.2827C4.73945 22.2544 4.72526 22.2256 4.69889 22.1947C4.67456 22.1659 4.66239 22.1296 4.65225 22.0977C4.64516 22.076 4.63806 22.0533 4.62843 22.0416C4.60713 22.0154 4.59699 21.984 4.58939 21.9588C4.58584 21.9492 4.58178 21.9365 4.57976 21.9335C4.53413 21.8875 4.61068 21.7637 4.6122 21.7632C4.62792 21.743 4.6776 21.7183 4.71664 21.7016C4.71816 21.7011 4.71968 21.7001 4.72171 21.7001C4.79167 21.6804 4.81905 21.6743 4.83071 21.6728C4.83882 21.6677 4.85453 21.6541 4.86315 21.6445C4.8596 21.6314 4.85453 21.6157 4.84896 21.6015C4.84135 21.5839 4.84085 21.5611 4.84338 21.5394H4.84237C4.83375 21.546 4.82158 21.5535 4.80079 21.5556C4.7648 21.5601 4.7359 21.5535 4.68673 21.5369C4.6705 21.5318 4.66493 21.5313 4.66493 21.5313C4.6482 21.5328 4.63704 21.5258 4.62741 21.5192C4.59547 21.4985 4.57874 21.4904 4.57012 21.4874C4.5681 21.4868 4.54883 21.4874 4.53312 21.4904H4.53058C4.52703 21.4964 4.52196 21.5066 4.51841 21.5151C4.51436 21.5465 4.50979 21.5839 4.50979 21.5919C4.50979 21.647 4.40029 21.6789 4.36531 21.6789C4.35922 21.6789 4.35365 21.6783 4.34807 21.6768C4.25885 21.6571 4.24009 21.644 4.23248 21.6207C4.22234 21.5904 4.25327 21.5172 4.26341 21.4975C4.2629 21.4929 4.25986 21.4853 4.25783 21.4803C4.25124 21.4621 4.24161 21.4363 4.25631 21.4126C4.26898 21.3919 4.29281 21.3706 4.29788 21.3661C4.30447 21.36 4.3141 21.357 4.32374 21.357C4.33134 21.357 4.3719 21.357 4.39116 21.361C4.39268 21.361 4.39928 21.358 4.40637 21.3555C4.41702 21.3388 4.43628 21.311 4.44845 21.2989L4.45149 21.2959C4.46315 21.2837 4.47431 21.2731 4.47633 21.2509C4.47836 21.2271 4.47634 21.214 4.4738 21.1983C4.47228 21.1913 4.47127 21.1842 4.47025 21.1766C4.46924 21.1705 4.4662 21.166 4.45606 21.1554C4.45048 21.1488 4.4449 21.1422 4.43983 21.1347C4.41651 21.0998 4.40637 21.0766 4.40637 21.0558C4.40637 21.0205 4.4231 20.9922 4.45149 20.9775C4.4591 20.9735 4.4885 20.9502 4.51385 20.9265C4.52703 20.9149 4.5463 20.9129 4.56201 20.9219C4.56404 20.9235 4.62285 20.9588 4.68977 21.018C4.75466 21.075 4.97114 21.3742 5.02944 21.4808C5.08875 21.5884 5.14351 21.8997 5.09129 22.2018C5.03958 22.4974 4.86265 22.703 4.85555 22.7111C4.84744 22.7202 4.83679 22.7253 4.82513 22.7253H4.82564V22.7248ZM4.64566 21.8875C4.65479 21.9007 4.65935 21.9168 4.66543 21.9345C4.67152 21.9542 4.67862 21.9765 4.69129 21.9911C4.71005 22.0144 4.71968 22.0437 4.72881 22.073C4.73742 22.0992 4.74604 22.126 4.76024 22.1427C4.79775 22.1862 4.81803 22.2291 4.82259 22.2736C4.82361 22.2811 4.83527 22.3039 4.84287 22.319C4.85758 22.3488 4.87329 22.3797 4.87583 22.407C4.87735 22.4226 4.87735 22.4433 4.87735 22.4641C4.87735 22.4833 4.87785 22.5121 4.88039 22.5201C4.8814 22.5222 4.88292 22.5257 4.88394 22.5333C4.93261 22.4494 4.98989 22.3291 5.01372 22.1882C5.06239 21.9077 5.01372 21.6142 4.961 21.5187C4.90777 21.4222 4.69585 21.1281 4.63806 21.0776C4.60156 21.0452 4.56759 21.0205 4.54579 21.0058C4.52754 21.022 4.50371 21.0412 4.48901 21.0488C4.48901 21.0488 4.48749 21.0503 4.48749 21.0558C4.48749 21.0558 4.48952 21.0634 4.50777 21.0907C4.51081 21.0953 4.51436 21.0998 4.51791 21.1033C4.53007 21.1175 4.5468 21.1367 4.55035 21.1665C4.55137 21.1736 4.55187 21.1791 4.55339 21.1847C4.55644 21.2034 4.55998 21.2236 4.55745 21.258C4.55289 21.3095 4.52399 21.3378 4.50878 21.3535C4.50016 21.3615 4.4814 21.3878 4.46822 21.409C4.46467 21.4146 4.4591 21.4202 4.45251 21.4232C4.44237 21.4282 4.40232 21.4449 4.37748 21.4399C4.3719 21.4383 4.35568 21.4378 4.34047 21.4373C4.33692 21.4409 4.33438 21.4439 4.33185 21.4469C4.33286 21.449 4.33337 21.4515 4.33438 21.454C4.34148 21.4742 4.35263 21.5045 4.33641 21.5328C4.32982 21.5439 4.3212 21.5687 4.31613 21.5869C4.32678 21.5904 4.34351 21.595 4.36683 21.6C4.38305 21.6 4.41702 21.5864 4.43223 21.5763C4.43426 21.552 4.44034 21.5136 4.44186 21.5005C4.44186 21.4985 4.44287 21.4959 4.44338 21.4939C4.45301 21.4671 4.47329 21.4207 4.51132 21.4141L4.51993 21.4126C4.54224 21.408 4.57418 21.4045 4.5975 21.4126C4.61626 21.4191 4.63958 21.4318 4.67101 21.4525C4.68216 21.453 4.69433 21.4565 4.71309 21.4626C4.75821 21.4772 4.7724 21.4798 4.79167 21.4772C4.7942 21.4772 4.79623 21.4762 4.79826 21.4747C4.8084 21.4676 4.82107 21.4601 4.84338 21.4601C4.87126 21.4601 4.89763 21.4676 4.90067 21.4682C4.92145 21.4737 4.93362 21.4949 4.92906 21.5151C4.92399 21.5359 4.92145 21.5631 4.92348 21.5707C4.93362 21.5955 4.94122 21.6233 4.94477 21.6384C4.95086 21.6607 4.9397 21.6773 4.93007 21.689C4.93007 21.6895 4.87836 21.7511 4.83983 21.7511C4.83223 21.7521 4.78609 21.7642 4.74706 21.7759C4.71461 21.79 4.68115 21.8077 4.67355 21.8143C4.66594 21.8239 4.6482 21.8688 4.64617 21.8875H4.64566Z" fill="#001B3C"/>
<path d="M10.3313 24.7348C10.3247 24.7348 10.3181 24.7338 10.312 24.7318C10.2877 24.7232 10.2715 24.701 10.2715 24.6752L10.273 24.028C10.273 24.0138 10.2781 24.0002 10.2872 23.9896L11.256 22.8613C11.2727 22.8426 11.2991 22.836 11.3229 22.8451C11.3468 22.8542 11.362 22.8775 11.361 22.9022L11.3579 22.9851C11.3539 23.118 11.3534 23.1225 11.3665 23.1867C11.3762 23.2337 11.4177 23.2529 11.4182 23.2534C11.435 23.261 11.4477 23.2756 11.4527 23.2938C11.4573 23.3115 11.4527 23.3307 11.4421 23.3448L10.379 24.7126C10.3673 24.7273 10.3496 24.7354 10.3313 24.7354V24.7348ZM10.3921 24.0497V24.5004L11.3098 23.3196C11.2839 23.2938 11.2596 23.2579 11.2499 23.2109C11.2378 23.1538 11.2352 23.1306 11.2368 23.0679L10.3926 24.0502H10.3921V24.0497Z" fill="#001B3C"/>
<path d="M9.06815 22.5357C9.06207 22.5357 9.05649 22.5347 9.05041 22.5332C9.02506 22.5256 9.00732 22.5024 9.00782 22.4756L9.04737 20.2504C9.04737 20.2307 9.05801 20.212 9.07474 20.2014C9.21162 20.1124 9.33533 20.072 9.46562 20.072C9.60453 20.072 9.73482 20.1185 9.85547 20.17C9.90921 20.1928 9.97157 20.2044 10.041 20.2044C10.2286 20.2044 10.402 20.119 10.4035 20.1185C10.4218 20.1094 10.4441 20.1104 10.4613 20.121C10.479 20.1321 10.4897 20.1514 10.4897 20.1721C10.4897 20.1882 10.4968 21.8147 10.4897 22.3715C10.4897 22.3897 10.4811 22.4074 10.4664 22.4185C10.4517 22.4291 10.4324 22.4332 10.4142 22.4281C10.1465 22.3549 9.90668 22.3175 9.70237 22.3175C9.24559 22.3175 9.11936 22.5059 9.11784 22.5075C9.10719 22.5251 9.08742 22.5352 9.06765 22.5352H9.06815V22.5357ZM9.16752 20.2847L9.13051 22.3387C9.23038 22.272 9.40782 22.1982 9.70288 22.1982C9.89857 22.1982 10.1226 22.2306 10.3721 22.2932C10.3761 21.7657 10.3721 20.5925 10.3711 20.2605C10.293 20.2888 10.1713 20.3236 10.0415 20.3236C9.95586 20.3236 9.87778 20.3085 9.80883 20.2792C9.66029 20.2165 9.56042 20.1908 9.46612 20.1908C9.37183 20.1908 9.27297 20.2211 9.16752 20.2847Z" fill="#001B3C"/>
<path d="M9.05714 22.5293C9.03788 22.5293 9.01963 22.5202 9.00797 22.5045C8.93649 22.4025 8.75854 22.3494 8.4934 22.3494C8.12077 22.3494 7.70405 22.4555 7.69948 22.4565C7.68174 22.4611 7.66298 22.457 7.64828 22.4459C7.63358 22.4348 7.62496 22.4176 7.62496 22.3994L7.59961 20.4567C7.59961 20.4385 7.60772 20.4213 7.62242 20.4097C7.63611 20.398 7.65487 20.394 7.67312 20.398C7.67312 20.398 7.75018 20.4147 7.86577 20.4147C8.00873 20.4147 8.22369 20.389 8.43205 20.2657C8.58009 20.1783 8.7266 20.1338 8.86754 20.1338C9.03534 20.1338 9.13573 20.1985 9.13978 20.2005C9.15702 20.2121 9.16716 20.2313 9.16665 20.252C9.16665 20.252 9.13725 21.5369 9.11697 22.4707C9.11697 22.4965 9.09922 22.5192 9.07489 22.5273C9.06881 22.5288 9.06323 22.5293 9.05714 22.5293ZM8.4934 22.2307C8.71697 22.2307 8.8863 22.2666 8.99986 22.3378C9.0176 21.5162 9.04092 20.4946 9.04599 20.2874C9.01304 20.2732 8.95169 20.2535 8.86754 20.2535C8.7484 20.2535 8.62217 20.2919 8.49289 20.3687C8.2612 20.5057 8.02445 20.534 7.86577 20.534C7.80747 20.534 7.75778 20.5299 7.72077 20.5259L7.74359 22.3232C7.88351 22.2923 8.19733 22.2302 8.4934 22.2302V22.2307Z" fill="#001B3C"/>
<path d="M9.05714 22.5293C9.03788 22.5293 9.01963 22.5202 9.00797 22.5045C8.93649 22.4025 8.75854 22.3494 8.4934 22.3494C8.12077 22.3494 7.70405 22.4555 7.69948 22.4565C7.68174 22.4611 7.66298 22.457 7.64828 22.4459C7.63358 22.4348 7.62496 22.4176 7.62496 22.3994L7.59961 20.4567C7.59961 20.4385 7.60772 20.4213 7.62242 20.4097C7.63611 20.398 7.65487 20.394 7.67312 20.398C7.67312 20.398 7.75018 20.4147 7.86577 20.4147C8.00873 20.4147 8.22369 20.389 8.43205 20.2657C8.58009 20.1783 8.7266 20.1338 8.86754 20.1338C9.03534 20.1338 9.13573 20.1985 9.13978 20.2005C9.15702 20.2121 9.16716 20.2313 9.16665 20.252C9.16665 20.252 9.13725 21.5369 9.11697 22.4707C9.11697 22.4965 9.09922 22.5192 9.07489 22.5273C9.06881 22.5288 9.06323 22.5293 9.05714 22.5293ZM8.4934 22.2307C8.71697 22.2307 8.8863 22.2666 8.99986 22.3378C9.0176 21.5162 9.04092 20.4946 9.04599 20.2874C9.01304 20.2732 8.95169 20.2535 8.86754 20.2535C8.7484 20.2535 8.62217 20.2919 8.49289 20.3687C8.2612 20.5057 8.02445 20.534 7.86577 20.534C7.80747 20.534 7.75778 20.5299 7.72077 20.5259L7.74359 22.3232C7.88351 22.2923 8.19733 22.2302 8.4934 22.2302V22.2307Z" fill="#001B3C"/>
<path d="M10.2186 23.8208C10.2115 23.8208 10.2049 23.8198 10.1983 23.8173C10.175 23.8092 10.1593 23.7879 10.1588 23.7627L10.1426 23.263C10.1426 23.2473 10.1482 23.2321 10.1588 23.2205L11.012 22.308C11.0288 22.2903 11.0551 22.2842 11.0779 22.2938C11.1007 22.3029 11.1155 22.3252 11.1155 22.3499L11.1139 22.4217C11.1124 22.5369 11.1119 22.5389 11.1246 22.5925C11.1327 22.6283 11.1646 22.643 11.1656 22.644C11.1834 22.6516 11.1966 22.6672 11.2006 22.6854C11.2047 22.7036 11.2006 22.7233 11.1879 22.7375L10.2637 23.8001C10.2521 23.8132 10.2354 23.8208 10.2186 23.8208ZM10.2627 23.2842L10.2734 23.6071L11.0556 22.7082C11.0359 22.6875 11.0171 22.6581 11.008 22.6192C10.9973 22.5728 10.9938 22.5505 10.9938 22.503L10.2622 23.2847L10.2627 23.2842Z" fill="#001B3C"/>
<path d="M11.0565 22.3928H11.0514L10.7249 22.366C10.692 22.363 10.6671 22.3347 10.6702 22.3018C10.6727 22.269 10.7011 22.2447 10.7346 22.2473L11.061 22.274C11.094 22.2766 11.1183 22.3054 11.1158 22.3382C11.1133 22.3695 11.0874 22.3928 11.0565 22.3928Z" fill="#001B3C"/>
<path d="M10.2057 23.8274C10.2011 23.8274 10.1961 23.8274 10.1915 23.8258L7.15373 23.0902C7.0858 23.077 6.95094 22.9992 6.9474 22.7981C6.94537 22.7127 6.96717 22.646 7.01178 22.6011C7.07515 22.5369 7.1588 22.5445 7.1588 22.5445C7.16083 22.5445 7.16336 22.5455 7.1659 22.546L10.2189 23.1821C10.2473 23.1877 10.267 23.2124 10.2665 23.2402V23.7688C10.2665 23.7864 10.2569 23.8041 10.2427 23.8152C10.232 23.8238 10.2189 23.8279 10.2057 23.8279V23.8274ZM7.14663 22.6632C7.13751 22.6632 7.11469 22.6662 7.09695 22.6839C7.07617 22.7056 7.06603 22.7435 7.06704 22.7956C7.07008 22.9452 7.16843 22.9709 7.17959 22.9734L10.1464 23.6919L10.1474 23.2877L7.14663 22.6632Z" fill="#001B3C"/>
<path d="M7.06183 22.694C7.0456 22.694 7.02938 22.6879 7.01721 22.6743C6.99491 22.65 6.99744 22.6121 7.02228 22.5899L7.36652 22.2791C7.39085 22.2574 7.42887 22.2589 7.45118 22.2837C7.47298 22.3079 7.47146 22.3458 7.44662 22.3676L7.10188 22.6788C7.09072 22.6889 7.07602 22.694 7.06183 22.694Z" fill="#001B3C"/>
<path d="M7.71072 23.2185C7.67726 23.2185 7.65039 23.1917 7.65039 23.1588V22.742C7.65039 22.7092 7.67726 22.6824 7.71072 22.6824C7.74418 22.6824 7.77004 22.7092 7.77004 22.742V23.1588C7.77004 23.1922 7.74367 23.2185 7.71072 23.2185Z" fill="#001B3C"/>
<path d="M7.99877 23.2911C7.96582 23.2911 7.93945 23.2643 7.93945 23.2315V22.8257C7.93945 22.7929 7.96582 22.7661 7.99877 22.7661C8.03172 22.7661 8.05961 22.7929 8.05961 22.8257V23.2315C8.05961 23.2643 8.03223 23.2911 7.99877 23.2911Z" fill="#001B3C"/>
<path d="M9.2942 23.5907C9.26124 23.5907 9.23438 23.564 9.23438 23.5311V23.094C9.23438 23.0612 9.26074 23.0344 9.2942 23.0344C9.32766 23.0344 9.35402 23.0612 9.35402 23.094V23.5311C9.35402 23.564 9.32715 23.5907 9.2942 23.5907Z" fill="#001B3C"/>
<path d="M10.3149 24.7298C10.3088 24.7298 10.3037 24.7293 10.2987 24.7277L6.81986 23.7536C6.74026 23.7359 6.59375 23.6444 6.59375 23.4196C6.59375 23.2124 6.71542 23.1392 6.81986 23.1392H6.83355C6.83659 23.1397 6.83963 23.1397 6.84216 23.1412L10.3286 23.982C10.3555 23.9885 10.3747 24.0128 10.3747 24.0396V24.6701C10.3747 24.6888 10.3661 24.7065 10.3514 24.7181C10.3408 24.7257 10.3281 24.7298 10.3154 24.7298H10.3149ZM6.81935 23.2579C6.77778 23.2579 6.71289 23.2806 6.71289 23.4191C6.71289 23.6005 6.83355 23.6333 6.84723 23.6369L10.2551 24.5913V24.086L6.81935 23.2574V23.2579Z" fill="#001B3C"/>
<path d="M6.72173 23.2911C6.70551 23.2911 6.68878 23.2841 6.67712 23.2704C6.65532 23.2457 6.65734 23.2078 6.68269 23.186L6.99499 22.9142C7.02033 22.893 7.05785 22.895 7.07965 22.9203C7.10145 22.945 7.09891 22.9824 7.07407 23.0046L6.76127 23.276C6.75012 23.2856 6.73592 23.2906 6.72173 23.2906V23.2911Z" fill="#001B3C"/>
<path d="M11.3002 22.9436H11.2941L11.0193 22.9163C10.9864 22.9128 10.9621 22.884 10.9651 22.8516C10.9681 22.8188 10.997 22.795 11.0305 22.7975L11.3053 22.8248C11.3382 22.8284 11.3621 22.8572 11.3585 22.89C11.356 22.9208 11.3296 22.9436 11.2997 22.9436H11.3002Z" fill="#001B3C"/>
<path d="M7.19239 23.8242C7.17009 23.8242 7.15234 23.806 7.15234 23.7843V23.3124C7.15234 23.2907 7.17009 23.2725 7.19239 23.2725C7.2147 23.2725 7.23194 23.2907 7.23194 23.3124V23.7843C7.23194 23.806 7.21419 23.8242 7.19239 23.8242Z" fill="#001B3C"/>
<path d="M9.21532 24.3906C9.19302 24.3906 9.17578 24.3729 9.17578 24.3502V23.799C9.17578 23.7767 9.19353 23.759 9.21532 23.759C9.23712 23.759 9.25487 23.7767 9.25487 23.799V24.3502C9.25487 24.3724 9.23763 24.3906 9.21532 24.3906Z" fill="#001B3C"/>
<path d="M9.07035 20.218C8.82397 20.218 8.6151 20.0624 8.5502 19.8315C8.54615 19.8158 8.55122 19.7996 8.56338 19.79C8.57555 19.7799 8.59279 19.7779 8.60698 19.786C8.60698 19.786 8.64551 19.8057 8.69925 19.8234C8.6521 19.7552 8.61814 19.6713 8.59837 19.6006C8.5938 19.5854 8.59837 19.5687 8.61155 19.5591C8.62371 19.549 8.64044 19.5475 8.65515 19.5551C8.65515 19.5551 8.69722 19.5768 8.7535 19.596C8.72054 19.5414 8.6957 19.4778 8.68049 19.4227C8.67644 19.407 8.68151 19.3909 8.69368 19.3808C8.70635 19.3707 8.72359 19.3696 8.73778 19.3762C8.7388 19.3762 8.82092 19.4202 8.89241 19.4333C8.95882 19.357 8.97403 19.2519 8.98518 19.1741C8.99583 19.1024 9.00495 19.0352 9.0663 19.0352C9.12206 19.0352 9.1322 19.0948 9.14386 19.1635C9.15654 19.2403 9.17428 19.3434 9.24171 19.4212C9.31826 19.4091 9.40546 19.3752 9.40647 19.3747C9.42016 19.3702 9.43588 19.3727 9.44754 19.3828C9.45818 19.3929 9.46325 19.4086 9.4592 19.4232C9.44348 19.4783 9.41864 19.5419 9.38518 19.597C9.44145 19.5778 9.48353 19.5556 9.48404 19.5556C9.49823 19.5475 9.51547 19.5495 9.52815 19.5596C9.54031 19.5692 9.54538 19.5859 9.54133 19.6011C9.52257 19.6693 9.48708 19.7547 9.43892 19.8254C9.49317 19.8067 9.53169 19.786 9.5322 19.786C9.5464 19.7779 9.56363 19.7799 9.5758 19.79C9.58848 19.7996 9.59405 19.8158 9.58949 19.8315C9.5246 20.0624 9.31573 20.218 9.06934 20.218H9.07035ZM8.66072 19.8951C8.73677 20.0437 8.8919 20.1387 9.07035 20.1387C9.24881 20.1387 9.40343 20.0437 9.47998 19.8956C9.43638 19.9113 9.38163 19.9275 9.32434 19.9335C9.3066 19.9351 9.28936 19.9249 9.28277 19.9078C9.27618 19.8906 9.28277 19.8714 9.29748 19.8613C9.35324 19.8234 9.40242 19.7436 9.43537 19.6637C9.39228 19.6799 9.33702 19.6971 9.28125 19.7026C9.26402 19.7046 9.24627 19.6945 9.24019 19.6774C9.2336 19.6602 9.24019 19.641 9.25388 19.6309C9.29443 19.6026 9.33094 19.5409 9.35679 19.4768C9.31928 19.4879 9.27314 19.4995 9.23106 19.5041C9.2189 19.5051 9.20724 19.501 9.19862 19.4924C9.10179 19.3959 9.07948 19.2646 9.06528 19.1787C9.06528 19.1787 9.06528 19.1842 9.06376 19.1867C9.05109 19.2752 9.03233 19.4091 8.9355 19.5056C8.92739 19.5142 8.91522 19.5182 8.90305 19.5172C8.86503 19.5126 8.82295 19.5 8.78746 19.4869C8.81281 19.5465 8.84729 19.6031 8.8843 19.6304C8.899 19.641 8.90508 19.6597 8.89849 19.6769C8.8919 19.6935 8.87466 19.7046 8.85692 19.7021C8.80166 19.6966 8.74741 19.6804 8.70381 19.6642C8.73677 19.7441 8.78493 19.8229 8.8407 19.8613C8.85591 19.8714 8.86148 19.8906 8.8554 19.9073C8.84931 19.9244 8.83106 19.9351 8.81383 19.933C8.75755 19.927 8.70331 19.9113 8.66022 19.8961V19.8951H8.66072Z" fill="#001B3C"/>
<path d="M2.88395 15.6797C2.86722 15.6797 2.84998 15.6726 2.83832 15.6584C2.81703 15.6332 2.82007 15.5953 2.84593 15.5746L3.30068 15.1936C3.32653 15.1724 3.36456 15.1759 3.38483 15.2012C3.40613 15.2259 3.40309 15.2638 3.37774 15.285L2.92197 15.666C2.91133 15.6756 2.89713 15.6802 2.88344 15.6802L2.88395 15.6797Z" fill="#001B3C"/>
<path d="M2.86634 16.0333C2.8491 16.0333 2.83237 16.0262 2.8202 16.0121C2.79942 15.9868 2.80297 15.9494 2.82781 15.9282L3.29219 15.5427C3.31754 15.5215 3.35455 15.525 3.37635 15.5503C3.39764 15.5755 3.39409 15.6129 3.36874 15.6342L2.90436 16.0197C2.8927 16.0293 2.87952 16.0338 2.86583 16.0338L2.86634 16.0333Z" fill="#001B3C"/>
<path d="M3.12303 16.6494C2.79807 16.6494 2.53647 16.3948 2.52734 16.0714C2.52734 16.0552 2.53343 16.0396 2.54407 16.0284C2.55523 16.0168 2.57094 16.0103 2.58666 16.0103H3.6589C3.67512 16.0103 3.69084 16.0168 3.70148 16.0284C3.71314 16.0396 3.71923 16.0552 3.71821 16.0714C3.70959 16.3953 3.44749 16.6494 3.12253 16.6494H3.12303ZM2.65206 16.129C2.68805 16.3584 2.88425 16.5297 3.12303 16.5297C3.36181 16.5297 3.55801 16.3579 3.59401 16.129H2.65206Z" fill="#001B3C"/>
<path d="M3.92458 15.2971H2.32154C2.28859 15.2971 2.26172 15.2704 2.26172 15.2375V14.9717C2.26172 14.9384 2.28859 14.9121 2.32154 14.9121H3.92458C3.95753 14.9121 3.98491 14.9389 3.98491 14.9717V15.2375C3.98491 15.2704 3.95753 15.2971 3.92458 15.2971ZM2.38136 15.1779H3.86475V15.0314H2.38136V15.1779Z" fill="#001B3C"/>
<path d="M3.3666 16.1284H2.84747C2.83074 16.1284 2.81553 16.1213 2.80336 16.1102C2.79272 16.0986 2.78663 16.0824 2.78714 16.0657L2.82871 15.2346C2.83074 15.2032 2.85659 15.178 2.88853 15.178H3.32351C3.35494 15.178 3.38181 15.2027 3.38333 15.2346L3.42491 16.0561C3.42491 16.0607 3.42592 16.0647 3.42592 16.0688C3.42592 16.1021 3.39956 16.1284 3.3666 16.1284ZM2.91033 16.0092H3.30273L3.26673 15.2967H2.94633L2.91033 16.0092Z" fill="#001B3C"/>
<path d="M3.31093 15.0315H2.90231C2.88609 15.0315 2.86987 15.0249 2.85871 15.0133C2.84756 15.0017 2.84198 14.9855 2.84198 14.9699L3.00726 11.6719H1.73527L2.41106 13.1989C2.41461 13.207 2.41664 13.2155 2.41664 13.2246C2.40295 13.6976 2.0212 14.0679 1.54719 14.0679C1.07317 14.0679 0.690916 13.6976 0.677734 13.2246C0.677734 13.2161 0.679255 13.207 0.683311 13.1989L1.49193 11.3667C1.50156 11.345 1.52285 11.3314 1.54668 11.3314H3.025L3.04528 10.9135C3.04731 10.8822 3.07316 10.8574 3.10561 10.8574C3.13704 10.8574 3.1634 10.8822 3.16492 10.9135L3.18622 11.3314H4.68583C4.70915 11.3314 4.73044 11.345 4.74008 11.3667L5.5492 13.1989C5.55275 13.207 5.55427 13.2155 5.55427 13.2246C5.54109 13.6976 5.15883 14.0679 4.68431 14.0679C4.20979 14.0679 3.82804 13.6976 3.81536 13.2246C3.81536 13.2161 3.81688 13.207 3.82043 13.1989L4.49622 11.6719H3.20396L3.37025 14.9598C3.37075 14.9638 3.37126 14.9678 3.37126 14.9724C3.37126 15.0047 3.34439 15.032 3.31144 15.032L3.31093 15.0315ZM2.96467 14.9123H3.24705L3.1051 12.1065L2.96467 14.9123ZM3.9345 13.2337C3.95225 13.6354 4.27924 13.9482 4.6838 13.9482C5.08836 13.9482 5.41536 13.6354 5.43361 13.2337L4.64629 11.4501H3.12893C3.1198 11.4501 3.1122 11.4481 3.1051 11.4451C3.0975 11.4481 3.08938 11.4501 3.08127 11.4501H1.58521L0.797379 13.2337C0.81563 13.6354 1.14262 13.9482 1.54719 13.9482C1.95175 13.9482 2.27823 13.6354 2.29699 13.2337L1.58926 11.6355C1.58166 11.6174 1.58318 11.5961 1.59433 11.579C1.60498 11.5623 1.62374 11.5517 1.64402 11.5517H3.06961C3.08229 11.5517 3.09445 11.5557 3.10459 11.5628C3.11473 11.5557 3.1269 11.5517 3.13957 11.5517H4.58646C4.60674 11.5517 4.6255 11.5623 4.63665 11.579C4.6473 11.5956 4.64933 11.6169 4.64122 11.6355L3.93399 13.2337H3.9345Z" fill="#001B3C"/>
<path d="M2.14311 13.2634H0.951223C0.930944 13.2634 0.912186 13.2528 0.900526 13.2361C0.889373 13.2195 0.887345 13.1982 0.895963 13.1795L1.49114 11.8123C1.50128 11.79 1.52258 11.7759 1.5464 11.7759C1.57023 11.7759 1.59152 11.79 1.60116 11.8123L2.19279 13.1715C2.19887 13.1805 2.20242 13.1922 2.20242 13.2033C2.20242 13.2366 2.17555 13.2629 2.1426 13.2629H2.14311V13.2634ZM1.04248 13.1442H2.05084L1.5464 11.9856L1.04197 13.1442H1.04248Z" fill="#001B3C"/>
<path d="M5.28153 13.2634H4.08964C4.06936 13.2634 4.05061 13.2528 4.03945 13.2361C4.02779 13.2195 4.02627 13.1982 4.03438 13.1795L4.63007 11.8123C4.6392 11.79 4.661 11.7759 4.68482 11.7759C4.70865 11.7759 4.72994 11.79 4.73958 11.8123L5.33172 13.1715C5.3378 13.1805 5.34135 13.1922 5.34135 13.2033C5.34135 13.2366 5.31448 13.2629 5.28153 13.2629V13.2634ZM4.18039 13.1442H5.18926L4.68482 11.9856L4.18039 13.1442Z" fill="#001B3C"/>
<path d="M9.34968 13.9536C9.34562 13.9536 9.34207 13.9536 9.33751 13.9521C9.31673 13.9481 9.3005 13.9334 9.29341 13.9137C9.23764 13.7581 9.13726 13.5858 9.08099 13.5858C9.0749 13.5863 9.06324 13.5888 9.046 13.5913C8.97452 13.604 8.82547 13.6303 8.6526 13.6303C8.11115 13.6303 7.78821 13.3776 7.71876 12.9006C7.58188 11.9558 7.96616 11.643 8.01584 11.6071C8.12788 11.504 8.26223 11.449 8.40418 11.449C8.65412 11.449 8.88732 11.6248 8.93447 11.8502C8.99176 12.1235 8.84322 12.459 8.76565 12.4929C8.74943 12.4999 8.73168 12.5035 8.71293 12.5035C8.61711 12.5035 8.50912 12.405 8.44626 12.3383C8.4199 12.3726 8.3834 12.4368 8.36008 12.5227C8.33118 12.6283 8.31698 12.7875 8.41331 12.9436C8.46451 13.027 8.55272 13.0613 8.71445 13.0613C8.76261 13.0613 8.81178 13.0583 8.86502 13.0563C8.91774 13.0527 8.97249 13.0502 9.02623 13.0502C9.16413 13.0502 9.33751 13.0684 9.45158 13.2114C9.67363 13.4903 9.51089 13.8066 9.39429 13.9344C9.38212 13.9471 9.3659 13.9541 9.34968 13.9541V13.9536ZM9.08149 13.4665C9.20722 13.4665 9.30811 13.6439 9.36539 13.7717C9.42978 13.6651 9.50532 13.4706 9.35779 13.2857C9.2929 13.2043 9.19353 13.1694 9.02623 13.1694C8.97554 13.1694 8.92281 13.1725 8.8711 13.175C8.81939 13.178 8.76616 13.1806 8.71445 13.1806C8.57706 13.1806 8.40672 13.1614 8.31141 13.0067C8.17402 12.7844 8.21965 12.5591 8.25868 12.4449C8.29316 12.3443 8.3621 12.2251 8.43105 12.1998C8.45488 12.1902 8.48225 12.1978 8.49898 12.2175C8.57604 12.311 8.66983 12.3842 8.71242 12.3847C8.75247 12.3347 8.86299 12.0907 8.81736 11.8749C8.78137 11.7031 8.60038 11.5687 8.40418 11.5687C8.29163 11.5687 8.18466 11.6132 8.09442 11.6976C8.0924 11.6996 8.08986 11.7021 8.08682 11.7036C8.08682 11.7036 7.99151 11.7713 7.91344 11.9472C7.84043 12.1124 7.76794 12.4085 7.83688 12.884C7.89772 13.3008 8.17199 13.512 8.6526 13.512C8.81432 13.512 8.95728 13.4868 9.02522 13.4751C9.046 13.4716 9.06121 13.4691 9.06932 13.4681C9.07439 13.467 9.07794 13.467 9.08099 13.467L9.08149 13.4665Z" fill="#001B3C"/>
<path d="M9.10249 14.7596C8.92707 14.7596 8.79932 14.7161 8.71313 14.6257C8.449 14.3503 8.66193 13.9607 8.81098 13.7935C8.82315 13.7799 8.83937 13.7723 8.85813 13.7733C8.87587 13.7743 8.8926 13.7829 8.90325 13.797C8.9068 13.8016 8.98588 13.9067 9.08829 14.0658C9.09995 14.0835 9.10097 14.1068 9.09133 14.1255C9.08525 14.1376 9.08271 14.1452 9.08221 14.1482C9.08829 14.1517 9.10857 14.1603 9.16129 14.1603C9.22821 14.1603 9.32302 14.1457 9.42897 14.1194C9.71136 14.0482 9.93087 14.0951 10.0373 14.2493C10.1392 14.3958 10.1037 14.5595 9.93138 14.7358C9.91566 14.752 9.89184 14.7576 9.87004 14.751C9.84824 14.7439 9.83252 14.7252 9.82948 14.703C9.82694 14.6878 9.8016 14.6803 9.75495 14.6803C9.68956 14.6803 9.59779 14.6959 9.49995 14.7131C9.37524 14.7353 9.23328 14.7596 9.10147 14.7596H9.10249ZM8.85407 13.9319C8.76687 14.0552 8.60414 14.3397 8.79932 14.5433C8.86218 14.6085 8.96155 14.6403 9.10249 14.6403C9.22416 14.6403 9.36053 14.6171 9.48069 14.5959C9.5836 14.5777 9.68043 14.5615 9.75597 14.5615C9.82238 14.5615 9.867 14.5762 9.8964 14.5969C10.0095 14.4559 9.97751 14.3705 9.94 14.317C9.88879 14.2427 9.79906 14.2058 9.67283 14.2058C9.60895 14.2058 9.53696 14.2154 9.45889 14.2346C9.37777 14.2553 9.26015 14.2801 9.16231 14.2801C9.06446 14.2801 9.00819 14.2568 8.97929 14.2098C8.96611 14.1876 8.95547 14.1527 8.97169 14.1037C8.92505 14.033 8.88398 13.9734 8.85458 13.9319H8.85407Z" fill="#001B3C"/>
<path d="M9.16222 14.28H9.14295C9.1247 14.2795 9.10696 14.2704 9.09581 14.2553L8.63041 13.606C8.61723 13.5883 8.61571 13.5646 8.62534 13.5443C8.63548 13.5246 8.65525 13.512 8.67756 13.512C8.82965 13.5095 8.96197 13.4857 9.02635 13.4751C9.04663 13.4716 9.06184 13.4691 9.06995 13.4681C9.07198 13.4681 9.07553 13.467 9.07806 13.467H9.08313C9.1024 13.4686 9.12217 13.4787 9.13282 13.4948L9.55005 14.1325C9.5607 14.1492 9.56272 14.1699 9.55512 14.1881C9.54752 14.2063 9.53129 14.2199 9.51152 14.2234C9.49378 14.227 9.47603 14.2305 9.45727 14.2351C9.37667 14.2558 9.25956 14.2805 9.16121 14.2805H9.16222V14.28ZM8.79213 13.6252L9.17591 14.1603C9.23624 14.1588 9.31532 14.1471 9.40354 14.1254L9.05373 13.5903C9.05373 13.5903 9.05018 13.5913 9.04714 13.5913C8.99644 13.6004 8.90367 13.6166 8.79213 13.6247V13.6252Z" fill="#001B3C"/>
<path d="M10.3491 16.649C10.3465 16.649 10.3415 16.649 10.3384 16.6485C10.2614 16.6378 10.237 16.5585 10.2162 16.4888C10.2025 16.4428 10.1863 16.3913 10.1595 16.361C10.1422 16.3413 10.1214 16.3226 10.0996 16.3023C10.0317 16.2407 9.95463 16.171 9.94754 16.0391C9.94652 16.0224 9.94551 16.0063 9.945 15.9901C9.9379 15.8415 9.93436 15.7678 9.81775 15.6632C9.76908 15.6197 9.7123 15.602 9.6464 15.5813C9.53233 15.5459 9.40255 15.506 9.29456 15.3236C9.11509 15.02 9.45324 14.7062 9.46795 14.693C9.48011 14.6819 9.49684 14.6764 9.51307 14.6784C9.52929 14.6784 9.5445 14.687 9.55464 14.6996C9.74272 14.931 9.79291 15.0341 9.80508 15.0821C9.81471 15.0811 9.82485 15.0801 9.8355 15.0786C9.87504 15.074 9.92371 15.068 9.97441 15.068C10.0454 15.068 10.1042 15.0801 10.1534 15.1038C10.3622 15.2079 10.3541 15.3944 10.3298 15.5257C10.2963 15.7102 10.3556 15.7668 10.4185 15.8264C10.4652 15.8708 10.5174 15.9204 10.5204 16.0098C10.5245 16.1482 10.4981 16.5333 10.4114 16.6222C10.3886 16.6454 10.3648 16.65 10.3485 16.65V16.649H10.3491ZM9.50495 14.8274C9.43144 14.9123 9.30166 15.0978 9.39849 15.263C9.48315 15.406 9.57998 15.4358 9.68239 15.4676C9.7554 15.4899 9.82992 15.5136 9.89836 15.5742C10.052 15.7122 10.0575 15.8324 10.0652 15.9845C10.0652 15.9997 10.0667 16.0159 10.0677 16.0325C10.0717 16.1154 10.1194 16.1588 10.1807 16.2144C10.2041 16.2351 10.2274 16.2574 10.2497 16.2821C10.2938 16.3322 10.3141 16.3973 10.3308 16.4544C10.3349 16.4676 10.3399 16.4837 10.345 16.4984C10.3759 16.4049 10.4063 16.1811 10.4013 16.0128C10.4003 15.9739 10.38 15.9532 10.3369 15.9123C10.2654 15.8451 10.1676 15.7516 10.2127 15.504C10.2416 15.3474 10.2101 15.265 10.1001 15.2099C10.0682 15.1943 10.0271 15.1867 9.97441 15.1867C9.93081 15.1867 9.88771 15.1917 9.8502 15.1968C9.82079 15.2003 9.79494 15.2034 9.77314 15.2034C9.75996 15.2034 9.71788 15.2034 9.69456 15.17C9.68594 15.1584 9.67479 15.1336 9.68645 15.0998C9.67073 15.0553 9.58911 14.9371 9.50445 14.8285V14.8274H9.50495Z" fill="#001B3C"/>
<path d="M10.1606 15.2336C10.15 15.2336 10.1393 15.2311 10.1292 15.225C10.1211 15.2195 10.1114 15.2144 10.1018 15.2094C10.0699 15.1937 10.0283 15.1861 9.97607 15.1861C9.93247 15.1861 9.88938 15.1912 9.85187 15.1962C9.83716 15.1977 9.82347 15.1998 9.81181 15.2008C9.79052 15.2028 9.76974 15.1932 9.75706 15.1765L9.6359 15.0077C9.59838 14.9517 9.55529 14.892 9.52436 14.8521L9.41182 14.695C9.39914 14.6783 9.39711 14.6571 9.40523 14.6379C9.41283 14.6187 9.43007 14.6055 9.45035 14.602L9.47823 14.597C9.60852 14.5747 9.73019 14.5545 9.80928 14.5661C9.82652 14.5682 9.84173 14.5778 9.85085 14.5924L10.2062 15.1361C10.2159 15.1467 10.2214 15.1603 10.2214 15.1755C10.2214 15.2088 10.1951 15.2351 10.1616 15.2351H10.1606V15.2336ZM9.56492 14.7026L9.62119 14.7809C9.65161 14.8208 9.69724 14.8824 9.73476 14.94L9.83361 15.0775C9.83361 15.0775 9.83666 15.0775 9.83716 15.077C9.87671 15.0724 9.92538 15.0664 9.97607 15.0664C9.99128 15.0664 10.0055 15.0664 10.0197 15.0679L9.76669 14.6808C9.71549 14.6793 9.6435 14.6889 9.56492 14.7026Z" fill="#001B3C"/>
<path d="M11.263 17.0793C11.2513 17.0793 11.2397 17.0758 11.2295 17.0692L11.0186 16.9257C11.0126 16.9217 11.008 16.9172 11.0039 16.9111L10.4143 16.09C10.4067 16.0799 10.4032 16.0668 10.4032 16.0546V16.0112C10.4022 15.9723 10.3819 15.9516 10.3388 15.9106C10.2673 15.8434 10.1695 15.75 10.2146 15.5024C10.2242 15.4478 10.2273 15.4028 10.2227 15.3649C10.2186 15.3377 10.2349 15.3109 10.2607 15.3018C10.2871 15.2922 10.3165 15.3018 10.3317 15.325L11.2559 16.7393C11.26 16.7449 11.2625 16.7519 11.264 16.7585L11.3213 17.0061C11.3264 17.0303 11.3172 17.0551 11.2965 17.0687C11.2863 17.0753 11.2747 17.0788 11.263 17.0788V17.0793ZM11.0947 16.8338L11.1702 16.8848L11.1494 16.7959L10.3292 15.5408C10.3013 15.7126 10.3591 15.7671 10.4204 15.8247C10.4671 15.8692 10.5193 15.9187 10.5223 16.0082V16.0365L11.0942 16.8338H11.0947Z" fill="#001B3C"/>
<path d="M10.7776 20.3354C10.7624 20.3237 10.7421 20.3207 10.7244 20.3268C10.6311 20.3566 10.5155 20.3834 10.4207 20.4036V20.5254C10.4983 20.5097 10.5936 20.4885 10.6823 20.4637C10.6813 20.8765 10.6722 22.1715 10.6701 22.4909C10.515 22.4631 10.1302 22.4025 9.74948 22.4025C9.4813 22.4025 9.26736 22.4333 9.11172 22.4949C9.10462 22.5096 9.09194 22.5217 9.07572 22.5273C9.06964 22.5288 9.06406 22.5293 9.05798 22.5293C9.03871 22.5293 9.02046 22.5202 9.0088 22.5045C9.00779 22.5025 9.00627 22.5005 9.00424 22.4985C8.88713 22.4606 8.64835 22.3989 8.33149 22.3989C8.04505 22.3989 7.76064 22.4494 7.48587 22.549C7.48232 22.0498 7.45596 20.9953 7.44835 20.7073C7.48739 20.7138 7.54163 20.7234 7.60399 20.7325L7.60298 20.6118C7.48029 20.5936 7.40019 20.5774 7.39816 20.5774C7.38042 20.5739 7.36217 20.5784 7.34797 20.59C7.33378 20.6017 7.32617 20.6188 7.32617 20.637C7.32617 20.6517 7.36622 22.1195 7.36622 22.6354C7.36622 22.6551 7.37636 22.6738 7.39259 22.6849C7.40272 22.692 7.41438 22.695 7.42604 22.695C7.43365 22.695 7.44125 22.694 7.44835 22.691C7.73479 22.5763 8.03187 22.5182 8.33149 22.5182C8.7538 22.5182 9.03466 22.6359 9.0377 22.6369C9.05443 22.6445 9.07319 22.6435 9.08941 22.6349C9.23035 22.5601 9.45291 22.5217 9.74948 22.5217C10.2194 22.5217 10.7122 22.6202 10.7178 22.6207C10.7355 22.6243 10.7533 22.6197 10.7675 22.6086C10.7812 22.5975 10.7898 22.5808 10.7898 22.5626C10.7898 22.5444 10.8025 20.7047 10.8025 20.3829C10.8025 20.3642 10.7933 20.346 10.7776 20.3354Z" fill="#001B3C"/>
<path d="M6.11048 18.44C5.74293 18.44 5.40275 18.2566 5.20098 17.9489L5.17969 17.9165L5.20098 17.8842C5.40275 17.5765 5.74293 17.3926 6.11048 17.3926C6.47803 17.3926 6.81821 17.5765 7.01998 17.8842L7.04128 17.9165L7.01998 17.9489C6.81821 18.2561 6.47803 18.44 6.11048 18.44ZM5.32367 17.9165C5.50516 18.1707 5.79616 18.3203 6.11048 18.3203C6.4248 18.3203 6.71631 18.1707 6.8978 17.9165C6.71631 17.6624 6.42531 17.5118 6.11048 17.5118C5.79565 17.5118 5.50567 17.6624 5.32367 17.9165Z" fill="#001B3C"/>
<path d="M6.32176 17.9099C6.32176 18.0266 6.22695 18.1211 6.10984 18.1211C5.99273 18.1211 5.89844 18.0266 5.89844 17.9099C5.89844 17.7932 5.99324 17.6992 6.10984 17.6992C6.22645 17.6992 6.32176 17.7937 6.32176 17.9099Z" fill="#001B3C"/>
<path d="M1.36266 23.2134L1.27344 23.1699L1.65265 22.1462L1.93047 22.2796L1.36216 23.2129L1.36266 23.2134ZM1.70842 22.2837L1.54669 22.7192L1.78902 22.3221L1.70842 22.2837Z" fill="#001B3C"/>
<path d="M2.40034 23.2134L1.83203 22.2801L2.10985 22.1467L2.49008 23.1704L2.40034 23.2139V23.2134ZM1.97398 22.3221L2.21581 22.7192L2.05358 22.2837L1.97348 22.3221H1.97398Z" fill="#001B3C"/>
<path d="M1.88366 22.3504C1.72447 22.3504 1.5957 22.2215 1.5957 22.0629C1.5957 21.9042 1.72447 21.7759 1.88366 21.7759C2.04285 21.7759 2.17162 21.9047 2.17162 22.0629C2.17162 22.221 2.04234 22.3504 1.88366 22.3504ZM1.88366 21.8956C1.79038 21.8956 1.71484 21.9704 1.71484 22.0634C1.71484 22.1564 1.79038 22.2316 1.88366 22.2316C1.97694 22.2316 2.05198 22.1564 2.05198 22.0634C2.05198 21.9704 1.97644 21.8956 1.88366 21.8956Z" fill="#001B3C"/>
<path d="M18.8862 13.8606C18.8137 13.8606 18.7579 13.8813 18.7194 13.9223C18.6804 13.9632 18.654 14.0127 18.6393 14.0708C18.6246 14.1289 18.617 14.1916 18.617 14.2588V16.9756C18.617 17.5603 18.4558 18.0069 18.1339 18.3161C17.8114 18.6254 17.3597 18.7795 16.7782 18.7795C16.1967 18.7795 15.7384 18.6223 15.4191 18.3086C15.0992 17.9948 14.9395 17.5451 14.9395 16.961V14.2153C14.9395 14.1087 14.9273 14.0233 14.903 13.9576C14.8786 13.893 14.8036 13.8601 14.6779 13.8601H14.5684V13.7879H15.9204V13.8601C15.8429 13.8601 15.7815 13.8626 15.7349 13.8672C15.6888 13.8722 15.6523 13.8864 15.6259 13.9106C15.5995 13.9349 15.5808 13.9708 15.5711 14.0193C15.5615 14.0678 15.5564 14.133 15.5564 14.2148V16.9746C15.5564 17.4193 15.6599 17.771 15.8657 18.0286C16.0715 18.2873 16.4071 18.4162 16.872 18.4162C17.2984 18.4162 17.6294 18.2954 17.8642 18.0539C18.0989 17.8129 18.2165 17.4819 18.2165 17.062V14.1931C18.2165 14.1208 18.2059 14.0602 18.1841 14.0117C18.1623 13.9632 18.1247 13.9263 18.0715 13.8995C18.0183 13.8727 17.9402 13.8596 17.8388 13.8596V13.7874H18.9947V13.8596H18.8857V13.8606H18.8862Z" fill="#001B3C"/>
<path d="M24.0915 13.8935C24.0382 13.9152 24.0007 13.9475 23.9789 13.991C23.9571 14.0344 23.945 14.09 23.9424 14.1577C23.9399 14.2254 23.9389 14.3048 23.9389 14.3967V18.7285H23.5678L20.6527 14.57V18.0984C20.6527 18.1898 20.6542 18.2686 20.6568 18.3338C20.6588 18.399 20.6715 18.4531 20.6933 18.4965C20.7146 18.54 20.7526 18.5713 20.8058 18.5905C20.859 18.6102 20.9341 18.6198 21.0314 18.6198V18.6921H19.8613V18.6198C19.9632 18.6198 20.0408 18.6102 20.094 18.5905C20.1473 18.5713 20.1858 18.541 20.2106 18.5001C20.235 18.4591 20.2476 18.4061 20.2502 18.3404C20.2527 18.2752 20.2537 18.1944 20.2537 18.0979V14.1638C20.2248 14.1011 20.2005 14.0491 20.1812 14.0082C20.162 13.9672 20.1402 13.9359 20.1158 13.9142C20.0915 13.8925 20.0616 13.8778 20.0251 13.8707C19.9891 13.8631 19.9343 13.8596 19.8613 13.8596V13.7874H20.8205C21.2666 14.4584 21.7194 15.1183 22.1802 15.7655C22.6405 16.4128 23.0938 17.0716 23.5394 17.7427V14.3962C23.5394 14.2992 23.5379 14.2173 23.5358 14.1496C23.5333 14.0819 23.5216 14.0263 23.4998 13.9834C23.478 13.9399 23.439 13.9086 23.3832 13.8889C23.3275 13.8697 23.2489 13.8601 23.147 13.8601V13.7879H24.3247V13.8601C24.2228 13.8601 24.1457 13.8712 24.092 13.893H24.0915V13.8935Z" fill="#001B3C"/>
<path d="M25.2168 18.6928V18.6205C25.2989 18.6205 25.3664 18.618 25.4165 18.613C25.4683 18.6084 25.5073 18.5948 25.5367 18.5735C25.5656 18.5518 25.5854 18.5169 25.595 18.4684C25.6046 18.4199 25.6092 18.3527 25.6092 18.2653V14.216C25.6092 14.1291 25.6041 14.0614 25.595 14.0129C25.5854 13.9644 25.5656 13.9295 25.5367 13.9078C25.5073 13.8861 25.4677 13.873 25.4165 13.8679C25.3664 13.8634 25.2989 13.8608 25.2168 13.8608V13.7886H26.6272V13.8608C26.5445 13.8608 26.4781 13.8634 26.4269 13.8679C26.3762 13.873 26.3362 13.8861 26.3073 13.9078C26.2784 13.9295 26.2586 13.9644 26.249 14.0129C26.2394 14.0614 26.2348 14.1291 26.2348 14.216V18.2653C26.2348 18.3522 26.2394 18.4199 26.249 18.4684C26.2586 18.5169 26.2779 18.5518 26.3073 18.5735C26.3362 18.5948 26.3762 18.6084 26.4269 18.613C26.4781 18.618 26.5445 18.6205 26.6272 18.6205V18.6928H25.2168Z" fill="#001B3C"/>
<path d="M31.8135 13.9477C31.7679 14.0058 31.7273 14.0756 31.6939 14.1579L29.9129 18.7433H29.6148L27.7395 14.1726C27.7005 14.0806 27.6533 14.0074 27.5976 13.9513C27.5418 13.8957 27.4632 13.8659 27.3613 13.8608V13.7886H28.6475V13.8608C28.5988 13.8608 28.5532 13.8618 28.5096 13.8644C28.466 13.8669 28.4295 13.8765 28.4001 13.8937C28.3712 13.9109 28.3535 13.9356 28.3459 13.97C28.3383 14.0038 28.3469 14.0493 28.3712 14.1074L29.8541 17.8308L31.2204 14.2666C31.2736 14.1317 31.2858 14.0326 31.2569 13.97C31.228 13.9073 31.1357 13.8709 30.9806 13.8608V13.7886H32.0275V13.8608C31.9306 13.8608 31.8592 13.8896 31.813 13.9477H31.8135Z" fill="#001B3C"/>
<path d="M35.5094 18.6928H32.1953V18.6205C32.3454 18.6205 32.4402 18.5998 32.4787 18.5589C32.5172 18.5175 32.537 18.4199 32.537 18.2653V14.216C32.537 14.0614 32.5172 13.9634 32.4787 13.9225C32.4402 13.8815 32.3454 13.8608 32.1953 13.8608V13.7886H35.4364L35.444 14.5349H35.3421C35.3182 14.3515 35.261 14.2388 35.1712 14.1978C35.0815 14.1569 34.9522 14.1367 34.7829 14.1367H33.3142C33.2316 14.1367 33.1849 14.1448 33.1722 14.162C33.1606 14.1792 33.1545 14.2261 33.1545 14.3029V15.9618H34.6303C34.7073 15.9618 34.7753 15.9582 34.8331 15.9507C34.8919 15.9436 34.939 15.9279 34.975 15.9042C35.012 15.8799 35.0394 15.8435 35.0592 15.7955C35.0784 15.7475 35.0931 15.6818 35.1028 15.5995H35.1971V16.6939H35.1028C35.0931 16.607 35.0784 16.5393 35.0592 16.4908C35.0394 16.4423 35.012 16.4049 34.975 16.3786C34.939 16.3518 34.8929 16.3352 34.8371 16.3276C34.7809 16.3205 34.7124 16.317 34.6303 16.317H33.1545V18.2072C33.1545 18.2507 33.1677 18.2835 33.194 18.3052C33.2209 18.327 33.2523 18.3406 33.2888 18.3452C33.3248 18.3502 33.3634 18.3512 33.4049 18.3487C33.446 18.3462 33.481 18.3452 33.5104 18.3452H34.7094C34.8255 18.3452 34.9258 18.3391 35.011 18.327C35.0957 18.3148 35.1717 18.2896 35.2397 18.2512C35.3076 18.2128 35.3679 18.1607 35.4212 18.0955C35.4744 18.0304 35.5256 17.9419 35.5738 17.8308H35.6904L35.5084 18.6928H35.5094Z" fill="#001B3C"/>
<path d="M39.3972 18.6928C39.2806 18.4371 39.1645 18.2062 39.0484 18.001C38.9318 17.7954 38.8055 17.6039 38.6702 17.4245C38.5338 17.2462 38.3863 17.0744 38.2266 16.9107C38.0669 16.7464 37.8854 16.5747 37.6816 16.3963L37.1584 16.4034V18.2653C37.1584 18.3477 37.1635 18.4128 37.1726 18.4608C37.1827 18.5099 37.1995 18.5457 37.2238 18.57C37.2481 18.5942 37.2841 18.6084 37.3333 18.6134C37.3815 18.6185 37.4443 18.621 37.5219 18.621V18.6933H36.1992V18.621C36.2722 18.621 36.3315 18.6175 36.3772 18.6094C36.4228 18.6023 36.4578 18.5867 36.4826 18.5629C36.5064 18.5387 36.5227 18.5038 36.5298 18.4578C36.5369 18.4113 36.5404 18.3477 36.5404 18.2653V14.216C36.5404 14.1387 36.5369 14.0761 36.5298 14.0276C36.5227 13.9796 36.5064 13.9432 36.4826 13.9194C36.4578 13.8952 36.4228 13.879 36.3772 13.8724C36.331 13.8649 36.2717 13.8613 36.1992 13.8613V13.7891H37.9361C38.1495 13.7891 38.3538 13.8123 38.5505 13.8583C38.7472 13.9043 38.9196 13.9775 39.0702 14.0791C39.2208 14.1801 39.3404 14.3135 39.4296 14.4772C39.5194 14.6415 39.5645 14.8446 39.5645 15.0856C39.5645 15.269 39.53 15.4297 39.4626 15.5671C39.3946 15.7051 39.3029 15.8208 39.1863 15.9153C39.0702 16.0092 38.9369 16.0855 38.7863 16.1437C38.6362 16.2013 38.4786 16.2422 38.3138 16.2664C38.4542 16.3826 38.5683 16.4812 38.6555 16.5635C38.7427 16.6459 38.8192 16.7237 38.8846 16.799C38.95 16.8743 39.0139 16.9516 39.0778 17.0309C39.1401 17.1102 39.2157 17.2037 39.3034 17.3098C39.4002 17.4306 39.492 17.567 39.5792 17.7191C39.6664 17.8712 39.7475 18.0137 39.8225 18.1461C39.8981 18.2795 39.967 18.3911 40.0299 18.4831C40.0927 18.5745 40.1536 18.621 40.2114 18.621V18.6933H39.3972V18.6928ZM37.1579 16.0557H37.5067C37.6811 16.0557 37.8519 16.0406 38.0192 16.0092C38.1865 15.9779 38.3376 15.9223 38.4735 15.8425C38.6088 15.7627 38.7178 15.6556 38.8 15.5196C38.8826 15.3847 38.9242 15.2155 38.9242 15.0128C38.9242 14.834 38.8902 14.6869 38.8223 14.5707C38.7543 14.455 38.6636 14.3646 38.5495 14.2994C38.4355 14.2342 38.3062 14.1897 38.1607 14.165C38.0152 14.1407 37.8671 14.1291 37.7176 14.1291H37.5726C37.5239 14.1291 37.4727 14.1316 37.42 14.1362C37.3668 14.1412 37.3171 14.1534 37.271 14.1726C37.2243 14.1918 37.1873 14.2185 37.1579 14.2519V16.0557Z" fill="#001B3C"/>
<path d="M41.0913 18.5947C41.067 18.617 41.0553 18.6468 41.0553 18.6852H40.9681L40.9316 17.6282L40.9458 17.6064H41.0117C41.0989 17.8141 41.2161 17.9808 41.3641 18.1061C41.5121 18.2315 41.6678 18.3224 41.833 18.378C41.9978 18.4336 42.1651 18.4563 42.3349 18.4467C42.5043 18.4376 42.6579 18.3967 42.7958 18.3239C42.9342 18.2512 43.0457 18.1511 43.1309 18.0233C43.2155 17.8954 43.2576 17.7444 43.2576 17.5706C43.2576 17.3629 43.2013 17.1891 43.0868 17.0486C42.9727 16.9086 42.8307 16.7818 42.6614 16.6681C42.4921 16.5549 42.306 16.4463 42.1053 16.3422C41.9045 16.2386 41.719 16.1229 41.5496 15.9946C41.3798 15.8663 41.2378 15.7172 41.1243 15.5454C41.0107 15.3736 40.9534 15.1604 40.9534 14.9042C40.9534 14.7157 40.9935 14.548 41.0731 14.401C41.1532 14.2534 41.2586 14.1271 41.3894 14.0205C41.5207 13.9144 41.6698 13.8335 41.8371 13.778C42.0039 13.7224 42.1747 13.6946 42.3496 13.6946C42.451 13.6946 42.5519 13.7027 42.6513 13.7198C42.7506 13.737 42.8485 13.7598 42.9453 13.7886C42.9555 13.7936 42.9823 13.8022 43.0254 13.8143C43.069 13.826 43.1162 13.8396 43.1674 13.8537C43.2181 13.8684 43.2657 13.8815 43.3088 13.8937C43.3529 13.9053 43.3768 13.9113 43.3818 13.9113C43.464 13.9017 43.5106 13.8558 43.5202 13.7739H43.6003C43.6196 13.9528 43.6378 14.1362 43.6551 14.3247C43.6718 14.5131 43.6748 14.6965 43.6657 14.8754H43.5861C43.5222 14.692 43.428 14.5399 43.3022 14.4191C43.176 14.2989 43.0371 14.2069 42.884 14.1443C42.7319 14.0811 42.5732 14.0498 42.4084 14.0498C42.2437 14.0498 42.1017 14.0791 41.9684 14.1367C41.8351 14.1948 41.7266 14.2817 41.6419 14.3974C41.5567 14.5131 41.5141 14.6556 41.5141 14.8249C41.5141 14.9552 41.5491 15.0699 41.6191 15.169C41.6896 15.268 41.7732 15.359 41.8705 15.4408C41.9968 15.5424 42.1291 15.6364 42.27 15.7233C42.4105 15.8102 42.5534 15.8925 42.6989 15.9693L42.6477 15.9481C42.8074 16.0305 42.9615 16.1194 43.1091 16.2159C43.2571 16.3129 43.3894 16.4216 43.5055 16.5418C43.6216 16.6631 43.7139 16.799 43.7818 16.9516C43.8498 17.1037 43.8832 17.279 43.8832 17.4766C43.8832 17.6842 43.8376 17.8687 43.7453 18.0309C43.653 18.1925 43.5329 18.329 43.3854 18.4401C43.2373 18.5518 43.0716 18.6362 42.8875 18.6938C42.7035 18.7519 42.5169 18.7807 42.3273 18.7807C42.1245 18.7807 41.9304 18.7564 41.7463 18.7084C41.5623 18.6599 41.3727 18.6094 41.1795 18.5563C41.1456 18.5609 41.1162 18.5745 41.0918 18.5958V18.5947H41.0913Z" fill="#001B3C"/>
<path d="M44.5664 18.6928V18.6205C44.6485 18.6205 44.7155 18.618 44.7667 18.613C44.8174 18.6084 44.8569 18.5948 44.8863 18.5735C44.9157 18.5518 44.935 18.5169 44.9446 18.4684C44.9537 18.4199 44.9593 18.3527 44.9593 18.2653V14.216C44.9593 14.1291 44.9537 14.0614 44.9446 14.0129C44.935 13.9644 44.9157 13.9295 44.8863 13.9078C44.8569 13.8861 44.8174 13.873 44.7667 13.8679C44.716 13.8634 44.6485 13.8608 44.5664 13.8608V13.7886H45.9763V13.8608C45.8937 13.8608 45.8277 13.8634 45.776 13.8679C45.7258 13.873 45.6853 13.8861 45.6564 13.9078C45.627 13.9295 45.6082 13.9644 45.5981 14.0129C45.5885 14.0614 45.5839 14.1291 45.5839 14.216V18.2653C45.5839 18.3522 45.5885 18.4199 45.5981 18.4684C45.6082 18.5169 45.627 18.5518 45.6564 18.5735C45.6853 18.5948 45.7258 18.6084 45.776 18.613C45.8277 18.618 45.8937 18.6205 45.9763 18.6205V18.6928H44.5664Z" fill="#001B3C"/>
<path d="M46.8848 18.6205C46.9568 18.6205 47.0176 18.618 47.0663 18.613C47.1144 18.6084 47.1509 18.5938 47.1753 18.5695C47.1991 18.5452 47.2163 18.5094 47.226 18.4604C47.2361 18.4124 47.2407 18.3472 47.2407 18.2648V14.2155C47.2407 14.1332 47.2361 14.068 47.226 14.02C47.2163 13.9715 47.1991 13.9356 47.1753 13.9114C47.1509 13.8871 47.1144 13.873 47.0663 13.8679C47.0176 13.8634 46.9568 13.8608 46.8848 13.8608V13.7886H48.5709C48.973 13.7886 49.34 13.8386 49.6721 13.9371C50.0041 14.0362 50.2886 14.1872 50.5258 14.3899C50.7636 14.593 50.9476 14.8486 51.0784 15.1579C51.2097 15.4666 51.2751 15.8319 51.2751 16.2518C51.2751 16.6045 51.2193 16.9339 51.1078 17.2406C50.9963 17.5468 50.8026 17.8187 50.5258 18.0551C50.2444 18.2966 49.9306 18.4634 49.5813 18.5554C49.2325 18.6468 48.8761 18.6928 48.5131 18.6928H46.8848V18.6205ZM47.8581 18.1713C47.8581 18.2148 47.8754 18.2486 47.9099 18.2729C47.9433 18.2972 47.9844 18.3148 48.0336 18.327C48.0817 18.3391 48.1299 18.3462 48.1786 18.3487C48.2267 18.3512 48.2632 18.3522 48.2881 18.3522C48.6414 18.3522 48.9644 18.3123 49.2543 18.2325C49.5448 18.1531 49.7922 18.0273 49.996 17.856C50.1993 17.6843 50.3565 17.465 50.468 17.1967C50.5796 16.9289 50.6358 16.6065 50.6358 16.2296C50.6358 15.8526 50.5816 15.5621 50.4756 15.2988C50.3692 15.0356 50.2176 14.8168 50.0214 14.643C49.8247 14.4692 49.5879 14.3403 49.3086 14.2554C49.0298 14.1711 48.719 14.1291 48.3747 14.1291C48.2875 14.1291 48.1973 14.1362 48.1055 14.1504C48.0133 14.165 47.9311 14.2014 47.8581 14.259V18.1713Z" fill="#001B3C"/>
<path d="M54.8514 18.6928V18.6205C54.9629 18.6205 55.045 18.5998 55.0988 18.5589C55.1525 18.5175 55.1525 18.4371 55.0988 18.3159L54.6481 17.2144H52.4605L52.0534 18.2289C52.0002 18.3543 51.9839 18.4513 52.0063 18.5185C52.0281 18.5862 52.1163 18.6205 52.2714 18.6205V18.6928H51.2539V18.6205C51.3122 18.6155 51.3614 18.5983 51.403 18.5695C51.444 18.5402 51.4805 18.5069 51.512 18.4679C51.5434 18.4295 51.5697 18.3856 51.5921 18.3376C51.6139 18.2891 51.6341 18.2411 51.6539 18.1926L53.5145 13.7375H53.9145L55.8481 18.3805C55.9013 18.5109 56.0052 18.5907 56.1609 18.62V18.6923H54.8514V18.6928ZM53.5647 14.4985L52.605 16.8602H54.5244L53.5647 14.4985Z" fill="#001B3C"/>
<path d="M56.6094 18.6205C56.6824 18.6205 56.7427 18.618 56.7914 18.613C56.8395 18.6084 56.876 18.5938 56.9004 18.5695C56.9247 18.5452 56.9414 18.5094 56.9516 18.4604C56.9607 18.4124 56.9663 18.3472 56.9663 18.2648V14.2155C56.9663 14.1332 56.9607 14.068 56.9516 14.02C56.9414 13.9715 56.9247 13.9356 56.9004 13.9114C56.876 13.8871 56.8395 13.873 56.7914 13.8679C56.7427 13.8634 56.6824 13.8608 56.6094 13.8608V13.7886H58.2961C58.6981 13.7886 59.0651 13.8386 59.3972 13.9371C59.7288 14.0362 60.0137 14.1872 60.2514 14.3899C60.4887 14.593 60.6727 14.8486 60.8035 15.1579C60.9348 15.4666 61.0002 15.8319 61.0002 16.2518C61.0002 16.6045 60.9445 16.9339 60.8324 17.2406C60.7209 17.5468 60.5277 17.8187 60.2514 18.0551C59.9701 18.2966 59.6552 18.4634 59.3064 18.5554C58.9577 18.6468 58.6013 18.6928 58.2378 18.6928H56.6094V18.6205ZM57.5838 18.1713C57.5838 18.2148 57.6005 18.2486 57.6345 18.2729C57.6684 18.2972 57.71 18.3148 57.7582 18.327C57.8068 18.3391 57.855 18.3462 57.9037 18.3487C57.9523 18.3512 57.9883 18.3522 58.0127 18.3522C58.3665 18.3522 58.689 18.3123 58.9795 18.2325C59.2699 18.1531 59.5173 18.0273 59.7206 17.856C59.9244 17.6843 60.0821 17.465 60.1931 17.1967C60.3047 16.9289 60.3609 16.6065 60.3609 16.2296C60.3609 15.8526 60.3072 15.5621 60.2002 15.2988C60.0933 15.0356 59.9422 14.8168 59.7465 14.643C59.5498 14.4692 59.3125 14.3403 59.0337 14.2554C58.7554 14.1711 58.4441 14.1291 58.0999 14.1291C58.0127 14.1291 57.9229 14.1362 57.8312 14.1504C57.7389 14.165 57.6568 14.2014 57.5843 14.259V18.1713H57.5838Z" fill="#001B3C"/>
<path d="M14.5918 25.4604C14.6643 25.4604 14.7246 25.4578 14.7733 25.4533C14.822 25.4482 14.858 25.4336 14.8823 25.4093C14.9066 25.3851 14.9234 25.3492 14.9335 25.3012C14.9431 25.2527 14.9482 25.1875 14.9482 25.1052V21.0554C14.9482 20.9735 14.9436 20.9083 14.9335 20.8598C14.9234 20.8118 14.9066 20.7755 14.8823 20.7512C14.858 20.7269 14.822 20.7123 14.7733 20.7077C14.7246 20.7032 14.6643 20.7007 14.5918 20.7007V20.6284H16.278C16.68 20.6284 17.047 20.6779 17.3791 20.7765C17.7112 20.8755 17.9961 21.0261 18.2328 21.2292C18.4701 21.4318 18.6546 21.688 18.7854 21.9972C18.9167 22.3064 18.9821 22.6707 18.9821 23.0911C18.9821 23.4438 18.9264 23.7733 18.8148 24.08C18.7033 24.3867 18.5097 24.6585 18.2334 24.895C17.952 25.136 17.6377 25.3032 17.2884 25.3947C16.9396 25.4866 16.5832 25.5326 16.2197 25.5326H14.5918V25.4599V25.4604ZM15.5652 25.0112C15.5652 25.0546 15.5819 25.089 15.6164 25.1122C15.6498 25.1365 15.6909 25.1547 15.7396 25.1668C15.7882 25.1789 15.8364 25.186 15.8851 25.188C15.9332 25.1906 15.9697 25.1916 15.9946 25.1916C16.3479 25.1916 16.6704 25.1522 16.9609 25.0723C17.2514 24.9925 17.4988 24.8672 17.7021 24.6954C17.9053 24.5241 18.063 24.3043 18.1745 24.036C18.2861 23.7682 18.3418 23.4458 18.3418 23.0689C18.3418 22.7117 18.2881 22.4014 18.1816 22.1382C18.0752 21.8749 17.9236 21.6567 17.7274 21.4828C17.5307 21.309 17.2939 21.1802 17.0151 21.0958C16.7363 21.0109 16.425 20.9685 16.0813 20.9685C15.9941 20.9685 15.9038 20.976 15.8121 20.9902C15.7203 21.0048 15.6377 21.0407 15.5647 21.0983V25.0107H15.5652V25.0112Z" fill="#001B3C"/>
<path d="M22.9064 25.5331H19.5918V25.4604C19.7419 25.4604 19.8362 25.4397 19.8757 25.3987C19.9142 25.3578 19.9335 25.2598 19.9335 25.1057V21.0559C19.9335 20.9013 19.9142 20.8037 19.8757 20.7623C19.8362 20.7214 19.7419 20.7007 19.5918 20.7007V20.6284H22.8339L22.841 21.3742H22.7391C22.7147 21.1908 22.6579 21.0781 22.5682 21.0377C22.4785 20.9968 22.3492 20.976 22.1794 20.976H20.7112C20.6291 20.976 20.5819 20.9841 20.5692 21.0013C20.5576 21.018 20.551 21.0655 20.551 21.1428V22.8016H22.0263C22.1038 22.8016 22.1718 22.7981 22.2301 22.791C22.2884 22.7834 22.3355 22.7683 22.372 22.744C22.408 22.7198 22.4359 22.6839 22.4557 22.6349C22.4749 22.5869 22.4891 22.5217 22.4993 22.4393H22.5936V23.5333H22.4993C22.4891 23.4463 22.4749 23.3786 22.4557 23.3301C22.4359 23.2816 22.408 23.2447 22.372 23.218C22.3355 23.1917 22.2894 23.1745 22.2336 23.1674C22.1778 23.1599 22.1084 23.1563 22.0263 23.1563H20.551V25.0471C20.551 25.0905 20.5642 25.1234 20.5905 25.1451C20.6174 25.1668 20.6493 25.1799 20.6853 25.185C20.7218 25.1901 20.7604 25.1911 20.8014 25.1885C20.8425 25.1865 20.8775 25.185 20.9069 25.185H22.1059C22.222 25.185 22.3228 25.1794 22.4075 25.1673C22.4922 25.1552 22.5687 25.1299 22.6367 25.091C22.7046 25.0526 22.7649 25.0006 22.8181 24.9349C22.8709 24.8697 22.9221 24.7818 22.9707 24.6711H23.0868L22.9053 25.5331H22.9064Z" fill="#001B3C"/>
<path d="M28.9869 25.4856C28.7086 25.5751 28.4166 25.6195 28.1114 25.6195C27.7235 25.6195 27.3783 25.5579 27.0756 25.4346C26.7725 25.3113 26.5144 25.1385 26.3015 24.9167C26.0881 24.6949 25.9258 24.4276 25.8138 24.1163C25.7023 23.8046 25.6465 23.461 25.6465 23.0841C25.6465 22.7071 25.7048 22.3853 25.8209 22.0735C25.9375 21.7618 26.1033 21.4914 26.3187 21.262C26.5347 21.0326 26.7938 20.8538 27.0969 20.7259C27.3996 20.5981 27.7372 20.5339 28.1109 20.5339C28.3679 20.5339 28.6244 20.5627 28.8815 20.6208C28.9103 20.6309 28.9484 20.6416 28.994 20.6537C29.0396 20.6658 29.0873 20.6789 29.136 20.6936C29.1846 20.7077 29.2302 20.7204 29.2744 20.73C29.318 20.7396 29.3539 20.7446 29.3834 20.7446C29.4756 20.7446 29.5339 20.7012 29.5583 20.6143H29.6384V20.8826C29.6384 20.9791 29.6368 21.0781 29.6343 21.1792C29.6318 21.2807 29.6272 21.3798 29.6196 21.4763C29.6125 21.5728 29.5993 21.6577 29.5795 21.7304C29.4097 21.4551 29.2211 21.2464 29.0133 21.1039C28.8044 20.9614 28.5332 20.8902 28.1991 20.8902C27.865 20.8902 27.5932 20.9493 27.356 21.0675C27.1187 21.1857 26.9235 21.3439 26.7709 21.542C26.6183 21.74 26.5043 21.972 26.4287 22.2372C26.3542 22.503 26.3162 22.7829 26.3162 23.0775C26.3162 23.3721 26.3552 23.6666 26.4323 23.9319C26.5099 24.1977 26.627 24.4281 26.7851 24.6236C26.9428 24.8192 27.141 24.9738 27.3813 25.0875C27.6211 25.2007 27.9055 25.2578 28.2351 25.2578C28.3517 25.2578 28.4774 25.2557 28.6133 25.2502C28.7491 25.2456 28.8835 25.2325 29.0168 25.2108C29.1501 25.1885 29.2774 25.1552 29.3981 25.1092C29.5197 25.0632 29.6287 24.9996 29.7256 24.9172L29.7545 25.0405C29.5218 25.2482 29.2662 25.3967 28.9874 25.4861H28.9869V25.4856Z" fill="#001B3C"/>
<path d="M33.2266 25.5331V25.4604C33.3041 25.4604 33.367 25.4568 33.4162 25.4497C33.4643 25.4422 33.5008 25.427 33.5247 25.4028C33.549 25.3785 33.5662 25.3436 33.5759 25.2977C33.5855 25.2517 33.5901 25.188 33.5901 25.1057V23.2078H31.2129V25.1057C31.2129 25.188 31.2164 25.2517 31.2241 25.2977C31.2312 25.3431 31.2469 25.3785 31.2712 25.4028C31.2955 25.427 31.3305 25.4422 31.3766 25.4497C31.4223 25.4568 31.4846 25.4604 31.5622 25.4604V25.5331H30.2324V25.4604C30.3095 25.4604 30.3729 25.4568 30.421 25.4497C30.4692 25.4422 30.5057 25.427 30.5305 25.4028C30.5543 25.3785 30.5716 25.3436 30.5812 25.2977C30.5908 25.2517 30.5959 25.188 30.5959 25.1057V21.0559C30.5959 20.974 30.5908 20.9098 30.5812 20.8639C30.5716 20.8184 30.5543 20.783 30.5305 20.7588C30.5057 20.7345 30.4697 20.7188 30.421 20.7118C30.3723 20.7047 30.3095 20.7012 30.2324 20.7012V20.6289H31.5622V20.7012C31.4846 20.7012 31.4228 20.7047 31.3766 20.7118C31.3305 20.7194 31.2955 20.735 31.2712 20.7588C31.2469 20.783 31.2312 20.8194 31.2241 20.8679C31.2164 20.9159 31.2129 20.9791 31.2129 21.0559V22.838H33.5901V21.0559C33.5901 20.974 33.585 20.9098 33.5759 20.8639C33.5662 20.8184 33.549 20.783 33.5247 20.7588C33.5008 20.7345 33.4643 20.7188 33.4162 20.7118C33.3675 20.7047 33.3041 20.7012 33.2266 20.7012V20.6289H34.564V20.7012C34.4864 20.7012 34.4251 20.7047 34.3789 20.7118C34.3328 20.7194 34.2968 20.735 34.2704 20.7588C34.2436 20.783 34.2263 20.8194 34.2192 20.8679C34.2121 20.9159 34.2086 20.9791 34.2086 21.0559V25.1057C34.2086 25.188 34.2121 25.2517 34.2192 25.2977C34.2263 25.3431 34.2436 25.3785 34.2704 25.4028C34.2968 25.427 34.3328 25.4422 34.3789 25.4497C34.4251 25.4568 34.4869 25.4604 34.564 25.4604V25.5331H33.2266Z" fill="#001B3C"/>
<path d="M35.4727 25.5331V25.4604C35.5553 25.4604 35.6217 25.4578 35.6729 25.4533C35.7236 25.4482 35.7637 25.4351 35.7931 25.4129C35.822 25.3916 35.8412 25.3563 35.8514 25.3083C35.861 25.2598 35.8656 25.1921 35.8656 25.1057V21.0559C35.8656 20.969 35.8605 20.9013 35.8514 20.8532C35.8417 20.8052 35.8225 20.7699 35.7931 20.7487C35.7637 20.7269 35.7236 20.7133 35.6729 20.7082C35.6222 20.7037 35.5553 20.7012 35.4727 20.7012V20.6289H36.883V20.7012C36.8004 20.7012 36.734 20.7037 36.6828 20.7082C36.6321 20.7133 36.592 20.7264 36.5631 20.7487C36.5337 20.7699 36.5145 20.8052 36.5048 20.8532C36.4952 20.9013 36.4907 20.969 36.4907 21.0559V25.1057C36.4907 25.1926 36.4952 25.2603 36.5048 25.3083C36.5145 25.3568 36.5337 25.3916 36.5631 25.4129C36.592 25.4346 36.6321 25.4482 36.6828 25.4533C36.734 25.4578 36.8004 25.4604 36.883 25.4604V25.5331H35.4727Z" fill="#001B3C"/>
<path d="M41.0691 25.5331H37.791V25.4604C37.8686 25.4604 37.9304 25.4568 37.9766 25.4497C38.0227 25.4422 38.0577 25.427 38.0825 25.4028C38.1064 25.3785 38.1221 25.3436 38.1292 25.2977C38.1363 25.2517 38.1403 25.188 38.1403 25.1057V21.0559C38.1403 20.9791 38.1363 20.9159 38.1292 20.8679C38.1221 20.8194 38.1064 20.7835 38.0825 20.7588C38.0577 20.7345 38.0227 20.7188 37.9766 20.7118C37.9304 20.7047 37.8686 20.7012 37.791 20.7012V20.6289H39.1284V20.7012C39.0513 20.7012 38.988 20.7047 38.9398 20.7118C38.8911 20.7194 38.8531 20.735 38.8268 20.7588C38.8004 20.783 38.7816 20.8184 38.772 20.8639C38.7624 20.9098 38.7578 20.9735 38.7578 21.0559V25.0475C38.7578 25.091 38.771 25.1238 38.7973 25.1456C38.8237 25.1673 38.8557 25.1804 38.8916 25.1855C38.9276 25.1905 38.9667 25.1916 39.0082 25.189C39.0493 25.187 39.0843 25.1855 39.1137 25.1855H40.1748C40.3056 25.1855 40.4222 25.1809 40.5241 25.1708C40.6255 25.1612 40.7152 25.1385 40.7928 25.1021C40.8703 25.0662 40.9398 25.0107 40.9996 24.9354C41.0599 24.8611 41.1198 24.7606 41.1781 24.6347L41.2724 24.6565L41.0691 25.5331Z" fill="#001B3C"/>
<path d="M44.9435 25.5331H41.6289V25.4604C41.779 25.4604 41.8738 25.4397 41.9128 25.3987C41.9513 25.3578 41.9711 25.2598 41.9711 25.1057V21.0559C41.9711 20.9013 41.9513 20.8037 41.9128 20.7623C41.8738 20.7214 41.779 20.7007 41.6289 20.7007V20.6284H44.871L44.8781 21.3742H44.7762C44.7518 21.1908 44.6951 21.0781 44.6053 21.0377C44.5151 20.9968 44.3858 20.976 44.2165 20.976H42.7483C42.6657 20.976 42.6185 20.9841 42.6063 21.0013C42.5942 21.018 42.5886 21.0655 42.5886 21.1428V22.8016H44.0639C44.1414 22.8016 44.2089 22.7981 44.2672 22.791C44.3255 22.7834 44.3726 22.7683 44.4091 22.744C44.4456 22.7198 44.4735 22.6839 44.4928 22.6349C44.512 22.5869 44.5267 22.5217 44.5364 22.4393H44.6307V23.5333H44.5364C44.5267 23.4463 44.512 23.3786 44.4928 23.3301C44.473 23.2816 44.4451 23.2447 44.4091 23.218C44.3726 23.1917 44.3265 23.1745 44.2712 23.1674C44.2155 23.1599 44.1465 23.1563 44.0644 23.1563H42.5891V25.0471C42.5891 25.0905 42.6018 25.1234 42.6286 25.1451C42.6555 25.1668 42.6869 25.1799 42.7235 25.185C42.76 25.1901 42.7985 25.1911 42.839 25.1885C42.8806 25.1865 42.9161 25.185 42.945 25.185H44.144C44.2606 25.185 44.361 25.1794 44.4456 25.1673C44.5303 25.1552 44.6068 25.1299 44.6748 25.091C44.7427 25.0526 44.803 25.0006 44.8563 24.9349C44.91 24.8697 44.9612 24.7818 45.0089 24.6711H45.1255L44.944 25.5331H44.9435Z" fill="#001B3C"/>
</g>
<defs>
<clipPath id="clip0_2418_7785">
<rect width="61" height="26" fill="white"/>
</clipPath>
</defs>
</svg>
