<svg fill="none" height="26" viewBox="0 0 96 26" width="96" xmlns="http://www.w3.org/2000/svg" xmlns:xlink="http://www.w3.org/1999/xlink"><clipPath id="a"><path d="m0 0h96v26h-96z"/></clipPath><g clip-path="url(#a)" fill="#001b3c"><path d="m0 0h20.3712v20.4038h-3.4214v-13.08072h-3.3831v13.08072h-13.5667z"/><path d="m27.1638 20.4115v-10.1616h2.7686c.9907 0 1.632.15 1.9085.4731.2227.2692.3456.8885.3456 1.8577v7.8308h3.4867v-8.2731c0-1.7385-.4224-2.97695-1.2864-3.69618s-2.2502-1.08846-4.1818-1.08846h-6.455v13.05774z"/><path d="m43.4038 17.8076c-.6451 0-1.1097-.0961-1.4092-.2731-.2688-.1692-.4186-.5423-.4186-1.0884 0-.5731.2227-.9693.6912-1.1654.2957-.1269.7642-.2 1.3862-.2h4.0551v2.7269zm1.1636-7.7538c1.2134 0 2.0313.173 2.4729.5192.4455.35.6682.9961.6682 1.9077h-4.5504c-1.6551 0-2.8915.2461-3.7095.7423-.9945.6192-1.5052 1.7346-1.5052 3.3231 0 1.1884.3724 2.1307 1.0867 2.8269.7181.6923 1.7088 1.0385 2.9683 1.0385h9.2275v-8.177c0-3.24613-1.7817-4.88074-5.3721-4.88074h-7.0464v2.70004z"/><path d="m61.3833 17.6078c-1.7318 0-2.9184-.4-3.5865-1.1923-.4455-.5462-.6682-1.3846-.6682-2.5039 0-1.5577.4224-2.6038 1.2365-3.1461.5683-.3692 1.5821-.5692 3.0182-.5692h3.6096v-2.8462h-4.6272c-2.6918 0-4.6003.76538-5.7139 2.27692-.768 1.06538-1.1635 2.50388-1.1635 4.31158 0 2.0077.5952 3.5884 1.7549 4.7307 1.1673 1.1654 2.8723 1.7346 5.1225 1.7346h4.6272v-2.8h-3.6096z"/><path d="m72.1342 17.8076c-.6412 0-1.1136-.0961-1.4092-.2731-.2727-.1692-.4186-.5423-.4186-1.0884 0-.5731.2227-.9693.6912-1.1654.2957-.1269.7642-.2 1.3862-.2h4.0551v2.7269zm1.1636-7.7538c1.2134 0 2.0275.173 2.4729.5192.4416.35.6643.9961.6643 1.9077h-4.5504c-1.655 0-2.8915.2461-3.7094.7423-.9907.6192-1.5053 1.7346-1.5053 3.3231 0 1.1884.3725 2.1307 1.0867 2.8269.7181.6923 1.705 1.0385 2.9684 1.0385h9.2275v-8.177c0-3.24613-1.7818-4.88074-5.3683-4.88074h-7.0503v2.70004z"/><path d="m92.3641 13.9423c0 1.6884-.3955 2.7538-1.2135 3.2231-.5184.2961-1.6588.4461-3.4368.4461h-1.2864v-7.4077l1.2634-.0269c1.7587-.0269 2.9184.1731 3.4906.5231.7872.4923 1.1827 1.5807 1.1827 3.2423zm-5.9367 12.0577v-5.5885h2.9952c2.569 0 4.4007-.7692 5.4912-2.3308.7181-1.0384 1.0906-2.4038 1.0906-4.0615 0-2.1308-.5722-3.7654-1.6819-4.92692-1.1136-1.16538-2.6765-1.73461-4.6771-1.73461h-6.6317v18.64233z"/></g></svg>