<svg fill="none" height="26" viewBox="0 0 130 26" width="130" xmlns="http://www.w3.org/2000/svg" xmlns:xlink="http://www.w3.org/1999/xlink"><clipPath id="a"><path d="m0 0h130v26h-130z"/></clipPath><mask id="b" height="26" maskUnits="userSpaceOnUse" width="130" x="0" y="0"><path d="m0 0h130v26h-130z" fill="#fff"/></mask><mask id="c" height="26" maskUnits="userSpaceOnUse" width="130" x="0" y="0"><path d="m0 0h130v26h-130z" fill="#fff"/></mask><mask id="d" height="27" maskUnits="userSpaceOnUse" width="130" x="0" y="0"><path d="m0 0h130v26.0072h-130z" fill="#fff"/></mask><g clip-path="url(#a)"><g mask="url(#b)"><g mask="url(#c)"><g mask="url(#d)"><path d="m1.98038 3.45743c.44563 0 .87301-.17703 1.18812-.49213.3151-.31511.49213-.74249.49213-1.18812s-.17703-.873008-.49213-1.188116c-.31511-.315108-.74249-.492134-1.18812-.492134-.22077-.0005991-.43949.0424-.64361.126531s-.38961.207737-.545842.363728c-.156232.15599-.280125.341294-.364572.545281-.084446.20398-.127784.42264-.127527.64341.000516.44582.177845.87323.493085 1.18846.315236.31525.742646.49257 1.188466.49309zm58.00142 12.77967h2.4005c.0552-.403.0793-.819.0793-1.2415 0-5.45417-4.4577-9.91187-9.9184-9.91187-5.0108 0-9.1715 3.7544-9.826 8.58197v-13.54082h-2.483v8.33105c-1.8129-2.06375-4.4785-3.37545-7.4386-3.37545-4.9647 0-9.0987 3.6933-9.7988 8.47212v-8.47212h-2.483v3.37545c-1.7849-2.0241-4.3777-3.32345-7.2637-3.37545h-.1742c-4.98097.08905-9.23977 3.8675-9.84167 8.70152v-8.66122h-2.504451v19.82372h2.504451v-8.738c.60515 4.8367 4.86395 8.619 9.84487 8.7074h.1742c2.8828-.052 5.4789-1.3455 7.2644-3.3689v3.3689h2.4824v-8.4747c.7033 4.784 4.8366 8.4747 9.7987 8.4747 2.9595 0 5.6258-1.3052 7.4386-3.3689v3.3689h2.483v-8.5884c.6539 4.8405 4.8178 8.5891 9.8254 8.5891 4.0879 0 7.607-2.4947 9.126-6.0411h-2.7846c-1.3117 2.1339-3.666 3.5587-6.3414 3.5587-3.6777 0-6.7385-2.6877-7.3378-6.1977h14.7764zm-46.8175 6.1971c-4.06317-.0488-7.52702-3.3657-7.52702-7.4386 0-4.0723 3.46385-7.38337 7.52702-7.43212 4.054.0455 7.3502 3.37222 7.3502 7.43212 0 4.0605-3.2955 7.3905-7.3502 7.4386zm19.6313 0c-4.0872 0-7.4321-3.3352-7.4321-7.4386 0-4.1028 3.3449-7.43212 7.4321-7.43212 4.0885 0 7.4386 3.34492 7.4386 7.43212 0 4.0885-3.3384 7.4386-7.4386 7.4386zm19.7476-14.87072c3.6725 0 6.7386 2.69032 7.3385 6.19122h-14.6763c.5986-3.5009 3.6601-6.19122 7.3378-6.19122zm19.6014 5.68032v-8.20557h4.3258v.8892h-3.3508v2.3543h3.3508v.90805h-3.3508v3.14602h3.3508v.908zm8.9674-4.55517c.535.2288.9354.5317 1.2071.90805.2723.3757.4069.82552.4069 1.33902-.0009.7553-.2414 1.3637-.7215 1.8252-.4802.4615-1.1161.6918-1.9078.6909-.6478 0-1.1899-.1651-1.6263-.4953-.4376-.3306-.7332-.8003-.8866-1.4092l.8866-.4374c.1183.4983.3148.8744.5896 1.1284.2756.2567.6181.3848 1.0335.3848.4896 0 .8861-.1406 1.1895-.4219.302-.2816.4528-.6485.4524-1.1004 0-.3666-.104-.6851-.3179-.9568-.2106-.27259-.5295-.50204-.9568-.68837l-.9971-.4251c-.5442-.22663-.9509-.52-1.22-.8801-.2659-.3575-.4004-.7891-.4004-1.287 0-.58435.2171-1.06405.6513-1.44625.4342-.38177.9875-.57243 1.6601-.572.4931 0 .9202.104 1.2811.312.3608.21125.6422.51675.8437.923l-.8066.51675c-.1833-.3172-.3894-.55337-.6182-.7085-.2275-.15573-.4978-.23703-.7735-.2327-.3666.00043-.666.11245-.8983.33605-.2327.22295-.3516.5109-.3516.85605 0 .2938.0916.54405.2691.75855.18.21385.4582.4004.8346.5655l1.1706.51675zm9.5726-1.68805c-.3918-.42467-.8106-.73948-1.2565-.94445-.4465-.20475-.936-.3055-1.4742-.3055-.4362.00149-.8677.09079-1.2688.2626-.4035.16984-.7685.41945-1.0731.73385-.306.31159-.5461.68165-.7059 1.0881-.1608.42494-.2406.87623-.2353 1.33055-.0009.38133.0459.73277.1404 1.05427.0949.3211.232.6175.4186.8866.3129.4513.7292.8213 1.2142 1.079.4783.2528 1.0118.3833 1.5528.3796.5046.0043 1.0034-.1066 1.4586-.3243.4492-.2171.8561-.5408 1.2292-.9685v1.2961c-.8047.5855-1.7751.8993-2.7703.8957-.865-.0002-1.7095-.2637-2.4213-.7553-.5988-.416-1.0553-.9267-1.3695-1.5321-.3153-.6045-.4739-1.27137-.4739-1.99287 0-.6331.104-1.2051.3179-1.72445.2209-.53173.5498-1.01181.9659-1.40985.4003-.38925.8729-.6966 1.391-.9048.5076-.2015 1.064-.299 1.6666-.299.4682-.00209.9336.07099 1.3786.21645.4442.14387.8834.36703 1.3176.6695v1.27205zm2.6169-1.963v5.10642c.0004.8281.1768 1.4365.5291 1.8252.3516.388.908.5837 1.6601.5837.752 0 1.3084-.195 1.6633-.5837.3519-.3887.5281-.9971.5285-1.8252v-5.10642h.9906v5.10572c.0004 1.1085-.2635 1.939-.7917 2.4915-.5295.5503-1.3265.8255-2.3907.8255-1.0641 0-1.8558-.275-2.3849-.8255-.5295-.5504-.7945-1.3808-.7949-2.4915v-5.10572zm7.3135 8.20622v-8.20557h4.326v.8892h-3.351v2.3543h3.351v.90805h-3.351v3.14602h3.351v.908zm5.98 0v-8.20557h.975v7.27607h3.101v.9295zm7.83-8.52992 3.733 8.52992h-1.058l-1.063-2.5155h-3.208l-1.064 2.5155h-1.058l3.721-8.52992zm0 2.158-1.306 3.0212h2.611zm-42.2836 18.01802v-8.2069h1.5743c1.1648 0 1.9877.0585 2.4615.1774.454.1079.8807.3087 1.2532.5896.4716.3628.8406.8422 1.0706 1.391.2418.5646.3629 1.215.3633 1.9513 0 .7364-.1189 1.378-.3607 1.9409-.2306.5484-.6005 1.027-1.0732 1.3884-.3575.2749-.767.4738-1.2226.5902-.4585.1183-1.172.1772-2.1405.1768h-1.9292zm.9873-.9204h.624c1.0093.0004 1.7084-.0436 2.0976-.132.3882-.0884.7113-.2381.9691-.4491.3433-.2913.6071-.6647.767-1.0855.1751-.4433.2628-.9508.2633-1.5223 0-.572-.0858-1.079-.26-1.5139-.1618-.4188-.4267-.7899-.7703-1.079-.2574-.2171-.5876-.3705-.9847-.4615-.3974-.0918-1.0914-.1378-2.082-.1378h-.624v6.3837zm7.3379.9197v-8.2056h4.3264v.8899h-3.3508v2.3536h3.3508v.9081h-3.3508v3.146h3.3508v.908zm9.3645 0v-8.2056h1.575c1.1652 0 1.9866.0592 2.4641.1775.454.1079.8807.3086 1.2532.5895.4716.3628.8406.8423 1.0706 1.391.2418.5647.3629 1.2151.3633 1.9513 0 .7365-.1189 1.378-.3607 1.9409-.2303.5486-.6003 1.0273-1.0732 1.3884-.3575.275-.767.4739-1.2259.5902-.4584.1183-1.1708.1773-2.1372.1768zm.988-.9197h.6234c1.0096.0004 1.7088-.0436 2.0975-.132s.7118-.2381.9692-.4491c.3435-.2912.6076-.6646.7676-1.0855.1768-.4433.2626-.951.2626-1.5223 0-.572-.0858-1.079-.26-1.5139-.1617-.4188-.4267-.7899-.7702-1.079-.2568-.2171-.587-.3705-.9848-.4615-.3973-.0918-1.0913-.1378-2.0819-.1378h-.6234v6.3837zm7.347.9197v-8.2056h.975v8.205zm5.9459-4.5552c.535.2293.937.5319 1.208.9081.272.3757.407.8255.407 1.339 0 .7553-.239 1.3637-.722 1.8252-.48.461-1.116.6914-1.907.6909-.646 0-1.19-.1651-1.627-.4953-.438-.3306-.734-.8003-.887-1.4092l.887-.4374c.119.4983.316.8744.59 1.1284.275.2569.62.3854 1.033.3854.49 0 .887-.1408 1.19-.4225.302-.2808.453-.6476.452-1.1004 0-.3662-.106-.6851-.318-.9568-.211-.2722-.529-.5014-.954-.6877l-.996-.4251c-.544-.2262-.951-.5198-1.22-.8808-.269-.3575-.401-.7884-.401-1.287 0-.5843.217-1.064.652-1.4462.434-.3818.987-.5725 1.66-.572.492 0 .919.104 1.281.312.361.2112.641.5167.844.923l-.808.5174c-.183-.3177-.388-.5543-.617-.7098-.228-.1551-.498-.2362-.774-.2321-.367.0005-.666.1125-.899.3361-.232.2236-.351.5109-.351.856 0 .2938.088.5447.269.7586.18.2138.458.4004.834.5655l1.172.5167zm2.914 4.5552v-8.2056h4.327v.8899h-3.352v2.3536h3.352v.9081h-3.352v3.146h3.352v.908zm5.98 0v-8.5299l6.002 6.5585v-6.2342h.929v8.5235l-6.001-6.4851v6.164h-.93zm5.112-10.5813c-.076.3822-.208.6725-.394.871-.09.0978-.2.1752-.322.227s-.254.0768-.387.0733c-.049 0-.105-.0063-.169-.0189-.068-.0111-.135-.0263-.201-.0455l-.538-.1469c-.047-.0148-.095-.027-.144-.0364-.043-.0097-.087-.0149-.132-.0156-.108-.0042-.214.0304-.3.0975-.091.0755-.162.1736-.204.2847h-.492c.067-.3709.195-.6543.382-.8502.089-.0963.197-.1725.318-.2236s.251-.0759.382-.0728c.064 0 .122.0065.181.0124.054.0091.106.0182.152.0338l.55.1618c.087.0217.15.036.19.0429.037.0083.075.0124.113.0124.114.0029.225-.0328.315-.1014.089-.0676.159-.1705.211-.3088h.492zm12.181 6.4967c.002.5696-.109 1.134-.327 1.6601-.217.52-.533.9817-.948 1.3852-.412.4013-.9.7181-1.434.9327-.533.2157-1.103.3267-1.679.327-1.159.0013-2.273-.4508-3.103-1.2597-.409-.3946-.734-.8677-.957-1.391-.22-.5233-.332-1.0863-.327-1.6543 0-.5837.11-1.1401.327-1.6627.221-.5253.546-.9999.957-1.3942.831-.8048 1.944-1.2535 3.101-1.2506.578 0 1.143.1066 1.684.3237.532.212 1.018.527 1.428.9269.408.3921.731.8646.948 1.3877.217.5205.326 1.076.327 1.6666zm-4.388 3.3846c.45 0 .875-.0852 1.281-.2568.412-.1727.785-.4252 1.098-.7429.315-.3111.565-.6822.734-1.0914.337-.8365.337-1.7712 0-2.6078-.169-.4103-.417-.7834-.73-1.0978-.312-.3142-.682-.5634-1.091-.733-.408-.1696-.846-.2563-1.288-.255-.453 0-.89.0864-1.297.2541-.406.169-.775.4189-1.082.7345-.315.3157-.564.6906-.734 1.1031-.168.4146-.255.8582-.254 1.3058-.003.4439.082.8839.252 1.294s.42.7819.736 1.0935c.309.3182.679.5707 1.087.7425.409.1718.848.2593 1.292.2572z" fill="#001b3c"/></g></g></g></g></svg>