<svg width="56" height="26" viewBox="0 0 56 26" fill="none" xmlns="http://www.w3.org/2000/svg">
<g clip-path="url(#clip0_2418_8169)">
<path d="M55.9999 25.9224V25.2872H54.7207V24.2478H55.884V23.6511H54.7207V22.7659H55.9805V22.1306H54.0032V25.9219H55.9999V25.9224ZM52.0071 25.9224V25.2679H50.7085V22.1119H49.9915V25.9224H52.0076H52.0071ZM47.8202 22.1312H47.1032V25.9224H47.8202V22.1312ZM43.2457 25.9224V24.1906H44.2149V25.9224H44.9319V22.1119H44.2149V23.6131H43.2457V22.1119H42.5287V25.9224H43.2457ZM39.7375 24.6139C39.7375 24.9216 39.6986 25.1336 39.6404 25.2492C39.5822 25.3648 39.4658 25.4226 39.3111 25.4226C39.1364 25.4226 39.0205 25.3455 38.9623 25.1914C38.9041 25.0372 38.8653 24.6332 38.8653 23.9407C38.8653 23.3054 38.9041 22.9206 38.9623 22.7857C39.0205 22.6508 39.137 22.5738 39.3111 22.5738C39.4469 22.5738 39.5439 22.6316 39.621 22.7279C39.6981 22.8242 39.7181 22.9778 39.7181 23.1898V23.2861H40.4161C40.4161 22.8435 40.3191 22.5165 40.145 22.3238C39.9709 22.1312 39.6798 22.0161 39.2922 22.0161C39.0593 22.0161 38.8658 22.0546 38.7106 22.1317C38.5553 22.2088 38.42 22.3437 38.323 22.5165C38.2648 22.6321 38.2065 22.805 38.1677 23.0362C38.1289 23.2674 38.1289 23.5751 38.1289 23.9599C38.1289 24.5374 38.1483 24.9415 38.2065 25.1721C38.2648 25.4028 38.3424 25.5762 38.4777 25.7111C38.5747 25.8074 38.6912 25.8845 38.807 25.923C38.9429 25.9615 39.0976 26.0001 39.2722 26.0001C39.6598 26.0001 39.9509 25.9037 40.125 25.6731C40.3191 25.4611 40.3962 25.1341 40.3962 24.6915V24.5374H39.6981L39.7369 24.6145L39.7375 24.6139Z" fill="#001B3C"/>
<path d="M0 5.50391V19.9567C0 21.7463 1.45385 21.939 2.4619 22.1889L7.24986 23.3819L11.902 22.2269C13.627 21.8614 14.4027 21.4188 14.4027 19.9369V5.50391H0ZM12.9677 19.3985C12.9871 20.6685 12.3666 20.6299 9.51714 21.4193L7.2299 21.9775C7.21049 21.9775 5.83427 21.6698 4.84563 21.4193C1.68618 20.669 1.43389 20.5727 1.43389 19.11V6.90878H12.9477V19.3985H12.9677Z" fill="#001B3C"/>
<path d="M7.11414 4.00267H7.34702V4.50307H7.11414V4.00267ZM7.09473 0H7.36587V0.500402H7.09473V0ZM7.50172 3.9834L7.77286 3.9256L7.88931 4.50307H7.55994L7.50172 3.9834ZM6.9977 4.00267L6.72656 3.96413L6.61012 4.52234H6.95888L6.9977 4.00267ZM7.88931 3.88706L8.08338 3.80999L8.45155 4.46454L8.12219 4.50307L7.88931 3.88706ZM6.62952 3.90633L6.43545 3.82926L6.04787 4.4838L6.39664 4.50307L6.62952 3.90633ZM8.19982 3.75219L8.41329 3.61732L9.03376 4.42545L8.66558 4.46398L8.20037 3.75219H8.19982ZM6.30016 3.75219L6.08668 3.61732L5.46622 4.42545L5.81499 4.46398L6.2996 3.75219H6.30016ZM8.49037 3.54025L8.66503 3.36684L9.77011 4.30985L9.26609 4.38692L8.49092 3.54025H8.49037ZM6.00906 3.55952L5.83439 3.38611L4.74872 4.30985L5.25274 4.38692L6.0085 3.55952H6.00906ZM8.76151 3.25179L8.87795 3.05912L10.8552 4.09845L10.1765 4.23333L8.76151 3.25179ZM5.71851 3.27106L5.60207 3.07838L3.62478 4.11772L4.30347 4.25259L5.71851 3.27106ZM8.95558 2.88626L9.03321 2.67432L12.3867 3.67512L11.5145 3.94432L8.95558 2.88571V2.88626ZM5.52444 2.90553L5.44681 2.69358L2.0933 3.69439L2.9655 3.96358L5.52444 2.90498V2.90553ZM9.05206 2.55926L9.09087 2.30934L13.9565 2.92534L13.2007 3.34868L9.05261 2.55981L9.05206 2.55926ZM5.408 2.55926L5.38859 2.30934L0.542963 2.92534L1.29872 3.34868L5.408 2.55981V2.55926ZM7.46291 0.499852L7.69579 0.538387L7.8699 0H7.55994L7.46291 0.500402V0.499852ZM7.01711 0.499852L6.78422 0.538387L6.62952 0H6.93948L7.01711 0.500402V0.499852ZM7.85049 0.596189L8.08338 0.692526L8.43215 0.0572518L8.1416 0.0379843L7.85105 0.596189H7.85049ZM6.64893 0.596189L6.41605 0.692526L6.06728 0.0765192L6.35783 0.0572518L6.64837 0.596189H6.64893ZM8.19982 0.750328L8.37448 0.865933L8.95613 0.0963371L8.64618 0.0770697L8.20037 0.750879H8.19982V0.750328ZM6.28075 0.750328L6.10609 0.865933L5.54384 0.0963371L5.8538 0.0770697L6.2802 0.750879L6.28075 0.750328ZM8.49037 0.96227L8.60681 1.05861L9.67308 0.192674L9.24668 0.134872L8.49092 0.96227H8.49037ZM6.02846 0.923735L5.91202 1.02007L4.86516 0.154139L5.29155 0.0770697L6.02791 0.923735H6.02846ZM8.68388 1.15494L8.81973 1.34762L10.7582 0.385348L9.94422 0.231209L8.68443 1.15494H8.68388ZM5.79558 1.15494L5.65973 1.34762L3.74122 0.384798L4.5552 0.230659L5.79558 1.15439V1.15494ZM8.8968 1.48194L8.97443 1.67461L12.0368 0.731611L11.3582 0.500402L8.89625 1.48194H8.8968ZM5.5821 1.48194L5.50448 1.67461L2.44262 0.731061L3.12131 0.499852L5.58321 1.48139H5.5821V1.48194ZM9.01324 1.7704L9.05206 1.96307L13.6265 1.36634L12.8902 1.02007L9.01324 1.7704ZM5.46622 1.7704L5.4274 1.96307L0.852919 1.3856L1.58927 1.03934L5.46622 1.7704ZM9.09087 2.23227L9.07146 2.02033L14.3829 1.90472V2.42439L9.09087 2.23172V2.23227ZM5.38859 2.23227L5.408 2.02033L0.0195312 1.90527V2.44421L5.38859 2.23227Z" fill="#001B3C"/>
<path d="M8.10237 3.40639L7.23017 2.79039L6.35742 3.40639L6.68733 2.40559L5.83398 1.77032H6.90025L7.23017 0.750244L7.57894 1.77032H8.64466L7.77246 2.40559L8.10237 3.40639Z" fill="#001B3C"/>
<path d="M8.10222 10.373L7.24943 9.79555L6.39663 10.373L6.68718 9.39149L5.8732 8.77548L6.90066 8.75621L7.24943 7.79395L7.59819 8.75621L8.62565 8.77548L7.81167 9.39149L8.10222 10.373ZM7.79226 19.8988L8.60625 19.2828L7.57879 19.2636L7.23002 18.3013L6.88125 19.2636L5.85379 19.2828L6.66777 19.8988L6.37722 20.8804L7.23002 20.3029L8.08281 20.8804L7.79226 19.8988ZM4.26464 13.2786L5.07862 12.6625L4.05117 12.6433L3.7024 11.681L3.35363 12.6433L2.32617 12.6625L3.14015 13.2786L2.8496 14.2601L3.7024 13.6826L4.55519 14.2601L4.26464 13.2786ZM9.76955 15.2802L10.3706 14.8183L9.61485 14.799L9.36311 14.0872L9.11138 14.799L8.35562 14.8183L8.95668 15.2802L8.7432 16.0112L9.36367 15.5879L9.98414 16.0112L9.77066 15.2802H9.76955ZM11.2622 12.4512L12.0762 11.8351L11.0487 11.8159L10.7 10.8536L10.3512 11.8159L9.32375 11.8351L10.1377 12.4512L9.84718 13.4327L10.7 12.8552L11.5528 13.4327L11.2622 12.4512Z" fill="#001B3C"/>
<path d="M53.1887 19.2256C53.4022 19.5525 53.8092 19.7067 54.3709 19.7067C54.9326 19.7067 55.3401 19.5525 55.553 19.2256C55.7665 18.8986 55.8824 18.3211 55.8824 17.4552C55.8824 16.5892 55.766 15.9925 55.553 15.6848C55.3396 15.3578 54.9326 15.2036 54.3709 15.2036C53.8092 15.2036 53.421 15.3578 53.1887 15.6848C52.9752 16.0117 52.8594 16.5892 52.8594 17.4552C52.8594 18.3211 52.9758 18.8986 53.1887 19.2256ZM53.8868 17.1089C53.8868 16.6085 53.9256 16.2815 53.9838 16.1466C54.0615 16.0117 54.1779 15.9539 54.3714 15.9539C54.5649 15.9539 54.7008 16.031 54.759 16.1659C54.8366 16.32 54.8561 16.6663 54.8561 17.2245V17.6478C54.8561 18.2253 54.8172 18.5908 54.759 18.745C54.6814 18.8798 54.5649 18.9569 54.352 18.9569C54.158 18.9569 54.0421 18.8798 53.9644 18.7257C53.9062 18.5716 53.8674 18.1675 53.8674 17.5135V17.1094H53.8868V17.1089ZM49.467 18.2446V18.3216C49.467 18.8028 49.5835 19.1298 49.7964 19.361C50.0293 19.5922 50.378 19.688 50.8433 19.688C51.3085 19.688 51.6378 19.5916 51.8901 19.3802C52.1424 19.1688 52.2583 18.8798 52.2583 18.495C52.2583 18.0139 51.8901 17.552 51.1726 17.0709C51.0756 17.0131 50.998 16.9553 50.9397 16.9168C50.7069 16.7626 50.5716 16.6476 50.4939 16.5705C50.4357 16.4934 50.3969 16.3971 50.3969 16.282C50.3969 16.167 50.4357 16.0894 50.5133 16.0128C50.591 15.955 50.688 15.9165 50.8039 15.9165C50.9785 15.9165 51.0944 15.955 51.1721 16.0706C51.2497 16.1863 51.2885 16.3206 51.2885 16.5325V16.6289H52.1607V16.5325C52.1607 16.0899 52.0443 15.7437 51.8313 15.5317C51.6179 15.3005 51.2885 15.2047 50.8427 15.2047C50.3969 15.2047 50.0481 15.3011 49.8152 15.5124C49.5824 15.7051 49.4665 15.9936 49.4665 16.3784C49.4665 16.8595 49.8347 17.3406 50.5522 17.841C50.5716 17.8603 50.591 17.8603 50.591 17.8796C50.6298 17.9181 50.7074 17.9567 50.785 18.0145C51.1144 18.2264 51.2697 18.4185 51.2697 18.5727C51.2697 18.7075 51.2308 18.8039 51.1532 18.8804C51.0756 18.9575 50.9591 18.996 50.8238 18.996C50.6492 18.996 50.5139 18.9382 50.4363 18.8419C50.3586 18.7455 50.3198 18.5534 50.3198 18.3222V18.2066H49.4282C49.467 18.168 49.467 18.2066 49.467 18.2451M48.2072 14.8386L49.3511 13.78H48.4013L47.742 14.8386H48.2072ZM48.7695 15.3005H47.7808V19.5729H48.7695V15.3005ZM47.0833 19.5729C47.0251 19.4766 46.9863 19.3802 46.9669 19.2845C46.9475 19.1887 46.9281 19.0725 46.9281 18.9575V16.5325C46.9281 16.0321 46.831 15.6666 46.6181 15.4739C46.4046 15.2812 46.0364 15.1662 45.513 15.1662C44.9896 15.1662 44.602 15.2818 44.3691 15.4932C44.1362 15.7051 44.0203 16.0707 44.0203 16.5518H44.9896V16.494C44.9896 16.282 45.0284 16.1477 45.1254 16.0514C45.2031 15.955 45.3389 15.8972 45.5324 15.8972C45.6683 15.8972 45.7842 15.9358 45.8618 16.0128C45.9394 16.0899 45.9782 16.1863 45.9782 16.3206C45.9782 16.5518 45.7842 16.7439 45.3966 16.898C45.2995 16.9366 45.2413 16.9558 45.2025 16.9944C44.7179 17.2063 44.4079 17.4177 44.2527 17.6297C44.0974 17.8416 44.0198 18.1108 44.0198 18.4763C44.0198 18.8611 44.1168 19.1688 44.2909 19.4001C44.465 19.6313 44.7367 19.7271 45.0661 19.7271C45.2796 19.7271 45.4731 19.6885 45.6478 19.5922C45.8224 19.4958 45.9383 19.361 46.0547 19.2074C46.0741 19.323 46.0936 19.4193 46.113 19.4766C46.1324 19.5344 46.1518 19.5922 46.1712 19.6307L47.0822 19.5729H47.0833ZM45.9782 18.0139C45.9782 18.3216 45.9394 18.5336 45.8424 18.6877C45.7453 18.8419 45.6289 18.9189 45.4548 18.9189C45.2995 18.9189 45.1837 18.8804 45.1254 18.7841C45.0478 18.6877 45.0284 18.5528 45.0284 18.3607C45.0284 18.1686 45.0866 17.9759 45.2225 17.841C45.3583 17.6869 45.61 17.5333 45.9782 17.3406V18.0145V18.0139ZM42.5277 19.5729V17.0709C42.5277 16.859 42.5859 16.6861 42.7217 16.5705C42.8382 16.4356 43.0123 16.3778 43.2258 16.3778H43.3616C43.4004 16.3778 43.4392 16.3778 43.4781 16.3971V15.2042C43.2452 15.2042 43.0711 15.262 42.9158 15.3968C42.7606 15.5124 42.6253 15.7238 42.47 16.0128V15.3203H41.5202V19.5735H42.5282H42.5277V19.5729ZM40.8027 19.5729C40.7445 19.4766 40.7056 19.3802 40.6862 19.2845C40.6668 19.1887 40.6474 19.0725 40.6474 18.9575V16.5325C40.6474 16.0321 40.5504 15.6666 40.3375 15.4739C40.124 15.2812 39.7558 15.1662 39.2324 15.1662C38.709 15.1662 38.3214 15.2818 38.0885 15.4932C37.8556 15.7051 37.7397 16.0707 37.7397 16.5518H38.709V16.494C38.709 16.282 38.7478 16.1477 38.8448 16.0514C38.9418 15.955 39.0583 15.8972 39.2518 15.8972C39.407 15.8972 39.5035 15.9358 39.5812 16.0128C39.6588 16.0899 39.6976 16.1863 39.6976 16.3206C39.6976 16.5518 39.5035 16.7439 39.1159 16.898C39.0189 16.9366 38.9607 16.9558 38.9219 16.9944C38.4373 17.2063 38.1273 17.4177 37.972 17.6297C37.8168 17.8416 37.7392 18.1108 37.7392 18.4763C37.7392 18.8611 37.8362 19.1688 38.0103 19.4001C38.185 19.6313 38.4561 19.7271 38.7855 19.7271C38.9989 19.7271 39.1925 19.6885 39.3671 19.5922C39.5418 19.4958 39.6577 19.361 39.7741 19.2074C39.7935 19.323 39.8129 19.4193 39.8323 19.4766C39.8517 19.5344 39.8711 19.5922 39.8906 19.6307L40.8016 19.5729H40.8027ZM39.6976 18.0139C39.6976 18.3216 39.6588 18.5336 39.5617 18.6877C39.4647 18.8419 39.3483 18.9189 39.1742 18.9189C39.0189 18.9189 38.903 18.8804 38.8448 18.7841C38.7672 18.6877 38.7478 18.5528 38.7478 18.3607C38.7478 18.1686 38.806 17.9759 38.9418 17.841C39.0777 17.6869 39.3294 17.5333 39.6976 17.3406V18.0145V18.0139ZM35.0843 21.0163V19.2074C35.1619 19.3615 35.2784 19.4958 35.4137 19.5729C35.549 19.65 35.7236 19.6885 35.9177 19.6885C36.3247 19.6885 36.6158 19.5344 36.7899 19.2074C36.964 18.8804 37.0416 18.2836 37.0416 17.4177C37.0416 16.5518 36.964 15.9936 36.7899 15.6666C36.6152 15.3396 36.3247 15.1662 35.8983 15.1662C35.6848 15.1662 35.5107 15.2047 35.3554 15.3011C35.2002 15.3974 35.0843 15.5323 35.0067 15.7244V15.2818H34.0568V20.9976L35.0843 21.0169V21.0163ZM35.1619 16.2242C35.2396 16.0701 35.3754 15.993 35.5689 15.993C35.7436 15.993 35.8595 16.0701 35.9371 16.243C35.9953 16.4164 36.0341 16.8012 36.0341 17.4166C36.0341 18.0321 35.9953 18.456 35.9371 18.6095C35.8789 18.7631 35.743 18.8408 35.5689 18.8408C35.3748 18.8408 35.2396 18.7444 35.1619 18.5523C35.0843 18.3596 35.0455 17.9363 35.0455 17.2245C35.0649 16.7241 35.0843 16.3778 35.1619 16.2237M33.2235 13.8758H32.2348V19.5724H33.2235V13.8758ZM31.5373 19.5724C31.4791 19.476 31.4402 19.3797 31.4208 19.2839C31.4014 19.1881 31.382 19.072 31.382 18.9569V16.532C31.382 16.0316 31.2656 15.666 31.0721 15.4734C30.8785 15.2807 30.4904 15.1656 29.967 15.1656C29.4435 15.1656 29.056 15.2812 28.8231 15.4926C28.5902 15.704 28.4743 16.0701 28.4743 16.5512H29.4435V16.4934C29.4435 16.2815 29.4824 16.1472 29.5794 16.0508C29.657 15.9545 29.7929 15.8967 29.9864 15.8967C30.1222 15.8967 30.2381 15.9352 30.3157 16.0123C30.3934 16.0894 30.4322 16.1857 30.4322 16.32C30.4322 16.5512 30.2381 16.7434 29.8505 16.8975C29.7729 16.936 29.6953 16.9553 29.6565 16.9938C29.1913 17.2058 28.8619 17.4172 28.7066 17.6291C28.5514 17.841 28.4738 18.1102 28.4738 18.4758C28.4738 18.8606 28.5708 19.1683 28.7449 19.3995C28.919 19.6307 29.1907 19.7265 29.5007 19.7265C29.7141 19.7265 29.9076 19.688 30.0823 19.5916C30.257 19.4953 30.3923 19.3604 30.4893 19.2068C30.5087 19.3224 30.5281 19.4188 30.5475 19.476C30.5669 19.5338 30.5863 19.5916 30.6057 19.6302L31.5362 19.5724H31.5373ZM30.4322 18.0134C30.4322 18.3211 30.3934 18.533 30.2963 18.6872C30.1993 18.8413 30.0829 18.9184 29.9088 18.9184C29.7535 18.9184 29.6376 18.8798 29.5794 18.7835C29.5018 18.6872 29.463 18.5523 29.463 18.3602C29.463 18.168 29.5212 17.9754 29.657 17.8405C29.7929 17.6864 30.0446 17.5328 30.4128 17.3401L30.4322 18.0139V18.0134ZM27.0593 19.5724L28.2608 13.8758H27.1363L26.3612 18.4174L25.5084 13.8758H24.3645L25.6437 19.5724H27.0593ZM22.2713 18.7642C22.1937 18.8991 22.0578 18.9569 21.8837 18.9569C21.7096 18.9569 21.5738 18.8798 21.4961 18.707C21.4185 18.5528 21.3797 18.2644 21.3797 17.8603V17.6869C21.3797 17.6484 21.3797 17.6098 21.3991 17.5906H23.357V17.2636C23.357 16.7824 23.3376 16.4362 23.2794 16.2242C23.2405 16.0123 23.1629 15.8394 23.0465 15.6853C22.93 15.5312 22.7559 15.3968 22.5619 15.3198C22.3678 15.2427 22.1355 15.2042 21.8638 15.2042C21.5921 15.2042 21.3597 15.2427 21.1468 15.3198C20.9339 15.3968 20.7786 15.5124 20.6622 15.6468C20.5458 15.7811 20.4487 15.9738 20.4105 16.205C20.3522 16.4362 20.3328 16.8017 20.3328 17.3214C20.3328 17.9759 20.3522 18.4378 20.4105 18.6877C20.4687 18.9376 20.5657 19.1496 20.701 19.3037C20.8175 19.4386 20.9722 19.5536 21.1468 19.6114C21.3215 19.6693 21.5538 19.7078 21.8255 19.7078C22.3295 19.7078 22.7171 19.5922 22.95 19.3615C23.1829 19.1303 23.2988 18.7841 23.2988 18.2836V18.1295H22.3489C22.3878 18.418 22.3489 18.6299 22.2713 18.7648M21.3797 16.7246C21.3797 16.4362 21.4185 16.2435 21.4961 16.1279C21.5738 16.0123 21.6902 15.9545 21.8643 15.9545C22.0384 15.9545 22.1743 16.0123 22.2519 16.1279C22.3295 16.2435 22.3683 16.4356 22.3683 16.7439V16.9173H21.3991C21.3991 16.8595 21.3797 16.8017 21.3797 16.7246ZM18.6855 19.5729H19.6353V13.8764H18.6272V15.6468C18.5496 15.4926 18.4332 15.3583 18.2979 15.2812C18.1626 15.2042 17.9879 15.1656 17.7939 15.1656C17.3869 15.1656 17.0958 15.3198 16.9217 15.6468C16.747 15.9738 16.6699 16.5705 16.6699 17.4364C16.6699 18.3024 16.7475 18.8606 16.9217 19.1876C17.0963 19.5146 17.3869 19.688 17.7939 19.688C18.0073 19.688 18.1814 19.6494 18.3367 19.5531C18.492 19.4568 18.6078 19.3219 18.6855 19.1298V19.5724V19.5729ZM17.7745 16.2628C17.8327 16.1086 17.9685 16.0128 18.1426 16.0128C18.3367 16.0128 18.472 16.1092 18.5496 16.3013C18.6272 16.494 18.6661 16.9558 18.6661 17.7254C18.6661 18.2066 18.6272 18.5143 18.5496 18.6684C18.472 18.8226 18.3361 18.8997 18.1426 18.8997C17.968 18.8997 17.8521 18.8226 17.7745 18.6497C17.7162 18.4763 17.6774 18.0723 17.6774 17.399C17.6774 16.8023 17.7162 16.4175 17.7745 16.2633" fill="#001B3C"/>
<path d="M54.8188 11.2003H55.7686V5.5038H54.78V7.2742C54.7023 7.12006 54.5859 6.98574 54.4506 6.90867C54.3153 6.8316 54.1407 6.79307 53.9466 6.79307C53.5396 6.79307 53.2485 6.9472 53.0744 7.2742C52.8997 7.6012 52.8226 8.19793 52.8226 9.06387C52.8226 9.9298 52.9003 10.4687 53.0744 10.815C53.249 11.142 53.5396 11.2961 53.9466 11.2961C54.1601 11.2961 54.3342 11.2576 54.4894 11.1613C54.6447 11.0649 54.7606 10.9301 54.8382 10.7379L54.8188 11.1998V11.2003ZM53.9272 7.87094C53.9854 7.7168 54.1212 7.62101 54.2954 7.62101C54.4894 7.62101 54.6247 7.71735 54.7023 7.90947C54.78 8.1016 54.8188 8.56402 54.8188 9.33361C54.8188 9.81475 54.78 10.1225 54.7023 10.2766C54.6247 10.4308 54.4889 10.5078 54.2954 10.5078C54.1207 10.5078 54.0048 10.4308 53.9272 10.2579C53.8495 10.085 53.8301 9.68042 53.8301 9.00717C53.8301 8.41043 53.8495 8.0449 53.9272 7.87149M51.8529 11.2009C51.7946 11.1046 51.7558 11.0082 51.7364 10.9124C51.717 10.8167 51.6976 10.7005 51.6976 10.5854V8.1605C51.6976 7.6601 51.6006 7.29457 51.3876 7.10189C51.1747 6.90922 50.806 6.79417 50.2826 6.79417C49.7591 6.79417 49.3715 6.90977 49.1387 7.12116C48.9058 7.33255 48.7899 7.69863 48.7899 8.17977H49.7591V8.1027C49.7591 7.89076 49.7979 7.75644 49.895 7.6601C49.992 7.56376 50.1085 7.50596 50.302 7.50596C50.4378 7.50596 50.5537 7.54449 50.6313 7.62156C50.709 7.69863 50.7478 7.79497 50.7478 7.92929C50.7478 8.1605 50.5537 8.35262 50.1661 8.50676C50.0691 8.5453 50.0109 8.56457 49.972 8.6031C49.4874 8.81504 49.1775 9.02643 49.0222 9.23838C48.867 9.45032 48.7893 9.71951 48.7893 10.085C48.7893 10.4698 48.8864 10.7776 49.0605 11.0088C49.2346 11.24 49.5063 11.3358 49.8356 11.3358C50.0491 11.3358 50.2426 11.2972 50.4173 11.2009C50.592 11.1046 50.7079 10.9697 50.8243 10.8161C50.8437 10.9317 50.8631 11.028 50.8825 11.0853C50.9019 11.1431 50.9213 11.2009 50.9407 11.2394L51.8517 11.2009H51.8529ZM50.7478 9.64189C50.7478 9.94962 50.709 10.1616 50.6119 10.3157C50.5149 10.4698 50.3984 10.5469 50.2243 10.5469C50.0691 10.5469 49.9532 10.5084 49.895 10.412C49.8174 10.3157 49.7979 10.1808 49.7979 9.9887C49.7979 9.79658 49.8562 9.60391 49.992 9.46903C50.1279 9.31489 50.3796 9.16131 50.7478 8.96863V9.64244V9.64189ZM46.6579 11.2009H47.6077V5.50435H46.5997V7.27475C46.5221 7.12061 46.4056 6.98629 46.2703 6.90922C46.135 6.83215 45.9604 6.79362 45.7663 6.79362C45.3593 6.79362 45.0682 6.94775 44.8941 7.27475C44.7194 7.60175 44.6424 8.19849 44.6424 9.06442C44.6424 9.93035 44.72 10.4693 44.8941 10.8156C45.0688 11.1425 45.3593 11.2967 45.7663 11.2967C45.9798 11.2967 46.1539 11.2582 46.3091 11.1618C46.4644 11.0655 46.5803 10.9306 46.6579 10.7385V11.2003V11.2009ZM45.7469 7.87149C45.8051 7.71735 45.941 7.62156 46.1151 7.62156C46.3091 7.62156 46.4444 7.7179 46.5221 7.91002C46.5997 8.10215 46.6385 8.56457 46.6385 9.33416C46.6385 9.8153 46.5997 10.123 46.5221 10.2772C46.4444 10.4313 46.3086 10.5084 46.1151 10.5084C45.9404 10.5084 45.8245 10.4313 45.7469 10.2584C45.6887 10.085 45.6499 9.68098 45.6499 9.00772C45.6499 8.41098 45.6887 8.04545 45.7469 7.87204M43.5179 6.90977H42.5292V11.1822H43.5179V6.90977ZM43.5179 5.5049H42.5292V6.3901H43.5179V5.5049ZM38.6329 9.85438V9.93145C38.6329 10.4126 38.7493 10.7396 38.9622 10.9708C39.1752 11.202 39.5439 11.2978 40.0091 11.2978C40.4743 11.2978 40.8037 11.2014 41.056 10.9901C41.3083 10.7787 41.4241 10.4897 41.4241 10.1049C41.4241 9.62372 41.056 9.16186 40.3385 8.68072C40.2414 8.62292 40.1638 8.56512 40.1056 8.52658C39.8727 8.37244 39.7374 8.25739 39.6598 8.18032C39.6016 8.10325 39.5627 8.00691 39.5627 7.89186C39.5627 7.7768 39.6016 7.69918 39.6792 7.62267C39.7568 7.56486 39.8538 7.52633 39.9697 7.52633C40.1444 7.52633 40.2603 7.56486 40.3379 7.68047C40.4155 7.79607 40.4544 7.93039 40.4544 8.14233V8.23867H41.3266V8.14233C41.3266 7.69973 41.2101 7.35347 40.9972 7.14153C40.7837 6.91032 40.4544 6.81453 40.0085 6.81453C39.5627 6.81453 39.214 6.91087 38.9811 7.12226C38.7482 7.31494 38.6323 7.6034 38.6323 7.9882C38.6323 8.46933 39.0005 8.95046 39.718 9.45087C39.7374 9.47013 39.7568 9.47014 39.7568 9.4894C39.7956 9.52794 39.8733 9.56647 39.9509 9.62427C40.2802 9.83622 40.4355 10.0283 40.4355 10.1825C40.4355 10.3174 40.3967 10.4137 40.3191 10.4902C40.2414 10.5673 40.125 10.6058 39.9897 10.6058C39.815 10.6058 39.6797 10.548 39.6021 10.4517C39.5245 10.3553 39.4857 10.1632 39.4857 9.932V9.8164H38.5941C38.6329 9.79713 38.6329 9.8164 38.6329 9.85493M36.8497 11.202V8.69999C36.8497 8.48805 36.9079 8.31519 37.0437 8.19959C37.1796 8.08398 37.3343 8.00691 37.5478 8.00691H37.6836C37.7224 8.00691 37.7612 8.00691 37.8 8.02618V6.83325C37.5866 6.83325 37.3931 6.89105 37.2378 7.02593C37.0825 7.14153 36.9278 7.35292 36.792 7.64193V6.94941H35.8422V11.2218L36.8502 11.2026H36.8497V11.202ZM33.5932 10.3746C33.5156 10.5095 33.3797 10.5673 33.2056 10.5673C33.0315 10.5673 32.8956 10.4902 32.818 10.3174C32.7404 10.1632 32.7016 9.87475 32.7016 9.47069V9.29728C32.7016 9.25874 32.7016 9.22021 32.721 9.20094H34.6789V8.87395C34.6789 8.39281 34.6595 8.04655 34.6012 7.83461C34.543 7.62267 34.4848 7.44981 34.3683 7.29567C34.2519 7.14153 34.0778 7.00721 33.8837 6.93014C33.6897 6.85307 33.4573 6.81453 33.1856 6.81453C32.9139 6.81453 32.6816 6.85307 32.4687 6.93014C32.2558 7.00721 32.1005 7.12281 31.9841 7.25713C31.8676 7.39146 31.7706 7.58413 31.7323 7.81534C31.6941 8.04655 31.6547 8.41208 31.6547 8.93175C31.6547 9.58629 31.6741 10.0482 31.7323 10.2981C31.7906 10.548 31.8876 10.76 32.0229 10.9141C32.1393 11.049 32.294 11.164 32.4687 11.2218C32.6434 11.2796 32.8757 11.3182 33.1474 11.3182C33.6514 11.3182 34.039 11.2026 34.2719 10.9719C34.5048 10.7412 34.6206 10.3944 34.6206 9.89402V9.73988H33.6708C33.7096 10.0283 33.6708 10.2403 33.5932 10.3752M32.7016 8.33501C32.7016 8.04655 32.7404 7.85387 32.818 7.73827C32.8956 7.62267 33.0121 7.56486 33.1862 7.56486C33.3603 7.56486 33.4961 7.62267 33.5738 7.73827C33.6514 7.85387 33.6902 8.046 33.6902 8.35428V8.52768H32.721C32.7016 8.48915 32.7016 8.41208 32.7016 8.33501ZM29.9103 11.2026L30.8989 6.93014H29.8715L29.3287 10.2017L28.747 6.93014H27.6807L28.6694 11.2026H29.9103ZM26.7897 6.91087H25.801V11.1833H26.7897V6.91087ZM26.7897 5.506H25.801V6.3912H26.7897V5.506ZM22.7192 11.2026V8.46988C22.7192 8.16215 22.758 7.95021 22.8357 7.83461C22.9133 7.69974 23.0297 7.64193 23.2038 7.64193C23.3591 7.64193 23.4556 7.69973 23.5332 7.79607C23.5914 7.89241 23.6302 8.08453 23.6302 8.33501V11.2026H24.5995V7.83461C24.5995 7.50761 24.5218 7.23787 24.3477 7.06501C24.1731 6.8916 23.9407 6.79582 23.6308 6.79582C23.4367 6.79582 23.2626 6.83435 23.1074 6.93069C22.9521 7.02703 22.8362 7.1619 22.7198 7.33476V6.91142H21.7505V11.1838H22.7198V11.2031H22.7192V11.2026ZM16.8267 9.43215C16.8267 10.1439 16.9626 10.6251 17.2337 10.9141C17.5049 11.2031 17.9701 11.3374 18.6293 11.3374C18.9781 11.3374 19.2886 11.2796 19.521 11.1833C19.7727 11.0869 19.9862 10.9334 20.1414 10.7407C20.2385 10.6058 20.3161 10.4522 20.3549 10.2788C20.3937 10.1054 20.4131 9.81695 20.4131 9.43215V5.48728H19.3663V9.3171C19.3663 9.7597 19.308 10.0674 19.211 10.2216C19.114 10.3757 18.9205 10.4528 18.6488 10.4528C18.3771 10.4528 18.1835 10.3757 18.0671 10.2216C17.9507 10.0674 17.9118 9.7597 17.9118 9.3171V5.46802H16.8456L16.8262 9.43215H16.8267Z" fill="#001B3C"/>
</g>
<defs>
<clipPath id="clip0_2418_8169">
<rect width="56" height="26" fill="white"/>
</clipPath>
</defs>
</svg>
