<svg width="94" height="20" viewBox="0 0 94 20" fill="none" xmlns="http://www.w3.org/2000/svg">
<path d="M9.74607 2.60048V17.8711L9.7489 17.8912C10.1371 17.955 10.5297 17.9867 10.923 17.9856C12.3504 17.9856 12.6489 17.7024 12.6489 16.0285V14.4033C12.6489 13.0213 12.4997 12.8668 11.2974 12.6865L10.1966 12.532C10.132 12.4767 10.0801 12.4077 10.0445 12.3299C10.0275 12.2928 10.0145 12.2542 10.0055 12.2146C9.99549 12.171 9.99041 12.1264 9.99041 12.0814C9.99041 11.9956 10.0088 11.9107 10.0445 11.8329C10.0801 11.755 10.132 11.686 10.1966 11.6307C11.9647 11.6822 13.2205 11.708 14.4199 11.708C15.6193 11.708 16.8525 11.6822 17.6972 11.6307C17.7956 11.7597 17.849 11.9182 17.849 12.0814C17.849 12.2445 17.7956 12.4031 17.6972 12.532L17.1341 12.635C16.3823 12.7896 16.2331 13.0213 16.2331 14.4118V15.8425C16.2331 16.924 16.2838 17.4392 16.7596 17.5421C16.8581 17.6451 16.8328 18.0829 16.6836 18.1601C16.0896 18.2406 15.503 18.3698 14.9295 18.5464C13.4821 18.928 11.9956 19.1354 10.5007 19.1645C10.3715 19.1645 10.2437 19.1608 10.117 19.1572C9.99249 19.1537 9.86888 19.1501 9.74607 19.1501V19.7224H18.677V0.837891H9.74607V1.41019C10.1206 1.36728 10.5147 1.36728 10.8976 1.36728C12.7064 1.36728 13.9211 1.62902 14.7693 1.8119L14.7716 1.81225C15.2255 1.91012 15.5743 1.98527 15.853 1.98527C15.8612 2.07607 15.8689 2.18091 15.8765 2.29792C15.8878 2.47222 15.8988 2.6733 15.9109 2.89457C15.9601 3.79239 16.0275 5.02152 16.2049 6.13411C16.0979 6.41742 15.4278 6.44316 15.2533 6.1856C14.4509 3.76502 12.8741 2.55177 10.5457 2.55177C10.2784 2.55177 10.0114 2.568 9.74607 2.60048Z" fill="#001B3C"/>
<path d="M8.52679 1.4582C6.25133 1.49983 4.08289 2.44775 2.48819 4.09773C0.893512 5.74782 0 7.96825 0 10.281C0 12.5938 0.893512 14.8141 2.48819 16.4642C4.08289 18.1143 6.25133 19.0621 8.52679 19.1039V16.6861C6.8783 16.6506 5.30909 15.9602 4.15554 14.7629C3.00203 13.5656 2.35602 11.9567 2.35602 10.281C2.35602 8.60537 3.00203 6.99644 4.15554 5.79908C5.30909 4.60172 6.8783 3.91137 8.52679 3.876V1.4582Z" fill="#001B3C"/>
<path d="M92.4724 1.44463C92.0558 1.44463 91.7545 1.66787 91.7545 1.99687L91.7657 2.01983C91.7657 2.41133 92.1423 2.62889 92.5663 2.87393C93.1122 3.18936 93.7367 3.55025 93.7367 4.38614C93.7403 4.5551 93.7098 4.72314 93.647 4.87969C93.5843 5.03637 93.4908 5.17819 93.3721 5.29671C93.2534 5.41511 93.1121 5.50766 92.9569 5.56854C92.8017 5.62954 92.6359 5.65749 92.4696 5.65076C92.0098 5.66178 91.5605 5.50893 91.1998 5.21878V4.36039C91.3337 4.5602 91.5115 4.72557 91.7192 4.84328C91.9269 4.96099 92.1588 5.02778 92.3964 5.03845C92.9004 5.03845 93.1341 4.70945 93.1341 4.44899C93.1341 4.0009 92.7084 3.73753 92.2528 3.45562C91.7279 3.13091 91.1632 2.78162 91.1632 2.09706C91.1632 1.33875 91.7066 0.852387 92.5372 0.852387C92.8936 0.85517 93.2413 0.964643 93.5367 1.16712V1.92821C93.3995 1.78036 93.2347 1.66149 93.0521 1.57846C92.8695 1.49542 92.6725 1.44997 92.4724 1.44463Z" fill="#001B3C"/>
<path fill-rule="evenodd" clip-rule="evenodd" d="M86.87 1.28123C87.2467 1.00836 87.694 0.854126 88.1563 0.837891V0.852155C88.4722 0.837891 88.7876 0.888916 89.0835 1.00222C89.3794 1.11552 89.6496 1.28877 89.8776 1.51131C90.1056 1.73397 90.2867 2.00139 90.41 2.29722C90.5333 2.59317 90.596 2.9115 90.5946 3.23284C90.5943 3.70286 90.4579 4.16244 90.2024 4.55429C89.9469 4.94614 89.5835 5.25288 89.1577 5.43634C88.7317 5.6198 88.2622 5.67187 87.8074 5.58593C87.3526 5.50012 86.9328 5.28013 86.6002 4.95345C86.2676 4.62677 86.037 4.20778 85.937 3.74878C85.8371 3.2899 85.8723 2.81119 86.0382 2.37237C86.2041 1.93355 86.4934 1.5541 86.87 1.28123ZM87.1877 4.70122C87.4735 4.89894 87.8105 5.00633 88.1563 5.00969C88.389 5.01793 88.621 4.9778 88.8378 4.89164C89.0547 4.80548 89.252 4.67524 89.4176 4.50883C89.5832 4.34253 89.7135 4.14342 89.8007 3.92401C89.8879 3.7046 89.93 3.46942 89.9245 3.23284C89.925 2.88146 89.8232 2.53774 89.6318 2.24504C89.4405 1.95245 89.1682 1.72388 88.8492 1.5882C88.5302 1.45263 88.1788 1.41599 87.8394 1.4829C87.5 1.54993 87.1877 1.7175 86.9418 1.96451C86.696 2.21164 86.5276 2.52707 86.4579 2.87126C86.3882 3.21545 86.4203 3.57286 86.5502 3.8985C86.6801 4.22413 86.9019 4.5035 87.1877 4.70122Z" fill="#001B3C"/>
<path d="M84.2706 0.901557H84.921V5.56262H84.2706V0.901557Z" fill="#001B3C"/>
<path fill-rule="evenodd" clip-rule="evenodd" d="M79.2956 0.901557H81.0497C82.7221 0.901557 83.4598 2.13197 83.4598 3.23354C83.459 3.54885 83.3954 3.86081 83.2728 4.15061C83.1503 4.44029 82.9712 4.70192 82.7466 4.91947C82.522 5.13703 82.2563 5.30622 81.9657 5.41674C81.675 5.52725 81.3654 5.57689 81.0554 5.56262H79.2956V0.901557ZM79.9291 4.96168H80.9737L80.9653 4.93594C82.4406 4.93594 82.7784 3.79146 82.7784 3.21916C82.7784 2.29502 82.2013 1.50238 80.9315 1.50238H79.9291V4.96168Z" fill="#001B3C"/>
<path d="M77.4488 4.63268C77.6769 4.39518 77.7304 4.0518 77.7304 3.61403L77.7275 0.901557H78.3779V3.73139C78.3779 4.87308 77.7134 5.6256 76.3648 5.6256C75.4075 5.6256 74.4784 5.07046 74.4784 3.80004V0.901557H75.1288V3.65694C75.1288 4.18343 75.2048 4.40098 75.4103 4.61262C75.5375 4.74366 75.6899 4.84653 75.858 4.91495C75.9332 4.94556 76.0107 4.96899 76.0897 4.98499C76.1873 5.00482 76.2872 5.0134 76.3873 5.01039C76.58 5.02152 76.7729 4.99381 76.9551 4.92898C77.1372 4.86415 77.305 4.76349 77.4488 4.63268Z" fill="#001B3C"/>
<path d="M71.7413 1.50238H70.1759V0.901557H73.9628V1.50238H72.3945V5.56262H71.7413V1.50238Z" fill="#001B3C"/>
<path d="M68.6048 1.44463C68.1852 1.44463 67.8868 1.66787 67.8868 1.99687L67.8952 2.01983C67.8952 2.41133 68.2718 2.62889 68.6958 2.87393C69.2417 3.18936 69.8661 3.55025 69.8661 4.38614C69.8697 4.5551 69.8392 4.72314 69.7765 4.87969C69.7596 4.92191 69.7405 4.96307 69.7192 5.00297C69.708 5.02396 69.6963 5.0446 69.6839 5.06489C69.6708 5.08646 69.657 5.10769 69.6426 5.12844C69.6007 5.18851 69.5535 5.24487 69.5016 5.29671C69.4697 5.32849 69.4362 5.35841 69.4012 5.38635C69.3599 5.41941 69.3165 5.44967 69.2713 5.47704C69.2456 5.49258 69.2194 5.50719 69.1926 5.52076C69.158 5.53839 69.1226 5.55439 69.0863 5.56854C69.0205 5.5944 68.9527 5.61435 68.8838 5.62815C68.7903 5.64693 68.6948 5.65459 68.5991 5.65076C68.1392 5.66178 67.69 5.50893 67.3293 5.21878V4.36039C67.4631 4.5602 67.641 4.72557 67.8487 4.84328C68.0564 4.96099 68.2883 5.02778 68.5259 5.03845C69.0299 5.03845 69.2636 4.70945 69.2636 4.44899C69.2636 4.0009 68.8379 3.73753 68.3822 3.45562C67.8574 3.13091 67.2927 2.78162 67.2927 2.09706C67.2927 1.33875 67.822 0.852387 68.6667 0.852387C69.024 0.85459 69.3727 0.964179 69.669 1.16712V1.92821C69.5317 1.78036 69.367 1.66149 69.1844 1.57846C69.0017 1.49542 68.8048 1.44997 68.6048 1.44463Z" fill="#001B3C"/>
<path d="M66.6987 3.51395H64.8433V4.96168H66.8226V5.56262H64.1929V0.901557H66.7635V1.50238H64.8433V2.91022H66.6987V3.51395Z" fill="#001B3C"/>
<path d="M61.5267 3.51395H59.6741V4.96168H61.6534V5.56262H59.0237V0.901557H61.5943V1.50238H59.6741V2.91022H61.5267V3.51395Z" fill="#001B3C"/>
<path fill-rule="evenodd" clip-rule="evenodd" d="M54.0453 0.875928H55.805C57.4803 0.875928 58.2151 2.10634 58.2151 3.20791C58.2143 3.52323 58.1507 3.83518 58.0282 4.12498C57.9056 4.41467 57.7266 4.67629 57.502 4.89384C57.2773 5.1114 57.0117 5.28059 56.721 5.39111C56.4303 5.50163 56.1207 5.55126 55.8107 5.537H54.0453V0.875928ZM54.6957 4.96192H55.7318V4.93605C57.2072 4.93605 57.5451 3.79157 57.5451 3.21928C57.5451 2.29513 56.9678 1.5025 55.6981 1.5025H54.6957V4.96192Z" fill="#001B3C"/>
<path fill-rule="evenodd" clip-rule="evenodd" d="M47.6718 1.29584C48.0484 1.02297 48.4958 0.868854 48.9581 0.852502C49.2751 0.838123 49.5918 0.889612 49.8886 1.00372C50.1855 1.11795 50.4563 1.29248 50.6845 1.51665C50.9127 1.74081 51.0935 2.00985 51.2159 2.30743C51.3383 2.60511 51.3997 2.92495 51.3963 3.24746C51.396 3.71759 51.2596 4.17717 51.0041 4.56902C50.7486 4.96076 50.3853 5.2676 49.9594 5.45106C49.5335 5.63452 49.0639 5.68648 48.6092 5.60066C48.1544 5.51473 47.7346 5.29474 47.402 4.96806C47.0694 4.64138 46.8387 4.22239 46.7388 3.76351C46.6388 3.30451 46.674 2.8258 46.8399 2.38698C47.0058 1.94816 47.2951 1.56872 47.6718 1.29584ZM47.9894 4.70157C48.2753 4.89929 48.6123 5.00668 48.9581 5.01004C49.1908 5.01828 49.4227 4.97815 49.6396 4.89199C49.8565 4.80582 50.0538 4.67559 50.2193 4.5093C50.3006 4.42754 50.3735 4.3379 50.4369 4.24187C50.5026 4.14249 50.5581 4.03603 50.6025 3.92436C50.6896 3.70495 50.7317 3.46977 50.7262 3.23319C50.7268 2.88181 50.6249 2.53809 50.4336 2.24538C50.2422 1.9528 49.9699 1.72423 49.6509 1.58855C49.332 1.45298 48.9806 1.41633 48.6412 1.48325C48.3017 1.55028 47.9894 1.71785 47.7436 1.96486C47.4977 2.21199 47.3293 2.52742 47.2596 2.87161C47.1899 3.2158 47.2221 3.57321 47.3519 3.89884C47.4818 4.2246 47.7036 4.50384 47.9894 4.70157Z" fill="#001B3C"/>
<path fill-rule="evenodd" clip-rule="evenodd" d="M45.5372 2.90141C45.401 3.10725 45.2036 3.26358 44.9739 3.34742L44.9823 3.34464C45.3728 3.61101 45.621 4.02189 45.9417 4.5529L45.9931 4.6379C46.1756 4.94324 46.2864 5.10061 46.5669 5.4985L46.6097 5.55926H45.8326L45.2357 4.60358C44.636 3.64499 44.3657 3.53633 44.0335 3.53633H43.7519V5.55926H43.1015V0.898194H44.2446C45.1681 0.898194 45.7313 1.39604 45.7313 2.20294C45.7414 2.45088 45.6735 2.69557 45.5372 2.90141ZM43.7519 2.93829H44.1714C44.8669 2.93829 45.0612 2.56916 45.0612 2.18009C45.0527 1.74232 44.8021 1.47327 44.1714 1.47327H43.7519V2.93829Z" fill="#001B3C"/>
<path d="M40.2667 1.50238H38.6984V0.901557H42.4853V1.50238H40.9171V5.56262H40.2667V1.50238Z" fill="#001B3C"/>
<path d="M34.4047 0.901557L37.4765 4.50964V0.901557H38.0874V5.56262H37.5272L34.4976 1.9746V5.56262H33.8867V0.901557H34.4047Z" fill="#001B3C"/>
<path d="M33.0754 3.51395H31.2228V4.96168H33.2021V5.56262H30.5696V0.901557H33.143V1.50238H31.2228V2.91022H33.0754V3.51395Z" fill="#001B3C"/>
<path d="M26.3575 3.23911C26.3562 3.12894 26.3651 3.01923 26.3838 2.91138C26.3966 2.83751 26.414 2.76457 26.436 2.6929C26.4518 2.6413 26.4699 2.59039 26.4903 2.5404C26.5808 2.31902 26.7147 2.11875 26.8838 1.95164C27.053 1.78465 27.2538 1.6543 27.4741 1.56872C27.6944 1.48302 27.9295 1.44394 28.1652 1.45368C28.7197 1.46388 29.2602 1.6325 29.725 1.94004V1.22186C29.2374 0.991431 28.7083 0.865723 28.1708 0.852734C27.8459 0.837427 27.5214 0.890076 27.2173 1.00743C26.9133 1.12491 26.6363 1.30454 26.4035 1.53532C26.1706 1.76598 25.9869 2.04291 25.8637 2.34883C25.7405 2.65475 25.6806 2.98305 25.6875 3.31356C25.6924 3.63096 25.7601 3.94419 25.8866 4.23457C26.0131 4.52483 26.1959 4.78634 26.4239 5.00343C26.6519 5.22052 26.9206 5.38867 27.214 5.49803C27.5073 5.60727 27.8193 5.65551 28.1314 5.63974C28.7045 5.65041 29.2705 5.50835 29.7728 5.22771V4.49805C29.3059 4.82403 28.7567 5.00679 28.1905 5.02454C27.1009 5.02454 26.3575 4.29777 26.3575 3.25337V3.23911Z" fill="#001B3C"/>
<path d="M93.4045 15.7828C93.0479 15.4455 92.6339 15.1769 92.1825 14.9903C91.724 14.8139 91.2804 14.5996 90.8564 14.3493C90.6604 14.2249 90.4886 14.0649 90.3497 13.8772C90.2209 13.6967 90.1519 13.4792 90.1525 13.2563C90.1456 13.0808 90.1812 12.9062 90.2564 12.7481C90.2932 12.6705 90.339 12.598 90.3925 12.5321C90.4481 12.4636 90.5122 12.4021 90.5833 12.3493C90.8786 12.1434 91.2305 12.0382 91.5885 12.0488C91.9345 12.0213 92.2776 12.131 92.5457 12.3549C92.7886 12.6118 92.9597 12.9299 93.0413 13.2763C93.0581 13.3365 93.0777 13.3956 93.1004 13.4537C93.1027 13.4591 93.1051 13.4643 93.1076 13.4695C93.1137 13.482 93.1204 13.4943 93.1278 13.506C93.1347 13.517 93.1422 13.5277 93.1503 13.538C93.1584 13.5485 93.1672 13.5586 93.1764 13.5682C93.2196 13.6059 93.2744 13.6271 93.3313 13.6283C93.3652 13.6286 93.3988 13.6216 93.4298 13.6078C93.441 13.6029 93.4518 13.5971 93.462 13.5906L93.4677 13.5867C93.4764 13.5807 93.4848 13.5741 93.4927 13.567C93.4993 13.5611 93.5055 13.5548 93.5115 13.5481C93.529 13.5271 93.5431 13.5037 93.5533 13.4787C93.5676 13.4439 93.5746 13.4062 93.5734 13.3679C93.5673 13.2268 93.5596 13.0863 93.5518 12.9464L93.5513 12.9387L93.551 12.9314L93.5503 12.9175C93.5444 12.81 93.5384 12.7028 93.5334 12.596C93.5304 12.5327 93.5278 12.4695 93.5255 12.4065C93.5258 12.3828 93.5254 12.359 93.5244 12.3352C93.5232 12.3077 93.5212 12.2804 93.5183 12.2531C93.5157 12.229 93.5124 12.205 93.5085 12.1811C93.5038 12.153 93.4982 12.1252 93.4918 12.0975C93.4742 12.0426 93.4443 11.9927 93.4045 11.9515C93.3561 11.9068 93.2997 11.8718 93.2383 11.8485C92.7101 11.6596 92.1541 11.5629 91.5941 11.5624C90.9914 11.5546 90.4042 11.7565 89.9301 12.1347C89.6917 12.3277 89.4997 12.5733 89.3685 12.8529C89.2372 13.1325 89.1703 13.4387 89.1727 13.7484C89.1675 14.0003 89.2151 14.2504 89.3121 14.4822C89.4092 14.7142 89.5537 14.9223 89.7358 15.0933C90.102 15.411 90.5167 15.6661 90.9634 15.8487L91.5772 16.1205C91.9516 16.2702 92.2924 16.495 92.5795 16.7814C92.8457 17.0718 92.9875 17.4577 92.9737 17.8544C92.9743 18.0621 92.9282 18.2674 92.8389 18.4543C92.7496 18.6413 92.6195 18.805 92.4585 18.9331C92.1297 19.2016 91.7202 19.3471 91.2985 19.3451C91.085 19.3582 90.8711 19.3267 90.6701 19.2523C90.5441 19.2057 90.4248 19.143 90.3152 19.0658C90.2821 19.0425 90.2498 19.0179 90.2185 18.9921C90.2053 18.9812 90.1923 18.9701 90.1795 18.9587C90.1627 18.9438 90.1462 18.9287 90.13 18.9131C89.8416 18.5806 89.6711 18.1596 89.6457 17.717C89.6429 17.6733 89.6385 17.6297 89.6326 17.5863C89.6295 17.5638 89.626 17.5413 89.6221 17.5191L89.6163 17.4872L89.6119 17.4653C89.6086 17.4462 89.604 17.4275 89.5981 17.4091C89.5908 17.3864 89.5814 17.3644 89.5702 17.3431C89.5632 17.33 89.5555 17.3173 89.5472 17.305C89.5397 17.2944 89.5313 17.2846 89.5222 17.2755C89.5066 17.2601 89.4888 17.247 89.4694 17.2367C89.4503 17.2265 89.4299 17.2192 89.4088 17.2149C89.396 17.2123 89.3829 17.2109 89.3698 17.2106C89.3184 17.2104 89.2682 17.2264 89.2262 17.2564C89.1741 17.2951 89.1348 17.3489 89.1136 17.4109C89.0979 17.4584 89.0866 17.5072 89.0798 17.5569C89.0731 17.6278 89.0673 17.6988 89.0623 17.7699C89.0585 17.8243 89.0553 17.8787 89.0525 17.9332C89.0473 18.037 89.044 18.1409 89.0426 18.2448C89.0413 18.3369 89.0415 18.4289 89.0432 18.521V18.7099C89.0398 18.8158 89.0502 18.9216 89.0742 19.0247C89.0991 19.1409 89.1665 19.2432 89.2628 19.3108C89.8331 19.633 90.4742 19.8033 91.1267 19.8058C91.846 19.8289 92.5501 19.5928 93.1145 19.1391C93.3643 18.9452 93.5714 18.7004 93.7226 18.4204C93.8737 18.1403 93.9654 17.8311 93.992 17.5129C94.0185 17.1946 93.9791 16.8743 93.8765 16.5723C93.7739 16.2705 93.6103 15.9938 93.396 15.76L93.4045 15.7828Z" fill="#001B3C"/>
<path d="M87.5313 17.7335C87.5099 17.7082 87.483 17.6883 87.4527 17.6754C87.4224 17.6624 87.3895 17.6568 87.3568 17.6592C87.3516 17.6594 87.3464 17.6597 87.3412 17.6603C87.3323 17.6612 87.3234 17.6626 87.3146 17.6646C87.2953 17.6689 87.2767 17.6756 87.2589 17.6844C87.2284 17.6997 87.2012 17.7213 87.1794 17.7479C87.1649 17.7662 87.1513 17.7851 87.1387 17.8047C87.1039 17.8582 87.0759 17.916 87.0555 17.9768C87.0401 18.0152 87.0274 18.0523 87.0172 18.0822L87.0167 18.0839C87.0067 18.1133 86.9991 18.1357 86.9935 18.1455C86.9683 18.2395 86.9336 18.33 86.89 18.416C86.8421 18.5105 86.7835 18.5993 86.7153 18.6806C86.5848 18.836 86.4221 18.9601 86.239 19.044C85.8358 19.1607 85.4149 19.2014 84.9973 19.1642C84.7906 19.1686 84.5839 19.1619 84.3779 19.1441C84.2645 19.1355 84.1528 19.1114 84.0457 19.0726C83.9792 19.0479 83.9183 19.0097 83.8665 18.9605C83.8147 18.9115 83.7732 18.8522 83.7444 18.7865C83.6581 18.5756 83.6197 18.3478 83.6318 18.1198V15.9767C83.6286 15.9063 83.6362 15.8358 83.6543 15.7679C83.6568 15.758 83.6604 15.7486 83.6653 15.7398C83.6681 15.7348 83.6712 15.7299 83.6747 15.7254C83.6771 15.7223 83.6797 15.7193 83.6824 15.7164C83.7203 15.6915 83.7642 15.6776 83.8091 15.6762H84.1217C84.5999 15.6629 85.0782 15.6994 85.5492 15.785C85.571 15.7903 85.5918 15.7989 85.611 15.8103C85.6213 15.8163 85.6311 15.8232 85.6404 15.8308C85.6454 15.8349 85.6502 15.8391 85.6548 15.8436L85.6597 15.8484L85.6646 15.8537C85.7266 15.9292 85.7726 16.0168 85.7998 16.1112C85.8364 16.233 85.8646 16.3573 85.8842 16.4831C85.8879 16.5082 85.8933 16.5329 85.9005 16.5571C85.9105 16.591 85.9239 16.6237 85.9406 16.6548C85.9519 16.6773 85.9665 16.6977 85.9838 16.7154C85.9879 16.7196 85.9921 16.7237 85.9965 16.7276C86.0007 16.7313 86.0051 16.7348 86.0095 16.7383L86.0165 16.7435C86.0551 16.7717 86.1014 16.7866 86.1489 16.7864C86.1759 16.7913 86.2035 16.7913 86.2305 16.7864C86.2845 16.7651 86.328 16.723 86.3516 16.6691C86.3787 16.6041 86.3913 16.5337 86.3882 16.4631C86.3882 16.1497 86.3669 15.8526 86.3455 15.5531L86.3452 15.5497L86.3435 15.5268L86.3347 15.4004L86.3291 15.3186C86.3544 14.9724 86.377 14.6061 86.3882 14.2599C86.3899 14.2232 86.3828 14.1866 86.3676 14.1532C86.3524 14.1198 86.3295 14.0907 86.3009 14.0682C86.2556 14.0384 86.2028 14.0225 86.1489 14.0224C86.1014 14.0222 86.0551 14.0373 86.0165 14.0653C85.9716 14.1007 85.9374 14.1484 85.918 14.2026C85.9024 14.2423 85.8911 14.2836 85.8842 14.3257L85.8807 14.3535C85.8771 14.3805 85.8732 14.4076 85.869 14.4343C85.8642 14.4643 85.859 14.4941 85.8533 14.5239C85.8323 14.6347 85.805 14.7444 85.7716 14.8522C85.7648 14.8724 85.7567 14.8921 85.7475 14.9112C85.7443 14.9177 85.741 14.9242 85.7376 14.9306C85.7203 14.9628 85.6996 14.9932 85.6759 15.021C85.6469 15.0564 85.6055 15.079 85.5604 15.084C85.2061 15.123 84.8497 15.1401 84.4934 15.1355H84.1245C84.0307 15.1404 83.9368 15.1404 83.8429 15.1355C83.8051 15.1334 83.768 15.1247 83.7332 15.1097C83.7183 15.0995 83.7054 15.0868 83.6949 15.0723C83.6821 15.0545 83.673 15.0342 83.6684 15.0124C83.6463 14.9023 83.6369 14.79 83.6402 14.6776V12.7319C83.6394 12.7159 83.6393 12.6999 83.6398 12.6839C83.6405 12.6589 83.6428 12.634 83.6467 12.6093C83.651 12.5812 83.6573 12.5534 83.6656 12.526C83.6726 12.5031 83.685 12.4824 83.7017 12.4655C83.7059 12.4612 83.7104 12.4571 83.7151 12.4534L83.72 12.4497L83.7248 12.4463C83.7361 12.4388 83.7483 12.4329 83.7613 12.4287C83.8169 12.4093 83.8745 12.3968 83.933 12.3915C84.1659 12.3671 84.4 12.3567 84.6341 12.36C85.0664 12.34 85.4994 12.3805 85.9208 12.4802C86.0748 12.5201 86.2151 12.6023 86.3263 12.7177C86.4435 12.8434 86.5387 12.9886 86.6078 13.1469L86.7852 13.4874C86.7938 13.5124 86.8033 13.5371 86.8138 13.5613C86.8279 13.5938 86.8437 13.6255 86.8612 13.6562C86.8806 13.6922 86.9063 13.7242 86.9372 13.7506C86.9613 13.771 86.9894 13.7854 87.0192 13.793C87.0374 13.7977 87.0562 13.7998 87.0752 13.7992C87.0821 13.7995 87.089 13.7994 87.0959 13.799C87.1017 13.7986 87.1075 13.7979 87.1133 13.7969L87.1175 13.7961C87.121 13.7954 87.1244 13.7947 87.1278 13.7937L87.1353 13.7915L87.1382 13.7906L87.1448 13.7883C87.1564 13.784 87.1674 13.7784 87.1778 13.7717C87.1874 13.7656 87.1964 13.7585 87.2047 13.7506C87.2451 13.7102 87.2726 13.6583 87.2836 13.6018C87.2873 13.56 87.2873 13.5179 87.2836 13.4759V12.1711C87.2839 12.1632 87.2839 12.1554 87.2838 12.1476L87.2833 12.1303L87.2821 12.1119L87.2811 12.0998L87.2796 12.0873C87.2732 12.0364 87.2594 11.9865 87.2385 11.9394C87.2167 11.8966 87.1835 11.8609 87.1428 11.8364C87.128 11.8279 87.1126 11.8208 87.0968 11.8152L87.0871 11.812L87.0789 11.8095L87.0711 11.8075L87.063 11.8055C87.0421 11.801 87.0207 11.7989 86.9992 11.7992C86.7787 11.7992 86.5588 11.8017 86.3393 11.8054C86.0522 11.8104 85.7657 11.8177 85.479 11.825H85.4739C84.9656 11.8378 84.4571 11.8507 83.9443 11.8507C83.5765 11.8507 83.201 11.838 82.8245 11.8251C82.708 11.821 82.5915 11.8171 82.475 11.8135C82.3835 11.8106 82.2919 11.808 82.2007 11.8059C82.0303 11.8019 81.8605 11.7992 81.6919 11.7992C81.6733 11.7988 81.6547 11.7999 81.6365 11.8027C81.6231 11.8048 81.6098 11.8077 81.5969 11.8114C81.5796 11.8164 81.5629 11.8229 81.5466 11.8307C81.5243 11.8414 81.5031 11.8549 81.4835 11.8708C81.4505 11.8979 81.424 11.9325 81.4059 11.9715C81.3972 11.9906 81.3906 12.0104 81.3861 12.0307C81.3814 12.0524 81.3791 12.0745 81.3794 12.0968C81.3792 12.1302 81.386 12.1629 81.3988 12.1929C81.4097 12.2184 81.4249 12.2421 81.4441 12.2627L81.4519 12.2698L81.4613 12.2778L81.4672 12.2825C81.4713 12.2857 81.4754 12.2887 81.4796 12.2917L81.4866 12.2965C81.5302 12.3254 81.5803 12.3435 81.6327 12.3486C81.689 12.3524 81.7454 12.3524 81.8017 12.3486C81.8639 12.3471 81.926 12.3488 81.988 12.3538C82.0625 12.3598 82.1366 12.3705 82.21 12.3858C82.2633 12.3969 82.3134 12.4205 82.3563 12.4544C82.3734 12.4699 82.3884 12.4873 82.4012 12.506C82.4119 12.5218 82.421 12.5386 82.4285 12.5563C82.4392 12.582 82.4463 12.6094 82.4492 12.6375C82.4675 12.7664 82.4749 12.8966 82.4718 13.0267V18.4774C82.4734 18.5479 82.4723 18.6186 82.4683 18.6889C82.4653 18.7407 82.4609 18.7923 82.4549 18.8438C82.4532 18.8653 82.4498 18.8867 82.4446 18.9077L82.4422 18.9169L82.438 18.9312C82.4355 18.9393 82.4327 18.9473 82.4296 18.9552C82.4271 18.9617 82.4245 18.9681 82.4217 18.9745L82.4182 18.9821L82.414 18.9906L82.407 19.0039C82.3892 19.035 82.3652 19.062 82.3366 19.0831C82.308 19.1043 82.2754 19.1192 82.2409 19.127C82.0973 19.1627 81.9494 19.1781 81.8017 19.1728C81.7228 19.1707 81.6441 19.1803 81.568 19.2014C81.5211 19.2132 81.4782 19.2381 81.4441 19.273C81.4037 19.3163 81.3806 19.3734 81.3794 19.4331C81.3782 19.4775 81.3874 19.5216 81.4059 19.5618C81.4245 19.6021 81.452 19.6373 81.4864 19.6649C81.5454 19.71 81.618 19.7332 81.6919 19.7307C81.7225 19.7307 81.7533 19.7299 81.7841 19.7286L81.8216 19.7269L81.8617 19.7243C81.9114 19.7209 81.961 19.7165 82.0102 19.7118L82.0753 19.7054C82.2013 19.6929 82.3239 19.6807 82.438 19.6821H87.1766C87.1934 19.6845 87.2104 19.6845 87.2273 19.6821C87.2484 19.6787 87.2686 19.6708 87.2865 19.659C87.2944 19.6539 87.3017 19.648 87.3084 19.6415C87.3171 19.6332 87.3248 19.6238 87.3314 19.6134C87.3477 19.5835 87.3574 19.5502 87.3596 19.5161L87.5397 18.2142C87.5703 18.1111 87.5873 18.0043 87.5904 17.8967C87.5919 17.8664 87.588 17.8364 87.579 17.8079C87.5764 17.7996 87.5734 17.7915 87.5699 17.7835L87.5652 17.7735C87.5628 17.7686 87.5603 17.7638 87.5576 17.759C87.5508 17.7471 87.5429 17.7357 87.5341 17.7249L87.5313 17.7335Z" fill="#001B3C"/>
<path d="M80.2107 11.7876C80.1624 11.778 80.1134 11.7731 80.0642 11.7734C79.8994 11.7734 79.7383 11.7867 79.58 11.7998C79.4273 11.8124 79.2774 11.8249 79.1295 11.8249C79.0432 11.8249 78.9561 11.8217 78.8685 11.817C78.7813 11.8122 78.6935 11.8059 78.6051 11.7996H78.6029C78.4213 11.7866 78.2373 11.7734 78.0511 11.7734C77.9744 11.7732 77.8985 11.7898 77.8287 11.822C77.7891 11.844 77.7553 11.8754 77.7301 11.9136L77.724 11.9247L77.7196 11.9335L77.7166 11.9399L77.7131 11.9479C77.7092 11.9572 77.7058 11.9666 77.7029 11.9762C77.6991 11.9892 77.6961 12.0024 77.694 12.0158C77.6919 12.0302 77.6907 12.0448 77.6907 12.0595C77.688 12.1164 77.706 12.1725 77.7414 12.2168C77.7866 12.2714 77.8495 12.308 77.9188 12.3198C77.9712 12.3249 78.024 12.3249 78.0764 12.3198H78.1215C78.1635 12.3183 78.2054 12.3185 78.2472 12.3206C78.3328 12.325 78.4179 12.3372 78.5016 12.357C78.5533 12.369 78.6019 12.3919 78.6442 12.4245C78.6727 12.4464 78.6978 12.4724 78.7189 12.5015C78.7291 12.5156 78.7383 12.5304 78.7466 12.5458C78.8074 12.6868 78.8408 12.8384 78.8451 12.9922C78.862 13.1868 78.8648 13.3985 78.8648 13.5645V17.1811C78.8743 17.4486 78.8554 17.7162 78.8085 17.9795C78.7611 18.232 78.6417 18.4649 78.465 18.6491C78.0089 19.1212 77.2684 19.2813 76.6011 19.2813C76.2468 19.284 75.8943 19.2298 75.5565 19.1212C75.2281 19.0306 74.943 18.8222 74.7541 18.5346C74.6414 18.3101 74.5744 18.0648 74.557 17.8135C74.5272 17.5285 74.5149 17.2418 74.5204 16.9551V12.9636C74.5201 12.9453 74.52 12.927 74.5201 12.9087C74.5203 12.8719 74.5215 12.8352 74.5236 12.7985C74.5268 12.7418 74.5324 12.6852 74.5401 12.6289C74.5456 12.5786 74.5609 12.5299 74.5852 12.4857C74.6041 12.4569 74.6286 12.4321 74.6571 12.4129C74.6857 12.3938 74.7176 12.3806 74.7513 12.3742C74.8961 12.3402 75.0448 12.3257 75.1934 12.3313C75.2716 12.3327 75.3496 12.3211 75.4242 12.297C75.4734 12.2836 75.5182 12.2568 75.5537 12.2197C75.5745 12.1971 75.5907 12.1706 75.6013 12.1416C75.604 12.134 75.6064 12.1265 75.6084 12.1186L75.6105 12.1096C75.6146 12.0903 75.6164 12.0706 75.6157 12.0509C75.6177 12.0065 75.6087 11.9622 75.5895 11.9221C75.5703 11.8823 75.5415 11.8477 75.5059 11.822C75.4452 11.7833 75.3747 11.7634 75.3031 11.7648C75.0705 11.7648 74.8393 11.7778 74.6098 11.7908C74.3839 11.8035 74.1597 11.8163 73.9376 11.8163C73.7158 11.8163 73.4982 11.8036 73.2786 11.7909C73.0549 11.7779 72.829 11.7648 72.5946 11.7648C72.5632 11.7635 72.5319 11.7664 72.5015 11.7732C72.4609 11.7825 72.4218 11.7989 72.3862 11.822C72.3664 11.8356 72.349 11.8526 72.3348 11.8721C72.3294 11.8795 72.3243 11.8874 72.3199 11.8955C72.3152 11.9041 72.311 11.9129 72.3074 11.9221C72.2977 11.9452 72.2908 11.9692 72.2867 11.9937C72.2835 12.0125 72.2819 12.0316 72.282 12.0509C72.2814 12.1116 72.3024 12.1706 72.3412 12.2168C72.3633 12.2404 72.3886 12.2601 72.4162 12.2757C72.4312 12.2842 72.4469 12.2915 72.4631 12.2974C72.4723 12.3008 72.4816 12.3037 72.4911 12.3061C72.5047 12.3097 72.5186 12.3124 72.5326 12.3141C72.5851 12.3178 72.6378 12.3178 72.6903 12.3141C72.8272 12.3103 72.9641 12.3218 73.0986 12.3484C73.1519 12.3595 73.2025 12.3808 73.2478 12.4114C73.2979 12.454 73.3301 12.5143 73.3379 12.5801C73.3588 12.7011 73.3673 12.8238 73.3632 12.9465V17.2355C73.3478 17.5982 73.3819 17.9611 73.4646 18.3143C73.5674 18.686 73.7982 19.008 74.115 19.2212C74.74 19.6877 75.6889 19.7935 76.4068 19.7935C77.2093 19.7935 78.0961 19.6734 78.7325 19.1126C79.0267 18.8653 79.2383 18.5315 79.3378 18.1569C79.4147 17.799 79.445 17.4326 79.4279 17.0667V13.2612C79.4268 13.2337 79.4261 13.2063 79.4258 13.1788C79.4249 13.0845 79.4286 12.9902 79.437 12.8965C79.4471 12.7845 79.4638 12.6732 79.4871 12.563C79.5084 12.494 79.5547 12.4357 79.6165 12.3999C79.7174 12.3479 79.8302 12.3241 79.9432 12.3313C80.0302 12.3335 80.1172 12.3248 80.2022 12.3055C80.2584 12.2945 80.3107 12.2689 80.3542 12.2311C80.3805 12.2088 80.4015 12.1808 80.4156 12.149L80.4191 12.1407L80.4233 12.1296C80.4285 12.1145 80.4321 12.0989 80.4341 12.083C80.4347 12.0781 80.4352 12.0731 80.4355 12.0682L80.4359 12.0588V12.048C80.4365 11.9917 80.4198 11.9368 80.388 11.8906C80.365 11.8611 80.3368 11.8368 80.305 11.8187C80.2793 11.8041 80.2513 11.7935 80.2219 11.7876H80.2107Z" fill="#001B3C"/>
<path d="M71.1794 15.7604C71.1603 15.7582 71.1411 15.7571 71.1219 15.757C71.0161 15.757 70.911 15.7601 70.8068 15.7647C70.7044 15.7694 70.6028 15.7756 70.5023 15.7818L70.4939 15.7821L70.4867 15.7825H70.4794C70.2765 15.7949 70.0781 15.807 69.8859 15.8055C69.8321 15.8052 69.7772 15.804 69.7212 15.8023C69.5906 15.7981 69.4545 15.7906 69.3152 15.7829L69.3063 15.7826L69.3005 15.7822C69.07 15.7698 68.831 15.757 68.5935 15.757C68.5476 15.756 68.5017 15.7593 68.4564 15.7665C68.4306 15.7706 68.4049 15.776 68.3796 15.7827C68.3539 15.7915 68.3299 15.8045 68.3085 15.821C68.2878 15.8367 68.2696 15.8558 68.2545 15.8774C68.2237 15.9216 68.2073 15.9746 68.2078 16.0288C68.2063 16.0877 68.2256 16.1452 68.2623 16.1909C68.299 16.2366 68.3506 16.2674 68.4077 16.2776C68.4313 16.2825 68.4551 16.2861 68.479 16.2885C68.5049 16.2911 68.5309 16.2923 68.5569 16.292H68.6048C68.6434 16.2904 68.6819 16.2899 68.7204 16.2906C68.8156 16.2925 68.9106 16.3015 69.0046 16.3178C69.0611 16.3268 69.1154 16.3463 69.1651 16.3749C69.1739 16.3813 69.1823 16.3882 69.1903 16.3955C69.2016 16.4059 69.212 16.4172 69.2214 16.4291C69.2313 16.4417 69.2401 16.4552 69.2478 16.4692C69.2619 16.495 69.272 16.523 69.2777 16.5524C69.2905 16.6206 69.2998 16.6894 69.3055 16.7586C69.3079 16.7878 69.3097 16.8171 69.3108 16.8465C69.3125 16.8905 69.3127 16.9346 69.3115 16.9787V18.1604C69.3142 18.3156 69.3028 18.4708 69.2777 18.6239C69.2641 18.7482 69.2095 18.8642 69.1229 18.953C68.9428 19.0854 68.7344 19.1728 68.5147 19.2077C68.425 19.2247 68.3347 19.2384 68.2441 19.2485C68.1646 19.2574 68.0849 19.2637 68.0051 19.2672C67.9451 19.2698 67.885 19.271 67.8249 19.2706C66.8141 19.2706 65.9807 18.9844 65.319 18.2148C64.7486 17.5362 64.4474 16.6661 64.4744 15.7741C64.473 14.8452 64.7695 13.9411 65.319 13.1989C65.5989 12.8516 65.9553 12.5762 66.3593 12.3947C66.7633 12.2133 67.2036 12.131 67.6447 12.1545C68.0396 12.1392 68.4324 12.2196 68.7907 12.3891C69.1149 12.5607 69.3699 12.8421 69.5114 13.1846L69.5303 13.2246L69.5478 13.2627L69.5792 13.333C69.614 13.4112 69.6464 13.484 69.6831 13.548C69.7096 13.5997 69.7449 13.6462 69.7873 13.6853C69.8358 13.7261 69.8962 13.7493 69.9591 13.7512C70.005 13.7505 70.05 13.7383 70.0903 13.7159C70.106 13.7071 70.1209 13.6969 70.1346 13.6853C70.1559 13.6672 70.1746 13.646 70.19 13.6223C70.2299 13.5521 70.2495 13.4717 70.2463 13.3906L70.2238 12.8698C70.2152 12.7869 70.2141 12.7082 70.213 12.6319V12.6308C70.2116 12.5317 70.2103 12.437 70.1928 12.3433C70.1764 12.2556 70.1376 12.1737 70.0802 12.1058C70.0067 12.0301 69.9171 11.9724 69.8183 11.9371C69.1875 11.7002 68.52 11.58 67.8474 11.5822C66.6737 11.5839 65.5378 12.0041 64.6377 12.7698C64.1854 13.144 63.8206 13.6155 63.5694 14.1503C63.3181 14.6853 63.1868 15.2701 63.1849 15.8628C63.1823 16.438 63.3096 17.0063 63.5571 17.5236C63.8046 18.041 64.1656 18.4938 64.6123 18.8471C65.4625 19.5279 66.5238 19.878 67.6053 19.8342C68.5228 19.8607 69.4285 19.6194 70.2153 19.139C70.3068 19.0824 70.3833 19.0038 70.4378 18.9101C70.4735 18.8282 70.4899 18.739 70.4856 18.6496V16.8328C70.4824 16.737 70.489 16.6411 70.5053 16.5467C70.5071 16.5305 70.5101 16.5144 70.5144 16.4988C70.5162 16.4921 70.5183 16.4855 70.5205 16.4788C70.5233 16.471 70.5263 16.4632 70.5296 16.4555C70.5419 16.4275 70.5584 16.4013 70.5785 16.3778C70.614 16.3536 70.6544 16.3379 70.6968 16.332C70.7338 16.332 70.7743 16.3265 70.8145 16.3208C70.8384 16.3174 70.8623 16.3142 70.8854 16.312L71.1079 16.2862C71.1744 16.2905 71.2409 16.2788 71.3021 16.2519C71.3431 16.232 71.3774 16.2001 71.4006 16.1604C71.4255 16.1159 71.4381 16.0655 71.4372 16.0144C71.4378 15.9682 71.4261 15.9228 71.4035 15.8828C71.372 15.8307 71.3229 15.7921 71.2655 15.7741L71.2627 15.7769L71.2425 15.7717C71.2353 15.7698 71.228 15.7682 71.2208 15.7668C71.2071 15.7641 71.1933 15.7619 71.1794 15.7604Z" fill="#001B3C"/>
<path d="M61.0788 12.4857C61.0977 12.4569 61.1222 12.4321 61.1507 12.4129C61.1631 12.4046 61.1762 12.3974 61.1898 12.3914C61.199 12.3873 61.2083 12.3838 61.2179 12.3809C61.2268 12.3781 61.2357 12.3759 61.2449 12.3742C61.3888 12.3401 61.5365 12.3257 61.6841 12.3313C61.6964 12.3314 61.7086 12.3312 61.7208 12.3307C61.732 12.3302 61.7432 12.3295 61.7543 12.3285C61.7634 12.3277 61.7725 12.3268 61.7815 12.3256C61.7909 12.3244 61.8003 12.323 61.8096 12.3214C61.8433 12.3157 61.8767 12.3076 61.9093 12.297C61.9591 12.2848 62.0041 12.2579 62.0389 12.2197C62.0806 12.1737 62.1037 12.1134 62.1036 12.0509C62.1047 12.0267 62.1025 12.0027 62.0973 11.9793C62.0928 11.9596 62.0862 11.9405 62.0774 11.9221C62.0747 11.9166 62.0719 11.911 62.0688 11.9057L62.0624 11.895C62.0576 11.8874 62.0524 11.8801 62.0468 11.873C62.0316 11.8536 62.0138 11.8363 61.9938 11.822C61.9329 11.7837 61.8626 11.7639 61.7911 11.7648C61.5631 11.7648 61.3371 11.7772 61.1131 11.7895C61.001 11.7956 60.8894 11.8018 60.7783 11.8063C60.6592 11.8112 60.5407 11.8142 60.4227 11.8134C60.2078 11.812 59.9966 11.8007 59.7841 11.7894C59.5541 11.7771 59.3225 11.7648 59.0825 11.7648C59.0081 11.7616 58.9345 11.7816 58.8714 11.822C58.8549 11.8333 58.8402 11.8469 58.8276 11.8622C58.8129 11.8801 58.801 11.9002 58.7925 11.9221C58.7764 11.963 58.7687 12.0068 58.77 12.0509C58.7683 12.0811 58.7726 12.1115 58.7828 12.14C58.7929 12.1686 58.8087 12.1947 58.8291 12.2168C58.8785 12.2711 58.9455 12.3057 59.0178 12.3141C59.0377 12.3155 59.0577 12.3164 59.0776 12.3168C59.0995 12.3172 59.1214 12.317 59.1433 12.3161C59.155 12.3156 59.1666 12.3149 59.1783 12.3141C59.2426 12.3123 59.3068 12.3139 59.3709 12.3189C59.4423 12.3246 59.5133 12.3344 59.5837 12.3484C59.6058 12.3532 59.6276 12.3597 59.6487 12.3677C59.6791 12.3792 59.7083 12.3938 59.7357 12.4114C59.7579 12.4316 59.7766 12.4551 59.7913 12.481C59.8086 12.5114 59.8204 12.545 59.8259 12.5803C59.8442 12.7013 59.8517 12.8239 59.8484 12.9465V18.5374C59.8494 18.579 59.8493 18.6206 59.8481 18.6622C59.8472 18.6915 59.8457 18.7208 59.8437 18.7502C59.8408 18.7919 59.8367 18.8336 59.8315 18.8751C59.8251 18.9264 59.8088 18.976 59.7836 19.021C59.7734 19.0368 59.7616 19.0516 59.7483 19.0648C59.7371 19.076 59.7249 19.0863 59.7119 19.0952C59.6834 19.1149 59.6513 19.1286 59.6175 19.1354C59.4738 19.1707 59.326 19.1861 59.1783 19.1812H59.1304C59.0896 19.1791 59.0487 19.1817 59.0086 19.1887C58.9983 19.1904 58.9879 19.1925 58.9777 19.1948C58.9681 19.197 58.9585 19.1996 58.949 19.2023C58.9409 19.2047 58.9329 19.2072 58.9249 19.2099C58.8815 19.2254 58.8434 19.2532 58.8151 19.2899C58.8099 19.2968 58.8051 19.3042 58.8007 19.3118C58.7975 19.3175 58.7944 19.3233 58.7917 19.3292C58.7881 19.3369 58.7849 19.3446 58.7822 19.3526C58.7803 19.3581 58.7786 19.3636 58.7772 19.3693C58.7713 19.3918 58.7689 19.4153 58.77 19.4388C58.7685 19.4852 58.7782 19.5313 58.7982 19.5732L58.8018 19.5803L58.8067 19.5889C58.8101 19.5945 58.8138 19.6001 58.8177 19.6056C58.8207 19.6097 58.8238 19.6138 58.8271 19.6177C58.8304 19.6218 58.8339 19.6257 58.8375 19.6296L58.8456 19.6379L58.8542 19.6457C58.8671 19.6568 58.8811 19.6664 58.8961 19.6746C58.908 19.6809 58.9204 19.6864 58.9333 19.6906C58.9812 19.7075 59.0318 19.7153 59.0825 19.7134C59.209 19.7134 59.3349 19.7095 59.4605 19.704C59.5512 19.6999 59.6416 19.6951 59.7319 19.6902L59.7571 19.6888C59.9894 19.6759 60.2198 19.6633 60.4481 19.6648C60.6627 19.6662 60.8735 19.6773 61.0859 19.6887C61.3166 19.701 61.5492 19.7134 61.7911 19.7134C61.8596 19.7155 61.9274 19.6997 61.9882 19.6676C62.0246 19.645 62.0539 19.6122 62.0727 19.5732C62.0944 19.5319 62.1051 19.4855 62.1036 19.4388C62.1028 19.3841 62.0851 19.3309 62.053 19.2871C62.0093 19.2364 61.9495 19.2029 61.884 19.1927C61.8335 19.1875 61.7825 19.1875 61.732 19.1927H61.6841C61.5468 19.1947 61.4098 19.1803 61.2759 19.1498C61.2436 19.1435 61.2125 19.133 61.1831 19.1184C61.1634 19.1086 61.1445 19.0972 61.1266 19.0839C61.0743 19.0367 61.0412 18.9714 61.0337 18.9008C61.0291 18.8679 61.0251 18.8349 61.0218 18.8019C61.0192 18.7756 61.0171 18.7493 61.0154 18.7229C61.0132 18.6888 61.0117 18.6547 61.011 18.6205C61.0102 18.5833 61.0103 18.5461 61.0112 18.5089V12.9579C61.0082 12.8461 61.0139 12.7341 61.0281 12.6232C61.0344 12.5726 61.0507 12.524 61.0759 12.4801L61.0788 12.4857Z" fill="#001B3C"/>
<path fill-rule="evenodd" clip-rule="evenodd" d="M57.69 19.1896C57.6596 19.1892 57.6291 19.1904 57.5988 19.1931C57.5736 19.1935 57.5485 19.1925 57.5235 19.1898C57.4978 19.187 57.4724 19.1825 57.4473 19.1764C57.4272 19.1715 57.4074 19.1655 57.3879 19.1584C57.3656 19.1504 57.3437 19.1409 57.3223 19.1301C57.2365 19.0867 57.1623 19.0229 57.106 18.9442C56.9752 18.759 56.8639 18.5606 56.7738 18.3518L55.8024 16.4291C55.7473 16.3087 55.6867 16.191 55.6208 16.0764C55.5888 16.0205 55.5554 15.9655 55.5209 15.9112C55.4671 15.8379 55.4047 15.7716 55.3351 15.7137C55.7219 15.6208 56.0805 15.4332 56.3796 15.1673C56.5749 14.991 56.7303 14.774 56.8353 14.5309C56.9403 14.288 56.9923 14.0247 56.9878 13.7594C56.9967 13.463 56.9326 13.169 56.8013 12.9043C56.67 12.6394 56.4757 12.4121 56.236 12.243C55.755 11.9221 55.1894 11.7576 54.6143 11.7708L54.5197 11.7712L54.4926 11.7715C54.4506 11.7717 54.4087 11.7722 54.3669 11.7729C54.194 11.7757 54.0219 11.7809 53.8499 11.787L53.8009 11.7888L53.5929 11.7966L53.5851 11.7969C53.4119 11.8034 53.2387 11.8099 53.0647 11.8148C52.8997 11.8194 52.7341 11.8224 52.5674 11.8224C52.3781 11.8224 52.1802 11.8098 51.9798 11.797H51.9758C51.8812 11.791 51.786 11.785 51.691 11.7802C51.5904 11.7752 51.49 11.7716 51.3905 11.7708C51.3114 11.7687 51.2336 11.7918 51.168 11.8367C51.154 11.8485 51.1412 11.8616 51.1298 11.8759C51.1218 11.8857 51.1146 11.8962 51.108 11.9071C51.1016 11.9179 51.0958 11.929 51.0907 11.9405C51.0731 11.9807 51.0649 12.0244 51.0667 12.0684C51.0664 12.1288 51.0886 12.187 51.1286 12.2315C51.1808 12.2805 51.2468 12.3116 51.3172 12.3203C51.3697 12.324 51.4224 12.324 51.4749 12.3203C51.6119 12.3164 51.7488 12.3279 51.8832 12.3546C51.9371 12.365 51.9881 12.3875 52.0324 12.4203C52.0475 12.4325 52.061 12.4463 52.0728 12.4616C52.0766 12.4667 52.0803 12.4719 52.0838 12.4773C52.0876 12.4831 52.0912 12.4891 52.0945 12.4954C52.1101 12.5244 52.1196 12.5563 52.1225 12.5892C52.1268 12.6146 52.1305 12.6401 52.1338 12.6656C52.1365 12.687 52.1389 12.7083 52.1409 12.7297C52.1426 12.7493 52.1441 12.7689 52.1453 12.7885C52.1488 12.8459 52.1497 12.9036 52.1478 12.9612V18.5407L52.1481 18.5703L52.148 18.5964C52.1476 18.6422 52.1461 18.688 52.1435 18.7337C52.1406 18.783 52.1365 18.8322 52.1309 18.8812C52.1237 18.9324 52.1075 18.9818 52.0831 19.0271C52.0641 19.0569 52.0393 19.0824 52.0103 19.102C52.0017 19.1078 51.9928 19.113 51.9837 19.1178C51.9618 19.129 51.9384 19.137 51.9142 19.1416C51.8452 19.1587 51.7753 19.1711 51.7049 19.1789C51.6286 19.1873 51.5518 19.19 51.4749 19.1874H51.4271C51.3574 19.1839 51.2877 19.1935 51.2215 19.2159C51.2061 19.2217 51.1913 19.229 51.1775 19.2377C51.1719 19.2413 51.1664 19.2451 51.1611 19.2492C51.1436 19.2624 51.1279 19.2782 51.1145 19.296C51.0838 19.3394 51.067 19.3914 51.0667 19.4448C51.0652 19.4913 51.0748 19.5375 51.0948 19.5793C51.1237 19.6361 51.1732 19.6792 51.2328 19.6995C51.2802 19.7142 51.3297 19.7211 51.3792 19.7195C51.467 19.7195 51.5544 19.7178 51.6414 19.715C51.7835 19.7104 51.9245 19.703 52.0648 19.6955L52.0746 19.6948C52.2998 19.6829 52.523 19.671 52.7448 19.671C52.9668 19.671 53.1853 19.6829 53.4056 19.695C53.4906 19.6996 53.576 19.7042 53.6619 19.7083C53.802 19.7148 53.9435 19.7195 54.0878 19.7195C54.1571 19.7213 54.2258 19.7056 54.2877 19.6737C54.324 19.651 54.3534 19.6183 54.3721 19.5793C54.3921 19.5375 54.4018 19.4913 54.4003 19.4448C54.4003 19.433 54.3996 19.4212 54.398 19.4096C54.3971 19.4025 54.3959 19.3955 54.3944 19.3886C54.3932 19.3832 54.3919 19.378 54.3904 19.3728C54.3824 19.3444 54.3696 19.3175 54.3524 19.2933C54.3296 19.2666 54.3022 19.2448 54.2719 19.2285C54.2445 19.2138 54.2146 19.2036 54.1835 19.1987C54.1656 19.1969 54.1476 19.1957 54.1296 19.1951C54.11 19.1946 54.0904 19.1948 54.0708 19.1957C54.0567 19.1963 54.0427 19.1973 54.0286 19.1987H53.9808C53.8437 19.1999 53.7069 19.1864 53.5725 19.1587C53.5188 19.1462 53.468 19.1228 53.4233 19.0901C53.4166 19.0838 53.4102 19.0772 53.4042 19.0705C53.3962 19.0616 53.3889 19.0522 53.3821 19.0423C53.3549 19.0024 53.3379 18.9559 53.3332 18.907C53.3134 18.7773 53.3059 18.646 53.3107 18.515V16.2745C53.3064 16.2069 53.3064 16.1391 53.3107 16.0713C53.313 16.0452 53.3177 16.0194 53.3247 15.9941V15.9713H53.3529C53.3791 15.9677 53.4056 15.9677 53.4317 15.9713H53.5049C53.5876 15.9692 53.6703 15.9701 53.7529 15.974C53.8063 15.9766 53.8596 15.9804 53.9128 15.9854L53.9696 15.9913L54.0174 15.997C54.032 15.9992 54.0466 16.0019 54.0611 16.005C54.0869 16.0107 54.1123 16.0179 54.1372 16.0267C54.1533 16.0324 54.1691 16.0387 54.1847 16.0457C54.2005 16.0527 54.2161 16.0603 54.2314 16.0686C54.2719 16.0962 54.3093 16.1279 54.3429 16.1633C54.3781 16.2003 54.4092 16.2412 54.4357 16.2853C54.442 16.2958 54.448 16.3065 54.4538 16.3174C54.5298 16.4463 54.6171 16.6265 54.7353 16.8726L55.9094 19.2789C55.9548 19.3787 56.0085 19.4745 56.0699 19.5651C56.1074 19.6173 56.1541 19.662 56.2079 19.6967C56.2706 19.7327 56.3414 19.7513 56.4134 19.751H57.6832C57.7475 19.7533 57.8116 19.7426 57.8719 19.7195C57.8891 19.7124 57.9052 19.703 57.9198 19.6916C57.9384 19.6772 57.9546 19.6596 57.9676 19.6394C57.9779 19.6247 57.9864 19.609 57.993 19.5924C57.9961 19.5847 57.9988 19.5768 58.001 19.5688C58.0071 19.5472 58.0101 19.5248 58.0098 19.5021C58.0099 19.4379 57.9869 19.3757 57.9451 19.3276C57.9245 19.3066 57.9015 19.2886 57.8767 19.274C57.8577 19.2628 57.8376 19.2534 57.8168 19.2462C57.8095 19.2436 57.802 19.2413 57.7945 19.2392C57.7793 19.2352 57.7637 19.2321 57.748 19.2303L57.7592 19.1931C57.7362 19.191 57.7131 19.1898 57.69 19.1896ZM53.8118 15.4448H53.5303C53.4668 15.448 53.4034 15.4372 53.3444 15.4133L53.3135 15.3847C53.3021 15.3659 53.2971 15.3438 53.2994 15.3217V13.1157C53.2963 12.9476 53.3019 12.7795 53.3163 12.612C53.3224 12.5427 53.3405 12.4748 53.3698 12.4118C53.3777 12.3967 53.3874 12.3827 53.3986 12.37L53.4069 12.3614L53.4139 12.3547C53.4221 12.3473 53.4309 12.3406 53.4402 12.3345C53.5118 12.2931 53.5917 12.2687 53.6739 12.263C53.8233 12.2448 53.9739 12.2371 54.1244 12.2401C54.3399 12.2274 54.5558 12.258 54.7597 12.3301C54.9636 12.4024 55.1514 12.5146 55.3125 12.6607C55.4615 12.8238 55.5763 13.016 55.6499 13.2255C55.7234 13.4351 55.7543 13.6576 55.7405 13.8797C55.7541 14.1013 55.7151 14.3229 55.6269 14.5261C55.5388 14.7291 55.4039 14.9078 55.2337 15.047C54.8152 15.3423 54.3081 15.479 53.8006 15.4333L53.8118 15.4448Z" fill="#001B3C"/>
<path fill-rule="evenodd" clip-rule="evenodd" d="M50.0533 19.1926C50.0352 19.191 50.017 19.1898 49.9989 19.1893C49.9644 19.1883 49.9299 19.1893 49.8956 19.1926C49.8754 19.1931 49.8553 19.1924 49.8354 19.1907C49.8187 19.1893 49.8022 19.1873 49.7857 19.1845L49.7618 19.18C49.7121 19.1695 49.6637 19.1526 49.6179 19.1296C49.5317 19.0863 49.4569 19.0225 49.4001 18.9436C49.2702 18.7579 49.1589 18.5595 49.0678 18.3514L48.1133 16.4343C48.062 16.3204 48.0053 16.2091 47.9436 16.1008C47.908 16.0383 47.8707 15.9768 47.8318 15.9164C47.7798 15.8425 47.7182 15.7761 47.6488 15.7189C48.0313 15.6203 48.3842 15.4277 48.6765 15.1581C48.8717 14.9817 49.0272 14.7647 49.1327 14.5218C49.2381 14.2789 49.2909 14.0158 49.2874 13.7504C49.2951 13.4542 49.2305 13.1607 49.0993 12.896C48.9681 12.6314 48.7745 12.4039 48.5357 12.2339C48.0545 11.9135 47.4891 11.7488 46.9139 11.7618C46.7653 11.7618 46.6175 11.7642 46.4703 11.7679C46.276 11.7729 46.0825 11.7802 45.8891 11.7875C45.5491 11.8004 45.2091 11.8133 44.8642 11.8133C44.7856 11.8133 44.7055 11.8111 44.6244 11.8077C44.5085 11.8028 44.3905 11.7954 44.2718 11.7879C44.2101 11.7839 44.1482 11.78 44.0863 11.7764C44.0366 11.7736 43.9869 11.7709 43.9373 11.7687C43.8545 11.765 43.7719 11.7623 43.6901 11.7618C43.611 11.7593 43.5331 11.7823 43.4677 11.8276C43.4344 11.8557 43.4079 11.8912 43.3904 11.9314C43.3728 11.9717 43.3646 12.0154 43.3663 12.0593C43.3648 12.0895 43.3696 12.1195 43.3802 12.1476C43.3909 12.1757 43.4073 12.2012 43.4283 12.2225C43.4793 12.2713 43.5444 12.3024 43.6141 12.3111C43.6384 12.3128 43.6628 12.3138 43.6872 12.3139C43.7163 12.3141 43.7455 12.3132 43.7746 12.3111C43.9106 12.3073 44.0465 12.3188 44.18 12.3454C44.2339 12.356 44.2849 12.3785 44.3292 12.4113C44.3809 12.4529 44.4142 12.5136 44.4222 12.5801C44.4404 12.7032 44.448 12.8276 44.4447 12.9521V18.5345C44.4476 18.6473 44.4419 18.7602 44.4278 18.8721C44.4245 18.9008 44.4179 18.9289 44.4084 18.956C44.4008 18.9775 44.3912 18.9982 44.3799 19.0181C44.3615 19.0478 44.3372 19.0731 44.3086 19.0929C44.2801 19.1126 44.2478 19.126 44.2138 19.1325C44.1459 19.1492 44.0771 19.1614 44.0078 19.1692C43.9304 19.1779 43.8525 19.1809 43.7746 19.1782H43.7267C43.6993 19.1767 43.672 19.1773 43.6448 19.1798C43.6018 19.1839 43.5594 19.1929 43.5184 19.2069C43.4763 19.2233 43.4393 19.251 43.4114 19.287C43.3802 19.3299 43.3643 19.3824 43.3663 19.4358C43.3648 19.4823 43.3745 19.5284 43.3945 19.5703C43.4078 19.5986 43.4267 19.6238 43.4499 19.6444C43.4732 19.665 43.5003 19.6807 43.5296 19.6904C43.578 19.7052 43.6284 19.7119 43.6789 19.7105C43.9091 19.7105 44.1381 19.6983 44.3652 19.6863L44.3723 19.6859C44.5982 19.6737 44.8223 19.6618 45.0444 19.6618C45.2665 19.6618 45.4845 19.6737 45.7041 19.6859C45.8133 19.6918 45.9229 19.6979 46.0337 19.7025C46.0908 19.7048 46.1482 19.7068 46.206 19.7082C46.2651 19.7097 46.3246 19.7105 46.3846 19.7105C46.454 19.7126 46.5227 19.6968 46.5845 19.6647C46.6046 19.6522 46.6226 19.6365 46.6378 19.6185C46.6501 19.6039 46.6606 19.5877 46.669 19.5703C46.6904 19.5338 46.703 19.4925 46.7056 19.45C46.7053 19.4292 46.7025 19.4085 46.6974 19.3886C46.6891 19.3562 46.6748 19.3256 46.6549 19.2985C46.6113 19.2478 46.5514 19.2143 46.4859 19.204C46.4354 19.1989 46.3845 19.1989 46.3339 19.204H46.2861C46.2122 19.2051 46.1384 19.2021 46.0649 19.1949C46.0366 19.1921 46.0082 19.1888 45.98 19.1847C45.9401 19.179 45.9004 19.1721 45.8609 19.1639C45.8073 19.1508 45.7567 19.1275 45.7117 19.0953C45.6815 19.0672 45.658 19.033 45.6423 18.9953C45.636 18.98 45.6309 18.9643 45.6273 18.948C45.6247 18.9362 45.6228 18.9242 45.6216 18.9122C45.6081 18.8239 45.6003 18.7349 45.5982 18.6457C45.5972 18.6039 45.5975 18.5621 45.5991 18.5202V16.0709C45.5991 16.0519 45.5991 16.0391 45.5994 16.0301C45.5999 16.0188 45.601 16.0131 45.6034 16.0081L45.605 16.0054L45.6059 16.0038L45.6099 15.9982L45.6131 15.9936V15.9708H45.6385C45.6646 15.9672 45.6912 15.9672 45.7173 15.9708H45.7905C45.9627 15.9664 46.1349 15.9751 46.3058 15.9965C46.3991 16.0076 46.4879 16.0428 46.5639 16.0989C46.6398 16.1551 46.7003 16.2302 46.7394 16.317C46.8154 16.4457 46.9026 16.626 47.0209 16.8721L48.195 19.2784C48.2404 19.3777 48.2931 19.4734 48.3527 19.5645C48.3572 19.5709 48.3618 19.577 48.3666 19.5831C48.3762 19.5952 48.3863 19.6068 48.3969 19.618C48.406 19.6276 48.4155 19.6367 48.4254 19.6456C48.4465 19.6643 48.4693 19.6813 48.4934 19.6961C48.5209 19.7124 48.5501 19.725 48.5803 19.734C48.6186 19.7455 48.6586 19.7512 48.699 19.7505H49.9688C50.0322 19.7529 50.0954 19.7423 50.1546 19.7191C50.1746 19.7105 50.1932 19.6991 50.21 19.6855C50.2263 19.6721 50.2409 19.6565 50.2532 19.639C50.2689 19.6156 50.2802 19.5897 50.2865 19.5625C50.2912 19.5427 50.2933 19.5222 50.2926 19.5015C50.2939 19.4695 50.2889 19.4376 50.2778 19.4076C50.2666 19.3776 50.2497 19.3502 50.2278 19.327C50.2099 19.3083 50.1899 19.2921 50.1685 19.2784C50.1271 19.252 50.08 19.2352 50.0307 19.2298L50.0533 19.1926ZM45.7093 15.4342C45.6862 15.429 45.6634 15.4219 45.6413 15.4128L45.6075 15.3842C45.5975 15.3647 45.5927 15.3431 45.5934 15.3213V13.1152C45.5903 12.9471 45.5959 12.779 45.6103 12.6116C45.6158 12.5416 45.6349 12.4736 45.6666 12.4113C45.6823 12.3792 45.7067 12.3524 45.737 12.3341C45.8075 12.2924 45.8866 12.268 45.9679 12.2625C46.1183 12.2442 46.2698 12.2365 46.4212 12.2397C46.6363 12.2271 46.8517 12.2578 47.0551 12.33C47.2585 12.4021 47.4459 12.5144 47.6066 12.6603C47.7566 12.8226 47.8722 13.0146 47.9463 13.2242C48.0204 13.4339 48.0514 13.6568 48.0373 13.8791C48.0497 14.1008 48.0098 14.3224 47.9212 14.5254C47.8326 14.7283 47.6977 14.907 47.5277 15.0465C47.1101 15.3413 46.604 15.478 46.0974 15.4328L46.1087 15.4443H45.8271C45.7994 15.4458 45.7716 15.4447 45.7442 15.4407C45.7325 15.4391 45.7209 15.4369 45.7093 15.4342Z" fill="#001B3C"/>
<path fill-rule="evenodd" clip-rule="evenodd" d="M42.156 19.2164C42.0961 19.2098 42.0357 19.2098 41.9758 19.2164C41.8648 19.2164 41.7566 19.1815 41.6661 19.1162C41.5201 18.9974 41.4051 18.8442 41.331 18.6698C41.2725 18.549 41.2211 18.4172 41.1721 18.2919L41.1442 18.2206C41.1275 18.1781 41.111 18.1369 41.0945 18.0975L38.6759 11.9143C38.6684 11.8878 38.6596 11.8617 38.6496 11.8361C38.6383 11.8072 38.6255 11.7788 38.6112 11.7512C38.5938 11.7155 38.5699 11.6835 38.5408 11.6568C38.5035 11.623 38.4556 11.6037 38.4057 11.6024C38.3519 11.6038 38.2999 11.6218 38.2564 11.6539C38.2082 11.6981 38.1706 11.7528 38.1466 11.8142C38.1345 11.8458 38.1245 11.8776 38.116 11.9046L38.1105 11.9219L38.106 11.9358L38.1016 11.9486L35.7872 18.1234L35.7423 18.2446C35.701 18.3551 35.6476 18.4938 35.5901 18.6269C35.5745 18.6617 35.559 18.6961 35.5434 18.7295C35.5168 18.7868 35.4901 18.8413 35.4634 18.8902C35.4456 18.9274 35.4249 18.963 35.4015 18.9967C35.3866 19.0183 35.3706 19.0391 35.3536 19.059C35.2935 19.1252 35.2149 19.1711 35.1284 19.1906C35.078 19.2024 35.027 19.211 34.9757 19.2161C34.9329 19.2204 34.8899 19.2224 34.8468 19.222C34.7662 19.2182 34.6855 19.2269 34.6075 19.2478C34.5939 19.2515 34.5806 19.2561 34.5677 19.2616C34.5585 19.2655 34.5494 19.2699 34.5406 19.2747C34.5147 19.2888 34.4907 19.3067 34.4695 19.3279C34.4495 19.3497 34.4335 19.3747 34.4222 19.4016C34.4141 19.4207 34.4083 19.4408 34.4051 19.4615C34.4028 19.4759 34.4018 19.4905 34.402 19.5054C34.4017 19.5252 34.4037 19.5448 34.4077 19.564C34.4132 19.5905 34.4226 19.616 34.4357 19.6398C34.4687 19.6923 34.52 19.7301 34.5793 19.7456C34.6082 19.7542 34.6377 19.7601 34.6676 19.7633C34.6887 19.7655 34.71 19.7663 34.7314 19.7657H34.9425C35.1115 19.7657 35.2777 19.7533 35.4413 19.7411H35.4425L35.448 19.7408C35.5475 19.7332 35.646 19.7259 35.7435 19.7214C35.812 19.7183 35.8801 19.7165 35.9477 19.7171C36.1014 19.7184 36.2583 19.7294 36.4178 19.7407C36.5942 19.7531 36.7738 19.7657 36.9557 19.7657C37.0307 19.7687 37.1056 19.76 37.1781 19.74C37.2013 19.7333 37.2232 19.7233 37.2432 19.7102C37.2665 19.6948 37.2872 19.6754 37.3042 19.6525C37.3164 19.6361 37.3264 19.6183 37.3341 19.5996C37.3463 19.57 37.3527 19.5379 37.3526 19.5054C37.3533 19.4491 37.3365 19.394 37.3048 19.348C37.2859 19.3255 37.2641 19.306 37.2401 19.29C37.2077 19.2683 37.1714 19.2529 37.133 19.2449C37.0815 19.2398 37.0297 19.2398 36.9782 19.2449H36.9303C36.7722 19.2486 36.6146 19.2274 36.4629 19.182C36.4002 19.1617 36.3432 19.1265 36.2968 19.0789C36.2566 19.0336 36.2354 18.9741 36.2377 18.913C36.2575 18.693 36.3116 18.4777 36.3982 18.2749L36.7586 17.3508C36.7978 17.2512 36.8263 17.1711 36.8479 17.1104L36.8571 17.0847C36.8694 17.0514 36.8854 17.0197 36.905 16.9903L36.9073 16.9872C36.925 16.9641 36.9294 16.9583 36.9754 16.9445C37.0638 16.9298 37.1533 16.9242 37.2428 16.9273H38.873C38.9762 16.9217 39.0796 16.9217 39.1827 16.9273C39.2036 16.9295 39.224 16.9344 39.2436 16.9416C39.2546 16.9456 39.2653 16.9504 39.2757 16.9559C39.29 16.966 39.3023 16.9785 39.3122 16.9932C39.3915 17.1499 39.4593 17.3125 39.515 17.4795L39.8979 18.4124C39.9149 18.4579 39.9345 18.5105 39.9543 18.5646C39.9705 18.609 39.9868 18.6546 40.0021 18.6985C40.0141 18.7329 40.0243 18.7679 40.0326 18.8034C40.0465 18.8628 40.0551 18.9234 40.0584 18.9845C40.0604 19.0341 40.0432 19.0823 40.0105 19.1191C39.941 19.1796 39.8541 19.2158 39.7627 19.222C39.6423 19.2375 39.5209 19.2441 39.3995 19.2421C39.3152 19.2382 39.2308 19.2469 39.149 19.2679C39.0961 19.2847 39.0486 19.3153 39.011 19.3566C38.9666 19.4056 38.9424 19.4701 38.9434 19.5368C38.9422 19.5851 38.9571 19.6326 38.9856 19.6713C39.0038 19.694 39.0255 19.7133 39.0497 19.7284C39.0732 19.7431 39.0991 19.7539 39.1264 19.76C39.1657 19.7648 39.2054 19.7648 39.2447 19.76C39.4634 19.76 39.6834 19.7476 39.9002 19.7354H39.9031L39.9114 19.7351C40.048 19.7274 40.1831 19.7198 40.3159 19.7153C40.403 19.7124 40.489 19.7107 40.5736 19.7113C40.8306 19.7113 41.0889 19.7231 41.349 19.7351L41.3541 19.7354C41.6194 19.7476 41.8868 19.76 42.156 19.76C42.2092 19.7612 42.2621 19.7504 42.3108 19.7285C42.3482 19.7149 42.3807 19.69 42.4037 19.6569C42.4306 19.6174 42.4453 19.5705 42.446 19.5225C42.4467 19.4769 42.4356 19.4323 42.4142 19.393C42.4044 19.3748 42.3924 19.3577 42.3784 19.3422C42.3656 19.329 42.3518 19.3169 42.3373 19.306C42.3191 19.2923 42.2995 19.2805 42.2791 19.2708C42.2441 19.2541 42.2063 19.2433 42.1672 19.2392L42.156 19.2164ZM37.133 16.2778C37.133 16.2578 37.133 16.2348 37.1499 16.2177L37.9777 13.9744L38.0058 13.8886C38.024 13.8329 38.0456 13.7784 38.0706 13.7256C38.0854 13.7562 38.0986 13.7877 38.11 13.82C38.1191 13.8402 38.127 13.8618 38.1346 13.8822L38.1394 13.8954L38.1466 13.9143C38.1497 13.9248 38.1532 13.9351 38.157 13.9452C38.1607 13.9551 38.1648 13.9648 38.1692 13.9744L38.98 16.0603C38.9788 16.0669 38.9788 16.0738 38.98 16.0804C38.98 16.1047 38.9943 16.1378 39.0098 16.1739L39.0121 16.1794C39.0158 16.188 39.0195 16.1967 39.0231 16.2055L39.0246 16.2095L39.0279 16.2177C39.0341 16.2339 39.0378 16.2445 39.0401 16.252C39.0429 16.2609 39.0437 16.2655 39.0445 16.27L39.0462 16.2782L39.0476 16.2836H39.0279C39.014 16.2852 39 16.286 38.986 16.2859C38.9727 16.2859 38.9595 16.2851 38.9462 16.2836H37.24C37.2016 16.287 37.163 16.287 37.1246 16.2836L37.133 16.2778Z" fill="#001B3C"/>
<path d="M33.8189 15.7769C33.7731 15.7639 33.7257 15.7572 33.6782 15.757C33.466 15.757 33.2566 15.7697 33.052 15.7821H33.0495C32.8423 15.7948 32.6401 15.807 32.4449 15.8055C32.2657 15.8043 32.0721 15.7937 31.8714 15.7828H31.8686C31.6349 15.7701 31.3915 15.757 31.1498 15.757C31.0776 15.7557 31.0057 15.7644 30.9358 15.7827C30.8897 15.8003 30.8489 15.8299 30.8175 15.8685C30.7826 15.9142 30.7647 15.9709 30.7669 16.0288C30.7633 16.0805 30.7772 16.132 30.8063 16.1747C30.8433 16.2289 30.9 16.2659 30.964 16.2776C31.0131 16.2877 31.0631 16.2925 31.1132 16.292H31.161C31.2958 16.2866 31.4307 16.2952 31.5637 16.3178C31.6201 16.3268 31.6745 16.3463 31.7242 16.3749C31.7815 16.4178 31.8207 16.4813 31.8339 16.5524C31.8618 16.6926 31.8731 16.8357 31.8677 16.9787V18.1604C31.8715 18.3155 31.8612 18.4707 31.8368 18.6239C31.8279 18.6974 31.8051 18.768 31.7702 18.8321C31.7463 18.8759 31.7167 18.9166 31.6819 18.953C31.5018 19.0854 31.2934 19.1728 31.0737 19.2077C30.8473 19.2509 30.6172 19.272 30.3867 19.2706C29.3732 19.2706 28.5426 18.9844 27.8809 18.2148C27.3105 17.5362 27.0094 16.6661 27.0362 15.7741C27.0362 14.8454 27.3326 13.9418 27.8809 13.1989C28.1605 12.8521 28.5164 12.5768 28.9199 12.3954C29.3234 12.214 29.7631 12.1315 30.2038 12.1545C30.5995 12.1392 30.9932 12.2197 31.3525 12.3891C31.6723 12.5639 31.9237 12.8447 32.0648 13.1846C32.0916 13.2403 32.1156 13.2945 32.1384 13.3462C32.1707 13.4194 32.2008 13.4876 32.2338 13.548C32.2612 13.5998 32.2974 13.6463 32.3407 13.6853C32.3698 13.7111 32.4041 13.73 32.4411 13.7409C32.4781 13.7518 32.517 13.7543 32.555 13.7483C32.5931 13.7423 32.6295 13.7279 32.6615 13.7062C32.6935 13.6844 32.7205 13.6559 32.7406 13.6223C32.7814 13.5523 32.8019 13.472 32.7997 13.3906L32.7687 12.8698C32.7676 12.6939 32.7572 12.5182 32.7377 12.3433C32.7214 12.2556 32.6825 12.1737 32.6251 12.1058C32.5662 12.0443 32.4964 11.9946 32.4196 11.9597C32.4012 11.9514 32.3824 11.9438 32.3633 11.9371C31.7324 11.7002 31.0649 11.58 30.3924 11.5822C29.2187 11.5839 28.0827 12.0041 27.1827 12.7698C26.7315 13.1449 26.3673 13.6167 26.1162 14.1513C25.8651 14.686 25.7331 15.2704 25.7298 15.8628C25.7284 16.4381 25.8566 17.0061 26.1045 17.5235C26.3524 18.0408 26.7135 18.4935 27.1601 18.8471C28.0103 19.5279 29.0716 19.878 30.1531 19.8342C31.0715 19.8606 31.9781 19.6194 32.7659 19.139C32.8573 19.0832 32.933 19.0044 32.9855 18.9101C33.0223 18.8285 33.0396 18.7393 33.0362 18.6496V16.8185C33.0354 16.7284 33.042 16.6384 33.0559 16.5495C33.0636 16.4866 33.0901 16.4277 33.1319 16.3807C33.1674 16.3565 33.2078 16.3408 33.2502 16.3349C33.2873 16.3349 33.329 16.3291 33.3694 16.3236L33.3727 16.3232C33.3955 16.32 33.4179 16.3168 33.4388 16.3149L33.6613 16.2891C33.7278 16.2934 33.7943 16.2817 33.8555 16.2548C33.8768 16.2449 33.8961 16.2317 33.913 16.2158C33.9292 16.2006 33.943 16.1829 33.9541 16.1632C33.9789 16.1188 33.9915 16.0684 33.9907 16.0173C33.9909 15.9932 33.9879 15.9692 33.9817 15.946C33.976 15.925 33.9677 15.9047 33.9569 15.8857C33.9254 15.8336 33.8764 15.795 33.8189 15.7769Z" fill="#001B3C"/>
</svg>
