<svg fill="none" height="26" viewBox="0 0 56 26" width="56" xmlns="http://www.w3.org/2000/svg" xmlns:xlink="http://www.w3.org/1999/xlink"><clipPath id="a"><path d="m0 0h56v26h-56z"/></clipPath><g clip-path="url(#a)" fill="#001b3c"><path d="m55.9999 25.9224v-.6352h-1.2792v-1.0394h1.1633v-.5967h-1.1633v-.8852h1.2598v-.6353h-1.9773v3.7913h1.9967zm-3.9928 0v-.6545h-1.2986v-3.156h-.717v3.8105h2.0161zm-4.1869-3.7912h-.717v3.7912h.717zm-4.5745 3.7912v-1.7318h.9692v1.7318h.717v-3.8105h-.717v1.5012h-.9692v-1.5012h-.717v3.8105zm-3.5082-1.3085c0 .3077-.0389.5197-.0971.6353s-.1746.1734-.3293.1734c-.1747 0-.2906-.0771-.3488-.2312-.0582-.1542-.097-.5582-.097-1.2507 0-.6353.0388-1.0201.097-1.155s.1747-.2119.3488-.2119c.1358 0 .2328.0578.3099.1541s.0971.2499.0971.4619v.0963h.698c0-.4426-.097-.7696-.2711-.9623-.1741-.1926-.4652-.3077-.8528-.3077-.2329 0-.4264.0385-.5816.1156-.1553.0771-.2906.212-.3876.3848-.0582.1156-.1165.2885-.1553.5197s-.0388.5389-.0388.9237c0 .5775.0194.9816.0776 1.2122.0583.2307.1359.4041.2712.539.097.0963.2135.1734.3293.2119.1359.0385.2906.0771.4652.0771.3876 0 .6787-.0964.8528-.327.1941-.212.2712-.539.2712-.9816v-.1541h-.6981l.0388.0771z"/><path d="m0 5.50391v14.45279c0 1.7896 1.45385 1.9823 2.4619 2.2322l4.78796 1.193 4.65214-1.155c1.725-.3655 2.5007-.8081 2.5007-2.29v-14.43299zm12.9677 13.89459c.0194 1.27-.6011 1.2314-3.45056 2.0208l-2.28724.5582c-.01941 0-1.39563-.3077-2.38427-.5582-3.15945-.7503-3.41174-.8466-3.41174-2.3093v-12.20122h11.51381v12.48972z"/><path d="m7.11414 4.00267h.23288v.5004h-.23288zm-.01941-4.00267h.27114v.500402h-.27114zm.40699 3.9834.27114-.0578.11645.57747h-.32937zm-.50402.01927-.27114-.03854-.11644.55821h.34876zm.89161-.11561.19407-.07707.36817.65455-.32936.03853zm-1.25979.01927-.19407-.07707-.38758.65454.34877.01927zm1.5703-.15414.21347-.13487.62047.80813-.36818.03853-.46521-.71179zm-1.89966 0-.21348-.13487-.62046.80813.34877.03853.48461-.71179zm2.19021-.21194.17466-.17341 1.10508.94301-.50402.07707-.77517-.84667zm-2.48131.01927-.17467-.17341-1.08567.92374.50402.07707.75576-.8274zm2.75245-.30773.11644-.19267 1.97725 1.03933-.6787.13488zm-3.043.01927-.11644-.19268-1.97729 1.03934.67869.13487zm3.23707-.3848.07763-.21194 3.35349 1.0008-.8722.2692-2.55892-1.05861zm-3.43114.01927-.07763-.21195-3.35351 1.00081.8722.26919 2.55894-1.0586zm3.52762-.34627.03881-.24992 4.86563.616-.7558.42334-4.14809-.78887zm-3.64406 0-.01941-.24992-4.845627.616.755757.42334 4.10928-.78887zm2.05491-2.059408.23288.038535.17411-.538387h-.30996l-.09703.500402zm-.4458 0-.23289.038535-.1547-.538387h.30996l.07763.500402zm.83338.096337.23289.096337.34877-.6352742-.29055-.0192675-.29055.5582047zm-1.20156 0-.23288.096337-.34877-.6160068.29055-.0192674.29054.5389372zm1.55089.154139.17466.115605.58165-.7695959-.30995-.0192674-.44581.6738093h-.00055zm-1.91907 0-.17466.115605-.56225-.7695959.30996-.0192674.4264.6738093zm2.20962.211942.11644.09634 1.06627-.865936-.4264-.057802-.75576.827398zm-2.46191-.038535-.11644.096335-1.04686-.865931.42639-.0770693.73636.8466653zm2.65542.231205.13585.19268 1.93847-.962272-.81398-.154139-1.25979.923731zm-2.8883 0-.13585.19268-1.91851-.962822.81398-.154139 1.24038.923731zm3.10122.327.07763.19267 3.06237-.942999-.6786-.231209-2.46195.981538zm-3.3147 0-.07762.19267-3.06186-.943549.67869-.231209 2.4619.981538h-.00111zm3.43114.28846.03882.19267 4.57444-.59673-.7363-.34627zm-3.54702 0-.03882.19267-4.574481-.57747.736351-.34626zm3.62465.46187-.01941-.21194 5.31144-.11561v.51967l-5.29203-.19267zm-3.70228 0 .01941-.21194-5.3884688-.11506v.53894z"/><path d="m8.10237 3.40639-.8722-.616-.87275.616.32991-1.0008-.85335-.63527h1.06627l.32992-1.020076.34877 1.020076h1.06572l-.8722.63527z"/><path d="m8.10222 10.373-.85279-.57745-.8528.57745.29055-.98151-.81398-.61601 1.02746-.01927.34877-.96226.34876.96226 1.02746.01927-.81398.61601zm-.30996 9.5258.81399-.616-1.02746-.0192-.34877-.9623-.34877.9623-1.02746.0192.81398.616-.29055.9816.8528-.5775.85279.5775zm-3.52762-6.6202.81398-.6161-1.02745-.0192-.34877-.9623-.34877.9623-1.02746.0192.81398.6161-.29055.9815.8528-.5775.85279.5775zm5.50491 2.0016.60105-.4619-.75575-.0193-.25174-.7118-.25173.7118-.75576.0193.60106.4619-.21348.731.62047-.4233.62047.4233-.21348-.731zm1.49265-2.829.814-.6161-1.0275-.0192-.3487-.9623-.3488.9623-1.02745.0192.81395.6161-.29052.9815.85282-.5775.8528.5775z"/><path d="m53.1887 19.2256c.2135.3269.6205.4811 1.1822.4811s.9692-.1542 1.1821-.4811c.2135-.327.3294-.9045.3294-1.7704 0-.866-.1164-1.4627-.3294-1.7704-.2134-.327-.6204-.4812-1.1821-.4812s-.9499.1542-1.1822.4812c-.2135.3269-.3293.9044-.3293 1.7704 0 .8659.1164 1.4434.3293 1.7704zm.6981-2.1167c0-.5004.0388-.8274.097-.9623.0777-.1349.1941-.1927.3876-.1927s.3294.0771.3876.212c.0776.1541.0971.5004.0971 1.0586v.4233c0 .5775-.0389.943-.0971 1.0972-.0776.1348-.1941.2119-.407.2119-.194 0-.3099-.0771-.3876-.2312-.0582-.1541-.097-.5582-.097-1.2122v-.4041h.0194zm-4.4198 1.1357v.077c0 .4812.1165.8082.3294 1.0394.2329.2312.5816.327 1.0469.327.4652 0 .7945-.0964 1.0468-.3078s.3682-.5004.3682-.8852c0-.4811-.3682-.943-1.0857-1.4241-.097-.0578-.1746-.1156-.2329-.1541-.2328-.1542-.3681-.2692-.4458-.3463-.0582-.0771-.097-.1734-.097-.2885 0-.115.0388-.1926.1164-.2692.0777-.0578.1747-.0963.2906-.0963.1746 0 .2905.0385.3682.1541.0776.1157.1164.25.1164.4619v.0964h.8722v-.0964c0-.4426-.1164-.7888-.3294-1.0008-.2134-.2312-.5428-.327-.9886-.327s-.7946.0964-1.0275.3077c-.2328.1927-.3487.4812-.3487.866 0 .4811.3682.9622 1.0857 1.4626.0194.0193.0388.0193.0388.0386.0388.0385.1164.0771.194.1349.3294.2119.4847.404.4847.5582 0 .1348-.0389.2312-.1165.3077-.0776.0771-.1941.1156-.3294.1156-.1746 0-.3099-.0578-.3875-.1541-.0777-.0964-.1165-.2885-.1165-.5197v-.1156h-.8916c.0388-.0386.0388 0 .0388.0385m-1.2598-3.4065 1.1439-1.0586h-.9498l-.6593 1.0586zm.5623.4619h-.9887v4.2724h.9887zm-1.6862 4.2724c-.0582-.0963-.097-.1927-.1164-.2884-.0194-.0958-.0388-.212-.0388-.327v-2.425c0-.5004-.0971-.8659-.31-1.0586-.2135-.1927-.5817-.3077-1.1051-.3077s-.911.1156-1.1439.327c-.2329.2119-.3488.5775-.3488 1.0586h.9693v-.0578c0-.212.0388-.3463.1358-.4426.0777-.0964.2135-.1542.407-.1542.1359 0 .2518.0386.3294.1156.0776.0771.1164.1735.1164.3078 0 .2312-.194.4233-.5816.5774-.0971.0386-.1553.0578-.1941.0964-.4846.2119-.7946.4233-.9498.6353-.1553.2119-.2329.4811-.2329.8466 0 .3848.097.6925.2711.9238.1741.2312.4458.327.7752.327.2135 0 .407-.0386.5817-.1349.1746-.0964.2905-.2312.4069-.3848.0194.1156.0389.2119.0583.2692.0194.0578.0388.1156.0582.1541l.911-.0578zm-1.1051-1.559c0 .3077-.0388.5197-.1358.6738-.0971.1542-.2135.2312-.3876.2312-.1553 0-.2711-.0385-.3294-.1348-.0776-.0964-.097-.2313-.097-.4234s.0582-.3848.1941-.5197c.1358-.1541.3875-.3077.7557-.5004v.6739zm-3.4505 1.559v-2.502c0-.2119.0582-.3848.194-.5004.1165-.1349.2906-.1927.5041-.1927h.1358c.0388 0 .0776 0 .1165.0193v-1.1929c-.2329 0-.407.0578-.5623.1926-.1552.1156-.2905.327-.4458.616v-.6925h-.9498v4.2532h1.008-.0005zm-1.725 0c-.0582-.0963-.0971-.1927-.1165-.2884-.0194-.0958-.0388-.212-.0388-.327v-2.425c0-.5004-.097-.8659-.3099-1.0586-.2135-.1927-.5817-.3077-1.1051-.3077s-.911.1156-1.1439.327c-.2329.2119-.3488.5775-.3488 1.0586h.9693v-.0578c0-.212.0388-.3463.1358-.4426.097-.0964.2135-.1542.407-.1542.1552 0 .2517.0386.3294.1156.0776.0771.1164.1735.1164.3078 0 .2312-.1941.4233-.5817.5774-.097.0386-.1552.0578-.194.0964-.4846.2119-.7946.4233-.9499.6353-.1552.2119-.2328.4811-.2328.8466 0 .3848.097.6925.2711.9238.1747.2312.4458.327.7752.327.2134 0 .407-.0386.5816-.1349.1747-.0964.2906-.2312.407-.3848.0194.1156.0388.2119.0582.2692.0194.0578.0388.1156.0583.1541l.911-.0578zm-1.1051-1.559c0 .3077-.0388.5197-.1359.6738-.097.1542-.2134.2312-.3875.2312-.1553 0-.2712-.0385-.3294-.1348-.0776-.0964-.097-.2313-.097-.4234s.0582-.3848.194-.5197c.1359-.1541.3876-.3077.7558-.5004v.6739zm-4.6133 3.0024v-1.8089c.0776.1541.1941.2884.3294.3655s.3099.1156.504.1156c.407 0 .6981-.1541.8722-.4811s.2517-.9238.2517-1.7897-.0776-1.4241-.2517-1.7511c-.1747-.327-.4652-.5004-.8916-.5004-.2135 0-.3876.0385-.5429.1349-.1552.0963-.2711.2312-.3487.4233v-.4426h-.9499v5.7158l1.0275.0193zm.0776-4.7921c.0777-.1541.2135-.2312.407-.2312.1747 0 .2906.0771.3682.25.0582.1734.097.5582.097 1.1736 0 .6155-.0388 1.0394-.097 1.1929-.0582.1536-.1941.2313-.3682.2313-.1941 0-.3293-.0964-.407-.2885-.0776-.1927-.1164-.616-.1164-1.3278.0194-.5004.0388-.8467.1164-1.0008m-1.9384-2.3479h-.9887v5.6966h.9887zm-1.6862 5.6966c-.0582-.0964-.0971-.1927-.1165-.2885s-.0388-.2119-.0388-.327v-2.4249c0-.5004-.1164-.866-.3099-1.0586-.1936-.1927-.5817-.3078-1.1051-.3078-.5235 0-.911.1156-1.1439.327s-.3488.5775-.3488 1.0586h.9692v-.0578c0-.2119.0389-.3462.1359-.4426.0776-.0963.2135-.1541.407-.1541.1358 0 .2517.0385.3293.1156.0777.0771.1165.1734.1165.3077 0 .2312-.1941.4234-.5817.5775-.0776.0385-.1552.0578-.194.0963-.4652.212-.7946.4234-.9499.6353-.1552.2119-.2328.4811-.2328.8467 0 .3848.097.6925.2711.9237s.4458.327.7558.327c.2134 0 .4069-.0385.5816-.1349.1747-.0963.31-.2312.407-.3848.0194.1156.0388.212.0582.2692.0194.0578.0388.1156.0582.1542l.9305-.0578zm-1.1051-1.559c0 .3077-.0388.5196-.1359.6738-.097.1541-.2134.2312-.3875.2312-.1553 0-.2712-.0386-.3294-.1349-.0776-.0963-.1164-.2312-.1164-.4233 0-.1922.0582-.3848.194-.5197.1359-.1541.3876-.3077.7558-.5004l.0194.6738zm-3.3729 1.559 1.2015-5.6966h-1.1245l-.7751 4.5416-.8528-4.5416h-1.1439l1.2792 5.6966zm-4.788-.8082c-.0776.1349-.2135.1927-.3876.1927s-.3099-.0771-.3876-.2499c-.0776-.1542-.1164-.4426-.1164-.8467v-.1734c0-.0385 0-.0771.0194-.0963h1.9579v-.327c0-.4812-.0194-.8274-.0776-1.0394-.0389-.2119-.1165-.3848-.2329-.5389-.1165-.1541-.2906-.2885-.4846-.3655-.1941-.0771-.4264-.1156-.6981-.1156s-.5041.0385-.717.1156c-.2129.077-.3682.1926-.4846.327-.1164.1343-.2135.327-.2517.5582-.0583.2312-.0777.5967-.0777 1.1164 0 .6545.0194 1.1164.0777 1.3663.0582.2499.1552.4619.2905.616.1165.1349.2712.2499.4458.3077.1747.0579.407.0964.6787.0964.504 0 .8916-.1156 1.1245-.3463.2329-.2312.3488-.5774.3488-1.0779v-.1541h-.9499c.0389.2885 0 .5004-.0776.6353m-.8916-2.0402c0-.2884.0388-.4811.1164-.5967.0777-.1156.1941-.1734.3682-.1734s.31.0578.3876.1734.1164.3077.1164.616v.1734h-.9692c0-.0578-.0194-.1156-.0194-.1927zm-2.6942 2.8483h.9498v-5.6965h-1.0081v1.7704c-.0776-.1542-.194-.2885-.3293-.3656-.1353-.077-.31-.1156-.504-.1156-.407 0-.6981.1542-.8722.4812-.1747.327-.2518.9237-.2518 1.7896 0 .866.0776 1.4242.2518 1.7512.1746.327.4652.5004.8722.5004.2134 0 .3875-.0386.5428-.1349s.2711-.2312.3488-.4233v.4426zm-.911-3.3101c.0582-.1542.194-.25.3681-.25.1941 0 .3294.0964.407.2885.0776.1927.1165.6545.1165 1.4241 0 .4812-.0389.7889-.1165.943-.0776.1542-.2135.2313-.407.2313-.1746 0-.2905-.0771-.3681-.25-.0583-.1734-.0971-.5774-.0971-1.2507 0-.5967.0388-.9815.0971-1.1357"/><path d="m54.8188 11.2003h.9498v-5.6965h-.9886v1.7704c-.0777-.15414-.1941-.28846-.3294-.36553s-.3099-.1156-.504-.1156c-.407 0-.6981.15413-.8722.48113-.1747.327-.2518.92373-.2518 1.78967 0 .86593.0777 1.40483.2518 1.75113.1746.327.4652.4811.8722.4811.2135 0 .3876-.0385.5428-.1348.1553-.0964.2712-.2312.3488-.4234l-.0194.4619zm-.8916-3.32936c.0582-.15414.194-.24993.3682-.24993.194 0 .3293.09634.4069.28846.0777.19213.1165.65455.1165 1.42414 0 .48114-.0388.78889-.1165.94299-.0776.1542-.2134.2312-.4069.2312-.1747 0-.2906-.077-.3682-.2499-.0777-.1729-.0971-.57748-.0971-1.25073 0-.59674.0194-.96227.0971-1.13568m-2.0743 3.32941c-.0583-.0963-.0971-.1927-.1165-.2885-.0194-.0957-.0388-.2119-.0388-.327v-2.4249c0-.5004-.097-.86593-.31-1.05861-.2129-.19267-.5816-.30772-1.105-.30772-.5235 0-.9111.1156-1.1439.32699-.2329.21139-.3488.57747-.3488 1.05861h.9692v-.07707c0-.21194.0388-.34626.1359-.4426.097-.09634.2135-.15414.407-.15414.1358 0 .2517.03853.3293.1156.0777.07707.1165.17341.1165.30773 0 .23121-.1941.42333-.5817.57747-.097.03854-.1552.05781-.1941.09634-.4846.21194-.7945.42333-.9498.63528-.1552.21194-.2329.48113-.2329.84662 0 .3848.0971.6926.2712.9238s.4458.327.7751.327c.2135 0 .407-.0386.5817-.1349s.2906-.2312.407-.3848c.0194.1156.0388.2119.0582.2692.0194.0578.0388.1156.0582.1541l.911-.0385zm-1.1051-1.55901c0 .30773-.0388.51971-.1359.67381-.097.1541-.2135.2312-.3876.2312-.1552 0-.2711-.0385-.3293-.1349-.0776-.0963-.0971-.2312-.0971-.4233 0-.19212.0583-.38479.1941-.51967.1359-.15414.3876-.30772.7558-.5004v.67381zm-4.0899 1.55901h.9498v-5.69655h-1.008v1.7704c-.0776-.15414-.1941-.28846-.3294-.36553s-.3099-.1156-.504-.1156c-.407 0-.6981.15413-.8722.48113-.1747.327-.2517.92374-.2517 1.78967s.0776 1.40488.2517 1.75118c.1747.3269.4652.4811.8722.4811.2135 0 .3876-.0385.5428-.1349.1553-.0963.2712-.2312.3488-.4233v.4618zm-.911-3.32941c.0582-.15414.1941-.24993.3682-.24993.194 0 .3293.09634.407.28846.0776.19213.1164.65455.1164 1.42414 0 .48114-.0388.78884-.1164.94304-.0777.1541-.2135.2312-.407.2312-.1747 0-.2906-.0771-.3682-.25-.0582-.1734-.097-.57742-.097-1.25068 0-.59674.0388-.96227.097-1.13568m-2.229-.96227h-.9887v4.27243h.9887zm0-1.40487h-.9887v.8852h.9887zm-4.885 4.34948v.07707c0 .48115.1164.80815.3293 1.03935.213.2312.5817.327 1.0469.327s.7946-.0964 1.0469-.3077c.2523-.2114.3681-.5004.3681-.8852 0-.48118-.3681-.94304-1.0856-1.42418-.0971-.0578-.1747-.1156-.2329-.15414-.2329-.15414-.3682-.26919-.4458-.34626-.0582-.07707-.0971-.17341-.0971-.28846 0-.11506.0389-.19268.1165-.26919.0776-.05781.1746-.09634.2905-.09634.1747 0 .2906.03853.3682.15414.0776.1156.1165.24992.1165.46186v.09634h.8722v-.09634c0-.4426-.1165-.78886-.3294-1.0008-.2135-.23121-.5428-.327-.9887-.327-.4458 0-.7945.09634-1.0274.30773-.2329.19268-.3488.48114-.3488.86594 0 .48113.3682.96226 1.0857 1.46267.0194.01926.0388.01927.0388.03853.0388.03854.1165.07707.1941.13487.3293.21195.4846.40403.4846.55823 0 .1349-.0388.2312-.1164.3077-.0777.0771-.1941.1156-.3294.1156-.1747 0-.31-.0578-.3876-.1541-.0776-.0964-.1164-.2885-.1164-.5197v-.1156h-.8916c.0388-.01927.0388 0 .0388.03853m-1.7832 1.34707v-2.50201c0-.21194.0582-.3848.194-.5004.1359-.11561.2906-.19268.5041-.19268h.1358c.0388 0 .0776 0 .1164.01927v-1.19293c-.2134 0-.4069.0578-.5622.19268-.1553.1156-.31.32699-.4458.616v-.69252h-.9498v4.27239l1.008-.0192h-.0005zm-3.2565-.8274c-.0776.1349-.2135.1927-.3876.1927s-.31-.0771-.3876-.2499c-.0776-.1542-.1164-.44265-.1164-.84671v-.17341c0-.03854 0-.07707.0194-.09634h1.9579v-.32699c0-.48114-.0194-.8274-.0777-1.03934-.0582-.21194-.1164-.3848-.2329-.53894-.1164-.15414-.2905-.28846-.4846-.36553-.194-.07707-.4264-.11561-.6981-.11561s-.504.03854-.7169.11561-.3682.19267-.4846.32699c-.1165.13433-.2135.327-.2518.55821-.0382.23121-.0776.59674-.0776 1.11641 0 .65454.0194 1.11645.0776 1.36635.0583.2499.1553.4619.2906.616.1164.1349.2711.2499.4458.3077s.407.0964.6787.0964c.504 0 .8916-.1156 1.1245-.3463s.3487-.5775.3487-1.07788v-.15414h-.9498c.0388.28842 0 .50042-.0776.63532m-.8916-2.04019c0-.28846.0388-.48114.1164-.59674s.1941-.17341.3682-.17341.3099.05781.3876.17341c.0776.1156.1164.30773.1164.61601v.1734h-.9692c-.0194-.03853-.0194-.1156-.0194-.19267zm-2.7913 2.86759.9886-4.27246h-1.0274l-.5428 3.27156-.5817-3.27156h-1.0663l.9887 4.27246zm-3.1206-4.29173h-.9887v4.27243h.9887zm0-1.40487h-.9887v.8852h.9887zm-4.0705 5.6966v-2.73272c0-.30773.0388-.51967.1165-.63527.0776-.13487.194-.19268.3681-.19268.1553 0 .2518.0578.3294.15414.0582.09634.097.28846.097.53894v2.86759h.9693v-3.36799c0-.327-.0777-.59674-.2518-.7696-.1746-.17341-.407-.26919-.7169-.26919-.1941 0-.3682.03853-.5234.13487-.1553.09634-.2712.23121-.3876.40407v-.42334h-.9693v4.27238h.9693v.0193h-.0006zm-5.8925-1.77045c0 .71175.1359 1.19295.407 1.48195.2712.289.7364.4233 1.3956.4233.3488 0 .6593-.0578.8917-.1541.2517-.0964.4652-.2499.6204-.4426.0971-.1349.1747-.2885.2135-.4619s.0582-.46185.0582-.84665v-3.94487h-1.0468v3.82982c0 .4426-.0583.7503-.1553.9045-.097.1541-.2905.2312-.5622.2312s-.4653-.0771-.5817-.2312c-.1164-.1542-.1553-.4619-.1553-.9045v-3.84908h-1.0662l-.0194 3.96413z"/></g></svg>