<svg fill="none" height="20" viewBox="0 0 94 20" width="94" xmlns="http://www.w3.org/2000/svg"><g fill="#001b3c"><path d="m9.74607 2.60048v15.27062l.00283.0201c.3882.0638.7808.0955 1.1741.0944 1.4274 0 1.7259-.2832 1.7259-1.9571v-1.6252c0-1.382-.1492-1.5365-1.3515-1.7168l-1.1008-.1545c-.0646-.0553-.1165-.1243-.1521-.2021-.017-.0371-.03-.0757-.039-.1153-.01001-.0436-.01509-.0882-.01509-.1332 0-.0858.01839-.1707.05409-.2485.0356-.0779.0875-.1469.1521-.2022 1.7681.0515 3.0239.0773 4.2233.0773s2.4326-.0258 3.2773-.0773c.0984.129.1518.2875.1518.4507 0 .1631-.0534.3217-.1518.4506l-.5631.103c-.7518.1546-.901.3863-.901 1.7768v1.4307c0 1.0815.0507 1.5967.5265 1.6996.0985.103.0732.5408-.076.618-.594.0805-1.1806.2097-1.7541.3863-1.4474.3816-2.9339.589-4.4288.6181-.1292 0-.257-.0037-.3837-.0073-.12451-.0035-.24812-.0071-.37093-.0071v.5723h8.93093v-18.884509h-8.93093v.572299c.37453-.04291.76863-.04291 1.15153-.04291 1.8088 0 3.0235.26174 3.8717.44462l.0023.00035c.4539.09787.8027.17302 1.0814.17302.0082.0908.0159.19564.0235.31265.0113.1743.0223.37538.0344.59665.0492.89782.1166 2.12695.294 3.23954-.107.28331-.7771.30905-.9516.05149-.8024-2.42058-2.3792-3.63383-4.7076-3.63383-.2673 0-.5343.01623-.79963.04871z"/><path d="m8.52679 1.4582c-2.27546.04163-4.4439.98955-6.0386 2.63953-1.594678 1.65009-2.48819 3.87052-2.48819 6.18327 0 2.3128.893512 4.5331 2.48819 6.1832 1.5947 1.6501 3.76314 2.5979 6.0386 2.6397v-2.4178c-1.64849-.0355-3.2177-.7259-4.37125-1.9232-1.15351-1.1973-1.79952-2.8062-1.79952-4.4819 0-1.67563.64601-3.28456 1.79952-4.48192 1.15355-1.19736 2.72276-1.88771 4.37125-1.92308z"/><path d="m92.4724 1.44463c-.4166 0-.7179.22324-.7179.55224l.0112.02296c0 .3915.3766.60906.8006.8541.5459.31543 1.1704.67632 1.1704 1.51221.0036.16896-.0269.337-.0897.49355-.0627.15668-.1562.2985-.2749.41702-.1187.1184-.26.21095-.4152.27183-.1552.061-.321.08895-.4873.08222-.4598.01102-.9091-.14183-1.2698-.43198v-.85839c.1339.19981.3117.36518.5194.48289s.4396.1845.6772.19517c.504 0 .7377-.329.7377-.58946 0-.44809-.4257-.71146-.8813-.99337-.5249-.32471-1.0896-.674-1.0896-1.35856 0-.75831.5434-1.244673 1.374-1.244673.3564.002783.7041.112256.9995.314733v.76109c-.1372-.14785-.302-.26672-.4846-.34975-.1826-.08304-.3796-.12849-.5797-.13383z"/><path clip-rule="evenodd" d="m86.87 1.28123c.3767-.27287.824-.427104 1.2863-.443339v.014264c.3159-.014264.6313.036761.9272.150065.2959.1133.5661.28655.7941.50909.228.22266.4091.49008.5324.78591.1233.29595.186.61428.1846.93562-.0003.47002-.1367.9296-.3922 1.32145s-.6189.69859-1.0447.88205c-.426.18346-.8955.23553-1.3503.14959-.4548-.08581-.8746-.3058-1.2072-.63248s-.5632-.74567-.6632-1.20467c-.0999-.45888-.0647-.93759.1012-1.37641s.4552-.81827.8318-1.09114zm.3177 3.41999c.2858.19772.6228.30511.9686.30847.2327.00824.4647-.03189.6815-.11805.2169-.08616.4142-.2164.5798-.38281.1656-.1663.2959-.36541.3831-.58482s.1293-.45459.1238-.69117c.0005-.35138-.1013-.6951-.2927-.9878-.1913-.29259-.4636-.52116-.7826-.65684-.319-.13557-.6704-.17221-1.0098-.1053-.3394.06703-.6517.2346-.8976.48161-.2458.24713-.4142.56256-.4839.90675s-.0376.7016.0923 1.02724c.1299.32563.3517.605.6375.80272z" fill-rule="evenodd"/><path d="m84.2706.901557h.6504v4.661063h-.6504z"/><path clip-rule="evenodd" d="m79.2956.901557h1.7541c1.6724 0 2.4101 1.230413 2.4101 2.331983-.0008.31531-.0644.62727-.187.91707-.1225.28968-.3016.55131-.5262.76886-.2246.21756-.4903.38675-.7809.49727-.2907.11051-.6003.16015-.9103.14588h-1.7598zm.6335 4.060123h1.0446l-.0084-.02574c1.4753 0 1.8131-1.14448 1.8131-1.71678 0-.92414-.5771-1.71678-1.8469-1.71678h-1.0024z" fill-rule="evenodd"/><path d="m77.4488 4.63268c.2281-.2375.2816-.58088.2816-1.01865l-.0029-2.712473h.6504v2.829833c0 1.14169-.6645 1.89421-2.0131 1.89421-.9573 0-1.8864-.55514-1.8864-1.82556v-2.898483h.6504v2.755383c0 .52649.076.74404.2815.95568.1272.13104.2796.23391.4477.30233.0752.03061.1527.05404.2317.07004.0976.01983.1975.02841.2976.0254.1927.01113.3856-.01658.5678-.08141.1821-.06483.3499-.16549.4937-.2963z"/><path d="m71.7413 1.50238h-1.5654v-.600823h3.7869v.600823h-1.5683v4.06024h-.6532z"/><path d="m68.6048 1.44463c-.4196 0-.718.22324-.718.55224l.0084.02296c0 .3915.3766.60906.8006.8541.5459.31543 1.1703.67632 1.1703 1.51221.0036.16896-.0269.337-.0896.49355-.0169.04222-.036.08338-.0573.12328-.0112.02099-.0229.04163-.0353.06192-.0131.02157-.0269.0428-.0413.06355-.0419.06007-.0891.11643-.141.16827-.0319.03178-.0654.0617-.1004.08964-.0413.03306-.0847.06332-.1299.09069-.0257.01554-.0519.03015-.0787.04372-.0346.01763-.07.03363-.1063.04778-.0658.02586-.1336.04581-.2025.05961-.0935.01878-.189.02644-.2847.02261-.4599.01102-.9091-.14183-1.2698-.43198v-.85839c.1338.19981.3117.36518.5194.48289s.4396.1845.6772.19517c.504 0 .7377-.329.7377-.58946 0-.44809-.4257-.71146-.8814-.99337-.5248-.32471-1.0895-.674-1.0895-1.35856 0-.75831.5293-1.244673 1.374-1.244673.3573.002203.706.111792 1.0023.314733v.76109c-.1373-.14785-.302-.26672-.4846-.34975-.1827-.08304-.3796-.12849-.5796-.13383z"/><path d="m66.6987 3.51395h-1.8554v1.44773h1.9793v.60094h-2.6297v-4.661063h2.5706v.600823h-1.9202v1.40784h1.8554z"/><path d="m61.5267 3.51395h-1.8526v1.44773h1.9793v.60094h-2.6297v-4.661063h2.5706v.600823h-1.9202v1.40784h1.8526z"/><g clip-rule="evenodd" fill-rule="evenodd"><path d="m54.0453.875928h1.7597c1.6753 0 2.4101 1.230412 2.4101 2.331982-.0008.31532-.0644.62727-.1869.91707-.1226.28969-.3016.55131-.5262.76886-.2247.21756-.4903.38675-.781.49727s-.6003.16015-.9103.14589h-1.7654zm.6504 4.085992h1.0361v-.02587c1.4754 0 1.8133-1.14448 1.8133-1.71677 0-.92415-.5773-1.71678-1.847-1.71678h-1.0024z"/><path d="m47.6718 1.29584c.3766-.27287.824-.426986 1.2863-.443338.317-.014379.6337.03711.9305.151218.2969.11423.5677.28876.7959.51293.2282.22416.409.4932.5314.79078.1224.29768.1838.61752.1804.94003-.0003.47013-.1367.92971-.3922 1.32156-.2555.39174-.6188.69858-1.0447.88204s-.8955.23542-1.3502.1496c-.4548-.08593-.8746-.30592-1.2072-.6326s-.5633-.74567-.6632-1.20455c-.1-.459-.0648-.93771.1011-1.37653s.4552-.81826.8319-1.09114zm.3176 3.40573c.2859.19772.6229.30511.9687.30847.2327.00824.4646-.03189.6815-.11805.2169-.08617.4142-.2164.5797-.38269.0813-.08176.1542-.1714.2176-.26743.0657-.09938.1212-.20584.1656-.31751.0871-.21941.1292-.45459.1237-.69117.0006-.35138-.1013-.6951-.2926-.98781-.1914-.29258-.4637-.52115-.7827-.65683-.3189-.13557-.6703-.17222-1.0097-.1053-.3395.06703-.6518.2346-.8976.48161-.2459.24713-.4143.56256-.484.90675s-.0375.7016.0923 1.02723c.1299.32576.3517.605.6375.80273z"/><path d="m45.5372 2.90141c-.1362.20584-.3336.36217-.5633.44601l.0084-.00278c.3905.26637.6387.67725.9594 1.20826l.0514.085c.1825.30534.2933.46271.5738.8606l.0428.06076h-.7771l-.5969-.95568c-.5997-.95859-.87-1.06725-1.2022-1.06725h-.2816v2.02293h-.6504v-4.661066h1.1431c.9235 0 1.4867.497846 1.4867 1.304746.0101.24794-.0578.49263-.1941.69847zm-1.7853.03688h.4195c.6955 0 .8898-.36913.8898-.7582-.0085-.43777-.2591-.70682-.8898-.70682h-.4195z"/></g><path d="m40.2667 1.50238h-1.5683v-.600823h3.7869v.600823h-1.5682v4.06024h-.6504z"/><path d="m34.4047.901557 3.0718 3.608083v-3.608083h.6109v4.661063h-.5602l-3.0296-3.58802v3.58802h-.6109v-4.661063z"/><path d="m33.0754 3.51395h-1.8526v1.44773h1.9793v.60094h-2.6325v-4.661063h2.5734v.600823h-1.9202v1.40784h1.8526z"/><path d="m26.3575 3.23911c-.0013-.11017.0076-.21988.0263-.32773.0128-.07387.0302-.14681.0522-.21848.0158-.0516.0339-.10251.0543-.1525.0905-.22138.2244-.42165.3935-.58876.1692-.16699.37-.29734.5903-.38292.2203-.0857.4554-.12478.6911-.11504.5545.0102 1.095.17882 1.5598.48636v-.71818c-.4876-.230429-1.0167-.356137-1.5542-.369126-.3249-.015307-.6494.037342-.9535.154696-.304.11748-.581.29711-.8138.52789-.2329.23066-.4166.50759-.5398.81351s-.1831.63422-.1762.96473c.0049.3174.0726.63063.1991.92101.1265.29026.3093.55177.5373.76886s.4967.38524.7901.4946c.2933.10924.6053.15748.9174.14171.5731.01067 1.1391-.13139 1.6414-.41203v-.72966c-.4669.32598-1.0161.50874-1.5823.52649-1.0896 0-1.833-.72677-1.833-1.77117z"/><path d="m93.4045 15.7828c-.3566-.3373-.7706-.6059-1.222-.7925-.4585-.1764-.9021-.3907-1.3261-.641-.196-.1244-.3678-.2844-.5067-.4721-.1288-.1805-.1978-.398-.1972-.6209-.0069-.1755.0287-.3501.1039-.5082.0368-.0776.0826-.1501.1361-.216.0556-.0685.1197-.13.1908-.1828.2953-.2059.6472-.3111 1.0052-.3005.346-.0275.6891.0822.9572.3061.2429.2569.414.575.4956.9214.0168.0602.0364.1193.0591.1774.0023.0054.0047.0106.0072.0158.0061.0125.0128.0248.0202.0365.0069.011.0144.0217.0225.032.0081.0105.0169.0206.0261.0302.0432.0377.098.0589.1549.0601.0339.0003.0675-.0067.0985-.0205.0112-.0049.022-.0107.0322-.0172l.0057-.0039c.0087-.006.0171-.0126.025-.0197.0066-.0059.0128-.0122.0188-.0189.0175-.021.0316-.0444.0418-.0694.0143-.0348.0213-.0725.0201-.1108-.0061-.1411-.0138-.2816-.0216-.4215l-.0005-.0077-.0003-.0073-.0007-.0139c-.0059-.1075-.0119-.2147-.0169-.3215-.003-.0633-.0056-.1265-.0079-.1895.0003-.0237-.0001-.0475-.0011-.0713-.0012-.0275-.0032-.0548-.0061-.0821-.0026-.0241-.0059-.0481-.0098-.072-.0047-.0281-.0103-.0559-.0167-.0836-.0176-.0549-.0475-.1048-.0873-.146-.0484-.0447-.1048-.0797-.1662-.103-.5282-.1889-1.0842-.2856-1.6442-.2861-.6027-.0078-1.1899.1941-1.664.5723-.2384.193-.4304.4386-.5616.7182-.1313.2796-.1982.5858-.1958.8955-.0052.2519.0424.502.1394.7338.0971.232.2416.4401.4237.6111.3662.3177.7809.5728 1.2276.7554l.6138.2718c.3744.1497.7152.3745 1.0023.6609.2662.2904.408.6763.3942 1.073.0006.2077-.0455.413-.1348.5999-.0893.187-.2194.3507-.3804.4788-.3288.2685-.7383.414-1.16.412-.2135.0131-.4274-.0184-.6284-.0928-.126-.0466-.2453-.1093-.3549-.1865-.0331-.0233-.0654-.0479-.0967-.0737-.0132-.0109-.0262-.022-.039-.0334-.0168-.0149-.0333-.03-.0495-.0456-.2884-.3325-.4589-.7535-.4843-1.1961-.0028-.0437-.0072-.0873-.0131-.1307-.0031-.0225-.0066-.045-.0105-.0672l-.0058-.0319-.0044-.0219c-.0033-.0191-.0079-.0378-.0138-.0562-.0073-.0227-.0167-.0447-.0279-.066-.007-.0131-.0147-.0258-.023-.0381-.0075-.0106-.0159-.0204-.025-.0295-.0156-.0154-.0334-.0285-.0528-.0388-.0191-.0102-.0395-.0175-.0606-.0218-.0128-.0026-.0259-.004-.039-.0043-.0514-.0002-.1016.0158-.1436.0458-.0521.0387-.0914.0925-.1126.1545-.0157.0475-.027.0963-.0338.146-.0067.0709-.0125.1419-.0175.213-.0038.0544-.007.1088-.0098.1633-.0052.1038-.0085.2077-.0099.3116-.0013.0921-.0011.1841.0006.2762v.1889c-.0034.1059.007.2117.031.3148.0249.1162.0923.2185.1886.2861.5703.3222 1.2114.4925 1.8639.495.7193.0231 1.4234-.213 1.9878-.6667.2498-.1939.4569-.4387.6081-.7187.1511-.2801.2428-.5893.2694-.9075.0265-.3183-.0129-.6386-.1155-.9406-.1026-.3018-.2662-.5785-.4805-.8123z"/><path d="m87.5313 17.7335c-.0214-.0253-.0483-.0452-.0786-.0581-.0303-.013-.0632-.0186-.0959-.0162-.0052.0002-.0104.0005-.0156.0011-.0089.0009-.0178.0023-.0266.0043-.0193.0043-.0379.011-.0557.0198-.0305.0153-.0577.0369-.0795.0635-.0145.0183-.0281.0372-.0407.0568-.0348.0535-.0628.1113-.0832.1721-.0154.0384-.0281.0755-.0383.1054l-.0005.0017c-.01.0294-.0176.0518-.0232.0616-.0252.094-.0599.1845-.1035.2705-.0479.0945-.1065.1833-.1747.2646-.1305.1554-.2932.2795-.4763.3634-.4032.1167-.8241.1574-1.2417.1202-.2067.0044-.4134-.0023-.6194-.0201-.1134-.0086-.2251-.0327-.3322-.0715-.0665-.0247-.1274-.0629-.1792-.1121-.0518-.049-.0933-.1083-.1221-.174-.0863-.2109-.1247-.4387-.1126-.6667v-2.1431c-.0032-.0704.0044-.1409.0225-.2088.0025-.0099.0061-.0193.011-.0281.0028-.005.0059-.0099.0094-.0144.0024-.0031.005-.0061.0077-.009.0379-.0249.0818-.0388.1267-.0402h.3126c.4782-.0133.9565.0232 1.4275.1088.0218.0053.0426.0139.0618.0253.0103.006.0201.0129.0294.0205.005.0041.0098.0083.0144.0128l.0049.0048.0049.0053c.062.0755.108.1631.1352.2575.0366.1218.0648.2461.0844.3719.0037.0251.0091.0498.0163.074.01.0339.0234.0666.0401.0977.0113.0225.0259.0429.0432.0606.0041.0042.0083.0083.0127.0122.0042.0037.0086.0072.013.0107l.007.0052c.0386.0282.0849.0431.1324.0429.027.0049.0546.0049.0816 0 .054-.0213.0975-.0634.1211-.1173.0271-.065.0397-.1354.0366-.206 0-.3134-.0213-.6105-.0427-.91l-.0003-.0034-.0017-.0229-.0088-.1264-.0056-.0818c.0253-.3462.0479-.7125.0591-1.0587.0017-.0367-.0054-.0733-.0206-.1067s-.0381-.0625-.0667-.085c-.0453-.0298-.0981-.0457-.152-.0458-.0475-.0002-.0938.0149-.1324.0429-.0449.0354-.0791.0831-.0985.1373-.0156.0397-.0269.081-.0338.1231l-.0035.0278c-.0036.027-.0075.0541-.0117.0808-.0048.03-.01.0598-.0157.0896-.021.1108-.0483.2205-.0817.3283-.0068.0202-.0149.0399-.0241.059-.0032.0065-.0065.013-.0099.0194-.0173.0322-.038.0626-.0617.0904-.029.0354-.0704.058-.1155.063-.3543.039-.7107.0561-1.067.0515h-.3689c-.0938.0049-.1877.0049-.2816 0-.0378-.0021-.0749-.0108-.1097-.0258-.0149-.0102-.0278-.0229-.0383-.0374-.0128-.0178-.0219-.0381-.0265-.0599-.0221-.1101-.0315-.2224-.0282-.3348v-1.9457c-.0008-.016-.0009-.032-.0004-.048.0007-.025.003-.0499.0069-.0746.0043-.0281.0106-.0559.0189-.0833.007-.0229.0194-.0436.0361-.0605.0042-.0043.0087-.0084.0134-.0121l.0049-.0037.0048-.0034c.0113-.0075.0235-.0134.0365-.0176.0556-.0194.1132-.0319.1717-.0372.2329-.0244.467-.0348.7011-.0315.4323-.02.8653.0205 1.2867.1202.154.0399.2943.1221.4055.2375.1172.1257.2124.2709.2815.4292l.1774.3405c.0086.025.0181.0497.0286.0739.0141.0325.0299.0642.0474.0949.0194.036.0451.068.076.0944.0241.0204.0522.0348.082.0424.0182.0047.037.0068.056.0062.0069.0003.0138.0002.0207-.0002.0058-.0004.0116-.0011.0174-.0021l.0042-.0008c.0035-.0007.0069-.0014.0103-.0024l.0075-.0022.0029-.0009.0066-.0023c.0116-.0043.0226-.0099.033-.0166.0096-.0061.0186-.0132.0269-.0211.0404-.0404.0679-.0923.0789-.1488.0037-.0418.0037-.0839 0-.1259v-1.3048c.0003-.0079.0003-.0157.0002-.0235l-.0005-.0173-.0012-.0184-.001-.0121-.0015-.0125c-.0064-.0509-.0202-.1008-.0411-.1479-.0218-.0428-.055-.0785-.0957-.103-.0148-.0085-.0302-.0156-.046-.0212l-.0097-.0032-.0082-.0025-.0078-.002-.0081-.002c-.0209-.0045-.0423-.0066-.0638-.0063-.2205 0-.4404.0025-.6599.0062-.2871.005-.5736.0123-.8603.0196h-.0051c-.5083.0128-1.0168.0257-1.5296.0257-.3678 0-.7433-.0127-1.1198-.0256-.1165-.0041-.233-.008-.3495-.0116-.0915-.0029-.1831-.0055-.2743-.0076-.1704-.004-.3402-.0067-.5088-.0067-.0186-.0004-.0372.0007-.0554.0035-.0134.0021-.0267.005-.0396.0087-.0173.005-.034.0115-.0503.0193-.0223.0107-.0435.0242-.0631.0401-.033.0271-.0595.0617-.0776.1007-.0087.0191-.0153.0389-.0198.0592-.0047.0217-.007.0438-.0067.0661-.0002.0334.0066.0661.0194.0961.0109.0255.0261.0492.0453.0698l.0078.0071.0094.008.0059.0047c.0041.0032.0082.0062.0124.0092l.007.0048c.0436.0289.0937.047.1461.0521.0563.0038.1127.0038.169 0 .0622-.0015.1243.0002.1863.0052.0745.006.1486.0167.222.032.0533.0111.1034.0347.1463.0686.0171.0155.0321.0329.0449.0516.0107.0158.0198.0326.0273.0503.0107.0257.0178.0531.0207.0812.0183.1289.0257.2591.0226.3892v5.4507c.0016.0705.0005.1412-.0035.2115-.003.0518-.0074.1034-.0134.1549-.0017.0215-.0051.0429-.0103.0639l-.0024.0092-.0042.0143c-.0025.0081-.0053.0161-.0084.024-.0025.0065-.0051.0129-.0079.0193l-.0035.0076-.0042.0085-.007.0133c-.0178.0311-.0418.0581-.0704.0792-.0286.0212-.0612.0361-.0957.0439-.1436.0357-.2915.0511-.4392.0458-.0789-.0021-.1576.0075-.2337.0286-.0469.0118-.0898.0367-.1239.0716-.0404.0433-.0635.1004-.0647.1601-.0012.0444.008.0885.0265.1287.0186.0403.0461.0755.0805.1031.059.0451.1316.0683.2055.0658.0306 0 .0614-.0008.0922-.0021l.0375-.0017.0401-.0026c.0497-.0034.0993-.0078.1485-.0125l.0651-.0064c.126-.0125.2486-.0247.3627-.0233h4.7386c.0168.0024.0338.0024.0507 0 .0211-.0034.0413-.0113.0592-.0231.0079-.0051.0152-.011.0219-.0175.0087-.0083.0164-.0177.023-.0281.0163-.0299.026-.0632.0282-.0973l.1801-1.3019c.0306-.1031.0476-.2099.0507-.3175.0015-.0303-.0024-.0603-.0114-.0888-.0026-.0083-.0056-.0164-.0091-.0244l-.0047-.01c-.0024-.0049-.0049-.0097-.0076-.0145-.0068-.0119-.0147-.0233-.0235-.0341z"/><path d="m80.2107 11.7876c-.0483-.0096-.0973-.0145-.1465-.0142-.1648 0-.3259.0133-.4842.0264-.1527.0126-.3026.0251-.4505.0251-.0863 0-.1734-.0032-.261-.0079-.0872-.0048-.175-.0111-.2634-.0174h-.0022c-.1816-.013-.3656-.0262-.5518-.0262-.0767-.0002-.1526.0164-.2224.0486-.0396.022-.0734.0534-.0986.0916l-.0061.0111-.0044.0088-.003.0064-.0035.008c-.0039.0093-.0073.0187-.0102.0283-.0038.013-.0068.0262-.0089.0396-.0021.0144-.0033.029-.0033.0437-.0027.0569.0153.113.0507.1573.0452.0546.1081.0912.1774.103.0524.0051.1052.0051.1576 0h.0451c.042-.0015.0839-.0013.1257.0008.0856.0044.1707.0166.2544.0364.0517.012.1003.0349.1426.0675.0285.0219.0536.0479.0747.077.0102.0141.0194.0289.0277.0443.0608.141.0942.2926.0985.4464.0169.1946.0197.4063.0197.5723v3.6166c.0095.2675-.0094.5351-.0563.7984-.0474.2525-.1668.4854-.3435.6696-.4561.4721-1.1966.6322-1.8639.6322-.3543.0027-.7068-.0515-1.0446-.1601-.3284-.0906-.6135-.299-.8024-.5866-.1127-.2245-.1797-.4698-.1971-.7211-.0298-.285-.0421-.5717-.0366-.8584v-3.9915c-.0003-.0183-.0004-.0366-.0003-.0549.0002-.0368.0014-.0735.0035-.1102.0032-.0567.0088-.1133.0165-.1696.0055-.0503.0208-.099.0451-.1432.0189-.0288.0434-.0536.0719-.0728.0286-.0191.0605-.0323.0942-.0387.1448-.034.2935-.0485.4421-.0429.0782.0014.1562-.0102.2308-.0343.0492-.0134.094-.0402.1295-.0773.0208-.0226.037-.0491.0476-.0781.0027-.0076.0051-.0151.0071-.023l.0021-.009c.0041-.0193.0059-.039.0052-.0587.002-.0444-.007-.0887-.0262-.1288-.0192-.0398-.048-.0744-.0836-.1001-.0607-.0387-.1312-.0586-.2028-.0572-.2326 0-.4638.013-.6933.026-.2259.0127-.4501.0255-.6722.0255-.2218 0-.4394-.0127-.659-.0254-.2237-.013-.4496-.0261-.684-.0261-.0314-.0013-.0627.0016-.0931.0084-.0406.0093-.0797.0257-.1153.0488-.0198.0136-.0372.0306-.0514.0501-.0054.0074-.0105.0153-.0149.0234-.0047.0086-.0089.0174-.0125.0266-.0097.0231-.0166.0471-.0207.0716-.0032.0188-.0048.0379-.0047.0572-.0006.0607.0204.1197.0592.1659.0221.0236.0474.0433.075.0589.015.0085.0307.0158.0469.0217.0092.0034.0185.0063.028.0087.0136.0036.0275.0063.0415.008.0525.0037.1052.0037.1577 0 .1369-.0038.2738.0077.4083.0343.0533.0111.1039.0324.1492.063.0501.0426.0823.1029.0901.1687.0209.121.0294.2437.0253.3664v4.289c-.0154.3627.0187.7256.1014 1.0788.1028.3717.3336.6937.6504.9069.625.4665 1.5739.5723 2.2918.5723.8025 0 1.6893-.1201 2.3257-.6809.2942-.2473.5058-.5811.6053-.9557.0769-.3579.1072-.7243.0901-1.0902v-3.8055c-.0011-.0275-.0018-.0549-.0021-.0824-.0009-.0943.0028-.1886.0112-.2823.0101-.112.0268-.2233.0501-.3335.0213-.069.0676-.1273.1294-.1631.1009-.052.2137-.0758.3267-.0686.087.0022.174-.0065.259-.0258.0562-.011.1085-.0366.152-.0744.0263-.0223.0473-.0503.0614-.0821l.0035-.0083.0042-.0111c.0052-.0151.0088-.0307.0108-.0466.0006-.0049.0011-.0099.0014-.0148l.0004-.0094v-.0108c.0006-.0563-.0161-.1112-.0479-.1574-.023-.0295-.0512-.0538-.083-.0719-.0257-.0146-.0537-.0252-.0831-.0311z"/><path d="m71.1794 15.7604c-.0191-.0022-.0383-.0033-.0575-.0034-.1058 0-.2109.0031-.3151.0077-.1024.0047-.204.0109-.3045.0171l-.0084.0003-.0072.0004h-.0073c-.2029.0124-.4013.0245-.5935.023-.0538-.0003-.1087-.0015-.1647-.0032-.1306-.0042-.2667-.0117-.406-.0194l-.0089-.0003-.0058-.0004c-.2305-.0124-.4695-.0252-.707-.0252-.0459-.001-.0918.0023-.1371.0095-.0258.0041-.0515.0095-.0768.0162-.0257.0088-.0497.0218-.0711.0383-.0207.0157-.0389.0348-.054.0564-.0308.0442-.0472.0972-.0467.1514-.0015.0589.0178.1164.0545.1621s.0883.0765.1454.0867c.0236.0049.0474.0085.0713.0109.0259.0026.0519.0038.0779.0035h.0479c.0386-.0016.0771-.0021.1156-.0014.0952.0019.1902.0109.2842.0272.0565.009.1108.0285.1605.0571.0088.0064.0172.0133.0252.0206.0113.0104.0217.0217.0311.0336.0099.0126.0187.0261.0264.0401.0141.0258.0242.0538.0299.0832.0128.0682.0221.137.0278.2062.0024.0292.0042.0585.0053.0879.0017.044.0019.0881.0007.1322v1.1817c.0027.1552-.0087.3104-.0338.4635-.0136.1243-.0682.2403-.1548.3291-.1801.1324-.3885.2198-.6082.2547-.0897.017-.18.0307-.2706.0408-.0795.0089-.1592.0152-.239.0187-.06.0026-.1201.0038-.1802.0034-1.0108 0-1.8442-.2862-2.5059-1.0558-.5704-.6786-.8716-1.5487-.8446-2.4407-.0014-.9289.2951-1.833.8446-2.5752.2799-.3473.6363-.6227 1.0403-.8042.404-.1814.8443-.2637 1.2854-.2402.3949-.0153.7877.0651 1.146.2346.3242.1716.5792.453.7207.7955l.0189.04.0175.0381.0314.0703c.0348.0782.0672.151.1039.215.0265.0517.0618.0982.1042.1373.0485.0408.1089.064.1718.0659.0459-.0007.0909-.0129.1312-.0353.0157-.0088.0306-.019.0443-.0306.0213-.0181.04-.0393.0554-.063.0399-.0702.0595-.1506.0563-.2317l-.0225-.5208c-.0086-.0829-.0097-.1616-.0108-.2379v-.0011c-.0014-.0991-.0027-.1938-.0202-.2875-.0164-.0877-.0552-.1696-.1126-.2375-.0735-.0757-.1631-.1334-.2619-.1687-.6308-.2369-1.2983-.3571-1.9709-.3549-1.1737.0017-2.3096.4219-3.2097 1.1876-.4523.3742-.8171.8457-1.0683 1.3805-.2513.535-.3826 1.1198-.3845 1.7125-.0026.5752.1247 1.1435.3722 1.6608.2475.5174.6085.9702 1.0552 1.3235.8502.6808 1.9115 1.0309 2.993.9871.9175.0265 1.8232-.2148 2.61-.6952.0915-.0566.168-.1352.2225-.2289.0357-.0819.0521-.1711.0478-.2605v-1.8168c-.0032-.0958.0034-.1917.0197-.2861.0018-.0162.0048-.0323.0091-.0479.0018-.0067.0039-.0133.0061-.02.0028-.0078.0058-.0156.0091-.0233.0123-.028.0288-.0542.0489-.0777.0355-.0242.0759-.0399.1183-.0458.037 0 .0775-.0055.1177-.0112.0239-.0034.0478-.0066.0709-.0088l.2225-.0258c.0665.0043.133-.0074.1942-.0343.041-.0199.0753-.0518.0985-.0915.0249-.0445.0375-.0949.0366-.146.0006-.0462-.0111-.0916-.0337-.1316-.0315-.0521-.0806-.0907-.138-.1087l-.0028.0028-.0202-.0052c-.0072-.0019-.0145-.0035-.0217-.0049-.0137-.0027-.0275-.0049-.0414-.0064z"/><path d="m61.0788 12.4857c.0189-.0288.0434-.0536.0719-.0728.0124-.0083.0255-.0155.0391-.0215.0092-.0041.0185-.0076.0281-.0105.0089-.0028.0178-.005.027-.0067.1439-.0341.2916-.0485.4392-.0429.0123.0001.0245-.0001.0367-.0006.0112-.0005.0224-.0012.0335-.0022.0091-.0008.0182-.0017.0272-.0029.0094-.0012.0188-.0026.0281-.0042.0337-.0057.0671-.0138.0997-.0244.0498-.0122.0948-.0391.1296-.0773.0417-.046.0648-.1063.0647-.1688.0011-.0242-.0011-.0482-.0063-.0716-.0045-.0197-.0111-.0388-.0199-.0572-.0027-.0055-.0055-.0111-.0086-.0164l-.0064-.0107c-.0048-.0076-.01-.0149-.0156-.022-.0152-.0194-.033-.0367-.053-.051-.0609-.0383-.1312-.0581-.2027-.0572-.228 0-.454.0124-.678.0247-.1121.0061-.2237.0123-.3348.0168-.1191.0049-.2376.0079-.3556.0071-.2149-.0014-.4261-.0127-.6386-.024-.23-.0123-.4616-.0246-.7016-.0246-.0744-.0032-.148.0168-.2111.0572-.0165.0113-.0312.0249-.0438.0402-.0147.0179-.0266.038-.0351.0599-.0161.0409-.0238.0847-.0225.1288-.0017.0302.0026.0606.0128.0891.0101.0286.0259.0547.0463.0768.0494.0543.1164.0889.1887.0973.0199.0014.0399.0023.0598.0027.0219.0004.0438.0002.0657-.0007.0117-.0005.0233-.0012.035-.002.0643-.0018.1285-.0002.1926.0048.0714.0057.1424.0155.2128.0295.0221.0048.0439.0113.065.0193.0304.0115.0596.0261.087.0437.0222.0202.0409.0437.0556.0696.0173.0304.0291.064.0346.0993.0183.121.0258.2436.0225.3662v5.5909c.001.0416.0009.0832-.0003.1248-.0009.0293-.0024.0586-.0044.088-.0029.0417-.007.0834-.0122.1249-.0064.0513-.0227.1009-.0479.1459-.0102.0158-.022.0306-.0353.0438-.0112.0112-.0234.0215-.0364.0304-.0285.0197-.0606.0334-.0944.0402-.1437.0353-.2915.0507-.4392.0458h-.0479c-.0408-.0021-.0817.0005-.1218.0075-.0103.0017-.0207.0038-.0309.0061-.0096.0022-.0192.0048-.0287.0075-.0081.0024-.0161.0049-.0241.0076-.0434.0155-.0815.0433-.1098.08-.0052.0069-.01.0143-.0144.0219-.0032.0057-.0063.0115-.009.0174-.0036.0077-.0068.0154-.0095.0234-.0019.0055-.0036.011-.005.0167-.0059.0225-.0083.046-.0072.0695-.0015.0464.0082.0925.0282.1344l.0036.0071.0049.0086c.0034.0056.0071.0112.011.0167.003.0041.0061.0082.0094.0121.0033.0041.0068.008.0104.0119l.0081.0083.0086.0078c.0129.0111.0269.0207.0419.0289.0119.0063.0243.0118.0372.016.0479.0169.0985.0247.1492.0228.1265 0 .2524-.0039.378-.0094.0907-.0041.1811-.0089.2714-.0138l.0252-.0014c.2323-.0129.4627-.0255.691-.024.2146.0014.4254.0125.6378.0239.2307.0123.4633.0247.7052.0247.0685.0021.1363-.0137.1971-.0458.0364-.0226.0657-.0554.0845-.0944.0217-.0413.0324-.0877.0309-.1344-.0008-.0547-.0185-.1079-.0506-.1517-.0437-.0507-.1035-.0842-.169-.0944-.0505-.0052-.1015-.0052-.152 0h-.0479c-.1373.002-.2743-.0124-.4082-.0429-.0323-.0063-.0634-.0168-.0928-.0314-.0197-.0098-.0386-.0212-.0565-.0345-.0523-.0472-.0854-.1125-.0929-.1831-.0046-.0329-.0086-.0659-.0119-.0989-.0026-.0263-.0047-.0526-.0064-.079-.0022-.0341-.0037-.0682-.0044-.1024-.0008-.0372-.0007-.0744.0002-.1116v-5.551c-.003-.1118.0027-.2238.0169-.3347.0063-.0506.0226-.0992.0478-.1431z"/><path clip-rule="evenodd" d="m57.69 19.1896c-.0304-.0004-.0609.0008-.0912.0035-.0252.0004-.0503-.0006-.0753-.0033-.0257-.0028-.0511-.0073-.0762-.0134-.0201-.0049-.0399-.0109-.0594-.018-.0223-.008-.0442-.0175-.0656-.0283-.0858-.0434-.16-.1072-.2163-.1859-.1308-.1852-.2421-.3836-.3322-.5924l-.9714-1.9227c-.0551-.1204-.1157-.2381-.1816-.3527-.032-.0559-.0654-.1109-.0999-.1652-.0538-.0733-.1162-.1396-.1858-.1975.3868-.0929.7454-.2805 1.0445-.5464.1953-.1763.3507-.3933.4557-.6364.105-.2429.157-.5062.1525-.7715.0089-.2964-.0552-.5904-.1865-.8551-.1313-.2649-.3256-.4922-.5653-.6613-.481-.3209-1.0466-.4854-1.6217-.4722l-.0946.0004-.0271.0003c-.042.0002-.0839.0007-.1257.0014-.1729.0028-.345.008-.517.0141l-.049.0018-.208.0078-.0078.0003c-.1732.0065-.3464.013-.5204.0179-.165.0046-.3306.0076-.4973.0076-.1893 0-.3872-.0126-.5876-.0254h-.004c-.0946-.006-.1898-.012-.2848-.0168-.1006-.005-.201-.0086-.3005-.0094-.0791-.0021-.1569.021-.2225.0659-.014.0118-.0268.0249-.0382.0392-.008.0098-.0152.0203-.0218.0312-.0064.0108-.0122.0219-.0173.0334-.0176.0402-.0258.0839-.024.1279-.0003.0604.0219.1186.0619.1631.0522.049.1182.0801.1886.0888.0525.0037.1052.0037.1577 0 .137-.0039.2739.0076.4083.0343.0539.0104.1049.0329.1492.0657.0151.0122.0286.026.0404.0413.0038.0051.0075.0103.011.0157.0038.0058.0074.0118.0107.0181.0156.029.0251.0609.028.0938.0043.0254.008.0509.0113.0764.0027.0214.0051.0427.0071.0641.0017.0196.0032.0392.0044.0588.0035.0574.0044.1151.0025.1727v5.5795l.0003.0296-.0001.0261c-.0004.0458-.0019.0916-.0045.1373-.0029.0493-.007.0985-.0126.1475-.0072.0512-.0234.1006-.0478.1459-.019.0298-.0438.0553-.0728.0749-.0086.0058-.0175.011-.0266.0158-.0219.0112-.0453.0192-.0695.0238-.069.0171-.1389.0295-.2093.0373-.0763.0084-.1531.0111-.23.0085h-.0478c-.0697-.0035-.1394.0061-.2056.0285-.0154.0058-.0302.0131-.044.0218-.0056.0036-.0111.0074-.0164.0115-.0175.0132-.0332.029-.0466.0468-.0307.0434-.0475.0954-.0478.1488-.0015.0465.0081.0927.0281.1345.0289.0568.0784.0999.138.1202.0474.0147.0969.0216.1464.02.0878 0 .1752-.0017.2622-.0045.1421-.0046.2831-.012.4234-.0195l.0098-.0007c.2252-.0119.4484-.0238.6702-.0238.222 0 .4405.0119.6608.024.085.0046.1704.0092.2563.0133.1401.0065.2816.0112.4259.0112.0693.0018.138-.0139.1999-.0458.0363-.0227.0657-.0554.0844-.0944.02-.0418.0297-.088.0282-.1345 0-.0118-.0007-.0236-.0023-.0352-.0009-.0071-.0021-.0141-.0036-.021-.0012-.0054-.0025-.0106-.004-.0158-.008-.0284-.0208-.0553-.038-.0795-.0228-.0267-.0502-.0485-.0805-.0648-.0274-.0147-.0573-.0249-.0884-.0298-.0179-.0018-.0359-.003-.0539-.0036-.0196-.0005-.0392-.0003-.0588.0006-.0141.0006-.0281.0016-.0422.003h-.0478c-.1371.0012-.2739-.0123-.4083-.04-.0537-.0125-.1045-.0359-.1492-.0686-.0067-.0063-.0131-.0129-.0191-.0196-.008-.0089-.0153-.0183-.0221-.0282-.0272-.0399-.0442-.0864-.0489-.1353-.0198-.1297-.0273-.261-.0225-.392v-2.2405c-.0043-.0676-.0043-.1354 0-.2032.0023-.0261.007-.0519.014-.0772v-.0228h.0282c.0262-.0036.0527-.0036.0788 0h.0732c.0827-.0021.1654-.0012.248.0027.0534.0026.1067.0064.1599.0114l.0568.0059.0478.0057c.0146.0022.0292.0049.0437.008.0258.0057.0512.0129.0761.0217.0161.0057.0319.012.0475.019.0158.007.0314.0146.0467.0229.0405.0276.0779.0593.1115.0947.0352.037.0663.0779.0928.122.0063.0105.0123.0212.0181.0321.076.1289.1633.3091.2815.5552l1.1741 2.4063c.0454.0998.0991.1956.1605.2862.0375.0522.0842.0969.138.1316.0627.036.1335.0546.2055.0543h1.2698c.0643.0023.1284-.0084.1887-.0315.0172-.0071.0333-.0165.0479-.0279.0186-.0144.0348-.032.0478-.0522.0103-.0147.0188-.0304.0254-.047.0031-.0077.0058-.0156.008-.0236.0061-.0216.0091-.044.0088-.0667.0001-.0642-.0229-.1264-.0647-.1745-.0206-.021-.0436-.039-.0684-.0536-.019-.0112-.0391-.0206-.0599-.0278-.0073-.0026-.0148-.0049-.0223-.007-.0152-.004-.0308-.0071-.0465-.0089l.0112-.0372c-.023-.0021-.0461-.0033-.0692-.0035zm-3.8782-3.7448h-.2815c-.0635.0032-.1269-.0076-.1859-.0315l-.0309-.0286c-.0114-.0188-.0164-.0409-.0141-.063v-2.206c-.0031-.1681.0025-.3362.0169-.5037.0061-.0693.0242-.1372.0535-.2002.0079-.0151.0176-.0291.0288-.0418l.0083-.0086.007-.0067c.0082-.0074.017-.0141.0263-.0202.0716-.0414.1515-.0658.2337-.0715.1494-.0182.3-.0259.4505-.0229.2155-.0127.4314.0179.6353.09.2039.0723.3917.1845.5528.3306.149.1631.2638.3553.3374.5648.0735.2096.1044.4321.0906.6542.0136.2216-.0254.4432-.1136.6464-.0881.203-.223.3817-.3932.5209-.4185.2953-.9256.432-1.4331.3863z" fill-rule="evenodd"/><path clip-rule="evenodd" d="m50.0533 19.1926c-.0181-.0016-.0363-.0028-.0544-.0033-.0345-.001-.069 0-.1033.0033-.0202.0005-.0403-.0002-.0602-.0019-.0167-.0014-.0332-.0034-.0497-.0062l-.0239-.0045c-.0497-.0105-.0981-.0274-.1439-.0504-.0862-.0433-.161-.1071-.2178-.186-.1299-.1857-.2412-.3841-.3323-.5922l-.9545-1.9171c-.0513-.1139-.108-.2252-.1697-.3335-.0356-.0625-.0729-.124-.1118-.1844-.052-.0739-.1136-.1403-.183-.1975.3825-.0986.7354-.2912 1.0277-.5608.1952-.1764.3507-.3934.4562-.6363.1054-.2429.1582-.506.1547-.7714.0077-.2962-.0569-.5897-.1881-.8544-.1312-.2646-.3248-.4921-.5636-.6621-.4812-.3204-1.0466-.4851-1.6218-.4721-.1486 0-.2964.0024-.4436.0061-.1943.005-.3878.0123-.5812.0196-.34.0129-.68.0258-1.0249.0258-.0786 0-.1587-.0022-.2398-.0056-.1159-.0049-.2339-.0123-.3526-.0198-.0617-.004-.1236-.0079-.1855-.0115-.0497-.0028-.0994-.0055-.149-.0077-.0828-.0037-.1654-.0064-.2472-.0069-.0791-.0025-.157.0205-.2224.0658-.0333.0281-.0598.0636-.0773.1038-.0176.0403-.0258.084-.0241.1279-.0015.0302.0033.0602.0139.0883.0107.0281.0271.0536.0481.0749.051.0488.1161.0799.1858.0886.0243.0017.0487.0027.0731.0028.0291.0002.0583-.0007.0874-.0028.136-.0038.2719.0077.4054.0343.0539.0106.1049.0331.1492.0659.0517.0416.085.1023.093.1688.0182.1231.0258.2475.0225.372v5.5824c.0029.1128-.0028.2257-.0169.3376-.0033.0287-.0099.0568-.0194.0839-.0076.0215-.0172.0422-.0285.0621-.0184.0297-.0427.055-.0713.0748-.0285.0197-.0608.0331-.0948.0396-.0679.0167-.1367.0289-.206.0367-.0774.0087-.1553.0117-.2332.009h-.0479c-.0274-.0015-.0547-.0009-.0819.0016-.043.0041-.0854.0131-.1264.0271-.0421.0164-.0791.0441-.107.0801-.0312.0429-.0471.0954-.0451.1488-.0015.0465.0082.0926.0282.1345.0133.0283.0322.0535.0554.0741.0233.0206.0504.0363.0797.046.0484.0148.0988.0215.1493.0201.2302 0 .4592-.0122.6863-.0242l.0071-.0004c.2259-.0122.45-.0241.6721-.0241s.4401.0119.6597.0241c.1092.0059.2188.012.3296.0166.0571.0023.1145.0043.1723.0057.0591.0015.1186.0023.1786.0023.0694.0021.1381-.0137.1999-.0458.0201-.0125.0381-.0282.0533-.0462.0123-.0146.0228-.0308.0312-.0482.0214-.0365.034-.0778.0366-.1203-.0003-.0208-.0031-.0415-.0082-.0614-.0083-.0324-.0226-.063-.0425-.0901-.0436-.0507-.1035-.0842-.169-.0945-.0505-.0051-.1014-.0051-.152 0h-.0478c-.0739.0011-.1477-.0019-.2212-.0091-.0283-.0028-.0567-.0061-.0849-.0102-.0399-.0057-.0796-.0126-.1191-.0208-.0536-.0131-.1042-.0364-.1492-.0686-.0302-.0281-.0537-.0623-.0694-.1-.0063-.0153-.0114-.031-.015-.0473-.0026-.0118-.0045-.0238-.0057-.0358-.0135-.0883-.0213-.1773-.0234-.2665-.001-.0418-.0007-.0836.0009-.1255v-2.4493c0-.019 0-.0318.0003-.0408.0005-.0113.0016-.017.004-.022l.0016-.0027.0009-.0016.004-.0056.0032-.0046v-.0228h.0254c.0261-.0036.0527-.0036.0788 0h.0732c.1722-.0044.3444.0043.5153.0257.0933.0111.1821.0463.2581.1024.0759.0562.1364.1313.1755.2181.076.1287.1632.309.2815.5551l1.1741 2.4063c.0454.0993.0981.195.1577.2861.0045.0064.0091.0125.0139.0186.0096.0121.0197.0237.0303.0349.0091.0096.0186.0187.0285.0276.0211.0187.0439.0357.068.0505.0275.0163.0567.0289.0869.0379.0383.0115.0783.0172.1187.0165h1.2698c.0634.0024.1266-.0082.1858-.0314.02-.0086.0386-.02.0554-.0336.0163-.0134.0309-.029.0432-.0465.0157-.0234.027-.0493.0333-.0765.0047-.0198.0068-.0403.0061-.061.0013-.032-.0037-.0639-.0148-.0939-.0112-.03-.0281-.0574-.05-.0806-.0179-.0187-.0379-.0349-.0593-.0486-.0414-.0264-.0885-.0432-.1378-.0486zm-4.344-3.7584c-.0231-.0052-.0459-.0123-.068-.0214l-.0338-.0286c-.01-.0195-.0148-.0411-.0141-.0629v-2.2061c-.0031-.1681.0025-.3362.0169-.5036.0055-.07.0246-.138.0563-.2003.0157-.0321.0401-.0589.0704-.0772.0705-.0417.1496-.0661.2309-.0716.1504-.0183.3019-.026.4533-.0228.2151-.0126.4305.0181.6339.0903.2034.0721.3908.1844.5515.3303.15.1623.2656.3543.3397.5639.0741.2097.1051.4326.091.6549.0124.2217-.0275.4433-.1161.6463-.0886.2029-.2235.3816-.3935.5211-.4176.2948-.9237.4315-1.4303.3863l.0113.0115h-.2816c-.0277.0015-.0555.0004-.0829-.0036-.0117-.0016-.0233-.0038-.0349-.0065z" fill-rule="evenodd"/><path clip-rule="evenodd" d="m42.156 19.2164c-.0599-.0066-.1203-.0066-.1802 0-.111 0-.2192-.0349-.3097-.1002-.146-.1188-.261-.272-.3351-.4464-.0585-.1208-.1099-.2526-.1589-.3779l-.0279-.0713c-.0167-.0425-.0332-.0837-.0497-.1231l-2.4186-6.1832c-.0075-.0265-.0163-.0526-.0263-.0782-.0113-.0289-.0241-.0573-.0384-.0849-.0174-.0357-.0413-.0677-.0704-.0944-.0373-.0338-.0852-.0531-.1351-.0544-.0538.0014-.1058.0194-.1493.0515-.0482.0442-.0858.0989-.1098.1603-.0121.0316-.0221.0634-.0306.0904l-.0055.0173-.0045.0139-.0044.0128-2.3144 6.1748-.0449.1212c-.0413.1105-.0947.2492-.1522.3823-.0156.0348-.0311.0692-.0467.1026-.0266.0573-.0533.1118-.08.1607-.0178.0372-.0385.0728-.0619.1065-.0149.0216-.0309.0424-.0479.0623-.0601.0662-.1387.1121-.2252.1316-.0504.0118-.1014.0204-.1527.0255-.0428.0043-.0858.0063-.1289.0059-.0806-.0038-.1613.0049-.2393.0258-.0136.0037-.0269.0083-.0398.0138-.0092.0039-.0183.0083-.0271.0131-.0259.0141-.0499.032-.0711.0532-.02.0218-.036.0468-.0473.0737-.0081.0191-.0139.0392-.0171.0599-.0023.0144-.0033.029-.0031.0439-.0003.0198.0017.0394.0057.0586.0055.0265.0149.052.028.0758.033.0525.0843.0903.1436.1058.0289.0086.0584.0145.0883.0177.0211.0022.0424.003.0638.0024h.2111c.169 0 .3352-.0124.4988-.0246h.0012l.0055-.0003c.0995-.0076.198-.0149.2955-.0194.0685-.0031.1366-.0049.2042-.0043.1537.0013.3106.0123.4701.0236.1764.0124.356.025.5379.025.075.003.1499-.0057.2224-.0257.0232-.0067.0451-.0167.0651-.0298.0233-.0154.044-.0348.061-.0577.0122-.0164.0222-.0342.0299-.0529.0122-.0296.0186-.0617.0185-.0942.0007-.0563-.0161-.1114-.0478-.1574-.0189-.0225-.0407-.042-.0647-.058-.0324-.0217-.0687-.0371-.1071-.0451-.0515-.0051-.1033-.0051-.1548 0h-.0479c-.1581.0037-.3157-.0175-.4674-.0629-.0627-.0203-.1197-.0555-.1661-.1031-.0402-.0453-.0614-.1048-.0591-.1659.0198-.22.0739-.4353.1605-.6381l.3604-.9241c.0392-.0996.0677-.1797.0893-.2404l.0092-.0257c.0123-.0333.0283-.065.0479-.0944l.0023-.0031c.0177-.0231.0221-.0289.0681-.0427.0884-.0147.1779-.0203.2674-.0172h1.6302c.1032-.0056.2066-.0056.3097 0 .0209.0022.0413.0071.0609.0143.011.004.0217.0088.0321.0143.0143.0101.0266.0226.0365.0373.0793.1567.1471.3193.2028.4863l.3829.9329c.017.0455.0366.0981.0564.1522.0162.0444.0325.09.0478.1339.012.0344.0222.0694.0305.1049.0139.0594.0225.12.0258.1811.002.0496-.0152.0978-.0479.1346-.0695.0605-.1564.0967-.2478.1029-.1204.0155-.2418.0221-.3632.0201-.0843-.0039-.1687.0048-.2505.0258-.0529.0168-.1004.0474-.138.0887-.0444.049-.0686.1135-.0676.1802-.0012.0483.0137.0958.0422.1345.0182.0227.0399.042.0641.0571.0235.0147.0494.0255.0767.0316.0393.0048.079.0048.1183 0 .2187 0 .4387-.0124.6555-.0246h.0029l.0083-.0003c.1366-.0077.2717-.0153.4045-.0198.0871-.0029.1731-.0046.2577-.004.257 0 .5153.0118.7754.0238l.0051.0003c.2653.0122.5327.0246.8019.0246.0532.0012.1061-.0096.1548-.0315.0374-.0136.0699-.0385.0929-.0716.0269-.0395.0416-.0864.0423-.1344.0007-.0456-.0104-.0902-.0318-.1295-.0098-.0182-.0218-.0353-.0358-.0508-.0128-.0132-.0266-.0253-.0411-.0362-.0182-.0137-.0378-.0255-.0582-.0352-.035-.0167-.0728-.0275-.1119-.0316zm-5.023-2.9386c0-.02 0-.043.0169-.0601l.8278-2.2433.0281-.0858c.0182-.0557.0398-.1102.0648-.163.0148.0306.028.0621.0394.0944.0091.0202.017.0418.0246.0622l.0048.0132.0072.0189c.0031.0105.0066.0208.0104.0309.0037.0099.0078.0196.0122.0292l.8108 2.0859c-.0012.0066-.0012.0135 0 .0201 0 .0243.0143.0574.0298.0935l.0023.0055c.0037.0086.0074.0173.011.0261l.0015.004.0033.0082c.0062.0162.0099.0268.0122.0343.0028.0089.0036.0135.0044.018l.0017.0082.0014.0054h-.0197c-.0139.0016-.0279.0024-.0419.0023-.0133 0-.0265-.0008-.0398-.0023h-1.7062c-.0384.0034-.077.0034-.1154 0z" fill-rule="evenodd"/><path d="m33.8189 15.7769c-.0458-.013-.0932-.0197-.1407-.0199-.2122 0-.4216.0127-.6262.0251h-.0025c-.2072.0127-.4094.0249-.6046.0234-.1792-.0012-.3728-.0118-.5735-.0227h-.0028c-.2337-.0127-.4771-.0258-.7188-.0258-.0722-.0013-.1441.0074-.214.0257-.0461.0176-.0869.0472-.1183.0858-.0349.0457-.0528.1024-.0506.1603-.0036.0517.0103.1032.0394.1459.037.0542.0937.0912.1577.1029.0491.0101.0991.0149.1492.0144h.0478c.1348-.0054.2697.0032.4027.0258.0564.009.1108.0285.1605.0571.0573.0429.0965.1064.1097.1775.0279.1402.0392.2833.0338.4263v1.1817c.0038.1551-.0065.3103-.0309.4635-.0089.0735-.0317.1441-.0666.2082-.0239.0438-.0535.0845-.0883.1209-.1801.1324-.3885.2198-.6082.2547-.2264.0432-.4565.0643-.687.0629-1.0135 0-1.8441-.2862-2.5058-1.0558-.5704-.6786-.8715-1.5487-.8447-2.4407 0-.9287.2964-1.8323.8447-2.5752.2796-.3468.6355-.6221 1.039-.8035s.8432-.2639 1.2839-.2409c.3957-.0153.7894.0652 1.1487.2346.3198.1748.5712.4556.7123.7955.0268.0557.0508.1099.0736.1616.0323.0732.0624.1414.0954.2018.0274.0518.0636.0983.1069.1373.0291.0258.0634.0447.1004.0556s.0759.0134.1139.0074c.0381-.006.0745-.0204.1065-.0421.032-.0218.059-.0503.0791-.0839.0408-.07.0613-.1503.0591-.2317l-.031-.5208c-.0011-.1759-.0115-.3516-.031-.5265-.0163-.0877-.0552-.1696-.1126-.2375-.0589-.0615-.1287-.1112-.2055-.1461-.0184-.0083-.0372-.0159-.0563-.0226-.6309-.2369-1.2984-.3571-1.9709-.3549-1.1737.0017-2.3097.4219-3.2097 1.1876-.4512.3751-.8154.8469-1.0665 1.3815-.2511.5347-.3831 1.1191-.3864 1.7115-.0014.5753.1268 1.1433.3747 1.6607.2479.5173.609.97 1.0556 1.3236.8502.6808 1.9115 1.0309 2.993.9871.9184.0264 1.825-.2148 2.6128-.6952.0914-.0558.1671-.1346.2196-.2289.0368-.0816.0541-.1708.0507-.2605v-1.8311c-.0008-.0901.0058-.1801.0197-.269.0077-.0629.0342-.1218.076-.1688.0355-.0242.0759-.0399.1183-.0458.0371 0 .0788-.0058.1192-.0113l.0033-.0004c.0228-.0032.0452-.0064.0661-.0083l.2225-.0258c.0665.0043.133-.0074.1942-.0343.0213-.0099.0406-.0231.0575-.039.0162-.0152.03-.0329.0411-.0526.0248-.0444.0374-.0948.0366-.1459.0002-.0241-.0028-.0481-.009-.0713-.0057-.021-.014-.0413-.0248-.0603-.0315-.0521-.0805-.0907-.138-.1088z"/></g></svg>