<svg fill="none" height="27" viewBox="0 0 94 27" width="94" xmlns="http://www.w3.org/2000/svg"><g fill="#001b3c"><path d="m14.7202 13.0761c-.1642.4586-.1915.9923-.0796 1.5486l.0249.1253 4.7061-2.7388c-.8059-.9723-2.2163-1.1076-3.2734-.5162-.6193.3458-1.1342.9071-1.378 1.5811z"/><path clip-rule="evenodd" d="m0 .837891h25.8089v26.000009h-25.8089zm18.2498 16.187309c.5671-.1303 1.9053-.6114 2.2734-2.3178l1.9352.3759c-.4054 1.957-1.8431 3.4404-3.7708 3.8789-.3806.0852-.7711.1303-1.1567.1303-1.5496 0-2.9972-.7141-3.8728-1.9119-.4925-.6715-.8158-1.4559-.9626-2.2552-.1667 2.4356-1.9775 4.1671-4.43498 4.1671-2.58934 0-4.46979-1.9094-4.46979-4.538v-4.99899h2.00481v4.99899c0 1.4734 1.05962 2.586 2.46498 2.586 1.39542 0 2.44758-1.1126 2.44758-2.586v-4.99899h2.0048v3.40039c.0398-.1905.092-.3759.1567-.5563.0423-.1203.092-.2406.1443-.3559.286-.6289.7114-1.1902 1.2262-1.6462.5995-.53128 1.3333-.9322 2.1118-1.11763 1.4949-.35582 3.1192.12028 4.236 1.16273.6293.5888 1.0323 1.3405 1.3332 2.1173l-6.4223 3.7387c.5148.5137 1.2511.8093 2.0296.8093.2413 0 .4826-.0275.7214-.0827z" fill-rule="evenodd"/><path d="m31.5771 9.50298v-5.11931h1.7536v5.11931c0 .92962.6641 1.62372 1.5397 1.62372.8755 0 1.5272-.6916 1.5272-1.62372v-5.11931h1.7536v5.11931c0 1.92192-1.3979 3.34022-3.2808 3.34022-1.8954 0-3.2933-1.4183-3.2933-3.34022z"/><path d="m44.9964 12.7379v-3.31761c0-1.6463-.8979-2.66114-2.3679-2.66365-.6517 0-1.2661.31072-1.587.81188v-.6916h-1.669v5.85848h1.669v-3.63836c.2388-.40593.699-.66904 1.1616-.66904.6865 0 1.1243.46608 1.1243 1.27795v3.03195z"/><path d="m47.8395 12.7379h-1.669v-5.86098h1.669z"/><path d="m48.0186 5.05271c0 .5613-.4627 1.02487-1.0174 1.02487-.5546 0-1.0198-.46608-1.0198-1.02487 0-.54876.4627-1.01484 1.0198-1.01484.5572 0 1.0174.46608 1.0174 1.01484z"/><path d="m48.5285 6.87692 2.4152 5.86098h1.4228l2.4028-5.86098h-1.8233l-1.2909 3.56828-1.3158-3.56828z"/><path clip-rule="evenodd" d="m60.5748 10.2071h-4.1813c.1542.7994.699 1.2178 1.4924 1.2178.5199 0 1.0671-.238 1.2686-.5964l1.3034.7994c-.4254.7743-1.3979 1.2278-2.6068 1.2278-1.7063 0-3.0569-1.3356-3.0569-3.07959 0-1.70644 1.3257-3.01947 3.0196-3.01947 1.5745 0 2.8083 1.22784 2.8083 2.79145 0 .20547-.0125.43099-.0473.65901zm-1.6243-1.07497c-.0721-.58385-.6044-1.01485-1.2213-1.01485-.6989 0-1.1616.38088-1.3158 1.01485z" fill-rule="evenodd"/><path d="m65.2411 8.44304.0945-1.57614c-.1766-.07267-.4154-.10775-.7114-.11026-.485 0-1.1143.31072-1.3979.81188v-.6916h-1.669v5.86098h1.669v-3.54313c.2861-.57132.8905-.88204 1.2686-.88204.2363 0 .5223.04762.7462.13031z"/><path d="m65.5023 12.1165.4974-1.1702c.5448.4059 1.2562.6214 1.9651.6214.5223 0 .8531-.2029.8531-.4761-.0048-.3501-.4869-.4607-1.0732-.5952-.9114-.209-2.0746-.4758-2.0882-1.79026-.0125-1.09753.9601-1.94448 2.3331-1.94448.8184 0 1.6342.20296 2.2163.66904l-.4751 1.21781c-.4502-.3458-1.184-.60891-1.8133-.60891-.4254 0-.7114.20297-.7114.46608.0048.32893.4828.45982 1.0678.62003.9213.25231 2.1081.57734 2.131 1.86319 0 1.085-.9477 1.8743-2.2984 1.8743-.9924-.0075-1.9053-.2455-2.6042-.7467z"/><path d="m71.3078 12.7379h1.669v-5.86098h-1.669z"/><path d="m72.1361 6.07758c.5547 0 1.0173-.46357 1.0173-1.02487 0-.54876-.4602-1.01484-1.0173-1.01484-.5572 0-1.0199.46608-1.0199 1.01484 0 .55879.4627 1.02487 1.0199 1.02487z"/><path d="m36.6837 14.8654v1.6939h-3.3281v1.5034h2.9624v1.6939h-2.9624v1.7666h3.3281v1.6939h-5.0792v-8.3517z"/><path d="m43.2229 23.2171v-5.8585h-1.669v3.6409c-.2487.4059-.7114.6565-1.1616.6565-.6865 0-1.1243-.4535-1.1243-1.2654v-3.032h-1.669v3.3051c0 1.6589.8979 2.6737 2.368 2.6737.6392 0 1.2561-.3107 1.5869-.8119v.6916z"/><path d="m48.1753 17.3461-.0945 1.5761c-.2239-.0827-.5099-.1303-.7462-.1303-.3781 0-.9826.3107-1.2686.8821v3.5431h-1.669v-5.8585h1.669v.6916c.2836-.5012.9129-.8119 1.3979-.8119.296 0 .5323.0351.7114.1078z"/><g clip-rule="evenodd" fill-rule="evenodd"><path d="m51.3268 23.3349c1.7038 0 3.0196-1.3005 3.0196-3.042s-1.3158-3.0546-3.0196-3.0546c-1.7163 0-3.0197 1.3131-3.0197 3.0546s1.3034 3.042 3.0197 3.042zm0-1.6112c-.7935 0-1.3855-.6189-1.3855-1.4308 0-.8344.592-1.4433 1.3855-1.4433.781 0 1.3854.6089 1.3854 1.4433 0 .8093-.6044 1.4308-1.3854 1.4308z"/><path d="m58.6695 17.2383c-.7338 0-1.4327.3333-1.7188.8119v-.6916h-1.669v7.793h1.669v-2.6261c.2836.4761.9825.8119 1.7188.8119 1.5173 0 2.7012-1.3606 2.7012-3.0545 0-1.6965-1.1839-3.0446-2.7012-3.0446zm-.3781 4.4879c-.7935 0-1.3855-.6214-1.3855-1.4308 0-.8344.592-1.4433 1.3855-1.4433.781 0 1.3855.6089 1.3855 1.4433 0 .8094-.6045 1.4308-1.3855 1.4308z"/><path d="m78.342 7.56852v-3.18485h1.6691v8.34923h-1.6691v-.6916c-.2835.4786-.9825.8119-1.7162.8119-1.5173 0-2.7138-1.3606-2.7138-3.05454 0-1.69391 1.1965-3.04202 2.7138-3.04202.7213 0 1.4327.33578 1.7162.81188zm-2.7361 2.24518c0 .8094.592 1.4308 1.3855 1.4308.781 0 1.3855-.6189 1.3855-1.4308 0-.83443-.6045-1.44333-1.3855-1.44333-.7935 0-1.3855.6089-1.3855 1.44333z"/><path d="m85.3067 6.87692v.6916c-.2836-.4761-.995-.81188-1.7163-.81188-1.5173 0-2.7137 1.34811-2.7137 3.04202 0 1.69394 1.1964 3.05454 2.7137 3.05454.7338 0 1.4327-.3333 1.7163-.8119v.6916h1.669v-5.85598zm-1.3482 4.36758c-.7935 0-1.3854-.6214-1.3854-1.4308 0-.83443.5919-1.44333 1.3854-1.44333.7811 0 1.3855.6089 1.3855 1.44333 0 .8119-.6044 1.4308-1.3855 1.4308z"/><path d="m92.331 7.56852v-3.18485h1.669v8.34923h-1.669v-.6916c-.2836.4786-.9825.8119-1.7163.8119-1.5173 0-2.7137-1.3606-2.7137-3.05454 0-1.69391 1.1964-3.04202 2.7137-3.04202.7213 0 1.4327.33578 1.7163.81188zm-2.7361 2.24017c0 .80941.592 1.43081 1.3854 1.43081.7836 0 1.388-.6214 1.3855-1.43081 0-.83443-.6044-1.44333-1.3855-1.44333-.7934 0-1.3854.6089-1.3854 1.44333z"/><path d="m72.8848 17.3586v.6916c-.2836-.4761-.995-.8119-1.7163-.8119-1.5173 0-2.7137 1.3481-2.7137 3.0421 0 1.6939 1.1964 3.0545 2.7137 3.0545.7338 0 1.4327-.3333 1.7163-.8119v.6916h1.669v-5.856zm-1.3507 4.3676c-.7934 0-1.3854-.6214-1.3854-1.4308 0-.8344.592-1.4433 1.3854-1.4433.7811 0 1.3855.6089 1.3855 1.4433 0 .8094-.6044 1.4308-1.3855 1.4308z"/><path d="m64.9899 21.9567c.7487 0 1.4153-.4961 1.5894-1.2178l1.3631.2982c-.306 1.3682-1.5198 2.3078-2.9525 2.3078-1.689 0-2.9699-1.303-2.9699-3.052 0-1.7491 1.2809-3.0646 2.9699-3.0646 1.3183 0 2.4003.8144 2.8007 2.0122l-1.2486.7291v-.0025l-2.6491 1.5411c.2786.2806.6617.4485 1.097.4485zm.0025-3.3452c-.9054 0-1.5795.7091-1.5795 1.6789 0 .0157.0007.0307.0013.0451.0006.0131.0012.0256.0012.0376l2.5595-1.4158c-.2662-.218-.6069-.3458-.9825-.3458z"/></g></g></svg>