<svg fill="none" height="26" viewBox="0 0 64 26" width="64" xmlns="http://www.w3.org/2000/svg" xmlns:xlink="http://www.w3.org/1999/xlink"><clipPath id="a"><path d="m0 0h64v26h-64z"/></clipPath><g clip-path="url(#a)" fill="#001b3c"><path clip-rule="evenodd" d="m31.1395 8.89555v-3.33647h-.9959v3.40004c0 .92821-.3225 1.26648-1.0982 1.26648-.8653 0-1.0829-.48577-1.0829-1.17239v-3.49413h-1.0035v3.5628c0 1.04262.3686 1.97852 2.0147 1.97852 1.3798 0 2.1658-.7121 2.1658-2.20485z" fill-rule="evenodd"/><path clip-rule="evenodd" d="m35.2595 11.0112v-4.59523h-.8192v1.42919c0 .56456.0128 1.38087.046 1.8437-.1638-.34585-.3379-.72985-.5401-1.08333l-1.2263-2.19464h-1.1008v4.59781h.8192v-1.6428c0-.55184-.0128-1.27152-.0384-1.67078.1306.30008.2791.64085.4762.9867l1.2877 2.32178h1.0931v.0076z" fill-rule="evenodd"/><path d="m36.6436 6.41602h-.8448v4.59778h.8448z"/><path clip-rule="evenodd" d="m40.9219 6.41602h-.8653l-.8653 2.63712c-.1229.38655-.1971.64085-.2585.95366h-.0128c-.0794-.33316-.1767-.64086-.2586-.89771l-.8525-2.69307h-.9241l1.5308 4.59778h.9754z" fill-rule="evenodd"/><path clip-rule="evenodd" d="m43.5532 11.0113v-.7553h-1.5437v-1.24863h1.4643v-.71968h-1.4643v-1.13165h1.5437v-.74002h-2.3911v4.59528z" fill-rule="evenodd"/><path clip-rule="evenodd" d="m47.1533 11.0113-1.0547-1.54614c-.1126-.15767-.2355-.33314-.3584-.50352.6656-.10936 1.1213-.60016 1.1213-1.27915 0-.93838-.6272-1.29187-1.5975-1.29187-.5068 0-.9164.00763-1.262.02544v4.59524h.8447v-1.89963h.0333l1.2263 1.89963zm-1.1801-3.23981c0 .42723-.3124.70188-.8192.70188-.1306 0-.2484-.00763-.3047-.01271v-1.32747c.0845-.01526.2099-.02034.3303-.02034.5376-.00509.7936.21616.7936.65864z" fill-rule="evenodd"/><path clip-rule="evenodd" d="m50.0041 9.58716c0-1.43682-1.8483-1.13165-1.8483-1.9556 0-.3255.2483-.55946.7372-.55946.2663 0 .5402.04831.7885.1246l.0461-.77562c-.2586-.04832-.5478-.08392-.7936-.08392-1.0547 0-1.6742.5671-1.6742 1.38087 0 1.5131 1.8432 1.1113 1.8432 1.99119 0 .42218-.3328.60528-.7629.60528-.3175 0-.6733-.0763-.9191-.1653l-.0512.8239c.2714.0763.5863.1094.8986.1094 1.0803.0051 1.7357-.6307 1.7357-1.49534z" fill-rule="evenodd"/><path d="m51.2048 6.41602h-.8474v4.59778h.8474z"/><g clip-rule="evenodd" fill-rule="evenodd"><path d="m55.5191 8.63368c0-1.61482-.8653-2.2455-2.2298-2.2455-.5401 0-1.0752.02035-1.4182.03306v4.58506c.3712.0128.768.0331 1.2262.0331 1.4311 0 2.4218-.8239 2.4218-2.40572zm-.9114.06867c0 1.09096-.599 1.58175-1.4259 1.58175-.1715 0-.343-.0152-.4633-.0356v-3.09741c.1382-.01525.3174-.02034.5145-.02034 1.0035-.00254 1.3747.5849 1.3747 1.5716z"/><path d="m59.5926 11.0114-1.5693-4.59783h-.9574l-1.5386 4.59783h.8525l.3047-.9409h1.6614l.3046.9409zm-1.4669-1.64028h-1.2262l.3968-1.17233c.0845-.26448.1562-.5315.2074-.768h.0076c.0538.25685.1178.48318.2023.73748z"/><path d="m63.4605 8.63368c0-1.61482-.8653-2.2455-2.2272-2.2455-.5402 0-1.0752.02035-1.4208.03306v4.58506c.3712.0128.768.0331 1.2262.0331 1.4311 0 2.4218-.8239 2.4218-2.40572zm-.9114.06867c0 1.09096-.599 1.58175-1.4259 1.58175-.1689 0-.343-.0152-.4608-.0356v-3.09741c.1383-.01525.3175-.02034.5146-.02034 1.0009-.00254 1.3721.5849 1.3721 1.5716z"/><path d="m37.3866 22.1498-1.3287-8.9286h-1.9097l-1.4669 4.6181c-.215.6612-.3533 1.1648-.4813 1.8514h-.0256c-.1152-.6358-.2637-1.2436-.4685-1.8793l-1.431-4.5902h-1.9226l-1.3132 8.9286h1.6716l.4736-4.1146c.1024-.7782.192-1.4801.2407-2.2761h.0256c.1024.7172.3174 1.5233.5453 2.2481l1.303 4.14h1.6333l1.3517-4.4833c.215-.7019.3532-1.3351.4684-1.9048h.0256c.064.6231.1408 1.2817.2637 2.1311l.6067 4.257z"/><path d="m44.8669 22.1499-2.6624-7.7893h-1.6231l-2.6009 7.7893h1.4464l.5171-1.5945h2.8134l.5197 1.5945zm-2.4807-2.7795h-2.0761l.6732-1.9861c.1434-.4502.2637-.9003.3508-1.3021h.0128c.087.4374.1996.8189.3404 1.2461z"/><path d="m50.3037 14.3606h-1.5207l-.9395 2.0904c-.2201.4933-.4403.9918-.5965 1.4393h-.0204c-.1434-.4043-.3072-.829-.5069-1.2893l-.9831-2.2379h-1.5667l2.3271 5.0429v2.7439h1.4336v-2.7566z"/><path d="m57.4256 18.147c0-2.6651-1.4028-3.9112-3.3868-3.9112-1.9968 0-3.6404 1.5462-3.6404 4.1198 0 2.4108 1.1136 3.9213 3.3869 3.9213 2.0199-.0025 3.6403-1.5563 3.6403-4.1299zm-1.5334.117c0 1.8691-1.0368 2.6549-2.007 2.6549-1.3364 0-1.9533-1.0731-1.9533-2.7236 0-1.7521.9472-2.6091 1.9737-2.6091 1.28 0 1.9866.946 1.9866 2.6778z"/><path d="m63.9547 22.1498-1.7869-2.6193c-.1869-.2645-.3968-.5671-.6067-.852 1.1264-.1856 1.8969-1.0146 1.8969-2.1692 0-1.5944-1.0598-2.1946-2.7059-2.1946-.8602 0-1.5565.0127-2.1427.0458v7.7893h1.4361v-3.2195h.0538l2.0762 3.2169zm-1.9968-5.4904c0 .7273-.53 1.1901-1.3901 1.1901-.2227 0-.4199-.0127-.5171-.0254v-2.2481c.1433-.0228.3532-.033.5632-.033.9011-.0051 1.344.3636 1.344 1.1164z"/></g><path d="m11.1482 17.1273-.0486-.0356c.8832-1.2028 1.472-2.3472 1.472-4.0129 0-1.6784-.5888-2.8228-1.472-4.02562l.0486-.0356c.8909 1.21302 1.4823 2.36752 1.4823 4.06122 0 1.6835-.5939 2.8355-1.4823 4.0485z"/><path d="m11.1722 17.1171-.0179-.0559c1.7997-.562 2.8749-2.482 2.8749-4.0155 0-1.4927-1.0983-3.44831-2.8749-4.00269l.0179-.05595c1.7997.56201 2.9133 2.54554 2.9133 4.05864 0 1.5538-1.088 3.5018-2.9133 4.0714z"/><path d="m11.143 17.1273c-.8909-1.213-1.4848-2.365-1.4848-4.0485 0-1.6937.5939-2.8482 1.4848-4.06122l.0486.0356c-.8832 1.20282-1.47196 2.34972-1.47196 4.02562 0 1.6657.58876 2.8075 1.47196 4.0129z"/><path d="m11.1209 17.1171c-1.82526-.5696-2.91582-2.5176-2.91582-4.0714 0-1.5131 1.11616-3.49663 2.91582-4.05864l.0179.05595c-1.77404.55438-2.87228 2.50999-2.87228 4.00269 0 1.5335 1.0752 3.4535 2.87228 4.0155z"/><path d="m11.18 17.0892h-.0589v-8.03598h.0589z"/><path d="m11.1032 5.13185-.1178-.00255c-1.4054-.05849-2.54204-1.20031-2.54204-2.56338 0-1.37324 1.14176-2.5125162 2.55484-2.56337696v-.00254304l.0973.00254304c1.4362.05340376 2.5447 1.16979696 2.5447 2.56083696 0 1.36307-1.1341 2.50489-2.537 2.56338zm-.0614-4.501177c-1.0778.022887-1.96356.887517-1.96356 1.935247 0 1.0401.88064 1.90728 1.96606 1.9378 1.0803-.03052 1.961-.8977 1.961-1.9378 0-1.06299-.8627-1.914903-1.9635-1.935247z"/><path clip-rule="evenodd" d="m11.4283 1.52567c-.1638.14495-.2073.45266-.0921.62813.0358.05341.3276.33568.6297.26448-.2073-.05341-.4249-.15767-.4838-.38909 0 0-.0103-.25939.1049-.35602 0 0 .1741-.1475.3584-.00763.0666.06103.1306.16021.0436.29245 0 0-.0564.07629-.146.05594.0538-.0534.0589-.14241.0052-.19581-.0538-.05086-.1434-.05086-.1972 0-.0307.03052-.0486.07629-.046.11444-.0103.13986.128.32042.3353.23904.0487-.0178.1178-.06357.1741-.10426.1613-.16784.1203-.3662-.023-.52132-.1204-.11698-.4199-.24668-.6631-.02035z" fill-rule="evenodd"/><path d="m11.8655 2.46411c-.2739 0-.5171-.22887-.5581-.28991-.1229-.19072-.0768-.51877.0973-.67136.0947-.089.2048-.13223.3251-.13223.169 0 .3098.08646.3789.16021.1741.18564.1818.4018.023.56455-.0819.06103-.1433.09664-.1868.11189-.0359.01526-.0743.02289-.1101.02289-.0717 0-.1383-.03051-.1869-.08138-.0538-.05849-.0845-.13986-.0794-.21107-.0051-.04323.018-.09918.0538-.13478.064-.06357.1792-.06357.2432 0 .0333.03052.0486.07121.0486.11698 0 .02035-.0051.04069-.0102.06103.0384-.01271.0563-.0356.0563-.0356.0589-.09155.0461-.17038-.0409-.24922-.0436-.03306-.0948-.05086-.146-.05086-.0947 0-.1689.05849-.1689.05849-.0999.08647-.0947.32805-.0947.3306.0435.17038.1996.29499.4582.35857v.06357c-.0307.00254-.064.00763-.1024.00763zm-.1331-1.02993c-.105 0-.1997.03815-.2816.11444-.1511.13478-.192.42468-.0871.58998.018.02543.1946.20853.4122.25176-.1766-.07883-.2842-.19581-.3226-.35094 0-.0178-.0102-.28227.1152-.38908.0052-.00254.0922-.07629.2125-.07629.0666 0 .1306.02289.1869.06612.1152.10172.1306.2187.0538.33822-.0052.00509-.0589.07375-.146.07375l-.0998-.02035.0435-.04068c.0205-.02035.0307-.04832.0307-.07629 0-.02544-.0102-.05087-.0281-.07121-.041-.03815-.1101-.03815-.1511 0-.0256.02543-.0384.05849-.0358.08901-.0026.06103.0205.12461.0614.16784.0256.03051.0717.06103.1383.06103.0281 0 .0563-.00509.087-.0178.0384-.01272.0947-.04578.1664-.09918.1306-.13224.1203-.31025-.0281-.47046-.064-.06866-.192-.13987-.3277-.13987z"/><path clip-rule="evenodd" d="m11.0358 7.15103c-.0922 0-.1946-.08392-.1946-.15004-.0025-.06866.0333-.12715.0871-.15004 0-.05849 0-.0712 0-.09918-.0692.09664-.1716.08647-.2202.03815s-.0486-.12461 0-.17293c.0384-.0356.0947-.04323.1408-.02543v-.2721h-.3302v-.17801h-.2919v.17801h-.29438v-.17801h-.28672v.17801h-.30976v-1.07825h.30976v.38146h.28672v-.38146h.29438v.38909h.2919v-.38909h.5708s.0384 1.90982-.0537 1.90982z" fill-rule="evenodd"/><path d="m11.0359 7.18419c-.1076 0-.2279-.09918-.2279-.1831-.0025-.0712.0307-.13732.0845-.17038v-.00254c-.064.04323-.1562.0356-.2074-.01526-.0307-.02798-.0486-.06866-.0486-.10935s.0179-.07884.0486-.10935c.0333-.03052.082-.04832.1306-.04323v-.2009h-.3302v-.17802h-.2279v.17802h-.36095v-.17802h-.22016v.17802h-.37376v-1.14183h.37376v.37891h.22016v-.37891h.36095v.38654h.2279v-.38654h.6348v.03052c.0103.43231.0308 1.8437-.0563 1.93271zm-.0743-.53658v.22379l-.0205.00763c-.0409.0178-.0665.06612-.064.11952 0 .04069.0717.11189.146.11952.0486-.13224.0486-1.17742.0358-1.84624h-.5069v.38908h-.3609v-.38908h-.22789v.38145h-.35328v-.38145h-.2432v1.01467h.2432v-.17801h.35328v.17801h.22789v-.17801h.3609v.17801h.3303v.35348l-.0461-.0178c-.0333-.01526-.0794-.00763-.105.0178-.0179.0178-.0281.04069-.0281.06358 0 .02288.0102.04577.0281.06357.0359.03306.0999.06104.169-.03306z"/><path clip-rule="evenodd" d="m11.3432 5.24108.0128-1.03756c.0333-.28482.2893-.4018.2893-.4018.0103.04578.0666.05595.0666.05595.0921.05849.1741-.07375.1459-.14241-.0794-.2187-.2483-.15258-.2483-.15258-.1741.06866-.361.42977-.361.42977l.0026-.74256h.0896c.0768.11443.2355.089.2867 0h.192c.0256 0 .0691-.03561.0691-.0763 0-.07374-.0665-.08137-.0665-.08137h-.1997c-.064-.10172-.2202-.08647-.2816 0h-.0896v-.15258c.1664-.15259.0947-.4018-.0282-.47555 0-.09155 0-.28991 0-.28991l.0461-.11698.0026-.46792c.0409-.10935.1843-.25176.2124-.27464.0333-.03561.0871.01017.0871.01017s.0512-.11444.0589-.1297c-.0384-.00254-.1332-.04577-.1332-.04577-.0819.02034-.192.12715-.2304.2365 0-.05595 0-.33314 0-.33314s.0538-.02543.0717-.066116c.0384-.081377-.0205-.22633-.2048-.22633-.0665.348396-.0435 4.485916-.0435 4.485916h.2534z" fill-rule="evenodd"/><path clip-rule="evenodd" d="m5.57022 13.1196h-5.099517l.714237 4.664 2.56512 4.0281 4.02944 2.7414 3.3434.9918-.0282-7.0239-1.7408-.3-1.93536-1.0707-1.4592-2.1132z" fill-rule="evenodd"/><path d="m11.4715 25.6871h-.7449v-7.1434h.7449z"/><path d="m5.41201 13.4985h-4.835838v-.7375h4.835838z"/><path d="m11.1028 18.6889c-3.16416 0-5.73952-2.5583-5.73952-5.7015 0-3.14322 2.57536-5.70151 5.73952-5.70151 3.1667 0 5.7421 2.55829 5.7421 5.70151 0 3.1432-2.5754 5.7015-5.7421 5.7015zm0-10.99358c-2.93632 0-5.32736 2.37518-5.32736 5.29208 0 2.9168 2.39104 5.292 5.32736 5.292 2.9389 0 5.3274-2.3752 5.3274-5.292.0025-2.9169-2.3885-5.29208-5.3274-5.29208z"/><path clip-rule="evenodd" d="m13.0371 13.5519c-.0051-.0051-.0179-.0203-.0281-.0178-.0077.0026-.0077.0077-.0077.0127.0025.0077.0077.0179.0102.0229l.1741.3535-.3994.0254c-.0076 0-.0204 0-.0281.0026-.0051 0-.0077.0076-.0051.0127.0025.0102.023.0127.0281.0153l.3738.1373-.256.3026c-.0026.0026-.0205.0204-.0179.0254.0051.0204.0281 0 .0358-.0025l.3635-.1704.0307.3764c0 .0051 0 .0178.0026.0254 0 .0051.0077.0102.0128.0076.0102-.0025.0154-.0254.0154-.0279l.128-.351.2944.2442c0 .0025.0179.0203.0256.0178.0153-.0051-.0026-.0306-.0052-.0356l-.1638-.3433.384-.0306c.0051-.0025.0205-.0025.0282-.0025.0051-.0026.0076-.0076.0076-.0127-.0025-.0102-.0256-.0153-.0281-.0178l-.3661-.1373.2534-.2874c.0052-.0076.0205-.0178.018-.028 0-.0076-.0077-.0076-.0128-.0076-.0103.0025-.018.0076-.0231.0102l-.3533.1602-.0332-.3917c-.0026-.0076 0-.0178-.0026-.0254 0-.0051-.0077-.0076-.0128-.0076-.0077.0025-.0128.0254-.0128.028l-.1331.3611z" fill-rule="evenodd"/><path d="m13.3243 14.7115h-.0231l-.0179-.028-.0307-.3637-.3635.1653c-.018 0-.0333-.0127-.0384-.0305l-.0052-.0178.256-.3077-.3328-.1221c-.0179-.005-.0409-.0127-.046-.0356l.0281-.0483c.0077-.0025.0179-.0051.0333-.0051l.3558-.0229-.1536-.3128c-.0179-.0508-.0076-.0712.0154-.0762.0307 0 .0486.0127.0589.0254l.2585.2136.1255-.3357.0281-.0305c.0256.0025.041.0102.0461.0254l.0333.3815.3558-.1577c.018 0 .0333.0102.0384.028l.0052.0178-.0256.0356-.2279.2619.3251.1221c.018.0051.041.0127.0461.0356l.0103.028-.0692.0229-.3404.0254.1459.3052c.0077.0178.0179.0356.0102.0559l-.0256.0203c-.023.0026-.0461-.0152-.0537-.0254l-.2612-.2136-.1126.3128c-.0051.0254-.0179.0407-.0358.0458zm-.018-.4832.0308.3713.1203-.3484.2765.2288-.1536-.3229.3686-.0305-.3482-.1323.2381-.2746-.3328.1526-.0307-.3662-.1254.3356-.2791-.2288.1639.3331-.3789.0254.3507.1272-.2406.2873z"/><path clip-rule="evenodd" d="m10.1835 10.2509c-.0051-.0051-.0153-.0152-.023-.0127-.0051 0-.0077.0051-.0051.0102.0025.0076.0051.0127.0102.0203l.1357.2823-.32001.0204c-.00512 0-.01792 0-.02304.0025-.00512 0-.00513.0051-.00513.0102.00256.0076.02049.0101.02305.0127l.29953.1093-.2048.2442c-.0026.0025-.0179.0152-.0154.0203.0051.0153.0231 0 .0282-.0025l.2918-.1348.0256.2975c.0026.0051 0 .0153.0026.0204 0 .0051.0077.0076.0102.0051.0077-.0026.0128-.0178.0128-.0229l.1024-.2823.2355.1958c.0026.0025.0154.0153.0205.0153.0128-.0051-.0025-.0255-.0025-.0306l-.1306-.2746.3072-.0229c.0051 0 .0154 0 .0205-.0051.0051-.0025.0077-.0051.0077-.0076-.0026-.0076-.0205-.0127-.0231-.0153l-.2918-.1093.2022-.2289c.0051-.0076.0179-.0152.0154-.0254 0-.0051-.0051-.0051-.0103-.0051-.0076.0025-.0153.0051-.0204.0076l-.2842.1297-.0256-.3128c-.0026-.0076 0-.0152-.0026-.0203 0-.0051-.0076-.0076-.0102-.0051-.0077.0025-.0102.0203-.0102.0203l-.1076.2899z" fill-rule="evenodd"/><path d="m10.4146 11.1817h-.023l-.0154-.0254-.0256-.2823-.3072.1271-.0179-.0457.2022-.2391-.30205-.1271-.00768-.028.03328-.0178.30465-.0203-.1255-.295.0461-.0178.2304.1881.1229-.2873h.023l.0231.0254.0256.2975.3021-.122.0179.0432-.0231.0305-.1766.2009.2662.1018.0282.0279-.0282.0433-.2918.0254.1203.2874-.0461.0203-.2278-.1882-.0947.2569zm-.0102-.3993.023.2823.0896-.267.2074.1704-.1152-.2391.2764-.0228-.2636-.0992.1792-.206-.2509.1144-.0231-.2746-.0947.2517-.2073-.1729.1228.2518-.2841.0178.2637.0966-.1844.2187z"/><path clip-rule="evenodd" d="m8.71282 14.4546c-.00512-.005-.01536-.0152-.02304-.0152-.00512.0025-.00768.0051-.00768.0102.00256.0076.00512.0127.01024.0203l.13824.2823-.32.0203c-.00512 0-.01792 0-.02304 0-.00256.0026-.00512.0077-.00512.0102 0 .0076.01792.0102.02304.0127l.29952.1094-.2048.2441c-.00256 0-.01536.0153-.01536.0203.00512.0153.02304 0 .02816-.0025l.29184-.1348.0256.2976c0 .005 0 .0152.00256.0203 0 .0051.00512.0076.01024.0076.00768-.0025.0128-.0203.0128-.0229l.1024-.2822.23552.1958c.00256.0025.01536.0178.02048.0152.0128-.0051 0-.0254-.00256-.0305l-.13056-.2746.3072-.0255c.00512 0 .01792-.0025.02048-.0025.00512-.0025.00768-.0051.00768-.0076 0-.0102-.02048-.0127-.02304-.0153l-.29184-.1093.20224-.2315c.00512-.005.01792-.0127.01536-.0228-.00256-.0051-.00512-.0051-.01024-.0051-.00768.0025-.01536.0051-.02048.0076l-.28416.1297-.0256-.3128c-.00256-.0076-.00256-.0153-.00256-.0203 0-.0051-.00512-.0077-.00768-.0051-.00768.0025-.01024.0203-.0128.0203l-.10752.2874z" fill-rule="evenodd"/><path d="m8.94013 15.388h-.02304l-.01536-.028-.02304-.2822-.3072.1296-.02048-.0457.20224-.2391-.27648-.1017-.0256-.028.0256-.0432.30464-.0203-.128-.2722.0384-.0406.0384.0228.19968.1653.12544-.2873h.02304l.02304.0254.0256.2975.30208-.122.01792.0432-.02304.0305-.17664.2009.26624.1018.03584.0559-.03328.0178-.29184.0229.12032.2874-.04608.0203-.22784-.1882-.09472.2569zm-.00768-.3993.02304.2798.08704-.2645.20736.1704-.1152-.2416.27648-.0229-.26368-.0992.18176-.206-.25088.117-.02304-.2772-.09472.2543-.20736-.1729.12288.2518-.28416.0178.26368.0966-.18432.2187z"/><path clip-rule="evenodd" d="m11.347 15.5534c-.0051-.0051-.0128-.0178-.0231-.0153-.0051.0025-.0076.0051-.0051.0102 0 .0076.0051.0127.0077.0203l.1382.2823-.32.0203c-.0051 0-.0153 0-.0204 0-.0052.0026-.0052.0051-.0052.0102.0026.0076.018.0127.0231.0127l.2995.1094-.2048.2416c-.0026.0025-.0154.0152-.0154.0203.0052.0153.0231 0 .0282-.0025l.2893-.1348.0256.3001c.0025.0051.0025.0152.0025.0203.0026.0051.0052.0076.0103.0051.0077-.0025.0128-.0203.0128-.0229l.1024-.2823.2355.1958c.0026.0026.0154.0153.0205.0153.0128-.0051 0-.0229-.0026-.0305l-.1331-.2747.3072-.0254c.0051 0 .0179-.0025.023-.0051.0052 0 .0077-.0051.0077-.0076-.0025-.0076-.0205-.0102-.023-.0153l-.2919-.1093.2023-.2289c.0051-.0051.0179-.0152.0153-.0229 0-.0051-.0051-.0076-.0102-.0051-.0077.0026-.0154.0051-.0205.0102l-.2816.1272-.0281-.3128c0-.0077 0-.0153-.0026-.0204 0-.0051-.0051-.0051-.0077-.0051-.0077.0026-.0102.0204-.0128.0229l-.1075.2874z" fill-rule="evenodd"/><path d="m11.5781 16.4866h-.0231l-.0153-.028-.0231-.2823-.3072.1272-.0179-.0458.2022-.2416-.302-.1271-.0077-.028.0333-.0178.3046-.0203-.1254-.2721.0358-.0407.0384.0229.2022.1653.1229-.2874h.0231l.023.0254.0282.2976.2995-.1221.0179.0432-.023.0305-.1767.2009.2663.0992.0358.056-.0333.0178-.2918.0254.1203.2848-.0461.0229-.2278-.1907-.0922.2594zm-.0077-.3993.023.2823.0896-.2645.2074.1704-.1152-.2416.2765-.0229-.2637-.0991.1817-.206-.2508.1144-.0231-.2746-.0947.2517-.2074-.1704.1229.2493-.2841.0178.2636.0966-.1843.2162z"/><path d="m11.1469 10.9682c-.5222 0-2.1427-.1907-2.91838-.562l.0256-.0534c.7552.3611 2.39108.5544 2.89278.5544.4864 0 2.0941-.1933 2.8647-.5519l.0256.0534c-.7911.3688-2.3834.5595-2.8903.5595z"/><path d="m15.0664 13.0482h-7.92578v-.0585h7.92578z"/><path d="m11.1649 12.0642c-.0077 0-.0128 0-.0179 0-1.41568-.0026-2.8928-.2899-3.66848-.5544l.02048-.0559c.77056.2644 2.24.5467 3.648.5518h.0179c1.3005 0 2.7725-.2136 3.5815-.5188l.0204.056c-.8166.3051-2.2963.5213-3.6019.5213z"/><path d="m9.38437 16.6772-.02304-.0534c.74497-.3179 1.53857-.3433 1.76387-.3433.4505 0 1.1443.0865 1.7459.3255l-.0231.0534c-.5939-.2365-1.28-.3204-1.7228-.3204-.2228.0026-1.0061.0254-1.74083.3382z"/><path d="m8.2131 15.7947-.0256-.0509c.74496-.3789 2.4346-.5849 2.9594-.5849.512 0 2.1171.1933 2.903.5646l-.0256.0534c-.768-.3637-2.3859-.5595-2.88-.5595-.5171.0026-2.19136.2035-2.9312.5773z"/><path d="m7.48728 14.6783-.02048-.0559c.77312-.2671 2.2528-.5544 3.6762-.557h.0179c1.3107 0 2.7929.2136 3.6096.5239l-.0205.0559c-.8115-.3051-2.2835-.5213-3.5866-.5213-.0076 0-.0128 0-.0179 0-1.41822.0026-2.89022.2899-3.65822.5544z"/><path d="m11.1233 9.84656c-.2125 0-.9574-.02288-1.68189-.3077l.02304-.05595c.71425.28228 1.45155.30516 1.65885.30516.425 0 1.0855-.07883 1.6666-.30007l.0205.0534c-.5837.22633-1.2544.30516-1.6871.30516z"/><path d="m11.1155 26.0001-.0717-.0102c-.11-.0178-11.0438-1.7826-11.0438-12.855v-11.01136h8.83456v.82902h-8v10.18234c0 10.0145 9.27744 11.8556 10.26304 12.0235 4.6054-.9333 7.703-3.2195 9.2058-6.8001 1.1289-2.688.8934-5.1192.8883-5.142l-.0026-.0433v-10.22044h-7.8182v-.82902h8.6553v11.03166c.0461.5748.6656 10.5485-10.839 12.8322z"/><path d="m21.5878 13.4985h-4.8358v-.7375h4.8358z"/><path clip-rule="evenodd" d="m7.02111 13.0815c0-2.2353 1.82528-4.04853 4.07549-4.04853 2.2503 0 4.0756 1.81323 4.0756 4.04853s-1.8253 4.0485-4.0756 4.0485c-2.24765 0-4.07549-1.8132-4.07549-4.0485zm7.13219 3.8069-.5735-.2365.0052.618-.5351-.3154-.0793.6129-.4864-.3865-.1639.5976-.4301-.4501-.2483.567-.3609-.5035-.3252.5264-.2867-.5493-.3942.4781-.2074-.5823-.45823.417-.12288-.6052-.512.3509-.0384-.6179-.55552.2772.04864-.618-.59136.1958.13312-.6027-.61184.1145.2176-.5799-.62208.028.29696-.5442-.61952-.0585.3712-.4984-.60672-.1424.43776-.4425-.57856-.2263.49408-.3739-.54272-.3051.54272-.3027-.49408-.3763.57856-.2264-.43776-.4399.60416-.145-.36864-.4984.61952-.0585-.29696-.5416.62208.0254-.2176-.57729.61184.11439-.13312-.60519.59136.19835-.04864-.61795.55552.27719.03072-.61288.512.35094.12288-.60778.45821.4196.2074-.58236.3942.47555.2868-.54929.3251.52895.3609-.50607.2484.5671.43-.45012.1639.59762.4864-.384.0793.61287.5351-.31279-.0051.61795.5734-.2365-.0922.61287.6016-.15512-.1766.59256.6246-.0738-.2585.562.622.0178-.3353.5214.6144.1017-.4045.4704.5939.1857-.4659.4094.5606.267-.5196.3408.5196.3408-.5606.267.4659.4094-.5939.1856.4045.4705-.6144.1017.3353.5214-.622.0152.2585.5595-.6195-.0712.1767.5925-.6016-.1526z" fill-rule="evenodd"/><path d="m10.946 18.0785-.297-.5646-.407.4909-.2125-.6027-.4736.4323-.128-.6256-.52992.3611-.0384-.6358-.576.2849.0512-.6358-.60928.2034.13824-.623-.63232.117.22528-.5976-.64256.0279.3072-.5594-.64-.0611.38144-.5137-.62464-.15.45056-.4552-.59904-.234.512-.3865-.56064-.3128.56064-.3128-.512-.3891.59904-.2339-.45056-.4552.62464-.1475-.38144-.5137.64-.0611-.3072-.562.64256.0305-.22528-.60011.63232.11698-.13824-.62305.60928.20345-.0512-.63576.576.28482.0384-.63576.52992.36111.128-.62559.4736.43232.2125-.6027.407.49335.297-.5671.3328.54421.3737-.51878.256.5849.4429-.46283.1715.61541.5018-.39925.0845.63321.5529-.32296-.0076.6383.5939-.24413-.0947.63067.622-.16021-.1817.6129.6374-.0712-.2662.5798.6425.0178-.3456.5366.6349.1042-.4198.4857.6144.1933-.4813.4222.5786.2746-.5351.3535.5351.3509-.5786.2747.4813.4221-.6144.1907.4198.4858-.6349.1042.3456.5392-.6425.0152.2662.5798-.6374-.0712.1817.6129-.622-.1602.0947.6307-.5939-.2442.0076.6383-.5529-.3229-.0845.6332-.5018-.3967-.1715.6154-.4429-.4629-.256.5849-.3737-.5213zm-.2663-.8443.2791.5315.3149-.5111.3507.4882.2381-.5493.4147.4349.1587-.5747.471.3738.0768-.5951.5197.3052-.0051-.6002.5555.2289-.0896-.5925.5837.15-.1715-.5722.599.0687-.2483-.5442.6016-.0178-.3226-.5035.594-.0992-.3917-.4552.576-.1806-.4531-.3942.5452-.2593-.5017-.3281.5017-.3306-.5452-.2568.4531-.3968-.576-.1805.3917-.4552-.594-.0992.3226-.5061-.6016-.0152.2483-.5442-.599.0686.1715-.57469-.5837.15004.0896-.59253-.5555.22888.0051-.59762-.5197.30263-.0768-.59253-.471.37128-.1613-.57472-.4147.43485-.2381-.54929-.3507.48826-.3149-.51115-.279.5315-.3815-.46284-.1996.56456-.44548-.40434-.12032.58744-.49664-.33823-.03584.59762-.5376-.26702.04608.59761-.57088-.19073.13056.58492-.59392-.10937.21248.55947-.6016-.0254.28672.5264-.59904.0559.3584.4807-.58624.1398.4224.4273-.56064.2187.47872.3636-.5248.295.5248.295-.47872.3636.56064.2187-.4224.4273.58624.1373-.3584.4806.59904.056-.28672.5264.6016-.028-.21248.5595.59392-.1094-.13056.5849.57088-.1907-.04608.5976.5376-.267.03584.5976.49664-.3408.12032.5875.44548-.4044.1996.5646zm.4199-.0254c-2.29122 0-4.15234-1.8513-4.15234-4.1274 0-2.276 1.86368-4.12731 4.15234-4.12731 2.2886 0 4.1549 1.85131 4.1549 4.12731 0 2.2761-1.8637 4.1274-4.1549 4.1274zm0-8.09959c-2.20418 0-3.99874 1.78269-3.99874 3.97219 0 2.1896 1.79456 3.9723 3.99874 3.9723 2.2041 0 3.9987-1.7827 3.9987-3.9723 0-2.1895-1.7946-3.97219-3.9987-3.97219z"/><path clip-rule="evenodd" d="m10.645 1.52593c.1612.14495.2048.45266.0921.62813-.0358.0534-.3302.33568-.6297.26447.2073-.0534.4249-.15767.4838-.38908 0 0 .0102-.25939-.105-.35603 0 0-.174-.14749-.3584-.00763-.0691.06104-.13052.16021-.0435.29245 0 0 .0563.07629.1459.05595-.0537-.0534-.0563-.14241-.0025-.19581.0537-.05087.1433-.05087.1971 0 .0307.03051.0486.07629.0461.11443.0102.13987-.128.32042-.3328.23905-.0487-.0178-.1178-.06358-.1741-.10427-.16384-.16529-.12288-.36111.02048-.51623.11522-.12207.41732-.25176.66052-.02543zm.2227 3.71537-.0128-1.03756c-.0333-.28482-.2893-.4018-.2893-.4018-.0102.04578-.0666.05595-.0666.05595-.0921.05849-.174-.07375-.1459-.14241.0794-.2187.2483-.15258.2483-.15258.1741.06866.361.42977.361.42977v-.74257h-.0896c-.0768.11444-.2355.08901-.2867 0h-.192c-.0231 0-.0691-.0356-.0691-.07629 0-.07374.0665-.08137.0665-.08137h.1997c.0666-.10172.2227-.08647.2816 0h.0896v-.15259c-.1638-.15258-.0947-.4018.0256-.47554v-.295l-.0461-.11698v-.46791c-.0409-.10935-.1843-.25176-.2125-.27465-.0358-.0356-.087.01017-.087.01017l-.0589-.12969c.0384-.00255.1331-.04578.1331-.04578.082.02035.192.12715.2304.2365v-.33313s-.0537-.02543-.0716-.066123c-.0384-.081378.064-.228874.2483-.228874.0691.350937.0102 4.491007.0102 4.491007zm.2227-.39163s-2.64704-.48063-2.3296-2.28364c.21504-1.2232 1.08288-2.306536 2.3629-2.265847 0 .241588-.0333 4.549487-.0333 4.549487z" fill-rule="evenodd"/><path clip-rule="evenodd" d="m11.0879 4.44772.1715.04578-.0077.74511h.3175v.38908h.2918v-.38908h.2944v.38145h.2867v-.38145h.3098v1.07824h-.3098v-.17801h-.2867v.17801h-.2944v-.17801h-.2918v.17801h-.3303v.27211c.0461-.0178.105-.01017.1408.02543.0487.04832.0487.12461 0 .17293-.0486.04577-.151.05849-.2176-.03815v.09918c.0512.02289.0871.08138.0845.15004 0 .06612-.0614.10172-.1536.10172zm2.217-1.91745-.2535 1.10114-1.1289 1.0401-.8269.09918v2.69816l1.9302.30516 1.5744.95873 1.2186 1.42916.6323 1.3962.2202 1.5639h4.9433v-10.59173z" fill-rule="evenodd"/></g></svg>