<svg fill="none" height="37" viewBox="0 0 96 37" width="96" xmlns="http://www.w3.org/2000/svg"><g fill="#001b3c"><path d="m28.1813 19.9902h-12.5599v-12.56955h12.5599zm0 10.4629c0 1.804-1.468 3.272-3.2722 3.272h-5.9647c-1.125 0-2.2224.3168-3.1742.916l-.1488.0937v-13.5793h12.5599zm-13.7255-10.4629h-12.55998v-12.56955h12.55998zm0 14.7446-.1488-.0937c-.9519-.5992-2.0493-.916-3.1738-.916h-5.96515c-1.80424 0-3.27223-1.468-3.27223-3.272v-9.2976h12.55998zm-13.725331-28.47925v24.19755c0 2.4469 1.990671 4.4373 4.437581 4.4373h5.96515c1.2859 0 2.495.5012 3.4039 1.4099l.5012.5015.5017-.5015c.9092-.9087 2.1183-1.4099 3.4044-1.4099h5.9647c2.4471 0 4.4381-1.9904 4.4381-4.4373v-24.19755z"/><path d="m7.33629 22.9474h-1.16536v9.1448h1.16536z"/><path d="m10.0558 22.9474h-1.16534v9.1448h1.16534z"/><path d="m12.7753 22.9474h-1.1653v9.1448h1.1653z"/><path d="m4.61535 32.0345v-9.0863h-1.16535v7.0464l.00909.0008-.00909.1407v.2493c.01667.3438.10787.8372.44689 1.2078.17734.1948.41885.3426.71846.4413z"/><path d="m18.9883 8.91508h-1.5991v9.57242h1.5991z"/><path d="m22.6919 8.91508h-1.5994v9.57242h1.5994z"/><path d="m26.3376 8.92139h-1.5994v9.56611h1.5994z"/><path d="m4.83526 10.6111.04446-.0285c.78111-.504 1.877-.4873 2.66569.0437l.04294.0288v5.9836l-.13187-.0502c-.79475-.3007-1.68601-.309-2.49087-.017l-.13035.047zm3.92754.0352.04269-.0291c.77707-.5323 1.87451-.5467 2.66641-.0346l.0445.0285v6.0074l-.1304-.047c-.794-.2882-1.70188-.2814-2.49133.017l-.13187.0502zm-2.576 6.8602c.70254 0 1.38867.1965 1.9889.5692.60074-.3727 1.28687-.5692 1.9894-.5692.8951 0 1.7631.3186 2.4444.8968l.0813.0687v-8.5293l-.2074-.17558c-.6462-.54844-1.47-.85058-2.3183-.85058-.6851 0-1.35481.19781-1.93685.57144l-.05255.03385-.05229-.03385c-.58179-.37363-1.2515-.57144-1.93661-.57144-.84831 0-1.67212.30214-2.31884.85058l-.20715.17558v8.5293l.0811-.0687c.68183-.5782 1.55009-.8968 2.44489-.8968z"/><path d="m19.9919 27.4596 1.323-1.8571v2.8486h1.1744v-2.8347l1.3033 1.8429c.2642.3848.4042.8349.4042 1.3015 0 1.2707-1.0337 2.3042-2.3044 2.3042-1.2705 0-2.3042-1.0335-2.3042-2.3042 0-.4666.1397-.9167.4037-1.3012zm1.9005 4.7801c1.9181 0 3.4788-1.5607 3.4788-3.4789 0-.7058-.2112-1.3856-.6103-1.9661l-.0387-.0564-2.82-3.9851-2.8802 4.043c-.3976.5795-.6083 1.2596-.6083 1.9646 0 1.9182 1.5607 3.4789 3.4787 3.4789z"/><path d="m4.46601 4.47805h20.81369l1.9394-4.4428938h-1.7639l-1.2383 2.8372138h-3.4039l.619-2.8372138h-1.6545l-.6189 2.8372138h-3.4776v-2.8372138h-1.6166v2.8372138h-3.4773l-.6192-2.8372138h-1.65468l.61918 2.8372138h-3.4041l-1.23837-2.8372138h-1.76331z"/><path d="m38.2656 13.9151v-2.7715h.8384v2.7091c0 .8195.2628 1.1573.9259 1.1573.6445 0 .9696-.2878.9696-1.2139v-2.6525h.8384v2.7215c0 1.1701-.6318 1.8143-1.8143 1.8143-1.1199 0-1.758-.6131-1.758-1.7643z"/><path d="m42.8262 11.1444h.9949l1.883 3.2346v-3.2346h.7569v4.4732h-.8632l-2.0144-3.4284v3.4284h-.7572z"/><path d="m47.5106 11.1444h.8382v4.4732h-.8382z"/><path d="m49.0369 11.1444h.8695l1.1639 3.6284 1.1701-3.6284h.7816l-1.514 4.4732h-.963z"/><path d="m53.6777 11.1444h2.7962v.657h-1.9641v1.226h1.5761v.6258h-1.5761v1.3073h2.0705v.6571h-2.9026z"/><path d="m58.832 13.2151c.5568 0 .8508-.2374.8508-.7131v-.025c0-.5131-.3193-.6882-.8508-.6882h-.6695v1.4263zm-1.5016-2.0707h1.5016c.9822 0 1.6703.4004 1.6703 1.3139v.025c0 .7005-.4378 1.0572-.9945 1.2009l1.257 1.9334h-.9006l-1.1699-1.8081h-.5318v1.8081h-.8321z"/><path d="m61.09 14.2278h.8008c.0566.4505.2377.8261.9946.8261.4943 0 .8447-.2753.8447-.6884 0-.413-.2061-.5694-.9319-.6881-1.0701-.144-1.5766-.4692-1.5766-1.3074 0-.7321.6255-1.2828 1.5576-1.2828.9633 0 1.539.4381 1.6264 1.295h-.7631c-.0814-.4692-.3502-.6692-.8633-.6692-.5067 0-.7694.244-.7694.5881 0 .363.15.5441.9261.6571 1.0506.1437 1.595.4438 1.595 1.3384 0 .776-.6568 1.3828-1.6455 1.3828-1.22 0-1.7328-.6068-1.7954-1.4516z"/><path d="m65.3625 11.1444h.8382v4.4732h-.8382z"/><path d="m68.1523 11.8014h-1.2452v-.657h3.3285v.657h-1.2451v3.8162h-.8382z"/><path d="m71.449 13.9035h1.32l-.6569-2.0773zm.1688-2.7591h1.0888l1.476 4.4732h-.8632l-.3567-1.1075h-1.708l-.3501 1.1075h-.7819z"/><path d="m75.32 11.8014h-1.2452v-.657h3.3283v.657h-1.2449v3.8162h-.8382z"/><path d="m38.2361 22.8272c0-2.7213 1.5006-4.6288 4.1203-4.6288.674 0 1.4877.0889 2.3016.2796v2.6831h-.0255l-1.2843-2.4668c-.1018-.2034-.1781-.2163-.407-.2544-.1781-.0255-.356-.0382-.5214-.0382-1.9455 0-2.6576 1.8313-2.6576 4.4 0 2.7978.8392 4.3875 2.7467 4.3875.14 0 .3052-.0128.4452-.0255.216-.0255.2923-.0765.3814-.2288l1.297-2.5561h.0255v2.7976c-.7758.1652-1.5895.216-2.1364.216-3.0012 0-4.2855-1.8947-4.2855-4.5652z"/><path d="m47.0225 25.5473c0 .674.4196 1.1065.9665 1.1065.4449 0 .8774-.2799 1.1441-.7377v-.0381l.0258-1.5643c-.2544-.0889-.4959-.1271-.7377-.1271-.9155 0-1.3987.6488-1.3987 1.3607zm2.1617-2.6579v-.0381c0-.9663-.4323-1.6658-1.3607-1.6658-.3178 0-.3433 0-.4196.1778l-.7758 1.6787h-.0252l-.5725-1.6532c.7121-.2923 1.4117-.4196 2.1364-.4196.7503 0 1.2465.1145 1.6151.4962.3562.3686.5722 1.0044.5722 2.0854v.1781l-.0508 2.0728c-.0126.5469.1142.8521.458.8521.2289 0 .3559-.14.4196-.3689h.0253c0 .1271-.0253.2671-.0763.3941-.1397.3689-.4833.6867-.9792.6867-.5596 0-1.0176-.4197-1.0176-1.348-.2541.8521-.8897 1.348-1.7037 1.348-.8776 0-1.6531-.5975-1.6531-1.6658 0-1.2334 1.0428-1.8566 2.0601-1.8566.4446 0 .941.1145 1.3225.3941z"/><path d="m53.774 26.4124c0 .1399 0 .2036.165.2672l1.348.5593v.0256h-3.7259v-.0256l.8647-.5085c.1402-.0763.1402-.1399.1402-.2799v-4.4252c0-.1655-.0129-.2036-.1402-.2925l-.8647-.6359v-.0255h2.2129v1.9457c.165-.8647.8264-2.0475 1.9963-2.0475.2544 0 .458.0508.6232.1528l-.6356 1.8821h-.0255l-.6361-1.4117c-.025-.0508-.0887-.0508-.1524-.0126-.5977.3428-.8905.9791-1.1699 1.564z"/><path d="m58.6296 26.4505c0 .14 0 .1781.1526.267l.8523.5214v.0256h-3.2176v-.0256l.8647-.5087c.1402-.0761.1402-.1397.1402-.2797v-7.2996c0-.1652-.0131-.2159-.1402-.2922l-.8647-.5086v-.0255l2.2127-.2544z"/><path d="m61.2877 23.4237h2.6197v-.0255c0-1.4114-.3304-2.2382-1.1699-2.2382-.8521 0-1.348.8902-1.4498 2.2637zm-.0126.216v.3562c0 1.7168.801 2.645 1.8439 2.645.8773 0 1.564-.4323 2.022-1.564l.0255.0126c-.2673 1.5261-1.1446 2.2762-2.4671 2.2762-1.3862 0-2.6453-.9537-2.6453-3.1409 0-2.4166 1.4754-3.2556 2.696-3.2556 1.221 0 2.3909.7248 2.3909 2.3401 0 .1144-.0129.2289-.0255.3304z"/><path d="m71.6128 26.4505c0 .1526.0127.2036.1526.2797l.8645.5087v.0256h-3.2169v-.0256l.8137-.5087c.1397-.089.1652-.1653.1652-.2542 0-.0892.0382-2.0346.0382-2.5563 0-1.5513-.3434-2.2125-1.0937-2.2125-.5848 0-1.0428.3813-1.3353.9408v3.8025c0 .14 0 .1781.1528.267l.8521.5214v.0256h-3.2177v-.0256l.8648-.5087c.1402-.0761.1402-.1397.1402-.2797v-4.4255c0-.1652-.0132-.2033-.1402-.2925l-.8648-.6356v-.0255h2.2128v1.5003c.3051-1.106.9665-1.6021 1.882-1.6021.8776 0 1.4625.4961 1.6658 1.5769.2926-1.0171 1.0173-1.5769 1.9841-1.5769 1.081 0 1.7292.7884 1.7292 2.5434 0 .7503-.0126 1.9202-.025 2.9375 0 .1526.0124.2036.1524.2797l.8647.5087v.0256h-3.2172v-.0256l.8137-.5087c.1397-.089.1655-.1653.1655-.2542 0-.1018.0379-2.022.0379-2.5308 0-1.5387-.3178-2.238-1.1062-2.238-.5722 0-1.0302.3178-1.3859.9029.0507.2668.0763.572.0763.9029 0 .623-.0129 1.9202-.0256 2.9375z"/><path d="m77.9562 25.5473c0 .674.4196 1.1065.9666 1.1065.4448 0 .8773-.2799 1.1443-.7377v-.0381l.0256-1.5643c-.2544-.0889-.4959-.1271-.7377-.1271-.9155 0-1.3988.6488-1.3988 1.3607zm2.162-2.6579v-.0381c0-.9663-.4323-1.6658-1.3609-1.6658-.3178 0-.3433 0-.4196.1778l-.7758 1.6787h-.0253l-.5724-1.6532c.7124-.2923 1.4116-.4196 2.1364-.4196.7503 0 1.2464.1145 1.615.4962.3562.3686.5725 1.0044.5725 2.0854v.1781l-.0511 2.0728c-.0123.5469.1145.8521.458.8521.2289 0 .356-.14.4197-.3689h.0255c0 .1271-.0255.2671-.0766.3941-.1397.3689-.483.6867-.9791.6867-.5596 0-1.0174-.4197-1.0174-1.348-.2541.8521-.8899 1.348-1.7039 1.348-.8774 0-1.6532-.5975-1.6532-1.6658 0-1.2334 1.0429-1.8566 2.0604-1.8566.4446 0 .9408.1145 1.3223.3941z"/><path d="m88.3205 26.4505c0 .1526.0126.2036.1526.2797l.8647.5087v.0256h-3.2172v-.0256l.814-.5087c.1397-.089.1649-.1653.1649-.2542 0-.0892.0384-2.0346.0384-2.5563 0-1.5513-.3435-2.2125-1.0936-2.2125-.585 0-1.0428.3813-1.3353.9408v3.8025c0 .14 0 .1781.1528.267l.8521.5214v.0256h-3.2177v-.0256l.8648-.5087c.1399-.0761.1399-.1397.1399-.2797v-4.4255c0-.1652-.0129-.2033-.1399-.2925l-.8648-.6356v-.0255h2.2128v1.5003c.3051-1.106.9665-1.6021 1.882-1.6021 1.1191 0 1.7552.7884 1.7552 2.5434 0 .623-.0131 1.9202-.0257 2.9375z"/><path d="m89.4505 30.138.4452-1.9204h.0255l.7374 1.2719c.0637.1016.0892.1524.1526.1524.0508 0 .1018-.0508.1526-.1145.3051-.3688.6103-1.0299.7758-1.4879l.1652-.4575-2.1999-5.6338c-.1018-.2415-.1526-.3178-.2417-.4322l-.3178-.4196v-.0255h2.5179v.0255l-.6104.5848c-.1018.0892-.1144.1399-.051.3052l1.5261 3.9424 1.3606-3.5481c.0763-.2036.0763-.2415-.0381-.3815l-.7629-.9028v-.0255h1.9709v.0255l-.7121.8776c-.1145.127-.1526.2031-.2415.4322l-2.162 5.6717c-.1907.4959-.3688.9155-.6358 1.3351-.3686.5851-.7885.8521-1.3225.8521-.2163 0-.3941-.0508-.5341-.1271z"/></g></svg>