<svg fill="none" height="36" viewBox="0 0 41 36" width="41" xmlns="http://www.w3.org/2000/svg" xmlns:xlink="http://www.w3.org/1999/xlink"><clipPath id="a"><path d="m0 .962891h40.7306v34.9119h-40.7306z"/></clipPath><g clip-path="url(#a)" fill="#001b3c"><path d="m16.1432 8.89453c-4.5839 0-8.29945 3.73857-8.29945 8.35087v.1093c0 4.8979 3.94095 8.8633 8.80875 8.8633 2.9224 0 5.5023-1.4283 7.1054-3.6294l-3.415-2.5455c-.693 1.3106-2.0622 2.2095-3.6403 2.2095-1.9371 0-3.5569-1.3442-3.9994-3.1505h11.5223c.0083-.0167.0083-.0252.0167-.042.0167-.084.0417-.168.05-.2521.092-.5041.1421-1.0333.1421-1.5626.0082-4.6123-3.7073-8.35087-8.2911-8.35087zm-3.0477 6.45217c.3925-1.3945 1.6617-2.4196 3.1729-2.4196 1.5113 0 2.7803 1.0251 3.1728 2.4196z"/><path d="m6.17736 8.89453h-5.630485v17.32347h5.630485z"/><path d="m3.36857 7.73851c1.8604 0 3.36855-1.51676 3.36855-3.3878s-1.50815-3.387819-3.36855-3.387819c-1.86041 0-3.36857 1.516779-3.36857 3.387819s1.50816 3.3878 3.36857 3.3878z"/><path d="m.230469 33.8162c0 1.1369.817711 1.9093 2.040601 1.9093 1.21585 0 2.03356-.7724 2.03356-1.9093v-3.2537h-.91722v3.2465c0 .6865-.44789 1.0727-1.12337 1.0727s-1.11635-.3862-1.11635-1.0655v-3.2537h-.917221z"/><path d="m5.51562 35.6396h.91718v-2.9246c0-.3004-.04985-.7867-.04985-.7867h.01431s.22744.4934.41943.7867l1.91276 2.9246h.91005v-5.0771h-.91005v2.9319c0 .3003.04976.7865.04976.7865h-.0143s-.22745-.4934-.41943-.7865l-1.91268-2.9319h-.91718z"/><path d="m10.918 35.6396h.9172v-5.0771h-.9172z"/><path d="m14.3064 35.6396h.9101l1.8416-5.0771h-.9813l-1.1162 3.3109c-.0996.2931-.1848.7437-.192.7437h-.0143c-.007 0-.0923-.4506-.192-.7437l-1.109-3.3109h-.9885z"/><path d="m17.6875 35.6396h3.1357v-.7937h-2.2185v-1.3659h1.6994v-.7936h-1.6994v-1.3301h2.1046v-.7938h-3.0218z"/><path d="m21.7812 35.6396h.9173v-1.8949h.8817l1.0024 1.8949h1.0239l-1.038-1.8949c-.0995-.1788-.1707-.2503-.1707-.2503v-.0144c.5332-.2145.8533-.7794.8533-1.3871 0-.6723-.3201-1.1586-.8249-1.3874-.2204-.1001-.4691-.143-1.0167-.143h-1.6283zm.9173-2.6959v-1.5874h.6967c.7182 0 .9244.3003.9244.7866 0 .5077-.3058.8008-.7963.8008z"/><path d="m26.0742 35.0316s.6186.6937 1.742.6937c1.0523 0 1.6638-.6793 1.6638-1.4873 0-1.6234-2.3748-1.4017-2.3748-2.3027 0-.3575.3341-.6078.7608-.6078.6328 0 1.1163.4433 1.1163.4433l.3982-.7508s-.512-.5434-1.5074-.5434c-.967 0-1.6922.6293-1.6922 1.4731 0 1.5588 2.382 1.4015 2.382 2.3097 0 .4146-.3485.6149-.7325.6149-.711 0-1.2584-.5362-1.2584-.5362z"/><path d="m30.3945 35.6396h.9173v-5.0771h-.9173z"/><path d="m33.6371 35.6396h.9172v-4.2833h1.6567v-.7938h-4.2305v.7938h1.6566z"/><path d="m38.1351 35.6396h.9172v-2.1238l1.678-2.9533h-1.038l-.7821 1.4946c-.1636.3145-.3058.6793-.3058.6793h-.0143c-.007.0072-.1421-.3648-.3057-.6793l-.7892-1.4946h-1.0382l1.6781 2.9533z"/></g></svg>