<svg width="67" height="26" viewBox="0 0 67 26" fill="none" xmlns="http://www.w3.org/2000/svg">
<g clip-path="url(#clip0_2418_7781)">
<path d="M26.3206 13.4474C26.7487 13.4474 27.078 13.2899 27.309 12.975L30.3466 7.50588C30.4454 7.34046 30.5397 7.17902 30.6307 7.02099C30.721 6.86353 30.8075 6.70209 30.8899 6.5361L30.9888 6.56111V16.853C30.9888 17.3839 31.483 17.6488 32.4708 17.6488H33.187C34.1749 17.6488 34.6691 17.3834 34.6691 16.853V0.943067C34.6691 0.413267 34.1749 0.147798 33.187 0.147798H31.9026C31.54 0.147798 31.2237 0.197254 30.9515 0.296734C30.6804 0.396213 30.4782 0.57016 30.3466 0.818575L26.1726 8.17723C26.1393 8.24374 26.102 8.31025 26.0619 8.37619C26.0201 8.4427 25.9834 8.51716 25.9506 8.60016C25.9173 8.51716 25.8766 8.4427 25.8269 8.37619C25.7772 8.31025 25.736 8.24374 25.7032 8.17723L21.6027 0.818575C21.4705 0.57016 21.2689 0.395645 20.9978 0.296734C20.7255 0.197254 20.4087 0.147798 20.0466 0.147798H18.7374C17.7495 0.147798 17.2559 0.413267 17.2559 0.943067V16.853C17.2559 17.3839 17.7495 17.6488 18.7374 17.6488H19.4541C20.442 17.6488 20.9356 17.3834 20.9356 16.853V6.56111L21.0345 6.5361C21.1169 6.70209 21.2033 6.86353 21.2937 7.02099C21.3841 7.17845 21.479 7.33989 21.5778 7.50588L24.616 12.975C24.8464 13.2899 25.1757 13.4474 25.6038 13.4474H26.3206ZM39.1153 17.6488C39.4113 17.6488 39.6587 17.6068 39.8558 17.5243C40.0535 17.4419 40.1851 17.3095 40.2512 17.127L41.239 14.0943H47.0685L48.0563 17.127C48.1224 17.3259 48.2789 17.4624 48.5257 17.5368C48.7725 17.6113 49.0769 17.6488 49.4396 17.6488H50.5263C51.3498 17.6488 51.7615 17.4664 51.7615 17.102C51.7615 16.969 51.7372 16.82 51.6875 16.654L46.2534 0.66964C46.1382 0.321746 45.6683 0.147798 44.8454 0.147798H43.561C42.7538 0.147798 42.2845 0.321746 42.1529 0.66964L36.7188 16.654C36.7019 16.737 36.6815 16.816 36.6572 16.8899C36.6324 16.9644 36.62 17.0349 36.62 17.1014C36.62 17.4658 37.1221 17.6483 38.1269 17.6483H39.1153V17.6488ZM43.7587 6.38716C43.8575 6.12226 43.9315 5.85736 43.9812 5.59132C44.0303 5.32642 44.08 5.06152 44.1292 4.79549H44.228C44.2777 5.06096 44.3302 5.32642 44.3884 5.59132C44.446 5.85679 44.5161 6.12226 44.5985 6.38716L46.0061 10.812H42.3009L43.7581 6.38716H43.7587ZM62.8765 17.7233C63.5187 17.6733 64.1524 17.5823 64.7782 17.4504C65.404 17.3174 65.931 17.1236 66.3586 16.8661C66.7867 16.6097 67.0008 16.2658 67.0008 15.8343V8.92361C67.0008 8.26136 66.6715 7.92938 66.0129 7.92938H60.9985C60.5043 7.92938 60.2575 8.34378 60.2575 9.17259V9.96843C60.2575 10.7972 60.5043 11.2116 60.9985 11.2116H63.1719V15.8104L64.2592 14.1204C63.6497 14.2694 63.1267 14.3774 62.6907 14.4433C62.2541 14.5098 61.7723 14.5428 61.2453 14.5428C60.537 14.5428 59.9197 14.4228 59.3927 14.1824C58.8652 13.9425 58.4252 13.5861 58.0711 13.1131C57.7164 12.6407 57.4531 12.0484 57.2803 11.3356C57.1075 10.6233 57.0211 9.80301 57.0211 8.87472C57.0211 7.63151 57.173 6.59635 57.478 5.76755C57.7824 4.93874 58.2518 4.31742 58.8861 3.90301C59.5198 3.48918 60.3224 3.28169 61.2944 3.28169C62.0852 3.28169 62.7392 3.34763 63.2583 3.48065C63.7768 3.6131 64.1801 3.74612 64.4687 3.878C64.7562 4.01102 64.9499 4.07696 65.0488 4.07696C65.2623 4.07696 65.4939 3.932 65.7401 3.64209C65.9869 3.35218 66.201 3.0202 66.3823 2.64786C66.563 2.27496 66.654 1.97254 66.654 1.74004C66.654 1.47514 66.4845 1.23923 66.1473 1.03175C65.8101 0.824828 65.3696 0.642923 64.8262 0.484892C64.2829 0.32743 63.7062 0.207486 63.0973 0.124492C62.4879 0.0420657 61.9112 0 61.3684 0C58.6347 0 56.5766 0.733307 55.1933 2.20049C53.8101 3.6671 53.1182 5.88408 53.1182 8.85028C53.1182 11.8165 53.7813 14.175 55.1069 15.6246C56.432 17.0747 58.4788 17.8 61.2447 17.8C61.6893 17.8 62.2326 17.775 62.8754 17.7256" fill="#001B3C"/>
<path d="M12.5237 16.2191C13.7838 15.1669 14.4136 13.6872 14.4136 11.7812V0.941345C14.4136 0.411545 13.9194 0.145508 12.9315 0.145508H12.1165C11.1286 0.145508 10.6344 0.410976 10.6344 0.941345V11.5328C10.6344 12.1132 10.4904 12.6311 10.2023 13.0864C9.91371 13.5429 9.51834 13.8987 9.01622 14.1557C8.51354 14.4126 7.925 14.5411 7.25005 14.5411C6.57509 14.5411 6.00632 14.4126 5.4963 14.1557C4.9857 13.8987 4.59033 13.5429 4.31019 13.0864C4.03004 12.6311 3.89053 12.1132 3.89053 11.5328V0.941345C3.89053 0.411545 3.39632 0.145508 2.40846 0.145508H1.56858C0.58015 0.145508 0.0859375 0.411545 0.0859375 0.941345V11.7812C0.0859375 13.6872 0.715706 15.1669 1.97581 16.2191C3.23534 17.2719 4.99361 17.7977 7.24948 17.7977C9.50535 17.7977 11.2636 17.2719 12.5237 16.2191Z" fill="#001B3C"/>
<path d="M66.3545 24.7629C66.5104 24.6828 66.6318 24.5725 66.721 24.4327C66.8091 24.2928 66.8538 24.1314 66.8538 23.9495C66.8538 23.7966 66.8227 23.6709 66.7611 23.5726C66.6996 23.4742 66.6216 23.3958 66.5279 23.3378C66.4335 23.2793 66.3358 23.2287 66.2347 23.1849C66.1511 23.1485 66.0698 23.1133 65.9907 23.0786C65.9111 23.0439 65.8456 22.9996 65.7953 22.945C65.7445 22.8904 65.7196 22.8211 65.7196 22.7375C65.7196 22.6358 65.762 22.5562 65.8473 22.4999C65.932 22.4436 66.0472 22.4152 66.1918 22.4152C66.3364 22.4152 66.4499 22.4362 66.52 22.4783C66.5906 22.5204 66.6403 22.5408 66.6691 22.5408C66.6945 22.5408 66.7244 22.5221 66.7589 22.4834C66.7933 22.4453 66.8233 22.4016 66.8487 22.3521C66.8735 22.3032 66.8865 22.2623 66.8865 22.2293C66.8865 22.1782 66.8634 22.1355 66.8159 22.1008C66.769 22.0662 66.708 22.0378 66.634 22.0161C66.5601 21.994 66.481 21.9775 66.3979 21.9667C66.3144 21.9559 66.2387 21.9502 66.1698 21.9502C65.9851 21.9502 65.8168 21.9843 65.6654 22.0514C65.5135 22.119 65.392 22.2162 65.3016 22.3436C65.2113 22.4709 65.1661 22.6278 65.1661 22.8137C65.1661 22.9592 65.1972 23.0826 65.2587 23.1821C65.3203 23.2821 65.4005 23.3651 65.5005 23.4305C65.5999 23.4964 65.7021 23.551 65.8072 23.5942C65.8902 23.6237 65.9681 23.6561 66.0404 23.6925C66.1127 23.7289 66.1715 23.7727 66.2166 23.8238C66.2618 23.8744 66.2844 23.9461 66.2844 24.037C66.2844 24.157 66.2358 24.2507 66.1376 24.3178C66.0399 24.3855 65.915 24.419 65.7631 24.419C65.6439 24.419 65.5417 24.4037 65.4564 24.3724C65.3711 24.3417 65.3028 24.3104 65.2497 24.2797C65.1977 24.2485 65.1582 24.2331 65.1333 24.2331C65.104 24.2331 65.0808 24.2621 65.0627 24.3201C65.0447 24.3786 65.0356 24.4514 65.0356 24.5384C65.0356 24.5856 65.0571 24.6305 65.1011 24.672C65.1446 24.714 65.2022 24.7504 65.2745 24.7811C65.3468 24.8124 65.4293 24.8368 65.5214 24.855C65.614 24.8732 65.7066 24.8823 65.8009 24.8823C66.0144 24.8823 66.1986 24.8425 66.3545 24.7624M63.8461 22.5062C63.9258 22.5681 63.9659 22.6523 63.9659 22.7574C63.9659 22.8489 63.9421 22.924 63.8953 22.9842C63.8484 23.0445 63.7879 23.0922 63.7134 23.1286C63.6394 23.165 63.5598 23.1929 63.4745 23.2105C63.3898 23.2287 63.3084 23.2417 63.2305 23.2491C63.1531 23.2565 63.087 23.2599 63.0328 23.2599H62.6854C62.725 23.0013 62.8176 22.7955 62.9622 22.6426C63.1068 22.4897 63.2949 22.4135 63.5264 22.4135C63.6603 22.4135 63.767 22.4442 63.8467 22.5062M62.7425 22.173C62.5239 22.3225 62.359 22.53 62.2488 22.7955C62.1381 23.0615 62.0833 23.3725 62.0833 23.7295C62.0833 23.9552 62.1178 24.1427 62.1861 24.2922C62.255 24.4417 62.3477 24.5594 62.4657 24.6447C62.5832 24.7305 62.7159 24.7913 62.8645 24.8277C63.013 24.8641 63.1666 24.8823 63.3259 24.8823C63.3909 24.8823 63.4705 24.876 63.5648 24.8635C63.6592 24.8505 63.7546 24.8306 63.8523 24.8033C63.95 24.776 64.0342 24.7396 64.1048 24.6941C64.1754 24.6487 64.2178 24.5913 64.2325 24.5225C64.2432 24.4679 64.2511 24.4105 64.2567 24.3502C64.2624 24.29 64.2652 24.249 64.2652 24.2274C64.2652 24.1911 64.2613 24.17 64.2545 24.1643C64.2477 24.1587 64.2381 24.1558 64.2274 24.1558C64.202 24.1558 64.1534 24.1768 64.0811 24.2189C64.0088 24.261 63.9133 24.3047 63.7958 24.3502C63.6784 24.3957 63.5417 24.4184 63.3864 24.4184C63.231 24.4184 63.1096 24.3963 63.0012 24.3525C62.8927 24.3087 62.8074 24.2326 62.7459 24.1234C62.6843 24.0143 62.6538 23.8648 62.6538 23.6755V23.4191L62.5341 23.6323C62.6097 23.6505 62.6956 23.6658 62.7922 23.6783C62.8882 23.6914 63.0085 23.6971 63.1531 23.6971C63.3231 23.6971 63.4897 23.68 63.6524 23.6453C63.815 23.6107 63.9625 23.5555 64.0946 23.4788C64.2268 23.4026 64.333 23.2997 64.4121 23.1701C64.4917 23.0411 64.5318 22.883 64.5318 22.6977C64.5318 22.6284 64.5165 22.5516 64.4855 22.4658C64.4544 22.3805 64.403 22.2987 64.3307 22.2202C64.2584 22.1423 64.159 22.0775 64.0319 22.0264C63.9054 21.9758 63.7461 21.9502 63.5547 21.9502C63.2327 21.9502 62.9622 22.0247 62.743 22.1742M61.4152 24.8368C61.4982 24.8061 61.5473 24.7504 61.5614 24.6703C61.5761 24.5975 61.584 24.5418 61.5857 24.5037C61.5874 24.4651 61.5886 24.4423 61.5886 24.4355C61.5886 24.4025 61.5778 24.3866 61.5558 24.3866C61.5411 24.3866 61.5179 24.3929 61.4852 24.4054C61.4524 24.4184 61.4129 24.4241 61.3654 24.4241C61.3112 24.4241 61.2711 24.4054 61.2463 24.3673C61.2209 24.3286 61.2118 24.2718 61.2192 24.195L61.3604 22.7694C61.3852 22.4999 61.3383 22.2958 61.2192 22.1571C61.0994 22.019 60.9119 21.9496 60.6549 21.9496C60.5284 21.9496 60.4007 21.9752 60.272 22.0258C60.1438 22.077 60.024 22.1526 59.9139 22.2526C59.8037 22.3527 59.7049 22.4772 59.6179 22.6267L59.6942 22.758C59.7015 22.7216 59.7089 22.6704 59.7156 22.6051C59.723 22.5391 59.7264 22.4738 59.7264 22.4084C59.7264 22.3135 59.7156 22.2265 59.6942 22.1463C59.6721 22.0662 59.6326 22.0258 59.5744 22.0258C59.5309 22.0258 59.4773 22.0298 59.4146 22.0366C59.3513 22.044 59.2954 22.0582 59.2463 22.0804C59.1977 22.102 59.1728 22.1333 59.1728 22.1736C59.1728 22.1952 59.1745 22.2208 59.1785 22.2498C59.1819 22.2788 59.1841 22.326 59.1841 22.3919C59.1841 22.4465 59.1791 22.5334 59.1706 22.654C59.1615 22.7745 59.1497 22.8978 59.135 23.0252L58.956 24.7186C58.9526 24.755 58.9695 24.7868 59.0073 24.8141C59.0458 24.8414 59.1062 24.855 59.1892 24.855H59.2491C59.4157 24.855 59.5021 24.8095 59.51 24.7186L59.6727 23.1508C59.7382 22.9649 59.8139 22.8205 59.9009 22.7165C59.9879 22.6125 60.0771 22.5386 60.1697 22.4954C60.2624 22.4516 60.346 22.4294 60.4222 22.4294C60.5527 22.4294 60.651 22.4635 60.7182 22.5306C60.7848 22.5982 60.8114 22.708 60.7967 22.8609L60.6662 24.1882C60.6414 24.4469 60.6798 24.6271 60.7831 24.7288C60.8859 24.8306 61.0232 24.8817 61.1932 24.8817C61.2581 24.8817 61.3321 24.8664 61.4157 24.8351M56.6577 24.3354C56.5837 24.2883 56.5256 24.2098 56.4843 24.1001C56.4425 23.991 56.4216 23.8454 56.4216 23.6635C56.4216 23.4413 56.4499 23.2355 56.5058 23.0462C56.5617 22.8569 56.6459 22.7051 56.7583 22.5903C56.8701 22.476 57.0113 22.4186 57.1813 22.4186C57.3186 22.4186 57.4326 22.4414 57.523 22.4868C57.6134 22.5323 57.6823 22.5755 57.7292 22.6153C57.7218 22.6625 57.7145 22.7108 57.7077 22.7603C57.7009 22.8097 57.693 22.8688 57.6862 22.9376L57.6049 23.659C57.5434 23.8449 57.4722 23.9921 57.3903 24.1012C57.309 24.2104 57.2265 24.2888 57.1435 24.3366C57.0604 24.3838 56.9825 24.4076 56.9102 24.4076C56.8159 24.4076 56.7317 24.3843 56.6577 24.3366M57.1977 24.7516C57.3389 24.6646 57.4603 24.5276 57.5614 24.3417C57.5722 24.5168 57.619 24.6504 57.7021 24.7436C57.7857 24.8363 57.9139 24.8823 58.0873 24.8823C58.1528 24.8823 58.2262 24.867 58.3098 24.8357C58.3928 24.805 58.442 24.7493 58.4561 24.6691C58.4708 24.5964 58.4787 24.5407 58.4804 24.5026C58.4826 24.4639 58.4832 24.4412 58.4832 24.4344C58.4832 24.4014 58.4725 24.3855 58.451 24.3855C58.4363 24.3855 58.4126 24.3917 58.3804 24.4042C58.3476 24.4173 58.3081 24.423 58.2612 24.423C58.207 24.423 58.1669 24.4042 58.1415 24.3661C58.1161 24.3275 58.107 24.2706 58.1144 24.1939L58.3205 22.1458C58.3279 22.0838 58.3171 22.04 58.2883 22.0144C58.259 21.9889 58.2104 21.9758 58.1415 21.9758H58.098C58.0364 21.9758 57.9884 21.9866 57.954 22.0088C57.9195 22.0304 57.8935 22.0616 57.8755 22.1014C57.8574 22.1418 57.8393 22.189 57.8212 22.2435C57.7631 22.189 57.6772 22.127 57.5637 22.0576C57.4496 21.9883 57.3095 21.9542 57.1429 21.9542C56.8825 21.9542 56.6543 22.0281 56.4595 22.1753C56.264 22.3225 56.1127 22.5283 56.0065 22.7927C55.8997 23.057 55.8466 23.3594 55.8466 23.7022C55.8466 23.9245 55.8738 24.112 55.928 24.265C55.9822 24.4179 56.0545 24.539 56.1449 24.6282C56.2358 24.7174 56.333 24.7823 56.438 24.822C56.5431 24.8618 56.6459 24.8817 56.747 24.8817C56.9062 24.8817 57.0559 24.838 57.1971 24.7504M55.1446 24.8351C55.2276 24.8044 55.2784 24.7487 55.2965 24.6686C55.3072 24.5958 55.3135 24.5401 55.3157 24.502C55.3174 24.4633 55.3185 24.4406 55.3185 24.4338C55.3185 24.4008 55.3078 24.3849 55.2858 24.3849C55.2711 24.3849 55.2474 24.3912 55.2152 24.4037C55.183 24.4167 55.1429 24.4224 55.096 24.4224C55.0418 24.4224 55.0017 24.4037 54.9763 24.3656C54.9514 24.3269 54.9418 24.2701 54.9492 24.1933L55.2914 20.8616C55.2988 20.8178 55.2841 20.7854 55.2479 20.7633C55.2118 20.7411 55.1536 20.7303 55.0745 20.7303H54.9819C54.9023 20.7303 54.8435 20.7411 54.8057 20.7633C54.7673 20.7849 54.7447 20.8178 54.7379 20.8616L54.4018 24.1388C54.3804 24.4008 54.4137 24.5901 54.5024 24.7066C54.5911 24.8232 54.7328 24.8812 54.9283 24.8812C54.9898 24.8812 55.0621 24.8658 55.1451 24.8346M53.4236 24.8346C53.5066 24.8039 53.5574 24.7481 53.5755 24.668C53.5863 24.5952 53.5925 24.5395 53.5942 24.5014C53.5964 24.4628 53.597 24.44 53.597 24.4332C53.597 24.4003 53.5863 24.3843 53.5642 24.3843C53.5495 24.3843 53.5264 24.3906 53.4936 24.4031C53.4609 24.4162 53.4213 24.4219 53.3745 24.4219C53.3202 24.4219 53.2801 24.4031 53.2547 24.365C53.2293 24.3264 53.2203 24.2695 53.2276 24.1928L53.5693 20.861C53.5767 20.8173 53.562 20.7849 53.5258 20.7627C53.4897 20.7411 53.4315 20.7297 53.3519 20.7297H53.2598C53.1802 20.7297 53.1214 20.7405 53.083 20.7627C53.0452 20.7843 53.0226 20.8173 53.0152 20.861L52.6786 24.1382C52.6571 24.4003 52.6905 24.5895 52.7791 24.7061C52.8678 24.8226 53.0096 24.8806 53.205 24.8806C53.2666 24.8806 53.3389 24.8652 53.4219 24.834M50.2538 24.3343C50.1799 24.2871 50.1217 24.2087 50.0805 24.099C50.0387 23.9898 50.0178 23.8443 50.0178 23.6624C50.0178 23.4401 50.046 23.2343 50.1019 23.0451C50.1578 22.8558 50.242 22.704 50.3544 22.5892C50.4662 22.4749 50.6074 22.4175 50.7774 22.4175C50.9147 22.4175 51.0288 22.4402 51.1191 22.4857C51.2095 22.5312 51.2784 22.5744 51.3253 22.6142C51.318 22.6613 51.3106 22.7097 51.3038 22.7591C51.2965 22.808 51.2892 22.8677 51.2824 22.9365L51.201 23.6578C51.1395 23.8437 51.0683 23.991 50.9864 24.1001C50.9051 24.2092 50.8226 24.2877 50.7396 24.3354C50.6566 24.3826 50.5786 24.4065 50.5063 24.4065C50.412 24.4065 50.3278 24.3832 50.2538 24.3354M50.7938 24.7504C50.935 24.6634 51.0564 24.5264 51.1576 24.3406C51.1683 24.5156 51.2152 24.6492 51.2982 24.7425C51.3812 24.8351 51.51 24.8812 51.6834 24.8812C51.7489 24.8812 51.8223 24.8658 51.9059 24.8346C51.989 24.8039 52.0381 24.7481 52.0522 24.668C52.0669 24.5952 52.0748 24.5395 52.0765 24.5014C52.0782 24.4628 52.0793 24.44 52.0793 24.4332C52.0793 24.4003 52.0686 24.3843 52.0466 24.3843C52.0319 24.3843 52.0087 24.3906 51.976 24.4031C51.9432 24.4162 51.9037 24.4219 51.8568 24.4219C51.8026 24.4219 51.7625 24.4031 51.7371 24.365C51.7116 24.3264 51.7026 24.2695 51.7099 24.1928L51.9161 22.1446C51.9234 22.0827 51.9127 22.0389 51.8833 22.0133C51.8545 21.9877 51.806 21.9747 51.7371 21.9747H51.6936C51.632 21.9747 51.584 21.9855 51.5495 22.0076C51.5151 22.0292 51.4885 22.0605 51.471 22.1003C51.4529 22.1406 51.4349 22.1878 51.4168 22.2424C51.3586 22.1878 51.2728 22.1259 51.1587 22.0565C51.0452 21.9872 50.9045 21.9531 50.7385 21.9531C50.4781 21.9531 50.2499 22.0269 50.055 22.1742C49.8596 22.3214 49.7082 22.5272 49.6021 22.7915C49.4953 23.0559 49.4416 23.3583 49.4416 23.7011C49.4416 23.9233 49.4688 24.1109 49.523 24.2638C49.5772 24.4167 49.6495 24.5378 49.7399 24.6271C49.8302 24.7163 49.928 24.7811 50.033 24.8209C50.1381 24.8607 50.2414 24.8806 50.3425 24.8806C50.5018 24.8806 50.6515 24.8368 50.7927 24.7493M47.2151 24.2934C47.1355 24.2479 47.0734 24.1734 47.0282 24.0694C46.983 23.966 46.9604 23.8261 46.9604 23.6516C46.9604 23.4879 46.9751 23.331 47.0039 23.1815C47.0327 23.0325 47.079 22.9012 47.1423 22.7881C47.2055 22.6756 47.2914 22.5852 47.3998 22.5175C47.5083 22.4499 47.6421 22.4163 47.8014 22.4163C47.9246 22.4163 48.0296 22.4379 48.1166 22.4817C48.203 22.5255 48.2742 22.5676 48.3284 22.6073C48.3177 22.6579 48.3086 22.7108 48.3013 22.7659C48.2939 22.8205 48.2866 22.8785 48.2793 22.9405L48.2087 23.6073C48.1431 23.7966 48.0691 23.9455 47.9861 24.0552C47.9031 24.1649 47.8184 24.2428 47.7314 24.29C47.6444 24.3372 47.5631 24.361 47.4874 24.361C47.3863 24.361 47.2959 24.3383 47.2163 24.2928M48.0279 25.8384C48.2109 25.731 48.3572 25.5536 48.4673 25.3058C48.578 25.058 48.6526 24.7265 48.6927 24.3116L48.9209 22.094C48.9209 22.0576 48.9073 22.0281 48.8802 22.0065C48.8531 21.9849 48.8051 21.9735 48.7362 21.9735H48.6927C48.6311 21.9735 48.5843 21.9843 48.5515 22.0065C48.5193 22.0281 48.4939 22.0582 48.4758 22.0969C48.4577 22.135 48.438 22.1833 48.4159 22.2413C48.3583 22.1833 48.2697 22.119 48.1499 22.0503C48.0307 21.9809 47.8878 21.9468 47.7212 21.9468C47.4535 21.9468 47.2202 22.0213 47.0209 22.1708C46.822 22.3203 46.6673 22.5261 46.5571 22.7881C46.4464 23.0502 46.3916 23.3509 46.3916 23.6897C46.3916 23.908 46.4205 24.091 46.4786 24.2382C46.5362 24.386 46.6114 24.5031 46.7034 24.5907C46.7961 24.6782 46.896 24.7413 47.0045 24.7788C47.1129 24.8175 47.2197 24.8363 47.3247 24.8363C47.5094 24.8363 47.6823 24.78 47.8432 24.6669C48.0042 24.5543 48.1335 24.3792 48.2313 24.1427L48.1606 24.0444L48.1392 24.3229C48.1064 24.7527 48.0223 25.0619 47.8867 25.2518C47.7512 25.4411 47.5569 25.5355 47.3033 25.5355C47.1293 25.5355 46.9864 25.5127 46.8746 25.4672C46.7622 25.4218 46.6746 25.3757 46.6114 25.3308C46.5475 25.2853 46.5057 25.2626 46.4837 25.2626C46.4656 25.2626 46.4464 25.2836 46.4267 25.3257C46.4069 25.3678 46.3973 25.4627 46.3973 25.6122C46.3973 25.6742 46.4391 25.7344 46.5221 25.7924C46.6051 25.8504 46.7181 25.8998 46.861 25.9396C47.0039 25.98 47.1677 25.9999 47.3524 25.9999C47.6201 25.9999 47.8455 25.9459 48.0279 25.839M44.1138 24.3343C44.0398 24.2871 43.9816 24.2087 43.9404 24.099C43.8986 23.9898 43.8777 23.8443 43.8777 23.6624C43.8777 23.4401 43.9053 23.2343 43.9618 23.0451C44.0177 22.8558 44.1019 22.704 44.2137 22.5892C44.3261 22.4749 44.4673 22.4175 44.6373 22.4175C44.7746 22.4175 44.8887 22.4402 44.979 22.4857C45.0694 22.5312 45.1383 22.5744 45.1852 22.6142C45.1779 22.6613 45.1705 22.7097 45.1637 22.7591C45.157 22.8086 45.1491 22.8677 45.1423 22.9365L45.0609 23.6578C44.9994 23.8437 44.9282 23.991 44.8463 24.1001C44.765 24.2092 44.6825 24.2877 44.5995 24.3354C44.5165 24.3826 44.4385 24.4065 44.3662 24.4065C44.2719 24.4065 44.1877 24.3832 44.1138 24.3354M44.6537 24.7504C44.7949 24.6634 44.9164 24.5264 45.0175 24.3406C45.0282 24.5156 45.0751 24.6492 45.1581 24.7425C45.2411 24.8351 45.3699 24.8812 45.5433 24.8812C45.6083 24.8812 45.6822 24.8658 45.7658 24.8346C45.8489 24.8039 45.898 24.7481 45.9121 24.668C45.9268 24.5952 45.9347 24.5395 45.9364 24.5014C45.9381 24.4628 45.9392 24.44 45.9392 24.4332C45.9392 24.4003 45.9285 24.3843 45.9065 24.3843C45.8918 24.3843 45.8686 24.3906 45.8359 24.4031C45.8031 24.4162 45.7636 24.4219 45.7161 24.4219C45.6619 24.4219 45.6218 24.4031 45.597 24.365C45.5715 24.3264 45.5625 24.2695 45.5698 24.1928L45.776 22.1446C45.7833 22.0827 45.7726 22.0389 45.7432 22.0133C45.7144 21.9877 45.6659 21.9747 45.597 21.9747H45.5535C45.4919 21.9747 45.4445 21.9855 45.41 22.0076C45.3755 22.0292 45.349 22.0605 45.3315 22.1003C45.3134 22.1406 45.2953 22.1878 45.2773 22.2424C45.2191 22.1878 45.1332 22.1259 45.0191 22.0565C44.9056 21.9872 44.765 21.9531 44.5989 21.9531C44.3385 21.9531 44.1104 22.0269 43.9155 22.1742C43.7201 22.3214 43.5687 22.5272 43.462 22.7915C43.3552 23.0559 43.3021 23.3583 43.3021 23.7011C43.3021 23.9233 43.3292 24.1109 43.3834 24.2638C43.4377 24.4167 43.51 24.5378 43.6003 24.6271C43.6907 24.7163 43.7884 24.7811 43.8935 24.8209C43.9985 24.8607 44.1019 24.8806 44.203 24.8806C44.3623 24.8806 44.5119 24.8368 44.6531 24.7493M39.057 24.8527C39.2236 24.8527 39.31 24.8073 39.3179 24.7163L39.5676 22.2907C39.5749 22.2253 39.58 22.1588 39.5839 22.0918C39.5873 22.0241 39.5873 21.9724 39.5839 21.936L39.6054 21.9252C39.6235 21.969 39.6455 22.0173 39.6704 22.0702C39.6958 22.1225 39.7155 22.1674 39.7302 22.2037L40.4357 23.7272C40.4645 23.7892 40.5114 23.8204 40.5769 23.8204H40.7774C40.8463 23.8204 40.8988 23.7931 40.935 23.7386L41.9821 22.1816C42.0036 22.1452 42.0273 22.1077 42.0527 22.0702C42.0776 22.0315 42.0996 21.9945 42.1177 21.9582L42.1341 21.9633C42.1301 22.0071 42.1256 22.0531 42.1205 22.0997C42.1149 22.1469 42.1087 22.1929 42.1019 22.2361L41.8466 24.7106C41.8432 24.7544 41.8584 24.7885 41.8929 24.8141C41.9274 24.8397 41.9895 24.8522 42.0799 24.8522H42.1505C42.3165 24.8522 42.4035 24.8067 42.4108 24.7157L42.7853 21.1436C42.7853 21.0964 42.7684 21.0617 42.7339 21.0401C42.6995 21.0179 42.6368 21.0071 42.547 21.0071H42.3301C42.2612 21.0071 42.2052 21.0174 42.1623 21.0373C42.1188 21.0572 42.0861 21.0856 42.0646 21.122L40.9033 22.8586C40.8785 22.899 40.8503 22.9461 40.8198 23.0007C40.7887 23.0553 40.7644 23.1042 40.7463 23.1485C40.7356 23.0974 40.7203 23.0422 40.7 22.982C40.6802 22.9217 40.661 22.8734 40.643 22.837L39.8505 21.122C39.8325 21.0856 39.8025 21.0572 39.7607 21.0373C39.7189 21.0174 39.6636 21.0071 39.5952 21.0071H39.3834C39.2174 21.0071 39.1304 21.0526 39.123 21.1436L38.7542 24.7101C38.7503 24.7538 38.7661 24.7879 38.8005 24.8135C38.835 24.8391 38.8977 24.8516 38.9875 24.8516H39.0581L39.057 24.8527ZM35.9725 22.5039C36.0522 22.5658 36.0917 22.65 36.0917 22.7551C36.0917 22.8467 36.068 22.9217 36.0211 22.982C35.9742 23.0422 35.9132 23.09 35.8392 23.1263C35.7652 23.1627 35.6856 23.1906 35.6003 23.2082C35.5156 23.2264 35.4342 23.2395 35.3563 23.2469C35.2789 23.2542 35.2128 23.2577 35.1586 23.2577H34.8113C34.8514 22.999 34.9434 22.7932 35.088 22.6403C35.2332 22.4874 35.4207 22.4112 35.6523 22.4112C35.7861 22.4112 35.8929 22.4419 35.9725 22.5039ZM34.8683 22.1708C34.6492 22.3203 34.4848 22.5278 34.3741 22.7932C34.2634 23.0587 34.2086 23.3702 34.2086 23.7272C34.2086 23.9529 34.243 24.1405 34.3114 24.29C34.3803 24.4395 34.4735 24.5571 34.591 24.6424C34.7085 24.7282 34.8412 24.7891 34.9897 24.8255C35.1383 24.8618 35.2919 24.88 35.4512 24.88C35.5161 24.88 35.5958 24.8738 35.6901 24.8613C35.7844 24.8488 35.8799 24.8283 35.9776 24.801C36.0753 24.7737 36.1595 24.7373 36.2301 24.6919C36.3007 24.6464 36.343 24.589 36.3577 24.5202C36.3685 24.4656 36.3764 24.4082 36.382 24.348C36.3877 24.2877 36.3905 24.2468 36.3905 24.2252C36.3905 24.1888 36.3865 24.1678 36.3797 24.1621C36.3724 24.1564 36.3634 24.1535 36.3526 24.1535C36.3278 24.1535 36.2786 24.1746 36.2063 24.2166C36.1341 24.2587 36.0392 24.3025 35.9211 24.348C35.8036 24.3934 35.6669 24.4162 35.5116 24.4162C35.3563 24.4162 35.2349 24.394 35.1264 24.3502C35.018 24.3065 34.9333 24.2303 34.8717 24.1211C34.8101 24.012 34.7791 23.8625 34.7791 23.6732V23.4168L34.6593 23.63C34.7356 23.6482 34.8214 23.6635 34.9174 23.676C35.0135 23.6891 35.1338 23.6948 35.2784 23.6948C35.4484 23.6948 35.615 23.6777 35.7777 23.6431C35.9403 23.6084 36.0877 23.5533 36.2199 23.4765C36.3521 23.4003 36.4577 23.2974 36.5373 23.1678C36.617 23.0388 36.6571 22.8808 36.6571 22.6955C36.6571 22.6261 36.6418 22.5494 36.6108 22.4635C36.5797 22.3783 36.5283 22.2964 36.456 22.218C36.3837 22.1401 36.2837 22.0753 36.1572 22.0241C36.0307 21.9735 35.8714 21.9479 35.6794 21.9479C35.3574 21.9479 35.0869 22.0224 34.8683 22.1719M31.733 24.2394C31.6319 24.1285 31.5811 23.9347 31.5811 23.6578C31.5811 23.4941 31.5958 23.3361 31.6246 23.1855C31.6534 23.0348 31.7003 22.9024 31.7658 22.7898C31.8313 22.6773 31.9188 22.5869 32.029 22.5192C32.1391 22.4516 32.2758 22.418 32.439 22.418C32.5763 22.418 32.6892 22.4385 32.7779 22.4806C32.8666 22.5226 32.9361 22.5636 32.9869 22.6039L32.8785 23.6635C32.8135 23.8494 32.7395 23.9961 32.6559 24.1029C32.5723 24.2104 32.4887 24.2877 32.4035 24.3354C32.3187 24.3826 32.238 24.4065 32.1617 24.4065C31.977 24.4065 31.8341 24.3514 31.733 24.2399M32.4628 24.7504C32.609 24.6634 32.7333 24.5264 32.8344 24.3406C32.8451 24.5191 32.892 24.6538 32.9756 24.7453C33.0586 24.8363 33.1874 24.8817 33.3608 24.8817C33.4263 24.8817 33.5003 24.8664 33.5834 24.8351C33.6664 24.8044 33.7155 24.7487 33.7302 24.6686C33.7449 24.5958 33.7528 24.5401 33.7545 24.502C33.7562 24.4633 33.7573 24.4406 33.7573 24.4338C33.7573 24.4008 33.7449 24.3849 33.7189 24.3849C33.7082 24.3849 33.6861 24.3912 33.6539 24.4037C33.6212 24.4167 33.5817 24.4224 33.5342 24.4224C33.476 24.4224 33.4354 24.4037 33.4122 24.3656C33.3885 24.3269 33.38 24.2701 33.3874 24.1933L33.7296 20.8889C33.737 20.8383 33.7212 20.7991 33.6833 20.7718C33.6455 20.7445 33.5811 20.7309 33.4907 20.7309H33.4308C33.2682 20.7309 33.1812 20.7763 33.1705 20.8673L33.0293 22.189C32.9604 22.1344 32.8711 22.081 32.7604 22.0281C32.6497 21.9758 32.5079 21.9491 32.3345 21.9491C32.0668 21.9491 31.8336 22.0235 31.6342 22.173C31.4348 22.3225 31.2806 22.5283 31.1699 22.7904C31.0598 23.0524 31.0044 23.3549 31.0044 23.6971C31.0044 23.9227 31.0343 24.112 31.0942 24.265C31.1541 24.4179 31.2332 24.539 31.3331 24.6282C31.4325 24.7174 31.5415 24.7823 31.659 24.822C31.7765 24.8618 31.8895 24.8817 31.9979 24.8817C32.1606 24.8817 32.3153 24.838 32.4622 24.7504M27.1439 24.2399C27.0428 24.1291 26.992 23.9353 26.992 23.6584C26.992 23.4947 27.0066 23.3367 27.0355 23.186C27.0648 23.0348 27.1117 22.9029 27.1767 22.7904C27.2422 22.6778 27.3297 22.5874 27.4399 22.5198C27.5506 22.4522 27.6867 22.4186 27.8499 22.4186C27.9872 22.4186 28.1001 22.4391 28.1888 22.4811C28.2775 22.5232 28.347 22.5641 28.3978 22.6045L28.2893 23.6641C28.2238 23.85 28.1498 23.9966 28.0668 24.1035C27.9838 24.211 27.8996 24.2883 27.8143 24.336C27.7296 24.3832 27.6488 24.4071 27.5726 24.4071C27.3879 24.4071 27.245 24.3519 27.1439 24.2405M27.8736 24.751C28.0205 24.664 28.1442 24.527 28.2453 24.3411C28.256 24.5196 28.3035 24.6544 28.3865 24.7459C28.4695 24.8368 28.5983 24.8823 28.7717 24.8823C28.8366 24.8823 28.9106 24.867 28.9942 24.8357C29.0778 24.805 29.1264 24.7493 29.1411 24.6691C29.1558 24.5964 29.1637 24.5407 29.1654 24.5026C29.1671 24.4639 29.1682 24.4412 29.1682 24.4344C29.1682 24.4014 29.1552 24.3855 29.1298 24.3855C29.1191 24.3855 29.0976 24.3917 29.0648 24.4042C29.0321 24.4173 28.9925 24.423 28.9451 24.423C28.8875 24.423 28.8462 24.4042 28.8231 24.3661C28.7994 24.3275 28.7915 24.2706 28.7988 24.1939L29.1405 20.8895C29.1479 20.8389 29.132 20.7997 29.0942 20.7724C29.0558 20.7451 28.992 20.7314 28.9016 20.7314H28.8417C28.6791 20.7314 28.5921 20.7769 28.5814 20.8679L28.4401 22.1895C28.3712 22.135 28.282 22.0815 28.1713 22.0287C28.0612 21.9764 27.9188 21.9496 27.7454 21.9496C27.4777 21.9496 27.2444 22.0241 27.0451 22.1736C26.8462 22.3231 26.6915 22.5289 26.5808 22.791C26.4706 23.053 26.4153 23.3554 26.4153 23.6976C26.4153 23.9233 26.4447 24.1126 26.5045 24.2655C26.5644 24.4184 26.6435 24.5395 26.7434 24.6288C26.8428 24.718 26.9519 24.7828 27.0693 24.8226C27.1868 24.8624 27.3004 24.8823 27.4088 24.8823C27.5715 24.8823 27.7262 24.8385 27.8725 24.751M24.1481 24.336C24.0741 24.2888 24.016 24.2104 23.9747 24.1007C23.9329 23.9915 23.912 23.846 23.912 23.6641C23.912 23.4418 23.9403 23.2361 23.9962 23.0468C24.0521 22.8575 24.1363 22.7057 24.2487 22.5909C24.3605 22.4766 24.5017 22.4192 24.6717 22.4192C24.809 22.4192 24.923 22.4419 25.0134 22.4874C25.1038 22.5329 25.1727 22.5761 25.2201 22.6159C25.2128 22.6631 25.2055 22.7114 25.1981 22.7608C25.1908 22.8097 25.1834 22.8694 25.1766 22.9382L25.0953 23.6596C25.0338 23.8454 24.9626 23.9927 24.8807 24.1018C24.7994 24.211 24.7169 24.2894 24.6339 24.3372C24.5508 24.3843 24.4729 24.4082 24.4006 24.4082C24.3063 24.4082 24.2221 24.3849 24.1481 24.3372M24.6881 24.7521C24.8293 24.6651 24.9507 24.5282 25.0518 24.3423C25.0626 24.5174 25.1094 24.6509 25.193 24.7442C25.2761 24.8368 25.4048 24.8829 25.5782 24.8829C25.6437 24.8829 25.7177 24.8675 25.8008 24.8363C25.8838 24.8056 25.9329 24.7499 25.9471 24.6697C25.9617 24.5969 25.9696 24.5412 25.9719 24.5031C25.9736 24.4645 25.9742 24.4417 25.9742 24.4349C25.9742 24.402 25.9634 24.386 25.942 24.386C25.9273 24.386 25.9036 24.3923 25.8714 24.4048C25.8392 24.4179 25.7991 24.4236 25.7522 24.4236C25.698 24.4236 25.6579 24.4048 25.6325 24.3667C25.607 24.3281 25.598 24.2712 25.6053 24.1945L25.8115 22.1463C25.8188 22.0844 25.8081 22.0406 25.7793 22.015C25.7499 21.9894 25.7014 21.9764 25.6325 21.9764H25.589C25.5274 21.9764 25.4794 21.9872 25.4449 22.0093C25.4105 22.0309 25.3845 22.0622 25.3664 22.102C25.3484 22.1423 25.3303 22.1895 25.3122 22.2441C25.2546 22.1895 25.1682 22.1276 25.0546 22.0582C24.9406 21.9889 24.8005 21.9548 24.6339 21.9548C24.3735 21.9548 24.1459 22.0287 23.9504 22.1759C23.755 22.3231 23.6036 22.5289 23.4975 22.7932C23.3907 23.0576 23.3376 23.36 23.3376 23.7028C23.3376 23.925 23.3647 24.1126 23.4189 24.2655C23.4732 24.4184 23.5455 24.5395 23.6358 24.6288C23.7262 24.718 23.8239 24.7828 23.929 24.8226C24.034 24.8624 24.1368 24.8823 24.2379 24.8823C24.3972 24.8823 24.5474 24.8385 24.6881 24.751M20.8987 24.2405C20.7976 24.1297 20.7468 23.9358 20.7468 23.659C20.7468 23.4953 20.7615 23.3372 20.7903 23.1866C20.8191 23.036 20.866 22.9035 20.9315 22.791C20.997 22.6784 21.0846 22.588 21.1947 22.5204C21.3048 22.4527 21.4415 22.4192 21.6048 22.4192C21.742 22.4192 21.855 22.4396 21.9436 22.4817C22.0323 22.5238 22.1018 22.5647 22.1526 22.6051L22.0442 23.6647C21.9787 23.8506 21.9047 23.9972 21.8216 24.1041C21.7381 24.2115 21.6545 24.2888 21.5692 24.3366C21.4845 24.3838 21.4037 24.4076 21.3274 24.4076C21.1427 24.4076 20.9998 24.3525 20.8987 24.2411M21.6285 24.7516C21.7753 24.6646 21.899 24.5276 22.0001 24.3417C22.0109 24.5202 22.0583 24.6549 22.1413 24.7464C22.2244 24.8374 22.3531 24.8829 22.5265 24.8829C22.5915 24.8829 22.6655 24.8675 22.7491 24.8363C22.8321 24.8056 22.8812 24.7499 22.8959 24.6697C22.9106 24.5969 22.9185 24.5412 22.9202 24.5031C22.9219 24.4645 22.923 24.4417 22.923 24.4349C22.923 24.402 22.91 24.386 22.8846 24.386C22.8739 24.386 22.8519 24.3923 22.8197 24.4048C22.7869 24.4179 22.7474 24.4236 22.6999 24.4236C22.6418 24.4236 22.6011 24.4048 22.5779 24.3667C22.5542 24.3281 22.5457 24.2712 22.5536 24.1945L22.8954 20.89C22.9027 20.8394 22.8869 20.8002 22.849 20.7729C22.8106 20.7457 22.7468 20.732 22.6564 20.732H22.5966C22.4339 20.732 22.3469 20.7775 22.3362 20.8684L22.195 22.1901C22.1261 22.1355 22.0368 22.0821 21.9261 22.0292C21.816 21.9769 21.6737 21.9502 21.5003 21.9502C21.2325 21.9502 20.9993 22.0247 20.7999 22.1742C20.6011 22.3237 20.4463 22.5295 20.3356 22.7915C20.2255 23.0536 20.1701 23.356 20.1701 23.6982C20.1701 23.9239 20.2001 24.1132 20.2599 24.2661C20.3198 24.419 20.3989 24.5401 20.4989 24.6293C20.5983 24.7186 20.7073 24.7834 20.8248 24.8232C20.9422 24.863 21.0552 24.8829 21.1636 24.8829C21.3263 24.8829 21.4816 24.8391 21.6279 24.7516M19.5511 21.4909L19.5839 21.1356C19.5912 21.0918 19.5737 21.0583 19.5325 21.0344C19.4907 21.0111 19.4189 20.9986 19.3178 20.9986C19.2167 20.9986 19.1365 21.0106 19.0896 21.0344C19.0428 21.0583 19.0173 21.0918 19.014 21.1356L18.9755 21.4909C18.9722 21.5347 18.9919 21.5682 19.0354 21.5921C19.0789 21.616 19.1512 21.6279 19.2523 21.6279C19.4438 21.6279 19.5438 21.5824 19.5511 21.4915M19.4585 24.8368C19.5454 24.8061 19.598 24.7504 19.616 24.6703C19.6268 24.5975 19.633 24.5418 19.6353 24.5037C19.6369 24.4651 19.6381 24.4423 19.6381 24.4355C19.6381 24.4025 19.6273 24.3866 19.6053 24.3866C19.5906 24.3866 19.5669 24.3929 19.5347 24.4054C19.502 24.4184 19.4624 24.4241 19.415 24.4241C19.3608 24.4241 19.3223 24.4071 19.3009 24.3724C19.2794 24.3377 19.2721 24.2786 19.2794 24.195L19.4856 22.1139C19.4895 22.0702 19.472 22.0366 19.4342 22.0127C19.3963 21.9889 19.3336 21.9769 19.2472 21.9769H19.1874C19.0247 21.9769 18.9377 22.0224 18.927 22.1134L18.7208 24.2002C18.6954 24.4548 18.7327 24.6322 18.8321 24.7328C18.9315 24.8328 19.0591 24.8829 19.2145 24.8829C19.2907 24.8829 19.372 24.8675 19.4585 24.8363M17.5364 24.7624C17.6917 24.6822 17.8137 24.5719 17.9024 24.4321C17.9911 24.2922 18.0351 24.1308 18.0351 23.9489C18.0351 23.796 18.0041 23.6704 17.9425 23.572C17.8809 23.4737 17.8036 23.3952 17.7092 23.3372C17.6149 23.2787 17.5178 23.2281 17.4161 23.1843C17.3331 23.1479 17.2517 23.1127 17.1721 23.078C17.0925 23.0433 17.0275 22.999 16.9767 22.9444C16.9264 22.8899 16.901 22.8205 16.901 22.737C16.901 22.6352 16.9433 22.5556 17.0286 22.4993C17.1139 22.4431 17.2286 22.4146 17.3737 22.4146C17.5189 22.4146 17.6313 22.4357 17.7019 22.4777C17.7725 22.5198 17.8222 22.5403 17.8516 22.5403C17.8764 22.5403 17.9064 22.5215 17.9408 22.4829C17.9753 22.4448 18.0052 22.401 18.0306 22.3515C18.056 22.3021 18.069 22.2617 18.069 22.2288C18.069 22.1776 18.0453 22.135 17.9984 22.1003C17.9515 22.0656 17.8911 22.0372 17.8165 22.0156C17.7426 21.9934 17.6635 21.9769 17.5805 21.9661C17.4969 21.9553 17.4212 21.9496 17.3523 21.9496C17.1676 21.9496 16.9998 21.9837 16.8479 22.0508C16.696 22.1185 16.5745 22.2157 16.4847 22.343C16.3938 22.4703 16.3492 22.6272 16.3492 22.8131C16.3492 22.9586 16.3797 23.082 16.4412 23.1815C16.5028 23.2815 16.5836 23.3645 16.683 23.4299C16.7824 23.4958 16.8846 23.5504 16.9897 23.5936C17.0727 23.6232 17.1506 23.6556 17.2229 23.692C17.2952 23.7283 17.354 23.7721 17.3997 23.8233C17.4449 23.8739 17.4675 23.9455 17.4675 24.0364C17.4675 24.1564 17.4189 24.2502 17.3212 24.3173C17.2235 24.3849 17.0987 24.4184 16.9467 24.4184C16.827 24.4184 16.7248 24.4031 16.64 24.3718C16.5548 24.3411 16.4864 24.3099 16.4339 24.2792C16.3814 24.2479 16.3424 24.2326 16.317 24.2326C16.2882 24.2326 16.2644 24.2615 16.2464 24.3195C16.2283 24.3781 16.2193 24.4508 16.2193 24.5378C16.2193 24.585 16.2407 24.6299 16.2842 24.6714C16.3277 24.7135 16.3853 24.7498 16.4582 24.7805C16.5305 24.8118 16.6129 24.8363 16.705 24.8544C16.7971 24.8726 16.8903 24.8817 16.984 24.8817C17.1975 24.8817 17.3822 24.8419 17.5375 24.7618M14.5514 24.8544C14.718 24.8544 14.8067 24.8073 14.8174 24.7129L15.0072 22.8177C15.0828 22.6937 15.1698 22.6056 15.2681 22.5528C15.3658 22.4999 15.4545 22.4738 15.5341 22.4738C15.6206 22.4738 15.6849 22.4829 15.7267 22.501C15.768 22.5192 15.8019 22.5283 15.8273 22.5283C15.8561 22.5283 15.8821 22.5084 15.9058 22.4681C15.9289 22.4277 15.9493 22.3805 15.9657 22.326C15.982 22.2714 15.9899 22.2202 15.9899 22.173C15.9899 22.1219 15.9769 22.081 15.9515 22.0497C15.9261 22.019 15.8939 21.9945 15.8538 21.9758C15.8137 21.9576 15.7702 21.9485 15.7233 21.9485C15.5782 21.9485 15.4472 21.9911 15.3297 22.077C15.2122 22.1628 15.1133 22.2691 15.0337 22.3964C15.0377 22.3095 15.0303 22.2259 15.0122 22.1452C14.9942 22.065 14.9524 22.0247 14.8874 22.0247C14.7423 22.0247 14.6349 22.0378 14.5643 22.0633C14.4937 22.0889 14.4587 22.1287 14.4587 22.1833C14.4587 22.2054 14.4616 22.239 14.4666 22.2845C14.4723 22.3299 14.4751 22.3959 14.4751 22.4834C14.4751 22.5272 14.474 22.5772 14.4723 22.6341C14.4706 22.6903 14.4661 22.7568 14.4587 22.833L14.2577 24.7174C14.2543 24.7578 14.2712 24.7902 14.3091 24.8158C14.3475 24.8414 14.4079 24.8539 14.4909 24.8539H14.5514V24.8544ZM12.9332 22.5056C13.0128 22.5676 13.0529 22.6517 13.0529 22.7568C13.0529 22.8484 13.0292 22.9234 12.9823 22.9837C12.9354 23.0439 12.875 23.0917 12.8004 23.128C12.7264 23.1644 12.6468 23.1923 12.5615 23.2099C12.4768 23.2281 12.3955 23.2412 12.3175 23.2486C12.2401 23.256 12.1741 23.2594 12.1198 23.2594H11.7725C11.812 23.0007 11.9046 22.7949 12.0492 22.642C12.1938 22.4891 12.3819 22.4129 12.6135 22.4129C12.7473 22.4129 12.8541 22.4436 12.9337 22.5056M11.8295 22.1725C11.6109 22.322 11.446 22.5295 11.3359 22.7949C11.2252 23.061 11.1704 23.3719 11.1704 23.7289C11.1704 23.9546 11.2048 24.1422 11.2732 24.2917C11.3421 24.4412 11.4347 24.5588 11.5528 24.6441C11.6702 24.73 11.803 24.7908 11.9515 24.8272C12.1001 24.8635 12.2537 24.8817 12.413 24.8817C12.4779 24.8817 12.5576 24.8755 12.6519 24.863C12.7462 24.8505 12.8417 24.83 12.9394 24.8027C13.0371 24.7754 13.1212 24.739 13.1918 24.6936C13.2625 24.6481 13.3048 24.5907 13.3195 24.5219C13.3302 24.4673 13.3381 24.4099 13.3438 24.3497C13.3494 24.2894 13.3523 24.2485 13.3523 24.2269C13.3523 24.1905 13.3483 24.1695 13.3415 24.1638C13.3342 24.1581 13.3251 24.1552 13.3144 24.1552C13.289 24.1552 13.2404 24.1763 13.1681 24.2183C13.0958 24.2604 13.0004 24.3042 12.8829 24.3497C12.7654 24.3951 12.6287 24.4179 12.4728 24.4179C12.317 24.4179 12.1961 24.3957 12.0876 24.3519C11.9792 24.3082 11.8939 24.232 11.8323 24.1228C11.7708 24.0137 11.7403 23.8642 11.7403 23.6749V23.4185L11.6205 23.6317C11.6962 23.6499 11.7821 23.6652 11.8787 23.6777C11.9747 23.6908 12.095 23.6965 12.2396 23.6965C12.4096 23.6965 12.5762 23.6794 12.7389 23.6448C12.9015 23.6101 13.049 23.555 13.1811 23.4782C13.3133 23.402 13.4189 23.2992 13.4985 23.1695C13.5782 23.0405 13.6183 22.8825 13.6183 22.6972C13.6183 22.6278 13.603 22.5511 13.5725 22.4652C13.5415 22.38 13.4901 22.2981 13.4178 22.2197C13.3455 22.1418 13.2461 22.077 13.119 22.0258C12.9925 21.9752 12.8332 21.9496 12.6417 21.9496C12.3198 21.9496 12.0492 22.0241 11.8301 22.1736M9.51434 24.855C9.5759 24.855 9.62956 24.8476 9.67418 24.8334C9.71937 24.8186 9.7493 24.7953 9.76399 24.7624L10.9089 22.1622C10.9236 22.1293 10.9309 22.0986 10.9309 22.0696C10.9309 22.0332 10.9089 22.0082 10.8654 21.9957C10.8219 21.9832 10.7677 21.9769 10.7027 21.9769H10.6101C10.5451 21.9769 10.4937 21.9843 10.4553 21.9985C10.4175 22.0133 10.3909 22.0372 10.3768 22.0696L9.83403 23.3202C9.77641 23.4663 9.7205 23.6164 9.66628 23.771C9.61205 23.9256 9.56122 24.0723 9.51434 24.2104H9.49288C9.47141 24.0723 9.44769 23.9273 9.42228 23.7761C9.39686 23.6254 9.36805 23.4748 9.33529 23.3253L9.06418 22.069C9.05684 22.036 9.03086 22.0122 8.98567 21.998C8.94049 21.9832 8.88683 21.9764 8.82583 21.9764H8.76031C8.5615 21.9764 8.47282 22.0218 8.49429 22.1128L9.09694 24.7459C9.10429 24.7862 9.1297 24.8141 9.17263 24.83C9.21612 24.8465 9.26865 24.8544 9.33021 24.8544H9.51491L9.51434 24.855ZM7.83628 21.4903L7.86904 21.135C7.87638 21.0913 7.85887 21.0577 7.81764 21.0339C7.77584 21.0106 7.70467 20.998 7.60301 20.998C7.50134 20.998 7.4217 21.01 7.37539 21.0339C7.32851 21.0577 7.30309 21.0913 7.29914 21.135L7.26129 21.4903C7.25734 21.5341 7.27767 21.5676 7.32117 21.5915C7.36466 21.6154 7.43639 21.6273 7.53805 21.6273C7.73009 21.6273 7.8295 21.5818 7.83684 21.4909M7.74478 24.8363C7.83176 24.8056 7.88372 24.7499 7.90236 24.6697C7.91309 24.5969 7.9193 24.5412 7.921 24.5031C7.92269 24.4645 7.92382 24.4417 7.92382 24.4349C7.92382 24.402 7.91309 24.386 7.89106 24.386C7.87638 24.386 7.85322 24.3923 7.82046 24.4048C7.7877 24.4179 7.74817 24.4236 7.70072 24.4236C7.6465 24.4236 7.60866 24.4065 7.58719 24.3718C7.56517 24.3372 7.55782 24.278 7.56517 24.1945L7.77189 22.1134C7.77528 22.0696 7.75833 22.036 7.72049 22.0122C7.68208 21.9883 7.61995 21.9764 7.53354 21.9764H7.47367C7.311 21.9764 7.22402 22.0218 7.21329 22.1128L7.00656 24.1996C6.98115 24.4543 7.01842 24.6316 7.11783 24.7322C7.21724 24.8323 7.34489 24.8823 7.50078 24.8823C7.57646 24.8823 7.65836 24.867 7.74478 24.8357M6.26722 24.8357C6.35081 24.805 6.39939 24.7493 6.41407 24.6691C6.42876 24.5964 6.43667 24.5407 6.43836 24.5026C6.44005 24.4639 6.44118 24.4412 6.44118 24.4344C6.44118 24.4014 6.43045 24.3855 6.40842 24.3855C6.39374 24.3855 6.37058 24.3917 6.33782 24.4042C6.30506 24.4173 6.26553 24.423 6.21808 24.423C6.16386 24.423 6.12376 24.4042 6.09891 24.3661C6.07349 24.3275 6.06445 24.2706 6.0718 24.1939L6.21243 22.7682C6.23785 22.4988 6.19097 22.2947 6.0718 22.156C5.95205 22.0179 5.76397 21.9485 5.50755 21.9485C5.38103 21.9485 5.25338 21.9741 5.1246 22.0247C4.99639 22.0758 4.87665 22.1514 4.76651 22.2515C4.65637 22.3515 4.55753 22.476 4.47055 22.6255L4.5468 22.7568C4.55414 22.7205 4.56092 22.6693 4.56826 22.6039C4.5756 22.538 4.57899 22.4726 4.57899 22.4072C4.57899 22.3123 4.56826 22.2253 4.5468 22.1452C4.52477 22.065 4.48523 22.0247 4.42706 22.0247C4.38356 22.0247 4.32991 22.0287 4.26721 22.0355C4.20395 22.0429 4.14747 22.0571 4.0989 22.0792C4.05032 22.1008 4.02547 22.1321 4.02547 22.1725C4.02547 22.1941 4.02717 22.2197 4.03112 22.2486C4.03451 22.2776 4.03677 22.3248 4.03677 22.3908C4.03677 22.4453 4.03169 22.5323 4.02321 22.6528C4.01418 22.7733 4.00232 22.8967 3.98763 23.024L3.80858 24.7174C3.80463 24.7538 3.82214 24.7857 3.85998 24.8129C3.89839 24.8402 3.95882 24.8539 4.04185 24.8539H4.10172C4.26778 24.8539 4.35476 24.8084 4.3621 24.7174L4.52477 23.1496C4.59029 22.9638 4.66597 22.8194 4.75295 22.7153C4.83993 22.6113 4.92918 22.5374 5.02181 22.4942C5.11387 22.4504 5.19803 22.4283 5.27371 22.4283C5.40418 22.4283 5.50246 22.4624 5.56968 22.5295C5.63689 22.5965 5.66287 22.7068 5.64818 22.8597L5.51771 24.1871C5.49286 24.4457 5.53127 24.6259 5.63463 24.7277C5.73799 24.8294 5.87468 24.8806 6.04468 24.8806C6.10964 24.8806 6.18363 24.8652 6.26722 24.834M2.53775 24.5418C2.82355 24.3161 2.98621 24.0029 3.02632 23.6021L3.28105 21.1441C3.28839 21.1004 3.27483 21.0668 3.24038 21.043C3.20593 21.0191 3.14323 21.0071 3.05343 21.0071H2.97209C2.80208 21.0071 2.71341 21.0526 2.70607 21.1436L2.45077 23.5959C2.42535 23.8432 2.32482 24.0359 2.14972 24.1723C1.97463 24.3087 1.73628 24.3769 1.43636 24.3769C1.13645 24.3769 0.900918 24.3116 0.763668 24.1803C0.626418 24.0489 0.568242 23.8761 0.59027 23.6618L0.850649 21.1436C0.854038 21.0998 0.838788 21.0663 0.804335 21.0424C0.769881 21.0185 0.707187 21.0066 0.617381 21.0066H0.536048C0.365474 21.0066 0.277363 21.052 0.27002 21.143L0.00851086 23.6704C-0.031591 24.0671 0.0700757 24.369 0.312381 24.5742C0.554687 24.78 0.912779 24.8829 1.38666 24.8829C1.86054 24.8829 2.25139 24.7703 2.53719 24.5446" fill="#001B3C"/>
</g>
<defs>
<clipPath id="clip0_2418_7781">
<rect width="67" height="26" fill="white"/>
</clipPath>
</defs>
</svg>
