<svg width="190" height="30" viewBox="0 0 190 30" fill="none" xmlns="http://www.w3.org/2000/svg">
<g clip-path="url(#clip0_2347_6984)">
<path d="M122.023 7.60799C119.58 7.60799 117.353 9.0068 116.274 11.2216C115.203 13.4364 115.472 16.0708 116.975 18.0136C117.723 17.3375 118.686 16.9567 119.696 16.9567H122.023C120.435 16.9567 119.141 15.659 119.141 14.0503C119.141 12.4417 120.428 11.1439 122.023 11.1439C123.618 11.1439 124.905 12.4417 124.905 14.0503V11.0662C124.905 10.2347 125.198 9.42645 125.737 8.79698C124.658 8.01986 123.356 7.60021 122.023 7.60799Z" fill="#001B3C"/>
<path d="M130.099 7.60022H128.342C127.433 7.60022 126.554 7.96547 125.907 8.61825C125.845 8.68042 125.791 8.74259 125.738 8.80476C127.418 10.0171 128.419 11.9676 128.419 14.0503V11.1439H130.099V7.60022ZM128.15 15.8921C127.34 18.6276 124.844 20.5004 122.015 20.5004C124.851 20.5004 127.34 18.6276 128.15 15.8921ZM116.975 18.0136C115.719 19.1482 115.295 20.9434 115.896 22.5365C116.498 24.1218 118.008 25.1709 119.696 25.1709H124.35C124.659 25.1709 124.905 25.4196 124.905 25.7304C124.905 26.0413 124.659 26.29 124.35 26.29H120.266V29.8336H124.35C126.601 29.8336 128.419 27.9996 128.419 25.7304C128.419 23.4612 126.601 21.6272 124.35 21.6272H119.696C119.387 21.6272 119.141 21.3786 119.141 21.0677C119.141 20.7569 119.387 20.5082 119.696 20.5082H122.023C120.05 20.5004 118.185 19.5834 116.975 18.0136Z" fill="#001B3C"/>
<path d="M125.737 8.80478C125.197 9.43425 124.897 10.2347 124.905 11.074V14.0581C124.905 15.659 123.618 16.9645 122.022 16.9645H119.695C118.693 16.9645 117.722 17.3376 116.975 18.0214C118.185 19.5834 120.049 20.5004 122.022 20.5004C124.804 20.5004 127.263 18.6897 128.11 16.0165C128.958 13.3432 128.003 10.4367 125.737 8.80478Z" fill="#001B3C"/>
<path d="M135.647 7.59247H132.133V20.5004V12.3951C132.133 10.2269 133.574 8.33073 135.647 7.75566V7.59247Z" fill="#001B3C"/>
<path d="M136.895 7.59247C136.471 7.59247 136.055 7.64687 135.646 7.75566V12.3873C135.646 11.8822 135.947 11.4237 136.417 11.2294C136.887 11.0351 137.419 11.1439 137.773 11.5014L140.255 8.99128C139.369 8.0976 138.159 7.59247 136.895 7.59247Z" fill="#001B3C"/>
<path d="M135.647 7.76346C133.574 8.33076 132.133 10.2347 132.133 12.4029V20.5082H135.647V7.76346Z" fill="#001B3C"/>
<path d="M145.504 7.61578H141.982V20.4927H145.504V7.61578Z" fill="#001B3C"/>
<path d="M145.536 0.0544128H142.014V3.80013H145.536V0.0544128Z" fill="#001B3C"/>
<path d="M160.362 0H156.848V8.29964C159.005 9.39538 160.362 11.6257 160.362 14.0581V0ZM160.362 14.0503C160.362 16.4827 158.998 18.7131 156.848 19.8088V20.5004H160.362V14.0503Z" fill="#001B3C"/>
<path d="M153.965 7.608C151.322 7.608 148.948 9.24772 147.993 11.7345C147.037 14.2213 147.708 17.0422 149.665 18.8374C151.622 20.6248 154.474 21.0133 156.84 19.8166V14.0581C156.84 15.659 155.553 16.9645 153.957 16.9645C152.362 16.9645 151.075 15.6667 151.075 14.0581C151.075 12.4495 152.362 11.1517 153.957 11.1517C155.545 11.1517 156.84 12.4495 156.84 14.0581V8.29964C155.953 7.84114 154.967 7.60023 153.965 7.608Z" fill="#001B3C"/>
<path d="M156.848 8.29962V14.0581V19.8165C159.005 18.7208 160.362 16.4905 160.362 14.0581C160.362 11.6179 158.998 9.39536 156.848 8.29962Z" fill="#001B3C"/>
<path d="M175.182 0H171.668V8.29964C173.826 9.39538 175.182 11.6257 175.182 14.0581V0ZM175.182 14.0503C175.182 16.4827 173.818 18.7131 171.668 19.8088V20.5004H175.182V14.0503Z" fill="#001B3C"/>
<path d="M168.786 7.608C166.142 7.608 163.769 9.24772 162.813 11.7345C161.857 14.2213 162.528 17.0422 164.485 18.8374C166.443 20.6248 169.294 21.0133 171.66 19.8166V14.0581C171.66 15.659 170.373 16.9645 168.778 16.9645C167.183 16.9645 165.896 15.6667 165.896 14.0581C165.896 12.4495 167.183 11.1517 168.778 11.1517C170.365 11.1517 171.66 12.4495 171.66 14.0581V8.29964C170.774 7.84114 169.787 7.60023 168.786 7.608Z" fill="#001B3C"/>
<path d="M171.668 8.29965V14.0581V19.8166C173.826 18.7208 175.182 16.4905 175.182 14.0581C175.182 11.618 173.826 9.39539 171.668 8.29965Z" fill="#001B3C"/>
<path d="M183.612 7.60022C181.023 7.60022 178.696 9.17 177.701 11.5791C176.715 13.9881 177.262 16.7625 179.089 18.6042C180.915 20.446 183.666 20.9978 186.055 20.0031C188.444 19.0083 190.001 16.6537 190.001 14.0425C190.001 10.4833 187.142 7.60022 183.612 7.60022ZM183.612 16.949C182.449 16.949 181.393 16.2418 180.954 15.1538C180.507 14.0659 180.753 12.8225 181.578 11.991C182.402 11.1594 183.643 10.9108 184.714 11.3615C185.793 11.8122 186.495 12.8691 186.495 14.0425C186.487 15.6512 185.2 16.949 183.612 16.949Z" fill="#001B3C"/>
</g>
<g clip-path="url(#clip1_2347_6984)">
<path d="M31.9145 23.75C31.0457 23.7649 30.1836 23.5956 29.3854 23.2532C28.671 22.9429 28.0633 22.4309 27.6372 21.7803C27.2087 21.1285 26.9945 20.3149 26.9945 19.3394C26.9711 18.6224 27.1268 17.9108 27.4476 17.2687C27.7396 16.7232 28.1645 16.2596 28.6832 15.9209C29.2313 15.5691 29.8331 15.3087 30.4651 15.15C31.1543 14.9727 31.8566 14.8505 32.5652 14.7845C33.4222 14.6948 34.1184 14.6099 34.654 14.5297C35.1896 14.4496 35.5699 14.3289 35.7948 14.1675C35.9116 14.0903 36.006 13.9841 36.0689 13.8593C36.1317 13.7344 36.1608 13.5954 36.1532 13.4559V13.3982C36.1532 12.7871 35.9614 12.3153 35.5779 11.983C35.1944 11.6508 34.6524 11.4835 33.9519 11.4814C33.2106 11.4814 32.6214 11.6417 32.1844 11.9622C31.7661 12.2593 31.4604 12.6885 31.3167 13.1803L27.5119 12.8854C27.6877 12.0235 28.0796 11.2201 28.6511 10.5502C29.2476 9.86848 30.003 9.34343 30.8508 9.02127C31.8487 8.64787 32.9087 8.46677 33.9744 8.48757C34.7733 8.48464 35.5695 8.58156 36.3444 8.77606C37.0639 8.95584 37.7456 9.26192 38.3577 9.67997C38.9417 10.0786 39.4207 10.6119 39.754 11.2346C40.1108 11.9364 40.2864 12.7158 40.2649 13.5024V23.4631H36.3652V21.4197H36.2496C36.0099 21.8817 35.6856 22.2948 35.2935 22.6377C34.8692 23.0012 34.378 23.2788 33.8474 23.4551C33.2242 23.6606 32.5708 23.7603 31.9145 23.75ZM33.1003 20.9181C33.6573 20.9301 34.2089 20.8063 34.707 20.5574C35.1515 20.3342 35.5281 19.9967 35.7981 19.5798C36.0639 19.163 36.2018 18.6778 36.1949 18.1839V16.6148C36.0302 16.7134 35.8529 16.7894 35.6679 16.8408C35.4462 16.9081 35.1971 16.969 34.9207 17.0235C34.6444 17.078 34.3675 17.1261 34.09 17.1678L33.3365 17.2783C32.9022 17.3358 32.4772 17.4489 32.0719 17.6149C31.7433 17.7466 31.4544 17.9608 31.2332 18.2367C31.0275 18.5145 30.9216 18.8532 30.9327 19.1984C30.918 19.4464 30.9666 19.6941 31.0739 19.9183C31.1813 20.1426 31.3439 20.336 31.5465 20.4805C32.0051 20.7863 32.549 20.9395 33.1003 20.9181Z" fill="#001B3C"/>
<path d="M47.5724 14.9191V23.4631H43.459V8.67987H47.3795V11.2826H47.5611C47.875 10.4409 48.454 9.72336 49.2113 9.2376C49.9836 8.73222 50.9198 8.48006 52.0199 8.48113C52.9626 8.4589 53.8937 8.6915 54.7145 9.15426C55.4842 9.60881 56.1045 10.2771 56.4996 11.0775C56.9281 11.9088 57.1424 12.8992 57.1424 14.0489V23.4631H53.0242V14.7845C53.0306 13.8795 52.7992 13.1717 52.33 12.661C51.8609 12.1502 51.2139 11.8954 50.389 11.8965C49.8789 11.8858 49.3748 12.0085 48.9269 12.2523C48.5027 12.492 48.1597 12.8525 47.9419 13.2876C47.6918 13.7949 47.5652 14.3539 47.5724 14.9191Z" fill="#001B3C"/>
<path d="M67.8713 20.2353L67.4278 20.3171C67.237 20.3521 67.0434 20.3698 66.8494 20.3699C66.6004 20.375 66.3528 20.3326 66.1199 20.2449C65.9129 20.1589 65.7424 20.0036 65.6378 19.8058C65.508 19.5313 65.4484 19.229 65.4643 18.9259V11.7635H68.2553V8.67991H65.4579V5.13635H61.3461V8.67991H59.3184V11.7635H61.3461V19.4644C61.3397 20.4346 61.5427 21.2359 61.9551 21.8685C62.3696 22.5073 62.9758 22.9993 63.6872 23.274C64.5163 23.5889 65.4032 23.7233 66.2886 23.6683C66.7463 23.6577 67.202 23.6041 67.6495 23.508C68.0223 23.4215 68.3131 23.3477 68.5188 23.282L67.8713 20.2353Z" fill="#001B3C"/>
<path d="M14.0062 17.2014L13.6077 17.7511L12.9746 17.9996L13.5257 18.397L13.7748 19.0285L14.1733 18.4788L14.8063 18.2303L14.2552 17.8329L14.0062 17.2014Z" fill="#001B3C"/>
<path d="M13.2866 22.1986C12.9234 21.7947 12.925 21.1729 13.24 20.6488C12.8729 20.6581 12.5213 20.7979 12.2486 21.043C12.0604 21.2088 11.9152 21.4175 11.8255 21.6513C11.7357 21.8852 11.704 22.1373 11.7332 22.386C11.7623 22.6347 11.8513 22.8727 11.9927 23.0796C12.1341 23.2866 12.3236 23.4563 12.545 23.5743C12.7664 23.6923 13.0132 23.7551 13.2642 23.7574C13.5152 23.7596 13.7631 23.7012 13.9866 23.5871C14.2101 23.473 14.4025 23.3067 14.5476 23.1023C14.6926 22.8979 14.7859 22.6615 14.8194 22.4133C14.2683 22.6618 13.6561 22.6009 13.2866 22.1986Z" fill="#001B3C"/>
<path d="M76.6694 20.0462C76.3958 19.4058 75.8846 18.8958 75.2426 18.623C74.9131 18.4865 74.5598 18.4162 74.203 18.4162C73.8462 18.4162 73.4929 18.4865 73.1634 18.623C72.5214 18.8958 72.0101 19.4058 71.7366 20.0462C71.5997 20.3748 71.5293 20.7272 71.5293 21.0831C71.5293 21.439 71.5997 21.7914 71.7366 22.1201C72.0101 22.7604 72.5214 23.2704 73.1634 23.5432C73.4929 23.6797 73.8462 23.75 74.203 23.75C74.5598 23.75 74.9131 23.6797 75.2426 23.5432C75.8846 23.2704 76.3958 22.7604 76.6694 22.1201C76.9435 21.4558 76.9435 20.7104 76.6694 20.0462ZM76.0187 22.1297C75.8331 22.443 75.5711 22.7043 75.257 22.8893C74.9343 23.0742 74.5687 23.1715 74.1966 23.1715C73.8244 23.1715 73.4588 23.0742 73.1361 22.8893C72.822 22.7043 72.56 22.443 72.3745 22.1297C72.1892 21.8083 72.0917 21.4442 72.0917 21.0735C72.0917 20.7028 72.1892 20.3386 72.3745 20.0173C72.56 19.7045 72.8221 19.4437 73.1361 19.2592C73.4582 19.0734 73.8237 18.9755 74.1958 18.9755C74.5678 18.9755 74.9334 19.0734 75.2554 19.2592C75.5702 19.4432 75.8329 19.7041 76.0187 20.0173C76.2039 20.3386 76.3014 20.7028 76.3014 21.0735C76.3014 21.4442 76.2039 21.8083 76.0187 22.1297Z" fill="#001B3C"/>
<path d="M75.1129 21.1408C75.1877 21.0184 75.2251 20.877 75.2205 20.7337C75.225 20.5911 75.1894 20.4501 75.1177 20.3267C75.0482 20.2133 74.9471 20.1226 74.8269 20.0654C74.694 20.0021 74.5483 19.9703 74.4011 19.9725H73.2988V22.2435H73.9223V21.4838H74.2629L74.6003 22.2435H75.2816L74.8606 21.3796C74.9639 21.323 75.0508 21.2407 75.1129 21.1408ZM73.9223 20.4308H74.2645C74.3451 20.4268 74.4242 20.4531 74.4862 20.5046C74.5171 20.5337 74.541 20.5695 74.556 20.6092C74.5711 20.6489 74.5769 20.6915 74.573 20.7337C74.5761 20.7755 74.57 20.8173 74.555 20.8564C74.54 20.8955 74.5165 20.9308 74.4862 20.9597C74.4239 21.0131 74.3434 21.0406 74.2613 21.0366H73.9223V20.4308Z" fill="#001B3C"/>
<path d="M22.5689 3.75L19.2975 17.4803H19.1207L15.5231 3.75H11.6138L8.00339 17.4514H7.84272L4.56648 3.75H0L5.65749 23.4631H9.73872L9.86726 22.9967L12.8848 12.6594C12.9431 12.4733 13.0595 12.3107 13.2171 12.1954C13.3746 12.08 13.5651 12.018 13.7605 12.0183H15.5023C15.5875 12.0183 15.6692 12.0521 15.7295 12.1122C15.7898 12.1723 15.8236 12.2538 15.8236 12.3388C15.8309 12.4799 15.8079 12.6209 15.7561 12.7523L15.4653 13.2203C15.2399 13.5829 15.0933 13.9887 15.0352 14.4114C14.9771 14.8341 15.0086 15.2643 15.1279 15.674L17.4047 23.4631H21.4795L27.1354 3.75H22.5689Z" fill="#001B3C"/>
</g>
<path d="M97.5027 23.4333C97.102 20.7084 95.98 18.2239 91.8926 17.8232C95.98 17.4224 97.102 14.9379 97.5027 12.213C97.9035 14.9379 99.0255 17.4224 103.113 17.8232C98.9453 18.2239 97.8233 20.7084 97.5027 23.4333Z" fill="url(#paint0_linear_2347_6984)"/>
<path d="M90.6912 14.6173C90.3706 12.4534 89.489 10.5299 86.2832 10.2093C89.489 9.88876 90.3706 7.96528 90.6912 5.80136C91.0118 7.96528 91.8934 9.88876 95.0992 10.2093C91.8132 10.5299 90.9316 12.4534 90.6912 14.6173Z" fill="url(#paint1_linear_2347_6984)"/>
<path d="M100.228 9.80874C100.148 9.00729 99.8272 8.28598 98.625 8.20584C99.8272 8.12569 100.148 7.40439 100.228 6.60294C100.308 7.40439 100.629 8.12569 101.831 8.20584C100.629 8.28598 100.308 9.00729 100.228 9.80874Z" fill="url(#paint2_linear_2347_6984)"/>
<defs>
<linearGradient id="paint0_linear_2347_6984" x1="97.5027" y1="12.213" x2="97.5027" y2="23.4333" gradientUnits="userSpaceOnUse">
<stop stop-color="#3CC3DD"/>
<stop offset="1" stop-color="#505CFE"/>
</linearGradient>
<linearGradient id="paint1_linear_2347_6984" x1="90.6912" y1="5.80136" x2="90.6912" y2="14.6173" gradientUnits="userSpaceOnUse">
<stop stop-color="#3CC3DD"/>
<stop offset="1" stop-color="#505CFE"/>
</linearGradient>
<linearGradient id="paint2_linear_2347_6984" x1="100.228" y1="6.60294" x2="100.228" y2="9.80874" gradientUnits="userSpaceOnUse">
<stop stop-color="#3CC3DD"/>
<stop offset="1" stop-color="#505CFE"/>
</linearGradient>
<clipPath id="clip0_2347_6984">
<rect width="74.3749" height="29.8259" fill="white" transform="translate(115.625)"/>
</clipPath>
<clipPath id="clip1_2347_6984">
<rect width="76.875" height="19.9999" fill="white" transform="translate(0 3.75)"/>
</clipPath>
</defs>
</svg>
