<svg xmlns="http://www.w3.org/2000/svg" viewBox="0 0 23 7" preserveAspectRatio="none" fill="none">
  <path d="M0.6 5.6c0-.04.2-.13.64-.26.45-.16 1.04-.33 1.79-.53.76-.21 1.65-.45 2.66-.7 1.01-.27 2.12-.55 3.31-.82 1.21-.29 2.46-.58 3.75-.88 1.31-.31 7.38-1.66 8.71-1.96.02-.02.08-.03.18-.03h.23c.33 0 .54.1.61.29.1.18.15.41.15.7 0 .23-.08.43-.23.59-.16.14-.45.27-.88.41-.41.14-5.74 1.33-6.48 1.49-.72.14-1.67.33-2.84.59-1.17.23-2.59.54-4.24.91-1.64.35-3.58.8-5.83 1.35h-.21c-.12 0-.26-.02-.44-.06-.16-.06-.31-.14-.47-.23-.14-.12-.25-.24-.35-.38-.08-.16-.1-.31-.06-.47z" fill="url(#grad)" />
  <defs>
    <linearGradient id="grad" x1="0" y1="0" x2="23" y2="0" gradientUnits="userSpaceOnUse">
      <stop offset="0%" stop-color="#5057FF"/>
      <stop offset="100%" stop-color="#3CC3DD"/>
    </linearGradient>
  </defs>
</svg>
